<svg xmlns="http://www.w3.org/2000/svg" xmlns:xlink="http://www.w3.org/1999/xlink" width="500" zoomAndPan="magnify" viewBox="0 0 375 374.999991" height="500" preserveAspectRatio="xMidYMid meet" version="1.0"><defs><g/></defs><rect x="-37.5" width="450" fill="#ffffff" y="-37.499999" height="449.999989" fill-opacity="1"/><rect x="-37.5" width="450" fill="#303034" y="-37.499999" height="449.999989" fill-opacity="1"/><g fill="#ffffff" fill-opacity="1"><g transform="translate(135.463414, 182.256082)"><g><path d="M 2.039062 -11.476562 L 0.15625 -11.476562 C 0.0703125 -11.476562 0 -11.40625 0 -11.347656 L 0 -6.84375 L 2.195312 -6.84375 L 2.195312 -9.382812 C 4.691406 -9.511719 6.542969 -8.464844 6.542969 -5.738281 C 6.542969 -2.195312 3.585938 -2.050781 2.195312 -2.109375 L 2.195312 -4.632812 L 0 -4.632812 L 0 -0.128906 C 0 -0.0703125 0.0703125 0 0.15625 0 L 2.039062 0 C 4.894531 0 8.753906 -0.832031 8.753906 -5.738281 C 8.753906 -10.832031 4.835938 -11.476562 2.039062 -11.476562 Z M 2.039062 -11.476562 "/></g></g></g><g fill="#ffffff" fill-opacity="1"><g transform="translate(146.23615, 182.256082)"><g><path d="M 5.453125 -2.136719 L 2.195312 -2.136719 L 2.195312 -4.71875 L 6.699219 -4.71875 C 6.785156 -4.71875 6.859375 -4.792969 6.859375 -4.851562 L 6.859375 -6.671875 C 6.859375 -6.742188 6.785156 -6.800781 6.699219 -6.800781 L 2.195312 -6.800781 L 2.195312 -9.398438 L 5.453125 -9.398438 L 5.453125 -11.476562 L 0.15625 -11.476562 C 0.0703125 -11.476562 0 -11.40625 0 -11.347656 L 0 -0.128906 C 0 -0.0703125 0.0703125 0 0.15625 0 L 5.453125 0 Z M 5.453125 -2.136719 "/></g></g></g><g fill="#ffffff" fill-opacity="1"><g transform="translate(155.015112, 182.256082)"><g><path d="M 5.984375 -9.339844 L 4.476562 -5.136719 L 2.238281 -11.390625 C 2.222656 -11.449219 2.167969 -11.476562 2.09375 -11.476562 L 0.144531 -11.476562 C 0.0273438 -11.476562 -0.0273438 -11.390625 0.015625 -11.304688 L 4.332031 -0.0703125 C 4.390625 0.0273438 4.5625 0.0273438 4.605469 -0.0703125 L 8.191406 -9.339844 Z M 5.984375 -9.339844 "/></g></g></g><g fill="#ffffff" fill-opacity="1"><g transform="translate(165.199754, 182.256082)"><g><path d="M 5.453125 -2.136719 L 2.195312 -2.136719 L 2.195312 -4.71875 L 6.699219 -4.71875 C 6.785156 -4.71875 6.859375 -4.792969 6.859375 -4.851562 L 6.859375 -6.671875 C 6.859375 -6.742188 6.785156 -6.800781 6.699219 -6.800781 L 2.195312 -6.800781 L 2.195312 -9.398438 L 5.453125 -9.398438 L 5.453125 -11.476562 L 0.15625 -11.476562 C 0.0703125 -11.476562 0 -11.40625 0 -11.347656 L 0 -0.128906 C 0 -0.0703125 0.0703125 0 0.15625 0 L 5.453125 0 Z M 5.453125 -2.136719 "/></g></g></g><g fill="#ffffff" fill-opacity="1"><g transform="translate(173.978717, 182.256082)"><g><path d="M 6.199219 -2.136719 L 0 -2.136719 L 0 -0.128906 C 0 -0.0703125 0.0703125 0 0.15625 0 L 6.199219 0 C 6.296875 0 6.355469 -0.0703125 6.355469 -0.128906 L 6.355469 -1.996094 C 6.355469 -2.066406 6.296875 -2.136719 6.199219 -2.136719 Z M 2.195312 -4.332031 L 2.195312 -11.347656 C 2.195312 -11.40625 2.136719 -11.476562 2.050781 -11.476562 L 0.15625 -11.476562 C 0.0703125 -11.476562 0 -11.40625 0 -11.347656 L 0 -4.332031 Z M 2.195312 -4.332031 "/></g></g></g><g fill="#ffffff" fill-opacity="1"><g transform="translate(182.241306, 182.256082)"><g><path d="M 6.601562 -5.710938 C 6.601562 -6.3125 6.125 -6.800781 5.523438 -6.800781 C 4.921875 -6.800781 4.449219 -6.3125 4.449219 -5.710938 C 4.449219 -5.121094 4.921875 -4.632812 5.523438 -4.632812 C 6.125 -4.632812 6.601562 -5.121094 6.601562 -5.710938 Z M 11.046875 -5.753906 C 11.046875 -8.609375 9.195312 -11.476562 5.539062 -11.476562 C 1.820312 -11.476562 0 -8.609375 0 -5.753906 C 0 -2.882812 1.820312 0 5.539062 0 C 9.195312 0 11.046875 -2.882812 11.046875 -5.753906 Z M 8.894531 -5.710938 C 8.894531 -3.859375 7.761719 -2.007812 5.539062 -2.007812 C 3.285156 -2.007812 2.167969 -3.859375 2.167969 -5.710938 C 2.167969 -7.589844 3.285156 -9.457031 5.539062 -9.457031 C 7.761719 -9.457031 8.894531 -7.589844 8.894531 -5.710938 Z M 8.894531 -5.710938 "/></g></g></g><g fill="#ffffff" fill-opacity="1"><g transform="translate(195.409443, 182.256082)"><g><path d="M 3.859375 -11.476562 L 0.144531 -11.476562 C 0.0703125 -11.476562 0 -11.40625 0 -11.347656 L 0 -9.371094 L 3.859375 -9.371094 C 4.117188 -9.371094 5.550781 -9.296875 5.550781 -8.035156 C 5.550781 -6.773438 4.148438 -6.742188 3.859375 -6.742188 L 0 -6.742188 L 0 -0.128906 C 0 -0.0703125 0.0703125 0 0.144531 0 L 2.007812 0 C 2.109375 0 2.152344 -0.0703125 2.152344 -0.128906 L 2.152344 -4.621094 L 3.859375 -4.621094 C 4.132812 -4.621094 7.734375 -4.664062 7.734375 -8.035156 C 7.734375 -11.40625 4.320312 -11.476562 3.859375 -11.476562 Z M 3.859375 -11.476562 "/></g></g></g><g fill="#ffffff" fill-opacity="1"><g transform="translate(205.1064, 182.256082)"><g><path d="M 3.859375 -11.476562 L 0.144531 -11.476562 C 0.0703125 -11.476562 0 -11.40625 0 -11.347656 L 0 -9.371094 L 3.859375 -9.371094 C 4.117188 -9.371094 5.550781 -9.296875 5.550781 -8.035156 C 5.550781 -6.773438 4.148438 -6.742188 3.859375 -6.742188 L 0 -6.742188 L 0 -0.128906 C 0 -0.0703125 0.0703125 0 0.144531 0 L 2.007812 0 C 2.109375 0 2.152344 -0.0703125 2.152344 -0.128906 L 2.152344 -4.621094 L 3.859375 -4.621094 C 4.132812 -4.621094 7.734375 -4.664062 7.734375 -8.035156 C 7.734375 -11.40625 4.320312 -11.476562 3.859375 -11.476562 Z M 3.859375 -11.476562 "/></g></g></g><g fill="#ffffff" fill-opacity="1"><g transform="translate(214.803358, 182.256082)"><g><path d="M 5.453125 -2.136719 L 2.195312 -2.136719 L 2.195312 -4.71875 L 6.699219 -4.71875 C 6.785156 -4.71875 6.859375 -4.792969 6.859375 -4.851562 L 6.859375 -6.671875 C 6.859375 -6.742188 6.785156 -6.800781 6.699219 -6.800781 L 2.195312 -6.800781 L 2.195312 -9.398438 L 5.453125 -9.398438 L 5.453125 -11.476562 L 0.15625 -11.476562 C 0.0703125 -11.476562 0 -11.40625 0 -11.347656 L 0 -0.128906 C 0 -0.0703125 0.0703125 0 0.15625 0 L 5.453125 0 Z M 5.453125 -2.136719 "/></g></g></g><g fill="#ffffff" fill-opacity="1"><g transform="translate(223.582317, 182.256082)"><g><path d="M 8.464844 -11.476562 L 6.601562 -11.476562 C 6.5 -11.476562 6.441406 -11.40625 6.441406 -11.347656 L 6.441406 -3.832031 C 6.441406 -2.667969 5.378906 -2.109375 4.304688 -2.109375 C 3.242188 -2.109375 2.296875 -2.710938 2.167969 -3.84375 L 2.167969 -9.398438 L 0 -9.398438 L 0 -3.832031 C 0 -1.464844 1.9375 0 4.304688 0 C 6.742188 0 8.609375 -1.40625 8.609375 -3.832031 L 8.609375 -11.347656 C 8.609375 -11.40625 8.535156 -11.476562 8.464844 -11.476562 Z M 8.464844 -11.476562 "/></g></g></g><g fill="#ffffff" fill-opacity="1"><g transform="translate(234.197272, 182.256082)"><g><path d="M 7.835938 -0.1875 C 7.117188 -1.777344 6.34375 -3.359375 5.625 -4.980469 C 6.773438 -5.394531 7.734375 -6.3125 7.734375 -8.0625 C 7.734375 -11.449219 4.503906 -11.476562 3.859375 -11.476562 L 0.144531 -11.476562 C 0.0703125 -11.476562 0 -11.40625 0 -11.347656 L 0 -9.398438 L 3.859375 -9.398438 C 4.203125 -9.398438 5.550781 -9.328125 5.550781 -8.0625 C 5.550781 -6.800781 4.332031 -6.742188 3.859375 -6.742188 L 0 -6.742188 L 0 -0.128906 C 0 -0.0703125 0.0703125 0 0.144531 0 L 2.023438 0 C 2.109375 0 2.179688 -0.0703125 2.179688 -0.128906 L 2.179688 -4.632812 L 3.414062 -4.632812 L 5.507812 -0.0859375 C 5.523438 -0.0429688 5.609375 0 5.652344 0 L 7.703125 0 C 7.820312 0 7.878906 -0.0859375 7.835938 -0.1875 Z M 7.835938 -0.1875 "/></g></g></g><path stroke-linecap="butt" transform="matrix(-0.276573, 0, 0, -0.277963, 251.358298, 166.406005)" fill="none" stroke-linejoin="miter" d="M -0.00389555 5.002041 L 84.427784 5.002041 " stroke="#ffffff" stroke-width="10" stroke-opacity="1" stroke-miterlimit="4"/><path stroke-linecap="butt" transform="matrix(0, -0.276435, 0.277963, 0, 248.580106, 187.380573)" fill="none" stroke-linejoin="miter" d="M 0.00603052 4.995797 L 82.459316 4.995797 " stroke="#ffffff" stroke-width="10" stroke-opacity="1" stroke-miterlimit="4"/><path stroke-linecap="butt" transform="matrix(0.273132, 0, 0, 0.274504, 125.326081, 192.928346)" fill="none" stroke-linejoin="miter" d="M -0.00681839 4.999697 L 84.430394 4.999697 " stroke="#ffffff" stroke-width="10" stroke-opacity="1" stroke-miterlimit="4"/><path stroke-linecap="butt" transform="matrix(0, 0.272995, -0.274504, 0, 128.069703, 172.214871)" fill="none" stroke-linejoin="miter" d="M -0.000100153 5.00682 L 82.461871 5.00682 " stroke="#ffffff" stroke-width="10" stroke-opacity="1" stroke-miterlimit="4"/><g fill="#ffffff" fill-opacity="1"><g transform="translate(181.262439, 193.386316)"><g><path d="M 3.546875 -3.601562 L 1.164062 -3.601562 L 1.164062 -4.976562 L 2.886719 -4.976562 L 2.886719 -6.078125 L 0.0820312 -6.078125 C 0.0390625 -6.078125 0 -6.039062 0 -6.011719 L 0 -0.0703125 C 0 -0.0390625 0.0390625 0 0.0820312 0 L 1.164062 0 L 1.164062 -2.5 L 3.546875 -2.5 C 3.59375 -2.5 3.632812 -2.539062 3.632812 -2.566406 L 3.632812 -3.53125 C 3.632812 -3.570312 3.59375 -3.601562 3.546875 -3.601562 Z M 3.546875 -3.601562 "/></g></g></g><g fill="#ffffff" fill-opacity="1"><g transform="translate(185.910414, 193.386316)"><g><path d="M 4.148438 -0.0976562 C 3.769531 -0.941406 3.359375 -1.777344 2.976562 -2.636719 C 3.585938 -2.855469 4.09375 -3.34375 4.09375 -4.269531 C 4.09375 -6.0625 2.386719 -6.078125 2.042969 -6.078125 L 0.0742188 -6.078125 C 0.0390625 -6.078125 0 -6.039062 0 -6.011719 L 0 -4.976562 L 2.042969 -4.976562 C 2.226562 -4.976562 2.941406 -4.9375 2.941406 -4.269531 C 2.941406 -3.601562 2.292969 -3.570312 2.042969 -3.570312 L 0 -3.570312 L 0 -0.0703125 C 0 -0.0390625 0.0390625 0 0.0742188 0 L 1.070312 0 C 1.117188 0 1.15625 -0.0390625 1.15625 -0.0703125 L 1.15625 -2.453125 L 1.808594 -2.453125 L 2.917969 -0.046875 C 2.925781 -0.0234375 2.972656 0 2.992188 0 L 4.082031 0 C 4.140625 0 4.171875 -0.046875 4.148438 -0.0976562 Z M 4.148438 -0.0976562 "/></g></g></g><g fill="#ffffff" fill-opacity="1"><g transform="translate(191.112724, 193.386316)"><g><path d="M 3.496094 -3.023438 C 3.496094 -3.34375 3.246094 -3.601562 2.925781 -3.601562 C 2.605469 -3.601562 2.355469 -3.34375 2.355469 -3.023438 C 2.355469 -2.710938 2.605469 -2.453125 2.925781 -2.453125 C 3.246094 -2.453125 3.496094 -2.710938 3.496094 -3.023438 Z M 5.851562 -3.046875 C 5.851562 -4.558594 4.871094 -6.078125 2.933594 -6.078125 C 0.964844 -6.078125 0 -4.558594 0 -3.046875 C 0 -1.527344 0.964844 0 2.933594 0 C 4.871094 0 5.851562 -1.527344 5.851562 -3.046875 Z M 4.710938 -3.023438 C 4.710938 -2.042969 4.109375 -1.0625 2.933594 -1.0625 C 1.738281 -1.0625 1.148438 -2.042969 1.148438 -3.023438 C 1.148438 -4.019531 1.738281 -5.007812 2.933594 -5.007812 C 4.109375 -5.007812 4.710938 -4.019531 4.710938 -3.023438 Z M 4.710938 -3.023438 "/></g></g></g><g fill="#ffffff" fill-opacity="1"><g transform="translate(198.084372, 193.386316)"><g><path d="M 5.03125 -6.078125 L 4.050781 -6.078125 C 3.996094 -6.078125 3.957031 -6.039062 3.957031 -6.011719 L 3.957031 -2.050781 L 1.15625 -6.054688 C 1.148438 -6.070312 1.101562 -6.078125 1.085938 -6.078125 L 0.0742188 -6.078125 C 0.0390625 -6.078125 0 -6.039062 0 -6.011719 L 0 -1.457031 L 1.164062 -1.457031 L 1.164062 -4.027344 L 3.957031 -0.0234375 C 3.964844 -0.0078125 4.011719 0 4.027344 0 L 5.03125 0 C 5.082031 0 5.113281 -0.0390625 5.113281 -0.0703125 L 5.113281 -6.011719 C 5.113281 -6.039062 5.082031 -6.078125 5.03125 -6.078125 Z M 5.03125 -6.078125 "/></g></g></g><g fill="#ffffff" fill-opacity="1"><g transform="translate(204.289054, 193.386316)"><g><path d="M 1.253906 -3.875 L 1.253906 -0.0703125 C 1.253906 -0.0390625 1.285156 0 1.335938 0 L 2.316406 0 C 2.371094 0 2.410156 -0.0390625 2.410156 -0.0703125 L 2.410156 -3.875 Z M 0.0820312 -5.039062 L 3.570312 -5.039062 C 3.625 -5.039062 3.65625 -5.066406 3.65625 -5.105469 L 3.65625 -6.011719 C 3.65625 -6.039062 3.625 -6.078125 3.570312 -6.078125 L 0.0820312 -6.078125 C 0.0390625 -6.078125 0 -6.039062 0 -6.011719 L 0 -5.105469 C 0 -5.066406 0.0390625 -5.039062 0.0820312 -5.039062 Z M 0.0820312 -5.039062 "/></g></g></g><g fill="#ffffff" fill-opacity="1"><g transform="translate(208.959812, 193.386316)"><g><path d="M 3.699219 -4.246094 C 3.699219 -4.277344 3.675781 -4.316406 3.632812 -4.316406 L 0.910156 -4.316406 C 0.859375 -4.316406 0.828125 -4.277344 0.828125 -4.246094 L 0.828125 -3.425781 C 0.828125 -3.394531 0.859375 -3.367188 0.910156 -3.367188 L 3.632812 -3.367188 C 3.675781 -3.367188 3.699219 -3.394531 3.699219 -3.425781 Z M 3.699219 -4.246094 "/></g></g></g><g fill="#ffffff" fill-opacity="1"><g transform="translate(214.245654, 193.386316)"><g><path d="M 2.886719 -1.132812 L 1.164062 -1.132812 L 1.164062 -2.5 L 3.546875 -2.5 C 3.59375 -2.5 3.632812 -2.539062 3.632812 -2.566406 L 3.632812 -3.53125 C 3.632812 -3.570312 3.59375 -3.601562 3.546875 -3.601562 L 1.164062 -3.601562 L 1.164062 -4.976562 L 2.886719 -4.976562 L 2.886719 -6.078125 L 0.0820312 -6.078125 C 0.0390625 -6.078125 0 -6.039062 0 -6.011719 L 0 -0.0703125 C 0 -0.0390625 0.0390625 0 0.0820312 0 L 2.886719 0 Z M 2.886719 -1.132812 "/></g></g></g><g fill="#ffffff" fill-opacity="1"><g transform="translate(218.89363, 193.386316)"><g><path d="M 5.03125 -6.078125 L 4.050781 -6.078125 C 3.996094 -6.078125 3.957031 -6.039062 3.957031 -6.011719 L 3.957031 -2.050781 L 1.15625 -6.054688 C 1.148438 -6.070312 1.101562 -6.078125 1.085938 -6.078125 L 0.0742188 -6.078125 C 0.0390625 -6.078125 0 -6.039062 0 -6.011719 L 0 -1.457031 L 1.164062 -1.457031 L 1.164062 -4.027344 L 3.957031 -0.0234375 C 3.964844 -0.0078125 4.011719 0 4.027344 0 L 5.03125 0 C 5.082031 0 5.113281 -0.0390625 5.113281 -0.0703125 L 5.113281 -6.011719 C 5.113281 -6.039062 5.082031 -6.078125 5.03125 -6.078125 Z M 5.03125 -6.078125 "/></g></g></g><g fill="#ffffff" fill-opacity="1"><g transform="translate(225.098313, 193.386316)"><g><path d="M 1.078125 -6.078125 L 0.0820312 -6.078125 C 0.0390625 -6.078125 0 -6.039062 0 -6.011719 L 0 -3.625 L 1.164062 -3.625 L 1.164062 -4.96875 C 2.484375 -5.039062 3.464844 -4.484375 3.464844 -3.039062 C 3.464844 -1.164062 1.898438 -1.085938 1.164062 -1.117188 L 1.164062 -2.453125 L 0 -2.453125 L 0 -0.0703125 C 0 -0.0390625 0.0390625 0 0.0820312 0 L 1.078125 0 C 2.589844 0 4.632812 -0.441406 4.632812 -3.039062 C 4.632812 -5.738281 2.558594 -6.078125 1.078125 -6.078125 Z M 1.078125 -6.078125 "/></g></g></g></svg>