<svg xmlns="http://www.w3.org/2000/svg" xmlns:xlink="http://www.w3.org/1999/xlink" width="500" zoomAndPan="magnify" viewBox="0 0 375 374.999991" height="500" preserveAspectRatio="xMidYMid meet" version="1.0"><defs><g/><clipPath id="c4a35147aa"><path d="M 165 107.730469 L 246.902344 107.730469 L 246.902344 187.980469 L 165 187.980469 Z M 165 107.730469 " clip-rule="nonzero"/></clipPath><clipPath id="91f941b3e3"><path d="M 128.402344 126 L 148 126 L 148 145 L 128.402344 145 Z M 128.402344 126 " clip-rule="nonzero"/></clipPath></defs><rect x="-37.5" width="450" fill="#ffffff" y="-37.499999" height="449.999989" fill-opacity="1"/><g clip-path="url(#c4a35147aa)"><path fill="#0097b2" d="M 165.742188 107.730469 L 202.363281 107.730469 C 211.171875 107.730469 218.917969 109.359375 225.550781 112.589844 C 232.324219 115.960938 237.488281 120.703125 241.28125 126.648438 C 244.972656 132.734375 246.871094 139.742188 246.871094 147.855469 C 246.871094 155.828125 244.972656 162.859375 241.304688 168.917969 C 237.511719 174.863281 232.347656 179.582031 225.574219 182.980469 C 218.917969 186.210938 211.195312 187.980469 202.386719 187.980469 L 165.742188 187.980469 L 165.742188 163.398438 L 184.453125 163.398438 L 184.453125 172.71875 L 201.414062 172.71875 C 209.5625 172.71875 215.933594 170.429688 220.671875 165.972656 C 225.550781 161.511719 227.992188 155.425781 227.992188 147.878906 C 227.992188 140.1875 225.550781 134.101562 220.671875 129.644531 C 215.933594 125.1875 209.539062 122.898438 201.414062 122.898438 L 184.453125 122.898438 L 184.453125 144.789062 L 165.742188 144.789062 Z M 165.742188 107.730469 " fill-opacity="1" fill-rule="nonzero"/></g><path fill="#0097b2" d="M 147.148438 144.742188 L 165.742188 144.742188 L 165.742188 163.257812 L 147.148438 163.257812 Z M 147.148438 144.742188 " fill-opacity="1" fill-rule="nonzero"/><g clip-path="url(#91f941b3e3)"><path fill="#0097b2" d="M 128.4375 126.246094 L 147.03125 126.246094 L 147.03125 144.765625 L 128.4375 144.765625 Z M 128.4375 126.246094 " fill-opacity="1" fill-rule="nonzero"/></g><path fill="#0097b2" d="M 147.148438 116.105469 L 157.285156 116.105469 L 157.285156 126.199219 L 147.148438 126.199219 Z M 147.148438 116.105469 " fill-opacity="1" fill-rule="nonzero"/><path fill="#0097b2" d="M 131.421875 109.074219 L 141.558594 109.074219 L 141.558594 119.171875 L 131.421875 119.171875 Z M 131.421875 109.074219 " fill-opacity="1" fill-rule="nonzero"/><g fill="#ffde59" fill-opacity="1"><g transform="translate(104.720776, 232.859399)"><g><path d="M 2.6875 -26.921875 L 15.421875 -26.921875 C 18.367188 -26.921875 20.984375 -26.367188 23.265625 -25.265625 C 25.546875 -24.160156 27.3125 -22.59375 28.5625 -20.5625 C 29.820312 -18.539062 30.453125 -16.171875 30.453125 -13.453125 C 30.453125 -10.734375 29.820312 -8.363281 28.5625 -6.34375 C 27.3125 -4.320312 25.546875 -2.757812 23.265625 -1.65625 C 20.984375 -0.550781 18.367188 0 15.421875 0 L 2.6875 0 Z M 15.109375 -6.078125 C 17.421875 -6.078125 19.273438 -6.726562 20.671875 -8.03125 C 22.066406 -9.34375 22.765625 -11.148438 22.765625 -13.453125 C 22.765625 -15.765625 22.066406 -17.570312 20.671875 -18.875 C 19.273438 -20.1875 17.421875 -20.84375 15.109375 -20.84375 L 10.3125 -20.84375 L 10.3125 -6.078125 Z M 15.109375 -6.078125 "/></g></g></g><g fill="#292929" fill-opacity="1"><g transform="translate(136.490305, 232.859399)"><g><path d="M 2.6875 -26.921875 L 10.3125 -26.921875 L 10.3125 0 L 2.6875 0 Z M 2.6875 -26.921875 "/></g></g></g><g fill="#292929" fill-opacity="1"><g transform="translate(149.52461, 232.859399)"><g><path d="M 20.71875 -14.03125 L 27.453125 -14.03125 L 27.453125 -2.890625 C 25.910156 -1.785156 24.140625 -0.9375 22.140625 -0.34375 C 20.148438 0.238281 18.15625 0.53125 16.15625 0.53125 C 13.332031 0.53125 10.789062 -0.0625 8.53125 -1.25 C 6.28125 -2.4375 4.515625 -4.09375 3.234375 -6.21875 C 1.953125 -8.351562 1.3125 -10.765625 1.3125 -13.453125 C 1.3125 -16.148438 1.953125 -18.5625 3.234375 -20.6875 C 4.515625 -22.8125 6.296875 -24.46875 8.578125 -25.65625 C 10.859375 -26.851562 13.429688 -27.453125 16.296875 -27.453125 C 18.816406 -27.453125 21.078125 -27.03125 23.078125 -26.1875 C 25.078125 -25.34375 26.742188 -24.125 28.078125 -22.53125 L 23.21875 -18.15625 C 21.40625 -20.15625 19.226562 -21.15625 16.6875 -21.15625 C 14.382812 -21.15625 12.523438 -20.453125 11.109375 -19.046875 C 9.703125 -17.648438 9 -15.785156 9 -13.453125 C 9 -11.972656 9.316406 -10.648438 9.953125 -9.484375 C 10.597656 -8.316406 11.492188 -7.40625 12.640625 -6.75 C 13.796875 -6.09375 15.117188 -5.765625 16.609375 -5.765625 C 18.066406 -5.765625 19.4375 -6.0625 20.71875 -6.65625 Z M 20.71875 -14.03125 "/></g></g></g><g fill="#292929" fill-opacity="1"><g transform="translate(179.130564, 232.859399)"><g><path d="M 2.6875 -26.921875 L 10.3125 -26.921875 L 10.3125 0 L 2.6875 0 Z M 2.6875 -26.921875 "/></g></g></g><g fill="#292929" fill-opacity="1"><g transform="translate(192.164869, 232.859399)"><g><path d="M 8.421875 -20.875 L 0.15625 -20.875 L 0.15625 -26.921875 L 24.265625 -26.921875 L 24.265625 -20.875 L 16.03125 -20.875 L 16.03125 0 L 8.421875 0 Z M 8.421875 -20.875 "/></g></g></g><g fill="#292929" fill-opacity="1"><g transform="translate(216.580162, 232.859399)"><g><path d="M 20.71875 -5.234375 L 9.34375 -5.234375 L 7.234375 0 L -0.53125 0 L 11.34375 -26.921875 L 18.84375 -26.921875 L 30.765625 0 L 22.84375 0 Z M 18.5 -10.84375 L 15.03125 -19.453125 L 11.578125 -10.84375 Z M 18.5 -10.84375 "/></g></g></g><g fill="#292929" fill-opacity="1"><g transform="translate(246.801306, 232.859399)"><g><path d="M 2.6875 -26.921875 L 10.3125 -26.921875 L 10.3125 -6.03125 L 23.15625 -6.03125 L 23.15625 0 L 2.6875 0 Z M 2.6875 -26.921875 "/></g></g></g><g fill="#292929" fill-opacity="1"><g transform="translate(205.245186, 246.887786)"><g><path d="M 5.359375 0.078125 C 4.460938 0.078125 3.660156 -0.117188 2.953125 -0.515625 C 2.242188 -0.910156 1.6875 -1.453125 1.28125 -2.140625 C 0.875 -2.835938 0.671875 -3.617188 0.671875 -4.484375 C 0.671875 -5.347656 0.875 -6.125 1.28125 -6.8125 C 1.6875 -7.507812 2.242188 -8.054688 2.953125 -8.453125 C 3.671875 -8.847656 4.476562 -9.046875 5.375 -9.046875 C 6.039062 -9.046875 6.65625 -8.929688 7.21875 -8.703125 C 7.78125 -8.484375 8.257812 -8.160156 8.65625 -7.734375 L 8.046875 -7.140625 C 7.347656 -7.847656 6.460938 -8.203125 5.390625 -8.203125 C 4.679688 -8.203125 4.035156 -8.035156 3.453125 -7.703125 C 2.878906 -7.378906 2.425781 -6.9375 2.09375 -6.375 C 1.769531 -5.8125 1.609375 -5.179688 1.609375 -4.484375 C 1.609375 -3.785156 1.769531 -3.15625 2.09375 -2.59375 C 2.425781 -2.03125 2.878906 -1.582031 3.453125 -1.25 C 4.035156 -0.925781 4.679688 -0.765625 5.390625 -0.765625 C 6.472656 -0.765625 7.359375 -1.125 8.046875 -1.84375 L 8.65625 -1.25 C 8.257812 -0.820312 7.773438 -0.492188 7.203125 -0.265625 C 6.640625 -0.0351562 6.023438 0.078125 5.359375 0.078125 Z M 5.359375 0.078125 "/></g></g></g><g fill="#292929" fill-opacity="1"><g transform="translate(214.462645, 246.887786)"><g><path d="M 7.578125 0 L 5.53125 -2.890625 C 5.300781 -2.859375 5.0625 -2.84375 4.8125 -2.84375 L 2.40625 -2.84375 L 2.40625 0 L 1.453125 0 L 1.453125 -8.96875 L 4.8125 -8.96875 C 5.957031 -8.96875 6.851562 -8.691406 7.5 -8.140625 C 8.15625 -7.597656 8.484375 -6.847656 8.484375 -5.890625 C 8.484375 -5.191406 8.304688 -4.597656 7.953125 -4.109375 C 7.597656 -3.628906 7.09375 -3.285156 6.4375 -3.078125 L 8.625 0 Z M 4.796875 -3.65625 C 5.679688 -3.65625 6.359375 -3.847656 6.828125 -4.234375 C 7.296875 -4.628906 7.53125 -5.179688 7.53125 -5.890625 C 7.53125 -6.617188 7.296875 -7.175781 6.828125 -7.5625 C 6.359375 -7.957031 5.679688 -8.15625 4.796875 -8.15625 L 2.40625 -8.15625 L 2.40625 -3.65625 Z M 4.796875 -3.65625 "/></g></g></g><g fill="#292929" fill-opacity="1"><g transform="translate(223.731379, 246.887786)"><g><path d="M 7.796875 -0.8125 L 7.796875 0 L 1.453125 0 L 1.453125 -8.96875 L 7.609375 -8.96875 L 7.609375 -8.15625 L 2.40625 -8.15625 L 2.40625 -4.953125 L 7.046875 -4.953125 L 7.046875 -4.15625 L 2.40625 -4.15625 L 2.40625 -0.8125 Z M 7.796875 -0.8125 "/></g></g></g><g fill="#292929" fill-opacity="1"><g transform="translate(232.307846, 246.887786)"><g><path d="M 7.078125 -2.390625 L 2.09375 -2.390625 L 1.015625 0 L 0.03125 0 L 4.125 -8.96875 L 5.0625 -8.96875 L 9.15625 0 L 8.15625 0 Z M 6.734375 -3.171875 L 4.59375 -7.984375 L 2.4375 -3.171875 Z M 6.734375 -3.171875 "/></g></g></g><g fill="#292929" fill-opacity="1"><g transform="translate(241.499667, 246.887786)"><g><path d="M 3.203125 -8.15625 L 0.046875 -8.15625 L 0.046875 -8.96875 L 7.296875 -8.96875 L 7.296875 -8.15625 L 4.15625 -8.15625 L 4.15625 0 L 3.203125 0 Z M 3.203125 -8.15625 "/></g></g></g><g fill="#292929" fill-opacity="1"><g transform="translate(248.858249, 246.887786)"><g><path d="M 1.453125 -8.96875 L 2.40625 -8.96875 L 2.40625 0 L 1.453125 0 Z M 1.453125 -8.96875 "/></g></g></g><g fill="#292929" fill-opacity="1"><g transform="translate(252.729841, 246.887786)"><g><path d="M 8.921875 -8.96875 L 4.953125 0 L 4.015625 0 L 0.03125 -8.96875 L 1.0625 -8.96875 L 4.5 -1.171875 L 7.953125 -8.96875 Z M 8.921875 -8.96875 "/></g></g></g><g fill="#292929" fill-opacity="1"><g transform="translate(261.678086, 246.887786)"><g><path d="M 7.796875 -0.8125 L 7.796875 0 L 1.453125 0 L 1.453125 -8.96875 L 7.609375 -8.96875 L 7.609375 -8.15625 L 2.40625 -8.15625 L 2.40625 -4.953125 L 7.046875 -4.953125 L 7.046875 -4.15625 L 2.40625 -4.15625 L 2.40625 -0.8125 Z M 7.796875 -0.8125 "/></g></g></g></svg>