<svg xmlns="http://www.w3.org/2000/svg" xmlns:xlink="http://www.w3.org/1999/xlink" width="500" zoomAndPan="magnify" viewBox="0 0 375 374.999991" height="500" preserveAspectRatio="xMidYMid meet" version="1.0"><defs><g/><clipPath id="beacf59487"><path d="M 184.867188 199.695312 L 247.453125 199.695312 L 247.453125 223.289062 L 184.867188 223.289062 Z M 184.867188 199.695312 " clip-rule="nonzero"/></clipPath></defs><rect x="-37.5" width="450" fill="#ffffff" y="-37.499999" height="449.999989" fill-opacity="1"/><rect x="-37.5" width="450" fill="#000000" y="-37.499999" height="449.999989" fill-opacity="1"/><g fill="#f9f6f2" fill-opacity="1"><g transform="translate(155.363549, 212.626628)"><g><path d="M 18.125 0 L 3.5625 0 L 3.5625 -41.0625 L 18.25 -41.0625 C 22.375 -41.0625 25.929688 -40.238281 28.921875 -38.59375 C 31.910156 -36.957031 34.203125 -34.609375 35.796875 -31.546875 C 37.398438 -28.492188 38.203125 -24.832031 38.203125 -20.5625 C 38.203125 -16.289062 37.394531 -12.617188 35.78125 -9.546875 C 34.175781 -6.472656 31.875 -4.113281 28.875 -2.46875 C 25.875 -0.820312 22.289062 0 18.125 0 Z M 12.25 -7.4375 L 17.765625 -7.4375 C 21.628906 -7.4375 24.554688 -8.476562 26.546875 -10.5625 C 28.546875 -12.644531 29.546875 -15.976562 29.546875 -20.5625 C 29.546875 -25.125 28.546875 -28.441406 26.546875 -30.515625 C 24.554688 -32.585938 21.632812 -33.625 17.78125 -33.625 L 12.25 -33.625 Z M 12.25 -7.4375 "/></g></g></g><g clip-path="url(#beacf59487)"><path fill="#000000" d="M 184.867188 199.695312 L 247.453125 199.695312 L 247.453125 223.289062 L 184.867188 223.289062 Z M 184.867188 199.695312 " fill-opacity="1" fill-rule="nonzero"/></g><g fill="#f9f6f2" fill-opacity="1"><g transform="translate(185.581063, 208.133307)"><g><path d="M 5.84375 -1.21875 L 5.84375 0 L 0.78125 0 L 0.78125 -6.546875 L 5.734375 -6.546875 L 5.734375 -5.328125 L 2.28125 -5.328125 L 2.28125 -3.90625 L 5.328125 -3.90625 L 5.328125 -2.734375 L 2.28125 -2.734375 L 2.28125 -1.21875 Z M 5.84375 -1.21875 "/></g></g></g><g fill="#f9f6f2" fill-opacity="1"><g transform="translate(192.610871, 208.133307)"><g><path d="M 7.078125 -6.546875 L 4.234375 0 L 2.75 0 L -0.078125 -6.546875 L 1.546875 -6.546875 L 3.546875 -1.875 L 5.5625 -6.546875 Z M 7.078125 -6.546875 "/></g></g></g><g fill="#f9f6f2" fill-opacity="1"><g transform="translate(200.342705, 208.133307)"><g><path d="M 5.84375 -1.21875 L 5.84375 0 L 0.78125 0 L 0.78125 -6.546875 L 5.734375 -6.546875 L 5.734375 -5.328125 L 2.28125 -5.328125 L 2.28125 -3.90625 L 5.328125 -3.90625 L 5.328125 -2.734375 L 2.28125 -2.734375 L 2.28125 -1.21875 Z M 5.84375 -1.21875 "/></g></g></g><g fill="#f9f6f2" fill-opacity="1"><g transform="translate(207.372513, 208.133307)"><g><path d="M 0.78125 -6.546875 L 2.296875 -6.546875 L 2.296875 -1.234375 L 5.578125 -1.234375 L 5.578125 0 L 0.78125 0 Z M 0.78125 -6.546875 "/></g></g></g><g fill="#f9f6f2" fill-opacity="1"><g transform="translate(213.77518, 208.133307)"><g><path d="M 3.953125 0.109375 C 3.265625 0.109375 2.648438 -0.0351562 2.109375 -0.328125 C 1.566406 -0.617188 1.140625 -1.019531 0.828125 -1.53125 C 0.515625 -2.050781 0.359375 -2.632812 0.359375 -3.28125 C 0.359375 -3.914062 0.515625 -4.488281 0.828125 -5 C 1.140625 -5.519531 1.566406 -5.925781 2.109375 -6.21875 C 2.648438 -6.507812 3.265625 -6.65625 3.953125 -6.65625 C 4.628906 -6.65625 5.238281 -6.507812 5.78125 -6.21875 C 6.320312 -5.925781 6.75 -5.519531 7.0625 -5 C 7.375 -4.488281 7.53125 -3.914062 7.53125 -3.28125 C 7.53125 -2.632812 7.375 -2.050781 7.0625 -1.53125 C 6.75 -1.019531 6.320312 -0.617188 5.78125 -0.328125 C 5.238281 -0.0351562 4.628906 0.109375 3.953125 0.109375 Z M 3.953125 -1.171875 C 4.335938 -1.171875 4.6875 -1.257812 5 -1.4375 C 5.3125 -1.625 5.554688 -1.875 5.734375 -2.1875 C 5.910156 -2.507812 6 -2.875 6 -3.28125 C 6 -3.6875 5.910156 -4.046875 5.734375 -4.359375 C 5.554688 -4.679688 5.3125 -4.929688 5 -5.109375 C 4.6875 -5.285156 4.335938 -5.375 3.953125 -5.375 C 3.566406 -5.375 3.21875 -5.285156 2.90625 -5.109375 C 2.59375 -4.929688 2.347656 -4.679688 2.171875 -4.359375 C 1.992188 -4.046875 1.90625 -3.6875 1.90625 -3.28125 C 1.90625 -2.875 1.992188 -2.507812 2.171875 -2.1875 C 2.347656 -1.875 2.59375 -1.625 2.90625 -1.4375 C 3.21875 -1.257812 3.566406 -1.171875 3.953125 -1.171875 Z M 3.953125 -1.171875 "/></g></g></g><g fill="#f9f6f2" fill-opacity="1"><g transform="translate(222.424332, 208.133307)"><g><path d="M 3.609375 -6.546875 C 4.191406 -6.546875 4.695312 -6.445312 5.125 -6.25 C 5.550781 -6.0625 5.878906 -5.789062 6.109375 -5.4375 C 6.335938 -5.082031 6.453125 -4.660156 6.453125 -4.171875 C 6.453125 -3.691406 6.335938 -3.269531 6.109375 -2.90625 C 5.878906 -2.550781 5.550781 -2.28125 5.125 -2.09375 C 4.695312 -1.90625 4.191406 -1.8125 3.609375 -1.8125 L 2.296875 -1.8125 L 2.296875 0 L 0.78125 0 L 0.78125 -6.546875 Z M 3.53125 -3.046875 C 3.988281 -3.046875 4.332031 -3.140625 4.5625 -3.328125 C 4.800781 -3.523438 4.921875 -3.804688 4.921875 -4.171875 C 4.921875 -4.535156 4.800781 -4.816406 4.5625 -5.015625 C 4.332031 -5.210938 3.988281 -5.3125 3.53125 -5.3125 L 2.296875 -5.3125 L 2.296875 -3.046875 Z M 3.53125 -3.046875 "/></g></g></g><g fill="#f9f6f2" fill-opacity="1"><g transform="translate(230.025124, 208.133307)"><g><path d="M 5.84375 -1.21875 L 5.84375 0 L 0.78125 0 L 0.78125 -6.546875 L 5.734375 -6.546875 L 5.734375 -5.328125 L 2.28125 -5.328125 L 2.28125 -3.90625 L 5.328125 -3.90625 L 5.328125 -2.734375 L 2.28125 -2.734375 L 2.28125 -1.21875 Z M 5.84375 -1.21875 "/></g></g></g><g fill="#f9f6f2" fill-opacity="1"><g transform="translate(237.054933, 208.133307)"><g><path d="M 4.953125 0 L 3.6875 -1.828125 L 2.296875 -1.828125 L 2.296875 0 L 0.78125 0 L 0.78125 -6.546875 L 3.609375 -6.546875 C 4.191406 -6.546875 4.695312 -6.445312 5.125 -6.25 C 5.550781 -6.0625 5.878906 -5.789062 6.109375 -5.4375 C 6.335938 -5.082031 6.453125 -4.660156 6.453125 -4.171875 C 6.453125 -3.679688 6.332031 -3.257812 6.09375 -2.90625 C 5.863281 -2.5625 5.535156 -2.296875 5.109375 -2.109375 L 6.578125 0 Z M 4.921875 -4.171875 C 4.921875 -4.535156 4.800781 -4.816406 4.5625 -5.015625 C 4.332031 -5.210938 3.988281 -5.3125 3.53125 -5.3125 L 2.296875 -5.3125 L 2.296875 -3.03125 L 3.53125 -3.03125 C 3.988281 -3.03125 4.332031 -3.128906 4.5625 -3.328125 C 4.800781 -3.523438 4.921875 -3.804688 4.921875 -4.171875 Z M 4.921875 -4.171875 "/></g></g></g><g fill="#f9f6f2" fill-opacity="1"><g transform="translate(244.683805, 208.133307)"><g><path d="M 1.21875 0.078125 C 0.96875 0.078125 0.753906 -0.0078125 0.578125 -0.1875 C 0.398438 -0.363281 0.3125 -0.582031 0.3125 -0.84375 C 0.3125 -1.113281 0.398438 -1.328125 0.578125 -1.484375 C 0.753906 -1.648438 0.96875 -1.734375 1.21875 -1.734375 C 1.476562 -1.734375 1.695312 -1.648438 1.875 -1.484375 C 2.050781 -1.328125 2.140625 -1.113281 2.140625 -0.84375 C 2.140625 -0.582031 2.050781 -0.363281 1.875 -0.1875 C 1.695312 -0.0078125 1.476562 0.078125 1.21875 0.078125 Z M 1.21875 0.078125 "/></g></g></g><path stroke-linecap="butt" transform="matrix(0.749269, -0.00351691, 0.00352031, 0.749992, 186.635822, 211.870767)" fill="none" stroke-linejoin="miter" d="M 0.00171 1.000455 L 81.080734 1.000444 " stroke="#f9f6f2" stroke-width="2" stroke-opacity="1" stroke-miterlimit="4"/></svg>