<svg xmlns="http://www.w3.org/2000/svg" xmlns:xlink="http://www.w3.org/1999/xlink" width="500" zoomAndPan="magnify" viewBox="0 0 375 374.999991" height="500" preserveAspectRatio="xMidYMid meet" version="1.0"><defs><g/><clipPath id="128bc6f6be"><path d="M 126.0625 178.824219 L 249.78125 178.824219 L 249.78125 193.234375 L 126.0625 193.234375 Z M 126.0625 178.824219 " clip-rule="nonzero"/></clipPath></defs><rect x="-37.5" width="450" fill="#ffffff" y="-37.499999" height="449.999989" fill-opacity="1"/><rect x="-37.5" width="450" fill="#e6e6e6" y="-37.499999" height="449.999989" fill-opacity="1"/><path stroke-linecap="butt" transform="matrix(0.00182074, -0.750503, 0.749998, 0.00181951, 187.122033, 227.735258)" fill="none" stroke-linejoin="miter" d="M 0.00238549 0.498743 L 115.92982 0.498562 " stroke="#000000" stroke-width="1" stroke-opacity="1" stroke-miterlimit="4"/><g fill="#000000" fill-opacity="1"><g transform="translate(148.097426, 210.629751)"><g><path d="M -2.589844 10.671875 C -1.96875 10.777344 -1.605469 10.878906 -0.777344 10.878906 C 5.90625 10.878906 10.621094 3.832031 10.621094 -3.574219 L 10.621094 -37.40625 C 10.621094 -47.613281 10.933594 -51.292969 15.386719 -51.292969 L 15.386719 -51.808594 L 1.398438 -51.808594 L 1.398438 -51.292969 C 5.855469 -51.292969 6.164062 -47.613281 6.164062 -37.40625 L 6.164062 -3.472656 C 6.164062 4.402344 3.417969 10.207031 -1.65625 10.207031 C -1.96875 10.207031 -2.488281 10.15625 -2.488281 10.15625 Z M -2.589844 10.671875 "/></g></g></g><g fill="#000000" fill-opacity="1"><g transform="translate(179.70041, 210.629751)"><g><path d="M 1.554688 0 L 5.699219 0 C 11.140625 0 15.59375 1.035156 20.152344 1.035156 C 36.113281 1.035156 43.675781 -11.710938 43.675781 -25.90625 C 43.675781 -40.101562 36.113281 -52.847656 20.152344 -52.847656 C 15.59375 -52.847656 11.140625 -51.808594 5.699219 -51.808594 L 1.554688 -51.808594 L 1.554688 -51.292969 C 6.011719 -51.292969 6.320312 -47.613281 6.320312 -37.40625 L 6.320312 -14.402344 C 6.320312 -4.195312 6.011719 -0.519531 1.554688 -0.519531 Z M 10.726562 -50.671875 C 13.730469 -51.601562 16.734375 -52.121094 20.101562 -52.121094 C 32.898438 -52.121094 39.21875 -40.050781 39.21875 -25.90625 C 39.21875 -11.761719 32.898438 0.3125 20.101562 0.3125 C 16.734375 0.3125 13.730469 -0.207031 10.726562 -1.140625 Z M 10.726562 -50.671875 "/></g></g></g><g clip-path="url(#128bc6f6be)"><path fill="#e6e6e6" d="M 126.0625 178.824219 L 249.78125 178.824219 L 249.78125 193.234375 L 126.0625 193.234375 Z M 126.0625 178.824219 " fill-opacity="1" fill-rule="nonzero"/></g><g fill="#000000" fill-opacity="1"><g transform="translate(132.906002, 188.665711)"><g><path d="M 1.546875 0.046875 C 1.210938 0.046875 0.90625 -0.0195312 0.625 -0.15625 C 0.351562 -0.300781 0.128906 -0.503906 -0.046875 -0.765625 L 0.3125 -1.171875 C 0.632812 -0.703125 1.046875 -0.46875 1.546875 -0.46875 C 2.253906 -0.46875 2.609375 -0.890625 2.609375 -1.734375 L 2.609375 -5.203125 L 0.515625 -5.203125 L 0.515625 -5.71875 L 3.21875 -5.71875 L 3.21875 -1.75 C 3.21875 -1.15625 3.078125 -0.707031 2.796875 -0.40625 C 2.515625 -0.101562 2.097656 0.046875 1.546875 0.046875 Z M 1.546875 0.046875 "/></g></g></g><g fill="#000000" fill-opacity="1"><g transform="translate(139.604789, 188.665711)"><g><path d="M 3.234375 0.046875 C 2.492188 0.046875 1.914062 -0.160156 1.5 -0.578125 C 1.082031 -1.003906 0.875 -1.625 0.875 -2.4375 L 0.875 -5.71875 L 1.484375 -5.71875 L 1.484375 -2.46875 C 1.484375 -1.800781 1.632812 -1.300781 1.9375 -0.96875 C 2.238281 -0.644531 2.671875 -0.484375 3.234375 -0.484375 C 3.804688 -0.484375 4.242188 -0.644531 4.546875 -0.96875 C 4.847656 -1.300781 5 -1.800781 5 -2.46875 L 5 -5.71875 L 5.578125 -5.71875 L 5.578125 -2.4375 C 5.578125 -1.625 5.367188 -1.003906 4.953125 -0.578125 C 4.546875 -0.160156 3.972656 0.046875 3.234375 0.046875 Z M 3.234375 0.046875 "/></g></g></g><g fill="#000000" fill-opacity="1"><g transform="translate(148.680241, 188.665711)"><g><path d="M 0.9375 -5.71875 L 1.53125 -5.71875 L 1.53125 -0.515625 L 4.734375 -0.515625 L 4.734375 0 L 0.9375 0 Z M 0.9375 -5.71875 "/></g></g></g><g fill="#000000" fill-opacity="1"><g transform="translate(156.097747, 188.665711)"><g><path d="M 0.9375 -5.71875 L 1.53125 -5.71875 L 1.53125 0 L 0.9375 0 Z M 0.9375 -5.71875 "/></g></g></g><g fill="#000000" fill-opacity="1"><g transform="translate(161.171258, 188.665711)"><g><path d="M 4.984375 -0.515625 L 4.984375 0 L 0.9375 0 L 0.9375 -5.71875 L 4.859375 -5.71875 L 4.859375 -5.203125 L 1.53125 -5.203125 L 1.53125 -3.15625 L 4.5 -3.15625 L 4.5 -2.640625 L 1.53125 -2.640625 L 1.53125 -0.515625 Z M 4.984375 -0.515625 "/></g></g></g><g fill="#000000" fill-opacity="1"><g transform="translate(169.242137, 188.665711)"><g><path d="M 5.71875 -5.71875 L 5.71875 0 L 5.21875 0 L 1.53125 -4.640625 L 1.53125 0 L 0.9375 0 L 0.9375 -5.71875 L 1.4375 -5.71875 L 5.109375 -1.078125 L 5.109375 -5.71875 Z M 5.71875 -5.71875 "/></g></g></g><g fill="#000000" fill-opacity="1"><g transform="translate(178.489098, 188.665711)"><g/></g></g><g fill="#000000" fill-opacity="1"><g transform="translate(183.235916, 188.665711)"><g><path d="M 0.9375 -5.71875 L 3.265625 -5.71875 C 3.867188 -5.71875 4.398438 -5.597656 4.859375 -5.359375 C 5.328125 -5.117188 5.6875 -4.78125 5.9375 -4.34375 C 6.195312 -3.90625 6.328125 -3.410156 6.328125 -2.859375 C 6.328125 -2.304688 6.195312 -1.8125 5.9375 -1.375 C 5.6875 -0.945312 5.328125 -0.609375 4.859375 -0.359375 C 4.398438 -0.117188 3.867188 0 3.265625 0 L 0.9375 0 Z M 3.234375 -0.515625 C 3.734375 -0.515625 4.171875 -0.613281 4.546875 -0.8125 C 4.921875 -1.019531 5.210938 -1.296875 5.421875 -1.640625 C 5.628906 -1.992188 5.734375 -2.398438 5.734375 -2.859375 C 5.734375 -3.316406 5.628906 -3.71875 5.421875 -4.0625 C 5.210938 -4.414062 4.921875 -4.691406 4.546875 -4.890625 C 4.171875 -5.097656 3.734375 -5.203125 3.234375 -5.203125 L 1.53125 -5.203125 L 1.53125 -0.515625 Z M 3.234375 -0.515625 "/></g></g></g><g fill="#000000" fill-opacity="1"><g transform="translate(192.589054, 188.665711)"><g><path d="M 3.234375 0.046875 C 2.492188 0.046875 1.914062 -0.160156 1.5 -0.578125 C 1.082031 -1.003906 0.875 -1.625 0.875 -2.4375 L 0.875 -5.71875 L 1.484375 -5.71875 L 1.484375 -2.46875 C 1.484375 -1.800781 1.632812 -1.300781 1.9375 -0.96875 C 2.238281 -0.644531 2.671875 -0.484375 3.234375 -0.484375 C 3.804688 -0.484375 4.242188 -0.644531 4.546875 -0.96875 C 4.847656 -1.300781 5 -1.800781 5 -2.46875 L 5 -5.71875 L 5.578125 -5.71875 L 5.578125 -2.4375 C 5.578125 -1.625 5.367188 -1.003906 4.953125 -0.578125 C 4.546875 -0.160156 3.972656 0.046875 3.234375 0.046875 Z M 3.234375 0.046875 "/></g></g></g><g fill="#000000" fill-opacity="1"><g transform="translate(201.664503, 188.665711)"><g><path d="M 2.046875 -5.203125 L 0.03125 -5.203125 L 0.03125 -5.71875 L 4.65625 -5.71875 L 4.65625 -5.203125 L 2.640625 -5.203125 L 2.640625 0 L 2.046875 0 Z M 2.046875 -5.203125 "/></g></g></g><g fill="#000000" fill-opacity="1"><g transform="translate(208.959497, 188.665711)"><g><path d="M 4.84375 0 L 3.53125 -1.84375 C 3.382812 -1.820312 3.234375 -1.8125 3.078125 -1.8125 L 1.53125 -1.8125 L 1.53125 0 L 0.9375 0 L 0.9375 -5.71875 L 3.078125 -5.71875 C 3.804688 -5.71875 4.375 -5.539062 4.78125 -5.1875 C 5.195312 -4.84375 5.40625 -4.367188 5.40625 -3.765625 C 5.40625 -3.316406 5.289062 -2.9375 5.0625 -2.625 C 4.84375 -2.320312 4.523438 -2.101562 4.109375 -1.96875 L 5.5 0 Z M 3.0625 -2.328125 C 3.625 -2.328125 4.054688 -2.453125 4.359375 -2.703125 C 4.660156 -2.953125 4.8125 -3.304688 4.8125 -3.765625 C 4.8125 -4.222656 4.660156 -4.578125 4.359375 -4.828125 C 4.054688 -5.078125 3.625 -5.203125 3.0625 -5.203125 L 1.53125 -5.203125 L 1.53125 -2.328125 Z M 3.0625 -2.328125 "/></g></g></g><g fill="#000000" fill-opacity="1"><g transform="translate(217.471412, 188.665711)"><g><path d="M 3.234375 0.046875 C 2.492188 0.046875 1.914062 -0.160156 1.5 -0.578125 C 1.082031 -1.003906 0.875 -1.625 0.875 -2.4375 L 0.875 -5.71875 L 1.484375 -5.71875 L 1.484375 -2.46875 C 1.484375 -1.800781 1.632812 -1.300781 1.9375 -0.96875 C 2.238281 -0.644531 2.671875 -0.484375 3.234375 -0.484375 C 3.804688 -0.484375 4.242188 -0.644531 4.546875 -0.96875 C 4.847656 -1.300781 5 -1.800781 5 -2.46875 L 5 -5.71875 L 5.578125 -5.71875 L 5.578125 -2.4375 C 5.578125 -1.625 5.367188 -1.003906 4.953125 -0.578125 C 4.546875 -0.160156 3.972656 0.046875 3.234375 0.046875 Z M 3.234375 0.046875 "/></g></g></g><g fill="#000000" fill-opacity="1"><g transform="translate(226.546861, 188.665711)"><g><path d="M 3.421875 0.046875 C 2.847656 0.046875 2.332031 -0.078125 1.875 -0.328125 C 1.425781 -0.578125 1.070312 -0.921875 0.8125 -1.359375 C 0.550781 -1.804688 0.421875 -2.304688 0.421875 -2.859375 C 0.421875 -3.410156 0.550781 -3.90625 0.8125 -4.34375 C 1.070312 -4.789062 1.429688 -5.140625 1.890625 -5.390625 C 2.347656 -5.640625 2.859375 -5.765625 3.421875 -5.765625 C 3.847656 -5.765625 4.238281 -5.691406 4.59375 -5.546875 C 4.957031 -5.410156 5.265625 -5.207031 5.515625 -4.9375 L 5.125 -4.546875 C 4.6875 -5.003906 4.125 -5.234375 3.4375 -5.234375 C 2.988281 -5.234375 2.578125 -5.128906 2.203125 -4.921875 C 1.835938 -4.710938 1.546875 -4.425781 1.328125 -4.0625 C 1.117188 -3.707031 1.015625 -3.304688 1.015625 -2.859375 C 1.015625 -2.410156 1.117188 -2.003906 1.328125 -1.640625 C 1.546875 -1.285156 1.835938 -1.003906 2.203125 -0.796875 C 2.578125 -0.585938 2.988281 -0.484375 3.4375 -0.484375 C 4.125 -0.484375 4.6875 -0.710938 5.125 -1.171875 L 5.515625 -0.796875 C 5.265625 -0.523438 4.957031 -0.316406 4.59375 -0.171875 C 4.226562 -0.0234375 3.835938 0.046875 3.421875 0.046875 Z M 3.421875 0.046875 "/></g></g></g><g fill="#000000" fill-opacity="1"><g transform="translate(235.0261, 188.665711)"><g><path d="M 5.71875 -5.71875 L 5.71875 0 L 5.109375 0 L 5.109375 -2.640625 L 1.53125 -2.640625 L 1.53125 0 L 0.9375 0 L 0.9375 -5.71875 L 1.53125 -5.71875 L 1.53125 -3.171875 L 5.109375 -3.171875 L 5.109375 -5.71875 Z M 5.71875 -5.71875 "/></g></g></g></svg>