<svg xmlns="http://www.w3.org/2000/svg" xmlns:xlink="http://www.w3.org/1999/xlink" width="500" zoomAndPan="magnify" viewBox="0 0 375 374.999991" height="500" preserveAspectRatio="xMidYMid meet" version="1.0"><defs><g/></defs><rect x="-37.5" width="450" fill="#ffffff" y="-37.499999" height="449.999989" fill-opacity="1"/><rect x="-37.5" width="450" fill="#f6f1eb" y="-37.499999" height="449.999989" fill-opacity="1"/><g fill="#000000" fill-opacity="1"><g transform="translate(42.884267, 195.284973)"><g><path d="M 0.902344 -40.816406 C 2.601562 -40.382812 3.25 -38.792969 3.25 -36.121094 L 3.25 -5.058594 C 3.25 -2.382812 2.601562 -0.792969 0.902344 -0.359375 L 0.902344 0 L 16.757812 0 C 27.523438 0 34.421875 -6.972656 34.421875 -20.589844 C 34.421875 -34.207031 27.523438 -41.175781 16.757812 -41.175781 L 0.902344 -41.175781 Z M 14.808594 -40.203125 C 21.78125 -40.019531 22.464844 -30.375 22.464844 -20.550781 C 22.464844 -10.726562 21.78125 -1.15625 14.808594 -0.976562 Z M 14.808594 -40.203125 "/></g></g></g><g fill="#000000" fill-opacity="1"><g transform="translate(77.303593, 195.284973)"><g><path d="M 29.871094 0 L 29.871094 -12.425781 L 29.511719 -12.425781 C 29.511719 -8.488281 24.238281 -0.722656 17.15625 -0.722656 L 14.808594 -0.722656 L 14.808594 -21.636719 L 16.21875 -21.636719 C 19.792969 -21.636719 24.054688 -18.3125 24.5625 -15.566406 L 24.921875 -15.566406 L 24.921875 -28.425781 L 24.5625 -28.425781 C 24.054688 -25.679688 19.792969 -22.359375 16.21875 -22.359375 L 14.808594 -22.359375 L 14.808594 -40.453125 L 17.15625 -40.453125 C 24.238281 -40.453125 29.511719 -32.6875 29.511719 -28.75 L 29.871094 -28.75 L 29.871094 -41.175781 L 0.902344 -41.175781 L 0.902344 -40.816406 C 2.601562 -40.382812 3.25 -38.792969 3.25 -36.121094 L 3.25 -5.058594 C 3.25 -2.382812 2.601562 -0.792969 0.902344 -0.359375 L 0.902344 0 Z M 29.871094 0 "/></g></g></g><g fill="#000000" fill-opacity="1"><g transform="translate(106.449801, 195.284973)"><g><path d="M 0 -41.175781 L 0 -40.816406 C 1.804688 -40.816406 3.394531 -34.820312 4.371094 -30.992188 C 7.441406 -18.890625 9.101562 -12.101562 12.171875 0 L 24.128906 0 C 27.199219 -12.101562 28.859375 -18.890625 31.929688 -30.992188 C 32.90625 -34.820312 34.496094 -40.816406 36.300781 -40.816406 L 36.300781 -41.175781 L 21.636719 -41.175781 L 21.636719 -40.816406 C 31.425781 -33.699219 25.96875 -10.691406 23.804688 -1.265625 C 21.3125 -11.050781 20.550781 -14.121094 18.421875 -22.503906 C 17.300781 -26.945312 14.265625 -37.925781 18.132812 -40.816406 L 18.132812 -41.175781 Z M 0 -41.175781 "/></g></g></g><g fill="#000000" fill-opacity="1"><g transform="translate(141.121947, 195.284973)"><g><path d="M 29.871094 0 L 29.871094 -12.425781 L 29.511719 -12.425781 C 29.511719 -8.488281 24.238281 -0.722656 17.15625 -0.722656 L 14.808594 -0.722656 L 14.808594 -21.636719 L 16.21875 -21.636719 C 19.792969 -21.636719 24.054688 -18.3125 24.5625 -15.566406 L 24.921875 -15.566406 L 24.921875 -28.425781 L 24.5625 -28.425781 C 24.054688 -25.679688 19.792969 -22.359375 16.21875 -22.359375 L 14.808594 -22.359375 L 14.808594 -40.453125 L 17.15625 -40.453125 C 24.238281 -40.453125 29.511719 -32.6875 29.511719 -28.75 L 29.871094 -28.75 L 29.871094 -41.175781 L 0.902344 -41.175781 L 0.902344 -40.816406 C 2.601562 -40.382812 3.25 -38.792969 3.25 -36.121094 L 3.25 -5.058594 C 3.25 -2.382812 2.601562 -0.792969 0.902344 -0.359375 L 0.902344 0 Z M 29.871094 0 "/></g></g></g><g fill="#000000" fill-opacity="1"><g transform="translate(170.268158, 195.284973)"><g><path d="M 0.902344 -41.175781 L 0.902344 -40.816406 C 2.601562 -40.382812 3.25 -38.792969 3.25 -36.121094 L 3.25 -5.058594 C 3.25 -2.382812 2.601562 -0.792969 0.902344 -0.359375 L 0.902344 0 L 29.617188 0 L 29.617188 -12.425781 L 29.257812 -12.425781 C 29.257812 -8.488281 23.984375 -0.722656 16.902344 -0.722656 L 14.808594 -0.722656 L 14.808594 -36.121094 C 14.808594 -38.792969 15.460938 -40.382812 17.15625 -40.816406 L 17.15625 -41.175781 Z M 0.902344 -41.175781 "/></g></g></g><g fill="#000000" fill-opacity="1"><g transform="translate(199.161558, 195.284973)"><g><path d="M 1.625 -20.589844 C 1.625 -7.222656 8.199219 0.6875 17.480469 0.6875 C 26.765625 0.6875 33.339844 -7.222656 33.339844 -20.589844 C 33.339844 -33.917969 26.765625 -41.863281 17.480469 -41.863281 C 8.199219 -41.863281 1.625 -33.917969 1.625 -20.589844 Z M 13.546875 -20.550781 C 13.546875 -31.027344 13.582031 -41.175781 17.480469 -41.175781 C 21.382812 -41.175781 21.417969 -31.027344 21.417969 -20.550781 C 21.417969 -10.078125 21.457031 0 17.480469 0 C 13.507812 0 13.546875 -10.078125 13.546875 -20.550781 Z M 13.546875 -20.550781 "/></g></g></g><g fill="#000000" fill-opacity="1"><g transform="translate(232.497372, 195.284973)"><g><path d="M 17.15625 0 L 17.15625 -0.359375 C 15.460938 -0.792969 14.808594 -2.382812 14.808594 -5.058594 L 14.808594 -15.027344 L 20.300781 -15.027344 C 28.605469 -15.027344 34.421875 -19.539062 34.421875 -28.425781 C 34.421875 -36.082031 29.039062 -41.175781 22.03125 -41.175781 L 0.902344 -41.175781 L 0.902344 -40.816406 C 2.601562 -40.382812 3.25 -38.792969 3.25 -36.121094 L 3.25 -5.058594 C 3.25 -2.382812 2.601562 -0.792969 0.902344 -0.359375 L 0.902344 0 Z M 14.808594 -40.492188 C 21.023438 -40.164062 22.464844 -34.566406 22.464844 -28.460938 C 22.464844 -21.601562 21.09375 -15.929688 15.496094 -15.929688 L 14.808594 -15.929688 Z M 14.808594 -40.492188 "/></g></g></g><g fill="#000000" fill-opacity="1"><g transform="translate(266.9167, 195.284973)"><g><path d="M 29.871094 0 L 29.871094 -12.425781 L 29.511719 -12.425781 C 29.511719 -8.488281 24.238281 -0.722656 17.15625 -0.722656 L 14.808594 -0.722656 L 14.808594 -21.636719 L 16.21875 -21.636719 C 19.792969 -21.636719 24.054688 -18.3125 24.5625 -15.566406 L 24.921875 -15.566406 L 24.921875 -28.425781 L 24.5625 -28.425781 C 24.054688 -25.679688 19.792969 -22.359375 16.21875 -22.359375 L 14.808594 -22.359375 L 14.808594 -40.453125 L 17.15625 -40.453125 C 24.238281 -40.453125 29.511719 -32.6875 29.511719 -28.75 L 29.871094 -28.75 L 29.871094 -41.175781 L 0.902344 -41.175781 L 0.902344 -40.816406 C 2.601562 -40.382812 3.25 -38.792969 3.25 -36.121094 L 3.25 -5.058594 C 3.25 -2.382812 2.601562 -0.792969 0.902344 -0.359375 L 0.902344 0 Z M 29.871094 0 "/></g></g></g><g fill="#000000" fill-opacity="1"><g transform="translate(296.0629, 195.284973)"><g><path d="M 0.902344 -40.816406 C 2.601562 -40.382812 3.25 -38.792969 3.25 -36.121094 L 3.25 -5.058594 C 3.25 -2.382812 2.601562 -0.792969 0.902344 -0.359375 L 0.902344 0 L 17.15625 0 L 17.15625 -0.359375 C 15.460938 -0.792969 14.808594 -2.382812 14.808594 -5.058594 L 14.808594 -22.359375 C 23.621094 -22.359375 11.957031 0.6875 30.160156 0.6875 C 34.710938 0.6875 35.6875 -1.515625 35.6875 -1.515625 C 28.714844 -4.082031 34.351562 -19.722656 19.902344 -22.683594 C 27.089844 -22.683594 32.796875 -24.632812 32.796875 -31.785156 C 32.796875 -36.914062 29.113281 -41.175781 21.746094 -41.175781 L 0.902344 -41.175781 Z M 15.53125 -40.707031 C 19.972656 -40.707031 21.238281 -36.589844 21.238281 -32.183594 C 21.238281 -25.210938 18.855469 -23.082031 16.109375 -23.082031 L 14.808594 -23.082031 L 14.808594 -40.707031 Z M 15.53125 -40.707031 "/></g></g></g><g fill="#000000" fill-opacity="1"><g transform="translate(234.34767, 213.677885)"><g><path d="M 3.875 -6.21875 C 3.101562 -6.21875 2.503906 -5.972656 2.078125 -5.484375 C 1.660156 -4.992188 1.453125 -4.320312 1.453125 -3.46875 C 1.453125 -2.625 1.671875 -1.945312 2.109375 -1.4375 C 2.554688 -0.925781 3.15625 -0.671875 3.90625 -0.671875 C 4.875 -0.671875 5.597656 -1.144531 6.078125 -2.09375 L 6.84375 -1.71875 C 6.5625 -1.125 6.160156 -0.671875 5.640625 -0.359375 C 5.128906 -0.0546875 4.535156 0.09375 3.859375 0.09375 C 3.171875 0.09375 2.570312 -0.046875 2.0625 -0.328125 C 1.550781 -0.617188 1.164062 -1.03125 0.90625 -1.5625 C 0.644531 -2.101562 0.515625 -2.738281 0.515625 -3.46875 C 0.515625 -4.570312 0.804688 -5.429688 1.390625 -6.046875 C 1.984375 -6.671875 2.804688 -6.984375 3.859375 -6.984375 C 4.585938 -6.984375 5.195312 -6.835938 5.6875 -6.546875 C 6.1875 -6.265625 6.550781 -5.84375 6.78125 -5.28125 L 5.890625 -4.984375 C 5.734375 -5.390625 5.476562 -5.695312 5.125 -5.90625 C 4.769531 -6.113281 4.351562 -6.21875 3.875 -6.21875 Z M 3.875 -6.21875 "/></g></g></g><g fill="#000000" fill-opacity="1"><g transform="translate(241.926533, 213.677885)"><g><path d="M 5.6875 0 L 3.890625 -2.859375 L 1.75 -2.859375 L 1.75 0 L 0.828125 0 L 0.828125 -6.875 L 4.0625 -6.875 C 4.832031 -6.875 5.425781 -6.703125 5.84375 -6.359375 C 6.269531 -6.015625 6.484375 -5.53125 6.484375 -4.90625 C 6.484375 -4.394531 6.332031 -3.960938 6.03125 -3.609375 C 5.738281 -3.265625 5.332031 -3.050781 4.8125 -2.96875 L 6.765625 0 Z M 5.546875 -4.90625 C 5.546875 -5.300781 5.410156 -5.601562 5.140625 -5.8125 C 4.867188 -6.03125 4.476562 -6.140625 3.96875 -6.140625 L 1.75 -6.140625 L 1.75 -3.59375 L 4 -3.59375 C 4.488281 -3.59375 4.867188 -3.707031 5.140625 -3.9375 C 5.410156 -4.164062 5.546875 -4.488281 5.546875 -4.90625 Z M 5.546875 -4.90625 "/></g></g></g><g fill="#000000" fill-opacity="1"><g transform="translate(249.505396, 213.677885)"><g><path d="M 0.828125 0 L 0.828125 -6.875 L 6.046875 -6.875 L 6.046875 -6.125 L 1.75 -6.125 L 1.75 -3.90625 L 5.75 -3.90625 L 5.75 -3.15625 L 1.75 -3.15625 L 1.75 -0.765625 L 6.234375 -0.765625 L 6.234375 0 Z M 0.828125 0 "/></g></g></g><g fill="#000000" fill-opacity="1"><g transform="translate(256.53271, 213.677885)"><g><path d="M 5.703125 0 L 4.90625 -2.015625 L 1.78125 -2.015625 L 0.984375 0 L 0.015625 0 L 2.828125 -6.875 L 3.890625 -6.875 L 6.65625 0 Z M 3.34375 -6.171875 L 3.296875 -6.046875 C 3.210938 -5.773438 3.09375 -5.425781 2.9375 -5 L 2.0625 -2.734375 L 4.640625 -2.734375 L 3.75 -5.015625 C 3.65625 -5.234375 3.566406 -5.484375 3.484375 -5.765625 Z M 3.34375 -6.171875 "/></g></g></g><g fill="#000000" fill-opacity="1"><g transform="translate(263.560025, 213.677885)"><g><path d="M 3.515625 -6.125 L 3.515625 0 L 2.59375 0 L 2.59375 -6.125 L 0.21875 -6.125 L 0.21875 -6.875 L 5.875 -6.875 L 5.875 -6.125 Z M 3.515625 -6.125 "/></g></g></g><g fill="#000000" fill-opacity="1"><g transform="translate(270.026043, 213.677885)"><g><path d="M 0.921875 0 L 0.921875 -6.875 L 1.859375 -6.875 L 1.859375 0 Z M 0.921875 0 "/></g></g></g><g fill="#000000" fill-opacity="1"><g transform="translate(273.163283, 213.677885)"><g><path d="M 3.8125 0 L 2.859375 0 L 0.046875 -6.875 L 1.03125 -6.875 L 2.9375 -2.03125 L 3.34375 -0.828125 L 3.75 -2.03125 L 5.640625 -6.875 L 6.625 -6.875 Z M 3.8125 0 "/></g></g></g><g fill="#000000" fill-opacity="1"><g transform="translate(280.190599, 213.677885)"><g><path d="M 0.828125 0 L 0.828125 -6.875 L 6.046875 -6.875 L 6.046875 -6.125 L 1.75 -6.125 L 1.75 -3.90625 L 5.75 -3.90625 L 5.75 -3.15625 L 1.75 -3.15625 L 1.75 -0.765625 L 6.234375 -0.765625 L 6.234375 0 Z M 0.828125 0 "/></g></g></g><g fill="#000000" fill-opacity="1"><g transform="translate(287.217911, 213.677885)"><g/></g></g><g fill="#000000" fill-opacity="1"><g transform="translate(290.355149, 213.677885)"><g><path d="M 6.21875 -1.90625 C 6.21875 -1.269531 5.96875 -0.773438 5.46875 -0.421875 C 4.96875 -0.078125 4.269531 0.09375 3.375 0.09375 C 1.695312 0.09375 0.722656 -0.488281 0.453125 -1.65625 L 1.359375 -1.828125 C 1.460938 -1.421875 1.679688 -1.117188 2.015625 -0.921875 C 2.359375 -0.722656 2.820312 -0.625 3.40625 -0.625 C 4.007812 -0.625 4.472656 -0.726562 4.796875 -0.9375 C 5.117188 -1.144531 5.28125 -1.445312 5.28125 -1.84375 C 5.28125 -2.070312 5.226562 -2.253906 5.125 -2.390625 C 5.03125 -2.535156 4.890625 -2.648438 4.703125 -2.734375 C 4.515625 -2.828125 4.289062 -2.90625 4.03125 -2.96875 C 3.78125 -3.03125 3.5 -3.097656 3.1875 -3.171875 C 2.644531 -3.296875 2.234375 -3.414062 1.953125 -3.53125 C 1.671875 -3.65625 1.445312 -3.789062 1.28125 -3.9375 C 1.113281 -4.082031 0.988281 -4.253906 0.90625 -4.453125 C 0.820312 -4.648438 0.78125 -4.878906 0.78125 -5.140625 C 0.78125 -5.734375 1.003906 -6.1875 1.453125 -6.5 C 1.898438 -6.820312 2.546875 -6.984375 3.390625 -6.984375 C 4.171875 -6.984375 4.765625 -6.863281 5.171875 -6.625 C 5.585938 -6.382812 5.878906 -5.976562 6.046875 -5.40625 L 5.125 -5.234375 C 5.03125 -5.597656 4.835938 -5.863281 4.546875 -6.03125 C 4.265625 -6.195312 3.875 -6.28125 3.375 -6.28125 C 2.820312 -6.28125 2.398438 -6.1875 2.109375 -6 C 1.828125 -5.820312 1.6875 -5.550781 1.6875 -5.1875 C 1.6875 -4.976562 1.738281 -4.800781 1.84375 -4.65625 C 1.957031 -4.519531 2.117188 -4.40625 2.328125 -4.3125 C 2.546875 -4.21875 2.972656 -4.097656 3.609375 -3.953125 C 3.816406 -3.910156 4.023438 -3.863281 4.234375 -3.8125 C 4.441406 -3.757812 4.640625 -3.695312 4.828125 -3.625 C 5.023438 -3.5625 5.207031 -3.484375 5.375 -3.390625 C 5.539062 -3.296875 5.6875 -3.175781 5.8125 -3.03125 C 5.9375 -2.894531 6.035156 -2.734375 6.109375 -2.546875 C 6.179688 -2.367188 6.21875 -2.15625 6.21875 -1.90625 Z M 6.21875 -1.90625 "/></g></g></g><g fill="#000000" fill-opacity="1"><g transform="translate(297.382461, 213.677885)"><g><path d="M 3.515625 -6.125 L 3.515625 0 L 2.59375 0 L 2.59375 -6.125 L 0.21875 -6.125 L 0.21875 -6.875 L 5.875 -6.875 L 5.875 -6.125 Z M 3.515625 -6.125 "/></g></g></g><g fill="#000000" fill-opacity="1"><g transform="translate(303.848476, 213.677885)"><g><path d="M 3.5625 0.09375 C 3 0.09375 2.507812 -0.00390625 2.09375 -0.203125 C 1.675781 -0.410156 1.347656 -0.707031 1.109375 -1.09375 C 0.878906 -1.488281 0.765625 -1.957031 0.765625 -2.5 L 0.765625 -6.875 L 1.703125 -6.875 L 1.703125 -2.578125 C 1.703125 -1.953125 1.859375 -1.472656 2.171875 -1.140625 C 2.492188 -0.816406 2.957031 -0.65625 3.5625 -0.65625 C 4.1875 -0.65625 4.664062 -0.820312 5 -1.15625 C 5.34375 -1.5 5.515625 -1.992188 5.515625 -2.640625 L 5.515625 -6.875 L 6.453125 -6.875 L 6.453125 -2.59375 C 6.453125 -2.03125 6.332031 -1.546875 6.09375 -1.140625 C 5.863281 -0.742188 5.53125 -0.4375 5.09375 -0.21875 C 4.664062 -0.0078125 4.15625 0.09375 3.5625 0.09375 Z M 3.5625 0.09375 "/></g></g></g><g fill="#000000" fill-opacity="1"><g transform="translate(311.427337, 213.677885)"><g><path d="M 6.75 -3.515625 C 6.75 -2.804688 6.609375 -2.179688 6.328125 -1.640625 C 6.046875 -1.109375 5.648438 -0.703125 5.140625 -0.421875 C 4.640625 -0.140625 4.054688 0 3.390625 0 L 0.828125 0 L 0.828125 -6.875 L 3.09375 -6.875 C 4.257812 -6.875 5.160156 -6.582031 5.796875 -6 C 6.429688 -5.414062 6.75 -4.585938 6.75 -3.515625 Z M 5.8125 -3.515625 C 5.8125 -4.367188 5.578125 -5.019531 5.109375 -5.46875 C 4.640625 -5.914062 3.960938 -6.140625 3.078125 -6.140625 L 1.75 -6.140625 L 1.75 -0.75 L 3.28125 -0.75 C 3.789062 -0.75 4.234375 -0.859375 4.609375 -1.078125 C 4.992188 -1.296875 5.289062 -1.613281 5.5 -2.03125 C 5.707031 -2.445312 5.8125 -2.941406 5.8125 -3.515625 Z M 5.8125 -3.515625 "/></g></g></g><g fill="#000000" fill-opacity="1"><g transform="translate(319.006197, 213.677885)"><g><path d="M 0.921875 0 L 0.921875 -6.875 L 1.859375 -6.875 L 1.859375 0 Z M 0.921875 0 "/></g></g></g><g fill="#000000" fill-opacity="1"><g transform="translate(322.143435, 213.677885)"><g><path d="M 7.296875 -3.46875 C 7.296875 -2.75 7.15625 -2.117188 6.875 -1.578125 C 6.601562 -1.035156 6.210938 -0.617188 5.703125 -0.328125 C 5.191406 -0.046875 4.582031 0.09375 3.875 0.09375 C 3.175781 0.09375 2.566406 -0.046875 2.046875 -0.328125 C 1.535156 -0.617188 1.144531 -1.035156 0.875 -1.578125 C 0.601562 -2.117188 0.46875 -2.75 0.46875 -3.46875 C 0.46875 -4.570312 0.769531 -5.429688 1.375 -6.046875 C 1.976562 -6.671875 2.816406 -6.984375 3.890625 -6.984375 C 4.585938 -6.984375 5.191406 -6.84375 5.703125 -6.5625 C 6.222656 -6.28125 6.617188 -5.875 6.890625 -5.34375 C 7.160156 -4.820312 7.296875 -4.195312 7.296875 -3.46875 Z M 6.34375 -3.46875 C 6.34375 -4.320312 6.128906 -4.992188 5.703125 -5.484375 C 5.273438 -5.972656 4.671875 -6.21875 3.890625 -6.21875 C 3.097656 -6.21875 2.488281 -5.976562 2.0625 -5.5 C 1.632812 -5.019531 1.421875 -4.34375 1.421875 -3.46875 C 1.421875 -2.601562 1.632812 -1.914062 2.0625 -1.40625 C 2.5 -0.90625 3.101562 -0.65625 3.875 -0.65625 C 4.675781 -0.65625 5.285156 -0.898438 5.703125 -1.390625 C 6.128906 -1.878906 6.34375 -2.570312 6.34375 -3.46875 Z M 6.34375 -3.46875 "/></g></g></g><g fill="#000000" fill-opacity="1"><g transform="translate(333.326701, 211.574943)"><g><path d="M 2.734375 0 L 2.734375 -3.203125 L 5.59375 -3.203125 L 5.59375 0 Z M 2.734375 0 "/></g></g></g></svg>