<svg xmlns="http://www.w3.org/2000/svg" xmlns:xlink="http://www.w3.org/1999/xlink" width="500" zoomAndPan="magnify" viewBox="0 0 375 374.999991" height="500" preserveAspectRatio="xMidYMid meet" version="1.0"><defs><g/></defs><rect x="-37.5" width="450" fill="#ffffff" y="-37.499999" height="449.999989" fill-opacity="1"/><rect x="-37.5" width="450" fill="#2b2b2b" y="-37.499999" height="449.999989" fill-opacity="1"/><g fill="#e4e2dd" fill-opacity="1"><g transform="translate(77.320604, 186.264403)"><g><path d="M 18.628906 0.867188 C 36.390625 5.054688 46.210938 -5.054688 46.210938 -15.738281 L 46.210938 -76.101562 L 28.449219 -76.101562 L 28.449219 -9.964844 C 28.449219 -0.722656 18.628906 0.867188 18.628906 0.867188 Z M 14.007812 -2.453125 C 18.917969 -2.453125 22.816406 -6.355469 22.816406 -11.261719 C 22.816406 -16.027344 18.917969 -20.070312 14.007812 -20.070312 C 9.242188 -20.070312 5.34375 -16.027344 5.34375 -11.261719 C 5.34375 -6.355469 9.242188 -2.453125 14.007812 -2.453125 Z M 14.007812 -2.453125 "/></g></g></g><g fill="#e4e2dd" fill-opacity="1"><g transform="translate(122.949387, 186.264403)"><g><path d="M 31.914062 -2.023438 C 31.914062 -2.023438 23.105469 -1.15625 23.105469 -10.542969 L 23.105469 -48.085938 L 5.34375 -48.085938 L 5.34375 -16.171875 C 5.34375 -2.167969 15.738281 6.5 31.914062 -2.023438 Z M 37.257812 0 L 55.019531 0 L 55.019531 -48.085938 L 37.257812 -48.085938 Z M 37.257812 0 "/></g></g></g><g fill="#e4e2dd" fill-opacity="1"><g transform="translate(178.252711, 186.264403)"><g><path d="M 6.066406 0 L 23.972656 0 L 23.972656 -76.101562 L 6.066406 -76.101562 Z M 6.066406 0 "/></g></g></g><g fill="#e4e2dd" fill-opacity="1"><g transform="translate(202.510866, 186.264403)"><g><path d="M 28.738281 1.734375 C 33.359375 1.878906 37.835938 0.578125 41.734375 -1.734375 C 32.925781 0.289062 21.804688 -4.042969 21.804688 -13.863281 L 21.804688 -41.734375 C 21.804688 -45.921875 24.40625 -48.808594 27.871094 -49.386719 C 14.007812 -48.953125 3.03125 -37.691406 3.03125 -23.828125 C 3.03125 -9.675781 14.585938 1.734375 28.738281 1.734375 Z M 36.390625 -26.136719 L 52.417969 -26.136719 C 52.417969 -32.347656 49.53125 -49.386719 29.457031 -49.386719 C 32.78125 -48.953125 36.390625 -45.921875 36.390625 -37.835938 Z M 36.390625 -26.136719 "/></g></g></g><g fill="#e4e2dd" fill-opacity="1"><g transform="translate(251.316367, 186.264403)"><g><path d="M 23.972656 1.734375 C 34.367188 1.734375 43.320312 -6.210938 43.320312 -14.441406 C 43.320312 -31.769531 16.75 -28.015625 16.75 -41.878906 C 16.75 -44.765625 18.195312 -46.929688 21.226562 -49.242188 C 10.832031 -49.242188 3.609375 -41.300781 3.609375 -34.511719 C 3.609375 -18.484375 29.167969 -21.660156 29.167969 -8.664062 C 29.167969 -4.621094 27.4375 -0.867188 23.972656 1.734375 Z M 30.902344 -34.367188 C 34.945312 -34.367188 38.121094 -37.691406 38.121094 -41.734375 C 38.121094 -45.777344 34.800781 -49.097656 30.902344 -49.097656 C 26.859375 -49.097656 23.539062 -45.777344 23.539062 -41.734375 C 23.539062 -37.691406 26.859375 -34.367188 30.902344 -34.367188 Z M 11.839844 0.867188 C 16.75 0.867188 20.648438 -3.03125 20.648438 -7.941406 C 20.648438 -12.851562 16.75 -16.75 11.839844 -16.75 C 7.074219 -16.75 3.03125 -12.851562 3.03125 -7.941406 C 3.03125 -3.03125 7.074219 0.867188 11.839844 0.867188 Z M 11.839844 0.867188 "/></g></g></g><g fill="#e4e2dd" fill-opacity="1"><g transform="translate(140.889903, 209.967983)"><g><path d="M 0.648438 0 L 1.78125 0 L 1.78125 -2.710938 L 4.609375 -2.710938 L 4.609375 -3.582031 L 1.78125 -3.582031 L 1.78125 -5.390625 L 5.050781 -5.390625 L 5.050781 -6.371094 L 0.648438 -6.371094 Z M 0.648438 0 "/></g></g></g><g fill="#e4e2dd" fill-opacity="1"><g transform="translate(147.360931, 209.967983)"><g><path d="M 0.648438 0 L 1.78125 0 L 1.78125 -2.4375 L 2.824219 -2.4375 L 4.796875 0 L 6.085938 0 L 3.941406 -2.519531 L 4.140625 -2.527344 C 5.257812 -2.617188 6.011719 -3.339844 6.011719 -4.382812 C 6.011719 -5.597656 5.066406 -6.371094 3.601562 -6.371094 L 0.648438 -6.371094 Z M 1.78125 -3.214844 L 1.78125 -5.527344 L 3.421875 -5.527344 C 4.292969 -5.527344 4.867188 -5.101562 4.867188 -4.375 C 4.867188 -3.664062 4.285156 -3.214844 3.421875 -3.214844 Z M 1.78125 -3.214844 "/></g></g></g><g fill="#e4e2dd" fill-opacity="1"><g transform="translate(154.920966, 209.967983)"><g><path d="M 3.871094 0.171875 C 5.921875 0.171875 7.351562 -1.179688 7.351562 -3.1875 C 7.351562 -5.191406 5.921875 -6.550781 3.871094 -6.550781 C 1.816406 -6.550781 0.386719 -5.191406 0.386719 -3.1875 C 0.386719 -1.179688 1.816406 0.171875 3.871094 0.171875 Z M 3.871094 -0.773438 C 2.503906 -0.773438 1.53125 -1.773438 1.53125 -3.1875 C 1.53125 -4.609375 2.503906 -5.597656 3.871094 -5.597656 C 5.246094 -5.597656 6.21875 -4.609375 6.21875 -3.1875 C 6.21875 -1.765625 5.246094 -0.773438 3.871094 -0.773438 Z M 3.871094 -0.773438 "/></g></g></g><g fill="#e4e2dd" fill-opacity="1"><g transform="translate(163.813012, 209.967983)"><g><path d="M 0.640625 0 L 1.710938 0 L 1.710938 -4.90625 L 1.78125 -4.90625 L 4.726562 0 L 5.984375 0 L 5.984375 -6.371094 L 4.921875 -6.371094 L 4.921875 -1.457031 L 4.851562 -1.457031 L 1.898438 -6.371094 L 0.640625 -6.371094 Z M 0.640625 0 "/></g></g></g><g fill="#e4e2dd" fill-opacity="1"><g transform="translate(171.589043, 209.967983)"><g><path d="M 2.269531 0 L 3.402344 0 L 3.402344 -5.425781 L 5.535156 -5.425781 L 5.535156 -6.371094 L 0.144531 -6.371094 L 0.144531 -5.425781 L 2.269531 -5.425781 Z M 2.269531 0 "/></g></g></g><g fill="#e4e2dd" fill-opacity="1"><g transform="translate(178.402079, 209.967983)"><g><path d="M 0.332031 -2.402344 L 4.023438 -2.402344 L 4.023438 -3.238281 L 0.332031 -3.238281 Z M 0.332031 -2.402344 "/></g></g></g><g fill="#e4e2dd" fill-opacity="1"><g transform="translate(183.901106, 209.967983)"><g><path d="M 0.648438 0 L 5.363281 0 L 5.363281 -0.917969 L 1.746094 -0.917969 L 1.746094 -2.878906 L 5.011719 -2.878906 L 5.011719 -3.652344 L 1.746094 -3.652344 L 1.746094 -5.464844 L 5.273438 -5.464844 L 5.273438 -6.371094 L 0.648438 -6.371094 Z M 0.648438 0 "/></g></g></g><g fill="#e4e2dd" fill-opacity="1"><g transform="translate(190.759141, 209.967983)"><g><path d="M 0.640625 0 L 1.710938 0 L 1.710938 -4.90625 L 1.78125 -4.90625 L 4.726562 0 L 5.984375 0 L 5.984375 -6.371094 L 4.921875 -6.371094 L 4.921875 -1.457031 L 4.851562 -1.457031 L 1.898438 -6.371094 L 0.640625 -6.371094 Z M 0.640625 0 "/></g></g></g><g fill="#e4e2dd" fill-opacity="1"><g transform="translate(198.535173, 209.967983)"><g><path d="M 0.648438 0 L 2.933594 0 C 5.039062 0 6.445312 -1.214844 6.445312 -3.1875 C 6.445312 -5.15625 5.03125 -6.371094 2.933594 -6.371094 L 0.648438 -6.371094 Z M 1.746094 -0.882812 L 1.746094 -5.5 L 2.933594 -5.5 C 4.339844 -5.5 5.308594 -4.625 5.308594 -3.1875 C 5.308594 -1.746094 4.355469 -0.882812 2.933594 -0.882812 Z M 1.746094 -0.882812 "/></g></g></g><g fill="#e4e2dd" fill-opacity="1"><g transform="translate(206.518217, 209.967983)"><g/></g></g><g fill="#e4e2dd" fill-opacity="1"><g transform="translate(209.875234, 209.967983)"><g><path d="M 0.648438 0 L 2.933594 0 C 5.039062 0 6.445312 -1.214844 6.445312 -3.1875 C 6.445312 -5.15625 5.03125 -6.371094 2.933594 -6.371094 L 0.648438 -6.371094 Z M 1.746094 -0.882812 L 1.746094 -5.5 L 2.933594 -5.5 C 4.339844 -5.5 5.308594 -4.625 5.308594 -3.1875 C 5.308594 -1.746094 4.355469 -0.882812 2.933594 -0.882812 Z M 1.746094 -0.882812 "/></g></g></g><g fill="#e4e2dd" fill-opacity="1"><g transform="translate(217.858278, 209.967983)"><g><path d="M 0.648438 0 L 5.363281 0 L 5.363281 -0.917969 L 1.746094 -0.917969 L 1.746094 -2.878906 L 5.011719 -2.878906 L 5.011719 -3.652344 L 1.746094 -3.652344 L 1.746094 -5.464844 L 5.273438 -5.464844 L 5.273438 -6.371094 L 0.648438 -6.371094 Z M 0.648438 0 "/></g></g></g><g fill="#e4e2dd" fill-opacity="1"><g transform="translate(224.716312, 209.967983)"><g><path d="M 2.304688 0 L 4.066406 0 L 6.238281 -6.371094 L 5.058594 -6.371094 L 3.222656 -0.871094 L 3.148438 -0.871094 L 1.304688 -6.371094 L 0.136719 -6.371094 Z M 2.304688 0 "/></g></g></g><g fill="#e4e2dd" fill-opacity="1"><g transform="translate(232.222344, 209.967983)"><g><path d="M 0.945312 0.0976562 C 1.304688 0.0976562 1.566406 -0.160156 1.566406 -0.523438 C 1.566406 -0.871094 1.304688 -1.125 0.945312 -1.125 C 0.574219 -1.125 0.316406 -0.863281 0.316406 -0.523438 C 0.316406 -0.160156 0.574219 0.0976562 0.945312 0.0976562 Z M 0.945312 0.0976562 "/></g></g></g><g fill="#e4e2dd" fill-opacity="1"><g transform="translate(178.160136, 229.698956)"><g><path d="M 0.433594 0 L 3.574219 0 L 3.574219 -0.613281 L 1.164062 -0.613281 L 1.164062 -1.921875 L 3.34375 -1.921875 L 3.34375 -2.4375 L 1.164062 -2.4375 L 1.164062 -3.640625 L 3.515625 -3.640625 L 3.515625 -4.246094 L 0.433594 -4.246094 Z M 0.433594 0 "/></g></g></g><g fill="#e4e2dd" fill-opacity="1"><g transform="translate(182.732151, 229.698956)"><g><path d="M 2.117188 0.113281 C 3.214844 0.113281 3.9375 -0.394531 3.9375 -1.195312 C 3.9375 -2.152344 3.011719 -2.296875 2.257812 -2.410156 C 1.65625 -2.503906 1.109375 -2.59375 1.109375 -3.097656 C 1.109375 -3.511719 1.476562 -3.804688 2.082031 -3.804688 C 2.710938 -3.804688 3.121094 -3.472656 3.121094 -2.929688 L 3.816406 -2.929688 C 3.808594 -3.792969 3.121094 -4.367188 2.050781 -4.367188 C 1.015625 -4.367188 0.347656 -3.839844 0.347656 -3.046875 C 0.347656 -2.070312 1.300781 -1.949219 2.050781 -1.84375 C 2.640625 -1.753906 3.179688 -1.667969 3.179688 -1.152344 C 3.179688 -0.726562 2.773438 -0.449219 2.148438 -0.449219 C 1.445312 -0.449219 1.015625 -0.804688 1.015625 -1.378906 L 0.300781 -1.375 C 0.300781 -0.480469 1.019531 0.113281 2.117188 0.113281 Z M 2.117188 0.113281 "/></g></g></g><g fill="#e4e2dd" fill-opacity="1"><g transform="translate(187.730168, 229.698956)"><g><path d="M 1.511719 0 L 2.269531 0 L 2.269531 -3.617188 L 3.691406 -3.617188 L 3.691406 -4.246094 L 0.0976562 -4.246094 L 0.0976562 -3.617188 L 1.511719 -3.617188 Z M 1.511719 0 "/></g></g></g><g fill="#e4e2dd" fill-opacity="1"><g transform="translate(192.272184, 229.698956)"><g><path d="M 0.433594 0 L 1.957031 0 C 3.359375 0 4.296875 -0.808594 4.296875 -2.125 C 4.296875 -3.4375 3.355469 -4.246094 1.957031 -4.246094 L 0.433594 -4.246094 Z M 1.164062 -0.589844 L 1.164062 -3.664062 L 1.957031 -3.664062 C 2.890625 -3.664062 3.539062 -3.085938 3.539062 -2.125 C 3.539062 -1.164062 2.902344 -0.589844 1.957031 -0.589844 Z M 1.164062 -0.589844 "/></g></g></g><g fill="#e4e2dd" fill-opacity="1"><g transform="translate(178.652325, 236.198938)"><g><path d="M 0.300781 0 L 3.300781 0 L 3.300781 -0.5625 L 1.300781 -0.5625 L 1.300781 -0.613281 L 2.507812 -1.597656 C 3.035156 -2.035156 3.390625 -2.441406 3.382812 -3.03125 C 3.382812 -3.804688 2.765625 -4.367188 1.90625 -4.367188 C 0.960938 -4.367188 0.289062 -3.691406 0.304688 -2.761719 L 0.972656 -2.761719 C 0.976562 -3.359375 1.363281 -3.757812 1.894531 -3.757812 C 2.363281 -3.757812 2.695312 -3.433594 2.695312 -2.964844 C 2.695312 -2.597656 2.464844 -2.304688 2.070312 -1.972656 L 0.300781 -0.503906 Z M 0.300781 0 "/></g></g></g><g fill="#e4e2dd" fill-opacity="1"><g transform="translate(183.08634, 236.198938)"><g><path d="M 2.160156 0.113281 C 3.277344 0.113281 4.019531 -0.761719 4.019531 -2.125 C 4.019531 -3.484375 3.269531 -4.367188 2.160156 -4.367188 C 1.042969 -4.367188 0.300781 -3.492188 0.300781 -2.125 C 0.300781 -0.769531 1.042969 0.113281 2.160156 0.113281 Z M 2.160156 -0.539062 C 1.492188 -0.539062 1.0625 -1.152344 1.054688 -2.125 C 1.0625 -3.109375 1.480469 -3.707031 2.160156 -3.707031 C 2.824219 -3.707031 3.265625 -3.097656 3.265625 -2.125 C 3.265625 -1.15625 2.824219 -0.539062 2.160156 -0.539062 Z M 2.160156 -0.539062 "/></g></g></g><g fill="#e4e2dd" fill-opacity="1"><g transform="translate(188.168356, 236.198938)"><g><path d="M 0.300781 0 L 3.300781 0 L 3.300781 -0.5625 L 1.300781 -0.5625 L 1.300781 -0.613281 L 2.507812 -1.597656 C 3.035156 -2.035156 3.390625 -2.441406 3.382812 -3.03125 C 3.382812 -3.804688 2.765625 -4.367188 1.90625 -4.367188 C 0.960938 -4.367188 0.289062 -3.691406 0.304688 -2.761719 L 0.972656 -2.761719 C 0.976562 -3.359375 1.363281 -3.757812 1.894531 -3.757812 C 2.363281 -3.757812 2.695312 -3.433594 2.695312 -2.964844 C 2.695312 -2.597656 2.464844 -2.304688 2.070312 -1.972656 L 0.300781 -0.503906 Z M 0.300781 0 "/></g></g></g><g fill="#e4e2dd" fill-opacity="1"><g transform="translate(192.602371, 236.198938)"><g><path d="M 1.871094 0.113281 C 2.800781 0.113281 3.472656 -0.46875 3.472656 -1.277344 C 3.472656 -2.027344 2.898438 -2.578125 2.113281 -2.609375 L 3.265625 -3.820312 L 3.265625 -4.246094 L 0.503906 -4.246094 L 0.503906 -3.683594 L 2.347656 -3.683594 L 2.347656 -3.636719 L 1.273438 -2.488281 L 1.429688 -2.089844 C 1.519531 -2.140625 1.691406 -2.179688 1.859375 -2.179688 C 2.382812 -2.179688 2.761719 -1.828125 2.761719 -1.332031 C 2.761719 -0.835938 2.394531 -0.46875 1.871094 -0.46875 C 1.355469 -0.46875 0.972656 -0.859375 0.953125 -1.386719 L 0.265625 -1.386719 C 0.300781 -0.515625 0.984375 0.113281 1.871094 0.113281 Z M 1.871094 0.113281 "/></g></g></g></svg>