<svg xmlns="http://www.w3.org/2000/svg" xmlns:xlink="http://www.w3.org/1999/xlink" width="500" zoomAndPan="magnify" viewBox="0 0 375 374.999991" height="500" preserveAspectRatio="xMidYMid meet" version="1.0"><defs><g/><clipPath id="58d75100f4"><path d="M 40.847656 165.980469 L 334.152344 165.980469 L 334.152344 195.9375 L 40.847656 195.9375 Z M 40.847656 165.980469 " clip-rule="nonzero"/></clipPath></defs><rect x="-37.5" width="450" fill="#ffffff" y="-37.499999" height="449.999989" fill-opacity="1"/><rect x="-37.5" width="450" fill="#fbfaf9" y="-37.499999" height="449.999989" fill-opacity="1"/><g fill="#231f20" fill-opacity="1"><g transform="translate(61.774758, 220.874985)"><g><path d="M 37.515625 -89.796875 L 4.257812 -89.796875 L 4.257812 -89 L 11.441406 -82.082031 L 11.441406 -7.714844 L 4.257812 -0.796875 L 4.257812 0 L 37.78125 0 C 75.828125 0 86.738281 -25.808594 86.738281 -47.09375 C 86.738281 -75.695312 70.109375 -89.796875 37.515625 -89.796875 Z M 37.382812 -2.660156 L 37.382812 -87.402344 L 38.046875 -87.402344 C 54.945312 -87.402344 59.332031 -74.765625 59.332031 -44.964844 C 59.332031 -13.570312 54.675781 -2.660156 39.910156 -2.660156 Z M 37.382812 -2.660156 "/></g></g></g><g fill="#231f20" fill-opacity="1"><g transform="translate(147.845882, 220.874985)"><g><path d="M 77.558594 -37.78125 C 74.632812 -33.390625 72.238281 -29.535156 70.109375 -26.207031 C 58.136719 -6.917969 55.078125 -2.394531 39.511719 -2.394531 L 37.382812 -2.394531 L 37.382812 -44.167969 L 38.714844 -44.167969 C 45.898438 -44.167969 51.21875 -40.976562 59.601562 -25.808594 L 60.398438 -25.808594 L 60.398438 -64.789062 L 59.601562 -64.789062 C 51.085938 -48.558594 45.898438 -46.429688 38.714844 -46.429688 L 37.382812 -46.429688 L 37.382812 -87.402344 L 38.714844 -87.402344 C 54.277344 -87.402344 57.339844 -82.878906 69.3125 -63.589844 L 76.761719 -52.015625 L 77.558594 -52.015625 L 77.558594 -89.796875 L 4.257812 -89.796875 L 4.257812 -89 L 11.441406 -82.082031 L 11.441406 -7.714844 L 4.257812 -0.796875 L 4.257812 0 L 78.359375 0 L 78.359375 -37.78125 Z M 77.558594 -37.78125 "/></g></g></g><g fill="#231f20" fill-opacity="1"><g transform="translate(230.059099, 220.874985)"><g><path d="M 44.964844 -89 C 63.058594 -76.496094 61.996094 -50.289062 57.070312 -39.511719 L 54.277344 -31.527344 L 53.746094 -31.527344 L 32.59375 -82.082031 L 39.246094 -89 L 39.246094 -89.796875 L 0.929688 -89.796875 L 0.929688 -89 L 41.242188 1.996094 L 42.703125 1.996094 L 81.816406 -89 L 81.816406 -89.796875 L 44.964844 -89.796875 Z M 44.964844 -89 "/></g></g></g><g clip-path="url(#58d75100f4)"><path fill="#fbfaf9" d="M 40.847656 165.980469 L 334.152344 165.980469 L 334.152344 195.9375 L 40.847656 195.9375 Z M 40.847656 165.980469 " fill-opacity="1" fill-rule="nonzero"/></g><g fill="#231f20" fill-opacity="1"><g transform="translate(87.527536, 182.832878)"><g><path d="M 0.480469 0 L 5.695312 0 C 7.199219 0 8.175781 -0.746094 8.175781 -1.886719 C 8.175781 -2.664062 7.667969 -3.296875 6.890625 -3.480469 L 6.890625 -3.488281 C 7.554688 -3.691406 7.984375 -4.253906 7.984375 -4.945312 C 7.984375 -6.066406 7.0625 -6.796875 5.65625 -6.796875 L 0.480469 -6.796875 Z M 1.8125 -3.910156 L 1.8125 -5.894531 L 5.328125 -5.894531 C 6.132812 -5.894531 6.652344 -5.511719 6.652344 -4.898438 C 6.652344 -4.292969 6.132812 -3.910156 5.339844 -3.910156 Z M 1.8125 -0.902344 L 1.8125 -3.078125 L 5.347656 -3.078125 C 6.25 -3.078125 6.84375 -2.636719 6.84375 -1.992188 C 6.84375 -1.332031 6.25 -0.902344 5.347656 -0.902344 Z M 1.8125 -0.902344 "/></g></g></g><g fill="#231f20" fill-opacity="1"><g transform="translate(103.5639, 182.832878)"><g><path d="M 3.375 0 L 4.707031 0 L 4.707031 -2.464844 L 8.042969 -6.796875 L 6.519531 -6.796875 L 4.042969 -3.480469 L 4.035156 -3.480469 L 1.523438 -6.796875 L -0.0078125 -6.796875 L 3.375 -2.464844 Z M 3.375 0 "/></g></g></g><g fill="#231f20" fill-opacity="1"><g transform="translate(119.265159, 182.832878)"><g/></g></g><g fill="#231f20" fill-opacity="1"><g transform="translate(129.700591, 182.832878)"><g><path d="M 3.132812 0.183594 C 4.925781 0.183594 6 -0.816406 6 -2.433594 L 6 -6.796875 L 4.667969 -6.796875 L 4.667969 -2.519531 C 4.667969 -1.476562 4.054688 -0.824219 3.066406 -0.824219 C 2.070312 -0.824219 1.398438 -1.398438 1.253906 -2.414062 L 0.105469 -2.023438 C 0.355469 -0.613281 1.457031 0.183594 3.132812 0.183594 Z M 3.132812 0.183594 "/></g></g></g><g fill="#231f20" fill-opacity="1"><g transform="translate(143.745512, 182.832878)"><g><path d="M 4.304688 0.21875 C 6.691406 0.21875 8.234375 -0.96875 8.234375 -3.097656 L 8.234375 -6.796875 L 6.902344 -6.796875 L 6.902344 -3.132812 C 6.902344 -1.609375 5.875 -0.84375 4.3125 -0.84375 C 2.761719 -0.84375 1.726562 -1.609375 1.726562 -3.132812 L 1.726562 -6.796875 L 0.382812 -6.796875 L 0.382812 -3.097656 C 0.382812 -0.96875 1.925781 0.21875 4.304688 0.21875 Z M 4.304688 0.21875 "/></g></g></g><g fill="#231f20" fill-opacity="1"><g transform="translate(160.021229, 182.832878)"><g><path d="M 0.480469 0 L 6.164062 0 L 6.164062 -1.054688 L 1.8125 -1.054688 L 1.8125 -6.796875 L 0.480469 -6.796875 Z M 0.480469 0 "/></g></g></g><g fill="#231f20" fill-opacity="1"><g transform="translate(173.922539, 182.832878)"><g><path d="M 0.480469 0 L 5.695312 0 C 7.199219 0 8.175781 -0.746094 8.175781 -1.886719 C 8.175781 -2.664062 7.667969 -3.296875 6.890625 -3.480469 L 6.890625 -3.488281 C 7.554688 -3.691406 7.984375 -4.253906 7.984375 -4.945312 C 7.984375 -6.066406 7.0625 -6.796875 5.65625 -6.796875 L 0.480469 -6.796875 Z M 1.8125 -3.910156 L 1.8125 -5.894531 L 5.328125 -5.894531 C 6.132812 -5.894531 6.652344 -5.511719 6.652344 -4.898438 C 6.652344 -4.292969 6.132812 -3.910156 5.339844 -3.910156 Z M 1.8125 -0.902344 L 1.8125 -3.078125 L 5.347656 -3.078125 C 6.25 -3.078125 6.84375 -2.636719 6.84375 -1.992188 C 6.84375 -1.332031 6.25 -0.902344 5.347656 -0.902344 Z M 1.8125 -0.902344 "/></g></g></g><g fill="#231f20" fill-opacity="1"><g transform="translate(189.958903, 182.832878)"><g><path d="M 4.304688 0.21875 C 6.691406 0.21875 8.234375 -0.96875 8.234375 -3.097656 L 8.234375 -6.796875 L 6.902344 -6.796875 L 6.902344 -3.132812 C 6.902344 -1.609375 5.875 -0.84375 4.3125 -0.84375 C 2.761719 -0.84375 1.726562 -1.609375 1.726562 -3.132812 L 1.726562 -6.796875 L 0.382812 -6.796875 L 0.382812 -3.097656 C 0.382812 -0.96875 1.925781 0.21875 4.304688 0.21875 Z M 4.304688 0.21875 "/></g></g></g><g fill="#231f20" fill-opacity="1"><g transform="translate(206.234621, 182.832878)"><g><path d="M 4.378906 0.230469 C 6.5 0.230469 7.917969 -0.652344 7.917969 -1.957031 C 7.917969 -3.046875 7.046875 -3.632812 5.023438 -3.910156 L 3.429688 -4.132812 C 2.367188 -4.273438 1.917969 -4.542969 1.917969 -5.003906 C 1.917969 -5.625 2.761719 -6.058594 3.9375 -6.058594 C 5.117188 -6.058594 6.203125 -5.578125 6.730469 -4.898438 L 7.351562 -5.675781 C 6.746094 -6.46875 5.433594 -7.027344 3.929688 -7.027344 C 1.984375 -7.027344 0.605469 -6.230469 0.605469 -4.917969 C 0.605469 -3.863281 1.359375 -3.324219 3.132812 -3.097656 L 4.746094 -2.847656 C 6.046875 -2.664062 6.605469 -2.347656 6.605469 -1.839844 C 6.605469 -1.21875 5.742188 -0.757812 4.449219 -0.757812 C 2.867188 -0.757812 1.410156 -1.429688 0.910156 -2.394531 L 0.191406 -1.628906 C 0.832031 -0.535156 2.492188 0.230469 4.378906 0.230469 Z M 4.378906 0.230469 "/></g></g></g><g fill="#231f20" fill-opacity="1"><g transform="translate(222.002908, 182.832878)"><g><path d="M 0.480469 0 L 1.800781 0 L 1.800781 -6.796875 L 0.480469 -6.796875 Z M 0.480469 0 "/></g></g></g><g fill="#231f20" fill-opacity="1"><g transform="translate(231.950054, 182.832878)"><g><path d="M 0.480469 0 L 1.761719 0 L 1.761719 -5.5 L 1.773438 -5.5 L 6.640625 0 L 8.308594 0 L 8.308594 -6.796875 L 7.015625 -6.796875 L 7.015625 -1.304688 L 7.007812 -1.304688 L 2.148438 -6.796875 L 0.480469 -6.796875 Z M 0.480469 0 "/></g></g></g><g fill="#231f20" fill-opacity="1"><g transform="translate(248.398108, 182.832878)"><g><path d="M 0.480469 0 L 7.332031 0 L 7.332031 -0.96875 L 1.773438 -0.96875 L 1.773438 -3.046875 L 6.851562 -3.046875 L 6.851562 -3.9375 L 1.773438 -3.9375 L 1.773438 -5.816406 L 7.238281 -5.816406 L 7.238281 -6.796875 L 0.480469 -6.796875 Z M 0.480469 0 "/></g></g></g><g fill="#231f20" fill-opacity="1"><g transform="translate(263.582358, 182.832878)"><g><path d="M 4.378906 0.230469 C 6.5 0.230469 7.917969 -0.652344 7.917969 -1.957031 C 7.917969 -3.046875 7.046875 -3.632812 5.023438 -3.910156 L 3.429688 -4.132812 C 2.367188 -4.273438 1.917969 -4.542969 1.917969 -5.003906 C 1.917969 -5.625 2.761719 -6.058594 3.9375 -6.058594 C 5.117188 -6.058594 6.203125 -5.578125 6.730469 -4.898438 L 7.351562 -5.675781 C 6.746094 -6.46875 5.433594 -7.027344 3.929688 -7.027344 C 1.984375 -7.027344 0.605469 -6.230469 0.605469 -4.917969 C 0.605469 -3.863281 1.359375 -3.324219 3.132812 -3.097656 L 4.746094 -2.847656 C 6.046875 -2.664062 6.605469 -2.347656 6.605469 -1.839844 C 6.605469 -1.21875 5.742188 -0.757812 4.449219 -0.757812 C 2.867188 -0.757812 1.410156 -1.429688 0.910156 -2.394531 L 0.191406 -1.628906 C 0.832031 -0.535156 2.492188 0.230469 4.378906 0.230469 Z M 4.378906 0.230469 "/></g></g></g><g fill="#231f20" fill-opacity="1"><g transform="translate(279.350645, 182.832878)"><g><path d="M 4.378906 0.230469 C 6.5 0.230469 7.917969 -0.652344 7.917969 -1.957031 C 7.917969 -3.046875 7.046875 -3.632812 5.023438 -3.910156 L 3.429688 -4.132812 C 2.367188 -4.273438 1.917969 -4.542969 1.917969 -5.003906 C 1.917969 -5.625 2.761719 -6.058594 3.9375 -6.058594 C 5.117188 -6.058594 6.203125 -5.578125 6.730469 -4.898438 L 7.351562 -5.675781 C 6.746094 -6.46875 5.433594 -7.027344 3.929688 -7.027344 C 1.984375 -7.027344 0.605469 -6.230469 0.605469 -4.917969 C 0.605469 -3.863281 1.359375 -3.324219 3.132812 -3.097656 L 4.746094 -2.847656 C 6.046875 -2.664062 6.605469 -2.347656 6.605469 -1.839844 C 6.605469 -1.21875 5.742188 -0.757812 4.449219 -0.757812 C 2.867188 -0.757812 1.410156 -1.429688 0.910156 -2.394531 L 0.191406 -1.628906 C 0.832031 -0.535156 2.492188 0.230469 4.378906 0.230469 Z M 4.378906 0.230469 "/></g></g></g></svg>