<svg xmlns="http://www.w3.org/2000/svg" xmlns:xlink="http://www.w3.org/1999/xlink" width="500" zoomAndPan="magnify" viewBox="0 0 375 374.999991" height="500" preserveAspectRatio="xMidYMid meet" version="1.0"><defs><g/><clipPath id="1ea01ab642"><path d="M 208.382812 161.703125 L 231.414062 161.703125 L 231.414062 170.703125 L 208.382812 170.703125 Z M 208.382812 161.703125 " clip-rule="nonzero"/></clipPath></defs><rect x="-37.5" width="450" fill="#ffffff" y="-37.499999" height="449.999989" fill-opacity="1"/><g fill="#222222" fill-opacity="1"><g transform="translate(144.717372, 194.096237)"><g><path d="M 2.21875 -30.53125 L 11.0625 -30.53125 C 15.300781 -30.53125 18.925781 -29.078125 21.9375 -26.171875 C 24.945312 -23.273438 26.453125 -19.644531 26.453125 -15.28125 C 26.453125 -10.882812 24.953125 -7.238281 21.953125 -4.34375 C 18.960938 -1.445312 15.332031 0 11.0625 0 L 2.21875 0 Z M 9.171875 -6.21875 L 10.25 -6.21875 C 12.789062 -6.21875 14.867188 -7.070312 16.484375 -8.78125 C 18.097656 -10.5 18.914062 -12.65625 18.9375 -15.25 C 18.9375 -17.832031 18.128906 -19.988281 16.515625 -21.71875 C 14.898438 -23.445312 12.8125 -24.3125 10.25 -24.3125 L 9.171875 -24.3125 Z M 9.171875 -6.21875 "/></g></g></g><g fill="#222222" fill-opacity="1"><g transform="translate(172.01832, 194.096237)"><g><path d="M 21.421875 -8.578125 L 7.65625 -8.578125 C 7.65625 -7.253906 8.085938 -6.269531 8.953125 -5.625 C 9.816406 -4.976562 10.753906 -4.65625 11.765625 -4.65625 C 12.828125 -4.65625 13.664062 -4.796875 14.28125 -5.078125 C 14.894531 -5.367188 15.597656 -5.929688 16.390625 -6.765625 L 21.125 -4.40625 C 19.15625 -1.09375 15.875 0.5625 11.28125 0.5625 C 8.425781 0.5625 5.972656 -0.414062 3.921875 -2.375 C 1.867188 -4.34375 0.84375 -6.707031 0.84375 -9.46875 C 0.84375 -12.226562 1.867188 -14.59375 3.921875 -16.5625 C 5.972656 -18.539062 8.425781 -19.53125 11.28125 -19.53125 C 14.289062 -19.53125 16.738281 -18.660156 18.625 -16.921875 C 20.507812 -15.179688 21.453125 -12.695312 21.453125 -9.46875 C 21.453125 -9.03125 21.441406 -8.734375 21.421875 -8.578125 Z M 7.84375 -12.203125 L 15.0625 -12.203125 C 14.914062 -13.191406 14.523438 -13.953125 13.890625 -14.484375 C 13.265625 -15.015625 12.457031 -15.28125 11.46875 -15.28125 C 10.382812 -15.28125 9.519531 -14.992188 8.875 -14.421875 C 8.238281 -13.859375 7.894531 -13.117188 7.84375 -12.203125 Z M 7.84375 -12.203125 "/></g></g></g><g fill="#222222" fill-opacity="1"><g transform="translate(194.325198, 194.096237)"><g><path d="M 7.03125 -18.984375 L 11.65625 -8.65625 L 16.28125 -18.984375 L 24.046875 -18.984375 L 13.875 0 L 9.4375 0 L -0.734375 -18.984375 Z M 7.03125 -18.984375 "/></g></g></g><g fill="#222222" fill-opacity="1"><g transform="translate(217.630887, 194.096237)"><g><path d="M 6.4375 -7.921875 C 7.625 -7.921875 8.628906 -7.503906 9.453125 -6.671875 C 10.273438 -5.847656 10.6875 -4.84375 10.6875 -3.65625 C 10.6875 -2.5 10.273438 -1.503906 9.453125 -0.671875 C 8.628906 0.148438 7.625 0.5625 6.4375 0.5625 C 5.28125 0.5625 4.285156 0.148438 3.453125 -0.671875 C 2.628906 -1.503906 2.21875 -2.5 2.21875 -3.65625 C 2.21875 -4.84375 2.628906 -5.847656 3.453125 -6.671875 C 4.285156 -7.503906 5.28125 -7.921875 6.4375 -7.921875 Z M 6.4375 -7.921875 "/></g></g></g><g clip-path="url(#1ea01ab642)"><path fill="#f6b21b" d="M 208.382812 161.707031 L 222.980469 161.707031 C 227.761719 161.707031 231.632812 165.730469 231.632812 170.699219 L 208.382812 170.699219 Z M 208.382812 161.707031 " fill-opacity="1" fill-rule="nonzero"/></g><g fill="#222222" fill-opacity="1"><g transform="translate(167.955754, 206.967526)"><g><path d="M 0.671875 -5.53125 L 3.6875 -5.53125 L 3.6875 -4.953125 L 1.328125 -4.953125 L 1.328125 -3.0625 L 3.53125 -3.0625 L 3.53125 -2.46875 L 1.328125 -2.46875 L 1.328125 0 L 0.671875 0 Z M 0.671875 -5.53125 "/></g></g></g><g fill="#222222" fill-opacity="1"><g transform="translate(174.489071, 206.967526)"><g><path d="M 0.671875 -5.484375 C 0.867188 -5.515625 1.097656 -5.539062 1.359375 -5.5625 C 1.617188 -5.582031 1.859375 -5.59375 2.078125 -5.59375 C 2.316406 -5.59375 2.546875 -5.566406 2.765625 -5.515625 C 2.984375 -5.460938 3.175781 -5.375 3.34375 -5.25 C 3.507812 -5.132812 3.640625 -4.976562 3.734375 -4.78125 C 3.835938 -4.582031 3.890625 -4.347656 3.890625 -4.078125 C 3.890625 -3.640625 3.769531 -3.285156 3.53125 -3.015625 C 3.300781 -2.742188 3.003906 -2.566406 2.640625 -2.484375 L 3.015625 -2.1875 L 4.390625 0 L 3.625 0 L 2.109375 -2.390625 L 1.328125 -2.5 L 1.328125 0 L 0.671875 0 Z M 2.09375 -5.03125 C 2.03125 -5.03125 1.957031 -5.03125 1.875 -5.03125 C 1.800781 -5.03125 1.726562 -5.023438 1.65625 -5.015625 C 1.59375 -5.015625 1.53125 -5.007812 1.46875 -5 C 1.414062 -5 1.367188 -4.992188 1.328125 -4.984375 L 1.328125 -2.9375 L 1.9375 -2.9375 C 2.300781 -2.9375 2.601562 -3.023438 2.84375 -3.203125 C 3.082031 -3.390625 3.203125 -3.671875 3.203125 -4.046875 C 3.203125 -4.328125 3.101562 -4.5625 2.90625 -4.75 C 2.707031 -4.9375 2.4375 -5.03125 2.09375 -5.03125 Z M 2.09375 -5.03125 "/></g></g></g><g fill="#222222" fill-opacity="1"><g transform="translate(181.638347, 206.967526)"><g><path d="M 0.4375 -2.765625 C 0.4375 -3.691406 0.628906 -4.398438 1.015625 -4.890625 C 1.410156 -5.378906 1.972656 -5.625 2.703125 -5.625 C 3.085938 -5.625 3.421875 -5.554688 3.703125 -5.421875 C 3.992188 -5.285156 4.234375 -5.09375 4.421875 -4.84375 C 4.609375 -4.59375 4.742188 -4.289062 4.828125 -3.9375 C 4.921875 -3.59375 4.96875 -3.203125 4.96875 -2.765625 C 4.96875 -1.847656 4.769531 -1.140625 4.375 -0.640625 C 3.976562 -0.148438 3.421875 0.09375 2.703125 0.09375 C 2.316406 0.09375 1.976562 0.0234375 1.6875 -0.109375 C 1.40625 -0.242188 1.171875 -0.4375 0.984375 -0.6875 C 0.804688 -0.9375 0.671875 -1.238281 0.578125 -1.59375 C 0.484375 -1.945312 0.4375 -2.335938 0.4375 -2.765625 Z M 1.140625 -2.765625 C 1.140625 -2.460938 1.171875 -2.171875 1.234375 -1.890625 C 1.296875 -1.617188 1.390625 -1.378906 1.515625 -1.171875 C 1.640625 -0.960938 1.800781 -0.796875 2 -0.671875 C 2.195312 -0.546875 2.429688 -0.484375 2.703125 -0.484375 C 3.191406 -0.484375 3.570312 -0.671875 3.84375 -1.046875 C 4.125 -1.421875 4.265625 -1.992188 4.265625 -2.765625 C 4.265625 -3.066406 4.234375 -3.351562 4.171875 -3.625 C 4.117188 -3.90625 4.023438 -4.148438 3.890625 -4.359375 C 3.765625 -4.566406 3.601562 -4.734375 3.40625 -4.859375 C 3.207031 -4.984375 2.972656 -5.046875 2.703125 -5.046875 C 2.210938 -5.046875 1.828125 -4.859375 1.546875 -4.484375 C 1.273438 -4.109375 1.140625 -3.535156 1.140625 -2.765625 Z M 1.140625 -2.765625 "/></g></g></g><g fill="#222222" fill-opacity="1"><g transform="translate(189.490455, 206.967526)"><g><path d="M 1.671875 -3.625 L 1.234375 -4.421875 L 1.203125 -4.421875 L 1.28125 -3.625 L 1.28125 0 L 0.671875 0 L 0.671875 -5.625 L 1.015625 -5.625 L 3.671875 -1.921875 L 4.078125 -1.171875 L 4.125 -1.171875 L 4.03125 -1.921875 L 4.03125 -5.53125 L 4.65625 -5.53125 L 4.65625 0.09375 L 4.296875 0.09375 Z M 1.671875 -3.625 "/></g></g></g><g fill="#222222" fill-opacity="1"><g transform="translate(197.255697, 206.967526)"><g><path d="M 4.25 -4.953125 L 2.515625 -4.953125 L 2.515625 0 L 1.859375 0 L 1.859375 -4.953125 L 0.140625 -4.953125 L 0.140625 -5.53125 L 4.25 -5.53125 Z M 4.25 -4.953125 "/></g></g></g><g fill="#222222" fill-opacity="1"><g transform="translate(204.089095, 206.967526)"><g><path d="M 0.46875 -2.5625 L 2.375 -2.5625 L 2.375 -1.984375 L 0.46875 -1.984375 Z M 0.46875 -2.5625 "/></g></g></g><g fill="#222222" fill-opacity="1"><g transform="translate(209.382588, 206.967526)"><g><path d="M 0.671875 -5.53125 L 3.6875 -5.53125 L 3.6875 -4.953125 L 1.328125 -4.953125 L 1.328125 -3.140625 L 3.484375 -3.140625 L 3.484375 -2.546875 L 1.328125 -2.546875 L 1.328125 -0.578125 L 3.71875 -0.578125 L 3.71875 0 L 0.671875 0 Z M 0.671875 -5.53125 "/></g></g></g><g fill="#222222" fill-opacity="1"><g transform="translate(216.065945, 206.967526)"><g><path d="M 1.671875 -3.625 L 1.234375 -4.421875 L 1.203125 -4.421875 L 1.28125 -3.625 L 1.28125 0 L 0.671875 0 L 0.671875 -5.625 L 1.015625 -5.625 L 3.671875 -1.921875 L 4.078125 -1.171875 L 4.125 -1.171875 L 4.03125 -1.921875 L 4.03125 -5.53125 L 4.65625 -5.53125 L 4.65625 0.09375 L 4.296875 0.09375 Z M 1.671875 -3.625 "/></g></g></g><g fill="#222222" fill-opacity="1"><g transform="translate(223.831188, 206.967526)"><g><path d="M 0.671875 -5.53125 C 0.773438 -5.550781 0.882812 -5.5625 1 -5.5625 C 1.125 -5.570312 1.253906 -5.578125 1.390625 -5.578125 C 1.523438 -5.585938 1.65625 -5.59375 1.78125 -5.59375 C 1.914062 -5.59375 2.039062 -5.59375 2.15625 -5.59375 C 2.59375 -5.59375 2.972656 -5.523438 3.296875 -5.390625 C 3.617188 -5.253906 3.882812 -5.0625 4.09375 -4.8125 C 4.3125 -4.570312 4.472656 -4.28125 4.578125 -3.9375 C 4.679688 -3.59375 4.734375 -3.21875 4.734375 -2.8125 C 4.734375 -2.4375 4.679688 -2.070312 4.578125 -1.71875 C 4.484375 -1.375 4.328125 -1.066406 4.109375 -0.796875 C 3.898438 -0.535156 3.628906 -0.320312 3.296875 -0.15625 C 2.960938 0 2.554688 0.078125 2.078125 0.078125 C 1.984375 0.078125 1.867188 0.0703125 1.734375 0.0625 C 1.609375 0.0625 1.472656 0.0546875 1.328125 0.046875 C 1.179688 0.046875 1.046875 0.0390625 0.921875 0.03125 C 0.804688 0.03125 0.722656 0.0234375 0.671875 0.015625 Z M 2.171875 -5.015625 C 2.097656 -5.015625 2.019531 -5.015625 1.9375 -5.015625 C 1.851562 -5.015625 1.769531 -5.007812 1.6875 -5 C 1.613281 -5 1.546875 -4.992188 1.484375 -4.984375 C 1.421875 -4.984375 1.367188 -4.976562 1.328125 -4.96875 L 1.328125 -0.546875 C 1.359375 -0.535156 1.410156 -0.53125 1.484375 -0.53125 C 1.554688 -0.53125 1.628906 -0.523438 1.703125 -0.515625 C 1.785156 -0.515625 1.863281 -0.515625 1.9375 -0.515625 C 2.007812 -0.515625 2.0625 -0.515625 2.09375 -0.515625 C 2.457031 -0.515625 2.765625 -0.578125 3.015625 -0.703125 C 3.265625 -0.828125 3.460938 -0.992188 3.609375 -1.203125 C 3.765625 -1.421875 3.875 -1.664062 3.9375 -1.9375 C 4 -2.21875 4.03125 -2.507812 4.03125 -2.8125 C 4.03125 -3.0625 4 -3.316406 3.9375 -3.578125 C 3.882812 -3.847656 3.785156 -4.085938 3.640625 -4.296875 C 3.503906 -4.503906 3.316406 -4.675781 3.078125 -4.8125 C 2.835938 -4.945312 2.535156 -5.015625 2.171875 -5.015625 Z M 2.171875 -5.015625 "/></g></g></g></svg>