<svg xmlns="http://www.w3.org/2000/svg" xmlns:xlink="http://www.w3.org/1999/xlink" width="500" zoomAndPan="magnify" viewBox="0 0 375 374.999991" height="500" preserveAspectRatio="xMidYMid meet" version="1.0"><defs><g/><clipPath id="2615aa751f"><path d="M 150 135 L 225.675781 135 L 225.675781 191.660156 L 150 191.660156 Z M 150 135 " clip-rule="nonzero"/></clipPath></defs><rect x="-37.5" width="450" fill="#ffffff" y="-37.499999" height="449.999989" fill-opacity="1"/><rect x="-37.5" width="450" fill="#d5dfd6" y="-37.499999" height="449.999989" fill-opacity="1"/><g clip-path="url(#2615aa751f)"><path fill="#6b705c" d="M 153.3125 190.042969 C 150.441406 189.148438 149.238281 175.105469 154.285156 160.125 C 156.1875 154.488281 157.515625 150.542969 161.207031 146.503906 C 167.667969 139.441406 176.074219 137.882812 181.214844 136.929688 C 187.378906 135.785156 197.46875 133.914062 207.277344 139.351562 C 221.550781 147.257812 224.328125 164.585938 225.144531 169.679688 C 225.601562 172.539062 225.585938 175.296875 225.550781 180.8125 C 225.527344 184.902344 225.300781 190.699219 223.234375 191.410156 C 223.015625 191.484375 222.332031 191.65625 221.492188 191.640625 C 220.792969 191.625 219.730469 191.609375 219.152344 191.097656 C 218.128906 190.199219 219.039062 188.167969 219.410156 184.449219 C 219.453125 184.03125 219.472656 182.671875 219.519531 179.953125 C 219.566406 176.894531 219.695312 168.957031 217.820312 162.398438 C 217.1875 160.183594 213.941406 148.828125 203.675781 143.71875 C 198.636719 141.207031 193.96875 141.230469 190.035156 141.25 C 186.070312 141.269531 179.253906 141.300781 172.261719 145.703125 C 163.898438 150.964844 160.867188 158.953125 160.128906 160.988281 C 158.660156 165.035156 158.347656 168.730469 158.183594 170.796875 C 157.683594 177.144531 157.433594 180.320312 158.4375 183.886719 C 158.917969 185.597656 159.679688 187.515625 158.722656 188.765625 C 157.921875 189.816406 156.066406 190.191406 154.867188 190.210938 C 154.167969 190.21875 153.542969 190.117188 153.3125 190.042969 Z M 153.3125 190.042969 " fill-opacity="1" fill-rule="nonzero"/></g><path fill="#a5a58d" d="M 161.066406 187.308594 C 157.308594 185.320312 159.464844 174.320312 160.289062 170.113281 C 161.578125 163.539062 162.648438 158.078125 167.277344 152.921875 C 171.371094 148.359375 176.019531 146.511719 178.148438 145.691406 C 186.351562 142.535156 193.546875 143.933594 196.007812 144.519531 C 198.707031 145.164062 203.679688 146.347656 208.042969 150.578125 C 212.355469 154.761719 213.652344 159.679688 215.03125 164.839844 C 215.582031 166.898438 215.914062 170.640625 216.585938 178.128906 C 217.019531 182.992188 217.378906 188.425781 215.613281 189.070312 C 215.328125 189.171875 214.515625 189.074219 212.894531 188.871094 C 211.515625 188.703125 210.824219 188.617188 210.566406 188.484375 C 208.820312 187.570312 209.84375 182.832031 210.175781 178.714844 C 210.320312 176.949219 210.714844 170.589844 208.820312 164.644531 C 208.066406 162.285156 206.539062 157.5 202.023438 153.902344 C 196.707031 149.660156 190.625 149.757812 188.046875 149.796875 C 185.550781 149.839844 180.796875 149.976562 176.207031 153.117188 C 172.546875 155.625 170.816406 158.789062 169.21875 161.714844 C 168.351562 163.300781 166.082031 167.550781 165.527344 173.242188 C 165.199219 176.640625 165.023438 178.457031 165.335938 181.058594 C 165.660156 183.773438 166.28125 185.382812 165.335938 186.53125 C 164.445312 187.609375 162.382812 188.003906 161.066406 187.308594 Z M 161.066406 187.308594 " fill-opacity="1" fill-rule="nonzero"/><path fill="#ddbea9" d="M 168.246094 185.550781 C 167.300781 184.792969 166.820312 183.273438 167.859375 176.5625 C 168.71875 171.003906 169.152344 168.226562 170.1875 165.816406 C 171.484375 162.804688 173.601562 157.894531 178.925781 154.875 C 186.449219 150.609375 194.269531 153.59375 195.035156 153.894531 C 199.519531 155.691406 202.195312 158.890625 203.382812 160.34375 C 205.296875 162.683594 206.347656 164.914062 206.878906 166.207031 C 208.105469 169.207031 208.296875 171.699219 208.625 176.5625 C 209.238281 185.65625 207.804688 186.398438 207.460938 186.527344 C 207.328125 186.574219 206.660156 186.558594 205.324219 186.527344 C 203.765625 186.488281 202.984375 186.464844 202.800781 186.328125 C 201.757812 185.554688 202.890625 182.886719 203.382812 179.6875 C 203.414062 179.492188 203.988281 175.554688 203.1875 171.675781 C 202.890625 170.234375 201.859375 165.230469 197.367188 161.710938 C 193.824219 158.9375 190.105469 158.632812 189.40625 158.585938 C 188.277344 158.511719 184.726562 158.320312 181.253906 160.539062 C 178.53125 162.285156 177.296875 164.589844 176.015625 166.988281 C 175.199219 168.507812 173.613281 171.542969 173.296875 175.585938 C 172.886719 180.804688 172.910156 182.226562 172.910156 182.226562 C 172.933594 183.816406 173.035156 184.859375 172.328125 185.550781 C 171.390625 186.457031 169.375 186.457031 168.246094 185.550781 Z M 168.246094 185.550781 " fill-opacity="1" fill-rule="nonzero"/><path fill="#cb997e" d="M 175.039062 184.378906 C 174.375 183.753906 174.492188 182.71875 174.652344 181.253906 C 175.429688 174.222656 175.414062 174.273438 175.429688 174.21875 C 176.617188 169.429688 177.210938 167.035156 179.3125 164.839844 C 183.085938 160.898438 188.257812 160.925781 188.628906 160.933594 C 192.714844 161.019531 195.53125 163.144531 196.585938 164.058594 C 198.992188 166.136719 199.953125 168.566406 200.46875 169.917969 C 201.488281 172.585938 201.558594 174.929688 201.632812 177.539062 C 201.695312 179.714844 201.445312 179.019531 201.4375 182.03125 C 201.433594 183.828125 201.519531 184.949219 200.855469 185.355469 C 200.585938 185.515625 200.09375 185.464844 199.109375 185.355469 C 198 185.230469 197.441406 185.167969 197.167969 184.964844 C 196.25 184.273438 196.855469 182.15625 197.167969 180.472656 C 197.375 179.367188 198.234375 174.707031 196.78125 171.285156 C 195.800781 168.976562 193.507812 166.628906 190.375 166.011719 C 190.085938 165.953125 186.511719 165.304688 183.582031 167.574219 C 181.917969 168.863281 181.226562 170.488281 180.476562 172.265625 C 179.546875 174.457031 179.25 176.539062 179.117188 177.539062 C 178.765625 180.15625 178.730469 181.253906 178.730469 181.253906 C 178.671875 183.007812 178.828125 183.625 178.34375 184.183594 C 177.597656 185.027344 175.863281 185.148438 175.039062 184.378906 Z M 175.039062 184.378906 " fill-opacity="1" fill-rule="nonzero"/><path fill="#212222" d="M 188.300781 180.0625 C 187.828125 180.050781 187.484375 179.652344 187.285156 179.414062 C 186.109375 178.007812 185.519531 177.304688 185.007812 176.144531 C 184.433594 174.828125 184.144531 174.167969 184.359375 173.363281 C 184.40625 173.191406 184.707031 172.0625 185.75 171.742188 C 186.5 171.511719 187.277344 171.8125 187.699219 172.230469 C 187.890625 172.421875 188.175781 172.804688 188.277344 173.300781 C 188.417969 173.707031 188.378906 173.988281 188.4375 173.996094 C 188.519531 174.007812 188.566406 173.136719 189.066406 172.34375 C 189.253906 172.042969 189.515625 171.617188 190.046875 171.402344 C 190.699219 171.132812 191.304688 171.363281 191.4375 171.414062 C 192.292969 171.761719 192.574219 172.625 192.625 172.800781 C 192.625 172.800781 192.636719 172.835938 192.648438 172.875 C 192.921875 173.902344 192.503906 174.757812 191.671875 176.472656 C 191.671875 176.472656 190.753906 178.359375 189.070312 179.742188 C 188.925781 179.859375 188.652344 180.070312 188.300781 180.0625 Z M 188.300781 180.0625 " fill-opacity="1" fill-rule="nonzero"/><g fill="#6b705c" fill-opacity="1"><g transform="translate(115.128131, 211.295612)"><g><path d="M 1.800781 1.941406 C 2.164062 1.941406 2.558594 1.800781 2.980469 1.546875 C 6.328125 -1.125 7.929688 -7.734375 8.632812 -11.953125 C 8.773438 -12.710938 8.914062 -13.46875 8.832031 -14.230469 C 8.746094 -14.679688 8.800781 -14.707031 9.222656 -14.792969 C 9.871094 -14.933594 10.546875 -15.046875 11.222656 -15.15625 C 11.867188 -15.269531 12.542969 -15.410156 13.1875 -15.550781 C 13.414062 -15.578125 13.640625 -15.636719 13.890625 -15.777344 C 14.03125 -15.804688 14.0625 -15.917969 14.03125 -16.085938 C 14.003906 -16.226562 13.921875 -16.28125 13.78125 -16.28125 C 13.640625 -16.253906 13.5 -16.253906 13.386719 -16.253906 C 13.246094 -16.226562 13.105469 -16.199219 12.964844 -16.171875 C 11.050781 -15.75 9.113281 -15.410156 7.171875 -15.101562 C 6.441406 -15.015625 5.707031 -14.90625 5.003906 -14.792969 C 4.273438 -14.652344 3.542969 -14.539062 2.8125 -14.425781 C 2.671875 -14.398438 2.558594 -14.371094 2.445312 -14.34375 C 2.335938 -14.3125 2.222656 -14.257812 2.109375 -14.230469 C 1.914062 -14.171875 1.855469 -14.0625 1.914062 -13.863281 C 1.941406 -13.78125 1.96875 -13.75 2.023438 -13.75 C 2.082031 -13.722656 2.136719 -13.722656 2.195312 -13.695312 C 2.335938 -13.695312 2.417969 -13.695312 2.476562 -13.722656 C 3.121094 -13.863281 3.796875 -14.003906 4.472656 -14.089844 C 5.117188 -14.171875 5.792969 -14.257812 6.46875 -14.371094 C 6.722656 -14.398438 6.945312 -14.453125 7.199219 -14.484375 C 7.425781 -14.511719 7.675781 -14.539062 7.929688 -14.566406 C 8.128906 -14.566406 8.210938 -14.484375 8.238281 -14.34375 C 8.269531 -14.257812 8.269531 -14.171875 8.269531 -14.089844 C 8.269531 -14.003906 8.269531 -13.921875 8.296875 -13.835938 L 8.210938 -13.132812 C 7.59375 -9.195312 5.960938 -2.25 3.039062 0.535156 C 2.726562 0.789062 2.476562 1.011719 2.136719 1.152344 C 2.023438 1.179688 1.941406 1.210938 1.828125 1.210938 C 1.40625 1.210938 1.011719 0.84375 0.816406 0.535156 C 0.703125 0.367188 0.703125 0.195312 0.789062 0.0273438 C 0.929688 -0.195312 1.070312 -0.394531 1.179688 -0.589844 C 1.265625 -0.703125 1.238281 -0.816406 1.125 -0.929688 C 1.011719 -1.011719 0.929688 -1.039062 0.871094 -1.039062 C 0.84375 -1.039062 0.816406 -1.039062 0.789062 -1.011719 C 0.113281 -0.703125 -0.195312 0.226562 0.140625 0.871094 C 0.5625 1.574219 1.152344 1.941406 1.800781 1.941406 Z M 1.800781 1.941406 "/></g></g></g><g fill="#6b705c" fill-opacity="1"><g transform="translate(124.942235, 211.295612)"><g><path d="M 5.960938 -2.164062 C 6.074219 -2.164062 6.160156 -2.164062 6.242188 -2.195312 C 7.707031 -2.417969 9.476562 -4.359375 10.433594 -5.484375 C 10.488281 -5.539062 10.546875 -5.652344 10.628906 -5.792969 C 10.714844 -5.933594 10.660156 -6.046875 10.519531 -6.1875 C 10.460938 -6.242188 10.40625 -6.269531 10.320312 -6.269531 C 10.265625 -6.269531 10.207031 -6.242188 10.179688 -6.214844 C 9.984375 -6.046875 9.816406 -5.878906 9.644531 -5.679688 C 8.972656 -4.949219 7.058594 -2.898438 6.074219 -2.898438 C 5.847656 -2.898438 5.707031 -3.066406 5.679688 -3.402344 C 5.652344 -3.683594 5.652344 -3.964844 5.679688 -4.246094 C 5.765625 -5.175781 5.960938 -6.019531 6.214844 -6.832031 C 6.242188 -6.972656 6.300781 -7.113281 6.328125 -7.253906 C 6.355469 -7.367188 6.382812 -7.507812 6.410156 -7.648438 C 6.441406 -7.816406 6.382812 -7.929688 6.214844 -8.015625 C 6.128906 -8.042969 6.074219 -8.070312 6.019531 -8.070312 C 5.933594 -8.070312 5.878906 -8.042969 5.792969 -7.957031 C 5.652344 -7.816406 5.511719 -7.707031 5.398438 -7.566406 C 5.257812 -7.425781 5.144531 -7.3125 5.003906 -7.171875 C 4.191406 -6.1875 3.347656 -5.285156 2.363281 -4.472656 C 2.222656 -4.359375 2.082031 -4.246094 1.941406 -4.160156 C 1.800781 -4.050781 1.632812 -3.9375 1.492188 -3.824219 C 1.378906 -3.742188 1.292969 -3.710938 1.265625 -3.710938 C 1.210938 -3.710938 1.179688 -3.710938 1.152344 -3.742188 C 1.070312 -3.769531 1.039062 -3.824219 1.039062 -3.882812 C 1.039062 -3.9375 1.039062 -3.992188 1.039062 -4.050781 C 1.179688 -4.949219 1.433594 -5.792969 1.855469 -6.582031 C 1.96875 -6.75 2.054688 -6.917969 2.136719 -7.058594 C 2.277344 -7.253906 2.25 -7.394531 2.082031 -7.535156 C 2.023438 -7.59375 1.941406 -7.621094 1.855469 -7.621094 C 1.773438 -7.621094 1.660156 -7.566406 1.546875 -7.453125 L 1.320312 -7.144531 C 0.757812 -6.160156 0.449219 -5.117188 0.308594 -4.019531 C 0.28125 -3.769531 0.28125 -3.542969 0.335938 -3.375 C 0.394531 -3.007812 0.589844 -2.8125 0.957031 -2.8125 C 1.039062 -2.8125 1.125 -2.839844 1.238281 -2.867188 C 2.222656 -3.289062 3.148438 -4.160156 3.910156 -4.921875 C 4.050781 -5.0625 4.191406 -5.175781 4.332031 -5.316406 C 4.441406 -5.457031 4.554688 -5.566406 4.695312 -5.707031 C 4.722656 -5.738281 4.78125 -5.792969 4.835938 -5.847656 C 4.863281 -5.90625 4.921875 -5.933594 5.003906 -5.933594 L 5.0625 -5.933594 C 5.144531 -5.90625 5.203125 -5.847656 5.175781 -5.765625 C 5.144531 -5.679688 5.117188 -5.625 5.117188 -5.539062 C 5.089844 -5.285156 5.0625 -5.003906 5.035156 -4.753906 C 5.003906 -4.5 4.949219 -4.273438 4.921875 -4.105469 C 4.921875 -3.234375 4.976562 -2.164062 5.960938 -2.164062 Z M 5.960938 -2.164062 "/></g></g></g><g fill="#6b705c" fill-opacity="1"><g transform="translate(134.193931, 211.295612)"><g><path d="M 0.929688 1.492188 C 1.492188 1.492188 2.390625 0.535156 2.699219 0.0546875 C 3.289062 -0.730469 3.910156 -1.546875 4.527344 -2.417969 C 5.117188 -3.261719 5.738281 -4.078125 6.328125 -4.835938 C 6.46875 -5.0625 6.636719 -5.316406 6.75 -5.539062 C 6.832031 -5.625 6.863281 -5.738281 6.863281 -5.878906 C 6.890625 -6.019531 6.863281 -6.128906 6.722656 -6.1875 C 6.636719 -6.214844 6.582031 -6.242188 6.523438 -6.242188 C 6.328125 -6.242188 6.074219 -5.792969 5.988281 -5.652344 C 4.753906 -3.9375 3.320312 -1.941406 1.996094 -0.253906 C 1.855469 -0.0546875 1.320312 0.617188 1.070312 0.617188 C 0.929688 0.617188 0.84375 0.535156 0.816406 0.394531 C 0.617188 -0.167969 0.675781 -0.757812 0.757812 -1.320312 C 0.898438 -3.066406 1.292969 -6.128906 2.277344 -7.621094 C 3.570312 -9.5625 5.988281 -13.609375 6.496094 -15.859375 C 6.523438 -16.085938 6.496094 -16.3125 6.242188 -16.421875 C 6.128906 -16.453125 6.074219 -16.480469 6.046875 -16.480469 C 5.933594 -16.480469 5.792969 -16.421875 5.652344 -16.3125 C 3.710938 -14.371094 2.136719 -10.125 1.292969 -7.566406 C 1.097656 -6.917969 0.929688 -6.355469 0.507812 -5.820312 C 0.394531 -5.707031 0.308594 -5.539062 0.421875 -5.398438 C 0.675781 -5.089844 0.5625 -4.753906 0.476562 -4.441406 C 0.226562 -3.234375 0.0273438 -2.054688 0 -0.617188 C 0 -0.535156 0 -0.394531 0 -0.226562 C 0 -0.0546875 0 0.113281 0.0273438 0.308594 C 0.113281 0.757812 0.394531 1.492188 0.929688 1.492188 Z M 3.207031 -10.097656 C 3.121094 -10.265625 3.148438 -10.460938 3.234375 -10.6875 C 3.769531 -12.0625 4.414062 -13.359375 5.175781 -14.625 C 5.285156 -14.765625 5.371094 -14.847656 5.457031 -14.847656 C 5.484375 -14.847656 5.539062 -14.820312 5.625 -14.792969 C 5.597656 -14.820312 5.597656 -14.847656 5.597656 -14.875 C 5.597656 -14.847656 5.597656 -14.847656 5.625 -14.820312 L 5.625 -14.792969 L 4.863281 -13.273438 C 4.300781 -12.203125 3.769531 -11.136719 3.234375 -10.097656 C 3.234375 -10.125 3.234375 -10.125 3.234375 -10.125 C 3.207031 -10.125 3.207031 -10.125 3.207031 -10.097656 Z M 3.207031 -10.097656 "/></g></g></g><g fill="#6b705c" fill-opacity="1"><g transform="translate(139.649337, 211.295612)"><g><path d="M 1.210938 -1.011719 C 1.96875 -1.011719 2.726562 -1.601562 3.261719 -2.082031 C 4.5 -3.121094 5.484375 -4.359375 6.46875 -5.625 C 6.550781 -5.707031 6.609375 -5.792969 6.636719 -5.933594 C 6.664062 -6.074219 6.636719 -6.1875 6.523438 -6.269531 C 6.46875 -6.328125 6.410156 -6.355469 6.328125 -6.355469 C 6.269531 -6.355469 6.214844 -6.328125 6.1875 -6.300781 C 6.046875 -6.1875 5.90625 -6.074219 5.792969 -5.933594 C 5.566406 -5.679688 5.34375 -5.398438 5.144531 -5.144531 C 4.949219 -4.894531 4.722656 -4.613281 4.5 -4.359375 C 3.851562 -3.601562 3.179688 -2.953125 2.417969 -2.304688 C 2.082031 -2.054688 1.773438 -1.855469 1.351562 -1.773438 C 1.039062 -1.773438 0.871094 -1.800781 0.789062 -2.109375 C 0.730469 -2.363281 0.703125 -2.617188 0.730469 -2.839844 C 0.898438 -4.160156 1.320312 -5.566406 1.800781 -6.804688 C 1.828125 -6.945312 1.800781 -7.058594 1.660156 -7.113281 C 1.574219 -7.144531 1.519531 -7.171875 1.460938 -7.171875 C 1.40625 -7.171875 1.320312 -7.144531 1.238281 -7.085938 C 0.507812 -6.355469 0.195312 -4.078125 0 -2.839844 C 0 -2.417969 0 -2.136719 0.113281 -1.828125 C 0.308594 -1.292969 0.675781 -1.011719 1.210938 -1.011719 Z M 1.941406 -8.183594 C 2.25 -8.183594 2.53125 -8.464844 2.53125 -8.773438 C 2.503906 -9.082031 2.304688 -9.222656 1.96875 -9.222656 C 1.632812 -9.222656 1.460938 -9.054688 1.460938 -8.71875 C 1.492188 -8.378906 1.6875 -8.15625 1.941406 -8.183594 Z M 1.941406 -8.183594 "/></g></g></g><g fill="#6b705c" fill-opacity="1"><g transform="translate(144.87978, 211.295612)"><g><path d="M 1.320312 -1.179688 C 3.261719 -1.179688 6.214844 -4.050781 7.566406 -5.484375 C 7.675781 -5.597656 7.761719 -5.679688 7.789062 -5.765625 C 7.875 -5.90625 7.847656 -6.046875 7.707031 -6.1875 C 7.648438 -6.242188 7.59375 -6.269531 7.507812 -6.269531 C 7.453125 -6.269531 7.367188 -6.242188 7.285156 -6.1875 C 7.199219 -6.101562 7.113281 -6.019531 7.03125 -5.933594 C 6.945312 -5.847656 6.832031 -5.765625 6.75 -5.679688 C 6.410156 -5.371094 6.074219 -5.0625 5.765625 -4.753906 C 5.425781 -4.441406 5.089844 -4.105469 4.753906 -3.796875 C 3.9375 -3.039062 2.644531 -2.136719 1.519531 -1.914062 C 0.984375 -1.914062 0.675781 -1.914062 0.5625 -2.558594 C 0.421875 -2.925781 0.394531 -3.234375 0.476562 -3.542969 C 0.507812 -3.683594 0.589844 -3.769531 0.703125 -3.796875 C 2.054688 -3.9375 3.824219 -5.597656 4.050781 -6.972656 C 4.132812 -7.621094 3.769531 -8.015625 3.207031 -8.015625 C 3.179688 -8.015625 3.121094 -8.015625 3.09375 -8.015625 C 3.066406 -7.988281 3.007812 -7.988281 2.980469 -7.988281 C 1.492188 -7.761719 0.394531 -5.792969 -0.0859375 -4.472656 C -0.195312 -4.050781 -0.308594 -3.65625 -0.28125 -3.179688 C -0.308594 -2.867188 -0.226562 -2.53125 -0.113281 -2.222656 C 0.0859375 -1.519531 0.5625 -1.179688 1.320312 -1.179688 Z M 1.070312 -4.640625 C 1.039062 -4.613281 0.984375 -4.640625 0.898438 -4.667969 C 0.871094 -4.667969 0.84375 -4.722656 0.84375 -4.808594 C 1.152344 -5.679688 2.109375 -7.085938 3.039062 -7.226562 C 3.179688 -7.253906 3.261719 -7.199219 3.289062 -7.003906 C 3.289062 -6.101562 1.800781 -5.035156 1.070312 -4.640625 Z M 1.070312 -4.640625 "/></g></g></g><g fill="#6b705c" fill-opacity="1"><g transform="translate(151.291287, 211.295612)"><g><path d="M -0.140625 -0.28125 C -0.0273438 -0.28125 0.0546875 -0.308594 0.140625 -0.367188 C 0.308594 -0.507812 0.449219 -0.648438 0.535156 -0.84375 C 0.617188 -1.011719 0.703125 -1.179688 0.789062 -1.351562 C 1.660156 -3.121094 2.726562 -4.808594 4.191406 -6.128906 C 4.246094 -6.1875 4.300781 -6.214844 4.386719 -6.214844 C 4.472656 -6.214844 4.554688 -6.128906 4.582031 -5.988281 C 4.613281 -5.707031 4.667969 -5.425781 4.695312 -5.175781 C 4.722656 -4.894531 4.753906 -4.613281 4.78125 -4.332031 C 4.808594 -3.992188 4.894531 -3.65625 5.089844 -3.289062 C 5.316406 -2.898438 5.625 -2.699219 5.988281 -2.699219 C 6.019531 -2.699219 6.074219 -2.699219 6.128906 -2.726562 C 6.160156 -2.726562 6.214844 -2.726562 6.242188 -2.726562 C 6.664062 -2.8125 7.03125 -3.007812 7.367188 -3.320312 C 7.675781 -3.601562 9.335938 -5.089844 9.644531 -5.398438 C 9.757812 -5.511719 9.84375 -5.652344 9.898438 -5.792969 C 9.957031 -5.933594 9.925781 -6.074219 9.785156 -6.1875 C 9.730469 -6.242188 9.675781 -6.269531 9.589844 -6.269531 C 9.503906 -6.269531 9.449219 -6.242188 9.394531 -6.1875 C 9.335938 -6.160156 9.28125 -6.074219 9.195312 -5.988281 C 9.113281 -5.90625 8.914062 -5.707031 8.605469 -5.457031 C 8.351562 -5.230469 8.097656 -5.003906 7.875 -4.78125 C 7.621094 -4.527344 7.394531 -4.300781 7.144531 -4.078125 C 6.832031 -3.824219 6.550781 -3.601562 6.214844 -3.488281 C 6.1875 -3.488281 6.160156 -3.488281 6.160156 -3.488281 C 6.128906 -3.460938 6.101562 -3.460938 6.074219 -3.460938 C 5.90625 -3.460938 5.792969 -3.542969 5.738281 -3.683594 C 5.597656 -3.9375 5.511719 -4.21875 5.484375 -4.554688 C 5.457031 -4.78125 5.425781 -5.003906 5.425781 -5.230469 C 5.398438 -5.457031 5.371094 -5.679688 5.34375 -5.933594 C 5.257812 -6.410156 5.175781 -7.085938 4.527344 -7.085938 C 3.429688 -7.085938 1.265625 -3.851562 0.789062 -2.898438 C 0.703125 -3.09375 0.675781 -3.261719 0.757812 -3.429688 C 0.816406 -3.601562 0.871094 -3.769531 0.929688 -3.9375 C 1.210938 -4.640625 1.492188 -5.371094 1.773438 -6.101562 C 2.023438 -6.804688 2.304688 -7.535156 2.585938 -8.238281 L 2.757812 -8.578125 C 2.839844 -8.773438 2.8125 -8.941406 2.617188 -9.054688 C 2.53125 -9.082031 2.476562 -9.113281 2.445312 -9.113281 C 2.136719 -9.113281 1.882812 -8.351562 1.714844 -8.097656 C 1.460938 -7.394531 1.179688 -6.691406 0.929688 -5.988281 C 0.675781 -5.285156 0.394531 -4.582031 0.140625 -3.882812 C -0.167969 -2.953125 -0.449219 -2.023438 -0.5625 -1.039062 C -0.5625 -0.871094 -0.5625 -0.757812 -0.535156 -0.675781 C -0.507812 -0.421875 -0.367188 -0.28125 -0.140625 -0.28125 Z M -0.140625 -0.28125 "/></g></g></g><g fill="#6b705c" fill-opacity="1"><g transform="translate(159.81184, 211.295612)"><g/></g></g><g fill="#6b705c" fill-opacity="1"><g transform="translate(170.497683, 211.295612)"><g><path d="M 0.140625 -2.417969 C 0.507812 -2.417969 0.984375 -2.8125 1.238281 -3.039062 C 1.941406 -3.683594 2.558594 -4.359375 3.207031 -5.117188 C 3.289062 -5.203125 3.402344 -5.316406 3.488281 -5.425781 C 3.570312 -5.539062 3.710938 -5.625 3.910156 -5.707031 C 3.710938 -4.949219 3.542969 -4.21875 3.542969 -3.460938 C 3.542969 -2.925781 3.769531 -2.644531 4.246094 -2.644531 C 4.359375 -2.644531 4.441406 -2.644531 4.5 -2.671875 C 5.679688 -2.867188 7.675781 -4.753906 8.492188 -5.566406 C 8.519531 -5.597656 8.578125 -5.652344 8.605469 -5.679688 C 8.632812 -5.707031 8.632812 -5.738281 8.660156 -5.765625 C 8.71875 -5.960938 8.691406 -6.101562 8.550781 -6.1875 C 8.492188 -6.242188 8.4375 -6.269531 8.351562 -6.269531 C 8.324219 -6.269531 8.296875 -6.242188 8.210938 -6.214844 C 8.128906 -6.160156 8.042969 -6.101562 7.988281 -6.046875 C 7.902344 -5.960938 7.816406 -5.90625 7.734375 -5.820312 C 7.480469 -5.625 7.253906 -5.425781 7.058594 -5.230469 C 6.832031 -5.035156 6.609375 -4.808594 6.355469 -4.613281 C 6.019531 -4.300781 5.652344 -4.078125 5.316406 -3.851562 C 5.0625 -3.710938 4.808594 -3.601562 4.554688 -3.488281 C 4.527344 -3.460938 4.5 -3.460938 4.441406 -3.460938 C 4.332031 -3.460938 4.273438 -3.542969 4.273438 -3.710938 C 4.273438 -4.921875 5.144531 -6.972656 5.679688 -8.042969 C 5.738281 -8.183594 5.792969 -8.296875 5.878906 -8.4375 C 5.933594 -8.550781 5.988281 -8.660156 6.046875 -8.800781 C 6.128906 -9.054688 6.101562 -9.253906 5.90625 -9.363281 C 5.820312 -9.394531 5.765625 -9.421875 5.738281 -9.421875 C 5.652344 -9.421875 5.539062 -9.363281 5.398438 -9.222656 C 5.316406 -9.140625 5.257812 -9.027344 5.203125 -8.941406 C 5.117188 -8.832031 5.0625 -8.71875 4.976562 -8.632812 C 4.808594 -8.410156 4.640625 -8.183594 4.5 -7.957031 C 4.332031 -7.734375 4.160156 -7.507812 3.992188 -7.3125 C 3.882812 -7.171875 3.796875 -7.085938 3.742188 -7.085938 C 3.710938 -7.085938 3.628906 -7.144531 3.488281 -7.226562 C 3.207031 -7.453125 2.925781 -7.566406 2.644531 -7.566406 C 2.335938 -7.566406 2.023438 -7.453125 1.714844 -7.199219 C 1.519531 -7.058594 1.378906 -6.945312 1.292969 -6.832031 C 0.449219 -5.988281 -0.476562 -4.332031 -0.476562 -3.09375 C -0.449219 -2.644531 -0.226562 -2.417969 0.140625 -2.417969 Z M 0.394531 -3.429688 C 0.394531 -3.460938 0.394531 -3.460938 0.367188 -3.460938 L 0.335938 -3.488281 C 0.5625 -4.695312 1.125 -5.707031 1.996094 -6.46875 C 2.136719 -6.609375 2.476562 -6.804688 2.671875 -6.804688 C 2.8125 -6.804688 2.925781 -6.75 3.066406 -6.664062 C 3.207031 -6.582031 3.234375 -6.441406 3.179688 -6.269531 C 3.148438 -6.1875 3.09375 -6.160156 3.066406 -6.128906 C 2.304688 -5.203125 1.546875 -4.273438 0.648438 -3.515625 C 0.589844 -3.460938 0.507812 -3.429688 0.394531 -3.429688 Z M 0.394531 -3.429688 "/></g></g></g><g fill="#6b705c" fill-opacity="1"><g transform="translate(177.780929, 211.295612)"><g><path d="M -0.140625 -0.28125 C -0.0273438 -0.28125 0.0546875 -0.308594 0.140625 -0.367188 C 0.308594 -0.507812 0.449219 -0.648438 0.535156 -0.84375 C 0.617188 -1.011719 0.703125 -1.179688 0.789062 -1.351562 C 1.660156 -3.121094 2.726562 -4.808594 4.191406 -6.128906 C 4.246094 -6.1875 4.300781 -6.214844 4.386719 -6.214844 C 4.472656 -6.214844 4.554688 -6.128906 4.582031 -5.988281 C 4.613281 -5.707031 4.667969 -5.425781 4.695312 -5.175781 C 4.722656 -4.894531 4.753906 -4.613281 4.78125 -4.332031 C 4.808594 -3.992188 4.894531 -3.65625 5.089844 -3.289062 C 5.316406 -2.898438 5.625 -2.699219 5.988281 -2.699219 C 6.019531 -2.699219 6.074219 -2.699219 6.128906 -2.726562 C 6.160156 -2.726562 6.214844 -2.726562 6.242188 -2.726562 C 6.664062 -2.8125 7.03125 -3.007812 7.367188 -3.320312 C 7.675781 -3.601562 9.335938 -5.089844 9.644531 -5.398438 C 9.757812 -5.511719 9.84375 -5.652344 9.898438 -5.792969 C 9.957031 -5.933594 9.925781 -6.074219 9.785156 -6.1875 C 9.730469 -6.242188 9.675781 -6.269531 9.589844 -6.269531 C 9.503906 -6.269531 9.449219 -6.242188 9.394531 -6.1875 C 9.335938 -6.160156 9.28125 -6.074219 9.195312 -5.988281 C 9.113281 -5.90625 8.914062 -5.707031 8.605469 -5.457031 C 8.351562 -5.230469 8.097656 -5.003906 7.875 -4.78125 C 7.621094 -4.527344 7.394531 -4.300781 7.144531 -4.078125 C 6.832031 -3.824219 6.550781 -3.601562 6.214844 -3.488281 C 6.1875 -3.488281 6.160156 -3.488281 6.160156 -3.488281 C 6.128906 -3.460938 6.101562 -3.460938 6.074219 -3.460938 C 5.90625 -3.460938 5.792969 -3.542969 5.738281 -3.683594 C 5.597656 -3.9375 5.511719 -4.21875 5.484375 -4.554688 C 5.457031 -4.78125 5.425781 -5.003906 5.425781 -5.230469 C 5.398438 -5.457031 5.371094 -5.679688 5.34375 -5.933594 C 5.257812 -6.410156 5.175781 -7.085938 4.527344 -7.085938 C 3.429688 -7.085938 1.265625 -3.851562 0.789062 -2.898438 C 0.703125 -3.09375 0.675781 -3.261719 0.757812 -3.429688 C 0.816406 -3.601562 0.871094 -3.769531 0.929688 -3.9375 C 1.210938 -4.640625 1.492188 -5.371094 1.773438 -6.101562 C 2.023438 -6.804688 2.304688 -7.535156 2.585938 -8.238281 L 2.757812 -8.578125 C 2.839844 -8.773438 2.8125 -8.941406 2.617188 -9.054688 C 2.53125 -9.082031 2.476562 -9.113281 2.445312 -9.113281 C 2.136719 -9.113281 1.882812 -8.351562 1.714844 -8.097656 C 1.460938 -7.394531 1.179688 -6.691406 0.929688 -5.988281 C 0.675781 -5.285156 0.394531 -4.582031 0.140625 -3.882812 C -0.167969 -2.953125 -0.449219 -2.023438 -0.5625 -1.039062 C -0.5625 -0.871094 -0.5625 -0.757812 -0.535156 -0.675781 C -0.507812 -0.421875 -0.367188 -0.28125 -0.140625 -0.28125 Z M -0.140625 -0.28125 "/></g></g></g><g fill="#6b705c" fill-opacity="1"><g transform="translate(186.301483, 211.295612)"><g><path d="M 4.613281 4.132812 C 4.667969 4.132812 4.722656 4.132812 4.753906 4.105469 C 4.949219 4.050781 5.035156 3.882812 4.976562 3.570312 C 4.976562 3.542969 4.949219 3.488281 4.921875 3.402344 C 4.722656 2.644531 4.640625 1.941406 4.613281 1.238281 C 4.527344 -0.308594 4.667969 -1.773438 4.894531 -3.261719 C 5.257812 -5.792969 6.496094 -10.769531 7.902344 -12.964844 C 8.4375 -13.78125 8.859375 -14.679688 9.195312 -15.609375 C 9.308594 -15.859375 9.421875 -16.085938 9.421875 -16.394531 C 9.335938 -16.703125 9.308594 -16.84375 9 -16.84375 C 8.886719 -16.84375 8.800781 -16.816406 8.71875 -16.734375 C 8.410156 -16.535156 8.269531 -16.226562 8.128906 -15.917969 C 7.59375 -15.046875 7.171875 -14.089844 6.863281 -13.078125 C 6.441406 -11.867188 5.847656 -10.828125 5.175781 -9.816406 L 4.078125 -8.210938 C 3.992188 -8.070312 3.910156 -7.902344 3.710938 -7.816406 C 3.515625 -8.238281 3.261719 -8.464844 3.007812 -8.464844 C 2.503906 -8.464844 1.773438 -7.707031 1.460938 -7.3125 C 0.929688 -6.46875 -0.28125 -4.300781 -0.28125 -3.289062 C -0.253906 -2.925781 0.0273438 -2.8125 0.367188 -2.8125 C 0.589844 -2.898438 0.730469 -3.007812 0.929688 -3.148438 C 2.277344 -4.5 3.429688 -5.988281 4.527344 -7.566406 C 4.613281 -7.707031 4.722656 -7.847656 4.808594 -7.988281 C 4.894531 -8.128906 5.003906 -8.210938 5.175781 -8.296875 L 5.175781 -8.324219 C 5.257812 -8.097656 5.203125 -7.902344 5.117188 -7.707031 C 4.921875 -6.945312 4.753906 -6.214844 4.554688 -5.457031 C 4.078125 -3.234375 3.796875 -1.039062 3.882812 1.210938 C 3.882812 1.742188 4.050781 4.132812 4.613281 4.132812 Z M 0.84375 -4.019531 C 0.757812 -4.21875 0.730469 -4.386719 0.816406 -4.554688 C 1.125 -5.34375 1.460938 -6.074219 1.941406 -6.832031 C 1.96875 -6.917969 2.023438 -6.945312 2.054688 -6.972656 C 2.417969 -7.453125 2.8125 -7.816406 3.375 -7.816406 C 3.515625 -7.816406 3.628906 -7.816406 3.710938 -7.789062 C 3.683594 -7.648438 3.628906 -7.507812 3.542969 -7.394531 C 3.460938 -7.285156 3.347656 -7.171875 3.261719 -7.03125 C 2.503906 -5.988281 1.714844 -5.035156 0.84375 -4.019531 Z M 0.84375 -4.019531 "/></g></g></g><g fill="#6b705c" fill-opacity="1"><g transform="translate(194.315865, 211.295612)"><g/></g></g><g fill="#6b705c" fill-opacity="1"><g transform="translate(205.001708, 211.295612)"><g><path d="M 0.476562 3.121094 C 0.617188 3.121094 0.730469 3.066406 0.84375 2.953125 C 1.039062 2.726562 1.210938 2.476562 1.351562 2.195312 C 1.546875 1.828125 1.714844 1.492188 1.882812 1.125 C 2.023438 0.757812 2.195312 0.421875 2.363281 0.0546875 C 2.726562 -0.757812 3.121094 -1.546875 3.488281 -2.363281 C 3.851562 -3.148438 4.21875 -3.9375 4.582031 -4.722656 C 5.878906 -7.394531 7.988281 -10.910156 10.378906 -12.710938 C 10.460938 -12.738281 10.519531 -12.796875 10.601562 -12.851562 C 10.6875 -12.878906 10.769531 -12.9375 10.855469 -12.964844 L 10.910156 -12.964844 C 10.996094 -12.964844 11.050781 -12.9375 11.050781 -12.851562 C 11.050781 -12.738281 11.050781 -12.625 11.050781 -12.515625 C 11.050781 -12.402344 11.023438 -12.289062 10.996094 -12.203125 C 10.882812 -11.417969 10.660156 -10.660156 10.433594 -9.898438 C 10.066406 -8.691406 9.675781 -7.480469 9.335938 -6.269531 C 9.113281 -5.398438 8.941406 -4.554688 8.859375 -3.570312 C 8.886719 -3.488281 8.886719 -3.375 8.886719 -3.261719 C 8.859375 -3.148438 8.886719 -3.039062 8.914062 -2.925781 C 9 -2.445312 9.222656 -2.222656 9.5625 -2.222656 C 9.730469 -2.222656 9.898438 -2.277344 10.066406 -2.390625 C 10.320312 -2.53125 10.574219 -2.757812 10.828125 -3.066406 C 11.136719 -3.460938 11.445312 -3.851562 11.726562 -4.21875 C 12.429688 -5.203125 13.132812 -6.074219 13.921875 -6.945312 C 14.0625 -7.058594 14.171875 -7.171875 14.285156 -7.3125 C 14.398438 -7.425781 14.539062 -7.535156 14.679688 -7.621094 C 14.820312 -7.707031 14.933594 -7.761719 15.015625 -7.761719 C 15.355469 -7.761719 15.410156 -7.226562 15.496094 -6.972656 C 15.523438 -6.722656 15.578125 -6.496094 15.609375 -6.269531 C 15.636719 -6.019531 15.691406 -5.765625 15.71875 -5.511719 C 15.777344 -5.175781 15.832031 -4.835938 15.890625 -4.5 C 15.945312 -4.132812 16 -3.796875 16.085938 -3.429688 C 16.253906 -2.644531 16.984375 -1.574219 17.800781 -1.574219 C 18.027344 -1.574219 18.308594 -1.660156 18.644531 -1.800781 C 19.265625 -2.136719 21.738281 -5.203125 21.964844 -5.90625 C 21.992188 -6.046875 21.964844 -6.128906 21.824219 -6.1875 C 21.792969 -6.214844 21.710938 -6.242188 21.625 -6.242188 C 21.542969 -6.242188 21.511719 -6.242188 21.484375 -6.214844 C 21.402344 -6.1875 21.34375 -6.128906 21.261719 -6.046875 C 20.558594 -5.089844 19.996094 -4.332031 19.574219 -3.742188 C 19.152344 -3.148438 18.84375 -2.8125 18.703125 -2.699219 C 18.390625 -2.445312 18.109375 -2.335938 17.859375 -2.335938 C 16.957031 -2.335938 16.734375 -3.824219 16.5625 -4.640625 L 16.226562 -7.113281 C 16.085938 -7.875 15.859375 -8.519531 14.960938 -8.519531 C 14.652344 -8.492188 14.398438 -8.378906 14.144531 -8.15625 C 13.722656 -7.789062 13.386719 -7.453125 13.046875 -7.03125 C 12.261719 -6.160156 11.613281 -5.285156 10.910156 -4.359375 C 10.660156 -3.992188 10.347656 -3.65625 10.039062 -3.320312 C 9.984375 -3.234375 9.898438 -3.179688 9.816406 -3.179688 C 9.757812 -3.179688 9.730469 -3.179688 9.703125 -3.207031 C 9.617188 -3.261719 9.589844 -3.375 9.589844 -3.515625 C 9.589844 -4.160156 9.730469 -4.753906 9.871094 -5.34375 C 10.179688 -6.609375 10.519531 -7.816406 10.941406 -9.054688 C 11.25 -10.039062 11.53125 -10.996094 11.726562 -11.980469 C 11.8125 -12.402344 11.839844 -12.851562 11.753906 -13.273438 C 11.644531 -13.722656 11.363281 -13.835938 10.941406 -13.835938 C 10.855469 -13.808594 10.769531 -13.78125 10.6875 -13.75 C 10.601562 -13.722656 10.519531 -13.667969 10.433594 -13.640625 C 7.367188 -11.585938 4.949219 -7.3125 3.402344 -3.992188 C 3.09375 -3.289062 2.757812 -2.617188 2.445312 -1.914062 C 2.136719 -1.210938 1.800781 -0.507812 1.492188 0.195312 C 1.433594 0.335938 1.378906 0.476562 1.320312 0.617188 C 1.238281 0.757812 1.179688 0.898438 1.125 1.039062 C 1.097656 1.070312 1.070312 1.125 1.039062 1.179688 C 1.011719 1.238281 0.957031 1.265625 0.871094 1.265625 C 0.789062 1.265625 0.730469 1.238281 0.757812 1.179688 C 0.757812 1.097656 0.757812 1.039062 0.757812 0.984375 C 0.757812 0.871094 0.789062 0.730469 0.816406 0.535156 C 1.039062 -1.265625 1.40625 -2.980469 1.941406 -4.667969 C 2.304688 -5.90625 2.699219 -7.144531 3.121094 -8.351562 C 3.515625 -9.5625 3.910156 -10.800781 4.300781 -12.035156 C 4.5 -12.625 4.667969 -13.1875 4.835938 -13.78125 C 4.976562 -14.34375 5.175781 -14.90625 5.398438 -15.46875 C 5.484375 -15.664062 5.457031 -15.832031 5.257812 -15.945312 C 5.230469 -15.972656 5.203125 -15.972656 5.117188 -15.972656 C 5.003906 -15.972656 4.894531 -15.917969 4.78125 -15.777344 C 4.695312 -15.636719 4.613281 -15.46875 4.554688 -15.328125 C 4.5 -15.15625 4.441406 -14.988281 4.386719 -14.847656 L 2.617188 -9.222656 C 1.828125 -6.75 1.011719 -4.359375 0.476562 -1.800781 C 0.226562 -0.5625 -0.0273438 0.617188 0 1.941406 C 0 2.082031 0 2.195312 0 2.335938 C 0 2.476562 0.0273438 2.617188 0.0546875 2.757812 C 0.113281 3.007812 0.253906 3.121094 0.476562 3.121094 Z M 0.476562 3.121094 "/></g></g></g><g fill="#6b705c" fill-opacity="1"><g transform="translate(225.557897, 211.295612)"><g><path d="M 0.140625 -2.417969 C 0.507812 -2.417969 0.984375 -2.8125 1.238281 -3.039062 C 1.941406 -3.683594 2.558594 -4.359375 3.207031 -5.117188 C 3.289062 -5.203125 3.402344 -5.316406 3.488281 -5.425781 C 3.570312 -5.539062 3.710938 -5.625 3.910156 -5.707031 C 3.710938 -4.949219 3.542969 -4.21875 3.542969 -3.460938 C 3.542969 -2.925781 3.769531 -2.644531 4.246094 -2.644531 C 4.359375 -2.644531 4.441406 -2.644531 4.5 -2.671875 C 5.679688 -2.867188 7.675781 -4.753906 8.492188 -5.566406 C 8.519531 -5.597656 8.578125 -5.652344 8.605469 -5.679688 C 8.632812 -5.707031 8.632812 -5.738281 8.660156 -5.765625 C 8.71875 -5.960938 8.691406 -6.101562 8.550781 -6.1875 C 8.492188 -6.242188 8.4375 -6.269531 8.351562 -6.269531 C 8.324219 -6.269531 8.296875 -6.242188 8.210938 -6.214844 C 8.128906 -6.160156 8.042969 -6.101562 7.988281 -6.046875 C 7.902344 -5.960938 7.816406 -5.90625 7.734375 -5.820312 C 7.480469 -5.625 7.253906 -5.425781 7.058594 -5.230469 C 6.832031 -5.035156 6.609375 -4.808594 6.355469 -4.613281 C 6.019531 -4.300781 5.652344 -4.078125 5.316406 -3.851562 C 5.0625 -3.710938 4.808594 -3.601562 4.554688 -3.488281 C 4.527344 -3.460938 4.5 -3.460938 4.441406 -3.460938 C 4.332031 -3.460938 4.273438 -3.542969 4.273438 -3.710938 C 4.273438 -4.921875 5.144531 -6.972656 5.679688 -8.042969 C 5.738281 -8.183594 5.792969 -8.296875 5.878906 -8.4375 C 5.933594 -8.550781 5.988281 -8.660156 6.046875 -8.800781 C 6.128906 -9.054688 6.101562 -9.253906 5.90625 -9.363281 C 5.820312 -9.394531 5.765625 -9.421875 5.738281 -9.421875 C 5.652344 -9.421875 5.539062 -9.363281 5.398438 -9.222656 C 5.316406 -9.140625 5.257812 -9.027344 5.203125 -8.941406 C 5.117188 -8.832031 5.0625 -8.71875 4.976562 -8.632812 C 4.808594 -8.410156 4.640625 -8.183594 4.5 -7.957031 C 4.332031 -7.734375 4.160156 -7.507812 3.992188 -7.3125 C 3.882812 -7.171875 3.796875 -7.085938 3.742188 -7.085938 C 3.710938 -7.085938 3.628906 -7.144531 3.488281 -7.226562 C 3.207031 -7.453125 2.925781 -7.566406 2.644531 -7.566406 C 2.335938 -7.566406 2.023438 -7.453125 1.714844 -7.199219 C 1.519531 -7.058594 1.378906 -6.945312 1.292969 -6.832031 C 0.449219 -5.988281 -0.476562 -4.332031 -0.476562 -3.09375 C -0.449219 -2.644531 -0.226562 -2.417969 0.140625 -2.417969 Z M 0.394531 -3.429688 C 0.394531 -3.460938 0.394531 -3.460938 0.367188 -3.460938 L 0.335938 -3.488281 C 0.5625 -4.695312 1.125 -5.707031 1.996094 -6.46875 C 2.136719 -6.609375 2.476562 -6.804688 2.671875 -6.804688 C 2.8125 -6.804688 2.925781 -6.75 3.066406 -6.664062 C 3.207031 -6.582031 3.234375 -6.441406 3.179688 -6.269531 C 3.148438 -6.1875 3.09375 -6.160156 3.066406 -6.128906 C 2.304688 -5.203125 1.546875 -4.273438 0.648438 -3.515625 C 0.589844 -3.460938 0.507812 -3.429688 0.394531 -3.429688 Z M 0.394531 -3.429688 "/></g></g></g><g fill="#6b705c" fill-opacity="1"><g transform="translate(232.841136, 211.295612)"><g><path d="M -0.0859375 0.476562 C 0.0859375 0.476562 0.226562 0.394531 0.308594 0.253906 C 0.507812 -0.0546875 0.675781 -0.308594 0.816406 -0.617188 C 1.070312 -1.097656 1.292969 -1.546875 1.519531 -1.996094 C 1.714844 -2.445312 1.941406 -2.898438 2.164062 -3.347656 C 2.503906 -3.992188 2.898438 -4.613281 3.429688 -5.144531 C 3.542969 -5.285156 3.65625 -5.425781 3.910156 -5.425781 C 3.992188 -5.316406 4.050781 -5.203125 4.105469 -5.089844 C 4.160156 -4.976562 4.246094 -4.863281 4.332031 -4.753906 C 4.640625 -4.332031 5.003906 -4.132812 5.484375 -4.132812 C 6.269531 -4.132812 7.453125 -5.0625 7.988281 -5.597656 C 8.070312 -5.679688 8.15625 -5.792969 8.238281 -5.960938 C 8.296875 -6.074219 8.269531 -6.1875 8.15625 -6.300781 C 8.070312 -6.355469 8.015625 -6.382812 7.929688 -6.382812 C 7.875 -6.382812 7.847656 -6.382812 7.816406 -6.355469 C 7.675781 -6.269531 7.566406 -6.1875 7.453125 -6.074219 C 6.972656 -5.679688 5.988281 -4.863281 5.484375 -4.863281 C 5.230469 -4.863281 5.003906 -5.035156 4.808594 -5.371094 C 4.753906 -5.457031 4.695312 -5.566406 4.667969 -5.707031 C 4.613281 -5.820312 4.554688 -5.933594 4.5 -6.019531 C 4.359375 -6.242188 4.191406 -6.355469 3.964844 -6.355469 C 3.851562 -6.355469 3.742188 -6.328125 3.628906 -6.269531 C 2.757812 -5.738281 2.082031 -4.78125 1.632812 -3.910156 L 0.535156 -1.6875 L 0.507812 -1.714844 L 0.535156 -1.714844 C 0.394531 -2.023438 0.476562 -2.304688 0.5625 -2.617188 C 0.789062 -3.460938 1.097656 -4.332031 1.460938 -5.203125 C 1.714844 -5.765625 1.96875 -6.328125 2.195312 -6.890625 C 2.277344 -7.113281 2.335938 -7.3125 2.335938 -7.507812 C 2.363281 -7.648438 2.304688 -7.734375 2.136719 -7.789062 L 2.054688 -7.789062 C 1.941406 -7.789062 1.855469 -7.761719 1.800781 -7.707031 C 1.714844 -7.59375 1.660156 -7.453125 1.574219 -7.3125 C 0.589844 -5.0625 -0.195312 -3.207031 -0.5625 -0.703125 C -0.589844 -0.5625 -0.589844 -0.449219 -0.589844 -0.335938 C -0.5625 -0.195312 -0.5625 -0.0859375 -0.5625 0.0273438 C -0.535156 0.253906 -0.421875 0.394531 -0.226562 0.449219 C -0.195312 0.449219 -0.167969 0.449219 -0.167969 0.476562 C -0.140625 0.476562 -0.113281 0.476562 -0.0859375 0.476562 Z M -0.0859375 0.476562 "/></g></g></g><g fill="#6b705c" fill-opacity="1"><g transform="translate(239.702579, 211.295612)"><g><path d="M 1.210938 -1.011719 C 1.96875 -1.011719 2.726562 -1.601562 3.261719 -2.082031 C 4.5 -3.121094 5.484375 -4.359375 6.46875 -5.625 C 6.550781 -5.707031 6.609375 -5.792969 6.636719 -5.933594 C 6.664062 -6.074219 6.636719 -6.1875 6.523438 -6.269531 C 6.46875 -6.328125 6.410156 -6.355469 6.328125 -6.355469 C 6.269531 -6.355469 6.214844 -6.328125 6.1875 -6.300781 C 6.046875 -6.1875 5.90625 -6.074219 5.792969 -5.933594 C 5.566406 -5.679688 5.34375 -5.398438 5.144531 -5.144531 C 4.949219 -4.894531 4.722656 -4.613281 4.5 -4.359375 C 3.851562 -3.601562 3.179688 -2.953125 2.417969 -2.304688 C 2.082031 -2.054688 1.773438 -1.855469 1.351562 -1.773438 C 1.039062 -1.773438 0.871094 -1.800781 0.789062 -2.109375 C 0.730469 -2.363281 0.703125 -2.617188 0.730469 -2.839844 C 0.898438 -4.160156 1.320312 -5.566406 1.800781 -6.804688 C 1.828125 -6.945312 1.800781 -7.058594 1.660156 -7.113281 C 1.574219 -7.144531 1.519531 -7.171875 1.460938 -7.171875 C 1.40625 -7.171875 1.320312 -7.144531 1.238281 -7.085938 C 0.507812 -6.355469 0.195312 -4.078125 0 -2.839844 C 0 -2.417969 0 -2.136719 0.113281 -1.828125 C 0.308594 -1.292969 0.675781 -1.011719 1.210938 -1.011719 Z M 1.941406 -8.183594 C 2.25 -8.183594 2.53125 -8.464844 2.53125 -8.773438 C 2.503906 -9.082031 2.304688 -9.222656 1.96875 -9.222656 C 1.632812 -9.222656 1.460938 -9.054688 1.460938 -8.71875 C 1.492188 -8.378906 1.6875 -8.15625 1.941406 -8.183594 Z M 1.941406 -8.183594 "/></g></g></g><g fill="#6b705c" fill-opacity="1"><g transform="translate(244.933015, 211.295612)"><g><path d="M -0.140625 -0.28125 C -0.0273438 -0.28125 0.0546875 -0.308594 0.140625 -0.367188 C 0.308594 -0.507812 0.449219 -0.648438 0.535156 -0.84375 C 0.617188 -1.011719 0.703125 -1.179688 0.789062 -1.351562 C 1.660156 -3.121094 2.726562 -4.808594 4.191406 -6.128906 C 4.246094 -6.1875 4.300781 -6.214844 4.386719 -6.214844 C 4.472656 -6.214844 4.554688 -6.128906 4.582031 -5.988281 C 4.613281 -5.707031 4.667969 -5.425781 4.695312 -5.175781 C 4.722656 -4.894531 4.753906 -4.613281 4.78125 -4.332031 C 4.808594 -3.992188 4.894531 -3.65625 5.089844 -3.289062 C 5.316406 -2.898438 5.625 -2.699219 5.988281 -2.699219 C 6.019531 -2.699219 6.074219 -2.699219 6.128906 -2.726562 C 6.160156 -2.726562 6.214844 -2.726562 6.242188 -2.726562 C 6.664062 -2.8125 7.03125 -3.007812 7.367188 -3.320312 C 7.675781 -3.601562 9.335938 -5.089844 9.644531 -5.398438 C 9.757812 -5.511719 9.84375 -5.652344 9.898438 -5.792969 C 9.957031 -5.933594 9.925781 -6.074219 9.785156 -6.1875 C 9.730469 -6.242188 9.675781 -6.269531 9.589844 -6.269531 C 9.503906 -6.269531 9.449219 -6.242188 9.394531 -6.1875 C 9.335938 -6.160156 9.28125 -6.074219 9.195312 -5.988281 C 9.113281 -5.90625 8.914062 -5.707031 8.605469 -5.457031 C 8.351562 -5.230469 8.097656 -5.003906 7.875 -4.78125 C 7.621094 -4.527344 7.394531 -4.300781 7.144531 -4.078125 C 6.832031 -3.824219 6.550781 -3.601562 6.214844 -3.488281 C 6.1875 -3.488281 6.160156 -3.488281 6.160156 -3.488281 C 6.128906 -3.460938 6.101562 -3.460938 6.074219 -3.460938 C 5.90625 -3.460938 5.792969 -3.542969 5.738281 -3.683594 C 5.597656 -3.9375 5.511719 -4.21875 5.484375 -4.554688 C 5.457031 -4.78125 5.425781 -5.003906 5.425781 -5.230469 C 5.398438 -5.457031 5.371094 -5.679688 5.34375 -5.933594 C 5.257812 -6.410156 5.175781 -7.085938 4.527344 -7.085938 C 3.429688 -7.085938 1.265625 -3.851562 0.789062 -2.898438 C 0.703125 -3.09375 0.675781 -3.261719 0.757812 -3.429688 C 0.816406 -3.601562 0.871094 -3.769531 0.929688 -3.9375 C 1.210938 -4.640625 1.492188 -5.371094 1.773438 -6.101562 C 2.023438 -6.804688 2.304688 -7.535156 2.585938 -8.238281 L 2.757812 -8.578125 C 2.839844 -8.773438 2.8125 -8.941406 2.617188 -9.054688 C 2.53125 -9.082031 2.476562 -9.113281 2.445312 -9.113281 C 2.136719 -9.113281 1.882812 -8.351562 1.714844 -8.097656 C 1.460938 -7.394531 1.179688 -6.691406 0.929688 -5.988281 C 0.675781 -5.285156 0.394531 -4.582031 0.140625 -3.882812 C -0.167969 -2.953125 -0.449219 -2.023438 -0.5625 -1.039062 C -0.5625 -0.871094 -0.5625 -0.757812 -0.535156 -0.675781 C -0.507812 -0.421875 -0.367188 -0.28125 -0.140625 -0.28125 Z M -0.140625 -0.28125 "/></g></g></g><g fill="#6b705c" fill-opacity="1"><g transform="translate(253.453568, 211.295612)"><g><path d="M 1.320312 -1.179688 C 3.261719 -1.179688 6.214844 -4.050781 7.566406 -5.484375 C 7.675781 -5.597656 7.761719 -5.679688 7.789062 -5.765625 C 7.875 -5.90625 7.847656 -6.046875 7.707031 -6.1875 C 7.648438 -6.242188 7.59375 -6.269531 7.507812 -6.269531 C 7.453125 -6.269531 7.367188 -6.242188 7.285156 -6.1875 C 7.199219 -6.101562 7.113281 -6.019531 7.03125 -5.933594 C 6.945312 -5.847656 6.832031 -5.765625 6.75 -5.679688 C 6.410156 -5.371094 6.074219 -5.0625 5.765625 -4.753906 C 5.425781 -4.441406 5.089844 -4.105469 4.753906 -3.796875 C 3.9375 -3.039062 2.644531 -2.136719 1.519531 -1.914062 C 0.984375 -1.914062 0.675781 -1.914062 0.5625 -2.558594 C 0.421875 -2.925781 0.394531 -3.234375 0.476562 -3.542969 C 0.507812 -3.683594 0.589844 -3.769531 0.703125 -3.796875 C 2.054688 -3.9375 3.824219 -5.597656 4.050781 -6.972656 C 4.132812 -7.621094 3.769531 -8.015625 3.207031 -8.015625 C 3.179688 -8.015625 3.121094 -8.015625 3.09375 -8.015625 C 3.066406 -7.988281 3.007812 -7.988281 2.980469 -7.988281 C 1.492188 -7.761719 0.394531 -5.792969 -0.0859375 -4.472656 C -0.195312 -4.050781 -0.308594 -3.65625 -0.28125 -3.179688 C -0.308594 -2.867188 -0.226562 -2.53125 -0.113281 -2.222656 C 0.0859375 -1.519531 0.5625 -1.179688 1.320312 -1.179688 Z M 1.070312 -4.640625 C 1.039062 -4.613281 0.984375 -4.640625 0.898438 -4.667969 C 0.871094 -4.667969 0.84375 -4.722656 0.84375 -4.808594 C 1.152344 -5.679688 2.109375 -7.085938 3.039062 -7.226562 C 3.179688 -7.253906 3.261719 -7.199219 3.289062 -7.003906 C 3.289062 -6.101562 1.800781 -5.035156 1.070312 -4.640625 Z M 1.070312 -4.640625 "/></g></g></g></svg>