<svg xmlns="http://www.w3.org/2000/svg" xmlns:xlink="http://www.w3.org/1999/xlink" width="500" zoomAndPan="magnify" viewBox="0 0 375 374.999991" height="500" preserveAspectRatio="xMidYMid meet" version="1.0"><defs><g/></defs><rect x="-37.5" width="450" fill="#ffffff" y="-37.499999" height="449.999989" fill-opacity="1"/><rect x="-37.5" width="450" fill="#f9f6f2" y="-37.499999" height="449.999989" fill-opacity="1"/><path fill="#000000" d="M 65.496094 153.792969 L 146.109375 153.792969 L 146.109375 192.261719 L 65.496094 192.261719 L 65.496094 153.792969 " fill-opacity="1" fill-rule="nonzero"/><g fill="#f9f6f2" fill-opacity="1"><g transform="translate(77.572526, 180.26348)"><g><path d="M 5.046875 0.28125 C 3.921875 0.28125 2.882812 0.0703125 1.9375 -0.34375 C 1 -0.757812 0.226562 -1.359375 -0.375 -2.140625 L 1.765625 -4.71875 C 2.671875 -3.488281 3.703125 -2.875 4.859375 -2.875 C 6.421875 -2.875 7.203125 -3.796875 7.203125 -5.640625 L 7.203125 -13.5625 L 1.359375 -13.5625 L 1.359375 -16.65625 L 11.046875 -16.65625 L 11.046875 -5.859375 C 11.046875 -3.804688 10.535156 -2.269531 9.515625 -1.25 C 8.503906 -0.226562 7.015625 0.28125 5.046875 0.28125 Z M 5.046875 0.28125 "/></g></g></g><g fill="#f9f6f2" fill-opacity="1"><g transform="translate(95.585398, 180.26348)"><g><path d="M 9.375 0.28125 C 7 0.28125 5.144531 -0.375 3.8125 -1.6875 C 2.488281 -3.007812 1.828125 -4.890625 1.828125 -7.328125 L 1.828125 -16.65625 L 5.6875 -16.65625 L 5.6875 -7.46875 C 5.6875 -4.488281 6.925781 -3 9.40625 -3 C 10.601562 -3 11.519531 -3.359375 12.15625 -4.078125 C 12.789062 -4.796875 13.109375 -5.925781 13.109375 -7.46875 L 13.109375 -16.65625 L 16.921875 -16.65625 L 16.921875 -7.328125 C 16.921875 -4.890625 16.257812 -3.007812 14.9375 -1.6875 C 13.613281 -0.375 11.757812 0.28125 9.375 0.28125 Z M 9.375 0.28125 "/></g></g></g><g fill="#f9f6f2" fill-opacity="1"><g transform="translate(119.474412, 180.26348)"><g><path d="M 1.96875 -16.65625 L 5.828125 -16.65625 L 5.828125 -3.140625 L 14.1875 -3.140625 L 14.1875 0 L 1.96875 0 Z M 1.96875 -16.65625 "/></g></g></g><g fill="#000000" fill-opacity="1"><g transform="translate(152.592402, 180.506472)"><g><path d="M 1.671875 -16.65625 L 9.546875 -16.65625 C 11.410156 -16.65625 12.894531 -16.273438 14 -15.515625 C 15.101562 -14.765625 15.65625 -13.757812 15.65625 -12.5 C 15.65625 -11.625 15.398438 -10.851562 14.890625 -10.1875 C 14.390625 -9.53125 13.691406 -9.078125 12.796875 -8.828125 C 13.847656 -8.617188 14.679688 -8.132812 15.296875 -7.375 C 15.921875 -6.613281 16.234375 -5.691406 16.234375 -4.609375 C 16.234375 -3.203125 15.65625 -2.082031 14.5 -1.25 C 13.351562 -0.414062 11.796875 0 9.828125 0 L 1.671875 0 Z M 5.875 -13.421875 L 5.875 -10 L 9.296875 -10 C 9.921875 -10 10.414062 -10.148438 10.78125 -10.453125 C 11.144531 -10.765625 11.328125 -11.191406 11.328125 -11.734375 C 11.328125 -12.253906 11.144531 -12.664062 10.78125 -12.96875 C 10.414062 -13.269531 9.921875 -13.421875 9.296875 -13.421875 Z M 5.875 -6.953125 L 5.875 -3.265625 L 9.296875 -3.265625 C 10.097656 -3.265625 10.722656 -3.429688 11.171875 -3.765625 C 11.617188 -4.097656 11.84375 -4.554688 11.84375 -5.140625 C 11.84375 -5.691406 11.617188 -6.128906 11.171875 -6.453125 C 10.722656 -6.785156 10.097656 -6.953125 9.296875 -6.953125 Z M 5.875 -6.953125 "/></g></g></g><g fill="#000000" fill-opacity="1"><g transform="translate(174.742366, 180.506472)"><g><path d="M 16.65625 -16.65625 L 16.65625 -7 C 16.65625 -4.789062 15.972656 -3.039062 14.609375 -1.75 C 13.242188 -0.457031 11.394531 0.1875 9.0625 0.1875 C 6.71875 0.1875 4.847656 -0.457031 3.453125 -1.75 C 2.066406 -3.039062 1.375 -4.789062 1.375 -7 L 1.375 -16.65625 L 5.609375 -16.65625 L 5.609375 -7 C 5.609375 -5.882812 5.929688 -5 6.578125 -4.34375 C 7.222656 -3.6875 8.0625 -3.359375 9.09375 -3.359375 C 10.101562 -3.359375 10.914062 -3.679688 11.53125 -4.328125 C 12.144531 -4.984375 12.453125 -5.875 12.453125 -7 L 12.453125 -16.65625 Z M 16.65625 -16.65625 "/></g></g></g><g fill="#000000" fill-opacity="1"><g transform="translate(197.91526, 180.506472)"><g><path d="M 8.0625 -16.84375 C 10.550781 -16.84375 12.742188 -16.222656 14.640625 -14.984375 L 13.046875 -11.6875 C 12.171875 -12.195312 11.234375 -12.613281 10.234375 -12.9375 C 9.234375 -13.257812 8.390625 -13.421875 7.703125 -13.421875 C 6.484375 -13.421875 5.875 -13.015625 5.875 -12.203125 C 5.875 -11.679688 6.175781 -11.257812 6.78125 -10.9375 C 7.382812 -10.625 8.117188 -10.351562 8.984375 -10.125 C 9.847656 -9.894531 10.710938 -9.617188 11.578125 -9.296875 C 12.441406 -8.972656 13.175781 -8.441406 13.78125 -7.703125 C 14.382812 -6.972656 14.6875 -6.054688 14.6875 -4.953125 C 14.6875 -3.347656 14.054688 -2.097656 12.796875 -1.203125 C 11.546875 -0.304688 9.953125 0.140625 8.015625 0.140625 C 6.640625 0.140625 5.273438 -0.09375 3.921875 -0.5625 C 2.578125 -1.039062 1.40625 -1.691406 0.40625 -2.515625 L 2.046875 -5.78125 C 2.890625 -5.050781 3.878906 -4.453125 5.015625 -3.984375 C 6.160156 -3.515625 7.175781 -3.28125 8.0625 -3.28125 C 8.75 -3.28125 9.28125 -3.398438 9.65625 -3.640625 C 10.039062 -3.890625 10.234375 -4.253906 10.234375 -4.734375 C 10.234375 -5.191406 10.015625 -5.578125 9.578125 -5.890625 C 9.140625 -6.203125 8.59375 -6.429688 7.9375 -6.578125 C 7.289062 -6.734375 6.585938 -6.9375 5.828125 -7.1875 C 5.066406 -7.4375 4.359375 -7.710938 3.703125 -8.015625 C 3.054688 -8.316406 2.515625 -8.796875 2.078125 -9.453125 C 1.640625 -10.117188 1.421875 -10.910156 1.421875 -11.828125 C 1.421875 -13.347656 2.023438 -14.5625 3.234375 -15.46875 C 4.453125 -16.382812 6.0625 -16.84375 8.0625 -16.84375 Z M 8.0625 -16.84375 "/></g></g></g><g fill="#000000" fill-opacity="1"><g transform="translate(218.376202, 180.506472)"><g><path d="M 5.90625 0 L 1.671875 0 L 1.671875 -16.65625 L 5.90625 -16.65625 Z M 5.90625 0 "/></g></g></g><g fill="#000000" fill-opacity="1"><g transform="translate(231.081919, 180.506472)"><g><path d="M 17.03125 0 L 13.296875 0 L 5.640625 -10.25 L 5.640625 0 L 1.671875 0 L 1.671875 -16.65625 L 5.40625 -16.65625 L 13.09375 -6.375 L 13.09375 -16.65625 L 17.03125 -16.65625 Z M 17.03125 0 "/></g></g></g><g fill="#000000" fill-opacity="1"><g transform="translate(254.92091, 180.506472)"><g><path d="M 14.703125 -13.328125 L 5.90625 -13.328125 L 5.90625 -10.015625 L 13.84375 -10.015625 L 13.84375 -6.6875 L 5.90625 -6.6875 L 5.90625 -3.328125 L 14.96875 -3.328125 L 14.96875 0 L 1.671875 0 L 1.671875 -16.65625 L 14.703125 -16.65625 Z M 14.703125 -13.328125 "/></g></g></g><g fill="#000000" fill-opacity="1"><g transform="translate(276.095523, 180.506472)"><g><path d="M 8.0625 -16.84375 C 10.550781 -16.84375 12.742188 -16.222656 14.640625 -14.984375 L 13.046875 -11.6875 C 12.171875 -12.195312 11.234375 -12.613281 10.234375 -12.9375 C 9.234375 -13.257812 8.390625 -13.421875 7.703125 -13.421875 C 6.484375 -13.421875 5.875 -13.015625 5.875 -12.203125 C 5.875 -11.679688 6.175781 -11.257812 6.78125 -10.9375 C 7.382812 -10.625 8.117188 -10.351562 8.984375 -10.125 C 9.847656 -9.894531 10.710938 -9.617188 11.578125 -9.296875 C 12.441406 -8.972656 13.175781 -8.441406 13.78125 -7.703125 C 14.382812 -6.972656 14.6875 -6.054688 14.6875 -4.953125 C 14.6875 -3.347656 14.054688 -2.097656 12.796875 -1.203125 C 11.546875 -0.304688 9.953125 0.140625 8.015625 0.140625 C 6.640625 0.140625 5.273438 -0.09375 3.921875 -0.5625 C 2.578125 -1.039062 1.40625 -1.691406 0.40625 -2.515625 L 2.046875 -5.78125 C 2.890625 -5.050781 3.878906 -4.453125 5.015625 -3.984375 C 6.160156 -3.515625 7.175781 -3.28125 8.0625 -3.28125 C 8.75 -3.28125 9.28125 -3.398438 9.65625 -3.640625 C 10.039062 -3.890625 10.234375 -4.253906 10.234375 -4.734375 C 10.234375 -5.191406 10.015625 -5.578125 9.578125 -5.890625 C 9.140625 -6.203125 8.59375 -6.429688 7.9375 -6.578125 C 7.289062 -6.734375 6.585938 -6.9375 5.828125 -7.1875 C 5.066406 -7.4375 4.359375 -7.710938 3.703125 -8.015625 C 3.054688 -8.316406 2.515625 -8.796875 2.078125 -9.453125 C 1.640625 -10.117188 1.421875 -10.910156 1.421875 -11.828125 C 1.421875 -13.347656 2.023438 -14.5625 3.234375 -15.46875 C 4.453125 -16.382812 6.0625 -16.84375 8.0625 -16.84375 Z M 8.0625 -16.84375 "/></g></g></g><g fill="#000000" fill-opacity="1"><g transform="translate(296.556459, 180.506472)"><g><path d="M 8.0625 -16.84375 C 10.550781 -16.84375 12.742188 -16.222656 14.640625 -14.984375 L 13.046875 -11.6875 C 12.171875 -12.195312 11.234375 -12.613281 10.234375 -12.9375 C 9.234375 -13.257812 8.390625 -13.421875 7.703125 -13.421875 C 6.484375 -13.421875 5.875 -13.015625 5.875 -12.203125 C 5.875 -11.679688 6.175781 -11.257812 6.78125 -10.9375 C 7.382812 -10.625 8.117188 -10.351562 8.984375 -10.125 C 9.847656 -9.894531 10.710938 -9.617188 11.578125 -9.296875 C 12.441406 -8.972656 13.175781 -8.441406 13.78125 -7.703125 C 14.382812 -6.972656 14.6875 -6.054688 14.6875 -4.953125 C 14.6875 -3.347656 14.054688 -2.097656 12.796875 -1.203125 C 11.546875 -0.304688 9.953125 0.140625 8.015625 0.140625 C 6.640625 0.140625 5.273438 -0.09375 3.921875 -0.5625 C 2.578125 -1.039062 1.40625 -1.691406 0.40625 -2.515625 L 2.046875 -5.78125 C 2.890625 -5.050781 3.878906 -4.453125 5.015625 -3.984375 C 6.160156 -3.515625 7.175781 -3.28125 8.0625 -3.28125 C 8.75 -3.28125 9.28125 -3.398438 9.65625 -3.640625 C 10.039062 -3.890625 10.234375 -4.253906 10.234375 -4.734375 C 10.234375 -5.191406 10.015625 -5.578125 9.578125 -5.890625 C 9.140625 -6.203125 8.59375 -6.429688 7.9375 -6.578125 C 7.289062 -6.734375 6.585938 -6.9375 5.828125 -7.1875 C 5.066406 -7.4375 4.359375 -7.710938 3.703125 -8.015625 C 3.054688 -8.316406 2.515625 -8.796875 2.078125 -9.453125 C 1.640625 -10.117188 1.421875 -10.910156 1.421875 -11.828125 C 1.421875 -13.347656 2.023438 -14.5625 3.234375 -15.46875 C 4.453125 -16.382812 6.0625 -16.84375 8.0625 -16.84375 Z M 8.0625 -16.84375 "/></g></g></g></svg>