<svg xmlns="http://www.w3.org/2000/svg" xmlns:xlink="http://www.w3.org/1999/xlink" width="500" zoomAndPan="magnify" viewBox="0 0 375 374.999991" height="500" preserveAspectRatio="xMidYMid meet" version="1.0"><defs><g/></defs><rect x="-37.5" width="450" fill="#ffffff" y="-37.499999" height="449.999989" fill-opacity="1"/><rect x="-37.5" width="450" fill="#e4e2dd" y="-37.499999" height="449.999989" fill-opacity="1"/><g fill="#292929" fill-opacity="1"><g transform="translate(136.629206, 179.44529)"><g><path d="M 0.609375 -14.421875 L 2.546875 -14.421875 L 2.546875 -12.25 C 2.773438 -12.925781 3.191406 -13.460938 3.796875 -13.859375 C 4.410156 -14.265625 5.109375 -14.507812 5.890625 -14.59375 C 6.671875 -14.675781 7.484375 -14.585938 8.328125 -14.328125 C 9.171875 -14.078125 9.945312 -13.648438 10.65625 -13.046875 C 11.363281 -12.441406 11.941406 -11.65625 12.390625 -10.6875 C 12.835938 -9.726562 13.0625 -8.570312 13.0625 -7.21875 C 13.0625 -5.882812 12.84375 -4.742188 12.40625 -3.796875 C 11.976562 -2.859375 11.378906 -2.085938 10.609375 -1.484375 C 9.847656 -0.890625 8.945312 -0.457031 7.90625 -0.1875 C 6.863281 0.0820312 5.734375 0.21875 4.515625 0.21875 C 3.910156 0.21875 3.289062 0.179688 2.65625 0.109375 C 2.03125 0.046875 1.410156 0.0078125 0.796875 0 L 0.609375 0 L 0.609375 -0.1875 C 0.640625 -0.1875 0.679688 -0.207031 0.734375 -0.25 C 0.796875 -0.289062 0.847656 -0.363281 0.890625 -0.46875 C 0.941406 -0.582031 0.988281 -0.742188 1.03125 -0.953125 C 1.070312 -1.171875 1.09375 -1.441406 1.09375 -1.765625 L 1.09375 -12.65625 C 1.09375 -13 1.070312 -13.269531 1.03125 -13.46875 C 0.988281 -13.675781 0.941406 -13.832031 0.890625 -13.9375 C 0.847656 -14.050781 0.796875 -14.128906 0.734375 -14.171875 C 0.679688 -14.210938 0.640625 -14.234375 0.609375 -14.234375 Z M 11.625 -7.21875 C 11.625 -8.625 11.398438 -9.8125 10.953125 -10.78125 C 10.515625 -11.757812 9.957031 -12.523438 9.28125 -13.078125 C 8.601562 -13.628906 7.875 -13.988281 7.09375 -14.15625 C 6.3125 -14.320312 5.582031 -14.3125 4.90625 -14.125 C 4.226562 -13.9375 3.664062 -13.585938 3.21875 -13.078125 C 2.769531 -12.566406 2.546875 -11.90625 2.546875 -11.09375 L 2.546875 -0.078125 C 2.890625 -0.0546875 3.222656 -0.03125 3.546875 0 C 3.878906 0.03125 4.203125 0.046875 4.515625 0.046875 C 5.640625 0.046875 6.640625 -0.117188 7.515625 -0.453125 C 8.390625 -0.796875 9.128906 -1.273438 9.734375 -1.890625 C 10.347656 -2.515625 10.816406 -3.273438 11.140625 -4.171875 C 11.460938 -5.078125 11.625 -6.09375 11.625 -7.21875 Z M 11.625 -7.21875 "/></g></g></g><g fill="#292929" fill-opacity="1"><g transform="translate(149.955339, 179.44529)"><g><path d="M 0.703125 -3.640625 C 0.523438 -4.304688 0.484375 -4.96875 0.578125 -5.625 C 0.671875 -6.28125 0.878906 -6.882812 1.203125 -7.4375 C 1.523438 -8 1.945312 -8.484375 2.46875 -8.890625 C 2.988281 -9.304688 3.582031 -9.601562 4.25 -9.78125 C 4.96875 -9.96875 5.65625 -10.007812 6.3125 -9.90625 C 6.96875 -9.8125 7.5625 -9.613281 8.09375 -9.3125 C 8.625 -9.007812 9.082031 -8.625 9.46875 -8.15625 C 9.851562 -7.6875 10.128906 -7.179688 10.296875 -6.640625 C 9.796875 -6.640625 9.257812 -6.617188 8.6875 -6.578125 C 8.125 -6.535156 7.613281 -6.457031 7.15625 -6.34375 C 7.53125 -6.363281 7.878906 -6.300781 8.203125 -6.15625 C 8.523438 -6.007812 8.800781 -5.8125 9.03125 -5.5625 C 9.269531 -5.320312 9.457031 -5.035156 9.59375 -4.703125 C 9.726562 -4.378906 9.8125 -4.035156 9.84375 -3.671875 C 9.894531 -2.929688 9.738281 -2.289062 9.375 -1.75 C 9.007812 -1.207031 8.53125 -0.78125 7.9375 -0.46875 C 7.34375 -0.164062 6.675781 0.00390625 5.9375 0.046875 C 5.195312 0.0976562 4.476562 0.00390625 3.78125 -0.234375 C 3.09375 -0.484375 2.46875 -0.882812 1.90625 -1.4375 C 1.34375 -2 0.941406 -2.734375 0.703125 -3.640625 Z M 1.90625 -5.109375 C 1.945312 -4.710938 2.007812 -4.34375 2.09375 -4 C 2.351562 -3.019531 2.75 -2.25 3.28125 -1.6875 C 3.820312 -1.125 4.398438 -0.738281 5.015625 -0.53125 C 5.640625 -0.320312 6.265625 -0.273438 6.890625 -0.390625 C 7.523438 -0.515625 8.078125 -0.753906 8.546875 -1.109375 C 9.015625 -1.460938 9.351562 -1.914062 9.5625 -2.46875 C 9.78125 -3.03125 9.785156 -3.648438 9.578125 -4.328125 C 9.460938 -4.703125 9.28125 -5.039062 9.03125 -5.34375 C 8.789062 -5.644531 8.492188 -5.863281 8.140625 -6 C 7.785156 -6.144531 7.378906 -6.203125 6.921875 -6.171875 C 6.472656 -6.140625 5.992188 -5.972656 5.484375 -5.671875 C 4.992188 -5.378906 4.507812 -5.175781 4.03125 -5.0625 C 3.5625 -4.945312 3.128906 -4.90625 2.734375 -4.9375 C 2.578125 -4.945312 2.429688 -4.960938 2.296875 -4.984375 C 2.160156 -5.003906 2.03125 -5.046875 1.90625 -5.109375 Z M 8.71875 -6.734375 C 8.519531 -7.171875 8.269531 -7.59375 7.96875 -8 C 7.664062 -8.40625 7.328125 -8.75 6.953125 -9.03125 C 6.578125 -9.320312 6.160156 -9.53125 5.703125 -9.65625 C 5.253906 -9.78125 4.785156 -9.773438 4.296875 -9.640625 C 3.828125 -9.515625 3.4375 -9.300781 3.125 -9 C 2.8125 -8.695312 2.5625 -8.347656 2.375 -7.953125 C 2.1875 -7.554688 2.054688 -7.125 1.984375 -6.65625 C 1.910156 -6.1875 1.882812 -5.726562 1.90625 -5.28125 C 2.144531 -5.164062 2.421875 -5.097656 2.734375 -5.078125 C 3.117188 -5.046875 3.539062 -5.085938 4 -5.203125 C 4.457031 -5.328125 4.925781 -5.523438 5.40625 -5.796875 C 5.976562 -6.117188 6.550781 -6.347656 7.125 -6.484375 C 7.707031 -6.628906 8.238281 -6.710938 8.71875 -6.734375 Z M 8.71875 -6.734375 "/></g></g></g><g fill="#292929" fill-opacity="1"><g transform="translate(160.406777, 179.44529)"><g><path d="M 3.140625 -8.140625 L 5.734375 -1.875 L 8.109375 -7.578125 C 8.390625 -8.234375 8.539062 -8.753906 8.5625 -9.140625 C 8.582031 -9.523438 8.453125 -9.71875 8.171875 -9.71875 L 8.171875 -9.90625 L 9.90625 -9.90625 L 9.90625 -9.71875 C 9.820312 -9.71875 9.722656 -9.679688 9.609375 -9.609375 C 9.503906 -9.546875 9.382812 -9.425781 9.25 -9.25 C 9.113281 -9.082031 8.957031 -8.84375 8.78125 -8.53125 C 8.613281 -8.226562 8.425781 -7.84375 8.21875 -7.375 L 5.828125 -1.625 L 6.515625 0 L 4.96875 0 L 1.640625 -8.046875 C 1.460938 -8.460938 1.269531 -8.84375 1.0625 -9.1875 C 0.863281 -9.539062 0.679688 -9.71875 0.515625 -9.71875 L 0.515625 -9.90625 L 2.890625 -9.90625 L 2.890625 -9.71875 C 2.785156 -9.71875 2.738281 -9.601562 2.75 -9.375 C 2.769531 -9.15625 2.898438 -8.742188 3.140625 -8.140625 Z M 3.140625 -8.140625 "/></g></g></g><g fill="#292929" fill-opacity="1"><g transform="translate(170.468074, 179.44529)"><g><path d="M 0.703125 -3.640625 C 0.523438 -4.304688 0.484375 -4.96875 0.578125 -5.625 C 0.671875 -6.28125 0.878906 -6.882812 1.203125 -7.4375 C 1.523438 -8 1.945312 -8.484375 2.46875 -8.890625 C 2.988281 -9.304688 3.582031 -9.601562 4.25 -9.78125 C 4.96875 -9.96875 5.65625 -10.007812 6.3125 -9.90625 C 6.96875 -9.8125 7.5625 -9.613281 8.09375 -9.3125 C 8.625 -9.007812 9.082031 -8.625 9.46875 -8.15625 C 9.851562 -7.6875 10.128906 -7.179688 10.296875 -6.640625 C 9.796875 -6.640625 9.257812 -6.617188 8.6875 -6.578125 C 8.125 -6.535156 7.613281 -6.457031 7.15625 -6.34375 C 7.53125 -6.363281 7.878906 -6.300781 8.203125 -6.15625 C 8.523438 -6.007812 8.800781 -5.8125 9.03125 -5.5625 C 9.269531 -5.320312 9.457031 -5.035156 9.59375 -4.703125 C 9.726562 -4.378906 9.8125 -4.035156 9.84375 -3.671875 C 9.894531 -2.929688 9.738281 -2.289062 9.375 -1.75 C 9.007812 -1.207031 8.53125 -0.78125 7.9375 -0.46875 C 7.34375 -0.164062 6.675781 0.00390625 5.9375 0.046875 C 5.195312 0.0976562 4.476562 0.00390625 3.78125 -0.234375 C 3.09375 -0.484375 2.46875 -0.882812 1.90625 -1.4375 C 1.34375 -2 0.941406 -2.734375 0.703125 -3.640625 Z M 1.90625 -5.109375 C 1.945312 -4.710938 2.007812 -4.34375 2.09375 -4 C 2.351562 -3.019531 2.75 -2.25 3.28125 -1.6875 C 3.820312 -1.125 4.398438 -0.738281 5.015625 -0.53125 C 5.640625 -0.320312 6.265625 -0.273438 6.890625 -0.390625 C 7.523438 -0.515625 8.078125 -0.753906 8.546875 -1.109375 C 9.015625 -1.460938 9.351562 -1.914062 9.5625 -2.46875 C 9.78125 -3.03125 9.785156 -3.648438 9.578125 -4.328125 C 9.460938 -4.703125 9.28125 -5.039062 9.03125 -5.34375 C 8.789062 -5.644531 8.492188 -5.863281 8.140625 -6 C 7.785156 -6.144531 7.378906 -6.203125 6.921875 -6.171875 C 6.472656 -6.140625 5.992188 -5.972656 5.484375 -5.671875 C 4.992188 -5.378906 4.507812 -5.175781 4.03125 -5.0625 C 3.5625 -4.945312 3.128906 -4.90625 2.734375 -4.9375 C 2.578125 -4.945312 2.429688 -4.960938 2.296875 -4.984375 C 2.160156 -5.003906 2.03125 -5.046875 1.90625 -5.109375 Z M 8.71875 -6.734375 C 8.519531 -7.171875 8.269531 -7.59375 7.96875 -8 C 7.664062 -8.40625 7.328125 -8.75 6.953125 -9.03125 C 6.578125 -9.320312 6.160156 -9.53125 5.703125 -9.65625 C 5.253906 -9.78125 4.785156 -9.773438 4.296875 -9.640625 C 3.828125 -9.515625 3.4375 -9.300781 3.125 -9 C 2.8125 -8.695312 2.5625 -8.347656 2.375 -7.953125 C 2.1875 -7.554688 2.054688 -7.125 1.984375 -6.65625 C 1.910156 -6.1875 1.882812 -5.726562 1.90625 -5.28125 C 2.144531 -5.164062 2.421875 -5.097656 2.734375 -5.078125 C 3.117188 -5.046875 3.539062 -5.085938 4 -5.203125 C 4.457031 -5.328125 4.925781 -5.523438 5.40625 -5.796875 C 5.976562 -6.117188 6.550781 -6.347656 7.125 -6.484375 C 7.707031 -6.628906 8.238281 -6.710938 8.71875 -6.734375 Z M 8.71875 -6.734375 "/></g></g></g><g fill="#292929" fill-opacity="1"><g transform="translate(180.919511, 179.44529)"><g><path d="M 2.921875 0 L 0.53125 0 L 0.53125 -0.1875 C 0.5625 -0.1875 0.601562 -0.203125 0.65625 -0.234375 C 0.707031 -0.265625 0.757812 -0.335938 0.8125 -0.453125 C 0.863281 -0.578125 0.90625 -0.738281 0.9375 -0.9375 C 0.976562 -1.144531 1 -1.421875 1 -1.765625 L 1 -13.0625 C 0.945312 -13.425781 0.875 -13.660156 0.78125 -13.765625 C 0.695312 -13.878906 0.628906 -13.9375 0.578125 -13.9375 L 0.515625 -14.109375 L 2.4375 -14.828125 L 2.4375 -1.765625 C 2.4375 -1.421875 2.453125 -1.144531 2.484375 -0.9375 C 2.523438 -0.738281 2.570312 -0.578125 2.625 -0.453125 C 2.6875 -0.335938 2.742188 -0.265625 2.796875 -0.234375 C 2.847656 -0.203125 2.890625 -0.1875 2.921875 -0.1875 Z M 2.921875 0 "/></g></g></g><g fill="#292929" fill-opacity="1"><g transform="translate(183.999408, 179.44529)"><g><path d="M 0.703125 -3.765625 C 0.523438 -4.429688 0.484375 -5.09375 0.578125 -5.75 C 0.671875 -6.40625 0.878906 -7.007812 1.203125 -7.5625 C 1.523438 -8.125 1.945312 -8.609375 2.46875 -9.015625 C 2.988281 -9.429688 3.582031 -9.726562 4.25 -9.90625 C 4.925781 -10.082031 5.59375 -10.125 6.25 -10.03125 C 6.90625 -9.9375 7.515625 -9.726562 8.078125 -9.40625 C 8.640625 -9.082031 9.125 -8.660156 9.53125 -8.140625 C 9.945312 -7.617188 10.242188 -7.019531 10.421875 -6.34375 C 10.597656 -5.675781 10.632812 -5.015625 10.53125 -4.359375 C 10.4375 -3.703125 10.226562 -3.09375 9.90625 -2.53125 C 9.59375 -1.976562 9.175781 -1.492188 8.65625 -1.078125 C 8.132812 -0.671875 7.535156 -0.378906 6.859375 -0.203125 C 6.191406 -0.0234375 5.53125 0.015625 4.875 -0.078125 C 4.21875 -0.171875 3.609375 -0.378906 3.046875 -0.703125 C 2.484375 -1.023438 1.992188 -1.445312 1.578125 -1.96875 C 1.171875 -2.488281 0.878906 -3.085938 0.703125 -3.765625 Z M 9.015625 -5.984375 C 8.878906 -6.472656 8.664062 -6.972656 8.375 -7.484375 C 8.09375 -8.003906 7.742188 -8.457031 7.328125 -8.84375 C 6.921875 -9.238281 6.457031 -9.523438 5.9375 -9.703125 C 5.414062 -9.890625 4.867188 -9.910156 4.296875 -9.765625 C 3.722656 -9.609375 3.257812 -9.320312 2.90625 -8.90625 C 2.5625 -8.488281 2.304688 -8.007812 2.140625 -7.46875 C 1.972656 -6.925781 1.890625 -6.359375 1.890625 -5.765625 C 1.890625 -5.171875 1.957031 -4.625 2.09375 -4.125 C 2.226562 -3.632812 2.441406 -3.128906 2.734375 -2.609375 C 3.023438 -2.085938 3.375 -1.632812 3.78125 -1.25 C 4.1875 -0.863281 4.648438 -0.578125 5.171875 -0.390625 C 5.691406 -0.203125 6.242188 -0.1875 6.828125 -0.34375 C 7.398438 -0.5 7.863281 -0.785156 8.21875 -1.203125 C 8.570312 -1.617188 8.832031 -2.097656 9 -2.640625 C 9.164062 -3.179688 9.242188 -3.75 9.234375 -4.34375 C 9.222656 -4.9375 9.148438 -5.484375 9.015625 -5.984375 Z M 9.015625 -5.984375 "/></g></g></g><g fill="#292929" fill-opacity="1"><g transform="translate(194.758849, 179.44529)"><g><path d="M 2.40625 -4.359375 C 2.5 -5.046875 2.632812 -5.664062 2.8125 -6.21875 C 2.988281 -6.78125 3.203125 -7.289062 3.453125 -7.75 C 3.859375 -8.539062 4.351562 -9.113281 4.9375 -9.46875 C 4.988281 -9.507812 5.066406 -9.554688 5.171875 -9.609375 C 5.535156 -9.828125 5.914062 -9.960938 6.3125 -10.015625 C 6.707031 -10.078125 7.109375 -10.070312 7.515625 -10 C 8.234375 -9.882812 8.820312 -9.65625 9.28125 -9.3125 C 9.738281 -8.96875 10.085938 -8.550781 10.328125 -8.0625 C 10.566406 -7.570312 10.703125 -7.039062 10.734375 -6.46875 C 10.765625 -5.90625 10.710938 -5.332031 10.578125 -4.75 C 10.453125 -4.175781 10.242188 -3.613281 9.953125 -3.0625 C 9.660156 -2.507812 9.304688 -2.023438 8.890625 -1.609375 C 8.390625 -1.085938 7.800781 -0.664062 7.125 -0.34375 C 6.445312 -0.0195312 5.6875 0.140625 4.84375 0.140625 C 4.488281 0.140625 4.109375 0.101562 3.703125 0.03125 C 3.304688 -0.0390625 2.875 -0.175781 2.40625 -0.375 L 2.40625 3.1875 C 2.457031 3.539062 2.53125 3.769531 2.625 3.875 C 2.726562 3.988281 2.796875 4.046875 2.828125 4.046875 L 2.921875 4.234375 L 0.984375 4.96875 L 0.984375 -8.109375 C 0.984375 -8.453125 0.960938 -8.726562 0.921875 -8.9375 C 0.878906 -9.144531 0.832031 -9.300781 0.78125 -9.40625 C 0.738281 -9.519531 0.691406 -9.597656 0.640625 -9.640625 C 0.585938 -9.679688 0.546875 -9.703125 0.515625 -9.703125 L 0.515625 -9.890625 L 2.40625 -9.890625 Z M 2.40625 -0.53125 C 3.269531 -0.1875 4.09375 -0.015625 4.875 -0.015625 C 5.59375 -0.046875 6.21875 -0.234375 6.75 -0.578125 C 7.289062 -0.929688 7.734375 -1.425781 8.078125 -2.0625 C 8.335938 -2.507812 8.535156 -3.050781 8.671875 -3.6875 C 8.816406 -4.320312 8.882812 -4.96875 8.875 -5.625 C 8.875 -6.28125 8.785156 -6.90625 8.609375 -7.5 C 8.441406 -8.101562 8.164062 -8.597656 7.78125 -8.984375 C 7.425781 -9.335938 7.03125 -9.566406 6.59375 -9.671875 C 6.164062 -9.785156 5.722656 -9.726562 5.265625 -9.5 C 5.003906 -9.34375 4.765625 -9.15625 4.546875 -8.9375 C 4.335938 -8.726562 4.132812 -8.488281 3.9375 -8.21875 C 3.601562 -7.707031 3.328125 -7.132812 3.109375 -6.5 C 2.890625 -5.875 2.722656 -5.242188 2.609375 -4.609375 L 2.484375 -3.71875 C 2.441406 -3.28125 2.421875 -2.828125 2.421875 -2.359375 L 2.40625 -2.359375 Z M 2.40625 -0.53125 "/></g></g></g><g fill="#292929" fill-opacity="1"><g transform="translate(205.682556, 179.44529)"><g><path d="M 2.40625 -4.359375 C 2.5 -5.046875 2.632812 -5.664062 2.8125 -6.21875 C 2.988281 -6.78125 3.203125 -7.289062 3.453125 -7.75 C 3.859375 -8.539062 4.351562 -9.113281 4.9375 -9.46875 C 4.988281 -9.507812 5.066406 -9.554688 5.171875 -9.609375 C 5.535156 -9.828125 5.914062 -9.960938 6.3125 -10.015625 C 6.707031 -10.078125 7.109375 -10.070312 7.515625 -10 C 8.234375 -9.882812 8.820312 -9.65625 9.28125 -9.3125 C 9.738281 -8.96875 10.085938 -8.550781 10.328125 -8.0625 C 10.566406 -7.570312 10.703125 -7.039062 10.734375 -6.46875 C 10.765625 -5.90625 10.710938 -5.332031 10.578125 -4.75 C 10.453125 -4.175781 10.242188 -3.613281 9.953125 -3.0625 C 9.660156 -2.507812 9.304688 -2.023438 8.890625 -1.609375 C 8.390625 -1.085938 7.800781 -0.664062 7.125 -0.34375 C 6.445312 -0.0195312 5.6875 0.140625 4.84375 0.140625 C 4.488281 0.140625 4.109375 0.101562 3.703125 0.03125 C 3.304688 -0.0390625 2.875 -0.175781 2.40625 -0.375 L 2.40625 3.1875 C 2.457031 3.539062 2.53125 3.769531 2.625 3.875 C 2.726562 3.988281 2.796875 4.046875 2.828125 4.046875 L 2.921875 4.234375 L 0.984375 4.96875 L 0.984375 -8.109375 C 0.984375 -8.453125 0.960938 -8.726562 0.921875 -8.9375 C 0.878906 -9.144531 0.832031 -9.300781 0.78125 -9.40625 C 0.738281 -9.519531 0.691406 -9.597656 0.640625 -9.640625 C 0.585938 -9.679688 0.546875 -9.703125 0.515625 -9.703125 L 0.515625 -9.890625 L 2.40625 -9.890625 Z M 2.40625 -0.53125 C 3.269531 -0.1875 4.09375 -0.015625 4.875 -0.015625 C 5.59375 -0.046875 6.21875 -0.234375 6.75 -0.578125 C 7.289062 -0.929688 7.734375 -1.425781 8.078125 -2.0625 C 8.335938 -2.507812 8.535156 -3.050781 8.671875 -3.6875 C 8.816406 -4.320312 8.882812 -4.96875 8.875 -5.625 C 8.875 -6.28125 8.785156 -6.90625 8.609375 -7.5 C 8.441406 -8.101562 8.164062 -8.597656 7.78125 -8.984375 C 7.425781 -9.335938 7.03125 -9.566406 6.59375 -9.671875 C 6.164062 -9.785156 5.722656 -9.726562 5.265625 -9.5 C 5.003906 -9.34375 4.765625 -9.15625 4.546875 -8.9375 C 4.335938 -8.726562 4.132812 -8.488281 3.9375 -8.21875 C 3.601562 -7.707031 3.328125 -7.132812 3.109375 -6.5 C 2.890625 -5.875 2.722656 -5.242188 2.609375 -4.609375 L 2.484375 -3.71875 C 2.441406 -3.28125 2.421875 -2.828125 2.421875 -2.359375 L 2.40625 -2.359375 Z M 2.40625 -0.53125 "/></g></g></g><g fill="#292929" fill-opacity="1"><g transform="translate(216.606262, 179.44529)"><g><path d="M 0.703125 -3.640625 C 0.523438 -4.304688 0.484375 -4.96875 0.578125 -5.625 C 0.671875 -6.28125 0.878906 -6.882812 1.203125 -7.4375 C 1.523438 -8 1.945312 -8.484375 2.46875 -8.890625 C 2.988281 -9.304688 3.582031 -9.601562 4.25 -9.78125 C 4.96875 -9.96875 5.65625 -10.007812 6.3125 -9.90625 C 6.96875 -9.8125 7.5625 -9.613281 8.09375 -9.3125 C 8.625 -9.007812 9.082031 -8.625 9.46875 -8.15625 C 9.851562 -7.6875 10.128906 -7.179688 10.296875 -6.640625 C 9.796875 -6.640625 9.257812 -6.617188 8.6875 -6.578125 C 8.125 -6.535156 7.613281 -6.457031 7.15625 -6.34375 C 7.53125 -6.363281 7.878906 -6.300781 8.203125 -6.15625 C 8.523438 -6.007812 8.800781 -5.8125 9.03125 -5.5625 C 9.269531 -5.320312 9.457031 -5.035156 9.59375 -4.703125 C 9.726562 -4.378906 9.8125 -4.035156 9.84375 -3.671875 C 9.894531 -2.929688 9.738281 -2.289062 9.375 -1.75 C 9.007812 -1.207031 8.53125 -0.78125 7.9375 -0.46875 C 7.34375 -0.164062 6.675781 0.00390625 5.9375 0.046875 C 5.195312 0.0976562 4.476562 0.00390625 3.78125 -0.234375 C 3.09375 -0.484375 2.46875 -0.882812 1.90625 -1.4375 C 1.34375 -2 0.941406 -2.734375 0.703125 -3.640625 Z M 1.90625 -5.109375 C 1.945312 -4.710938 2.007812 -4.34375 2.09375 -4 C 2.351562 -3.019531 2.75 -2.25 3.28125 -1.6875 C 3.820312 -1.125 4.398438 -0.738281 5.015625 -0.53125 C 5.640625 -0.320312 6.265625 -0.273438 6.890625 -0.390625 C 7.523438 -0.515625 8.078125 -0.753906 8.546875 -1.109375 C 9.015625 -1.460938 9.351562 -1.914062 9.5625 -2.46875 C 9.78125 -3.03125 9.785156 -3.648438 9.578125 -4.328125 C 9.460938 -4.703125 9.28125 -5.039062 9.03125 -5.34375 C 8.789062 -5.644531 8.492188 -5.863281 8.140625 -6 C 7.785156 -6.144531 7.378906 -6.203125 6.921875 -6.171875 C 6.472656 -6.140625 5.992188 -5.972656 5.484375 -5.671875 C 4.992188 -5.378906 4.507812 -5.175781 4.03125 -5.0625 C 3.5625 -4.945312 3.128906 -4.90625 2.734375 -4.9375 C 2.578125 -4.945312 2.429688 -4.960938 2.296875 -4.984375 C 2.160156 -5.003906 2.03125 -5.046875 1.90625 -5.109375 Z M 8.71875 -6.734375 C 8.519531 -7.171875 8.269531 -7.59375 7.96875 -8 C 7.664062 -8.40625 7.328125 -8.75 6.953125 -9.03125 C 6.578125 -9.320312 6.160156 -9.53125 5.703125 -9.65625 C 5.253906 -9.78125 4.785156 -9.773438 4.296875 -9.640625 C 3.828125 -9.515625 3.4375 -9.300781 3.125 -9 C 2.8125 -8.695312 2.5625 -8.347656 2.375 -7.953125 C 2.1875 -7.554688 2.054688 -7.125 1.984375 -6.65625 C 1.910156 -6.1875 1.882812 -5.726562 1.90625 -5.28125 C 2.144531 -5.164062 2.421875 -5.097656 2.734375 -5.078125 C 3.117188 -5.046875 3.539062 -5.085938 4 -5.203125 C 4.457031 -5.328125 4.925781 -5.523438 5.40625 -5.796875 C 5.976562 -6.117188 6.550781 -6.347656 7.125 -6.484375 C 7.707031 -6.628906 8.238281 -6.710938 8.71875 -6.734375 Z M 8.71875 -6.734375 "/></g></g></g><g fill="#292929" fill-opacity="1"><g transform="translate(227.057699, 179.44529)"><g><path d="M 9.21875 0 L 7.328125 0 L 7.328125 -5.296875 C 7.234375 -4.679688 7.117188 -4.117188 6.984375 -3.609375 C 6.847656 -3.109375 6.691406 -2.660156 6.515625 -2.265625 C 6.378906 -1.972656 6.222656 -1.6875 6.046875 -1.40625 C 5.867188 -1.132812 5.65625 -0.882812 5.40625 -0.65625 C 5.164062 -0.4375 4.90625 -0.257812 4.625 -0.125 C 4.351562 0.0078125 4.046875 0.078125 3.703125 0.078125 C 3.140625 0.078125 2.679688 -0.0351562 2.328125 -0.265625 C 1.984375 -0.492188 1.710938 -0.789062 1.515625 -1.15625 C 1.316406 -1.53125 1.175781 -1.953125 1.09375 -2.421875 C 1.019531 -2.890625 0.984375 -3.359375 0.984375 -3.828125 L 0.984375 -8.140625 C 0.984375 -8.484375 0.960938 -8.753906 0.921875 -8.953125 C 0.878906 -9.160156 0.832031 -9.316406 0.78125 -9.421875 C 0.738281 -9.535156 0.691406 -9.613281 0.640625 -9.65625 C 0.585938 -9.695312 0.546875 -9.71875 0.515625 -9.71875 L 0.515625 -9.90625 L 2.421875 -9.90625 L 2.421875 -3.828125 C 2.421875 -3.578125 2.429688 -3.273438 2.453125 -2.921875 C 2.484375 -2.578125 2.546875 -2.234375 2.640625 -1.890625 C 2.734375 -1.554688 2.863281 -1.253906 3.03125 -0.984375 C 3.195312 -0.710938 3.425781 -0.53125 3.71875 -0.4375 C 4.007812 -0.332031 4.289062 -0.328125 4.5625 -0.421875 C 4.832031 -0.523438 5.082031 -0.675781 5.3125 -0.875 C 5.539062 -1.082031 5.742188 -1.316406 5.921875 -1.578125 C 6.097656 -1.835938 6.238281 -2.085938 6.34375 -2.328125 C 6.644531 -2.984375 6.882812 -3.785156 7.0625 -4.734375 C 7.238281 -5.691406 7.328125 -6.828125 7.328125 -8.140625 C 7.328125 -8.484375 7.304688 -8.753906 7.265625 -8.953125 C 7.234375 -9.160156 7.191406 -9.316406 7.140625 -9.421875 C 7.085938 -9.535156 7.035156 -9.613281 6.984375 -9.65625 C 6.929688 -9.695312 6.890625 -9.71875 6.859375 -9.71875 L 6.859375 -9.90625 L 8.75 -9.90625 L 8.75 -1.765625 C 8.75 -1.421875 8.765625 -1.144531 8.796875 -0.9375 C 8.835938 -0.738281 8.882812 -0.578125 8.9375 -0.453125 C 8.988281 -0.335938 9.039062 -0.265625 9.09375 -0.234375 C 9.15625 -0.203125 9.195312 -0.1875 9.21875 -0.1875 Z M 9.21875 0 "/></g></g></g><g fill="#292929" fill-opacity="1"><g transform="translate(236.441396, 179.44529)"><g><path d="M 7.90625 -7.9375 C 8.019531 -7.414062 8.160156 -7.175781 8.328125 -7.21875 L 8.390625 -7.046875 L 7.28125 -6.609375 L 7.21875 -6.59375 L 6.140625 -6.1875 L 6.140625 -6.375 C 6.296875 -6.46875 6.398438 -6.617188 6.453125 -6.828125 C 6.503906 -7.046875 6.53125 -7.25 6.53125 -7.4375 C 6.507812 -7.664062 6.472656 -7.894531 6.421875 -8.125 C 6.367188 -8.351562 6.296875 -8.5625 6.203125 -8.75 C 6.109375 -8.945312 5.984375 -9.109375 5.828125 -9.234375 C 5.671875 -9.367188 5.484375 -9.445312 5.265625 -9.46875 C 4.679688 -9.550781 4.210938 -9.523438 3.859375 -9.390625 C 3.503906 -9.253906 3.222656 -9.046875 3.015625 -8.765625 C 2.816406 -8.492188 2.671875 -8.175781 2.578125 -7.8125 C 2.484375 -7.457031 2.429688 -7.085938 2.421875 -6.703125 L 2.421875 -1.765625 C 2.421875 -1.421875 2.4375 -1.144531 2.46875 -0.9375 C 2.507812 -0.738281 2.554688 -0.578125 2.609375 -0.453125 C 2.660156 -0.335938 2.710938 -0.265625 2.765625 -0.234375 C 2.828125 -0.203125 2.867188 -0.1875 2.890625 -0.1875 L 2.890625 0 L 0.515625 0 L 0.515625 -0.1875 C 0.554688 -0.1875 0.601562 -0.203125 0.65625 -0.234375 C 0.707031 -0.265625 0.757812 -0.335938 0.8125 -0.453125 C 0.863281 -0.578125 0.90625 -0.738281 0.9375 -0.9375 C 0.976562 -1.144531 1 -1.421875 1 -1.765625 L 1 -8.140625 C 1 -8.484375 0.976562 -8.753906 0.9375 -8.953125 C 0.90625 -9.160156 0.863281 -9.316406 0.8125 -9.421875 C 0.757812 -9.535156 0.707031 -9.613281 0.65625 -9.65625 C 0.601562 -9.695312 0.554688 -9.71875 0.515625 -9.71875 L 0.515625 -9.90625 L 2.421875 -9.90625 L 2.421875 -7.953125 C 2.492188 -8.242188 2.597656 -8.515625 2.734375 -8.765625 C 2.867188 -9.015625 3.046875 -9.226562 3.265625 -9.40625 C 3.492188 -9.582031 3.773438 -9.722656 4.109375 -9.828125 C 4.441406 -9.929688 4.835938 -9.984375 5.296875 -9.984375 C 6.078125 -9.984375 6.675781 -9.789062 7.09375 -9.40625 C 7.507812 -9.019531 7.78125 -8.53125 7.90625 -7.9375 Z M 7.90625 -7.9375 "/></g></g></g><g fill="#292929" fill-opacity="1"><g transform="translate(168.494362, 192.037255)"><g><path d="M 0.859375 -2.875 L 0.859375 -1.890625 L 2.015625 -1.890625 C 2.078125 -1.890625 2.128906 -1.867188 2.171875 -1.828125 C 2.210938 -1.785156 2.234375 -1.734375 2.234375 -1.671875 C 2.234375 -1.609375 2.210938 -1.554688 2.171875 -1.515625 C 2.128906 -1.484375 2.078125 -1.46875 2.015625 -1.46875 L 0.859375 -1.46875 L 0.859375 -0.21875 C 0.859375 -0.15625 0.832031 -0.101562 0.78125 -0.0625 C 0.738281 -0.0195312 0.6875 0 0.625 0 C 0.5625 0 0.503906 -0.0195312 0.453125 -0.0625 C 0.410156 -0.101562 0.390625 -0.15625 0.390625 -0.21875 L 0.390625 -3.078125 C 0.390625 -3.140625 0.410156 -3.191406 0.453125 -3.234375 C 0.503906 -3.273438 0.5625 -3.296875 0.625 -3.296875 L 2.234375 -3.296875 C 2.296875 -3.296875 2.347656 -3.273438 2.390625 -3.234375 C 2.429688 -3.203125 2.453125 -3.148438 2.453125 -3.078125 C 2.453125 -3.023438 2.429688 -2.976562 2.390625 -2.9375 C 2.347656 -2.894531 2.296875 -2.875 2.234375 -2.875 Z M 0.859375 -2.875 "/></g></g></g><g fill="#292929" fill-opacity="1"><g transform="translate(172.504157, 192.037255)"><g><path d="M 2.90625 -0.375 C 2.9375 -0.351562 2.960938 -0.328125 2.984375 -0.296875 C 3.003906 -0.265625 3.015625 -0.226562 3.015625 -0.1875 C 3.015625 -0.125 2.992188 -0.078125 2.953125 -0.046875 C 2.910156 -0.015625 2.859375 0 2.796875 0 C 2.734375 0 2.679688 -0.0078125 2.640625 -0.03125 C 2.546875 -0.09375 2.46875 -0.179688 2.40625 -0.296875 C 2.351562 -0.421875 2.328125 -0.597656 2.328125 -0.828125 C 2.328125 -0.984375 2.273438 -1.097656 2.171875 -1.171875 C 2.078125 -1.242188 1.957031 -1.28125 1.8125 -1.28125 L 0.859375 -1.28125 L 0.859375 -0.21875 C 0.859375 -0.15625 0.835938 -0.101562 0.796875 -0.0625 C 0.765625 -0.0195312 0.71875 0 0.65625 0 C 0.582031 0 0.519531 -0.0195312 0.46875 -0.0625 C 0.414062 -0.101562 0.390625 -0.15625 0.390625 -0.21875 L 0.390625 -3.078125 C 0.390625 -3.140625 0.410156 -3.191406 0.453125 -3.234375 C 0.503906 -3.273438 0.5625 -3.296875 0.625 -3.296875 L 1.9375 -3.296875 C 2.113281 -3.296875 2.269531 -3.253906 2.40625 -3.171875 C 2.550781 -3.085938 2.664062 -2.972656 2.75 -2.828125 C 2.832031 -2.679688 2.875 -2.519531 2.875 -2.34375 C 2.875 -2.164062 2.828125 -2 2.734375 -1.84375 C 2.640625 -1.695312 2.519531 -1.582031 2.375 -1.5 C 2.488281 -1.445312 2.578125 -1.363281 2.640625 -1.25 C 2.710938 -1.144531 2.753906 -1.019531 2.765625 -0.875 C 2.773438 -0.695312 2.785156 -0.578125 2.796875 -0.515625 C 2.816406 -0.453125 2.851562 -0.40625 2.90625 -0.375 Z M 1.9375 -1.6875 C 2.007812 -1.6875 2.082031 -1.710938 2.15625 -1.765625 C 2.226562 -1.828125 2.285156 -1.90625 2.328125 -2 C 2.367188 -2.09375 2.390625 -2.203125 2.390625 -2.328125 C 2.390625 -2.472656 2.34375 -2.597656 2.25 -2.703125 C 2.164062 -2.816406 2.054688 -2.875 1.921875 -2.875 L 0.859375 -2.875 L 0.859375 -1.6875 Z M 1.9375 -1.6875 "/></g></g></g><g fill="#292929" fill-opacity="1"><g transform="translate(177.060985, 192.037255)"><g><path d="M 3.390625 -1.65625 C 3.390625 -1.332031 3.320312 -1.039062 3.1875 -0.78125 C 3.050781 -0.53125 2.859375 -0.328125 2.609375 -0.171875 C 2.367188 -0.0234375 2.097656 0.046875 1.796875 0.046875 C 1.492188 0.046875 1.21875 -0.0234375 0.96875 -0.171875 C 0.726562 -0.328125 0.539062 -0.53125 0.40625 -0.78125 C 0.269531 -1.039062 0.203125 -1.332031 0.203125 -1.65625 C 0.203125 -1.96875 0.269531 -2.253906 0.40625 -2.515625 C 0.539062 -2.773438 0.726562 -2.976562 0.96875 -3.125 C 1.21875 -3.269531 1.492188 -3.34375 1.796875 -3.34375 C 2.097656 -3.34375 2.367188 -3.269531 2.609375 -3.125 C 2.859375 -2.976562 3.050781 -2.773438 3.1875 -2.515625 C 3.320312 -2.253906 3.390625 -1.96875 3.390625 -1.65625 Z M 2.90625 -1.65625 C 2.90625 -1.882812 2.859375 -2.09375 2.765625 -2.28125 C 2.671875 -2.476562 2.539062 -2.628906 2.375 -2.734375 C 2.207031 -2.847656 2.015625 -2.90625 1.796875 -2.90625 C 1.585938 -2.90625 1.394531 -2.847656 1.21875 -2.734375 C 1.050781 -2.628906 0.921875 -2.484375 0.828125 -2.296875 C 0.734375 -2.109375 0.6875 -1.894531 0.6875 -1.65625 C 0.6875 -1.414062 0.734375 -1.203125 0.828125 -1.015625 C 0.921875 -0.828125 1.050781 -0.675781 1.21875 -0.5625 C 1.394531 -0.457031 1.585938 -0.40625 1.796875 -0.40625 C 2.015625 -0.40625 2.207031 -0.457031 2.375 -0.5625 C 2.539062 -0.675781 2.671875 -0.828125 2.765625 -1.015625 C 2.859375 -1.203125 2.90625 -1.414062 2.90625 -1.65625 Z M 2.90625 -1.65625 "/></g></g></g><g fill="#292929" fill-opacity="1"><g transform="translate(182.004506, 192.037255)"><g><path d="M 2.859375 -3.296875 C 2.921875 -3.296875 2.96875 -3.273438 3 -3.234375 C 3.039062 -3.203125 3.0625 -3.15625 3.0625 -3.09375 L 3.0625 -0.234375 C 3.0625 -0.160156 3.039062 -0.101562 3 -0.0625 C 2.957031 -0.0195312 2.90625 0 2.84375 0 C 2.800781 0 2.765625 -0.00390625 2.734375 -0.015625 C 2.703125 -0.0234375 2.675781 -0.0390625 2.65625 -0.0625 L 0.796875 -2.484375 L 0.796875 -0.203125 C 0.796875 -0.148438 0.773438 -0.101562 0.734375 -0.0625 C 0.703125 -0.0195312 0.65625 0 0.59375 0 C 0.53125 0 0.476562 -0.0195312 0.4375 -0.0625 C 0.40625 -0.101562 0.390625 -0.148438 0.390625 -0.203125 L 0.390625 -3.078125 C 0.390625 -3.140625 0.410156 -3.191406 0.453125 -3.234375 C 0.492188 -3.273438 0.546875 -3.296875 0.609375 -3.296875 C 0.648438 -3.296875 0.6875 -3.289062 0.71875 -3.28125 C 0.757812 -3.269531 0.785156 -3.25 0.796875 -3.21875 L 2.65625 -0.796875 L 2.65625 -3.09375 C 2.65625 -3.15625 2.671875 -3.203125 2.703125 -3.234375 C 2.742188 -3.273438 2.796875 -3.296875 2.859375 -3.296875 Z M 2.859375 -3.296875 "/></g></g></g><g fill="#292929" fill-opacity="1"><g transform="translate(186.806556, 192.037255)"><g><path d="M 2.53125 -3.296875 C 2.601562 -3.296875 2.660156 -3.273438 2.703125 -3.234375 C 2.742188 -3.203125 2.765625 -3.15625 2.765625 -3.09375 C 2.765625 -3.019531 2.742188 -2.960938 2.703125 -2.921875 C 2.660156 -2.890625 2.601562 -2.875 2.53125 -2.875 L 1.6875 -2.875 L 1.6875 -0.21875 C 1.6875 -0.15625 1.664062 -0.101562 1.625 -0.0625 C 1.582031 -0.0195312 1.523438 0 1.453125 0 C 1.378906 0 1.320312 -0.0195312 1.28125 -0.0625 C 1.238281 -0.101562 1.21875 -0.15625 1.21875 -0.21875 L 1.21875 -2.875 L 0.375 -2.875 C 0.3125 -2.875 0.257812 -2.890625 0.21875 -2.921875 C 0.175781 -2.960938 0.15625 -3.019531 0.15625 -3.09375 C 0.15625 -3.15625 0.175781 -3.203125 0.21875 -3.234375 C 0.257812 -3.273438 0.3125 -3.296875 0.375 -3.296875 Z M 2.53125 -3.296875 "/></g></g></g><g fill="#292929" fill-opacity="1"><g transform="translate(191.066289, 192.037255)"><g><path d="M 0.484375 -1.125 C 0.410156 -1.125 0.351562 -1.144531 0.3125 -1.1875 C 0.269531 -1.238281 0.25 -1.296875 0.25 -1.359375 C 0.25 -1.421875 0.269531 -1.472656 0.3125 -1.515625 C 0.351562 -1.554688 0.410156 -1.578125 0.484375 -1.578125 L 1.375 -1.578125 C 1.445312 -1.578125 1.503906 -1.554688 1.546875 -1.515625 C 1.585938 -1.472656 1.609375 -1.414062 1.609375 -1.34375 C 1.609375 -1.28125 1.585938 -1.226562 1.546875 -1.1875 C 1.503906 -1.144531 1.445312 -1.125 1.375 -1.125 Z M 0.484375 -1.125 "/></g></g></g><g fill="#292929" fill-opacity="1"><g transform="translate(194.274399, 192.037255)"><g><path d="M 2.265625 -0.4375 C 2.328125 -0.4375 2.378906 -0.410156 2.421875 -0.359375 C 2.460938 -0.316406 2.484375 -0.269531 2.484375 -0.21875 C 2.484375 -0.15625 2.460938 -0.101562 2.421875 -0.0625 C 2.378906 -0.0195312 2.328125 0 2.265625 0 L 0.625 0 C 0.5625 0 0.503906 -0.0195312 0.453125 -0.0625 C 0.410156 -0.101562 0.390625 -0.15625 0.390625 -0.21875 L 0.390625 -3.078125 C 0.390625 -3.140625 0.410156 -3.191406 0.453125 -3.234375 C 0.503906 -3.273438 0.5625 -3.296875 0.625 -3.296875 L 2.265625 -3.296875 C 2.328125 -3.296875 2.378906 -3.273438 2.421875 -3.234375 C 2.460938 -3.203125 2.484375 -3.148438 2.484375 -3.078125 C 2.484375 -3.015625 2.460938 -2.960938 2.421875 -2.921875 C 2.378906 -2.890625 2.328125 -2.875 2.265625 -2.875 L 0.859375 -2.875 L 0.859375 -1.90625 L 2.046875 -1.90625 C 2.109375 -1.90625 2.160156 -1.882812 2.203125 -1.84375 C 2.253906 -1.800781 2.28125 -1.75 2.28125 -1.6875 C 2.28125 -1.625 2.253906 -1.570312 2.203125 -1.53125 C 2.160156 -1.5 2.109375 -1.484375 2.046875 -1.484375 L 0.859375 -1.484375 L 0.859375 -0.4375 Z M 2.265625 -0.4375 "/></g></g></g><g fill="#292929" fill-opacity="1"><g transform="translate(198.312487, 192.037255)"><g><path d="M 2.859375 -3.296875 C 2.921875 -3.296875 2.96875 -3.273438 3 -3.234375 C 3.039062 -3.203125 3.0625 -3.15625 3.0625 -3.09375 L 3.0625 -0.234375 C 3.0625 -0.160156 3.039062 -0.101562 3 -0.0625 C 2.957031 -0.0195312 2.90625 0 2.84375 0 C 2.800781 0 2.765625 -0.00390625 2.734375 -0.015625 C 2.703125 -0.0234375 2.675781 -0.0390625 2.65625 -0.0625 L 0.796875 -2.484375 L 0.796875 -0.203125 C 0.796875 -0.148438 0.773438 -0.101562 0.734375 -0.0625 C 0.703125 -0.0195312 0.65625 0 0.59375 0 C 0.53125 0 0.476562 -0.0195312 0.4375 -0.0625 C 0.40625 -0.101562 0.390625 -0.148438 0.390625 -0.203125 L 0.390625 -3.078125 C 0.390625 -3.140625 0.410156 -3.191406 0.453125 -3.234375 C 0.492188 -3.273438 0.546875 -3.296875 0.609375 -3.296875 C 0.648438 -3.296875 0.6875 -3.289062 0.71875 -3.28125 C 0.757812 -3.269531 0.785156 -3.25 0.796875 -3.21875 L 2.65625 -0.796875 L 2.65625 -3.09375 C 2.65625 -3.15625 2.671875 -3.203125 2.703125 -3.234375 C 2.742188 -3.273438 2.796875 -3.296875 2.859375 -3.296875 Z M 2.859375 -3.296875 "/></g></g></g><g fill="#292929" fill-opacity="1"><g transform="translate(203.114537, 192.037255)"><g><path d="M 1.78125 -3.296875 C 2.070312 -3.296875 2.320312 -3.222656 2.53125 -3.078125 C 2.75 -2.929688 2.910156 -2.734375 3.015625 -2.484375 C 3.117188 -2.234375 3.171875 -1.957031 3.171875 -1.65625 C 3.171875 -1.34375 3.117188 -1.0625 3.015625 -0.8125 C 2.910156 -0.5625 2.75 -0.363281 2.53125 -0.21875 C 2.320312 -0.0703125 2.070312 0 1.78125 0 L 0.625 0 C 0.5625 0 0.503906 -0.0195312 0.453125 -0.0625 C 0.410156 -0.101562 0.390625 -0.15625 0.390625 -0.21875 L 0.390625 -3.078125 C 0.390625 -3.140625 0.410156 -3.191406 0.453125 -3.234375 C 0.503906 -3.273438 0.5625 -3.296875 0.625 -3.296875 Z M 1.734375 -0.4375 C 2.054688 -0.4375 2.296875 -0.550781 2.453125 -0.78125 C 2.609375 -1.007812 2.6875 -1.300781 2.6875 -1.65625 C 2.6875 -2.007812 2.601562 -2.300781 2.4375 -2.53125 C 2.28125 -2.757812 2.046875 -2.875 1.734375 -2.875 L 0.859375 -2.875 L 0.859375 -0.4375 Z M 1.734375 -0.4375 "/></g></g></g><g fill="#292929" fill-opacity="1"><g transform="translate(181.974347, 250.835057)"><g><path d="M 1.3125 0.046875 C 1.09375 0.046875 0.898438 0.015625 0.734375 -0.046875 C 0.566406 -0.109375 0.410156 -0.207031 0.265625 -0.34375 C 0.203125 -0.394531 0.171875 -0.457031 0.171875 -0.53125 C 0.171875 -0.582031 0.191406 -0.628906 0.234375 -0.671875 C 0.273438 -0.710938 0.320312 -0.734375 0.375 -0.734375 C 0.425781 -0.734375 0.46875 -0.71875 0.5 -0.6875 C 0.625 -0.570312 0.75 -0.488281 0.875 -0.4375 C 1 -0.382812 1.144531 -0.359375 1.3125 -0.359375 C 1.488281 -0.359375 1.640625 -0.398438 1.765625 -0.484375 C 1.898438 -0.578125 1.96875 -0.6875 1.96875 -0.8125 C 1.96875 -0.96875 1.90625 -1.085938 1.78125 -1.171875 C 1.65625 -1.265625 1.460938 -1.335938 1.203125 -1.390625 C 0.898438 -1.453125 0.664062 -1.550781 0.5 -1.6875 C 0.332031 -1.832031 0.25 -2.03125 0.25 -2.28125 C 0.25 -2.457031 0.296875 -2.613281 0.390625 -2.75 C 0.484375 -2.882812 0.609375 -2.984375 0.765625 -3.046875 C 0.929688 -3.117188 1.117188 -3.15625 1.328125 -3.15625 C 1.503906 -3.15625 1.675781 -3.125 1.84375 -3.0625 C 2.007812 -3.007812 2.140625 -2.9375 2.234375 -2.84375 C 2.304688 -2.78125 2.34375 -2.710938 2.34375 -2.640625 C 2.34375 -2.585938 2.320312 -2.539062 2.28125 -2.5 C 2.238281 -2.457031 2.191406 -2.4375 2.140625 -2.4375 C 2.097656 -2.4375 2.0625 -2.445312 2.03125 -2.46875 C 1.957031 -2.550781 1.851562 -2.617188 1.71875 -2.671875 C 1.582031 -2.722656 1.453125 -2.75 1.328125 -2.75 C 1.128906 -2.75 0.96875 -2.707031 0.84375 -2.625 C 0.726562 -2.539062 0.671875 -2.4375 0.671875 -2.3125 C 0.671875 -2.164062 0.726562 -2.050781 0.84375 -1.96875 C 0.96875 -1.894531 1.144531 -1.832031 1.375 -1.78125 C 1.601562 -1.726562 1.789062 -1.664062 1.9375 -1.59375 C 2.082031 -1.53125 2.195312 -1.4375 2.28125 -1.3125 C 2.363281 -1.1875 2.40625 -1.03125 2.40625 -0.84375 C 2.40625 -0.664062 2.351562 -0.507812 2.25 -0.375 C 2.15625 -0.238281 2.023438 -0.132812 1.859375 -0.0625 C 1.691406 0.0078125 1.507812 0.046875 1.3125 0.046875 Z M 1.3125 0.046875 "/></g></g></g><g fill="#292929" fill-opacity="1"><g transform="translate(184.562127, 250.835057)"><g><path d="M 0.71875 -0.21875 C 0.71875 -0.15625 0.695312 -0.101562 0.65625 -0.0625 C 0.613281 -0.0195312 0.5625 0 0.5 0 C 0.445312 0 0.398438 -0.0195312 0.359375 -0.0625 C 0.316406 -0.101562 0.296875 -0.15625 0.296875 -0.21875 L 0.296875 -2.140625 C 0.296875 -2.203125 0.316406 -2.253906 0.359375 -2.296875 C 0.398438 -2.335938 0.445312 -2.359375 0.5 -2.359375 C 0.5625 -2.359375 0.613281 -2.335938 0.65625 -2.296875 C 0.695312 -2.253906 0.71875 -2.203125 0.71875 -2.140625 Z M 0.5 -2.65625 C 0.414062 -2.65625 0.351562 -2.671875 0.3125 -2.703125 C 0.28125 -2.734375 0.265625 -2.78125 0.265625 -2.84375 L 0.265625 -2.921875 C 0.265625 -2.992188 0.285156 -3.039062 0.328125 -3.0625 C 0.367188 -3.09375 0.429688 -3.109375 0.515625 -3.109375 C 0.597656 -3.109375 0.65625 -3.09375 0.6875 -3.0625 C 0.726562 -3.03125 0.75 -2.984375 0.75 -2.921875 L 0.75 -2.84375 C 0.75 -2.769531 0.726562 -2.71875 0.6875 -2.6875 C 0.644531 -2.664062 0.582031 -2.65625 0.5 -2.65625 Z M 0.5 -2.65625 "/></g></g></g><g fill="#292929" fill-opacity="1"><g transform="translate(185.571448, 250.835057)"><g><path d="M 1.5 -2.390625 C 2.039062 -2.390625 2.3125 -2.066406 2.3125 -1.421875 L 2.3125 -0.21875 C 2.3125 -0.15625 2.289062 -0.101562 2.25 -0.0625 C 2.207031 -0.0195312 2.15625 0 2.09375 0 C 2.03125 0 1.976562 -0.0195312 1.9375 -0.0625 C 1.90625 -0.101562 1.890625 -0.15625 1.890625 -0.21875 L 1.890625 -1.421875 C 1.890625 -1.597656 1.847656 -1.738281 1.765625 -1.84375 C 1.679688 -1.945312 1.550781 -2 1.375 -2 C 1.25 -2 1.140625 -1.972656 1.046875 -1.921875 C 0.953125 -1.867188 0.875 -1.796875 0.8125 -1.703125 C 0.757812 -1.617188 0.734375 -1.523438 0.734375 -1.421875 L 0.734375 -0.21875 C 0.734375 -0.15625 0.710938 -0.101562 0.671875 -0.0625 C 0.640625 -0.0195312 0.59375 0 0.53125 0 C 0.46875 0 0.414062 -0.0195312 0.375 -0.0625 C 0.332031 -0.101562 0.3125 -0.15625 0.3125 -0.21875 L 0.3125 -2.125 C 0.3125 -2.175781 0.332031 -2.222656 0.375 -2.265625 C 0.414062 -2.304688 0.46875 -2.328125 0.53125 -2.328125 C 0.59375 -2.328125 0.640625 -2.304688 0.671875 -2.265625 C 0.710938 -2.222656 0.734375 -2.175781 0.734375 -2.125 L 0.734375 -1.96875 C 0.816406 -2.082031 0.925781 -2.179688 1.0625 -2.265625 C 1.195312 -2.347656 1.34375 -2.390625 1.5 -2.390625 Z M 1.5 -2.390625 "/></g></g></g><g fill="#292929" fill-opacity="1"><g transform="translate(188.190352, 250.835057)"><g><path d="M 1.328125 -2.390625 C 1.566406 -2.390625 1.765625 -2.351562 1.921875 -2.28125 C 2.078125 -2.207031 2.15625 -2.109375 2.15625 -1.984375 C 2.15625 -1.941406 2.132812 -1.898438 2.09375 -1.859375 C 2.0625 -1.816406 2.023438 -1.796875 1.984375 -1.796875 C 1.941406 -1.796875 1.910156 -1.800781 1.890625 -1.8125 C 1.867188 -1.820312 1.835938 -1.84375 1.796875 -1.875 C 1.773438 -1.882812 1.742188 -1.90625 1.703125 -1.9375 C 1.671875 -1.945312 1.617188 -1.957031 1.546875 -1.96875 C 1.484375 -1.988281 1.425781 -2 1.375 -2 C 1.226562 -2 1.09375 -1.960938 0.96875 -1.890625 C 0.851562 -1.816406 0.757812 -1.71875 0.6875 -1.59375 C 0.625 -1.46875 0.59375 -1.328125 0.59375 -1.171875 C 0.59375 -1.015625 0.625 -0.875 0.6875 -0.75 C 0.75 -0.625 0.835938 -0.523438 0.953125 -0.453125 C 1.078125 -0.378906 1.210938 -0.34375 1.359375 -0.34375 C 1.515625 -0.34375 1.640625 -0.367188 1.734375 -0.421875 C 1.753906 -0.429688 1.78125 -0.445312 1.8125 -0.46875 C 1.84375 -0.5 1.867188 -0.519531 1.890625 -0.53125 C 1.910156 -0.539062 1.941406 -0.546875 1.984375 -0.546875 C 2.035156 -0.546875 2.078125 -0.523438 2.109375 -0.484375 C 2.148438 -0.453125 2.171875 -0.40625 2.171875 -0.34375 C 2.171875 -0.28125 2.128906 -0.21875 2.046875 -0.15625 C 1.972656 -0.101562 1.867188 -0.0546875 1.734375 -0.015625 C 1.597656 0.0234375 1.457031 0.046875 1.3125 0.046875 C 1.082031 0.046875 0.878906 -0.00390625 0.703125 -0.109375 C 0.535156 -0.210938 0.40625 -0.359375 0.3125 -0.546875 C 0.21875 -0.734375 0.171875 -0.941406 0.171875 -1.171875 C 0.171875 -1.398438 0.21875 -1.609375 0.3125 -1.796875 C 0.414062 -1.984375 0.554688 -2.128906 0.734375 -2.234375 C 0.910156 -2.335938 1.109375 -2.390625 1.328125 -2.390625 Z M 1.328125 -2.390625 "/></g></g></g><g fill="#292929" fill-opacity="1"><g transform="translate(190.475778, 250.835057)"><g><path d="M 2.359375 -1.25 C 2.359375 -1.195312 2.335938 -1.148438 2.296875 -1.109375 C 2.253906 -1.078125 2.207031 -1.0625 2.15625 -1.0625 L 0.578125 -1.0625 C 0.597656 -0.84375 0.679688 -0.664062 0.828125 -0.53125 C 0.972656 -0.40625 1.148438 -0.34375 1.359375 -0.34375 C 1.503906 -0.34375 1.617188 -0.363281 1.703125 -0.40625 C 1.796875 -0.445312 1.875 -0.5 1.9375 -0.5625 C 1.988281 -0.59375 2.035156 -0.609375 2.078125 -0.609375 C 2.117188 -0.609375 2.15625 -0.585938 2.1875 -0.546875 C 2.226562 -0.515625 2.25 -0.476562 2.25 -0.4375 C 2.25 -0.375 2.21875 -0.316406 2.15625 -0.265625 C 2.070312 -0.179688 1.957031 -0.109375 1.8125 -0.046875 C 1.675781 0.015625 1.53125 0.046875 1.375 0.046875 C 1.132812 0.046875 0.921875 -0.00390625 0.734375 -0.109375 C 0.554688 -0.210938 0.414062 -0.351562 0.3125 -0.53125 C 0.21875 -0.707031 0.171875 -0.910156 0.171875 -1.140625 C 0.171875 -1.390625 0.222656 -1.609375 0.328125 -1.796875 C 0.429688 -1.984375 0.566406 -2.128906 0.734375 -2.234375 C 0.898438 -2.335938 1.082031 -2.390625 1.28125 -2.390625 C 1.46875 -2.390625 1.644531 -2.335938 1.8125 -2.234375 C 1.976562 -2.140625 2.109375 -2.003906 2.203125 -1.828125 C 2.304688 -1.660156 2.359375 -1.46875 2.359375 -1.25 Z M 1.28125 -2 C 1.113281 -2 0.96875 -1.953125 0.84375 -1.859375 C 0.71875 -1.765625 0.632812 -1.617188 0.59375 -1.421875 L 1.921875 -1.421875 L 1.921875 -1.453125 C 1.898438 -1.609375 1.828125 -1.738281 1.703125 -1.84375 C 1.578125 -1.945312 1.4375 -2 1.28125 -2 Z M 1.28125 -2 "/></g></g></g><g fill="#292929" fill-opacity="1"><g transform="translate(182.547506, 255.28138)"><g><path d="M 2.078125 -0.390625 C 2.140625 -0.390625 2.1875 -0.367188 2.21875 -0.328125 C 2.257812 -0.296875 2.28125 -0.25 2.28125 -0.1875 C 2.28125 -0.132812 2.257812 -0.0859375 2.21875 -0.046875 C 2.1875 -0.015625 2.140625 0 2.078125 0 L 0.5 0 C 0.445312 0 0.398438 -0.015625 0.359375 -0.046875 C 0.316406 -0.0859375 0.296875 -0.140625 0.296875 -0.203125 C 0.296875 -0.253906 0.316406 -0.304688 0.359375 -0.359375 L 1.359375 -1.4375 C 1.628906 -1.726562 1.765625 -1.988281 1.765625 -2.21875 C 1.765625 -2.375 1.710938 -2.503906 1.609375 -2.609375 C 1.503906 -2.710938 1.367188 -2.765625 1.203125 -2.765625 C 1.097656 -2.765625 0.992188 -2.734375 0.890625 -2.671875 C 0.785156 -2.609375 0.703125 -2.519531 0.640625 -2.40625 C 0.597656 -2.34375 0.539062 -2.3125 0.46875 -2.3125 C 0.425781 -2.3125 0.378906 -2.332031 0.328125 -2.375 C 0.285156 -2.414062 0.265625 -2.457031 0.265625 -2.5 C 0.265625 -2.539062 0.273438 -2.578125 0.296875 -2.609375 C 0.316406 -2.640625 0.347656 -2.679688 0.390625 -2.734375 C 0.492188 -2.867188 0.617188 -2.972656 0.765625 -3.046875 C 0.921875 -3.117188 1.078125 -3.15625 1.234375 -3.15625 C 1.429688 -3.15625 1.601562 -3.113281 1.75 -3.03125 C 1.894531 -2.957031 2.003906 -2.847656 2.078125 -2.703125 C 2.160156 -2.566406 2.203125 -2.410156 2.203125 -2.234375 C 2.203125 -1.890625 2.015625 -1.519531 1.640625 -1.125 L 0.96875 -0.390625 Z M 2.078125 -0.390625 "/></g></g></g><g fill="#292929" fill-opacity="1"><g transform="translate(184.988553, 255.28138)"><g><path d="M 1.34375 0.046875 C 1.101562 0.046875 0.894531 -0.0195312 0.71875 -0.15625 C 0.550781 -0.289062 0.421875 -0.476562 0.328125 -0.71875 C 0.242188 -0.96875 0.203125 -1.25 0.203125 -1.5625 C 0.203125 -1.875 0.242188 -2.148438 0.328125 -2.390625 C 0.421875 -2.628906 0.550781 -2.816406 0.71875 -2.953125 C 0.894531 -3.085938 1.101562 -3.15625 1.34375 -3.15625 C 1.59375 -3.15625 1.800781 -3.085938 1.96875 -2.953125 C 2.144531 -2.816406 2.273438 -2.628906 2.359375 -2.390625 C 2.453125 -2.148438 2.5 -1.875 2.5 -1.5625 C 2.5 -1.25 2.453125 -0.96875 2.359375 -0.71875 C 2.273438 -0.476562 2.144531 -0.289062 1.96875 -0.15625 C 1.800781 -0.0195312 1.59375 0.046875 1.34375 0.046875 Z M 1.34375 -0.390625 C 1.5625 -0.390625 1.726562 -0.488281 1.84375 -0.6875 C 1.96875 -0.894531 2.03125 -1.1875 2.03125 -1.5625 C 2.03125 -1.9375 1.96875 -2.222656 1.84375 -2.421875 C 1.726562 -2.628906 1.5625 -2.734375 1.34375 -2.734375 C 1.132812 -2.734375 0.96875 -2.628906 0.84375 -2.421875 C 0.71875 -2.222656 0.65625 -1.9375 0.65625 -1.5625 C 0.65625 -1.1875 0.71875 -0.894531 0.84375 -0.6875 C 0.96875 -0.488281 1.132812 -0.390625 1.34375 -0.390625 Z M 1.34375 -0.390625 "/></g></g></g><g fill="#292929" fill-opacity="1"><g transform="translate(187.683043, 255.28138)"><g><path d="M 2.078125 -0.390625 C 2.140625 -0.390625 2.1875 -0.367188 2.21875 -0.328125 C 2.257812 -0.296875 2.28125 -0.25 2.28125 -0.1875 C 2.28125 -0.132812 2.257812 -0.0859375 2.21875 -0.046875 C 2.1875 -0.015625 2.140625 0 2.078125 0 L 0.5 0 C 0.445312 0 0.398438 -0.015625 0.359375 -0.046875 C 0.316406 -0.0859375 0.296875 -0.140625 0.296875 -0.203125 C 0.296875 -0.253906 0.316406 -0.304688 0.359375 -0.359375 L 1.359375 -1.4375 C 1.628906 -1.726562 1.765625 -1.988281 1.765625 -2.21875 C 1.765625 -2.375 1.710938 -2.503906 1.609375 -2.609375 C 1.503906 -2.710938 1.367188 -2.765625 1.203125 -2.765625 C 1.097656 -2.765625 0.992188 -2.734375 0.890625 -2.671875 C 0.785156 -2.609375 0.703125 -2.519531 0.640625 -2.40625 C 0.597656 -2.34375 0.539062 -2.3125 0.46875 -2.3125 C 0.425781 -2.3125 0.378906 -2.332031 0.328125 -2.375 C 0.285156 -2.414062 0.265625 -2.457031 0.265625 -2.5 C 0.265625 -2.539062 0.273438 -2.578125 0.296875 -2.609375 C 0.316406 -2.640625 0.347656 -2.679688 0.390625 -2.734375 C 0.492188 -2.867188 0.617188 -2.972656 0.765625 -3.046875 C 0.921875 -3.117188 1.078125 -3.15625 1.234375 -3.15625 C 1.429688 -3.15625 1.601562 -3.113281 1.75 -3.03125 C 1.894531 -2.957031 2.003906 -2.847656 2.078125 -2.703125 C 2.160156 -2.566406 2.203125 -2.410156 2.203125 -2.234375 C 2.203125 -1.890625 2.015625 -1.519531 1.640625 -1.125 L 0.96875 -0.390625 Z M 2.078125 -0.390625 "/></g></g></g><g fill="#292929" fill-opacity="1"><g transform="translate(190.12409, 255.28138)"><g><path d="M 1.21875 -1.96875 C 1.394531 -1.96875 1.550781 -1.925781 1.6875 -1.84375 C 1.820312 -1.757812 1.925781 -1.644531 2 -1.5 C 2.070312 -1.351562 2.109375 -1.191406 2.109375 -1.015625 C 2.109375 -0.796875 2.0625 -0.609375 1.96875 -0.453125 C 1.875 -0.296875 1.738281 -0.171875 1.5625 -0.078125 C 1.394531 0.00390625 1.195312 0.046875 0.96875 0.046875 C 0.851562 0.046875 0.738281 0.03125 0.625 0 C 0.507812 -0.03125 0.414062 -0.078125 0.34375 -0.140625 C 0.257812 -0.191406 0.21875 -0.253906 0.21875 -0.328125 C 0.21875 -0.390625 0.238281 -0.441406 0.28125 -0.484375 C 0.320312 -0.535156 0.367188 -0.5625 0.421875 -0.5625 C 0.472656 -0.5625 0.523438 -0.539062 0.578125 -0.5 C 0.703125 -0.382812 0.859375 -0.328125 1.046875 -0.328125 C 1.160156 -0.328125 1.265625 -0.351562 1.359375 -0.40625 C 1.460938 -0.457031 1.539062 -0.53125 1.59375 -0.625 C 1.65625 -0.726562 1.6875 -0.847656 1.6875 -0.984375 C 1.6875 -1.179688 1.628906 -1.328125 1.515625 -1.421875 C 1.398438 -1.523438 1.257812 -1.578125 1.09375 -1.578125 C 1.039062 -1.578125 0.96875 -1.566406 0.875 -1.546875 C 0.8125 -1.535156 0.765625 -1.53125 0.734375 -1.53125 C 0.679688 -1.53125 0.640625 -1.546875 0.609375 -1.578125 C 0.578125 -1.617188 0.5625 -1.664062 0.5625 -1.71875 C 0.5625 -1.75 0.566406 -1.773438 0.578125 -1.796875 C 0.585938 -1.828125 0.601562 -1.859375 0.625 -1.890625 L 1.390625 -2.71875 L 0.359375 -2.71875 C 0.304688 -2.71875 0.257812 -2.738281 0.21875 -2.78125 C 0.175781 -2.820312 0.15625 -2.867188 0.15625 -2.921875 C 0.15625 -2.984375 0.175781 -3.03125 0.21875 -3.0625 C 0.257812 -3.101562 0.304688 -3.125 0.359375 -3.125 L 1.78125 -3.125 C 1.851562 -3.125 1.90625 -3.101562 1.9375 -3.0625 C 1.976562 -3.019531 2 -2.96875 2 -2.90625 C 2 -2.851562 1.972656 -2.796875 1.921875 -2.734375 Z M 1.21875 -1.96875 "/></g></g></g></svg>