<svg xmlns="http://www.w3.org/2000/svg" xmlns:xlink="http://www.w3.org/1999/xlink" width="500" zoomAndPan="magnify" viewBox="0 0 375 374.999991" height="500" preserveAspectRatio="xMidYMid meet" version="1.0"><defs><g/><clipPath id="2b899e0b65"><path d="M 99.890625 166.792969 L 275.390625 166.792969 L 275.390625 204.292969 L 99.890625 204.292969 Z M 99.890625 166.792969 " clip-rule="nonzero"/></clipPath></defs><rect x="-37.5" width="450" fill="#ffffff" y="-37.499999" height="449.999989" fill-opacity="1"/><rect x="-37.5" width="450" fill="#303034" y="-37.499999" height="449.999989" fill-opacity="1"/><g clip-path="url(#2b899e0b65)"><path fill="#0097b2" d="M 244.289062 173.46875 C 246.894531 173.339844 249.484375 173.140625 252.085938 172.980469 C 257.296875 172.695312 262.457031 172.21875 267.636719 171.824219 C 267.386719 173.148438 267.144531 174.53125 267.898438 175.671875 C 267.898438 175.671875 268.699219 175.566406 269.691406 175.375 C 270.6875 175.195312 271.878906 174.980469 272.675781 174.835938 C 279.410156 176.796875 278.480469 181.402344 275.527344 185.109375 C 274.757812 185.894531 273.890625 186.777344 272.902344 187.679688 C 272.074219 187.699219 271.242188 187.71875 270.417969 187.734375 C 266.671875 187.835938 262.984375 188.015625 259.261719 188.328125 C 255.5625 188.554688 251.847656 188.855469 248.085938 189.1875 C 240.570312 189.769531 238.347656 190.429688 230.222656 190.53125 C 218.828125 190.351562 241.539062 189.648438 230.222656 190.53125 C 243.660156 190.0625 221.816406 191.496094 235.488281 190.75 C 238.910156 190.578125 236.84375 190.410156 240.242188 190.238281 C 243.648438 190.117188 247.042969 189.992188 250.414062 189.871094 C 253.800781 189.746094 257.152344 189.734375 260.511719 189.679688 C 263.878906 189.601562 267.207031 189.625 270.550781 189.660156 C 268.03125 191.546875 264.980469 193.148438 261.277344 193.683594 C 252.453125 194.257812 243.75 194.828125 235.117188 195.390625 C 235.078125 194.757812 228.371094 195.910156 222.441406 196.289062 C 216.515625 196.625 210.675781 195.464844 204.796875 195.601562 C 193.035156 195.910156 169.621094 199.546875 169.457031 199.964844 C 169.398438 199.96875 169.34375 199.972656 169.285156 199.980469 C 169.34375 199.972656 169.398438 199.96875 169.457031 199.964844 C 169.3125 200.332031 169.421875 200.597656 170.933594 200.492188 C 169.421875 200.597656 169.3125 200.332031 169.457031 199.964844 C 193.308594 197.671875 210.15625 196.585938 234.136719 195.464844 C 215.539062 196.703125 202.84375 198.164062 184.550781 199.679688 C 166.261719 201.183594 147.871094 202.707031 128.898438 203.867188 C 127.285156 203.96875 124.046875 204.164062 122.429688 204.261719 C 115.894531 202.765625 109.394531 202.515625 102.941406 202.882812 C 104.445312 199.652344 97.757812 193.75 110.730469 194.257812 C 110.707031 193.632812 110.664062 192.375 110.640625 191.75 C 104.109375 190.554688 99.617188 187.820312 98.183594 185.003906 C 97.523438 183.601562 97.605469 182.144531 98.789062 180.847656 C 100.019531 179.542969 102.070312 178.40625 105.285156 177.59375 C 119.710938 174.25 139.152344 175.59375 156.828125 173.144531 C 169.695312 171.660156 182.546875 170.113281 195.472656 170.371094 C 213.265625 170.882812 227.039062 168.621094 244.777344 169.183594 C 247.992188 169.132812 252.351562 168.28125 256.324219 167.652344 C 260.277344 166.980469 263.808594 166.441406 265.480469 167.164062 C 267.832031 167.738281 268.058594 169.050781 267.851562 170.582031 C 262.617188 171.210938 257.410156 171.929688 252.15625 172.425781 C 249.535156 172.691406 246.925781 172.992188 244.308594 173.214844 C 241.691406 173.433594 239.082031 173.644531 236.476562 173.859375 " fill-opacity="1" fill-rule="nonzero"/></g><g fill="#d9d9d9" fill-opacity="1"><g transform="translate(123.810034, 189.182389)"><g><path d="M 19.023438 -20.199219 C 18.910156 -21.144531 18.535156 -22.691406 17.332031 -22.691406 C 16.417969 -22.691406 15.300781 -21.285156 14.726562 -20.683594 C 13.320312 -19.222656 12.03125 -17.589844 10.800781 -15.929688 C 8.195312 -12.40625 5.816406 -8.59375 4.011719 -4.582031 C 4.871094 -7.105469 5.585938 -9.710938 6.5625 -12.175781 C 6.589844 -12.289062 8.480469 -16.761719 8.910156 -17.503906 C 8.625 -17.046875 7.765625 -15.214844 7.363281 -14.382812 C 8.109375 -16.042969 8.910156 -17.707031 9.742188 -19.308594 C 9.65625 -19.136719 9.539062 -18.851562 9.570312 -18.851562 C 9.683594 -18.824219 10.285156 -19.996094 10.199219 -20.027344 L 10.085938 -19.941406 C 10.257812 -20.199219 10.371094 -20.339844 10.226562 -20.742188 C 10.027344 -21.230469 9.484375 -21.800781 8.96875 -21.886719 C 8.195312 -22.003906 7.679688 -21.257812 7.363281 -20.65625 C 7.191406 -20.3125 6.875 -20.113281 6.648438 -19.710938 C 6.273438 -19.109375 6.015625 -18.449219 5.757812 -17.792969 C 5.617188 -17.503906 4.066406 -13.867188 4.152344 -13.835938 L 4.238281 -13.953125 C 4.125 -13.695312 4.066406 -13.40625 3.953125 -13.148438 C 3.925781 -13.179688 4.039062 -13.378906 3.980469 -13.40625 C 3.722656 -13.464844 2.894531 -10.859375 2.863281 -10.65625 C 2.75 -10.054688 2.605469 -9.511719 2.40625 -8.9375 C 2.261719 -8.566406 2.121094 -8.195312 2.035156 -7.792969 C 2.035156 -7.765625 1.917969 -7.164062 1.976562 -7.191406 L 1.976562 -7.046875 C 1.949219 -7.078125 1.949219 -7.132812 1.949219 -7.164062 C 1.863281 -7.132812 1.71875 -6.1875 1.691406 -6.101562 C 1.488281 -5.617188 1.261719 -5.15625 1.117188 -4.640625 C 0.714844 -3.238281 0.542969 -1.804688 0.34375 -0.371094 C 0.199219 0.542969 -0.316406 2.175781 0.257812 3.007812 C 0.660156 3.582031 2.035156 4.125 2.578125 3.410156 C 2.808594 3.152344 2.75 2.664062 2.808594 2.40625 C 2.980469 0.972656 3.351562 -0.199219 3.894531 -1.546875 C 5.011719 -4.296875 6.390625 -6.960938 7.9375 -9.511719 C 9.226562 -11.574219 10.429688 -13.722656 11.945312 -15.644531 C 12.890625 -16.847656 13.835938 -18.050781 14.867188 -19.167969 C 15.097656 -19.425781 16.101562 -20.65625 16.558594 -20.484375 C 17.132812 -20.285156 16.589844 -18.308594 16.503906 -17.90625 C 16.1875 -16.472656 15.785156 -15.039062 15.300781 -13.636719 C 14.496094 -11.34375 13.75 -8.996094 12.777344 -6.820312 C 12.148438 -5.414062 11.429688 -4.039062 10.6875 -2.722656 C 10.054688 -1.660156 9.167969 0.171875 7.820312 0.515625 C 6.273438 0.886719 5.242188 -1.402344 4.726562 -2.519531 C 4.726562 -0.488281 5.929688 1.632812 8.109375 2.003906 C 10.3125 2.378906 12.203125 0.0585938 13.320312 -1.519531 C 14.210938 -2.75 15.011719 -4.125 15.644531 -5.5 C 15.785156 -5.84375 15.816406 -6.1875 15.902344 -6.503906 C 16.042969 -7.046875 16.445312 -7.5625 16.675781 -8.078125 C 17.304688 -9.511719 17.847656 -10.914062 18.277344 -12.40625 C 18.507812 -13.121094 18.707031 -13.835938 18.851562 -14.582031 C 18.910156 -14.867188 18.964844 -15.214844 18.996094 -15.5 C 18.996094 -15.671875 18.878906 -15.929688 18.878906 -15.988281 C 18.851562 -16.675781 19.082031 -17.390625 19.109375 -18.105469 C 19.136719 -18.792969 19.109375 -19.511719 19.023438 -20.199219 Z M 3.496094 -10 C 3.582031 -10.6875 3.925781 -11.429688 4.183594 -12.089844 C 4.496094 -12.949219 4.8125 -13.75 5.242188 -14.582031 C 5.789062 -15.671875 6.304688 -16.789062 6.933594 -17.847656 C 6.875 -17.707031 6.847656 -17.417969 6.761719 -17.246094 C 6.648438 -16.988281 6.476562 -16.730469 6.359375 -16.445312 C 6.074219 -15.816406 5.816406 -15.183594 5.5 -14.554688 C 5.101562 -13.722656 4.726562 -12.921875 4.382812 -12.089844 C 4.183594 -11.632812 4.039062 -11.171875 3.867188 -10.714844 C 3.78125 -10.429688 3.695312 -9.828125 3.523438 -9.625 C 3.464844 -9.570312 3.496094 -10 3.496094 -10 Z M 12.519531 -4.640625 C 12.433594 -4.496094 12.347656 -4.355469 12.289062 -4.210938 L 12.148438 -3.925781 C 12.117188 -3.925781 12.117188 -3.894531 12.117188 -3.867188 C 11.574219 -2.863281 10.972656 -1.832031 10.34375 -0.917969 C 10.257812 -0.800781 8.453125 1.488281 8.195312 0.886719 C 8.164062 0.800781 8.765625 0.6875 8.796875 0.660156 C 9.195312 0.457031 9.539062 0.0273438 9.828125 -0.316406 C 10.515625 -1.203125 11.117188 -2.207031 11.660156 -3.179688 C 12.117188 -3.980469 12.546875 -4.785156 12.921875 -5.585938 L 12.691406 -5.042969 C 12.804688 -5.273438 12.890625 -5.5 12.976562 -5.730469 L 13.148438 -6.132812 L 13.121094 -5.988281 C 13.179688 -6.132812 13.234375 -6.304688 13.320312 -6.445312 L 13.320312 -6.476562 C 13.464844 -6.761719 13.578125 -6.992188 13.609375 -6.992188 C 13.609375 -6.960938 12.632812 -4.839844 12.519531 -4.667969 Z M 14.609375 -7.707031 C 14.46875 -7.132812 14.265625 -6.5625 14.007812 -6.046875 C 13.78125 -5.617188 13.378906 -5.1875 13.234375 -4.726562 C 13.578125 -5.757812 14.179688 -6.703125 14.609375 -7.734375 Z M 3.925781 -9.367188 C 3.695312 -8.996094 3.78125 -8.566406 3.667969 -8.195312 C 3.582031 -8.023438 3.265625 -7.679688 3.207031 -7.449219 C 3.207031 -7.621094 3.265625 -7.851562 3.292969 -7.992188 C 3.324219 -8.28125 3.464844 -8.394531 3.609375 -8.625 C 3.722656 -8.796875 3.78125 -9.367188 4.011719 -9.453125 Z M 10.371094 -0.832031 C 10.773438 -1.433594 11.171875 -2.0625 11.546875 -2.75 C 11.171875 -2.035156 10.800781 -1.402344 10.371094 -0.832031 Z M 7.335938 -18.566406 C 7.449219 -18.507812 7.421875 -18.449219 7.277344 -18.308594 C 7.21875 -18.363281 7.21875 -18.449219 7.335938 -18.566406 Z M 6.648438 -12.691406 L 6.648438 -12.664062 L 6.1875 -11.574219 L 6.933594 -13.40625 C 6.847656 -13.148438 6.761719 -12.921875 6.648438 -12.691406 Z M 11.804688 -3.265625 C 11.804688 -3.207031 11.773438 -3.179688 11.746094 -3.121094 Z M 13.007812 -5.789062 C 13.007812 -5.757812 13.007812 -5.757812 12.976562 -5.730469 C 12.976562 -5.757812 13.007812 -5.757812 13.007812 -5.789062 Z M 13.007812 -5.789062 "/></g></g></g><g fill="#d9d9d9" fill-opacity="1"><g transform="translate(141.227961, 189.182389)"><g><path d="M 10.972656 -7.078125 C 10.972656 -7.046875 10.972656 -7.046875 10.945312 -7.078125 L 10.945312 -7.105469 C 10.484375 -7.878906 9.882812 -6.820312 9.625 -6.445312 C 9.140625 -5.789062 8.679688 -5.15625 8.164062 -4.554688 C 7.734375 -4.039062 7.277344 -3.523438 6.933594 -2.980469 C 6.933594 -2.921875 6.875 -2.777344 6.875 -2.777344 C 6.761719 -2.605469 6.589844 -2.464844 6.445312 -2.292969 C 6.1875 -2.035156 5.929688 -1.746094 5.644531 -1.488281 C 5.214844 -1.089844 2.808594 1.175781 2.492188 -0.285156 C 2.320312 -1.003906 2.550781 -1.890625 2.691406 -2.578125 C 2.777344 -2.949219 2.863281 -3.292969 2.921875 -3.667969 C 2.980469 -3.953125 2.894531 -4.238281 3.035156 -4.527344 C 3.121094 -4.699219 3.152344 -4.667969 3.351562 -4.726562 L 3.839844 -4.898438 C 4.152344 -5.011719 4.46875 -5.128906 4.753906 -5.300781 C 5.1875 -5.558594 5.585938 -5.875 5.960938 -6.1875 C 6.847656 -6.933594 7.792969 -7.820312 8.164062 -8.9375 C 8.367188 -9.570312 8.394531 -10.257812 7.992188 -10.800781 C 7.621094 -11.289062 6.992188 -11.546875 6.417969 -11.660156 C 4.871094 -11.945312 3.695312 -11.058594 2.808594 -9.882812 C 1.71875 -8.539062 0.945312 -6.875 0.574219 -5.1875 C 0.371094 -4.355469 0.257812 -3.523438 0.113281 -2.664062 C -0.0273438 -1.804688 -0.113281 -1.003906 0.34375 -0.199219 C 0.316406 -0.488281 0.257812 -0.746094 0.257812 -1.003906 C 0.257812 -1.144531 0.316406 -1.289062 0.316406 -1.402344 C 0.316406 -1.460938 0.257812 -1.632812 0.257812 -1.71875 C 0.257812 -1.976562 0.316406 -2.175781 0.371094 -2.433594 C 0.402344 -2.691406 0.371094 -2.949219 0.402344 -3.207031 C 0.429688 -3.496094 0.542969 -3.722656 0.660156 -3.980469 C 0.746094 -4.210938 0.773438 -4.410156 0.859375 -4.640625 C 0.945312 -4.839844 1.003906 -5.070312 1.089844 -5.300781 C 1.117188 -5.445312 1.261719 -5.617188 1.347656 -5.789062 C 1.261719 -5.53125 1.089844 -5.300781 1.03125 -5.070312 C 0.945312 -4.726562 1.003906 -4.355469 0.972656 -4.011719 C 0.917969 -3.636719 0.800781 -3.265625 0.746094 -2.863281 C 0.6875 -2.492188 0.515625 -2.148438 0.457031 -1.777344 C 0.402344 -1.433594 0.285156 -1.175781 0.316406 -0.832031 C 0.316406 -0.628906 0.34375 -0.429688 0.371094 -0.257812 C 0.402344 -0.0273438 0.542969 0.113281 0.6875 0.285156 C 1.175781 0.859375 1.832031 1.316406 2.578125 1.519531 C 3.09375 1.660156 3.550781 1.632812 4.039062 1.375 C 4.726562 1.003906 5.328125 0.429688 5.84375 -0.113281 C 6.332031 -0.660156 6.703125 -1.261719 7.132812 -1.832031 C 7.535156 -2.347656 8.023438 -2.835938 8.421875 -3.351562 L 9.96875 -5.359375 L 10.859375 -6.53125 C 11 -6.703125 11.085938 -6.847656 10.972656 -7.078125 Z M 3.867188 -6.761719 C 3.894531 -6.820312 3.894531 -6.847656 3.894531 -6.847656 C 4.324219 -7.765625 4.640625 -8.738281 5.242188 -9.625 L 5.757812 -10.3125 C 5.875 -10.457031 6.074219 -10.714844 6.273438 -10.773438 C 6.703125 -10.859375 6.820312 -10.113281 6.789062 -9.828125 L 6.675781 -9.226562 C 6.648438 -9.054688 6.703125 -8.9375 6.675781 -8.796875 C 6.617188 -8.625 6.476562 -8.539062 6.390625 -8.394531 L 5.902344 -7.765625 C 5.242188 -6.992188 4.410156 -6.332031 3.496094 -5.84375 C 3.636719 -6.160156 3.722656 -6.476562 3.867188 -6.761719 Z M 9.597656 -15.785156 C 9.570312 -15.84375 9.511719 -16.214844 9.453125 -16.300781 C 9.253906 -16.617188 8.9375 -16.730469 8.652344 -16.816406 C 8.625 -16.816406 8.28125 -16.902344 8.136719 -16.875 C 7.792969 -16.847656 7.9375 -16.703125 7.851562 -16.53125 L 6.789062 -14.695312 C 6.648438 -14.4375 6.074219 -13.292969 6.359375 -13.09375 C 6.53125 -12.949219 6.960938 -13.265625 7.078125 -13.351562 C 7.5625 -13.722656 8.195312 -14.179688 8.625 -14.667969 C 8.710938 -14.753906 9.769531 -15.699219 9.597656 -15.785156 Z M 9.597656 -15.785156 "/></g></g></g><g fill="#d9d9d9" fill-opacity="1"><g transform="translate(150.137456, 189.182389)"><g><path d="M 13.980469 -6.847656 C 13.867188 -8.28125 11.804688 -5.703125 11.6875 -5.617188 C 11.34375 -5.328125 11.03125 -5.070312 10.628906 -4.871094 C 10.226562 -4.699219 9.855469 -4.296875 9.453125 -4.238281 C 9.226562 -4.183594 8.652344 -4.152344 8.421875 -4.269531 C 7.9375 -4.527344 8.453125 -5.414062 8.59375 -5.816406 C 8.625 -5.875 8.507812 -5.84375 8.566406 -6.015625 L 8.738281 -6.132812 L 9.253906 -6.675781 C 9.742188 -7.191406 10.398438 -7.421875 10.914062 -7.878906 C 11.085938 -8.023438 11.203125 -8.136719 11.257812 -8.367188 C 11.375 -9.28125 10.085938 -9.3125 9.539062 -8.9375 C 8.679688 -8.421875 8.136719 -7.59375 7.535156 -6.90625 L 6.589844 -5.929688 C 6.21875 -5.5 5.703125 -5.128906 5.414062 -4.613281 C 5.300781 -4.441406 5.300781 -4.238281 5.128906 -4.039062 C 4.957031 -3.867188 4.753906 -3.695312 4.613281 -3.464844 C 4.269531 -3.035156 3.953125 -2.578125 3.636719 -2.121094 C 3.667969 -2.40625 3.4375 -4.527344 3.324219 -5.703125 C 3.324219 -5.359375 3.351562 -4.984375 3.351562 -4.925781 L 3.292969 -5.789062 L 3.292969 -5.816406 C 3.238281 -6.304688 3.179688 -6.820312 3.035156 -7.304688 L 3.121094 -7.105469 C 3.152344 -7.078125 3.121094 -7.476562 3.09375 -7.5625 C 3.066406 -7.648438 2.921875 -7.621094 2.949219 -7.535156 C 2.863281 -7.707031 3.007812 -7.765625 2.835938 -7.964844 C 2.605469 -8.28125 2.148438 -8.25 1.832031 -8.136719 C 1.574219 -8.050781 1.347656 -7.820312 1.230469 -7.734375 C 0.945312 -7.5625 0.660156 -7.507812 0.542969 -7.078125 C 0.457031 -6.734375 0.972656 -5.101562 0.886719 -4.957031 L 0.917969 -4.984375 C 0.945312 -4.871094 0.945312 -4.753906 0.945312 -4.667969 C 0.917969 -4.667969 0.917969 -4.726562 0.917969 -4.753906 C 0.917969 -4.753906 0.773438 -4.410156 0.773438 -4.355469 C 0.6875 -3.953125 0.773438 -3.722656 0.800781 -3.351562 C 0.859375 -3.035156 0.800781 -2.777344 0.800781 -2.464844 C 0.800781 -2.175781 0.859375 -2.089844 0.886719 -2.003906 C 0.859375 -2.0625 0.917969 -1.546875 0.917969 -1.546875 C 0.886719 -1.261719 0.6875 -0.917969 0.6875 -0.574219 C 0.628906 0.34375 0.574219 1.574219 1.347656 2.148438 C 1.890625 2.550781 2.664062 2.664062 3.09375 2.003906 C 3.265625 1.71875 3.324219 1.375 3.351562 1.03125 C 3.523438 0.144531 3.839844 -0.488281 4.324219 -1.261719 C 5.1875 -2.664062 6.390625 -3.695312 7.335938 -5.011719 C 7.25 -2.148438 10.859375 -3.121094 12.089844 -4.527344 C 12.289062 -4.726562 12.433594 -4.984375 12.632812 -5.1875 C 13.035156 -5.53125 13.40625 -5.902344 13.722656 -6.332031 C 13.835938 -6.476562 14.039062 -6.648438 13.980469 -6.847656 Z M 3.121094 -5.558594 C 3.09375 -4.871094 3.066406 -4.183594 2.980469 -3.523438 C 3.007812 -4.066406 2.921875 -4.699219 2.949219 -5.273438 C 2.980469 -5.757812 2.980469 -6.1875 2.921875 -6.675781 C 2.894531 -6.90625 2.863281 -7.132812 2.777344 -7.335938 C 2.75 -7.449219 2.578125 -7.621094 2.578125 -7.734375 C 2.578125 -7.820312 2.835938 -7.449219 2.863281 -7.421875 C 2.949219 -7.277344 2.980469 -7.078125 3.007812 -6.90625 C 3.09375 -6.476562 3.152344 -6.015625 3.121094 -5.558594 Z M 2.949219 -3.066406 C 2.921875 -3.066406 2.894531 -3.09375 2.921875 -3.179688 C 2.980469 -3.179688 2.980469 -3.152344 2.949219 -3.066406 Z M 3.378906 -3.78125 L 3.378906 -4.210938 C 3.410156 -4.066406 3.410156 -3.925781 3.378906 -3.78125 Z M 3.292969 -6.074219 L 3.292969 -6.503906 C 3.265625 -6.503906 3.292969 -6.332031 3.292969 -6.074219 Z M 3.324219 -5.730469 C 3.292969 -5.757812 3.292969 -5.757812 3.292969 -5.789062 L 3.292969 -5.84375 C 3.292969 -5.789062 3.324219 -5.757812 3.324219 -5.730469 Z M 3.324219 -5.730469 "/></g></g></g><g fill="#d9d9d9" fill-opacity="1"><g transform="translate(162.026334, 189.182389)"><g><path d="M 10.972656 -7.078125 C 10.972656 -7.046875 10.972656 -7.046875 10.945312 -7.078125 L 10.945312 -7.105469 C 10.484375 -7.878906 9.882812 -6.820312 9.625 -6.445312 C 9.140625 -5.789062 8.679688 -5.15625 8.164062 -4.554688 C 7.734375 -4.039062 7.277344 -3.523438 6.933594 -2.980469 C 6.933594 -2.921875 6.875 -2.777344 6.875 -2.777344 C 6.761719 -2.605469 6.589844 -2.464844 6.445312 -2.292969 C 6.1875 -2.035156 5.929688 -1.746094 5.644531 -1.488281 C 5.214844 -1.089844 2.808594 1.175781 2.492188 -0.285156 C 2.320312 -1.003906 2.550781 -1.890625 2.691406 -2.578125 C 2.777344 -2.949219 2.863281 -3.292969 2.921875 -3.667969 C 2.980469 -3.953125 2.894531 -4.238281 3.035156 -4.527344 C 3.121094 -4.699219 3.152344 -4.667969 3.351562 -4.726562 L 3.839844 -4.898438 C 4.152344 -5.011719 4.46875 -5.128906 4.753906 -5.300781 C 5.1875 -5.558594 5.585938 -5.875 5.960938 -6.1875 C 6.847656 -6.933594 7.792969 -7.820312 8.164062 -8.9375 C 8.367188 -9.570312 8.394531 -10.257812 7.992188 -10.800781 C 7.621094 -11.289062 6.992188 -11.546875 6.417969 -11.660156 C 4.871094 -11.945312 3.695312 -11.058594 2.808594 -9.882812 C 1.71875 -8.539062 0.945312 -6.875 0.574219 -5.1875 C 0.371094 -4.355469 0.257812 -3.523438 0.113281 -2.664062 C -0.0273438 -1.804688 -0.113281 -1.003906 0.34375 -0.199219 C 0.316406 -0.488281 0.257812 -0.746094 0.257812 -1.003906 C 0.257812 -1.144531 0.316406 -1.289062 0.316406 -1.402344 C 0.316406 -1.460938 0.257812 -1.632812 0.257812 -1.71875 C 0.257812 -1.976562 0.316406 -2.175781 0.371094 -2.433594 C 0.402344 -2.691406 0.371094 -2.949219 0.402344 -3.207031 C 0.429688 -3.496094 0.542969 -3.722656 0.660156 -3.980469 C 0.746094 -4.210938 0.773438 -4.410156 0.859375 -4.640625 C 0.945312 -4.839844 1.003906 -5.070312 1.089844 -5.300781 C 1.117188 -5.445312 1.261719 -5.617188 1.347656 -5.789062 C 1.261719 -5.53125 1.089844 -5.300781 1.03125 -5.070312 C 0.945312 -4.726562 1.003906 -4.355469 0.972656 -4.011719 C 0.917969 -3.636719 0.800781 -3.265625 0.746094 -2.863281 C 0.6875 -2.492188 0.515625 -2.148438 0.457031 -1.777344 C 0.402344 -1.433594 0.285156 -1.175781 0.316406 -0.832031 C 0.316406 -0.628906 0.34375 -0.429688 0.371094 -0.257812 C 0.402344 -0.0273438 0.542969 0.113281 0.6875 0.285156 C 1.175781 0.859375 1.832031 1.316406 2.578125 1.519531 C 3.09375 1.660156 3.550781 1.632812 4.039062 1.375 C 4.726562 1.003906 5.328125 0.429688 5.84375 -0.113281 C 6.332031 -0.660156 6.703125 -1.261719 7.132812 -1.832031 C 7.535156 -2.347656 8.023438 -2.835938 8.421875 -3.351562 L 9.96875 -5.359375 L 10.859375 -6.53125 C 11 -6.703125 11.085938 -6.847656 10.972656 -7.078125 Z M 3.867188 -6.761719 C 3.894531 -6.820312 3.894531 -6.847656 3.894531 -6.847656 C 4.324219 -7.765625 4.640625 -8.738281 5.242188 -9.625 L 5.757812 -10.3125 C 5.875 -10.457031 6.074219 -10.714844 6.273438 -10.773438 C 6.703125 -10.859375 6.820312 -10.113281 6.789062 -9.828125 L 6.675781 -9.226562 C 6.648438 -9.054688 6.703125 -8.9375 6.675781 -8.796875 C 6.617188 -8.625 6.476562 -8.539062 6.390625 -8.394531 L 5.902344 -7.765625 C 5.242188 -6.992188 4.410156 -6.332031 3.496094 -5.84375 C 3.636719 -6.160156 3.722656 -6.476562 3.867188 -6.761719 Z M 3.867188 -6.761719 "/></g></g></g><g fill="#d9d9d9" fill-opacity="1"><g transform="translate(170.93583, 189.182389)"><g><path d="M 11.460938 -7.304688 C 11.058594 -6.875 10.800781 -6.160156 10.484375 -5.644531 C 10 -4.8125 9.511719 -4.011719 8.996094 -3.207031 C 8.023438 -1.660156 7.046875 -0.0859375 5.875 1.316406 C 5.386719 1.917969 4.355469 3.378906 3.378906 3.265625 C 2.664062 3.152344 2.664062 1.917969 2.664062 1.375 C 2.664062 0.917969 2.691406 0.457031 2.75 0.0273438 C 2.777344 -0.230469 3.007812 -1.089844 2.863281 -1.316406 L 2.636719 -0.457031 C 2.664062 -0.800781 2.722656 -1.175781 2.808594 -1.519531 C 2.777344 -1.574219 3.035156 -2.378906 3.09375 -2.636719 C 3.238281 -3.207031 3.378906 -3.78125 3.550781 -4.355469 C 3.695312 -4.925781 3.839844 -5.472656 4.011719 -6.015625 C 4.152344 -6.53125 4.355469 -6.789062 4.667969 -7.191406 C 5.960938 -8.796875 7.132812 -10.542969 8.222656 -12.289062 C 8.625 -12.949219 8.882812 -13.523438 9.367188 -14.066406 C 10.085938 -14.8125 10.570312 -15.929688 11.03125 -16.847656 C 11.804688 -18.335938 12.835938 -20.398438 12.664062 -22.144531 L 12.664062 -22.289062 L 12.632812 -22.316406 C 12.460938 -23.433594 11.429688 -24.753906 10.171875 -24.351562 C 9.511719 -24.152344 9.023438 -23.464844 8.625 -22.976562 L 7.964844 -22.089844 C 7.820312 -21.917969 7.621094 -21.488281 7.476562 -21.257812 L 7.507812 -21.285156 L 6.589844 -19.710938 L 6.820312 -20.199219 C 6.675781 -20.226562 6.046875 -18.996094 5.960938 -18.851562 C 5.644531 -18.308594 5.359375 -17.761719 5.101562 -17.21875 C 4.527344 -16.074219 3.953125 -14.898438 3.582031 -13.664062 C 3.179688 -12.433594 2.722656 -11.230469 2.292969 -10 C 2.0625 -9.339844 1.832031 -8.652344 1.632812 -7.992188 C 1.460938 -7.449219 1.058594 -6.5625 1.144531 -5.988281 L 1.230469 -5.988281 C 1.144531 -5.789062 1.089844 -5.585938 1.03125 -5.386719 C 1.058594 -5.558594 1.058594 -5.757812 1.089844 -5.816406 C 0.945312 -5.617188 0.972656 -4.925781 0.945312 -4.871094 C 0.574219 -3.324219 0.144531 -1.777344 0.0273438 -0.171875 C -0.0585938 1.347656 -0.0585938 3.351562 1.144531 4.46875 C 2.492188 5.703125 4.039062 4.871094 5.15625 3.808594 C 6.476562 2.519531 7.59375 1.003906 8.625 -0.488281 C 9.570312 -1.863281 10.3125 -3.324219 11.171875 -4.699219 C 11.515625 -5.273438 11.890625 -5.84375 12.0625 -6.476562 C 12.175781 -6.933594 12.117188 -7.992188 11.460938 -7.304688 Z M 7.878906 -17.5625 C 8.453125 -18.9375 9.023438 -20.339844 9.828125 -21.628906 C 10.027344 -21.945312 11.316406 -23.664062 11.257812 -22.144531 L 11.257812 -22.117188 C 11.203125 -20.511719 10.171875 -18.824219 9.484375 -17.449219 L 8.28125 -15.214844 C 7.878906 -14.523438 7.191406 -13.664062 6.960938 -12.921875 C 7.132812 -13.378906 7.648438 -14.039062 7.90625 -14.46875 C 8.335938 -15.183594 8.710938 -15.902344 9.109375 -16.617188 C 9.769531 -17.878906 10.484375 -19.195312 10.972656 -20.570312 C 9.683594 -16.730469 7.277344 -13.148438 5.15625 -9.742188 C 5.988281 -12.261719 6.820312 -15.011719 7.878906 -17.5625 Z M 6.960938 -19.566406 C 7.25 -20.113281 7.765625 -20.570312 8.050781 -21.085938 C 7.449219 -19.882812 6.703125 -18.792969 6.074219 -17.648438 C 6.074219 -17.675781 6.074219 -17.734375 6.101562 -17.761719 C 6.359375 -18.394531 6.648438 -18.964844 6.960938 -19.566406 Z M 1.546875 -4.753906 C 1.519531 -4.699219 1.519531 -4.667969 1.519531 -4.667969 C 1.175781 -3.867188 1.144531 -2.777344 0.972656 -1.917969 C 0.945312 -1.71875 0.886719 -1.546875 0.886719 -1.347656 L 0.886719 -1.433594 L 0.800781 -0.515625 C 0.859375 -1.546875 0.972656 -2.605469 1.175781 -3.609375 L 1.175781 -3.582031 C 1.261719 -4.238281 1.402344 -4.839844 1.519531 -4.839844 C 1.574219 -4.871094 1.574219 -4.785156 1.546875 -4.753906 Z M 1.546875 -4.753906 "/></g></g></g><g fill="#d9d9d9" fill-opacity="1"><g transform="translate(181.077186, 189.182389)"><g><path d="M 13.179688 -7.132812 C 13.179688 -7.132812 13.207031 -7.105469 13.179688 -7.164062 C 13.035156 -7.363281 12.835938 -7.21875 12.632812 -7.164062 C 11.804688 -6.992188 10.945312 -6.789062 10.085938 -6.648438 C 10.398438 -7.679688 10.714844 -8.765625 10.828125 -9.828125 C 10.886719 -10.226562 10.914062 -10.65625 10.828125 -11.058594 C 10.773438 -11.316406 10.6875 -11.574219 10.542969 -11.804688 C 10.542969 -11.804688 10.199219 -12.234375 10.285156 -12.003906 L 10.257812 -12.03125 L 10.140625 -12.261719 L 10.257812 -12.148438 C 10.285156 -12.320312 9.796875 -12.632812 9.796875 -12.632812 C 9.082031 -13.351562 8.109375 -13.894531 7.132812 -13.351562 C 6.53125 -13.007812 6.046875 -12.433594 5.644531 -11.859375 C 5.5 -11.660156 5.359375 -11.429688 5.242188 -11.203125 C 5.128906 -10.972656 4.957031 -10.226562 4.785156 -10.113281 C 4.640625 -10 4.210938 -9.96875 4.011719 -9.855469 C 3.722656 -9.742188 3.464844 -9.597656 3.238281 -9.425781 C 2.691406 -9.082031 2.261719 -8.59375 1.863281 -8.109375 C 1.175781 -7.191406 0.832031 -6.160156 0.34375 -5.242188 C -0.574219 -3.496094 0.429688 -1.203125 2.121094 -0.371094 C 2.664062 -0.113281 3.292969 0 3.867188 -0.0585938 C 4.46875 -0.144531 5.042969 -0.457031 5.5 -0.800781 C 5.929688 -1.117188 6.875 -1.691406 7.046875 -2.175781 C 7.046875 -2.207031 6.992188 -2.175781 6.90625 -2.089844 L 7.734375 -3.066406 C 7.765625 -3.035156 7.535156 -2.75 7.535156 -2.75 C 7.734375 -2.664062 8.765625 -4.183594 8.882812 -4.296875 C 9.082031 -4.640625 9.28125 -5.011719 9.511719 -5.359375 C 9.710938 -5.617188 9.65625 -5.585938 9.941406 -5.703125 C 9.914062 -5.671875 10.285156 -5.789062 10.34375 -5.789062 C 10.65625 -5.84375 14.007812 -6.074219 13.179688 -7.132812 Z M 3.265625 -1.347656 L 3.238281 -1.347656 C 0.859375 -1.003906 3.609375 -6.046875 3.667969 -6.332031 L 3.496094 -6.074219 C 3.925781 -6.933594 4.324219 -7.621094 4.527344 -7.851562 C 4.839844 -6.417969 6.390625 -5.875 7.648438 -5.703125 C 6.820312 -4.039062 5.273438 -1.71875 3.265625 -1.347656 Z M 8.910156 -9.28125 C 8.710938 -8.480469 8.539062 -7.421875 8.109375 -6.703125 C 7.964844 -6.417969 8.050781 -6.503906 7.765625 -6.445312 C 7.59375 -6.390625 7.21875 -6.445312 7.046875 -6.476562 C 6.734375 -6.503906 6.359375 -6.5625 6.132812 -6.761719 C 5.730469 -7.105469 5.789062 -7.648438 5.84375 -8.136719 C 5.902344 -8.625 6.046875 -9.082031 6.21875 -9.539062 C 6.304688 -9.710938 6.847656 -10.628906 6.761719 -10.800781 C 6.734375 -10.886719 6.417969 -10.371094 6.390625 -10.34375 C 6.5625 -10.65625 6.734375 -10.828125 6.875 -11.03125 C 6.847656 -11.03125 6.875 -11.058594 6.90625 -11.117188 L 6.90625 -11.085938 L 6.933594 -11.144531 C 6.933594 -11.144531 6.933594 -11.171875 6.960938 -11.171875 C 7.390625 -11.746094 8.453125 -13.035156 9.023438 -12.148438 C 9.453125 -11.402344 9.054688 -10 8.910156 -9.28125 Z M 6.933594 -11.144531 L 6.960938 -11.171875 C 6.960938 -11.144531 6.933594 -11.144531 6.933594 -11.144531 Z M 6.933594 -11.144531 "/></g></g></g><g fill="#d9d9d9" fill-opacity="1"><g transform="translate(192.278515, 189.182389)"><g><path d="M 16.214844 -7.105469 C 16.042969 -7.078125 14.554688 -6.617188 14.640625 -6.390625 C 14.640625 -6.359375 14.695312 -6.332031 14.726562 -6.332031 C 14.238281 -6.132812 13.609375 -6.101562 13.121094 -5.789062 C 12.578125 -5.414062 12.0625 -5.042969 11.488281 -4.726562 C 12.003906 -5.617188 12.492188 -6.5625 12.804688 -7.507812 C 12.921875 -7.851562 13.578125 -9.96875 13.148438 -10.199219 C 13.09375 -10.226562 13.0625 -9.96875 13.035156 -9.828125 C 13.0625 -10.972656 12.691406 -12.71875 11.144531 -12.835938 C 10.199219 -12.890625 9.3125 -11.71875 8.796875 -11.085938 C 7.621094 -9.597656 6.589844 -7.992188 5.558594 -6.445312 C 5.273438 -6.015625 2.40625 -1.375 2.40625 -1.375 C 2.40625 -1.375 2.605469 -1.660156 2.863281 -2.035156 C 2.605469 -1.605469 2.347656 -1.144531 2.121094 -0.6875 C 2.234375 -1.117188 3.324219 -4.527344 4.011719 -6.53125 C 4.066406 -6.617188 4.097656 -6.734375 4.125 -6.820312 L 4.296875 -7.304688 L 4.296875 -7.277344 C 4.554688 -8.050781 4.8125 -8.824219 5.042969 -9.625 C 5.042969 -9.539062 4.925781 -9.109375 4.957031 -9.109375 C 5.128906 -9.082031 5.359375 -10.285156 5.242188 -10.285156 L 5.15625 -10.140625 C 5.242188 -10.570312 5.386719 -10.773438 5.128906 -11.257812 C 4.925781 -11.6875 4.582031 -12.089844 4.097656 -12.203125 C 3.152344 -12.460938 2.691406 -11.6875 2.75 -10.945312 C 2.75 -10.828125 2.894531 -10.773438 2.894531 -10.65625 C 2.894531 -10.515625 2.75 -10.257812 2.722656 -10.140625 C 2.519531 -9.539062 2.378906 -8.96875 2.148438 -8.394531 C 2.035156 -8.078125 0.972656 -5.101562 0.972656 -5.101562 C 1.03125 -5.128906 1.058594 -5.1875 1.089844 -5.242188 C 1.003906 -4.984375 0.917969 -4.726562 0.800781 -4.46875 C 0.773438 -4.496094 0.886719 -4.699219 0.832031 -4.699219 C 0.542969 -4.753906 -0.171875 -2.347656 -0.230469 -2.121094 C -0.34375 -1.574219 -0.488281 -1.058594 -0.6875 -0.515625 C -0.773438 -0.230469 -0.886719 0.0585938 -0.972656 0.371094 C -0.972656 0.402344 -1.117188 1.089844 -0.972656 0.832031 C -1.003906 0.917969 -1.03125 0.972656 -1.03125 1.03125 C -1.03125 1.003906 -1.058594 0.972656 -1.058594 0.945312 C -1.144531 0.972656 -1.203125 1.574219 -1.203125 1.605469 C -1.316406 1.917969 -1.460938 2.148438 -1.605469 2.433594 C -1.976562 3.351562 -2.175781 4.355469 -2.320312 5.328125 C -2.550781 6.820312 -3.238281 9.054688 -2.492188 10.429688 C -2.234375 10.914062 -1.433594 11.917969 -0.800781 11.316406 C -0.515625 11.03125 -0.515625 10.371094 -0.488281 10.027344 C -0.316406 9.082031 -0.171875 8.109375 0.0273438 7.164062 L 0.285156 5.84375 C 0.316406 5.789062 0.542969 4.726562 0.457031 4.753906 C 0.402344 4.8125 0.34375 4.898438 0.316406 4.984375 C 0.457031 4.527344 0.660156 4.097656 0.832031 3.609375 C 1.058594 2.921875 1.230469 2.261719 1.574219 1.632812 C 1.976562 1.003906 2.320312 0.316406 2.691406 -0.316406 C 2.980469 -0.832031 3.238281 -1.488281 3.550781 -1.917969 C 3.636719 -2.035156 3.808594 -2.089844 3.953125 -2.207031 C 4.238281 -2.519531 4.441406 -2.949219 4.667969 -3.292969 C 5.101562 -3.980469 5.472656 -4.667969 5.929688 -5.300781 C 6.132812 -5.585938 8.421875 -8.796875 8.652344 -8.996094 C 8.59375 -8.96875 8.539062 -8.9375 8.480469 -8.882812 C 8.710938 -9.167969 8.96875 -9.425781 9.195312 -9.65625 C 9.226562 -9.625 9.023438 -9.453125 9.054688 -9.425781 C 9.109375 -9.398438 10.429688 -10.429688 10.65625 -10.457031 C 11.289062 -10.570312 11.058594 -9.367188 10.972656 -9.054688 C 10.828125 -8.394531 10.457031 -7.765625 10.140625 -7.191406 C 9.96875 -6.875 9.796875 -6.589844 9.65625 -6.273438 C 9.625 -6.246094 9.398438 -5.703125 9.484375 -5.757812 L 9.3125 -5.5 C 9.367188 -5.585938 9.398438 -5.703125 9.398438 -5.703125 C 9.28125 -5.703125 9.140625 -5.214844 9.109375 -5.128906 C 8.9375 -4.839844 8.710938 -4.613281 8.480469 -4.382812 C 7.878906 -3.695312 7.335938 -2.980469 6.734375 -2.320312 C 6.273438 -1.832031 5.671875 -0.972656 4.984375 -0.800781 C 4.496094 -0.6875 4.125 -0.945312 4.382812 -0.171875 C 4.554688 0.371094 5.1875 1.632812 5.875 1.632812 C 6.503906 1.632812 7.277344 0.6875 7.648438 0.285156 C 8.078125 -0.199219 8.566406 -0.660156 9.023438 -1.175781 C 9.140625 -1.347656 10.457031 -2.921875 10.65625 -3.007812 L 10.628906 -3.007812 C 10.914062 -3.152344 11.203125 -3.035156 11.601562 -3.324219 C 11.832031 -3.496094 11.945312 -3.667969 12.203125 -3.839844 C 12.40625 -3.953125 12.492188 -4.097656 12.578125 -4.183594 C 12.578125 -4.183594 12.578125 -4.152344 12.605469 -4.152344 C 12.890625 -4.441406 13.292969 -4.355469 13.664062 -4.613281 C 14.125 -4.925781 14.695312 -5.328125 15.097656 -5.703125 C 15.613281 -6.160156 16.332031 -6.417969 16.558594 -7.191406 C 16.445312 -7.164062 16.300781 -7.164062 16.214844 -7.105469 Z M 1.546875 -4.183594 L 1.546875 -4.152344 C 1.519531 -3.78125 1.261719 -3.351562 1.117188 -3.007812 C 0.917969 -2.464844 0.746094 -1.917969 0.574219 -1.375 C 0.199219 -0.230469 -0.230469 0.917969 -0.6875 2.003906 C -1.058594 2.921875 -1.402344 3.925781 -1.660156 4.925781 C -1.347656 3.523438 -0.832031 2.148438 -0.429688 0.832031 C -0.0585938 -0.371094 0.515625 -1.546875 0.972656 -2.722656 C 1.03125 -2.863281 1.574219 -4.011719 1.519531 -4.238281 C 1.546875 -4.210938 1.546875 -4.183594 1.546875 -4.183594 Z M 2.808594 -3.324219 C 2.722656 -2.980469 2.636719 -2.664062 2.519531 -2.378906 C 2.605469 -2.664062 2.691406 -3.007812 2.808594 -3.324219 Z M 6.734375 -8.023438 L 6.1875 -7.21875 C 6.359375 -7.476562 6.53125 -7.765625 6.734375 -8.023438 Z M 11.402344 -4.554688 C 11.429688 -4.640625 11.574219 -4.667969 11.660156 -4.726562 Z M 4.554688 -7.90625 C 4.527344 -7.878906 4.496094 -7.792969 4.46875 -7.679688 Z M 4.355469 -7.421875 L 4.46875 -7.679688 Z M 5.84375 -6.703125 L 5.84375 -6.734375 C 5.875 -6.761719 5.875 -6.761719 5.875 -6.789062 C 5.902344 -6.820312 5.875 -6.761719 5.84375 -6.703125 Z M 4.355469 -7.421875 C 4.355469 -7.363281 4.324219 -7.335938 4.296875 -7.304688 Z M -1.71875 5.1875 C -1.71875 5.15625 -1.71875 5.15625 -1.691406 5.128906 C -1.691406 5.15625 -1.691406 5.15625 -1.71875 5.1875 Z M 2.980469 -3.667969 C 2.980469 -3.636719 2.949219 -3.636719 2.949219 -3.636719 Z M 2.980469 -3.667969 "/></g></g></g><g fill="#d9d9d9" fill-opacity="1"><g transform="translate(206.71706, 189.182389)"><g><path d="M 16.214844 -7.105469 C 16.042969 -7.078125 14.554688 -6.617188 14.640625 -6.390625 C 14.640625 -6.359375 14.695312 -6.332031 14.726562 -6.332031 C 14.238281 -6.132812 13.609375 -6.101562 13.121094 -5.789062 C 12.578125 -5.414062 12.0625 -5.042969 11.488281 -4.726562 C 12.003906 -5.617188 12.492188 -6.5625 12.804688 -7.507812 C 12.921875 -7.851562 13.578125 -9.96875 13.148438 -10.199219 C 13.09375 -10.226562 13.0625 -9.96875 13.035156 -9.828125 C 13.0625 -10.972656 12.691406 -12.71875 11.144531 -12.835938 C 10.199219 -12.890625 9.3125 -11.71875 8.796875 -11.085938 C 7.621094 -9.597656 6.589844 -7.992188 5.558594 -6.445312 C 5.273438 -6.015625 2.40625 -1.375 2.40625 -1.375 C 2.40625 -1.375 2.605469 -1.660156 2.863281 -2.035156 C 2.605469 -1.605469 2.347656 -1.144531 2.121094 -0.6875 C 2.234375 -1.117188 3.324219 -4.527344 4.011719 -6.53125 C 4.066406 -6.617188 4.097656 -6.734375 4.125 -6.820312 L 4.296875 -7.304688 L 4.296875 -7.277344 C 4.554688 -8.050781 4.8125 -8.824219 5.042969 -9.625 C 5.042969 -9.539062 4.925781 -9.109375 4.957031 -9.109375 C 5.128906 -9.082031 5.359375 -10.285156 5.242188 -10.285156 L 5.15625 -10.140625 C 5.242188 -10.570312 5.386719 -10.773438 5.128906 -11.257812 C 4.925781 -11.6875 4.582031 -12.089844 4.097656 -12.203125 C 3.152344 -12.460938 2.691406 -11.6875 2.75 -10.945312 C 2.75 -10.828125 2.894531 -10.773438 2.894531 -10.65625 C 2.894531 -10.515625 2.75 -10.257812 2.722656 -10.140625 C 2.519531 -9.539062 2.378906 -8.96875 2.148438 -8.394531 C 2.035156 -8.078125 0.972656 -5.101562 0.972656 -5.101562 C 1.03125 -5.128906 1.058594 -5.1875 1.089844 -5.242188 C 1.003906 -4.984375 0.917969 -4.726562 0.800781 -4.46875 C 0.773438 -4.496094 0.886719 -4.699219 0.832031 -4.699219 C 0.542969 -4.753906 -0.171875 -2.347656 -0.230469 -2.121094 C -0.34375 -1.574219 -0.488281 -1.058594 -0.6875 -0.515625 C -0.773438 -0.230469 -0.886719 0.0585938 -0.972656 0.371094 C -0.972656 0.402344 -1.117188 1.089844 -0.972656 0.832031 C -1.003906 0.917969 -1.03125 0.972656 -1.03125 1.03125 C -1.03125 1.003906 -1.058594 0.972656 -1.058594 0.945312 C -1.144531 0.972656 -1.203125 1.574219 -1.203125 1.605469 C -1.316406 1.917969 -1.460938 2.148438 -1.605469 2.433594 C -1.976562 3.351562 -2.175781 4.355469 -2.320312 5.328125 C -2.550781 6.820312 -3.238281 9.054688 -2.492188 10.429688 C -2.234375 10.914062 -1.433594 11.917969 -0.800781 11.316406 C -0.515625 11.03125 -0.515625 10.371094 -0.488281 10.027344 C -0.316406 9.082031 -0.171875 8.109375 0.0273438 7.164062 L 0.285156 5.84375 C 0.316406 5.789062 0.542969 4.726562 0.457031 4.753906 C 0.402344 4.8125 0.34375 4.898438 0.316406 4.984375 C 0.457031 4.527344 0.660156 4.097656 0.832031 3.609375 C 1.058594 2.921875 1.230469 2.261719 1.574219 1.632812 C 1.976562 1.003906 2.320312 0.316406 2.691406 -0.316406 C 2.980469 -0.832031 3.238281 -1.488281 3.550781 -1.917969 C 3.636719 -2.035156 3.808594 -2.089844 3.953125 -2.207031 C 4.238281 -2.519531 4.441406 -2.949219 4.667969 -3.292969 C 5.101562 -3.980469 5.472656 -4.667969 5.929688 -5.300781 C 6.132812 -5.585938 8.421875 -8.796875 8.652344 -8.996094 C 8.59375 -8.96875 8.539062 -8.9375 8.480469 -8.882812 C 8.710938 -9.167969 8.96875 -9.425781 9.195312 -9.65625 C 9.226562 -9.625 9.023438 -9.453125 9.054688 -9.425781 C 9.109375 -9.398438 10.429688 -10.429688 10.65625 -10.457031 C 11.289062 -10.570312 11.058594 -9.367188 10.972656 -9.054688 C 10.828125 -8.394531 10.457031 -7.765625 10.140625 -7.191406 C 9.96875 -6.875 9.796875 -6.589844 9.65625 -6.273438 C 9.625 -6.246094 9.398438 -5.703125 9.484375 -5.757812 L 9.3125 -5.5 C 9.367188 -5.585938 9.398438 -5.703125 9.398438 -5.703125 C 9.28125 -5.703125 9.140625 -5.214844 9.109375 -5.128906 C 8.9375 -4.839844 8.710938 -4.613281 8.480469 -4.382812 C 7.878906 -3.695312 7.335938 -2.980469 6.734375 -2.320312 C 6.273438 -1.832031 5.671875 -0.972656 4.984375 -0.800781 C 4.496094 -0.6875 4.125 -0.945312 4.382812 -0.171875 C 4.554688 0.371094 5.1875 1.632812 5.875 1.632812 C 6.503906 1.632812 7.277344 0.6875 7.648438 0.285156 C 8.078125 -0.199219 8.566406 -0.660156 9.023438 -1.175781 C 9.140625 -1.347656 10.457031 -2.921875 10.65625 -3.007812 L 10.628906 -3.007812 C 10.914062 -3.152344 11.203125 -3.035156 11.601562 -3.324219 C 11.832031 -3.496094 11.945312 -3.667969 12.203125 -3.839844 C 12.40625 -3.953125 12.492188 -4.097656 12.578125 -4.183594 C 12.578125 -4.183594 12.578125 -4.152344 12.605469 -4.152344 C 12.890625 -4.441406 13.292969 -4.355469 13.664062 -4.613281 C 14.125 -4.925781 14.695312 -5.328125 15.097656 -5.703125 C 15.613281 -6.160156 16.332031 -6.417969 16.558594 -7.191406 C 16.445312 -7.164062 16.300781 -7.164062 16.214844 -7.105469 Z M 1.546875 -4.183594 L 1.546875 -4.152344 C 1.519531 -3.78125 1.261719 -3.351562 1.117188 -3.007812 C 0.917969 -2.464844 0.746094 -1.917969 0.574219 -1.375 C 0.199219 -0.230469 -0.230469 0.917969 -0.6875 2.003906 C -1.058594 2.921875 -1.402344 3.925781 -1.660156 4.925781 C -1.347656 3.523438 -0.832031 2.148438 -0.429688 0.832031 C -0.0585938 -0.371094 0.515625 -1.546875 0.972656 -2.722656 C 1.03125 -2.863281 1.574219 -4.011719 1.519531 -4.238281 C 1.546875 -4.210938 1.546875 -4.183594 1.546875 -4.183594 Z M 2.808594 -3.324219 C 2.722656 -2.980469 2.636719 -2.664062 2.519531 -2.378906 C 2.605469 -2.664062 2.691406 -3.007812 2.808594 -3.324219 Z M 6.734375 -8.023438 L 6.1875 -7.21875 C 6.359375 -7.476562 6.53125 -7.765625 6.734375 -8.023438 Z M 11.402344 -4.554688 C 11.429688 -4.640625 11.574219 -4.667969 11.660156 -4.726562 Z M 4.554688 -7.90625 C 4.527344 -7.878906 4.496094 -7.792969 4.46875 -7.679688 Z M 4.355469 -7.421875 L 4.46875 -7.679688 Z M 5.84375 -6.703125 L 5.84375 -6.734375 C 5.875 -6.761719 5.875 -6.761719 5.875 -6.789062 C 5.902344 -6.820312 5.875 -6.761719 5.84375 -6.703125 Z M 4.355469 -7.421875 C 4.355469 -7.363281 4.324219 -7.335938 4.296875 -7.304688 Z M -1.71875 5.1875 C -1.71875 5.15625 -1.71875 5.15625 -1.691406 5.128906 C -1.691406 5.15625 -1.691406 5.15625 -1.71875 5.1875 Z M 2.980469 -3.667969 C 2.980469 -3.636719 2.949219 -3.636719 2.949219 -3.636719 Z M 2.980469 -3.667969 "/></g></g></g><g fill="#d9d9d9" fill-opacity="1"><g transform="translate(221.155605, 189.182389)"><g><path d="M 10.972656 -7.078125 C 10.972656 -7.046875 10.972656 -7.046875 10.945312 -7.078125 L 10.945312 -7.105469 C 10.484375 -7.878906 9.882812 -6.820312 9.625 -6.445312 C 9.140625 -5.789062 8.679688 -5.15625 8.164062 -4.554688 C 7.734375 -4.039062 7.277344 -3.523438 6.933594 -2.980469 C 6.933594 -2.921875 6.875 -2.777344 6.875 -2.777344 C 6.761719 -2.605469 6.589844 -2.464844 6.445312 -2.292969 C 6.1875 -2.035156 5.929688 -1.746094 5.644531 -1.488281 C 5.214844 -1.089844 2.808594 1.175781 2.492188 -0.285156 C 2.320312 -1.003906 2.550781 -1.890625 2.691406 -2.578125 C 2.777344 -2.949219 2.863281 -3.292969 2.921875 -3.667969 C 2.980469 -3.953125 2.894531 -4.238281 3.035156 -4.527344 C 3.121094 -4.699219 3.152344 -4.667969 3.351562 -4.726562 L 3.839844 -4.898438 C 4.152344 -5.011719 4.46875 -5.128906 4.753906 -5.300781 C 5.1875 -5.558594 5.585938 -5.875 5.960938 -6.1875 C 6.847656 -6.933594 7.792969 -7.820312 8.164062 -8.9375 C 8.367188 -9.570312 8.394531 -10.257812 7.992188 -10.800781 C 7.621094 -11.289062 6.992188 -11.546875 6.417969 -11.660156 C 4.871094 -11.945312 3.695312 -11.058594 2.808594 -9.882812 C 1.71875 -8.539062 0.945312 -6.875 0.574219 -5.1875 C 0.371094 -4.355469 0.257812 -3.523438 0.113281 -2.664062 C -0.0273438 -1.804688 -0.113281 -1.003906 0.34375 -0.199219 C 0.316406 -0.488281 0.257812 -0.746094 0.257812 -1.003906 C 0.257812 -1.144531 0.316406 -1.289062 0.316406 -1.402344 C 0.316406 -1.460938 0.257812 -1.632812 0.257812 -1.71875 C 0.257812 -1.976562 0.316406 -2.175781 0.371094 -2.433594 C 0.402344 -2.691406 0.371094 -2.949219 0.402344 -3.207031 C 0.429688 -3.496094 0.542969 -3.722656 0.660156 -3.980469 C 0.746094 -4.210938 0.773438 -4.410156 0.859375 -4.640625 C 0.945312 -4.839844 1.003906 -5.070312 1.089844 -5.300781 C 1.117188 -5.445312 1.261719 -5.617188 1.347656 -5.789062 C 1.261719 -5.53125 1.089844 -5.300781 1.03125 -5.070312 C 0.945312 -4.726562 1.003906 -4.355469 0.972656 -4.011719 C 0.917969 -3.636719 0.800781 -3.265625 0.746094 -2.863281 C 0.6875 -2.492188 0.515625 -2.148438 0.457031 -1.777344 C 0.402344 -1.433594 0.285156 -1.175781 0.316406 -0.832031 C 0.316406 -0.628906 0.34375 -0.429688 0.371094 -0.257812 C 0.402344 -0.0273438 0.542969 0.113281 0.6875 0.285156 C 1.175781 0.859375 1.832031 1.316406 2.578125 1.519531 C 3.09375 1.660156 3.550781 1.632812 4.039062 1.375 C 4.726562 1.003906 5.328125 0.429688 5.84375 -0.113281 C 6.332031 -0.660156 6.703125 -1.261719 7.132812 -1.832031 C 7.535156 -2.347656 8.023438 -2.835938 8.421875 -3.351562 L 9.96875 -5.359375 L 10.859375 -6.53125 C 11 -6.703125 11.085938 -6.847656 10.972656 -7.078125 Z M 3.867188 -6.761719 C 3.894531 -6.820312 3.894531 -6.847656 3.894531 -6.847656 C 4.324219 -7.765625 4.640625 -8.738281 5.242188 -9.625 L 5.757812 -10.3125 C 5.875 -10.457031 6.074219 -10.714844 6.273438 -10.773438 C 6.703125 -10.859375 6.820312 -10.113281 6.789062 -9.828125 L 6.675781 -9.226562 C 6.648438 -9.054688 6.703125 -8.9375 6.675781 -8.796875 C 6.617188 -8.625 6.476562 -8.539062 6.390625 -8.394531 L 5.902344 -7.765625 C 5.242188 -6.992188 4.410156 -6.332031 3.496094 -5.84375 C 3.636719 -6.160156 3.722656 -6.476562 3.867188 -6.761719 Z M 3.867188 -6.761719 "/></g></g></g><g fill="#d9d9d9" fill-opacity="1"><g transform="translate(230.0651, 189.182389)"><g><path d="M 13.550781 -6.992188 C 13.464844 -7.535156 12.148438 -6.015625 12.089844 -5.960938 C 11.257812 -5.070312 10.457031 -4.097656 9.484375 -3.324219 C 9.023438 -2.980469 8.824219 -2.777344 8.851562 -3.464844 C 8.882812 -4.066406 9.109375 -4.699219 9.28125 -5.242188 C 9.367188 -5.53125 9.941406 -6.617188 9.769531 -6.820312 C 9.742188 -6.847656 9.683594 -6.761719 9.625 -6.703125 C 10.027344 -7.507812 11 -8.882812 9.710938 -9.253906 C 8.25 -9.65625 7.507812 -8.078125 6.875 -7.132812 C 6.273438 -6.273438 5.703125 -5.445312 5.011719 -4.667969 C 4.496094 -4.066406 3.695312 -2.921875 2.863281 -2.691406 C 2.089844 -2.433594 2.605469 -3.695312 2.722656 -4.125 C 2.808594 -4.355469 3.839844 -7.019531 3.894531 -6.992188 C 3.839844 -6.992188 3.78125 -6.960938 3.722656 -6.875 C 4.039062 -7.5625 4.382812 -8.25 4.753906 -8.910156 C 4.667969 -8.738281 4.582031 -8.453125 4.582031 -8.453125 C 4.726562 -8.421875 5.414062 -9.828125 5.359375 -9.828125 C 5.300781 -9.796875 5.242188 -9.742188 5.1875 -9.65625 C 5.414062 -10.054688 5.703125 -10.257812 5.1875 -10.65625 C 4.667969 -11.058594 3.753906 -11.144531 3.238281 -10.6875 C 2.605469 -10.171875 2.207031 -9.253906 1.890625 -8.539062 C 1.691406 -8.136719 1.347656 -7.90625 1.144531 -7.449219 C 0.746094 -6.5625 0.515625 -5.671875 0.285156 -4.753906 C 0.0585938 -3.867188 -0.0859375 -2.949219 0.0585938 -2.035156 C 0.144531 -1.632812 0.285156 -1.175781 0.601562 -0.886719 C 0.6875 -0.832031 1.519531 -0.515625 1.460938 -0.714844 C 1.402344 -0.714844 1.347656 -0.714844 1.316406 -0.746094 C 1.632812 -0.746094 1.949219 -0.886719 2.234375 -1.058594 C 2.261719 -1.03125 2.003906 -0.917969 2.003906 -0.886719 C 2.292969 -0.515625 4.46875 -2.722656 4.667969 -2.980469 C 5.386719 -3.894531 6.101562 -4.785156 6.847656 -5.671875 C 6.476562 -4.667969 5.84375 -3.292969 6.445312 -2.207031 C 6.789062 -1.632812 7.449219 -1.316406 8.078125 -1.375 C 9.425781 -1.460938 10.628906 -2.921875 11.460938 -3.808594 C 12.003906 -4.410156 12.546875 -5.042969 12.949219 -5.730469 C 13.121094 -6.015625 13.578125 -6.648438 13.550781 -6.992188 Z M 9.195312 -6.417969 C 9.140625 -6.246094 9.109375 -6.015625 9.023438 -5.875 C 9.023438 -5.84375 8.996094 -5.816406 8.96875 -5.789062 C 8.996094 -5.816406 8.996094 -5.84375 8.996094 -5.875 C 8.765625 -6.589844 9.625 -7.507812 9.914062 -8.222656 C 9.683594 -7.59375 9.398438 -7.019531 9.195312 -6.417969 Z M 2.378906 -2.722656 C 2.207031 -3.550781 2.808594 -4.699219 3.121094 -5.472656 C 2.722656 -4.355469 2.320312 -2.980469 2.378906 -2.722656 Z M 6.847656 -5.53125 C 6.847656 -5.644531 6.875 -5.730469 6.960938 -5.789062 C 6.90625 -5.703125 6.875 -5.617188 6.847656 -5.53125 Z M 6.847656 -5.53125 "/></g></g></g><g fill="#d9d9d9" fill-opacity="1"><g transform="translate(241.524262, 189.182389)"><g><path d="M 11.746094 -6.960938 C 11.574219 -7.707031 10.886719 -6.703125 10.742188 -6.53125 L 9.167969 -4.410156 L 7.621094 -2.378906 L 6.789062 -1.316406 C 6.703125 -1.203125 6.074219 -0.402344 6.132812 -0.402344 C 6.1875 -0.457031 6.273438 -0.457031 6.359375 -0.542969 C 5.929688 -0.0859375 4.355469 1.347656 4.066406 1.003906 C 3.839844 0.714844 4.46875 -0.488281 4.554688 -0.773438 C 4.871094 -1.605469 5.15625 -2.464844 5.5 -3.265625 C 5.875 -4.097656 6.304688 -4.925781 6.648438 -5.757812 C 6.992188 -6.648438 6.476562 -6.960938 5.644531 -7.164062 C 5.273438 -7.25 4.8125 -7.25 4.382812 -7.304688 C 4.382812 -7.277344 4.410156 -7.277344 4.410156 -7.277344 C 4.785156 -7.21875 5.328125 -7.191406 5.789062 -7.046875 C 5.101562 -7.25 4.238281 -7.164062 3.695312 -7.304688 C 3.324219 -7.390625 3.09375 -7.390625 3.152344 -7.820312 C 3.207031 -8.394531 3.808594 -8.996094 4.011719 -9.539062 C 4.011719 -9.511719 3.808594 -8.996094 3.839844 -8.996094 C 3.980469 -8.9375 4.210938 -9.742188 4.210938 -9.855469 C 4.183594 -10 3.839844 -10.429688 3.808594 -10.257812 L 3.867188 -10.171875 C 2.492188 -11.117188 0.859375 -9.167969 1.144531 -7.765625 C 1.203125 -7.5625 1.316406 -7.449219 1.402344 -7.21875 C 1.460938 -7.046875 1.402344 -6.847656 1.574219 -6.617188 C 2.175781 -5.875 3.265625 -5.84375 4.125 -6.015625 C 3.980469 -5.816406 2.464844 -2.605469 2.550781 -2.578125 L 2.347656 -1.863281 C 2.320312 -1.890625 2.433594 -2.121094 2.378906 -2.121094 C 2.175781 -2.148438 1.777344 -0.488281 1.746094 -0.34375 C 1.632812 0.34375 1.660156 0.945312 1.949219 1.574219 C 2.121094 1.976562 2.320312 2.320312 2.691406 2.550781 C 3.035156 2.777344 3.464844 2.894531 3.867188 2.808594 C 4.011719 2.75 4.554688 2.378906 4.410156 2.40625 L 4.613281 2.320312 C 4.582031 2.347656 4.554688 2.378906 4.554688 2.40625 C 4.640625 2.433594 5.960938 1.375 6.132812 1.261719 C 7.046875 0.488281 7.792969 -0.457031 8.480469 -1.402344 C 9.167969 -2.378906 9.882812 -3.351562 10.542969 -4.324219 C 10.859375 -4.785156 11.144531 -5.242188 11.375 -5.730469 C 11.546875 -6.074219 11.832031 -6.5625 11.746094 -6.960938 Z M 3.179688 -3.523438 C 3.378906 -4.039062 3.609375 -4.527344 3.867188 -5.011719 C 3.925781 -5.101562 4.324219 -6.132812 4.527344 -6.1875 C 4.382812 -6.101562 3.78125 -4.699219 3.636719 -4.441406 L 3.09375 -3.179688 C 2.808594 -2.492188 2.492188 -1.777344 2.292969 -1.03125 C 2.492188 -1.890625 2.835938 -2.722656 3.179688 -3.523438 Z M 2.492188 1.976562 C 2.664062 2.207031 2.894531 2.433594 3.207031 2.550781 C 2.949219 2.464844 2.722656 2.320312 2.550781 2.148438 C 2.578125 2.148438 2.578125 2.175781 2.578125 2.207031 C 2.40625 1.976562 2.175781 1.488281 2.148438 1.402344 C 2.0625 1.058594 2.035156 0.660156 2.0625 0.316406 C 2.0625 0.0273438 2.089844 -0.199219 2.148438 -0.457031 L 2.148438 -0.429688 C 2.089844 -0.0585938 2.0625 0.316406 2.089844 0.714844 L 2.089844 0.859375 C 2.0625 0.832031 2.0625 0.800781 2.0625 0.800781 C 2.0625 0.800781 2.0625 0.832031 2.089844 0.886719 L 2.089844 0.917969 L 2.207031 1.519531 L 2.121094 1.144531 C 2.175781 1.316406 2.320312 1.632812 2.464844 1.949219 L 2.433594 1.917969 C 2.433594 1.949219 2.464844 1.976562 2.492188 2.003906 Z M 3.292969 -7.476562 C 3.4375 -7.363281 3.695312 -7.335938 3.953125 -7.304688 C 3.722656 -7.335938 3.523438 -7.390625 3.378906 -7.507812 C 3.378906 -7.507812 3.207031 -7.648438 3.179688 -7.707031 C 3.179688 -7.648438 3.238281 -7.507812 3.292969 -7.476562 Z M 6.304688 -5.242188 L 5.703125 -3.980469 L 6.304688 -5.273438 Z M 2.175781 -0.542969 C 2.175781 -0.515625 2.148438 -0.488281 2.148438 -0.457031 L 2.148438 -0.488281 C 2.148438 -0.515625 2.175781 -0.515625 2.175781 -0.542969 Z M 6.332031 -5.328125 L 6.332031 -5.300781 L 6.304688 -5.300781 Z M 6.332031 -5.328125 L 6.332031 -5.300781 L 6.304688 -5.300781 Z M 2.207031 -0.917969 C 2.207031 -0.945312 2.234375 -0.972656 2.234375 -1.03125 C 2.234375 -0.972656 2.207031 -0.945312 2.207031 -0.917969 Z M 2.320312 1.71875 C 2.320312 1.71875 2.347656 1.746094 2.347656 1.777344 C 2.347656 1.746094 2.320312 1.746094 2.320312 1.71875 Z M 3.207031 -7.765625 C 3.179688 -7.765625 3.179688 -7.734375 3.179688 -7.734375 Z M 3.207031 -7.765625 "/></g></g></g><g fill="#ffffff" fill-opacity="1"><g transform="translate(165.626228, 205.268072)"><g><path d="M 0.453125 0 L 0.453125 -3.578125 L 2.796875 -3.578125 L 2.796875 -3.265625 L 0.796875 -3.265625 L 0.796875 -1.953125 L 2.484375 -1.953125 L 2.484375 -1.65625 L 0.796875 -1.65625 L 0.796875 0 Z M 0.453125 0 "/></g></g></g><g fill="#ffffff" fill-opacity="1"><g transform="translate(170.350912, 205.268072)"><g><path d="M 0.453125 0 L 0.453125 -3.578125 L 1.953125 -3.578125 C 2.109375 -3.578125 2.25 -3.539062 2.375 -3.46875 C 2.507812 -3.40625 2.625 -3.320312 2.71875 -3.21875 C 2.8125 -3.113281 2.882812 -2.992188 2.9375 -2.859375 C 2.988281 -2.722656 3.015625 -2.585938 3.015625 -2.453125 C 3.015625 -2.316406 2.992188 -2.1875 2.953125 -2.0625 C 2.910156 -1.945312 2.851562 -1.84375 2.78125 -1.75 C 2.71875 -1.65625 2.640625 -1.570312 2.546875 -1.5 C 2.453125 -1.4375 2.34375 -1.394531 2.21875 -1.375 L 3.09375 0 L 2.703125 0 L 1.859375 -1.3125 L 0.796875 -1.3125 L 0.796875 0 Z M 0.796875 -1.625 L 1.96875 -1.625 C 2.070312 -1.625 2.164062 -1.644531 2.25 -1.6875 C 2.332031 -1.738281 2.40625 -1.800781 2.46875 -1.875 C 2.53125 -1.957031 2.578125 -2.046875 2.609375 -2.140625 C 2.640625 -2.242188 2.65625 -2.347656 2.65625 -2.453125 C 2.65625 -2.554688 2.632812 -2.65625 2.59375 -2.75 C 2.5625 -2.851562 2.507812 -2.941406 2.4375 -3.015625 C 2.375 -3.085938 2.296875 -3.144531 2.203125 -3.1875 C 2.117188 -3.238281 2.03125 -3.265625 1.9375 -3.265625 L 0.796875 -3.265625 Z M 0.796875 -1.625 "/></g></g></g><g fill="#ffffff" fill-opacity="1"><g transform="translate(175.397486, 205.268072)"><g><path d="M 1.890625 0.03125 C 1.640625 0.03125 1.410156 -0.0195312 1.203125 -0.125 C 0.992188 -0.226562 0.816406 -0.363281 0.671875 -0.53125 C 0.523438 -0.707031 0.410156 -0.898438 0.328125 -1.109375 C 0.253906 -1.328125 0.21875 -1.550781 0.21875 -1.78125 C 0.21875 -2.019531 0.257812 -2.25 0.34375 -2.46875 C 0.425781 -2.6875 0.539062 -2.878906 0.6875 -3.046875 C 0.84375 -3.210938 1.019531 -3.34375 1.21875 -3.4375 C 1.425781 -3.539062 1.648438 -3.59375 1.890625 -3.59375 C 2.140625 -3.59375 2.367188 -3.539062 2.578125 -3.4375 C 2.785156 -3.332031 2.960938 -3.191406 3.109375 -3.015625 C 3.253906 -2.847656 3.363281 -2.65625 3.4375 -2.4375 C 3.519531 -2.226562 3.5625 -2.007812 3.5625 -1.78125 C 3.5625 -1.539062 3.519531 -1.3125 3.4375 -1.09375 C 3.351562 -0.875 3.234375 -0.679688 3.078125 -0.515625 C 2.929688 -0.347656 2.753906 -0.210938 2.546875 -0.109375 C 2.347656 -0.015625 2.128906 0.03125 1.890625 0.03125 Z M 0.5625 -1.78125 C 0.5625 -1.59375 0.59375 -1.40625 0.65625 -1.21875 C 0.71875 -1.039062 0.804688 -0.878906 0.921875 -0.734375 C 1.046875 -0.597656 1.1875 -0.488281 1.34375 -0.40625 C 1.507812 -0.332031 1.691406 -0.296875 1.890625 -0.296875 C 2.085938 -0.296875 2.269531 -0.335938 2.4375 -0.421875 C 2.601562 -0.503906 2.742188 -0.613281 2.859375 -0.75 C 2.972656 -0.894531 3.054688 -1.054688 3.109375 -1.234375 C 3.171875 -1.421875 3.203125 -1.601562 3.203125 -1.78125 C 3.203125 -1.976562 3.171875 -2.164062 3.109375 -2.34375 C 3.046875 -2.519531 2.953125 -2.675781 2.828125 -2.8125 C 2.710938 -2.957031 2.570312 -3.070312 2.40625 -3.15625 C 2.25 -3.238281 2.078125 -3.28125 1.890625 -3.28125 C 1.679688 -3.28125 1.492188 -3.234375 1.328125 -3.140625 C 1.171875 -3.054688 1.035156 -2.941406 0.921875 -2.796875 C 0.804688 -2.660156 0.71875 -2.503906 0.65625 -2.328125 C 0.59375 -2.148438 0.5625 -1.96875 0.5625 -1.78125 Z M 0.5625 -1.78125 "/></g></g></g><g fill="#ffffff" fill-opacity="1"><g transform="translate(180.936959, 205.268072)"><g><path d="M 0.796875 -2.921875 L 0.796875 0 L 0.453125 0 L 0.453125 -3.578125 L 0.71875 -3.578125 L 3.078125 -0.59375 L 3.078125 -3.5625 L 3.4375 -3.5625 L 3.4375 0 L 3.125 0 Z M 0.796875 -2.921875 "/></g></g></g><g fill="#ffffff" fill-opacity="1"><g transform="translate(186.582048, 205.268072)"><g><path d="M 2.984375 -3.265625 L 1.703125 -3.265625 L 1.703125 0 L 1.359375 0 L 1.359375 -3.265625 L 0.078125 -3.265625 L 0.078125 -3.578125 L 2.984375 -3.578125 Z M 2.984375 -3.265625 "/></g></g></g><g fill="#ffffff" fill-opacity="1"><g transform="translate(191.412354, 205.268072)"><g><path d="M 0.328125 -1.21875 L 0.328125 -1.53125 L 1.796875 -1.53125 L 1.796875 -1.21875 Z M 0.328125 -1.21875 "/></g></g></g><g fill="#ffffff" fill-opacity="1"><g transform="translate(195.297104, 205.268072)"><g><path d="M 2.84375 -0.3125 L 2.84375 0 L 0.453125 0 L 0.453125 -3.578125 L 2.796875 -3.578125 L 2.796875 -3.265625 L 0.796875 -3.265625 L 0.796875 -1.96875 L 2.546875 -1.96875 L 2.546875 -1.671875 L 0.796875 -1.671875 L 0.796875 -0.3125 Z M 2.84375 -0.3125 "/></g></g></g><g fill="#ffffff" fill-opacity="1"><g transform="translate(200.122376, 205.268072)"><g><path d="M 0.796875 -2.921875 L 0.796875 0 L 0.453125 0 L 0.453125 -3.578125 L 0.71875 -3.578125 L 3.078125 -0.59375 L 3.078125 -3.5625 L 3.4375 -3.5625 L 3.4375 0 L 3.125 0 Z M 0.796875 -2.921875 "/></g></g></g><g fill="#ffffff" fill-opacity="1"><g transform="translate(205.767465, 205.268072)"><g><path d="M 0.453125 0 L 0.453125 -3.578125 L 1.65625 -3.578125 C 1.945312 -3.578125 2.195312 -3.53125 2.40625 -3.4375 C 2.625 -3.34375 2.800781 -3.210938 2.9375 -3.046875 C 3.082031 -2.890625 3.191406 -2.703125 3.265625 -2.484375 C 3.335938 -2.265625 3.375 -2.035156 3.375 -1.796875 C 3.375 -1.523438 3.332031 -1.273438 3.25 -1.046875 C 3.164062 -0.828125 3.050781 -0.640625 2.90625 -0.484375 C 2.757812 -0.328125 2.578125 -0.207031 2.359375 -0.125 C 2.148438 -0.0390625 1.914062 0 1.65625 0 Z M 3.015625 -1.796875 C 3.015625 -2.003906 2.984375 -2.195312 2.921875 -2.375 C 2.867188 -2.5625 2.78125 -2.71875 2.65625 -2.84375 C 2.539062 -2.976562 2.398438 -3.082031 2.234375 -3.15625 C 2.066406 -3.226562 1.875 -3.265625 1.65625 -3.265625 L 0.796875 -3.265625 L 0.796875 -0.3125 L 1.65625 -0.3125 C 1.882812 -0.3125 2.082031 -0.347656 2.25 -0.421875 C 2.414062 -0.492188 2.554688 -0.597656 2.671875 -0.734375 C 2.785156 -0.867188 2.867188 -1.023438 2.921875 -1.203125 C 2.984375 -1.378906 3.015625 -1.578125 3.015625 -1.796875 Z M 3.015625 -1.796875 "/></g></g></g></svg>