<svg xmlns="http://www.w3.org/2000/svg" xmlns:xlink="http://www.w3.org/1999/xlink" width="500" zoomAndPan="magnify" viewBox="0 0 375 374.999991" height="500" preserveAspectRatio="xMidYMid meet" version="1.0"><defs><filter x="0%" y="0%" width="100%" height="100%" id="8be3fcff50"><feColorMatrix values="0 0 0 0 1 0 0 0 0 1 0 0 0 0 1 0 0 0 1 0" color-interpolation-filters="sRGB"/></filter><g/><mask id="08650989b2"><g filter="url(#8be3fcff50)"><rect x="-37.5" width="450" fill="#000000" y="-37.499999" height="449.999989" fill-opacity="0.48"/></g></mask><clipPath id="02ade8347c"><rect x="0" width="93" y="0" height="117"/></clipPath><mask id="afcabac2c3"><g filter="url(#8be3fcff50)"><rect x="-37.5" width="450" fill="#000000" y="-37.499999" height="449.999989" fill-opacity="0.48"/></g></mask><clipPath id="b89d04383b"><path d="M 0.160156 1 L 5 1 L 5 6 L 0.160156 6 Z M 0.160156 1 " clip-rule="nonzero"/></clipPath><clipPath id="6f54d3c97f"><rect x="0" width="121" y="0" height="8"/></clipPath></defs><rect x="-37.5" width="450" fill="#ffffff" y="-37.499999" height="449.999989" fill-opacity="1"/><rect x="-37.5" width="450" fill="#e4dcd1" y="-37.499999" height="449.999989" fill-opacity="1"/><g mask="url(#08650989b2)"><g transform="matrix(1, 0, 0, 1, 141, 129)"><g clip-path="url(#02ade8347c)"><g fill="#ffffff" fill-opacity="1"><g transform="translate(1.093304, 87.656529)"><g><path d="M 9.203125 1.515625 C 6.441406 1.515625 4.316406 0.984375 2.828125 -0.078125 C 1.335938 -1.148438 0.59375 -2.585938 0.59375 -4.390625 C 0.59375 -5.960938 1.140625 -7.171875 2.234375 -8.015625 C 3.335938 -8.867188 4.617188 -9.296875 6.078125 -9.296875 C 7.546875 -9.296875 8.84375 -8.96875 9.96875 -8.3125 C 11.09375 -7.664062 12.132812 -6.554688 13.09375 -4.984375 L 14.609375 -2.359375 C 14.890625 -1.972656 15.238281 -1.78125 15.65625 -1.78125 C 16.082031 -1.78125 16.382812 -2.03125 16.5625 -2.53125 C 16.894531 -3.65625 17.128906 -5.300781 17.265625 -7.46875 C 17.410156 -9.644531 17.484375 -12.28125 17.484375 -15.375 C 17.484375 -18.914062 17.398438 -23.472656 17.234375 -29.046875 C 17.066406 -34.628906 16.894531 -41.503906 16.71875 -49.671875 C 16.71875 -52.085938 15.816406 -53.609375 14.015625 -54.234375 L 12.078125 -54.90625 L 12.078125 -55.75 L 34.203125 -55.75 L 34.203125 -54.90625 L 32.359375 -54.234375 C 31.335938 -53.835938 30.644531 -53.3125 30.28125 -52.65625 C 29.914062 -52.007812 29.734375 -51.097656 29.734375 -49.921875 L 29.734375 -33.203125 C 29.734375 -27.679688 29.476562 -23.117188 28.96875 -19.515625 C 28.46875 -15.910156 27.648438 -12.785156 26.515625 -10.140625 C 25.109375 -6.367188 22.8125 -3.484375 19.625 -1.484375 C 16.445312 0.515625 12.972656 1.515625 9.203125 1.515625 Z M 9.203125 1.515625 "/></g></g></g><g fill="#ffffff" fill-opacity="1"><g transform="translate(37.160821, 87.656529)"><g><path d="M 1.859375 0 L 1.859375 -0.84375 L 3.625 -1.515625 C 5.425781 -2.253906 6.328125 -3.691406 6.328125 -5.828125 L 6.328125 -49.921875 C 6.328125 -52.171875 5.425781 -53.609375 3.625 -54.234375 L 1.859375 -54.90625 L 1.859375 -55.75 L 24.15625 -55.75 C 30.125 -55.75 35.257812 -54.632812 39.5625 -52.40625 C 43.875 -50.1875 47.195312 -47.003906 49.53125 -42.859375 C 51.875 -38.722656 53.046875 -33.753906 53.046875 -27.953125 C 53.046875 -22.046875 51.773438 -17.007812 49.234375 -12.84375 C 46.703125 -8.675781 43.171875 -5.492188 38.640625 -3.296875 C 34.109375 -1.097656 28.773438 0 22.640625 0 Z M 19 -1.6875 L 22.640625 -1.6875 C 26.691406 -1.6875 29.957031 -2.488281 32.4375 -4.09375 C 34.914062 -5.695312 36.726562 -8.398438 37.875 -12.203125 C 39.03125 -16.003906 39.609375 -21.226562 39.609375 -27.875 C 39.609375 -34.519531 39.03125 -39.742188 37.875 -43.546875 C 36.726562 -47.347656 34.941406 -50.050781 32.515625 -51.65625 C 30.097656 -53.257812 26.914062 -54.0625 22.96875 -54.0625 L 19 -54.0625 Z M 19 -1.6875 "/></g></g></g></g></g></g><g fill="#000000" fill-opacity="1"><g transform="translate(96.528111, 200.476392)"><g><path d="M 3.65625 -3.28125 L 3.046875 -3.296875 C 2.429688 -3.316406 1.757812 -3.363281 1.03125 -3.4375 C 1.019531 -3.4375 1.007812 -3.445312 1 -3.46875 C 0.976562 -3.46875 0.957031 -3.476562 0.9375 -3.5 C 0.925781 -3.519531 0.925781 -3.554688 0.9375 -3.609375 C 1 -3.835938 1.082031 -3.957031 1.1875 -3.96875 C 1.78125 -4.050781 2.363281 -4.097656 2.9375 -4.109375 L 3.28125 -4.125 L 5.609375 -4.125 C 5.734375 -4.125 5.859375 -4.113281 5.984375 -4.09375 C 6.078125 -4.070312 6.085938 -3.941406 6.015625 -3.703125 C 5.953125 -3.472656 5.875 -3.347656 5.78125 -3.328125 C 5.726562 -3.316406 5.679688 -3.3125 5.640625 -3.3125 L 5.28125 -3.3125 C 4.757812 -3.289062 4.21875 -3.28125 3.65625 -3.28125 Z M 3.65625 -3.28125 "/></g></g></g><g fill="#000000" fill-opacity="1"><g transform="translate(105.571667, 200.476392)"><g/></g></g><g fill="#000000" fill-opacity="1"><g transform="translate(113.582944, 200.476392)"><g><path d="M 51.21875 0.78125 C 51.238281 0.78125 51.269531 0.78125 51.3125 0.78125 C 51.382812 0.78125 51.457031 0.789062 51.53125 0.8125 C 51.613281 0.832031 51.6875 0.875 51.75 0.9375 C 51.769531 0.957031 51.785156 0.976562 51.796875 1 C 51.816406 1.03125 51.828125 1.0625 51.828125 1.09375 C 51.816406 1.113281 51.800781 1.140625 51.78125 1.171875 C 51.757812 1.203125 51.738281 1.222656 51.71875 1.234375 C 51.632812 1.253906 51.546875 1.257812 51.453125 1.25 C 51.398438 1.25 51.347656 1.25 51.296875 1.25 C 50.742188 1.21875 50.191406 1.175781 49.640625 1.125 C 48.617188 1.050781 47.597656 0.984375 46.578125 0.921875 C 42.390625 0.648438 38.253906 0.503906 34.171875 0.484375 C 30.085938 0.460938 25.941406 0.519531 21.734375 0.65625 C 21.296875 0.664062 20.851562 0.691406 20.40625 0.734375 C 19.988281 0.765625 19.570312 0.785156 19.15625 0.796875 C 18.75 0.816406 18.429688 0.992188 18.203125 1.328125 C 17.160156 2.710938 16.03125 4.023438 14.8125 5.265625 C 13.957031 6.140625 13.066406 6.921875 12.140625 7.609375 C 11.210938 8.304688 10.238281 8.859375 9.21875 9.265625 C 8.195312 9.679688 7.128906 9.882812 6.015625 9.875 C 4.898438 9.875 3.742188 9.601562 2.546875 9.0625 C 1.984375 8.820312 1.484375 8.472656 1.046875 8.015625 C 0.347656 7.222656 0.269531 6.363281 0.8125 5.4375 C 1.195312 4.84375 1.695312 4.351562 2.3125 3.96875 C 3.226562 3.363281 4.296875 2.847656 5.515625 2.421875 C 6.742188 2.003906 8.039062 1.660156 9.40625 1.390625 C 10.769531 1.128906 12.109375 0.921875 13.421875 0.765625 C 14.742188 0.609375 15.945312 0.492188 17.03125 0.421875 C 17.476562 0.390625 17.820312 0.195312 18.0625 -0.15625 C 18.957031 -1.457031 19.910156 -2.976562 20.921875 -4.71875 C 21.929688 -6.457031 22.90625 -8.285156 23.84375 -10.203125 C 24.78125 -12.128906 25.582031 -14 26.25 -15.8125 C 26.925781 -17.632812 27.378906 -19.273438 27.609375 -20.734375 C 27.671875 -21.179688 27.65625 -21.625 27.5625 -22.0625 C 27.382812 -22.769531 26.941406 -23.175781 26.234375 -23.28125 C 26.140625 -23.289062 26.046875 -23.296875 25.953125 -23.296875 C 25.742188 -23.296875 25.535156 -23.265625 25.328125 -23.203125 C 24.421875 -23.023438 23.296875 -22.613281 21.953125 -21.96875 C 20.617188 -21.332031 19.21875 -20.535156 17.75 -19.578125 C 16.28125 -18.628906 14.875 -17.585938 13.53125 -16.453125 C 12.1875 -15.316406 11.046875 -14.160156 10.109375 -12.984375 C 9.179688 -11.816406 8.59375 -10.6875 8.34375 -9.59375 C 8.144531 -8.65625 8.476562 -7.96875 9.34375 -7.53125 C 10.03125 -7.226562 10.765625 -7.09375 11.546875 -7.125 C 12.335938 -7.164062 13.09375 -7.257812 13.8125 -7.40625 C 14.257812 -7.5 14.703125 -7.546875 15.140625 -7.546875 C 15.328125 -7.546875 15.507812 -7.535156 15.6875 -7.515625 C 15.726562 -7.515625 15.769531 -7.5 15.8125 -7.46875 C 15.851562 -7.445312 15.867188 -7.40625 15.859375 -7.34375 C 15.835938 -7.226562 15.773438 -7.164062 15.671875 -7.15625 C 15.066406 -7.101562 14.453125 -7.023438 13.828125 -6.921875 C 13.078125 -6.785156 12.320312 -6.695312 11.5625 -6.65625 C 10.8125 -6.613281 10.066406 -6.691406 9.328125 -6.890625 C 8.953125 -6.992188 8.601562 -7.148438 8.28125 -7.359375 C 7.5 -7.878906 7.179688 -8.597656 7.328125 -9.515625 C 7.554688 -10.679688 8.15625 -11.894531 9.125 -13.15625 C 10.09375 -14.414062 11.285156 -15.644531 12.703125 -16.84375 C 14.128906 -18.039062 15.628906 -19.132812 17.203125 -20.125 C 18.773438 -21.125 20.273438 -21.945312 21.703125 -22.59375 C 23.128906 -23.238281 24.335938 -23.640625 25.328125 -23.796875 C 25.566406 -23.835938 25.804688 -23.851562 26.046875 -23.84375 C 26.472656 -23.851562 26.882812 -23.796875 27.28125 -23.671875 C 28.007812 -23.441406 28.46875 -22.953125 28.65625 -22.203125 C 28.820312 -21.390625 28.722656 -20.285156 28.359375 -18.890625 C 27.992188 -17.492188 27.457031 -15.9375 26.75 -14.21875 C 26.039062 -12.507812 25.253906 -10.785156 24.390625 -9.046875 C 23.523438 -7.316406 22.675781 -5.726562 21.84375 -4.28125 C 21.019531 -2.832031 20.3125 -1.664062 19.71875 -0.78125 C 19.550781 -0.539062 19.390625 -0.300781 19.234375 -0.0625 C 19.203125 0 19.203125 0.0546875 19.234375 0.109375 C 19.273438 0.171875 19.332031 0.203125 19.40625 0.203125 L 19.421875 0.203125 C 19.617188 0.203125 19.816406 0.195312 20.015625 0.1875 C 20.597656 0.164062 21.1875 0.140625 21.78125 0.109375 C 23.007812 0.046875 24.25 0 25.5 -0.03125 C 34.082031 -0.28125 42.65625 -0.0078125 51.21875 0.78125 Z M 16.234375 2.234375 C 16.285156 2.160156 16.347656 2.085938 16.421875 2.015625 C 16.523438 1.878906 16.632812 1.734375 16.75 1.578125 C 16.875 1.421875 16.976562 1.238281 17.0625 1.03125 C 16.96875 1.03125 16.875 1.03125 16.78125 1.03125 C 16.75 1.03125 16.71875 1.03125 16.6875 1.03125 C 16.644531 1.03125 16.59375 1.03125 16.53125 1.03125 C 16.175781 1.070312 15.816406 1.117188 15.453125 1.171875 C 14.992188 1.222656 14.53125 1.273438 14.0625 1.328125 C 12.988281 1.429688 11.742188 1.613281 10.328125 1.875 C 8.910156 2.132812 7.519531 2.488281 6.15625 2.9375 C 4.800781 3.382812 3.6875 3.941406 2.8125 4.609375 C 2.519531 4.847656 2.25 5.113281 2 5.40625 C 1.269531 6.332031 1.34375 7.179688 2.21875 7.953125 C 3.226562 8.765625 4.265625 9.207031 5.328125 9.28125 C 6.398438 9.363281 7.460938 9.175781 8.515625 8.71875 C 9.566406 8.269531 10.570312 7.664062 11.53125 6.90625 C 12.5 6.15625 13.382812 5.359375 14.1875 4.515625 C 14.988281 3.679688 15.671875 2.921875 16.234375 2.234375 Z M 16.234375 2.234375 "/></g></g></g><g fill="#000000" fill-opacity="1"><g transform="translate(140.68003, 200.476392)"><g><path d="M 0.1875 -1.328125 C -0.289062 -1.328125 -0.53125 -1.578125 -0.53125 -2.078125 C -0.53125 -2.691406 -0.132812 -3.765625 0.65625 -5.296875 C 0.6875 -5.359375 0.742188 -5.390625 0.828125 -5.390625 C 1.140625 -5.390625 1.296875 -5.265625 1.296875 -5.015625 C 1.296875 -4.929688 1.269531 -4.820312 1.21875 -4.6875 C 1.195312 -4.65625 0.929688 -3.992188 0.421875 -2.703125 C 0.335938 -2.484375 0.296875 -2.328125 0.296875 -2.234375 C 0.296875 -2.117188 0.347656 -2.0625 0.453125 -2.0625 C 0.816406 -2.0625 1.78125 -2.972656 3.34375 -4.796875 C 3.539062 -5.046875 3.738281 -5.171875 3.9375 -5.171875 C 4.21875 -5.171875 4.359375 -5.066406 4.359375 -4.859375 C 4.359375 -4.773438 4.269531 -4.46875 4.09375 -3.9375 C 3.851562 -3.21875 3.734375 -2.804688 3.734375 -2.703125 C 3.734375 -2.535156 3.789062 -2.453125 3.90625 -2.453125 C 4.175781 -2.453125 4.984375 -2.941406 6.328125 -3.921875 C 6.398438 -3.992188 6.460938 -4.03125 6.515625 -4.03125 C 6.640625 -4.03125 6.703125 -3.921875 6.703125 -3.703125 C 6.703125 -3.648438 6.6875 -3.609375 6.65625 -3.578125 C 5.945312 -2.960938 5.34375 -2.5 4.84375 -2.1875 C 4.394531 -1.894531 3.992188 -1.75 3.640625 -1.75 L 3.53125 -1.75 C 3.019531 -1.863281 2.765625 -2.269531 2.765625 -2.96875 C 2.210938 -2.476562 1.753906 -2.082031 1.390625 -1.78125 C 1.023438 -1.476562 0.625 -1.328125 0.1875 -1.328125 Z M 0.1875 -1.328125 "/></g></g></g><g fill="#000000" fill-opacity="1"><g transform="translate(149.188607, 200.476392)"><g><path d="M 3.640625 -3.59375 C 3.804688 -3.757812 3.945312 -3.851562 4.0625 -3.875 C 4.175781 -3.894531 4.25 -3.875 4.28125 -3.8125 C 4.3125 -3.757812 4.289062 -3.6875 4.21875 -3.59375 C 3.769531 -3.0625 3.269531 -2.601562 2.71875 -2.21875 C 2.175781 -1.832031 1.613281 -1.609375 1.03125 -1.546875 C 0.457031 -1.484375 0.109375 -1.800781 -0.015625 -2.5 C -0.109375 -3.1875 0.304688 -4.585938 1.234375 -6.703125 C 2.160156 -8.816406 2.894531 -10.550781 3.4375 -11.90625 C 3.476562 -12.019531 3.546875 -12.125 3.640625 -12.21875 C 3.753906 -12.34375 3.894531 -12.367188 4.0625 -12.296875 C 4.113281 -12.273438 4.164062 -12.234375 4.21875 -12.171875 C 4.28125 -12.117188 4.300781 -12.023438 4.28125 -11.890625 C 1.90625 -6.253906 0.753906 -3.1875 0.828125 -2.6875 C 0.898438 -2.195312 1.21875 -2.078125 1.78125 -2.328125 C 2.34375 -2.578125 2.773438 -2.828125 3.078125 -3.078125 C 3.378906 -3.335938 3.566406 -3.507812 3.640625 -3.59375 Z M 3.640625 -3.59375 "/></g></g></g><g fill="#000000" fill-opacity="1"><g transform="translate(155.263427, 200.476392)"><g><path d="M 3 -3.171875 C 2.726562 -2.859375 2.410156 -2.566406 2.046875 -2.296875 C 1.679688 -2.035156 1.265625 -1.859375 0.796875 -1.765625 C 0.335938 -1.671875 -0.015625 -1.703125 -0.265625 -1.859375 C -0.523438 -2.023438 -0.578125 -2.382812 -0.421875 -2.9375 C -0.222656 -3.507812 0.0507812 -4.050781 0.40625 -4.5625 C 0.476562 -4.675781 0.59375 -4.753906 0.75 -4.796875 C 0.851562 -4.828125 0.945312 -4.8125 1.03125 -4.75 C 1.113281 -4.6875 1.144531 -4.601562 1.125 -4.5 C 1.050781 -4.320312 0.96875 -4.140625 0.875 -3.953125 C 0.789062 -3.773438 0.734375 -3.660156 0.703125 -3.609375 C 0.523438 -3.285156 0.398438 -2.945312 0.328125 -2.59375 C 0.328125 -2.394531 0.59375 -2.382812 1.125 -2.5625 C 1.664062 -2.738281 2.191406 -3.0625 2.703125 -3.53125 C 3.210938 -4 3.457031 -4.132812 3.4375 -3.9375 C 3.414062 -3.75 3.269531 -3.492188 3 -3.171875 Z M 1.6875 -5.703125 C 1.65625 -5.679688 1.597656 -5.65625 1.515625 -5.625 C 1.441406 -5.59375 1.359375 -5.570312 1.265625 -5.5625 C 1.179688 -5.550781 1.113281 -5.566406 1.0625 -5.609375 C 1.019531 -5.648438 1.019531 -5.726562 1.0625 -5.84375 C 1.144531 -6.0625 1.226562 -6.25 1.3125 -6.40625 C 1.40625 -6.5625 1.519531 -6.734375 1.65625 -6.921875 C 1.75 -7.015625 1.847656 -7.0625 1.953125 -7.0625 C 2.054688 -7.070312 2.144531 -7.046875 2.21875 -6.984375 C 2.289062 -6.921875 2.3125 -6.832031 2.28125 -6.71875 C 2.164062 -6.320312 1.96875 -5.984375 1.6875 -5.703125 Z M 1.6875 -5.703125 "/></g></g></g><g fill="#000000" fill-opacity="1"><g transform="translate(160.516947, 200.476392)"><g><path d="M 4.296875 -2.890625 C 4.003906 -2.609375 3.664062 -2.363281 3.28125 -2.15625 C 2.894531 -1.957031 2.570312 -1.828125 2.3125 -1.765625 C 2.050781 -1.703125 1.78125 -1.664062 1.5 -1.65625 C 1.0625 -1.632812 0.65625 -1.691406 0.28125 -1.828125 C -0.332031 -2.078125 -0.546875 -2.546875 -0.359375 -3.234375 C -0.179688 -3.835938 0.171875 -4.304688 0.703125 -4.640625 C 1.242188 -4.972656 1.800781 -5.140625 2.375 -5.140625 C 2.375 -5.140625 2.378906 -5.140625 2.390625 -5.140625 C 2.535156 -5.140625 2.675781 -5.128906 2.8125 -5.109375 C 3.03125 -5.023438 3.171875 -4.890625 3.234375 -4.703125 C 3.296875 -4.523438 3.253906 -4.328125 3.109375 -4.109375 C 2.785156 -3.617188 2.347656 -3.347656 1.796875 -3.296875 C 1.429688 -3.253906 1.078125 -3.269531 0.734375 -3.34375 C 0.671875 -3.351562 0.613281 -3.332031 0.5625 -3.28125 C 0.507812 -3.238281 0.476562 -3.1875 0.46875 -3.125 C 0.375 -2.695312 0.507812 -2.421875 0.875 -2.296875 C 1.320312 -2.140625 1.789062 -2.140625 2.28125 -2.296875 C 2.84375 -2.472656 3.378906 -2.804688 3.890625 -3.296875 C 4.398438 -3.785156 4.691406 -4.007812 4.765625 -3.96875 C 4.847656 -3.9375 4.875 -3.84375 4.84375 -3.6875 C 4.769531 -3.445312 4.585938 -3.179688 4.296875 -2.890625 Z M 1.078125 -4.109375 C 1.054688 -4.078125 1.035156 -4.035156 1.015625 -3.984375 C 1.003906 -3.941406 1.023438 -3.90625 1.078125 -3.875 C 1.242188 -3.769531 1.429688 -3.734375 1.640625 -3.765625 C 1.847656 -3.796875 2.019531 -3.875 2.15625 -4 C 2.300781 -4.125 2.367188 -4.28125 2.359375 -4.46875 C 2.335938 -4.53125 2.296875 -4.570312 2.234375 -4.59375 C 2.179688 -4.613281 2.128906 -4.617188 2.078125 -4.609375 C 1.703125 -4.535156 1.367188 -4.367188 1.078125 -4.109375 Z M 1.078125 -4.109375 "/></g></g></g><g fill="#000000" fill-opacity="1"><g transform="translate(167.21716, 200.476392)"><g><path d="M 5.96875 -3.765625 C 6.050781 -3.660156 5.953125 -3.472656 5.671875 -3.203125 C 5.390625 -2.941406 5.085938 -2.71875 4.765625 -2.53125 C 4.453125 -2.351562 4.085938 -2.175781 3.671875 -2 C 3.390625 -1.875 3.09375 -1.832031 2.78125 -1.875 C 2.476562 -1.914062 2.328125 -2.101562 2.328125 -2.4375 C 2.328125 -2.78125 2.40625 -3.113281 2.5625 -3.4375 C 2.707031 -3.78125 2.738281 -3.957031 2.65625 -3.96875 C 2.570312 -3.976562 2.390625 -3.894531 2.109375 -3.71875 C 1.390625 -3.25 0.722656 -2.710938 0.109375 -2.109375 C -0.0546875 -1.898438 -0.269531 -1.785156 -0.53125 -1.765625 C -0.65625 -1.765625 -0.753906 -1.804688 -0.828125 -1.890625 C -0.898438 -1.972656 -0.910156 -2.0625 -0.859375 -2.15625 C -0.421875 -2.976562 0.0234375 -3.789062 0.484375 -4.59375 C 0.585938 -4.757812 0.738281 -4.863281 0.9375 -4.90625 C 1.019531 -4.914062 1.097656 -4.882812 1.171875 -4.8125 C 1.242188 -4.75 1.28125 -4.675781 1.28125 -4.59375 C 1.269531 -4.507812 1.238281 -4.410156 1.1875 -4.296875 C 1.15625 -4.234375 1.128906 -4.171875 1.109375 -4.109375 C 1.085938 -4.054688 1.078125 -4.007812 1.078125 -3.96875 C 1.085938 -3.925781 1.125 -3.910156 1.1875 -3.921875 C 1.257812 -3.960938 1.332031 -4.007812 1.40625 -4.0625 C 1.601562 -4.164062 1.785156 -4.269531 1.953125 -4.375 C 2.109375 -4.457031 2.269531 -4.535156 2.4375 -4.609375 C 2.613281 -4.679688 2.796875 -4.726562 2.984375 -4.75 C 3.285156 -4.769531 3.5 -4.703125 3.625 -4.546875 C 3.75 -4.390625 3.765625 -4.175781 3.671875 -3.90625 C 3.566406 -3.65625 3.460938 -3.40625 3.359375 -3.15625 C 3.222656 -2.925781 3.195312 -2.75 3.28125 -2.625 C 3.375 -2.507812 3.796875 -2.648438 4.546875 -3.046875 L 5.109375 -3.375 C 5.640625 -3.71875 5.925781 -3.847656 5.96875 -3.765625 Z M 5.96875 -3.765625 "/></g></g></g><g fill="#000000" fill-opacity="1"><g transform="translate(175.055141, 200.476392)"><g/></g></g><g fill="#000000" fill-opacity="1"><g transform="translate(183.06642, 200.476392)"><g><path d="M 52.046875 -10.171875 C 51.660156 -10.140625 51.273438 -10.109375 50.890625 -10.078125 C 50.546875 -10.046875 50.191406 -10.015625 49.828125 -9.984375 C 47.265625 -9.710938 44.710938 -9.367188 42.171875 -8.953125 C 39.253906 -8.484375 36.34375 -7.929688 33.4375 -7.296875 C 32.925781 -7.179688 32.453125 -6.972656 32.015625 -6.671875 C 28.546875 -4.367188 24.96875 -2.289062 21.28125 -0.4375 C 17.59375 1.40625 13.8125 3.054688 9.9375 4.515625 C 8.238281 5.179688 6.515625 5.738281 4.765625 6.1875 C 3.953125 6.394531 3.128906 6.53125 2.296875 6.59375 C 2.179688 6.601562 2.066406 6.609375 1.953125 6.609375 C 1.578125 6.617188 1.21875 6.554688 0.875 6.421875 C 0.34375 6.191406 0.1875 5.804688 0.40625 5.265625 C 0.5625 4.878906 0.800781 4.535156 1.125 4.234375 C 1.757812 3.617188 2.457031 3.085938 3.21875 2.640625 C 5.09375 1.535156 7.035156 0.5625 9.046875 -0.28125 C 11.035156 -1.132812 13.054688 -1.921875 15.109375 -2.640625 C 15.160156 -2.648438 15.207031 -2.671875 15.25 -2.703125 C 15.320312 -2.734375 15.394531 -2.757812 15.46875 -2.78125 C 15.769531 -2.863281 15.972656 -3.0625 16.078125 -3.375 C 16.242188 -3.84375 16.425781 -4.300781 16.625 -4.75 C 16.65625 -4.832031 16.6875 -4.914062 16.71875 -5 C 17.132812 -6.039062 17.5625 -7.085938 18 -8.140625 C 18.800781 -10.117188 19.601562 -12.101562 20.40625 -14.09375 C 20.945312 -15.34375 21.375 -16.628906 21.6875 -17.953125 C 21.707031 -18.078125 21.75 -18.195312 21.8125 -18.3125 C 21.90625 -18.457031 22.035156 -18.507812 22.203125 -18.46875 C 22.265625 -18.488281 22.335938 -18.488281 22.421875 -18.46875 C 22.484375 -18.457031 22.535156 -18.425781 22.578125 -18.375 C 22.628906 -18.332031 22.65625 -18.28125 22.65625 -18.21875 C 22.664062 -18.019531 22.65625 -17.828125 22.625 -17.640625 C 22.382812 -16.460938 22.023438 -15.320312 21.546875 -14.21875 C 20.722656 -12.226562 19.898438 -10.234375 19.078125 -8.234375 C 18.742188 -7.421875 18.40625 -6.601562 18.0625 -5.78125 C 18 -5.625 17.929688 -5.46875 17.859375 -5.3125 C 17.660156 -4.8125 17.457031 -4.3125 17.25 -3.8125 C 17.238281 -3.789062 17.234375 -3.773438 17.234375 -3.765625 C 17.191406 -3.703125 17.164062 -3.644531 17.15625 -3.59375 C 17.15625 -3.550781 17.1875 -3.503906 17.25 -3.453125 C 17.257812 -3.441406 17.273438 -3.4375 17.296875 -3.4375 C 17.316406 -3.4375 17.34375 -3.441406 17.375 -3.453125 C 17.382812 -3.453125 17.394531 -3.453125 17.40625 -3.453125 C 17.9375 -3.617188 18.453125 -3.785156 18.953125 -3.953125 C 19.859375 -4.253906 20.757812 -4.550781 21.65625 -4.84375 C 24.84375 -5.820312 28.054688 -6.675781 31.296875 -7.40625 C 31.679688 -7.488281 32.035156 -7.644531 32.359375 -7.875 C 33.273438 -8.519531 34.175781 -9.1875 35.0625 -9.875 C 35.957031 -10.5625 36.8125 -11.285156 37.625 -12.046875 C 38.519531 -12.859375 39.332031 -13.75 40.0625 -14.71875 C 40.5 -15.28125 40.828125 -15.90625 41.046875 -16.59375 C 41.347656 -17.644531 41.15625 -18.566406 40.46875 -19.359375 C 40.21875 -19.660156 39.929688 -19.914062 39.609375 -20.125 C 39.296875 -20.332031 38.960938 -20.515625 38.609375 -20.671875 C 37.398438 -21.191406 36.144531 -21.523438 34.84375 -21.671875 C 33.707031 -21.804688 32.566406 -21.875 31.421875 -21.875 C 30.378906 -21.875 29.34375 -21.832031 28.3125 -21.75 C 25.644531 -21.539062 23.003906 -21.140625 20.390625 -20.546875 C 18.617188 -20.148438 16.878906 -19.664062 15.171875 -19.09375 C 13.460938 -18.519531 11.800781 -17.796875 10.1875 -16.921875 C 9.582031 -16.617188 9 -16.285156 8.4375 -15.921875 C 7.882812 -15.554688 7.359375 -15.15625 6.859375 -14.71875 C 6.460938 -14.363281 6.101562 -13.988281 5.78125 -13.59375 C 5.53125 -13.320312 5.347656 -13.007812 5.234375 -12.65625 C 5.054688 -12.113281 5.175781 -11.648438 5.59375 -11.265625 C 5.84375 -11.023438 6.132812 -10.84375 6.46875 -10.71875 C 7.03125 -10.488281 7.613281 -10.351562 8.21875 -10.3125 C 8.539062 -10.289062 8.867188 -10.273438 9.203125 -10.265625 C 9.640625 -10.242188 10.082031 -10.21875 10.53125 -10.1875 C 10.882812 -10.164062 11.234375 -10.132812 11.578125 -10.09375 C 11.617188 -10.082031 11.65625 -10.0625 11.6875 -10.03125 C 11.726562 -10 11.757812 -9.957031 11.78125 -9.90625 C 11.789062 -9.820312 11.765625 -9.765625 11.703125 -9.734375 C 11.648438 -9.703125 11.597656 -9.691406 11.546875 -9.703125 L 11.4375 -9.703125 C 11.40625 -9.703125 11.375 -9.703125 11.34375 -9.703125 C 11.019531 -9.722656 10.707031 -9.734375 10.40625 -9.734375 C 10.300781 -9.734375 10.195312 -9.734375 10.09375 -9.734375 C 9.9375 -9.734375 9.78125 -9.734375 9.625 -9.734375 L 9.609375 -9.734375 C 9.148438 -9.734375 8.695312 -9.742188 8.25 -9.765625 C 7.8125 -9.785156 7.375 -9.835938 6.9375 -9.921875 C 6.4375 -10.035156 5.953125 -10.203125 5.484375 -10.421875 C 5.234375 -10.546875 5 -10.695312 4.78125 -10.875 C 4.113281 -11.425781 3.945312 -12.113281 4.28125 -12.9375 C 4.507812 -13.476562 4.84375 -13.957031 5.28125 -14.375 C 5.84375 -14.957031 6.457031 -15.484375 7.125 -15.953125 C 8.957031 -17.203125 10.910156 -18.21875 12.984375 -19 C 14.648438 -19.632812 16.34375 -20.171875 18.0625 -20.609375 C 19.78125 -21.046875 21.519531 -21.410156 23.28125 -21.703125 C 25.988281 -22.179688 28.71875 -22.425781 31.46875 -22.4375 C 31.550781 -22.4375 31.640625 -22.4375 31.734375 -22.4375 C 32.765625 -22.4375 33.796875 -22.378906 34.828125 -22.265625 C 35.867188 -22.160156 36.890625 -21.96875 37.890625 -21.6875 C 38.722656 -21.457031 39.507812 -21.125 40.25 -20.6875 C 40.632812 -20.457031 40.984375 -20.179688 41.296875 -19.859375 C 42.316406 -18.796875 42.5625 -17.554688 42.03125 -16.140625 C 41.78125 -15.515625 41.445312 -14.929688 41.03125 -14.390625 C 40.257812 -13.367188 39.394531 -12.429688 38.4375 -11.578125 C 37.28125 -10.535156 36.070312 -9.546875 34.8125 -8.609375 C 34.769531 -8.585938 34.722656 -8.5625 34.671875 -8.53125 C 34.609375 -8.488281 34.539062 -8.4375 34.46875 -8.375 C 34.40625 -8.320312 34.363281 -8.25 34.34375 -8.15625 C 34.382812 -8.125 34.425781 -8.109375 34.46875 -8.109375 C 34.519531 -8.117188 34.570312 -8.128906 34.625 -8.140625 C 34.6875 -8.160156 34.742188 -8.175781 34.796875 -8.1875 C 38.054688 -8.851562 41.328125 -9.398438 44.609375 -9.828125 C 46.191406 -10.023438 47.765625 -10.207031 49.328125 -10.375 C 49.878906 -10.425781 50.421875 -10.476562 50.953125 -10.53125 C 51.140625 -10.5625 51.332031 -10.578125 51.53125 -10.578125 C 51.71875 -10.585938 51.90625 -10.566406 52.09375 -10.515625 C 52.113281 -10.503906 52.132812 -10.484375 52.15625 -10.453125 C 52.175781 -10.429688 52.1875 -10.410156 52.1875 -10.390625 C 52.195312 -10.328125 52.1875 -10.273438 52.15625 -10.234375 C 52.125 -10.203125 52.085938 -10.179688 52.046875 -10.171875 Z M 14.40625 1.9375 C 14.40625 1.9375 14.410156 1.9375 14.421875 1.9375 C 14.503906 1.894531 14.582031 1.847656 14.65625 1.796875 C 14.726562 1.742188 14.773438 1.664062 14.796875 1.5625 C 14.773438 1.5625 14.757812 1.5625 14.75 1.5625 C 14.519531 1.570312 14.375 1.539062 14.3125 1.46875 C 14.257812 1.40625 14.257812 1.28125 14.3125 1.09375 C 14.34375 0.976562 14.382812 0.859375 14.4375 0.734375 C 14.457031 0.703125 14.472656 0.675781 14.484375 0.65625 C 14.566406 0.4375 14.648438 0.21875 14.734375 0 C 14.921875 -0.46875 15.109375 -0.945312 15.296875 -1.4375 C 15.304688 -1.457031 15.320312 -1.484375 15.34375 -1.515625 C 15.375 -1.597656 15.394531 -1.675781 15.40625 -1.75 C 15.414062 -1.820312 15.398438 -1.894531 15.359375 -1.96875 C 15.347656 -1.96875 15.335938 -1.96875 15.328125 -1.96875 C 15.265625 -1.957031 15.210938 -1.941406 15.171875 -1.921875 C 15.140625 -1.910156 15.113281 -1.898438 15.09375 -1.890625 C 13.6875 -1.378906 12.296875 -0.835938 10.921875 -0.265625 C 9.554688 0.296875 8.203125 0.90625 6.859375 1.5625 C 5.773438 2.082031 4.726562 2.664062 3.71875 3.3125 C 3.125 3.664062 2.585938 4.082031 2.109375 4.5625 C 1.847656 4.8125 1.644531 5.101562 1.5 5.4375 C 1.46875 5.550781 1.472656 5.65625 1.515625 5.75 C 1.566406 5.851562 1.65625 5.925781 1.78125 5.96875 C 1.914062 6 2.0625 6.015625 2.21875 6.015625 C 2.382812 6.015625 2.550781 6.003906 2.71875 5.984375 C 3.789062 5.785156 4.851562 5.515625 5.90625 5.171875 C 8.1875 4.441406 10.429688 3.613281 12.640625 2.6875 C 13.234375 2.445312 13.820312 2.195312 14.40625 1.9375 Z M 29.75 -6.140625 C 29.757812 -6.171875 29.773438 -6.191406 29.796875 -6.203125 C 29.835938 -6.210938 29.867188 -6.234375 29.890625 -6.265625 C 29.921875 -6.304688 29.921875 -6.363281 29.890625 -6.4375 C 29.828125 -6.425781 29.765625 -6.40625 29.703125 -6.375 C 29.328125 -6.269531 28.957031 -6.175781 28.59375 -6.09375 C 27.582031 -5.832031 26.582031 -5.5625 25.59375 -5.28125 C 22.820312 -4.507812 20.082031 -3.65625 17.375 -2.71875 C 17.132812 -2.632812 16.929688 -2.523438 16.765625 -2.390625 C 16.609375 -2.265625 16.5 -2.078125 16.4375 -1.828125 C 16.394531 -1.710938 16.347656 -1.59375 16.296875 -1.46875 C 16.253906 -1.414062 16.222656 -1.359375 16.203125 -1.296875 C 16.128906 -1.140625 16.019531 -0.910156 15.875 -0.609375 C 15.71875 -0.304688 15.5625 0.0078125 15.40625 0.34375 C 15.25 0.675781 15.140625 0.957031 15.078125 1.1875 C 15.023438 1.425781 15.050781 1.5625 15.15625 1.59375 C 15.3125 1.5625 15.457031 1.503906 15.59375 1.421875 C 15.65625 1.378906 15.722656 1.34375 15.796875 1.3125 C 18.785156 0 21.710938 -1.457031 24.578125 -3.0625 C 25.710938 -3.71875 26.835938 -4.378906 27.953125 -5.046875 C 28.441406 -5.347656 28.929688 -5.644531 29.421875 -5.9375 C 29.429688 -5.945312 29.441406 -5.953125 29.453125 -5.953125 C 29.554688 -6.003906 29.65625 -6.066406 29.75 -6.140625 Z M 29.75 -6.140625 "/></g></g></g><g fill="#000000" fill-opacity="1"><g transform="translate(218.61762, 200.476392)"><g><path d="M 0.1875 -1.328125 C -0.289062 -1.328125 -0.53125 -1.578125 -0.53125 -2.078125 C -0.53125 -2.691406 -0.132812 -3.765625 0.65625 -5.296875 C 0.6875 -5.359375 0.742188 -5.390625 0.828125 -5.390625 C 1.140625 -5.390625 1.296875 -5.265625 1.296875 -5.015625 C 1.296875 -4.929688 1.269531 -4.820312 1.21875 -4.6875 C 1.195312 -4.65625 0.929688 -3.992188 0.421875 -2.703125 C 0.335938 -2.484375 0.296875 -2.328125 0.296875 -2.234375 C 0.296875 -2.117188 0.347656 -2.0625 0.453125 -2.0625 C 0.816406 -2.0625 1.78125 -2.972656 3.34375 -4.796875 C 3.539062 -5.046875 3.738281 -5.171875 3.9375 -5.171875 C 4.21875 -5.171875 4.359375 -5.066406 4.359375 -4.859375 C 4.359375 -4.773438 4.269531 -4.46875 4.09375 -3.9375 C 3.851562 -3.21875 3.734375 -2.804688 3.734375 -2.703125 C 3.734375 -2.535156 3.789062 -2.453125 3.90625 -2.453125 C 4.175781 -2.453125 4.984375 -2.941406 6.328125 -3.921875 C 6.398438 -3.992188 6.460938 -4.03125 6.515625 -4.03125 C 6.640625 -4.03125 6.703125 -3.921875 6.703125 -3.703125 C 6.703125 -3.648438 6.6875 -3.609375 6.65625 -3.578125 C 5.945312 -2.960938 5.34375 -2.5 4.84375 -2.1875 C 4.394531 -1.894531 3.992188 -1.75 3.640625 -1.75 L 3.53125 -1.75 C 3.019531 -1.863281 2.765625 -2.269531 2.765625 -2.96875 C 2.210938 -2.476562 1.753906 -2.082031 1.390625 -1.78125 C 1.023438 -1.476562 0.625 -1.328125 0.1875 -1.328125 Z M 0.1875 -1.328125 "/></g></g></g><g fill="#000000" fill-opacity="1"><g transform="translate(227.1262, 200.476392)"><g><path d="M 4.71875 -3.640625 C 4.039062 -2.847656 3.378906 -2.257812 2.734375 -1.875 C 2.085938 -1.5 1.394531 -1.375 0.65625 -1.5 C -0.0703125 -1.632812 -0.375 -2.132812 -0.25 -3 C -0.15625 -3.425781 -0.03125 -3.847656 0.125 -4.265625 C 0.507812 -5.222656 0.898438 -6.175781 1.296875 -7.125 C 1.429688 -7.46875 1.570312 -7.8125 1.71875 -8.15625 C 1.75 -8.226562 1.78125 -8.300781 1.8125 -8.375 C 1.863281 -8.507812 1.914062 -8.640625 1.96875 -8.765625 C 2.050781 -8.984375 1.96875 -9.097656 1.71875 -9.109375 C 1.570312 -9.109375 1.425781 -9.109375 1.28125 -9.109375 C 1.21875 -9.109375 1.144531 -9.109375 1.0625 -9.109375 C 0.988281 -9.097656 0.910156 -9.085938 0.828125 -9.078125 C 0.703125 -9.066406 0.570312 -9.0625 0.4375 -9.0625 C 0.3125 -9.0625 0.191406 -9.097656 0.078125 -9.171875 C 0.046875 -9.179688 0.0195312 -9.195312 0 -9.21875 C -0.0078125 -9.25 -0.015625 -9.28125 -0.015625 -9.3125 C -0.00390625 -9.332031 0.0078125 -9.359375 0.03125 -9.390625 C 0.0507812 -9.421875 0.0820312 -9.4375 0.125 -9.4375 C 0.226562 -9.488281 0.34375 -9.523438 0.46875 -9.546875 C 0.78125 -9.554688 1.085938 -9.566406 1.390625 -9.578125 C 1.515625 -9.578125 1.625 -9.578125 1.71875 -9.578125 C 1.914062 -9.578125 2.0625 -9.582031 2.15625 -9.59375 C 2.257812 -9.613281 2.335938 -9.664062 2.390625 -9.75 C 2.453125 -9.84375 2.523438 -9.984375 2.609375 -10.171875 C 2.648438 -10.273438 2.707031 -10.382812 2.78125 -10.5 C 2.9375 -10.851562 3.097656 -11.210938 3.265625 -11.578125 C 3.347656 -11.742188 3.425781 -11.90625 3.5 -12.0625 C 3.570312 -12.21875 3.675781 -12.34375 3.8125 -12.4375 C 3.945312 -12.5 4.066406 -12.492188 4.171875 -12.421875 C 4.203125 -12.398438 4.222656 -12.363281 4.234375 -12.3125 C 4.253906 -12.269531 4.265625 -12.234375 4.265625 -12.203125 C 4.265625 -12.003906 4.210938 -11.804688 4.109375 -11.609375 C 4.085938 -11.578125 4.066406 -11.53125 4.046875 -11.46875 C 3.984375 -11.289062 3.914062 -11.109375 3.84375 -10.921875 C 3.695312 -10.578125 3.554688 -10.226562 3.421875 -9.875 C 3.390625 -9.8125 3.390625 -9.753906 3.421875 -9.703125 C 3.453125 -9.648438 3.5 -9.625 3.5625 -9.625 C 3.914062 -9.613281 4.265625 -9.609375 4.609375 -9.609375 C 4.785156 -9.609375 4.960938 -9.609375 5.140625 -9.609375 C 5.691406 -9.597656 5.910156 -9.519531 5.796875 -9.375 C 5.722656 -9.289062 5.640625 -9.242188 5.546875 -9.234375 C 5.460938 -9.222656 5.378906 -9.222656 5.296875 -9.234375 C 5.234375 -9.234375 5.175781 -9.234375 5.125 -9.234375 C 4.5625 -9.203125 4.003906 -9.179688 3.453125 -9.171875 C 3.191406 -9.171875 3.019531 -9.050781 2.9375 -8.8125 C 2.84375 -8.59375 2.753906 -8.375 2.671875 -8.15625 C 2.546875 -7.863281 2.429688 -7.578125 2.328125 -7.296875 C 2.210938 -7.035156 2.097656 -6.773438 1.984375 -6.515625 C 1.703125 -5.835938 1.425781 -5.160156 1.15625 -4.484375 C 0.988281 -4.046875 0.859375 -3.59375 0.765625 -3.125 C 0.554688 -2.289062 0.878906 -1.96875 1.734375 -2.15625 C 2.578125 -2.363281 3.460938 -2.972656 4.390625 -3.984375 C 4.796875 -4.242188 4.90625 -4.128906 4.71875 -3.640625 Z M 4.71875 -3.640625 "/></g></g></g><g fill="#000000" fill-opacity="1"><g transform="translate(233.720919, 200.476392)"><g><path d="M 3.609375 -4.625 C 3.566406 -4.28125 3.40625 -4.054688 3.125 -3.953125 C 2.84375 -3.847656 2.75 -3.984375 2.84375 -4.359375 C 2.945312 -4.742188 2.773438 -4.84375 2.328125 -4.65625 C 1.890625 -4.46875 1.53125 -4.226562 1.25 -3.9375 C 0.800781 -3.488281 0.40625 -3.003906 0.0625 -2.484375 C 0.03125 -2.429688 0.00390625 -2.390625 -0.015625 -2.359375 C -0.117188 -2.210938 -0.21875 -2.078125 -0.3125 -1.953125 C -0.382812 -1.859375 -0.460938 -1.800781 -0.546875 -1.78125 C -0.628906 -1.757812 -0.71875 -1.753906 -0.8125 -1.765625 C -0.894531 -1.773438 -0.957031 -1.804688 -1 -1.859375 C -1.050781 -1.921875 -1.0625 -1.988281 -1.03125 -2.0625 C -0.96875 -2.195312 -0.898438 -2.335938 -0.828125 -2.484375 C -0.378906 -3.316406 0.078125 -4.15625 0.546875 -5 C 0.554688 -5.007812 0.5625 -5.019531 0.5625 -5.03125 C 0.625 -5.164062 0.703125 -5.285156 0.796875 -5.390625 C 0.898438 -5.503906 1.015625 -5.550781 1.140625 -5.53125 C 1.273438 -5.507812 1.363281 -5.429688 1.40625 -5.296875 C 1.46875 -5.117188 1.515625 -5.019531 1.546875 -5 C 1.585938 -4.976562 1.679688 -4.992188 1.828125 -5.046875 C 2.128906 -5.160156 2.421875 -5.238281 2.703125 -5.28125 C 2.992188 -5.332031 3.226562 -5.320312 3.40625 -5.25 C 3.59375 -5.175781 3.660156 -4.96875 3.609375 -4.625 Z M 3.609375 -4.625 "/></g></g></g><g fill="#000000" fill-opacity="1"><g transform="translate(239.803267, 200.476392)"><g><path d="M 0.1875 -1.328125 C -0.289062 -1.328125 -0.53125 -1.578125 -0.53125 -2.078125 C -0.53125 -2.691406 -0.132812 -3.765625 0.65625 -5.296875 C 0.6875 -5.359375 0.742188 -5.390625 0.828125 -5.390625 C 1.140625 -5.390625 1.296875 -5.265625 1.296875 -5.015625 C 1.296875 -4.929688 1.269531 -4.820312 1.21875 -4.6875 C 1.195312 -4.65625 0.929688 -3.992188 0.421875 -2.703125 C 0.335938 -2.484375 0.296875 -2.328125 0.296875 -2.234375 C 0.296875 -2.117188 0.347656 -2.0625 0.453125 -2.0625 C 0.816406 -2.0625 1.78125 -2.972656 3.34375 -4.796875 C 3.539062 -5.046875 3.738281 -5.171875 3.9375 -5.171875 C 4.21875 -5.171875 4.359375 -5.066406 4.359375 -4.859375 C 4.359375 -4.773438 4.269531 -4.46875 4.09375 -3.9375 C 3.851562 -3.21875 3.734375 -2.804688 3.734375 -2.703125 C 3.734375 -2.535156 3.789062 -2.453125 3.90625 -2.453125 C 4.175781 -2.453125 4.984375 -2.941406 6.328125 -3.921875 C 6.398438 -3.992188 6.460938 -4.03125 6.515625 -4.03125 C 6.640625 -4.03125 6.703125 -3.921875 6.703125 -3.703125 C 6.703125 -3.648438 6.6875 -3.609375 6.65625 -3.578125 C 5.945312 -2.960938 5.34375 -2.5 4.84375 -2.1875 C 4.394531 -1.894531 3.992188 -1.75 3.640625 -1.75 L 3.53125 -1.75 C 3.019531 -1.863281 2.765625 -2.269531 2.765625 -2.96875 C 2.210938 -2.476562 1.753906 -2.082031 1.390625 -1.78125 C 1.023438 -1.476562 0.625 -1.328125 0.1875 -1.328125 Z M 0.1875 -1.328125 "/></g></g></g><g fill="#000000" fill-opacity="1"><g transform="translate(248.311848, 200.476392)"><g><path d="M 5.4375 -3.921875 C 5.457031 -3.921875 5.484375 -3.914062 5.515625 -3.90625 C 5.554688 -3.894531 5.582031 -3.878906 5.59375 -3.859375 C 5.664062 -3.796875 5.675781 -3.71875 5.625 -3.625 C 5.550781 -3.550781 5.484375 -3.488281 5.421875 -3.4375 C 5.035156 -3.070312 4.601562 -2.769531 4.125 -2.53125 C 3.382812 -2.15625 2.566406 -1.960938 1.671875 -1.953125 C 1.335938 -1.941406 0.992188 -2 0.640625 -2.125 C 0.00390625 -2.375 -0.253906 -2.835938 -0.140625 -3.515625 C 0.00390625 -4.140625 0.359375 -4.660156 0.921875 -5.078125 C 1.484375 -5.492188 2.085938 -5.671875 2.734375 -5.609375 C 2.859375 -5.585938 2.976562 -5.5625 3.09375 -5.53125 C 3.207031 -5.488281 3.289062 -5.421875 3.34375 -5.328125 C 3.40625 -5.242188 3.410156 -5.175781 3.359375 -5.125 C 3.242188 -4.988281 3.109375 -4.953125 2.953125 -5.015625 C 2.710938 -5.117188 2.492188 -5.144531 2.296875 -5.09375 C 2.109375 -5.050781 1.914062 -4.945312 1.71875 -4.78125 C 1.53125 -4.632812 1.328125 -4.421875 1.109375 -4.140625 C 0.890625 -3.867188 0.75 -3.59375 0.6875 -3.3125 C 0.625 -3.03125 0.75 -2.800781 1.0625 -2.625 C 1.414062 -2.46875 1.773438 -2.429688 2.140625 -2.515625 C 3.054688 -2.703125 3.90625 -3.050781 4.6875 -3.5625 C 4.757812 -3.59375 4.820312 -3.628906 4.875 -3.671875 C 4.957031 -3.742188 5.039062 -3.800781 5.125 -3.84375 C 5.21875 -3.882812 5.320312 -3.910156 5.4375 -3.921875 Z M 5.4375 -3.921875 "/></g></g></g><g fill="#000000" fill-opacity="1"><g transform="translate(255.652521, 200.476392)"><g><path d="M 6.125 -3.515625 C 6.03125 -3.429688 5.929688 -3.359375 5.828125 -3.296875 C 5.515625 -3.097656 5.226562 -2.9375 4.96875 -2.8125 C 4.707031 -2.695312 4.398438 -2.582031 4.046875 -2.46875 C 3.523438 -2.3125 3.1875 -2.34375 3.03125 -2.5625 C 2.882812 -2.789062 2.863281 -3.109375 2.96875 -3.515625 C 3.113281 -4.085938 3.195312 -4.503906 3.21875 -4.765625 C 3.238281 -5.035156 3.148438 -5.128906 2.953125 -5.046875 C 2.753906 -4.960938 2.394531 -4.6875 1.875 -4.21875 C 1.144531 -3.59375 0.519531 -2.875 0 -2.0625 C -0.0625 -1.957031 -0.140625 -1.867188 -0.234375 -1.796875 C -0.335938 -1.722656 -0.457031 -1.6875 -0.59375 -1.6875 C -0.726562 -1.6875 -0.828125 -1.722656 -0.890625 -1.796875 C -0.953125 -1.867188 -0.953125 -1.960938 -0.890625 -2.078125 C -0.597656 -2.734375 -0.296875 -3.382812 0.015625 -4.03125 C 0.546875 -5.144531 1.070312 -6.253906 1.59375 -7.359375 C 1.976562 -8.179688 2.359375 -9.007812 2.734375 -9.84375 C 2.960938 -10.332031 3.191406 -10.820312 3.421875 -11.3125 C 3.429688 -11.34375 3.453125 -11.382812 3.484375 -11.4375 C 3.503906 -11.488281 3.523438 -11.539062 3.546875 -11.59375 C 3.578125 -11.65625 3.609375 -11.71875 3.640625 -11.78125 C 3.671875 -11.832031 3.726562 -11.875 3.8125 -11.90625 C 3.894531 -11.945312 3.976562 -11.972656 4.0625 -11.984375 C 4.144531 -11.992188 4.210938 -11.988281 4.265625 -11.96875 C 4.328125 -11.925781 4.359375 -11.878906 4.359375 -11.828125 C 4.367188 -11.773438 4.363281 -11.722656 4.34375 -11.671875 C 4.332031 -11.660156 4.328125 -11.640625 4.328125 -11.609375 C 4.222656 -11.316406 4.117188 -11.03125 4.015625 -10.75 C 3.367188 -9.21875 2.671875 -7.707031 1.921875 -6.21875 C 1.867188 -6.113281 1.800781 -5.988281 1.71875 -5.84375 C 1.613281 -5.644531 1.515625 -5.445312 1.421875 -5.25 C 1.328125 -5.0625 1.296875 -4.929688 1.328125 -4.859375 C 1.359375 -4.796875 1.503906 -4.847656 1.765625 -5.015625 C 1.847656 -5.078125 1.921875 -5.132812 1.984375 -5.1875 C 2.203125 -5.320312 2.410156 -5.453125 2.609375 -5.578125 C 2.796875 -5.703125 3 -5.769531 3.21875 -5.78125 C 3.75 -5.8125 4.046875 -5.570312 4.109375 -5.0625 C 4.128906 -4.851562 4.117188 -4.648438 4.078125 -4.453125 C 4.046875 -4.253906 4 -4.054688 3.9375 -3.859375 C 3.925781 -3.804688 3.914062 -3.75 3.90625 -3.6875 C 3.820312 -3.351562 3.847656 -3.160156 3.984375 -3.109375 C 4.117188 -3.054688 4.3125 -3.082031 4.5625 -3.1875 C 4.8125 -3.289062 5.066406 -3.421875 5.328125 -3.578125 C 5.492188 -3.660156 5.644531 -3.734375 5.78125 -3.796875 C 5.914062 -3.867188 6.015625 -3.898438 6.078125 -3.890625 C 6.203125 -3.867188 6.257812 -3.816406 6.25 -3.734375 C 6.238281 -3.660156 6.195312 -3.585938 6.125 -3.515625 Z M 6.125 -3.515625 "/></g></g></g><g fill="#000000" fill-opacity="1"><g transform="translate(263.716542, 200.476392)"><g/></g></g><g fill="#000000" fill-opacity="1"><g transform="translate(271.727814, 200.476392)"><g><path d="M 3.65625 -3.28125 L 3.046875 -3.296875 C 2.429688 -3.316406 1.757812 -3.363281 1.03125 -3.4375 C 1.019531 -3.4375 1.007812 -3.445312 1 -3.46875 C 0.976562 -3.46875 0.957031 -3.476562 0.9375 -3.5 C 0.925781 -3.519531 0.925781 -3.554688 0.9375 -3.609375 C 1 -3.835938 1.082031 -3.957031 1.1875 -3.96875 C 1.78125 -4.050781 2.363281 -4.097656 2.9375 -4.109375 L 3.28125 -4.125 L 5.609375 -4.125 C 5.734375 -4.125 5.859375 -4.113281 5.984375 -4.09375 C 6.078125 -4.070312 6.085938 -3.941406 6.015625 -3.703125 C 5.953125 -3.472656 5.875 -3.347656 5.78125 -3.328125 C 5.726562 -3.316406 5.679688 -3.3125 5.640625 -3.3125 L 5.28125 -3.3125 C 4.757812 -3.289062 4.21875 -3.28125 3.65625 -3.28125 Z M 3.65625 -3.28125 "/></g></g></g><g mask="url(#afcabac2c3)"><g transform="matrix(1, 0, 0, 1, 128, 222)"><g clip-path="url(#6f54d3c97f)"><g clip-path="url(#b89d04383b)"><g fill="#ffffff" fill-opacity="1"><g transform="translate(0.516993, 5.705361)"><g><path d="M 0.300781 0 L 1.136719 0 L 1.136719 -1.789062 L 4.035156 -1.789062 L 4.035156 -2.371094 L 1.136719 -2.371094 L 1.136719 -3.613281 L 4.390625 -3.613281 L 4.390625 -4.269531 L 0.300781 -4.269531 Z M 0.300781 0 "/></g></g></g></g><g fill="#ffffff" fill-opacity="1"><g transform="translate(6.337736, 5.705361)"><g><path d="M 4.761719 0.121094 C 5.09375 0.121094 5.398438 -0.0429688 5.582031 -0.265625 L 5.328125 -0.664062 C 5.238281 -0.523438 5.105469 -0.425781 4.972656 -0.425781 C 4.808594 -0.425781 4.726562 -0.542969 4.652344 -0.6875 L 4.351562 -1.292969 C 4.25 -1.523438 4.113281 -1.699219 3.90625 -1.804688 L 3.90625 -1.8125 C 4.691406 -1.894531 5.171875 -2.355469 5.171875 -2.992188 C 5.171875 -3.78125 4.550781 -4.269531 3.550781 -4.269531 L 0.300781 -4.269531 L 0.300781 0 L 1.136719 0 L 1.136719 -1.65625 L 2.878906 -1.65625 C 3.179688 -1.65625 3.429688 -1.46875 3.574219 -1.167969 L 3.902344 -0.476562 C 4.0625 -0.15625 4.308594 0.121094 4.761719 0.121094 Z M 1.136719 -2.234375 L 1.136719 -3.671875 L 3.378906 -3.671875 C 3.960938 -3.671875 4.335938 -3.390625 4.335938 -2.945312 C 4.335938 -2.515625 3.960938 -2.234375 3.378906 -2.234375 Z M 1.136719 -2.234375 "/></g></g></g><g fill="#ffffff" fill-opacity="1"><g transform="translate(13.253805, 5.705361)"><g><path d="M 3.195312 0.152344 C 4.964844 0.152344 6.171875 -0.777344 6.171875 -2.132812 C 6.171875 -3.480469 4.964844 -4.417969 3.195312 -4.417969 C 1.433594 -4.417969 0.230469 -3.480469 0.230469 -2.132812 C 0.230469 -0.777344 1.433594 0.152344 3.195312 0.152344 Z M 3.195312 -0.5 C 1.9375 -0.5 1.066406 -1.167969 1.066406 -2.132812 C 1.066406 -3.09375 1.9375 -3.761719 3.195312 -3.761719 C 4.453125 -3.761719 5.332031 -3.09375 5.332031 -2.132812 C 5.332031 -1.167969 4.453125 -0.5 3.195312 -0.5 Z M 3.195312 -0.5 "/></g></g></g><g fill="#ffffff" fill-opacity="1"><g transform="translate(20.988357, 5.705361)"><g><path d="M 0.300781 0 L 1.109375 0 L 1.109375 -3.457031 L 1.113281 -3.457031 L 4.171875 0 L 5.21875 0 L 5.21875 -4.269531 L 4.40625 -4.269531 L 4.40625 -0.820312 L 4.402344 -0.820312 L 1.347656 -4.269531 L 0.300781 -4.269531 Z M 0.300781 0 "/></g></g></g><g fill="#ffffff" fill-opacity="1"><g transform="translate(27.844244, 5.705361)"><g><path d="M 1.949219 0 L 2.789062 0 L 2.789062 -3.613281 L 4.703125 -3.613281 L 4.703125 -4.269531 L 0.0351562 -4.269531 L 0.0351562 -3.613281 L 1.949219 -3.613281 Z M 1.949219 0 "/></g></g></g><g fill="#ffffff" fill-opacity="1"><g transform="translate(33.917754, 5.705361)"><g><path d="M 0.28125 -1.34375 L 2.859375 -1.34375 L 2.859375 -1.859375 L 0.28125 -1.859375 Z M 0.28125 -1.34375 "/></g></g></g><g fill="#ffffff" fill-opacity="1"><g transform="translate(38.390404, 5.705361)"><g><path d="M 0.300781 0 L 4.605469 0 L 4.605469 -0.609375 L 1.113281 -0.609375 L 1.113281 -1.914062 L 4.304688 -1.914062 L 4.304688 -2.472656 L 1.113281 -2.472656 L 1.113281 -3.652344 L 4.546875 -3.652344 L 4.546875 -4.269531 L 0.300781 -4.269531 Z M 0.300781 0 "/></g></g></g><g fill="#ffffff" fill-opacity="1"><g transform="translate(44.451876, 5.705361)"><g><path d="M 0.300781 0 L 1.109375 0 L 1.109375 -3.457031 L 1.113281 -3.457031 L 4.171875 0 L 5.21875 0 L 5.21875 -4.269531 L 4.40625 -4.269531 L 4.40625 -0.820312 L 4.402344 -0.820312 L 1.347656 -4.269531 L 0.300781 -4.269531 Z M 0.300781 0 "/></g></g></g><g fill="#ffffff" fill-opacity="1"><g transform="translate(51.307763, 5.705361)"><g><path d="M 0.300781 0 L 2.980469 0 C 4.59375 0 5.492188 -0.765625 5.492188 -2.132812 C 5.492188 -3.503906 4.59375 -4.269531 2.980469 -4.269531 L 0.300781 -4.269531 Z M 1.125 -0.632812 L 1.125 -3.625 L 2.90625 -3.625 C 4.039062 -3.625 4.671875 -3.09375 4.671875 -2.132812 C 4.671875 -1.167969 4.039062 -0.632812 2.90625 -0.632812 Z M 1.125 -0.632812 "/></g></g></g><g fill="#ffffff" fill-opacity="1"><g transform="translate(58.362253, 5.705361)"><g/></g></g><g fill="#ffffff" fill-opacity="1"><g transform="translate(61.438665, 5.705361)"><g><path d="M 0.300781 0 L 2.980469 0 C 4.59375 0 5.492188 -0.765625 5.492188 -2.132812 C 5.492188 -3.503906 4.59375 -4.269531 2.980469 -4.269531 L 0.300781 -4.269531 Z M 1.125 -0.632812 L 1.125 -3.625 L 2.90625 -3.625 C 4.039062 -3.625 4.671875 -3.09375 4.671875 -2.132812 C 4.671875 -1.167969 4.039062 -0.632812 2.90625 -0.632812 Z M 1.125 -0.632812 "/></g></g></g><g fill="#ffffff" fill-opacity="1"><g transform="translate(68.493155, 5.705361)"><g><path d="M 0.300781 0 L 4.605469 0 L 4.605469 -0.609375 L 1.113281 -0.609375 L 1.113281 -1.914062 L 4.304688 -1.914062 L 4.304688 -2.472656 L 1.113281 -2.472656 L 1.113281 -3.652344 L 4.546875 -3.652344 L 4.546875 -4.269531 L 0.300781 -4.269531 Z M 0.300781 0 "/></g></g></g><g fill="#ffffff" fill-opacity="1"><g transform="translate(74.554628, 5.705361)"><g><path d="M 2.210938 0 L 3.140625 0 L 5.359375 -4.269531 L 4.460938 -4.269531 L 2.683594 -0.78125 L 2.671875 -0.78125 L 0.890625 -4.269531 L 0 -4.269531 Z M 2.210938 0 "/></g></g></g><g fill="#ffffff" fill-opacity="1"><g transform="translate(81.248024, 5.705361)"><g><path d="M 0.300781 0 L 4.605469 0 L 4.605469 -0.609375 L 1.113281 -0.609375 L 1.113281 -1.914062 L 4.304688 -1.914062 L 4.304688 -2.472656 L 1.113281 -2.472656 L 1.113281 -3.652344 L 4.546875 -3.652344 L 4.546875 -4.269531 L 0.300781 -4.269531 Z M 0.300781 0 "/></g></g></g><g fill="#ffffff" fill-opacity="1"><g transform="translate(87.309496, 5.705361)"><g><path d="M 0.300781 0 L 3.871094 0 L 3.871094 -0.664062 L 1.136719 -0.664062 L 1.136719 -4.269531 L 0.300781 -4.269531 Z M 0.300781 0 "/></g></g></g><g fill="#ffffff" fill-opacity="1"><g transform="translate(92.564523, 5.705361)"><g><path d="M 3.195312 0.152344 C 4.964844 0.152344 6.171875 -0.777344 6.171875 -2.132812 C 6.171875 -3.480469 4.964844 -4.417969 3.195312 -4.417969 C 1.433594 -4.417969 0.230469 -3.480469 0.230469 -2.132812 C 0.230469 -0.777344 1.433594 0.152344 3.195312 0.152344 Z M 3.195312 -0.5 C 1.9375 -0.5 1.066406 -1.167969 1.066406 -2.132812 C 1.066406 -3.09375 1.9375 -3.761719 3.195312 -3.761719 C 4.453125 -3.761719 5.332031 -3.09375 5.332031 -2.132812 C 5.332031 -1.167969 4.453125 -0.5 3.195312 -0.5 Z M 3.195312 -0.5 "/></g></g></g><g fill="#ffffff" fill-opacity="1"><g transform="translate(100.299075, 5.705361)"><g><path d="M 0.300781 0 L 1.136719 0 L 1.136719 -1.476562 L 3.394531 -1.476562 C 4.484375 -1.476562 5.09375 -1.988281 5.097656 -2.859375 C 5.097656 -3.75 4.492188 -4.269531 3.402344 -4.269531 L 0.300781 -4.269531 Z M 1.136719 -2.054688 L 1.136719 -3.683594 L 3.191406 -3.683594 C 3.878906 -3.683594 4.261719 -3.382812 4.261719 -2.867188 C 4.261719 -2.355469 3.878906 -2.054688 3.191406 -2.054688 Z M 1.136719 -2.054688 "/></g></g></g><g fill="#ffffff" fill-opacity="1"><g transform="translate(106.829975, 5.705361)"><g><path d="M 0.300781 0 L 4.605469 0 L 4.605469 -0.609375 L 1.113281 -0.609375 L 1.113281 -1.914062 L 4.304688 -1.914062 L 4.304688 -2.472656 L 1.113281 -2.472656 L 1.113281 -3.652344 L 4.546875 -3.652344 L 4.546875 -4.269531 L 0.300781 -4.269531 Z M 0.300781 0 "/></g></g></g><g fill="#ffffff" fill-opacity="1"><g transform="translate(112.891441, 5.705361)"><g><path d="M 4.761719 0.121094 C 5.09375 0.121094 5.398438 -0.0429688 5.582031 -0.265625 L 5.328125 -0.664062 C 5.238281 -0.523438 5.105469 -0.425781 4.972656 -0.425781 C 4.808594 -0.425781 4.726562 -0.542969 4.652344 -0.6875 L 4.351562 -1.292969 C 4.25 -1.523438 4.113281 -1.699219 3.90625 -1.804688 L 3.90625 -1.8125 C 4.691406 -1.894531 5.171875 -2.355469 5.171875 -2.992188 C 5.171875 -3.78125 4.550781 -4.269531 3.550781 -4.269531 L 0.300781 -4.269531 L 0.300781 0 L 1.136719 0 L 1.136719 -1.65625 L 2.878906 -1.65625 C 3.179688 -1.65625 3.429688 -1.46875 3.574219 -1.167969 L 3.902344 -0.476562 C 4.0625 -0.15625 4.308594 0.121094 4.761719 0.121094 Z M 1.136719 -2.234375 L 1.136719 -3.671875 L 3.378906 -3.671875 C 3.960938 -3.671875 4.335938 -3.390625 4.335938 -2.945312 C 4.335938 -2.515625 3.960938 -2.234375 3.378906 -2.234375 Z M 1.136719 -2.234375 "/></g></g></g></g></g></g></svg>