<svg xmlns="http://www.w3.org/2000/svg" xmlns:xlink="http://www.w3.org/1999/xlink" width="500" zoomAndPan="magnify" viewBox="0 0 375 374.999991" height="500" preserveAspectRatio="xMidYMid meet" version="1.0"><defs><g/><clipPath id="44dcfee9e0"><path d="M 102.019531 161.046875 L 280.464844 161.046875 L 280.464844 181.902344 L 102.019531 181.902344 Z M 102.019531 161.046875 " clip-rule="nonzero"/></clipPath></defs><rect x="-37.5" width="450" fill="#ffffff" y="-37.499999" height="449.999989" fill-opacity="1"/><rect x="-37.5" width="450" fill="#f4f4f4" y="-37.499999" height="449.999989" fill-opacity="1"/><g fill="#3b3937" fill-opacity="1"><g transform="translate(175.1847, 221.55753)"><g><path d="M 3.578125 0 L 3.578125 -1.015625 L 5.734375 -1.015625 C 8.117188 -1.015625 9.972656 -1.5625 11.296875 -2.65625 C 12.628906 -3.75 13.296875 -5.59375 13.296875 -8.1875 L 13.296875 -65.25 C 13.296875 -67.632812 12.628906 -69.351562 11.296875 -70.40625 C 9.972656 -71.46875 8.117188 -72 5.734375 -72 L 3.578125 -72 L 3.578125 -73.015625 L 35.59375 -73.015625 C 46.363281 -73.015625 54.75 -69.894531 60.75 -63.65625 C 66.75 -57.414062 69.75 -48.503906 69.75 -36.921875 C 69.75 -29.484375 68.46875 -22.988281 65.90625 -17.4375 C 63.351562 -11.882812 59.535156 -7.585938 54.453125 -4.546875 C 49.378906 -1.515625 43.09375 0 35.59375 0 Z M 25.15625 -1.015625 L 33.234375 -1.015625 C 41.484375 -1.015625 47.460938 -3.828125 51.171875 -9.453125 C 54.890625 -15.078125 56.75 -24.234375 56.75 -36.921875 C 56.75 -49.253906 54.910156 -58.179688 51.234375 -63.703125 C 47.554688 -69.234375 41.59375 -72 33.34375 -72 L 25.15625 -72 Z M 25.15625 -1.015625 "/></g></g></g><g fill="#3b3937" fill-opacity="1"><g transform="translate(144.68199, 197.346183)"><g><path d="M -1.4375 24.546875 L -1.4375 23.515625 L -0.203125 23.515625 C 2.523438 23.515625 4.894531 22.9375 6.90625 21.78125 C 8.914062 20.625 10.484375 18.679688 11.609375 15.953125 C 12.734375 13.222656 13.296875 9.507812 13.296875 4.8125 L 13.296875 -65.25 C 13.296875 -67.632812 12.644531 -69.351562 11.34375 -70.40625 C 10.050781 -71.46875 8.210938 -72 5.828125 -72 L 3.6875 -72 L 3.6875 -73.015625 L 34.96875 -73.015625 L 34.96875 -72 L 32.828125 -72 C 30.367188 -72 28.492188 -71.453125 27.203125 -70.359375 C 25.910156 -69.265625 25.265625 -67.425781 25.265625 -64.84375 L 25.265625 0.609375 C 25.265625 6.742188 24.15625 11.550781 21.9375 15.03125 C 19.71875 18.507812 16.765625 20.960938 13.078125 22.390625 C 9.398438 23.828125 5.3125 24.546875 0.8125 24.546875 Z M -1.4375 24.546875 "/></g></g></g><g clip-path="url(#44dcfee9e0)"><path fill="#f4f4f4" d="M 102.019531 161.046875 L 280.464844 161.046875 L 280.464844 181.902344 L 102.019531 181.902344 Z M 102.019531 161.046875 " fill-opacity="1" fill-rule="nonzero"/></g><g fill="#967f71" fill-opacity="1"><g transform="translate(116.681436, 175.964564)"><g><path d="M 2.796875 -0.0898438 C 5.21875 -0.273438 11.09375 -2.523438 11.269531 -6.957031 C 11.292969 -8.023438 10.773438 -9.027344 9.882812 -9.628906 C 8.410156 -10.722656 6.164062 -10.984375 4.160156 -10.289062 C 1.84375 -9.496094 0.363281 -8.066406 0.183594 -6.472656 C 0.0546875 -5.484375 0.527344 -4.503906 1.382812 -3.996094 C 2 -3.632812 2.722656 -3.472656 3.429688 -3.554688 C 3.472656 -3.5625 3.519531 -3.542969 3.542969 -3.507812 C 3.570312 -3.472656 3.578125 -3.429688 3.570312 -3.394531 C 3.21875 -2.273438 2.847656 -1.15625 2.558594 -0.40625 C 2.53125 -0.335938 2.539062 -0.253906 2.582031 -0.183594 C 2.628906 -0.125 2.699219 -0.0898438 2.777344 -0.0898438 Z M 4.082031 -3.492188 C 4.117188 -3.597656 4.207031 -3.6875 4.320312 -3.722656 C 5.035156 -3.921875 5.703125 -4.230469 6.3125 -4.636719 C 6.382812 -4.683594 6.425781 -4.761719 6.417969 -4.847656 C 6.417969 -4.929688 6.367188 -5.007812 6.296875 -5.042969 C 6.214844 -5.078125 6.128906 -5.078125 6.058594 -5.027344 C 5.582031 -4.71875 5.070312 -4.460938 4.53125 -4.265625 C 4.488281 -4.25 4.433594 -4.265625 4.398438 -4.304688 C 4.375 -4.328125 4.355469 -4.382812 4.375 -4.425781 C 4.839844 -5.976562 5.21875 -7.28125 5.230469 -7.300781 C 5.253906 -7.40625 5.210938 -7.519531 5.113281 -7.566406 C 5.027344 -7.617188 4.910156 -7.601562 4.832031 -7.519531 C 4.445312 -7.105469 3.808594 -7.019531 3.324219 -7.316406 C 3.21875 -7.390625 3.078125 -7.355469 3.007812 -7.246094 C 2.9375 -7.132812 2.972656 -6.992188 3.085938 -6.921875 C 3.464844 -6.675781 3.941406 -6.605469 4.375 -6.726562 C 4.417969 -6.746094 4.46875 -6.738281 4.503906 -6.699219 C 4.53125 -6.675781 4.550781 -6.621094 4.53125 -6.578125 C 4.355469 -5.988281 4.109375 -5.140625 3.835938 -4.242188 C 3.800781 -4.136719 3.703125 -4.054688 3.597656 -4.039062 C 2.917969 -3.921875 2.222656 -4.046875 1.632812 -4.382812 C 0.925781 -4.804688 0.539062 -5.609375 0.644531 -6.425781 C 0.792969 -7.839844 2.167969 -9.117188 4.3125 -9.859375 C 6.179688 -10.5 8.253906 -10.261719 9.609375 -9.257812 C 10.367188 -8.753906 10.820312 -7.890625 10.808594 -6.972656 C 10.660156 -3.210938 5.828125 -1.074219 3.332031 -0.625 C 3.289062 -0.617188 3.246094 -0.636719 3.21875 -0.671875 C 3.191406 -0.707031 3.183594 -0.75 3.191406 -0.792969 C 3.464844 -1.5625 3.78125 -2.53125 4.082031 -3.492188 Z M 4.082031 -3.492188 "/></g></g></g><g fill="#967f71" fill-opacity="1"><g transform="translate(127.442435, 175.964564)"><g><path d="M 7.414062 -2.167969 C 7.335938 -2.265625 7.1875 -2.285156 7.089844 -2.203125 C 7.054688 -2.179688 3.660156 0.511719 0.828125 -0.644531 C 0.148438 -0.925781 0.238281 -1.3125 0.265625 -1.4375 C 0.265625 -1.4375 0.265625 -1.445312 0.265625 -1.453125 C 0.765625 -1.359375 1.542969 -1.5625 2 -1.859375 C 2.425781 -2.140625 2.496094 -2.433594 2.46875 -2.628906 C 2.433594 -2.972656 2.203125 -3.191406 1.871094 -3.210938 C 1.171875 -3.246094 0.0078125 -2.414062 -0.183594 -1.535156 C -0.265625 -1.207031 -0.253906 -0.589844 0.652344 -0.21875 C 1.226562 0.0195312 1.808594 0.113281 2.378906 0.113281 C 4.910156 0.113281 7.257812 -1.746094 7.378906 -1.84375 C 7.476562 -1.921875 7.496094 -2.070312 7.414062 -2.167969 Z M 1.84375 -2.742188 C 1.941406 -2.742188 1.992188 -2.714844 2.011719 -2.574219 C 2.019531 -2.488281 1.921875 -2.363281 1.746094 -2.25 C 1.382812 -2.011719 0.847656 -1.878906 0.484375 -1.894531 C 0.835938 -2.363281 1.472656 -2.761719 1.84375 -2.742188 Z M 1.550781 -3.527344 C 1.585938 -3.527344 1.621094 -3.535156 1.65625 -3.5625 C 2.328125 -3.933594 2.453125 -4.382812 2.46875 -4.621094 C 2.496094 -4.902344 2.378906 -5.167969 2.179688 -5.324219 C 2.070312 -5.414062 1.929688 -5.386719 1.851562 -5.289062 C 1.773438 -5.191406 1.789062 -5.042969 1.886719 -4.964844 C 1.957031 -4.910156 2.019531 -4.804688 2.011719 -4.65625 C 2 -4.515625 1.914062 -4.230469 1.4375 -3.957031 C 1.324219 -3.898438 1.289062 -3.757812 1.347656 -3.640625 C 1.394531 -3.570312 1.464844 -3.527344 1.550781 -3.527344 Z M 1.550781 -3.527344 "/></g></g></g><g fill="#967f71" fill-opacity="1"><g transform="translate(134.519488, 175.964564)"><g><path d="M 7.804688 -2.230469 C 7.757812 -2.273438 7.699219 -2.300781 7.644531 -2.300781 C 7.582031 -2.300781 7.519531 -2.273438 7.476562 -2.230469 C 6.738281 -1.488281 5.21875 -0.730469 4.003906 -0.757812 C 3.519531 -0.742188 3.042969 -0.925781 2.699219 -1.277344 C 2.6875 -1.289062 2.671875 -1.304688 2.664062 -1.324219 C 2.652344 -1.347656 2.652344 -1.375 2.664062 -1.410156 C 2.839844 -1.71875 2.945312 -2.070312 2.953125 -2.433594 C 2.953125 -2.609375 2.847656 -2.769531 2.679688 -2.839844 C 2.453125 -2.960938 2.152344 -2.902344 2 -2.679688 C 1.796875 -2.390625 1.871094 -1.84375 2.070312 -1.410156 C 2.082031 -1.375 2.082031 -1.347656 2.070312 -1.3125 C 1.929688 -1.09375 1.761719 -0.898438 1.578125 -0.722656 C 1.394531 -0.554688 1.128906 -0.386719 0.925781 -0.503906 C 0.476562 -0.933594 0.46875 -2 0.503906 -2.371094 C 0.511719 -2.496094 0.421875 -2.609375 0.300781 -2.617188 C 0.175781 -2.636719 0.0625 -2.546875 0.0429688 -2.414062 C 0.0429688 -2.355469 -0.105469 -0.8125 0.625 -0.140625 C 0.636719 -0.132812 0.652344 -0.125 0.660156 -0.125 C 0.785156 -0.0429688 0.925781 0 1.066406 0 C 1.261719 0 1.445312 -0.0625 1.605469 -0.167969 C 1.851562 -0.335938 2.070312 -0.546875 2.257812 -0.785156 C 2.292969 -0.820312 2.34375 -0.847656 2.398438 -0.847656 C 2.453125 -0.847656 2.503906 -0.828125 2.539062 -0.785156 C 2.945312 -0.457031 3.464844 -0.28125 3.996094 -0.289062 C 5.40625 -0.253906 7 -1.101562 7.804688 -1.90625 C 7.847656 -1.949219 7.875 -2.011719 7.875 -2.070312 C 7.875 -2.132812 7.847656 -2.1875 7.804688 -2.230469 Z M 2.40625 -1.976562 C 2.398438 -1.957031 2.371094 -1.957031 2.371094 -1.976562 C 2.328125 -2.117188 2.328125 -2.273438 2.378906 -2.414062 C 2.398438 -2.433594 2.414062 -2.453125 2.441406 -2.453125 C 2.460938 -2.441406 2.476562 -2.433594 2.496094 -2.414062 C 2.496094 -2.257812 2.46875 -2.105469 2.40625 -1.976562 Z M 2.40625 -1.976562 "/></g></g></g><g fill="#967f71" fill-opacity="1"><g transform="translate(141.922635, 175.964564)"><g><path d="M 7.398438 -2.265625 C 7.355469 -2.308594 7.300781 -2.34375 7.238281 -2.34375 C 7.175781 -2.355469 7.117188 -2.335938 7.070312 -2.300781 C 7.035156 -2.273438 3.640625 0.421875 0.8125 -0.742188 C 0.238281 -0.980469 0.210938 -1.289062 0.230469 -1.453125 C 0.230469 -1.480469 0.238281 -1.507812 0.265625 -1.523438 C 0.28125 -1.542969 0.316406 -1.542969 0.34375 -1.535156 C 0.917969 -1.5 1.488281 -1.648438 1.984375 -1.957031 C 2.40625 -2.230469 2.476562 -2.53125 2.453125 -2.722656 C 2.433594 -3.042969 2.179688 -3.296875 1.851562 -3.304688 C 1.15625 -3.339844 -0.0078125 -2.511719 -0.203125 -1.632812 C -0.28125 -1.304688 -0.273438 -0.6875 0.636719 -0.316406 C 1.191406 -0.0898438 1.773438 0.0195312 2.363281 0.0195312 C 4.894531 0.0195312 7.238281 -1.84375 7.363281 -1.941406 C 7.40625 -1.976562 7.441406 -2.035156 7.441406 -2.089844 C 7.449219 -2.152344 7.433594 -2.214844 7.398438 -2.265625 Z M 0.546875 -2.070312 C 0.890625 -2.546875 1.464844 -2.867188 1.824219 -2.839844 C 1.921875 -2.839844 1.976562 -2.804688 1.992188 -2.671875 C 2 -2.582031 1.90625 -2.460938 1.726562 -2.34375 C 1.367188 -2.105469 0.28125 -1.71875 0.546875 -2.070312 Z M 0.546875 -2.070312 "/></g></g></g><g fill="#967f71" fill-opacity="1"><g transform="translate(148.982063, 175.964564)"><g><path d="M 6.066406 -2.257812 C 6.023438 -2.300781 5.960938 -2.328125 5.898438 -2.328125 C 5.835938 -2.328125 5.773438 -2.300781 5.730469 -2.257812 C 5.714844 -2.238281 3.394531 0.0429688 1.726562 -0.457031 C 1.136719 -0.636719 0.8125 -1.199219 0.625 -1.796875 C 0.574219 -1.992188 0.589844 -2.203125 0.679688 -2.390625 C 1.296875 -3.640625 2.8125 -6.921875 2.0625 -7.722656 C 1.886719 -7.945312 1.597656 -8.015625 1.339844 -7.910156 C 0.449219 -7.519531 -0.140625 -4.921875 -0.0351562 -3.023438 C -0.0195312 -2.734375 0.0195312 -2.441406 0.0703125 -2.152344 C 0.0703125 -2.117188 0.0703125 -2.089844 0.0898438 -2.0625 C 0.316406 -0.953125 0.835938 -0.238281 1.597656 -0.0195312 C 1.808594 0.0429688 2.019531 0.078125 2.230469 0.078125 C 4.019531 0.078125 5.96875 -1.84375 6.058594 -1.929688 C 6.101562 -1.976562 6.128906 -2.027344 6.128906 -2.089844 C 6.128906 -2.160156 6.109375 -2.214844 6.066406 -2.257812 Z M 0.449219 -3.15625 C 0.175781 -4.628906 1.085938 -7.300781 1.523438 -7.484375 C 1.542969 -7.496094 1.5625 -7.503906 1.578125 -7.503906 C 1.613281 -7.503906 1.65625 -7.484375 1.71875 -7.414062 C 2.070312 -7.046875 1.066406 -3.851562 0.597656 -3.105469 C 0.554688 -3.023438 0.46875 -3.070312 0.449219 -3.15625 Z M 0.449219 -3.15625 "/></g></g></g><g fill="#967f71" fill-opacity="1"><g transform="translate(154.790009, 175.964564)"><g><path d="M 6.425781 -2.503906 C 6.382812 -2.546875 6.332031 -2.566406 6.269531 -2.566406 C 6.207031 -2.566406 6.144531 -2.546875 6.101562 -2.503906 C 5.042969 -1.445312 3.542969 -0.960938 2.070312 -1.207031 C 1.957031 -1.234375 1.878906 -1.339844 1.894531 -1.453125 C 1.964844 -1.878906 1.929688 -2.308594 1.683594 -2.453125 C 1.523438 -2.539062 1.289062 -2.546875 1.003906 -2.070312 C 0.898438 -1.914062 0.863281 -1.71875 0.898438 -1.535156 C 0.945312 -1.347656 1.058594 -1.179688 1.214844 -1.085938 C 1.3125 -1.003906 1.199219 -0.871094 1.136719 -0.8125 C 0.96875 -0.609375 0.679688 -0.574219 0.476562 -0.730469 C 0.21875 -0.847656 0.105469 -1.128906 0.203125 -1.382812 C 0.316406 -1.851562 0.777344 -2.257812 0.945312 -2.257812 C 1.066406 -2.257812 1.171875 -2.363281 1.171875 -2.488281 C 1.179688 -2.609375 1.074219 -2.714844 0.953125 -2.722656 L 0.945312 -2.722656 C 0.503906 -2.722656 -0.0898438 -2.125 -0.246094 -1.5 C -0.398438 -1.039062 -0.183594 -0.539062 0.253906 -0.328125 C 0.421875 -0.230469 0.609375 -0.183594 0.800781 -0.175781 C 1.179688 -0.195312 1.515625 -0.421875 1.675781 -0.777344 C 1.691406 -0.800781 1.738281 -0.820312 1.773438 -0.8125 C 2.890625 -0.476562 4.9375 -0.6875 6.425781 -2.167969 C 6.472656 -2.214844 6.5 -2.273438 6.5 -2.335938 C 6.5 -2.398438 6.472656 -2.460938 6.425781 -2.503906 Z M 1.4375 -1.5 C 1.339844 -1.585938 1.324219 -1.726562 1.402344 -1.832031 C 1.429688 -1.878906 1.445312 -1.90625 1.464844 -1.929688 C 1.472656 -1.789062 1.464844 -1.640625 1.4375 -1.5 Z M 1.4375 -1.5 "/></g></g></g><g fill="#967f71" fill-opacity="1"><g transform="translate(160.879979, 175.964564)"><g><path d="M 7.265625 -2.300781 C 7.230469 -2.34375 7.167969 -2.371094 7.105469 -2.371094 C 7.046875 -2.371094 6.984375 -2.355469 6.9375 -2.308594 C 5.722656 -1.15625 3.722656 -0.90625 2.285156 -0.820312 C 2.238281 -0.8125 2.214844 -0.882812 2.238281 -0.925781 C 2.355469 -1.074219 2.433594 -1.253906 2.46875 -1.4375 C 2.539062 -1.914062 2.257812 -2.371094 1.789062 -2.503906 C 1.375 -2.671875 0.925781 -2.414062 0.433594 -1.761719 C 0.398438 -1.71875 0.351562 -1.738281 0.363281 -1.789062 C 0.398438 -2.054688 0.433594 -2.308594 0.46875 -2.546875 C 0.484375 -2.636719 0.449219 -2.714844 0.386719 -2.769531 C 0.316406 -2.832031 0.230469 -2.839844 0.148438 -2.804688 C 0.0703125 -2.777344 0.0195312 -2.699219 0.0078125 -2.617188 C -0.0898438 -1.914062 -0.203125 -1.179688 -0.328125 -0.476562 C -1.128906 1.136719 -2 3.625 -1.585938 4.011719 C -1.523438 4.074219 -1.4375 4.109375 -1.347656 4.109375 C -1.304688 4.109375 -1.269531 4.109375 -1.226562 4.089844 C -0.722656 3.914062 -0.238281 1.738281 0.125 -0.351562 C 0.132812 -0.371094 0.132812 -0.378906 0.140625 -0.386719 C 0.386719 -0.933594 0.730469 -1.4375 1.144531 -1.871094 C 1.277344 -1.992188 1.472656 -2.132812 1.621094 -2.070312 C 1.921875 -1.949219 2.054688 -1.761719 2.011719 -1.515625 C 1.894531 -1.109375 1.542969 -0.800781 1.121094 -0.742188 C 1.066406 -0.742188 1.015625 -0.730469 0.960938 -0.730469 C 0.835938 -0.714844 0.75 -0.609375 0.75 -0.484375 C 0.765625 -0.363281 0.863281 -0.273438 0.988281 -0.273438 C 1.050781 -0.273438 1.109375 -0.273438 1.171875 -0.28125 C 1.339844 -0.300781 1.535156 -0.308594 1.753906 -0.316406 C 3.246094 -0.40625 5.75 -0.539062 7.257812 -1.976562 C 7.308594 -2.011719 7.328125 -2.070312 7.335938 -2.132812 C 7.335938 -2.195312 7.308594 -2.257812 7.265625 -2.300781 Z M -1.226562 3.359375 C -1.109375 2.832031 -0.96875 2.308594 -0.785156 1.808594 C -0.890625 2.335938 -1.039062 2.847656 -1.226562 3.359375 Z M -1.226562 3.359375 "/></g></g></g><g fill="#967f71" fill-opacity="1"><g transform="translate(167.824835, 175.964564)"><g><path d="M 7.265625 -2.300781 C 7.230469 -2.34375 7.167969 -2.371094 7.105469 -2.371094 C 7.046875 -2.371094 6.984375 -2.355469 6.9375 -2.308594 C 5.722656 -1.15625 3.722656 -0.90625 2.285156 -0.820312 C 2.238281 -0.8125 2.214844 -0.882812 2.238281 -0.925781 C 2.355469 -1.074219 2.433594 -1.253906 2.46875 -1.4375 C 2.539062 -1.914062 2.257812 -2.371094 1.789062 -2.503906 C 1.375 -2.671875 0.925781 -2.414062 0.433594 -1.761719 C 0.398438 -1.71875 0.351562 -1.738281 0.363281 -1.789062 C 0.398438 -2.054688 0.433594 -2.308594 0.46875 -2.546875 C 0.484375 -2.636719 0.449219 -2.714844 0.386719 -2.769531 C 0.316406 -2.832031 0.230469 -2.839844 0.148438 -2.804688 C 0.0703125 -2.777344 0.0195312 -2.699219 0.0078125 -2.617188 C -0.0898438 -1.914062 -0.203125 -1.179688 -0.328125 -0.476562 C -1.128906 1.136719 -2 3.625 -1.585938 4.011719 C -1.523438 4.074219 -1.4375 4.109375 -1.347656 4.109375 C -1.304688 4.109375 -1.269531 4.109375 -1.226562 4.089844 C -0.722656 3.914062 -0.238281 1.738281 0.125 -0.351562 C 0.132812 -0.371094 0.132812 -0.378906 0.140625 -0.386719 C 0.386719 -0.933594 0.730469 -1.4375 1.144531 -1.871094 C 1.277344 -1.992188 1.472656 -2.132812 1.621094 -2.070312 C 1.921875 -1.949219 2.054688 -1.761719 2.011719 -1.515625 C 1.894531 -1.109375 1.542969 -0.800781 1.121094 -0.742188 C 1.066406 -0.742188 1.015625 -0.730469 0.960938 -0.730469 C 0.835938 -0.714844 0.75 -0.609375 0.75 -0.484375 C 0.765625 -0.363281 0.863281 -0.273438 0.988281 -0.273438 C 1.050781 -0.273438 1.109375 -0.273438 1.171875 -0.28125 C 1.339844 -0.300781 1.535156 -0.308594 1.753906 -0.316406 C 3.246094 -0.40625 5.75 -0.539062 7.257812 -1.976562 C 7.308594 -2.011719 7.328125 -2.070312 7.335938 -2.132812 C 7.335938 -2.195312 7.308594 -2.257812 7.265625 -2.300781 Z M -1.226562 3.359375 C -1.109375 2.832031 -0.96875 2.308594 -0.785156 1.808594 C -0.890625 2.335938 -1.039062 2.847656 -1.226562 3.359375 Z M -1.226562 3.359375 "/></g></g></g><g fill="#967f71" fill-opacity="1"><g transform="translate(174.769692, 175.964564)"><g><path d="M 7.398438 -2.265625 C 7.355469 -2.308594 7.300781 -2.34375 7.238281 -2.34375 C 7.175781 -2.355469 7.117188 -2.335938 7.070312 -2.300781 C 7.035156 -2.273438 3.640625 0.421875 0.8125 -0.742188 C 0.238281 -0.980469 0.210938 -1.289062 0.230469 -1.453125 C 0.230469 -1.480469 0.238281 -1.507812 0.265625 -1.523438 C 0.28125 -1.542969 0.316406 -1.542969 0.34375 -1.535156 C 0.917969 -1.5 1.488281 -1.648438 1.984375 -1.957031 C 2.40625 -2.230469 2.476562 -2.53125 2.453125 -2.722656 C 2.433594 -3.042969 2.179688 -3.296875 1.851562 -3.304688 C 1.15625 -3.339844 -0.0078125 -2.511719 -0.203125 -1.632812 C -0.28125 -1.304688 -0.273438 -0.6875 0.636719 -0.316406 C 1.191406 -0.0898438 1.773438 0.0195312 2.363281 0.0195312 C 4.894531 0.0195312 7.238281 -1.84375 7.363281 -1.941406 C 7.40625 -1.976562 7.441406 -2.035156 7.441406 -2.089844 C 7.449219 -2.152344 7.433594 -2.214844 7.398438 -2.265625 Z M 0.546875 -2.070312 C 0.890625 -2.546875 1.464844 -2.867188 1.824219 -2.839844 C 1.921875 -2.839844 1.976562 -2.804688 1.992188 -2.671875 C 2 -2.582031 1.90625 -2.460938 1.726562 -2.34375 C 1.367188 -2.105469 0.28125 -1.71875 0.546875 -2.070312 Z M 0.546875 -2.070312 "/></g></g></g><g fill="#967f71" fill-opacity="1"><g transform="translate(181.82912, 175.964564)"><g><path d="M 7.644531 -2.476562 C 7.601562 -2.523438 7.539062 -2.539062 7.476562 -2.539062 C 7.414062 -2.539062 7.363281 -2.511719 7.316406 -2.46875 C 6.523438 -1.632812 4.742188 -0.40625 3.4375 -0.40625 L 3.421875 -0.40625 C 3.058594 -0.386719 2.714844 -0.527344 2.46875 -0.785156 C 2.152344 -1.128906 2.371094 -2.0625 2.476562 -2.363281 C 2.523438 -2.476562 2.46875 -2.601562 2.363281 -2.644531 C 2.265625 -2.699219 2.132812 -2.671875 2.070312 -2.574219 C 1.394531 -1.585938 0.421875 -0.625 0.105469 -0.8125 C 0 -0.882812 0.160156 -1.5625 0.589844 -2.328125 C 0.644531 -2.433594 0.609375 -2.566406 0.503906 -2.628906 C 0.398438 -2.6875 0.253906 -2.664062 0.195312 -2.558594 C -0.105469 -2.035156 -0.730469 -0.777344 -0.132812 -0.414062 C 0.34375 -0.132812 0.988281 -0.589844 1.523438 -1.144531 C 1.578125 -1.207031 1.65625 -1.226562 1.726562 -1.199219 C 1.796875 -1.179688 1.851562 -1.121094 1.871094 -1.039062 C 1.894531 -0.828125 1.984375 -0.636719 2.125 -0.46875 C 2.460938 -0.113281 2.925781 0.078125 3.414062 0.0625 L 3.4375 0.0625 C 4.894531 0.0625 6.78125 -1.226562 7.652344 -2.140625 C 7.699219 -2.195312 7.714844 -2.25 7.714844 -2.308594 C 7.714844 -2.371094 7.6875 -2.433594 7.644531 -2.476562 Z M 7.644531 -2.476562 "/></g></g></g><g fill="#967f71" fill-opacity="1"><g transform="translate(189.117696, 175.964564)"><g><path d="M 7.601562 -2.320312 C 7.554688 -2.363281 7.503906 -2.390625 7.441406 -2.390625 C 7.378906 -2.390625 7.316406 -2.363281 7.273438 -2.320312 C 5.75 -0.828125 3.042969 -0.511719 2.460938 -0.855469 C 2.0625 -1.085938 2.105469 -1.359375 2.390625 -1.90625 C 2.523438 -2.167969 2.671875 -2.476562 2.414062 -2.664062 C 2.179688 -2.839844 1.949219 -2.722656 1.746094 -2.617188 C 1.453125 -2.453125 1.128906 -2.363281 0.785156 -2.363281 C 0.707031 -2.363281 0.636719 -2.503906 0.652344 -2.558594 C 1.144531 -3.640625 0.925781 -3.84375 0.847656 -3.921875 C 0.714844 -4.054688 0.511719 -4.046875 0.265625 -3.898438 C -0.140625 -3.605469 -0.316406 -3.085938 -0.175781 -2.601562 C -0.140625 -2.46875 -0.078125 -2.34375 0.0078125 -2.238281 C 0 -2.140625 0.0429688 -2.054688 0.132812 -2.011719 C 0.183594 -1.984375 0.246094 -1.984375 0.308594 -2 C 0.457031 -1.929688 0.625 -1.894531 0.792969 -1.894531 C 1.15625 -1.886719 1.507812 -1.964844 1.824219 -2.140625 C 1.949219 -2.203125 1.992188 -2.152344 1.976562 -2.117188 C 1.761719 -1.703125 1.382812 -0.945312 2.230469 -0.449219 C 2.53125 -0.308594 2.867188 -0.246094 3.199219 -0.273438 C 4.433594 -0.273438 6.375 -0.800781 7.589844 -1.992188 C 7.636719 -2.027344 7.664062 -2.089844 7.664062 -2.152344 C 7.671875 -2.214844 7.644531 -2.273438 7.601562 -2.320312 Z M 0.253906 -2.804688 C 0.203125 -3.058594 0.289062 -3.324219 0.492188 -3.492188 C 0.433594 -3.253906 0.351562 -3.023438 0.253906 -2.796875 Z M 0.253906 -2.804688 "/></g></g></g><g fill="#967f71" fill-opacity="1"><g transform="translate(196.344577, 175.964564)"><g/></g></g><g fill="#967f71" fill-opacity="1"><g transform="translate(199.623114, 175.964564)"><g><path d="M 8.023438 -4.789062 C 7.890625 -4.777344 7.398438 -4.753906 6.789062 -4.707031 C 6.71875 -4.707031 6.648438 -4.734375 6.605469 -4.796875 C 6.558594 -4.859375 6.558594 -4.929688 6.585938 -5 C 7.378906 -6.886719 7.917969 -8.851562 7.414062 -10.007812 C 7.1875 -10.546875 6.683594 -10.925781 6.09375 -11.003906 C 3.542969 -11.472656 1.402344 -9.40625 0.6875 -7.230469 C 0.148438 -5.609375 0.492188 -4.222656 1.570312 -3.695312 C 1.683594 -3.640625 1.824219 -3.6875 1.878906 -3.800781 C 1.929688 -3.914062 1.886719 -4.054688 1.773438 -4.109375 C 0.742188 -4.621094 0.757812 -5.976562 1.128906 -7.089844 C 1.78125 -9.074219 3.710938 -10.96875 6.011719 -10.546875 C 6.445312 -10.492188 6.824219 -10.21875 6.992188 -9.824219 C 7.476562 -8.71875 6.808594 -6.683594 5.976562 -4.753906 C 5.925781 -4.636719 5.800781 -4.628906 5.722656 -4.628906 C 5.015625 -4.59375 4.320312 -4.496094 3.632812 -4.328125 C 3.519531 -4.285156 3.464844 -4.144531 3.507812 -4.03125 C 3.5625 -3.914062 3.695312 -3.851562 3.816406 -3.90625 C 4.3125 -4.019531 4.824219 -4.089844 5.335938 -4.125 C 5.414062 -4.136719 5.484375 -4.101562 5.527344 -4.039062 C 5.574219 -3.976562 5.582031 -3.898438 5.546875 -3.828125 C 4.601562 -1.894531 3.597656 -0.300781 3.578125 -0.265625 C 3.519531 -0.160156 3.542969 -0.0195312 3.648438 0.0429688 C 3.757812 0.113281 3.898438 0.0898438 3.96875 -0.0195312 C 4.789062 -1.332031 5.527344 -2.6875 6.179688 -4.089844 C 6.214844 -4.160156 6.285156 -4.207031 6.355469 -4.214844 C 6.957031 -4.257812 7.554688 -4.304688 8.050781 -4.328125 C 8.113281 -4.328125 8.164062 -4.355469 8.207031 -4.410156 C 8.253906 -4.453125 8.269531 -4.515625 8.269531 -4.574219 C 8.253906 -4.699219 8.148438 -4.789062 8.023438 -4.789062 Z M 8.023438 -4.789062 "/></g></g></g><g fill="#967f71" fill-opacity="1"><g transform="translate(207.202528, 175.964564)"><g><path d="M 7.601562 -2.320312 C 7.554688 -2.363281 7.503906 -2.390625 7.441406 -2.390625 C 7.378906 -2.390625 7.316406 -2.363281 7.273438 -2.320312 C 5.75 -0.828125 3.042969 -0.511719 2.460938 -0.855469 C 2.0625 -1.085938 2.105469 -1.359375 2.390625 -1.90625 C 2.523438 -2.167969 2.671875 -2.476562 2.414062 -2.664062 C 2.179688 -2.839844 1.949219 -2.722656 1.746094 -2.617188 C 1.453125 -2.453125 1.128906 -2.363281 0.785156 -2.363281 C 0.707031 -2.363281 0.636719 -2.503906 0.652344 -2.558594 C 1.144531 -3.640625 0.925781 -3.84375 0.847656 -3.921875 C 0.714844 -4.054688 0.511719 -4.046875 0.265625 -3.898438 C -0.140625 -3.605469 -0.316406 -3.085938 -0.175781 -2.601562 C -0.140625 -2.46875 -0.078125 -2.34375 0.0078125 -2.238281 C 0 -2.140625 0.0429688 -2.054688 0.132812 -2.011719 C 0.183594 -1.984375 0.246094 -1.984375 0.308594 -2 C 0.457031 -1.929688 0.625 -1.894531 0.792969 -1.894531 C 1.15625 -1.886719 1.507812 -1.964844 1.824219 -2.140625 C 1.949219 -2.203125 1.992188 -2.152344 1.976562 -2.117188 C 1.761719 -1.703125 1.382812 -0.945312 2.230469 -0.449219 C 2.53125 -0.308594 2.867188 -0.246094 3.199219 -0.273438 C 4.433594 -0.273438 6.375 -0.800781 7.589844 -1.992188 C 7.636719 -2.027344 7.664062 -2.089844 7.664062 -2.152344 C 7.671875 -2.214844 7.644531 -2.273438 7.601562 -2.320312 Z M 0.253906 -2.804688 C 0.203125 -3.058594 0.289062 -3.324219 0.492188 -3.492188 C 0.433594 -3.253906 0.351562 -3.023438 0.253906 -2.796875 Z M 0.253906 -2.804688 "/></g></g></g><g fill="#967f71" fill-opacity="1"><g transform="translate(214.429409, 175.964564)"><g><path d="M 6.425781 -2.503906 C 6.382812 -2.546875 6.332031 -2.566406 6.269531 -2.566406 C 6.207031 -2.566406 6.144531 -2.546875 6.101562 -2.503906 C 5.042969 -1.445312 3.542969 -0.960938 2.070312 -1.207031 C 1.957031 -1.234375 1.878906 -1.339844 1.894531 -1.453125 C 1.964844 -1.878906 1.929688 -2.308594 1.683594 -2.453125 C 1.523438 -2.539062 1.289062 -2.546875 1.003906 -2.070312 C 0.898438 -1.914062 0.863281 -1.71875 0.898438 -1.535156 C 0.945312 -1.347656 1.058594 -1.179688 1.214844 -1.085938 C 1.3125 -1.003906 1.199219 -0.871094 1.136719 -0.8125 C 0.96875 -0.609375 0.679688 -0.574219 0.476562 -0.730469 C 0.21875 -0.847656 0.105469 -1.128906 0.203125 -1.382812 C 0.316406 -1.851562 0.777344 -2.257812 0.945312 -2.257812 C 1.066406 -2.257812 1.171875 -2.363281 1.171875 -2.488281 C 1.179688 -2.609375 1.074219 -2.714844 0.953125 -2.722656 L 0.945312 -2.722656 C 0.503906 -2.722656 -0.0898438 -2.125 -0.246094 -1.5 C -0.398438 -1.039062 -0.183594 -0.539062 0.253906 -0.328125 C 0.421875 -0.230469 0.609375 -0.183594 0.800781 -0.175781 C 1.179688 -0.195312 1.515625 -0.421875 1.675781 -0.777344 C 1.691406 -0.800781 1.738281 -0.820312 1.773438 -0.8125 C 2.890625 -0.476562 4.9375 -0.6875 6.425781 -2.167969 C 6.472656 -2.214844 6.5 -2.273438 6.5 -2.335938 C 6.5 -2.398438 6.472656 -2.460938 6.425781 -2.503906 Z M 1.4375 -1.5 C 1.339844 -1.585938 1.324219 -1.726562 1.402344 -1.832031 C 1.429688 -1.878906 1.445312 -1.90625 1.464844 -1.929688 C 1.472656 -1.789062 1.464844 -1.640625 1.4375 -1.5 Z M 1.4375 -1.5 "/></g></g></g><g fill="#967f71" fill-opacity="1"><g transform="translate(220.519379, 175.964564)"><g><path d="M 7.707031 -2.195312 C 7.652344 -2.230469 7.601562 -2.257812 7.539062 -2.257812 C 7.476562 -2.25 7.414062 -2.222656 7.378906 -2.179688 C 7.355469 -2.160156 5.414062 -0.0898438 3.730469 -0.765625 C 3.367188 -0.960938 3.078125 -1.253906 2.875 -1.613281 C 2.804688 -1.726562 2.714844 -1.84375 2.609375 -1.949219 C 2.496094 -2.089844 2.320312 -2.167969 2.132812 -2.179688 C 1.683594 -2.214844 1.136719 -1.914062 0.484375 -1.296875 C 0.46875 -1.277344 0.441406 -1.269531 0.414062 -1.289062 C 0.386719 -1.296875 0.371094 -1.332031 0.378906 -1.359375 L 0.574219 -2.222656 C 0.609375 -2.34375 0.527344 -2.476562 0.40625 -2.503906 C 0.28125 -2.53125 0.160156 -2.453125 0.125 -2.328125 L -0.316406 -0.398438 C -0.34375 -0.289062 -0.289062 -0.183594 -0.195312 -0.140625 C -0.0976562 -0.0898438 0.0195312 -0.113281 0.0898438 -0.195312 C 1.269531 -1.578125 1.871094 -1.710938 2.082031 -1.71875 C 2.292969 -1.726562 2.425781 -1.453125 2.496094 -1.347656 C 2.742188 -0.917969 3.113281 -0.5625 3.554688 -0.34375 C 5.527344 0.457031 7.625 -1.773438 7.714844 -1.871094 C 7.804688 -1.957031 7.792969 -2.105469 7.707031 -2.195312 Z M 7.707031 -2.195312 "/></g></g></g><g fill="#967f71" fill-opacity="1"><g transform="translate(227.860838, 175.964564)"><g><path d="M 6.046875 -2.398438 C 5.960938 -2.488281 5.808594 -2.488281 5.722656 -2.390625 C 5.703125 -2.371094 3.316406 0.0351562 1.726562 -0.5625 C 1.023438 -0.835938 0.722656 -1.65625 0.609375 -2.46875 C 0.765625 -2.855469 1.03125 -3.5 1.277344 -4.222656 C 1.304688 -4.3125 1.332031 -4.320312 1.4375 -4.328125 C 2.628906 -4.417969 3.808594 -4.460938 4.503906 -4.460938 C 4.636719 -4.460938 4.734375 -4.566406 4.734375 -4.691406 C 4.734375 -4.824219 4.636719 -4.921875 4.503906 -4.921875 C 3.835938 -4.921875 2.734375 -4.867188 1.605469 -4.804688 C 1.5625 -4.796875 1.480469 -4.824219 1.542969 -4.980469 C 1.964844 -6.191406 2.265625 -7.414062 2.082031 -7.785156 C 1.894531 -8.15625 1.648438 -8.164062 1.523438 -8.136719 C 0.871094 -8.015625 0.398438 -6.320312 0.183594 -4.9375 C 0.167969 -4.8125 0.105469 -4.707031 -0.0078125 -4.699219 C -1.394531 -4.59375 -2.53125 -4.515625 -2.546875 -4.515625 C -2.679688 -4.503906 -2.777344 -4.398438 -2.769531 -4.265625 C -2.769531 -4.144531 -2.664062 -4.039062 -2.53125 -4.046875 L -2.511719 -4.046875 C -2.488281 -4.046875 -1.417969 -4.125 -0.0898438 -4.222656 C -0.0429688 -4.230469 0 -4.222656 0.0351562 -4.1875 C 0.0703125 -4.160156 0.0976562 -4.117188 0.0976562 -4.074219 C -0.0351562 -1.976562 0.492188 -0.539062 1.5625 -0.132812 C 1.789062 -0.0546875 2.027344 -0.0078125 2.273438 -0.0078125 C 4.019531 -0.0078125 5.960938 -1.976562 6.058594 -2.0625 C 6.101562 -2.105469 6.117188 -2.167969 6.117188 -2.230469 C 6.117188 -2.292969 6.09375 -2.355469 6.046875 -2.398438 Z M 0.652344 -4.957031 C 0.855469 -6.296875 1.261719 -7.355469 1.5 -7.625 C 1.523438 -7.644531 1.5625 -7.652344 1.597656 -7.644531 C 1.621094 -7.636719 1.648438 -7.617188 1.667969 -7.582031 C 1.773438 -7.355469 1.472656 -6.234375 1.023438 -4.902344 C 1.003906 -4.824219 0.945312 -4.761719 0.855469 -4.753906 C 0.8125 -4.742188 0.765625 -4.742188 0.714844 -4.742188 C 0.625 -4.742188 0.644531 -4.882812 0.652344 -4.945312 Z M 0.546875 -3.570312 C 0.457031 -3.570312 0.492188 -4.1875 0.574219 -4.277344 C 0.644531 -4.320312 0.730469 -4.328125 0.800781 -4.285156 C 0.882812 -4.214844 0.644531 -3.570312 0.546875 -3.570312 Z M 0.546875 -3.570312 "/></g></g></g><g fill="#967f71" fill-opacity="1"><g transform="translate(233.492524, 175.964564)"><g><path d="M 0.695312 -2.917969 L 3.605469 -3.261719 C 3.730469 -3.28125 3.828125 -3.394531 3.808594 -3.519531 C 3.800781 -3.578125 3.773438 -3.640625 3.722656 -3.675781 C 3.675781 -3.710938 3.613281 -3.730469 3.554688 -3.722656 L 0.644531 -3.378906 C 0.519531 -3.359375 0.433594 -3.253906 0.441406 -3.128906 C 0.441406 -3.007812 0.546875 -2.910156 0.671875 -2.917969 C 0.679688 -2.917969 0.6875 -2.917969 0.695312 -2.917969 Z M 0.695312 -2.917969 "/></g></g></g><g fill="#967f71" fill-opacity="1"><g transform="translate(237.749331, 175.964564)"><g><path d="M 7.398438 -2.265625 C 7.355469 -2.308594 7.300781 -2.34375 7.238281 -2.34375 C 7.175781 -2.355469 7.117188 -2.335938 7.070312 -2.300781 C 7.035156 -2.273438 3.640625 0.421875 0.8125 -0.742188 C 0.238281 -0.980469 0.210938 -1.289062 0.230469 -1.453125 C 0.230469 -1.480469 0.238281 -1.507812 0.265625 -1.523438 C 0.28125 -1.542969 0.316406 -1.542969 0.34375 -1.535156 C 0.917969 -1.5 1.488281 -1.648438 1.984375 -1.957031 C 2.40625 -2.230469 2.476562 -2.53125 2.453125 -2.722656 C 2.433594 -3.042969 2.179688 -3.296875 1.851562 -3.304688 C 1.15625 -3.339844 -0.0078125 -2.511719 -0.203125 -1.632812 C -0.28125 -1.304688 -0.273438 -0.6875 0.636719 -0.316406 C 1.191406 -0.0898438 1.773438 0.0195312 2.363281 0.0195312 C 4.894531 0.0195312 7.238281 -1.84375 7.363281 -1.941406 C 7.40625 -1.976562 7.441406 -2.035156 7.441406 -2.089844 C 7.449219 -2.152344 7.433594 -2.214844 7.398438 -2.265625 Z M 0.546875 -2.070312 C 0.890625 -2.546875 1.464844 -2.867188 1.824219 -2.839844 C 1.921875 -2.839844 1.976562 -2.804688 1.992188 -2.671875 C 2 -2.582031 1.90625 -2.460938 1.726562 -2.34375 C 1.367188 -2.105469 0.28125 -1.71875 0.546875 -2.070312 Z M 0.546875 -2.070312 "/></g></g></g><g fill="#967f71" fill-opacity="1"><g transform="translate(244.808759, 175.964564)"><g><path d="M 7.707031 -2.195312 C 7.652344 -2.230469 7.601562 -2.257812 7.539062 -2.257812 C 7.476562 -2.25 7.414062 -2.222656 7.378906 -2.179688 C 7.355469 -2.160156 5.414062 -0.0898438 3.730469 -0.765625 C 3.367188 -0.960938 3.078125 -1.253906 2.875 -1.613281 C 2.804688 -1.726562 2.714844 -1.84375 2.609375 -1.949219 C 2.496094 -2.089844 2.320312 -2.167969 2.132812 -2.179688 C 1.683594 -2.214844 1.136719 -1.914062 0.484375 -1.296875 C 0.46875 -1.277344 0.441406 -1.269531 0.414062 -1.289062 C 0.386719 -1.296875 0.371094 -1.332031 0.378906 -1.359375 L 0.574219 -2.222656 C 0.609375 -2.34375 0.527344 -2.476562 0.40625 -2.503906 C 0.28125 -2.53125 0.160156 -2.453125 0.125 -2.328125 L -0.316406 -0.398438 C -0.34375 -0.289062 -0.289062 -0.183594 -0.195312 -0.140625 C -0.0976562 -0.0898438 0.0195312 -0.113281 0.0898438 -0.195312 C 1.269531 -1.578125 1.871094 -1.710938 2.082031 -1.71875 C 2.292969 -1.726562 2.425781 -1.453125 2.496094 -1.347656 C 2.742188 -0.917969 3.113281 -0.5625 3.554688 -0.34375 C 5.527344 0.457031 7.625 -1.773438 7.714844 -1.871094 C 7.804688 -1.957031 7.792969 -2.105469 7.707031 -2.195312 Z M 7.707031 -2.195312 "/></g></g></g><g fill="#967f71" fill-opacity="1"><g transform="translate(252.150218, 175.964564)"><g><path d="M 8.339844 -2.019531 C 8.296875 -2.0625 8.242188 -2.082031 8.183594 -2.089844 C 8.121094 -2.089844 8.058594 -2.0625 8.015625 -2.019531 C 6.683594 -0.714844 4.742188 -0.265625 3.933594 -0.519531 C 3.246094 -0.742188 2.925781 -1.367188 2.785156 -2.027344 C 2.761719 -2.179688 2.785156 -2.320312 2.867188 -2.441406 C 3.921875 -4.242188 5.042969 -6.832031 4.65625 -7.460938 C 4.566406 -7.601562 4.410156 -7.671875 4.242188 -7.644531 C 3.261719 -7.519531 2.425781 -5.492188 2.257812 -3.6875 C 2.222656 -3.296875 2.222656 -2.917969 2.25 -2.539062 C 2.257812 -2.414062 2.230469 -2.292969 2.160156 -2.1875 C 2.105469 -2.097656 2.046875 -2 1.984375 -1.914062 C 1.207031 -0.765625 0.679688 -0.398438 0.457031 -0.421875 C 0.34375 -0.433594 0.246094 -0.511719 0.21875 -0.617188 C 0.132812 -1.066406 0.238281 -1.523438 0.492188 -1.894531 C 0.679688 -2.117188 0.953125 -2.363281 1.214844 -2.308594 C 1.367188 -2.265625 1.488281 -2.152344 1.550781 -2.011719 C 1.578125 -1.886719 1.691406 -1.796875 1.816406 -1.816406 C 1.941406 -1.832031 2.027344 -1.949219 2.011719 -2.082031 C 1.921875 -2.398438 1.683594 -2.644531 1.367188 -2.742188 C 1.09375 -2.832031 0.652344 -2.796875 0.140625 -2.195312 C -0.140625 -1.871094 -0.421875 -1.003906 -0.210938 -0.449219 C -0.125 -0.183594 0.113281 0 0.386719 0.0351562 C 0.414062 0.0351562 0.449219 0.0351562 0.476562 0.0351562 C 0.945312 0.0351562 1.535156 -0.46875 2.230469 -1.464844 C 2.257812 -1.5 2.308594 -1.523438 2.363281 -1.515625 C 2.414062 -1.515625 2.460938 -1.480469 2.476562 -1.4375 C 2.671875 -0.792969 3.164062 -0.289062 3.792969 -0.078125 C 4.832031 0.246094 6.949219 -0.335938 8.339844 -1.691406 C 8.429688 -1.78125 8.429688 -1.921875 8.339844 -2.019531 Z M 2.722656 -3.640625 C 2.867188 -5.253906 3.507812 -6.675781 4.054688 -7.082031 C 4.101562 -7.105469 4.160156 -7.117188 4.214844 -7.082031 C 4.257812 -7.054688 4.285156 -7 4.285156 -6.949219 C 4.207031 -6.277344 3.730469 -5.070312 2.847656 -3.5 C 2.707031 -3.269531 2.707031 -3.484375 2.722656 -3.640625 Z M 2.722656 -3.640625 "/></g></g></g></svg>