<svg xmlns="http://www.w3.org/2000/svg" xmlns:xlink="http://www.w3.org/1999/xlink" width="500" zoomAndPan="magnify" viewBox="0 0 375 374.999991" height="500" preserveAspectRatio="xMidYMid meet" version="1.0"><defs><g/><clipPath id="58897d23aa"><path d="M 132 187 L 231 187 L 231 256 L 132 256 Z M 132 187 " clip-rule="nonzero"/></clipPath><clipPath id="62af6ec2b5"><path d="M 137.199219 187.5 L 233.613281 195.574219 L 228.605469 255.367188 L 132.191406 247.289062 Z M 137.199219 187.5 " clip-rule="nonzero"/></clipPath><clipPath id="867cbfb59c"><path d="M 117.746094 185.871094 L 233.59375 195.574219 L 228.273438 259.101562 L 112.425781 249.398438 Z M 117.746094 185.871094 " clip-rule="nonzero"/></clipPath></defs><rect x="-37.5" width="450" fill="#ffffff" y="-37.499999" height="449.999989" fill-opacity="1"/><rect x="-37.5" width="450" fill="#545454" y="-37.499999" height="449.999989" fill-opacity="1"/><g fill="#dae2e6" fill-opacity="1"><g transform="translate(151.63049, 202.906451)"><g><path d="M 38.015625 -74.859375 L 38.015625 -21.140625 C 38.015625 -13.816406 36.003906 -8.234375 31.984375 -4.390625 C 27.960938 -0.554688 22.203125 1.359375 14.703125 1.359375 C 12.703125 1.359375 10.734375 1.113281 8.796875 0.625 C 6.859375 0.144531 5.222656 -0.4375 3.890625 -1.125 C 2.566406 -1.820312 1.375 -2.535156 0.3125 -3.265625 C -0.738281 -3.992188 -1.507812 -4.597656 -2 -5.078125 L -2.8125 -5.8125 L 2.625 -20.046875 C 6.195312 -16.660156 9.4375 -14.96875 12.34375 -14.96875 C 14.9375 -14.96875 17.019531 -15.828125 18.59375 -17.546875 C 20.164062 -19.273438 20.953125 -21.925781 20.953125 -25.5 L 20.953125 -74.859375 Z M 38.015625 -74.859375 "/></g></g></g><g fill="#dae2e6" fill-opacity="1"><g transform="translate(189.645882, 202.906451)"><g><path d="M 15.78125 -19.421875 C 18.6875 -19.421875 21.148438 -18.40625 23.171875 -16.375 C 25.203125 -14.351562 26.21875 -11.890625 26.21875 -8.984375 C 26.21875 -6.140625 25.203125 -3.703125 23.171875 -1.671875 C 21.148438 0.347656 18.6875 1.359375 15.78125 1.359375 C 12.9375 1.359375 10.5 0.347656 8.46875 -1.671875 C 6.445312 -3.703125 5.4375 -6.140625 5.4375 -8.984375 C 5.4375 -11.890625 6.445312 -14.351562 8.46875 -16.375 C 10.5 -18.40625 12.9375 -19.421875 15.78125 -19.421875 Z M 15.78125 -19.421875 "/></g></g></g><g clip-path="url(#58897d23aa)"><g clip-path="url(#62af6ec2b5)"><g clip-path="url(#867cbfb59c)"><path fill="#545454" d="M 133.429688 187.183594 C 138.722656 187.660156 138.898438 193.914062 146.777344 196.675781 C 152.25 198.59375 167.714844 192.925781 179.441406 199.398438 C 186.339844 203.207031 186.316406 209.589844 191.640625 214.066406 C 199.746094 220.886719 214.164062 215.550781 223.542969 221.523438 C 232.214844 227.042969 232.328125 239.519531 224.945312 246.996094 C 213.328125 258.761719 185.601562 255.675781 176.507812 254.660156 C 170.332031 253.972656 135.929688 250.144531 121.359375 229.949219 C 110.566406 214.988281 117.082031 199.941406 123.410156 192.804688 C 124.949219 191.070312 128.859375 186.773438 133.429688 187.183594 Z M 133.429688 187.183594 " fill-opacity="1" fill-rule="nonzero"/></g></g></g><g fill="#dae2e6" fill-opacity="1"><g transform="translate(190.294654, 204.658285)"><g><path d="M 2.015625 -0.296875 C 1.804688 -0.0976562 1.691406 0.140625 1.671875 0.421875 C 1.648438 0.703125 1.742188 0.953125 1.953125 1.171875 C 2.171875 1.390625 2.414062 1.5 2.6875 1.5 C 2.96875 1.5 3.210938 1.398438 3.421875 1.203125 C 3.628906 1.003906 3.734375 0.769531 3.734375 0.5 C 3.742188 0.226562 3.640625 -0.015625 3.421875 -0.234375 C 3.210938 -0.453125 2.976562 -0.566406 2.71875 -0.578125 C 2.457031 -0.585938 2.222656 -0.492188 2.015625 -0.296875 Z M 1.5 -0.828125 C 1.664062 -0.984375 1.851562 -1.097656 2.0625 -1.171875 C 2.28125 -1.242188 2.5 -1.28125 2.71875 -1.28125 C 2.945312 -1.28125 3.164062 -1.226562 3.375 -1.125 C 3.59375 -1.03125 3.785156 -0.894531 3.953125 -0.71875 C 4.066406 -0.601562 4.148438 -0.476562 4.203125 -0.34375 C 4.265625 -0.21875 4.3125 -0.101562 4.34375 0 C 4.375 0.113281 4.390625 0.207031 4.390625 0.28125 C 4.398438 0.351562 4.394531 0.398438 4.375 0.421875 C 4.40625 0.367188 4.429688 0.316406 4.453125 0.265625 C 4.472656 0.222656 4.492188 0.1875 4.515625 0.15625 L 7 -2.171875 L 7.5 -1.640625 L 2.71875 2.875 L 2.28125 2.40625 L 2.484375 2.21875 L 2.546875 2.15625 C 2.523438 2.175781 2.476562 2.179688 2.40625 2.171875 C 2.34375 2.171875 2.257812 2.148438 2.15625 2.109375 C 2.050781 2.078125 1.9375 2.019531 1.8125 1.9375 C 1.6875 1.863281 1.5625 1.765625 1.4375 1.640625 C 1.269531 1.460938 1.144531 1.265625 1.0625 1.046875 C 0.988281 0.828125 0.953125 0.601562 0.953125 0.375 C 0.960938 0.15625 1.007812 -0.0546875 1.09375 -0.265625 C 1.1875 -0.472656 1.320312 -0.660156 1.5 -0.828125 Z M 1.5 -0.828125 "/></g></g></g><g fill="#dae2e6" fill-opacity="1"><g transform="translate(194.123596, 208.551501)"><g><path d="M 3.328125 2.1875 L 2.71875 1.796875 L 3 1.34375 L 3.234375 1.03125 C 2.972656 1.207031 2.6875 1.296875 2.375 1.296875 C 2.070312 1.296875 1.789062 1.210938 1.53125 1.046875 C 1.226562 0.859375 1.039062 0.632812 0.96875 0.375 C 0.90625 0.125 0.945312 -0.125 1.09375 -0.375 L 2.359375 -2.40625 L 2.984375 -2.015625 L 1.890625 -0.265625 C 1.816406 -0.128906 1.789062 0.0078125 1.8125 0.15625 C 1.832031 0.3125 1.9375 0.453125 2.125 0.578125 C 2.25 0.648438 2.382812 0.703125 2.53125 0.734375 C 2.675781 0.773438 2.816406 0.78125 2.953125 0.75 C 3.097656 0.726562 3.234375 0.675781 3.359375 0.59375 C 3.484375 0.519531 3.585938 0.425781 3.671875 0.3125 L 4.515625 -1.0625 L 5.125 -0.671875 Z M 3.328125 2.1875 "/></g></g></g><g fill="#dae2e6" fill-opacity="1"><g transform="translate(198.766792, 211.268113)"><g><path d="M 2.8125 -4.75 L 3.484375 -4.5 L 2.75 -2.5625 L 3.5625 -2.265625 L 3.3125 -1.59375 L 2.5 -1.890625 L 1.5625 0.59375 L 0.890625 0.34375 L 1.828125 -2.140625 L 1.125 -2.40625 L 1.375 -3.078125 L 2.078125 -2.8125 Z M 2.8125 -4.75 "/></g></g></g><g fill="#dae2e6" fill-opacity="1"><g transform="translate(201.879451, 212.395795)"><g><path d="M 3.125 -2.078125 C 2.757812 -2.148438 2.453125 -2.109375 2.203125 -1.953125 C 1.953125 -1.796875 1.796875 -1.566406 1.734375 -1.265625 L 1.421875 0.296875 L 0.703125 0.140625 L 1.359375 -3.09375 L 1.984375 -2.96875 L 1.96875 -2.890625 C 1.957031 -2.734375 1.941406 -2.597656 1.921875 -2.484375 C 1.910156 -2.378906 1.894531 -2.257812 1.875 -2.125 C 1.976562 -2.25 2.097656 -2.351562 2.234375 -2.4375 C 2.367188 -2.53125 2.5 -2.601562 2.625 -2.65625 C 2.757812 -2.71875 2.882812 -2.753906 3 -2.765625 C 3.125 -2.785156 3.226562 -2.785156 3.3125 -2.765625 Z M 3.125 -2.078125 "/></g></g></g><g fill="#dae2e6" fill-opacity="1"><g transform="translate(205.472484, 213.143117)"><g><path d="M 3.984375 0.046875 L 3.265625 0.0625 L 3.265625 -0.46875 L 3.28125 -0.859375 C 3.164062 -0.578125 2.976562 -0.351562 2.71875 -0.1875 C 2.457031 -0.0195312 2.171875 0.0625 1.859375 0.0625 C 1.503906 0.0625 1.226562 -0.0234375 1.03125 -0.203125 C 0.832031 -0.378906 0.726562 -0.613281 0.71875 -0.90625 L 0.703125 -3.296875 L 1.4375 -3.3125 L 1.453125 -1.25 C 1.460938 -1.09375 1.519531 -0.957031 1.625 -0.84375 C 1.726562 -0.726562 1.890625 -0.664062 2.109375 -0.65625 C 2.253906 -0.65625 2.394531 -0.679688 2.53125 -0.734375 C 2.675781 -0.785156 2.800781 -0.859375 2.90625 -0.953125 C 3.007812 -1.046875 3.09375 -1.15625 3.15625 -1.28125 C 3.21875 -1.414062 3.25 -1.554688 3.25 -1.703125 L 3.25 -3.3125 L 3.96875 -3.328125 Z M 3.984375 0.046875 "/></g></g></g><g fill="#dae2e6" fill-opacity="1"><g transform="translate(210.884625, 212.957672)"><g><path d="M 2.46875 -1.46875 C 2.5625 -1.382812 2.65625 -1.300781 2.75 -1.21875 C 2.84375 -1.144531 2.9375 -1.078125 3.03125 -1.015625 C 2.894531 -0.867188 2.742188 -0.738281 2.578125 -0.625 C 2.421875 -0.519531 2.242188 -0.441406 2.046875 -0.390625 C 1.796875 -0.335938 1.554688 -0.328125 1.328125 -0.359375 C 1.097656 -0.398438 0.890625 -0.484375 0.703125 -0.609375 C 0.515625 -0.734375 0.347656 -0.882812 0.203125 -1.0625 C 0.0664062 -1.25 -0.0234375 -1.457031 -0.078125 -1.6875 C -0.128906 -1.914062 -0.128906 -2.144531 -0.078125 -2.375 C -0.0351562 -2.601562 0.0390625 -2.804688 0.15625 -2.984375 C 0.269531 -3.160156 0.421875 -3.316406 0.609375 -3.453125 C 0.796875 -3.597656 1.015625 -3.695312 1.265625 -3.75 C 1.460938 -3.800781 1.660156 -3.816406 1.859375 -3.796875 C 2.054688 -3.773438 2.25 -3.722656 2.4375 -3.640625 C 2.382812 -3.535156 2.328125 -3.429688 2.265625 -3.328125 C 2.203125 -3.222656 2.144531 -3.117188 2.09375 -3.015625 C 1.894531 -3.109375 1.675781 -3.125 1.4375 -3.0625 C 1.125 -2.988281 0.894531 -2.835938 0.75 -2.609375 C 0.613281 -2.390625 0.578125 -2.132812 0.640625 -1.84375 C 0.703125 -1.5625 0.847656 -1.34375 1.078125 -1.1875 C 1.304688 -1.039062 1.578125 -1.003906 1.890625 -1.078125 C 2.128906 -1.140625 2.320312 -1.269531 2.46875 -1.46875 Z M 2.46875 -1.46875 "/></g></g></g><g fill="#dae2e6" fill-opacity="1"><g transform="translate(215.019241, 211.97285)"><g><path d="M -2.21875 -6.234375 L -1.546875 -6.546875 L 0.078125 -3.1875 L 0.21875 -2.828125 C 0.207031 -3.140625 0.28125 -3.421875 0.4375 -3.671875 C 0.59375 -3.921875 0.816406 -4.128906 1.109375 -4.296875 C 1.421875 -4.441406 1.703125 -4.472656 1.953125 -4.390625 C 2.210938 -4.304688 2.414062 -4.140625 2.5625 -3.890625 L 3.59375 -1.734375 L 2.9375 -1.421875 L 2.046875 -3.28125 C 1.953125 -3.40625 1.835938 -3.5 1.703125 -3.5625 C 1.566406 -3.625 1.394531 -3.609375 1.1875 -3.515625 C 1.050781 -3.453125 0.929688 -3.363281 0.828125 -3.25 C 0.722656 -3.144531 0.644531 -3.03125 0.59375 -2.90625 C 0.539062 -2.78125 0.515625 -2.640625 0.515625 -2.484375 C 0.515625 -2.335938 0.550781 -2.195312 0.625 -2.0625 L 1.3125 -0.625 L 0.640625 -0.3125 Z M -2.21875 -6.234375 "/></g></g></g></svg>