<svg xmlns="http://www.w3.org/2000/svg" xmlns:xlink="http://www.w3.org/1999/xlink" width="500" zoomAndPan="magnify" viewBox="0 0 375 374.999991" height="500" preserveAspectRatio="xMidYMid meet" version="1.0"><defs><g/></defs><rect x="-37.5" width="450" fill="#ffffff" y="-37.499999" height="449.999989" fill-opacity="1"/><rect x="-37.5" width="450" fill="#ffffff" y="-37.499999" height="449.999989" fill-opacity="1"/><g fill="#000000" fill-opacity="1"><g transform="translate(121.449116, 182.901551)"><g><path d="M 1.8125 0 L 1.8125 -13.328125 L 5.328125 -13.328125 C 6.816406 -13.328125 8.113281 -13.050781 9.21875 -12.5 C 10.320312 -11.945312 11.175781 -11.164062 11.78125 -10.15625 C 12.382812 -9.144531 12.6875 -7.984375 12.6875 -6.671875 C 12.6875 -5.347656 12.382812 -4.179688 11.78125 -3.171875 C 11.175781 -2.160156 10.320312 -1.378906 9.21875 -0.828125 C 8.113281 -0.273438 6.816406 0 5.328125 0 Z M 5.328125 -1.421875 C 6.515625 -1.421875 7.539062 -1.632812 8.40625 -2.0625 C 9.28125 -2.5 9.945312 -3.113281 10.40625 -3.90625 C 10.875 -4.707031 11.109375 -5.628906 11.109375 -6.671875 C 11.109375 -7.710938 10.875 -8.628906 10.40625 -9.421875 C 9.945312 -10.210938 9.28125 -10.820312 8.40625 -11.25 C 7.539062 -11.6875 6.515625 -11.90625 5.328125 -11.90625 L 3.328125 -11.90625 L 3.328125 -1.421875 Z M 5.328125 -1.421875 "/></g></g></g><g fill="#000000" fill-opacity="1"><g transform="translate(135.174871, 182.901551)"><g><path d="M 3.328125 -6.1875 L 3.328125 -1.421875 L 9.046875 -1.421875 L 9.046875 0 L 1.8125 0 L 1.8125 -13.328125 L 8.859375 -13.328125 L 8.859375 -11.90625 L 3.328125 -11.90625 L 3.328125 -7.625 L 8.671875 -7.625 L 8.671875 -6.1875 Z M 3.328125 -6.1875 "/></g></g></g><g fill="#000000" fill-opacity="1"><g transform="translate(145.454913, 182.901551)"><g><path d="M 5.828125 -2.9375 L 9.546875 -13.328125 L 11.140625 -13.328125 L 6.28125 0 L 5.328125 0 L 0.46875 -13.328125 L 2.109375 -13.328125 Z M 5.828125 -2.9375 "/></g></g></g><g fill="#000000" fill-opacity="1"><g transform="translate(157.067553, 182.901551)"><g><path d="M 3.328125 -6.1875 L 3.328125 -1.421875 L 9.046875 -1.421875 L 9.046875 0 L 1.8125 0 L 1.8125 -13.328125 L 8.859375 -13.328125 L 8.859375 -11.90625 L 3.328125 -11.90625 L 3.328125 -7.625 L 8.671875 -7.625 L 8.671875 -6.1875 Z M 3.328125 -6.1875 "/></g></g></g><g fill="#000000" fill-opacity="1"><g transform="translate(167.347595, 182.901551)"><g><path d="M 8.46875 0 L 1.8125 0 L 1.8125 -13.328125 L 3.328125 -13.328125 L 3.328125 -1.421875 L 8.46875 -1.421875 Z M 8.46875 0 "/></g></g></g><g fill="#000000" fill-opacity="1"><g transform="translate(176.485408, 182.901551)"><g><path d="M 7.921875 0.1875 C 6.660156 0.1875 5.503906 -0.113281 4.453125 -0.71875 C 3.398438 -1.332031 2.566406 -2.164062 1.953125 -3.21875 C 1.347656 -4.269531 1.046875 -5.421875 1.046875 -6.671875 C 1.046875 -7.910156 1.347656 -9.054688 1.953125 -10.109375 C 2.566406 -11.160156 3.398438 -11.988281 4.453125 -12.59375 C 5.503906 -13.207031 6.660156 -13.515625 7.921875 -13.515625 C 9.179688 -13.515625 10.335938 -13.207031 11.390625 -12.59375 C 12.441406 -11.988281 13.269531 -11.160156 13.875 -10.109375 C 14.488281 -9.054688 14.796875 -7.910156 14.796875 -6.671875 C 14.796875 -5.421875 14.488281 -4.269531 13.875 -3.21875 C 13.269531 -2.164062 12.441406 -1.332031 11.390625 -0.71875 C 10.335938 -0.113281 9.179688 0.1875 7.921875 0.1875 Z M 7.921875 -1.234375 C 8.890625 -1.234375 9.773438 -1.472656 10.578125 -1.953125 C 11.390625 -2.441406 12.03125 -3.097656 12.5 -3.921875 C 12.976562 -4.742188 13.21875 -5.660156 13.21875 -6.671875 C 13.21875 -7.671875 12.976562 -8.582031 12.5 -9.40625 C 12.03125 -10.226562 11.390625 -10.878906 10.578125 -11.359375 C 9.773438 -11.847656 8.890625 -12.09375 7.921875 -12.09375 C 6.953125 -12.09375 6.066406 -11.847656 5.265625 -11.359375 C 4.460938 -10.878906 3.820312 -10.226562 3.34375 -9.40625 C 2.863281 -8.582031 2.625 -7.671875 2.625 -6.671875 C 2.625 -5.660156 2.863281 -4.742188 3.34375 -3.921875 C 3.820312 -3.097656 4.460938 -2.441406 5.265625 -1.953125 C 6.066406 -1.472656 6.953125 -1.234375 7.921875 -1.234375 Z M 7.921875 -1.234375 "/></g></g></g><g fill="#000000" fill-opacity="1"><g transform="translate(192.324285, 182.901551)"><g><path d="M 5.71875 -13.328125 C 6.5625 -13.328125 7.3125 -13.160156 7.96875 -12.828125 C 8.625 -12.503906 9.128906 -12.050781 9.484375 -11.46875 C 9.847656 -10.894531 10.03125 -10.242188 10.03125 -9.515625 C 10.03125 -8.796875 9.847656 -8.144531 9.484375 -7.5625 C 9.128906 -6.988281 8.625 -6.535156 7.96875 -6.203125 C 7.3125 -5.878906 6.5625 -5.71875 5.71875 -5.71875 L 3.328125 -5.71875 L 3.328125 0 L 1.8125 0 L 1.8125 -13.328125 Z M 5.71875 -7.140625 C 6.550781 -7.140625 7.210938 -7.351562 7.703125 -7.78125 C 8.203125 -8.21875 8.453125 -8.796875 8.453125 -9.515625 C 8.453125 -10.242188 8.203125 -10.820312 7.703125 -11.25 C 7.210938 -11.6875 6.550781 -11.90625 5.71875 -11.90625 L 3.328125 -11.90625 L 3.328125 -7.140625 Z M 5.71875 -7.140625 "/></g></g></g><g fill="#000000" fill-opacity="1"><g transform="translate(203.023144, 182.901551)"><g><path d="M 5.71875 -13.328125 C 6.5625 -13.328125 7.3125 -13.160156 7.96875 -12.828125 C 8.625 -12.503906 9.128906 -12.050781 9.484375 -11.46875 C 9.847656 -10.894531 10.03125 -10.242188 10.03125 -9.515625 C 10.03125 -8.796875 9.847656 -8.144531 9.484375 -7.5625 C 9.128906 -6.988281 8.625 -6.535156 7.96875 -6.203125 C 7.3125 -5.878906 6.5625 -5.71875 5.71875 -5.71875 L 3.328125 -5.71875 L 3.328125 0 L 1.8125 0 L 1.8125 -13.328125 Z M 5.71875 -7.140625 C 6.550781 -7.140625 7.210938 -7.351562 7.703125 -7.78125 C 8.203125 -8.21875 8.453125 -8.796875 8.453125 -9.515625 C 8.453125 -10.242188 8.203125 -10.820312 7.703125 -11.25 C 7.210938 -11.6875 6.550781 -11.90625 5.71875 -11.90625 L 3.328125 -11.90625 L 3.328125 -7.140625 Z M 5.71875 -7.140625 "/></g></g></g><g fill="#000000" fill-opacity="1"><g transform="translate(213.722003, 182.901551)"><g><path d="M 3.328125 -6.1875 L 3.328125 -1.421875 L 9.046875 -1.421875 L 9.046875 0 L 1.8125 0 L 1.8125 -13.328125 L 8.859375 -13.328125 L 8.859375 -11.90625 L 3.328125 -11.90625 L 3.328125 -7.625 L 8.671875 -7.625 L 8.671875 -6.1875 Z M 3.328125 -6.1875 "/></g></g></g><g fill="#000000" fill-opacity="1"><g transform="translate(224.002044, 182.901551)"><g><path d="M 6.609375 0.1875 C 5.617188 0.1875 4.742188 -0.0195312 3.984375 -0.4375 C 3.234375 -0.863281 2.648438 -1.460938 2.234375 -2.234375 C 1.828125 -3.015625 1.625 -3.910156 1.625 -4.921875 L 1.625 -13.328125 L 3.140625 -13.328125 L 3.140625 -4.921875 C 3.140625 -3.804688 3.453125 -2.910156 4.078125 -2.234375 C 4.703125 -1.566406 5.546875 -1.234375 6.609375 -1.234375 C 7.671875 -1.234375 8.515625 -1.566406 9.140625 -2.234375 C 9.765625 -2.910156 10.078125 -3.804688 10.078125 -4.921875 L 10.078125 -13.328125 L 11.59375 -13.328125 L 11.59375 -4.921875 C 11.59375 -3.910156 11.382812 -3.015625 10.96875 -2.234375 C 10.5625 -1.460938 9.976562 -0.863281 9.21875 -0.4375 C 8.46875 -0.0195312 7.597656 0.1875 6.609375 0.1875 Z M 6.609375 0.1875 "/></g></g></g><g fill="#000000" fill-opacity="1"><g transform="translate(237.213807, 182.901551)"><g><path d="M 9.625 0 L 4.890625 -5.71875 L 3.328125 -5.71875 L 3.328125 0 L 1.8125 0 L 1.8125 -13.328125 L 5.71875 -13.328125 C 6.5625 -13.328125 7.3125 -13.160156 7.96875 -12.828125 C 8.625 -12.503906 9.128906 -12.050781 9.484375 -11.46875 C 9.847656 -10.894531 10.03125 -10.242188 10.03125 -9.515625 C 10.03125 -8.566406 9.726562 -7.753906 9.125 -7.078125 C 8.53125 -6.398438 7.722656 -5.972656 6.703125 -5.796875 L 11.515625 0 Z M 3.328125 -11.90625 L 3.328125 -7.140625 L 5.71875 -7.140625 C 6.550781 -7.140625 7.210938 -7.351562 7.703125 -7.78125 C 8.203125 -8.21875 8.453125 -8.796875 8.453125 -9.515625 C 8.453125 -10.242188 8.203125 -10.820312 7.703125 -11.25 C 7.210938 -11.6875 6.550781 -11.90625 5.71875 -11.90625 Z M 3.328125 -11.90625 "/></g></g></g><path stroke-linecap="butt" transform="matrix(0.750441, 0, 0, 0.75, 117.788896, 158.435966)" fill="none" stroke-linejoin="miter" d="M 0.000221916 0.502046 L 185.896064 0.502046 " stroke="#000000" stroke-width="1" stroke-opacity="1" stroke-miterlimit="4"/><path stroke-linecap="butt" transform="matrix(0.752305, 0, 0, 0.75, 118.612929, 211.080572)" fill="none" stroke-linejoin="miter" d="M 0.000468612 0.501946 L 101.698362 0.501946 " stroke="#000000" stroke-width="1" stroke-opacity="1" stroke-miterlimit="4"/><g fill="#1c2120" fill-opacity="1"><g transform="translate(206.492713, 213.021236)"><g><path d="M 6.945312 -3.773438 C 6.933594 -3.863281 6.863281 -3.921875 6.773438 -3.914062 C 6.183594 -3.839844 5.628906 -3.734375 5.113281 -3.585938 C 5.308594 -4.453125 5.496094 -5.261719 5.660156 -5.929688 C 5.9375 -7.089844 5.890625 -7.710938 5.496094 -7.832031 C 5.023438 -7.980469 4.378906 -7.140625 4.125 -6.46875 C 3.847656 -5.710938 4.003906 -5.113281 4.542969 -4.875 C 4.625 -4.835938 4.714844 -4.875 4.746094 -4.949219 C 4.785156 -5.03125 4.746094 -5.121094 4.671875 -5.164062 C 4.148438 -5.390625 4.296875 -6.011719 4.425781 -6.363281 C 4.6875 -7.066406 5.21875 -7.589844 5.40625 -7.53125 C 5.488281 -7.507812 5.636719 -7.179688 5.351562 -6.003906 C 5.179688 -5.285156 4.976562 -4.410156 4.761719 -3.480469 C 4.019531 -3.234375 3.355469 -2.898438 2.785156 -2.484375 C 1.894531 -1.839844 1.234375 -0.996094 0.832031 0 C 0.105469 1.789062 0.382812 3.71875 1.0625 4.542969 C 1.378906 4.925781 1.75 5.121094 2.125 5.121094 C 2.199219 5.121094 2.277344 5.113281 2.359375 5.097656 C 2.933594 4.957031 3.375 4.304688 3.59375 3.265625 C 3.75 2.546875 4.410156 -0.523438 5.03125 -3.242188 C 5.554688 -3.398438 6.144531 -3.519531 6.804688 -3.601562 C 6.894531 -3.609375 6.960938 -3.683594 6.945312 -3.773438 Z M 3.292969 3.203125 C 3.097656 4.117188 2.738281 4.679688 2.277344 4.796875 C 1.960938 4.867188 1.609375 4.707031 1.308594 4.347656 C 0.523438 3.390625 0.605469 1.40625 1.117188 0.113281 C 1.585938 -1.019531 2.566406 -2.378906 4.679688 -3.128906 C 4.078125 -0.457031 3.4375 2.5 3.292969 3.203125 Z M 3.292969 3.203125 "/></g></g></g><g fill="#1c2120" fill-opacity="1"><g transform="translate(212.863416, 213.021236)"><g><path d="M 3.25 -1.765625 C 3.175781 -1.804688 3.078125 -1.78125 3.039062 -1.707031 C 2.261719 -0.464844 1.609375 0.0898438 1.46875 0.0390625 C 1.46875 0.0390625 1.308594 -0.0507812 1.460938 -0.988281 C 1.519531 -1.308594 1.542969 -1.488281 1.390625 -1.550781 C 1.242188 -1.609375 1.152344 -1.488281 0.980469 -1.242188 C 0.839844 -1.046875 0.652344 -0.785156 0.449219 -0.605469 C 0.425781 -0.589844 0.335938 -0.507812 0.292969 -0.539062 C 0.171875 -0.636719 0.148438 -1.167969 0.433594 -1.660156 C 0.480469 -1.730469 0.449219 -1.828125 0.375 -1.878906 C 0.300781 -1.917969 0.203125 -1.894531 0.164062 -1.820312 C -0.164062 -1.25 -0.195312 -0.539062 0.0898438 -0.300781 C 0.164062 -0.238281 0.367188 -0.121094 0.652344 -0.359375 C 0.839844 -0.523438 1.003906 -0.734375 1.136719 -0.914062 C 1.019531 -0.15625 1.085938 0.230469 1.355469 0.335938 C 1.398438 0.351562 1.4375 0.351562 1.46875 0.351562 C 2.089844 0.351562 3.097656 -1.21875 3.300781 -1.542969 C 3.347656 -1.617188 3.324219 -1.714844 3.25 -1.765625 Z M 3.25 -1.765625 "/></g></g></g><g fill="#1c2120" fill-opacity="1"><g transform="translate(215.787403, 213.021236)"><g><path d="M 2.402344 -7.652344 C 2.34375 -7.726562 2.261719 -7.761719 2.179688 -7.753906 C 1.714844 -7.671875 1.21875 -5.929688 1.078125 -5.398438 C 0.667969 -3.839844 0.15625 -1.625 -0.261719 0.359375 C -0.457031 1.300781 -0.613281 2.089844 -0.710938 2.664062 C -0.875 3.625 -0.847656 3.75 -0.695312 3.789062 C -0.679688 3.796875 -0.660156 3.796875 -0.644531 3.796875 C -0.5 3.796875 -0.425781 3.601562 -0.351562 3.390625 C -0.328125 3.308594 -0.367188 3.21875 -0.449219 3.195312 C -0.457031 3.1875 -0.464844 3.1875 -0.472656 3.1875 C -0.300781 2.007812 0.398438 -1.414062 1.117188 -4.28125 C 1.117188 -4.289062 1.128906 -4.296875 1.136719 -4.304688 C 2.199219 -5.988281 2.613281 -7.328125 2.402344 -7.652344 Z M 1.398438 -5.382812 C 1.707031 -6.535156 1.984375 -7.089844 2.132812 -7.320312 C 2.097656 -7.015625 1.917969 -6.363281 1.398438 -5.382812 Z M 1.398438 -5.382812 "/></g></g></g><g fill="#1c2120" fill-opacity="1"><g transform="translate(217.028876, 213.021236)"><g><path d="M 2.386719 -1.855469 C 2.3125 -1.902344 2.222656 -1.878906 2.171875 -1.804688 C 1.625 -0.921875 0.710938 -0.0898438 0.433594 -0.203125 C 0.398438 -0.21875 0.140625 -0.375 0.5 -1.757812 C 0.515625 -1.847656 0.464844 -1.929688 0.382812 -1.953125 C 0.292969 -1.96875 0.210938 -1.917969 0.1875 -1.839844 C -0.105469 -0.6875 -0.0664062 -0.0742188 0.300781 0.0820312 C 0.359375 0.105469 0.417969 0.113281 0.472656 0.113281 C 1.085938 0.113281 2.027344 -0.980469 2.441406 -1.640625 C 2.484375 -1.714844 2.457031 -1.8125 2.386719 -1.855469 Z M 0.457031 -2.515625 C 0.875 -2.492188 0.867188 -3.015625 0.53125 -2.898438 C 0.359375 -2.851562 0.140625 -2.53125 0.457031 -2.515625 Z M 0.457031 -2.515625 "/></g></g></g><g fill="#1c2120" fill-opacity="1"><g transform="translate(219.095268, 213.021236)"><g><path d="M 2.761719 -1.820312 C 2.6875 -1.871094 2.589844 -1.855469 2.539062 -1.78125 C 1.929688 -0.921875 1.429688 -0.382812 0.9375 -0.03125 C 0.695312 0.140625 0.457031 0.171875 0.300781 0.0585938 C 0.203125 -0.015625 -0.0976562 -0.34375 0.253906 -1.488281 C 1.046875 -2.140625 1.480469 -2.761719 1.363281 -3.085938 C 1.324219 -3.1875 1.226562 -3.25 1.117188 -3.25 C 0.792969 -3.242188 0.292969 -2.679688 -0.03125 -1.625 C -0.433594 -0.328125 -0.105469 0.148438 0.121094 0.308594 C 0.238281 0.398438 0.367188 0.441406 0.515625 0.441406 C 0.703125 0.441406 0.914062 0.367188 1.117188 0.21875 C 1.640625 -0.15625 2.15625 -0.710938 2.792969 -1.601562 C 2.84375 -1.675781 2.828125 -1.773438 2.761719 -1.820312 Z M 1.054688 -2.90625 C 1.019531 -2.777344 0.882812 -2.515625 0.5 -2.125 C 0.710938 -2.597656 0.9375 -2.828125 1.054688 -2.90625 Z M 1.054688 -2.90625 "/></g></g></g><g fill="#1c2120" fill-opacity="1"><g transform="translate(221.472032, 213.021236)"><g><path d="M 3.285156 -1.820312 C 3.210938 -1.863281 3.113281 -1.839844 3.070312 -1.757812 C 2.875 -1.421875 2.359375 -0.515625 2.066406 -0.546875 C 2.007812 -0.554688 1.847656 -0.636719 1.683594 -1.207031 C 1.570312 -1.609375 1.414062 -1.984375 1.109375 -2 C 0.890625 -2.019531 0.644531 -1.847656 0.269531 -1.144531 C 0.367188 -1.496094 0.472656 -1.847656 0.554688 -2.132812 C 0.589844 -2.238281 0.613281 -2.328125 0.636719 -2.417969 C 0.660156 -2.5 0.613281 -2.589844 0.53125 -2.613281 C 0.449219 -2.636719 0.359375 -2.589844 0.335938 -2.5 C 0.308594 -2.417969 0.285156 -2.320312 0.253906 -2.222656 C 0.0390625 -1.496094 -0.277344 -0.390625 -0.359375 0.277344 C -0.367188 0.351562 -0.320312 0.425781 -0.246094 0.441406 C -0.230469 0.449219 -0.21875 0.449219 -0.203125 0.449219 C -0.140625 0.449219 -0.0820312 0.410156 -0.0585938 0.351562 C 0.710938 -1.558594 1.019531 -1.691406 1.09375 -1.691406 C 1.109375 -1.691406 1.226562 -1.660156 1.378906 -1.117188 C 1.542969 -0.554688 1.757812 -0.269531 2.035156 -0.238281 C 2.449219 -0.1875 2.828125 -0.703125 3.339844 -1.601562 C 3.390625 -1.683594 3.355469 -1.773438 3.285156 -1.820312 Z M 3.285156 -1.820312 "/></g></g></g><g fill="#1c2120" fill-opacity="1"><g transform="translate(224.387854, 213.021236)"><g/></g></g><g fill="#1c2120" fill-opacity="1"><g transform="translate(226.895299, 213.021236)"><g><path d="M 6.324219 -7.859375 C 5.605469 -8.300781 4.527344 -8.234375 3.457031 -7.726562 C 3.480469 -7.851562 3.503906 -7.972656 3.519531 -8.078125 C 3.535156 -8.160156 3.480469 -8.242188 3.398438 -8.257812 C 3.308594 -8.273438 3.226562 -8.21875 3.210938 -8.128906 C 3.1875 -7.957031 3.144531 -7.761719 3.105469 -7.539062 C 2.933594 -7.449219 2.761719 -7.335938 2.597656 -7.222656 C 1.28125 -6.273438 0.0390625 -4.527344 0.507812 -2.433594 C 0.523438 -2.351562 0.605469 -2.296875 0.695312 -2.320312 C 0.777344 -2.335938 0.832031 -2.417969 0.808594 -2.507812 C 0.375 -4.445312 1.542969 -6.078125 2.777344 -6.960938 C 2.859375 -7.015625 2.941406 -7.074219 3.023438 -7.132812 C 2.867188 -6.339844 2.664062 -5.34375 2.441406 -4.246094 C 1.765625 -0.898438 1.355469 1.183594 1.136719 2.492188 C 1.0625 2.386719 1.011719 2.246094 0.996094 2.074219 C 0.980469 1.984375 0.90625 1.929688 0.816406 1.9375 C 0.734375 1.945312 0.667969 2.027344 0.679688 2.109375 C 0.71875 2.457031 0.859375 2.710938 1.070312 2.867188 C 0.800781 4.507812 0.890625 4.648438 1.054688 4.695312 C 1.070312 4.707031 1.09375 4.707031 1.109375 4.707031 C 1.265625 4.707031 1.371094 4.5 1.542969 4.085938 C 1.578125 4.003906 1.542969 3.914062 1.460938 3.878906 C 1.378906 3.847656 1.289062 3.878906 1.257812 3.960938 C 1.242188 3.996094 1.234375 4.019531 1.226562 4.042969 C 1.25 3.78125 1.300781 3.421875 1.363281 2.988281 C 1.429688 2.996094 1.496094 3.007812 1.570312 3.015625 C 1.578125 3.015625 1.585938 3.015625 1.585938 3.015625 C 2.425781 3.015625 3.667969 2.125 4.753906 0.742188 C 6.042969 -0.882812 6.910156 -2.925781 7.214844 -4.984375 C 7.472656 -6.753906 6.871094 -7.523438 6.324219 -7.859375 Z M 6.902344 -5.03125 C 6.511719 -2.320312 5.234375 -0.367188 4.507812 0.554688 C 3.339844 2.035156 2.199219 2.695312 1.585938 2.695312 C 1.585938 2.695312 1.578125 2.695312 1.578125 2.695312 C 1.519531 2.695312 1.46875 2.6875 1.421875 2.679688 C 1.730469 0.839844 2.3125 -2.035156 2.753906 -4.183594 C 2.996094 -5.40625 3.226562 -6.511719 3.382812 -7.335938 C 4.417969 -7.890625 5.480469 -7.996094 6.160156 -7.589844 C 6.828125 -7.179688 7.089844 -6.296875 6.902344 -5.03125 Z M 6.902344 -5.03125 "/></g></g></g><g fill="#1c2120" fill-opacity="1"><g transform="translate(233.8459, 213.021236)"><g><path d="M 3.25 -1.765625 C 3.175781 -1.804688 3.078125 -1.78125 3.039062 -1.707031 C 2.261719 -0.464844 1.609375 0.0898438 1.46875 0.0390625 C 1.46875 0.0390625 1.308594 -0.0507812 1.460938 -0.988281 C 1.519531 -1.308594 1.542969 -1.488281 1.390625 -1.550781 C 1.242188 -1.609375 1.152344 -1.488281 0.980469 -1.242188 C 0.839844 -1.046875 0.652344 -0.785156 0.449219 -0.605469 C 0.425781 -0.589844 0.335938 -0.507812 0.292969 -0.539062 C 0.171875 -0.636719 0.148438 -1.167969 0.433594 -1.660156 C 0.480469 -1.730469 0.449219 -1.828125 0.375 -1.878906 C 0.300781 -1.917969 0.203125 -1.894531 0.164062 -1.820312 C -0.164062 -1.25 -0.195312 -0.539062 0.0898438 -0.300781 C 0.164062 -0.238281 0.367188 -0.121094 0.652344 -0.359375 C 0.839844 -0.523438 1.003906 -0.734375 1.136719 -0.914062 C 1.019531 -0.15625 1.085938 0.230469 1.355469 0.335938 C 1.398438 0.351562 1.4375 0.351562 1.46875 0.351562 C 2.089844 0.351562 3.097656 -1.21875 3.300781 -1.542969 C 3.347656 -1.617188 3.324219 -1.714844 3.25 -1.765625 Z M 3.25 -1.765625 "/></g></g></g><g fill="#1c2120" fill-opacity="1"><g transform="translate(236.769886, 213.021236)"><g><path d="M 6.894531 -4.820312 C 6.789062 -4.964844 6.316406 -5.054688 1.242188 -4.941406 C 1.40625 -5.605469 1.550781 -6.199219 1.683594 -6.683594 C 1.707031 -6.773438 1.660156 -6.855469 1.578125 -6.878906 C 1.496094 -6.902344 1.40625 -6.855469 1.378906 -6.773438 C 1.242188 -6.257812 1.085938 -5.636719 0.914062 -4.933594 C 0.464844 -4.925781 -0.0234375 -4.917969 -0.554688 -4.902344 C -1.28125 -4.886719 -1.855469 -4.867188 -2.074219 -4.867188 C -2.164062 -4.867188 -2.238281 -4.796875 -2.238281 -4.714844 C -2.238281 -4.625 -2.164062 -4.550781 -2.074219 -4.550781 C -1.847656 -4.558594 -1.273438 -4.566406 -0.546875 -4.589844 C -0.164062 -4.597656 0.308594 -4.605469 0.839844 -4.625 C 0.488281 -3.136719 0.0898438 -1.355469 -0.269531 0.382812 C -0.53125 1.660156 -0.742188 2.761719 -0.882812 3.570312 C -0.957031 3.996094 -1.003906 4.328125 -1.027344 4.558594 C -1.0625 4.867188 -1.078125 5.046875 -0.921875 5.105469 C -0.898438 5.105469 -0.882812 5.113281 -0.859375 5.113281 C -0.71875 5.113281 -0.644531 4.917969 -0.578125 4.738281 C -0.546875 4.65625 -0.589844 4.566406 -0.667969 4.535156 C -0.6875 4.535156 -0.695312 4.527344 -0.710938 4.527344 C -0.628906 3.886719 -0.382812 2.457031 0.0898438 0.203125 C 0.441406 -1.503906 0.824219 -3.210938 1.167969 -4.632812 C 3.414062 -4.679688 6.332031 -4.722656 6.664062 -4.605469 C 6.722656 -4.558594 6.796875 -4.558594 6.863281 -4.597656 C 6.925781 -4.648438 6.945312 -4.746094 6.894531 -4.820312 Z M 6.894531 -4.820312 "/></g></g></g><g fill="#1c2120" fill-opacity="1"><g transform="translate(237.856173, 213.021236)"><g><path d="M 3.585938 -1.847656 C 3.503906 -1.886719 3.40625 -1.855469 3.375 -1.773438 C 2.433594 0.203125 1.542969 1.21875 1.347656 1.183594 C 1.332031 1.175781 1.046875 0.898438 1.96875 -1.9375 C 1.992188 -2.007812 2.050781 -2.179688 1.917969 -2.269531 C 1.796875 -2.367188 1.660156 -2.277344 1.429688 -2.125 C 1.183594 -1.96875 0.847656 -1.75 0.589844 -1.78125 C 1.421875 -3.21875 1.339844 -3.535156 1.152344 -3.660156 C 0.859375 -3.832031 0.433594 -3.332031 0.238281 -3.046875 C -0.164062 -2.425781 -0.15625 -1.863281 0.269531 -1.578125 C 0.703125 -1.273438 1.265625 -1.640625 1.601562 -1.863281 C 1.609375 -1.871094 1.609375 -1.871094 1.617188 -1.878906 C 1.300781 -0.875 1.09375 -0.0820312 1.019531 0.464844 C 0.929688 1.070312 0.996094 1.390625 1.226562 1.480469 C 1.265625 1.488281 1.300781 1.496094 1.339844 1.496094 C 1.992188 1.496094 3.128906 -0.515625 3.660156 -1.632812 C 3.691406 -1.714844 3.660156 -1.8125 3.585938 -1.847656 Z M 0.285156 -2.410156 C 0.398438 -2.851562 0.785156 -3.257812 0.957031 -3.355469 C 0.9375 -3.226562 0.847656 -2.859375 0.328125 -1.953125 C 0.269531 -2.042969 0.230469 -2.179688 0.285156 -2.410156 Z M 0.285156 -2.410156 "/></g></g></g><g fill="#1c2120" fill-opacity="1"><g transform="translate(241.11503, 213.021236)"><g><path d="M 3.25 -1.765625 C 3.175781 -1.804688 3.078125 -1.78125 3.039062 -1.707031 C 2.261719 -0.464844 1.609375 0.0898438 1.46875 0.0390625 C 1.46875 0.0390625 1.308594 -0.0507812 1.460938 -0.988281 C 1.519531 -1.308594 1.542969 -1.488281 1.390625 -1.550781 C 1.242188 -1.609375 1.152344 -1.488281 0.980469 -1.242188 C 0.839844 -1.046875 0.652344 -0.785156 0.449219 -0.605469 C 0.425781 -0.589844 0.335938 -0.507812 0.292969 -0.539062 C 0.171875 -0.636719 0.148438 -1.167969 0.433594 -1.660156 C 0.480469 -1.730469 0.449219 -1.828125 0.375 -1.878906 C 0.300781 -1.917969 0.203125 -1.894531 0.164062 -1.820312 C -0.164062 -1.25 -0.195312 -0.539062 0.0898438 -0.300781 C 0.164062 -0.238281 0.367188 -0.121094 0.652344 -0.359375 C 0.839844 -0.523438 1.003906 -0.734375 1.136719 -0.914062 C 1.019531 -0.15625 1.085938 0.230469 1.355469 0.335938 C 1.398438 0.351562 1.4375 0.351562 1.46875 0.351562 C 2.089844 0.351562 3.097656 -1.21875 3.300781 -1.542969 C 3.347656 -1.617188 3.324219 -1.714844 3.25 -1.765625 Z M 3.25 -1.765625 "/></g></g></g><g fill="#1c2120" fill-opacity="1"><g transform="translate(244.039016, 213.021236)"><g><path d="M 2.695312 -1.855469 C 2.621094 -1.894531 2.523438 -1.878906 2.484375 -1.804688 C 1.929688 -0.964844 1.003906 0.441406 0.398438 0.308594 C 0.300781 0.285156 0.21875 0.21875 0.164062 0.113281 C 0 -0.179688 0.0234375 -0.769531 0.210938 -1.28125 C 0.417969 -1.828125 0.660156 -1.96875 0.710938 -1.960938 C 0.71875 -1.953125 0.769531 -1.847656 0.703125 -1.59375 C 0.679688 -1.503906 0.726562 -1.421875 0.808594 -1.398438 C 0.898438 -1.378906 0.980469 -1.429688 1.003906 -1.511719 C 1.160156 -2.097656 0.890625 -2.230469 0.808594 -2.261719 C 0.507812 -2.351562 0.140625 -1.992188 -0.0820312 -1.390625 C -0.269531 -0.882812 -0.351562 -0.164062 -0.105469 0.269531 C -0.0078125 0.457031 0.148438 0.570312 0.335938 0.613281 C 0.382812 0.628906 0.433594 0.628906 0.480469 0.628906 C 1.191406 0.628906 1.960938 -0.441406 2.746094 -1.632812 C 2.792969 -1.707031 2.769531 -1.804688 2.695312 -1.855469 Z M 2.695312 -1.855469 "/></g></g></g><g fill="#1c2120" fill-opacity="1"><g transform="translate(246.456619, 213.021236)"><g><path d="M 3.863281 -1.863281 C 3.789062 -1.910156 3.691406 -1.886719 3.652344 -1.8125 C 2.492188 0.0585938 2.082031 0.015625 2.042969 0.0078125 C 1.960938 -0.015625 1.871094 -0.179688 1.847656 -0.578125 C 1.839844 -0.757812 1.796875 -1.300781 1.4375 -1.347656 C 1.019531 -1.40625 0.523438 -0.679688 0.0742188 0.261719 C 0.351562 -0.980469 0.75 -2.6875 1.046875 -3.898438 C 2.140625 -5.863281 2.695312 -7.34375 2.46875 -7.664062 C 2.417969 -7.734375 2.335938 -7.761719 2.253906 -7.742188 C 1.902344 -7.679688 1.355469 -6.484375 0.988281 -4.976562 C 0.972656 -4.917969 -0.488281 1.054688 -0.539062 1.789062 C -0.539062 1.871094 -0.488281 1.9375 -0.410156 1.953125 C -0.398438 1.953125 -0.390625 1.953125 -0.382812 1.953125 C -0.320312 1.953125 -0.253906 1.910156 -0.230469 1.855469 C 0.480469 -0.1875 1.175781 -1.039062 1.378906 -1.039062 C 1.390625 -1.039062 1.390625 -1.039062 1.390625 -1.039062 C 1.421875 -1.039062 1.511719 -0.9375 1.535156 -0.5625 C 1.542969 -0.367188 1.585938 0.210938 1.960938 0.308594 C 2.125 0.351562 2.605469 0.472656 3.914062 -1.648438 C 3.960938 -1.722656 3.9375 -1.820312 3.863281 -1.863281 Z M 2.199219 -7.292969 C 2.132812 -6.96875 1.902344 -6.265625 1.355469 -5.164062 C 1.667969 -6.339844 2 -7.015625 2.199219 -7.292969 Z M 2.199219 -7.292969 "/></g></g></g><path stroke-linecap="butt" transform="matrix(0, -0.747996, 0.75, 0, 117.823912, 211.85108)" fill="none" stroke-linejoin="miter" d="M -0.000645473 0.500409 L 70.192082 0.500409 " stroke="#000000" stroke-width="1" stroke-opacity="1" stroke-miterlimit="4"/><path stroke-linecap="butt" transform="matrix(0, -0.755384, 0.75, 0, 257.232996, 200.844889)" fill="none" stroke-linejoin="miter" d="M 0.00150812 0.501839 L 56.595263 0.501839 " stroke="#000000" stroke-width="1" stroke-opacity="1" stroke-miterlimit="4"/><g fill="#000000" fill-opacity="1"><g transform="translate(175.863099, 197.799479)"><g><path d="M 4.984375 -8.203125 L 4.984375 -7.328125 L 2.046875 -7.328125 L 2.046875 -4.6875 L 4.859375 -4.6875 L 4.859375 -3.8125 L 2.046875 -3.8125 L 2.046875 0 L 1.109375 0 L 1.109375 -8.203125 Z M 4.984375 -8.203125 "/></g></g></g><g fill="#000000" fill-opacity="1"><g transform="translate(181.430199, 197.799479)"><g><path d="M 5.921875 0 L 3.015625 -3.515625 L 2.046875 -3.515625 L 2.046875 0 L 1.109375 0 L 1.109375 -8.203125 L 3.515625 -8.203125 C 4.035156 -8.203125 4.5 -8.097656 4.90625 -7.890625 C 5.3125 -7.691406 5.625 -7.414062 5.84375 -7.0625 C 6.0625 -6.707031 6.171875 -6.304688 6.171875 -5.859375 C 6.171875 -5.273438 5.984375 -4.773438 5.609375 -4.359375 C 5.242188 -3.941406 4.75 -3.675781 4.125 -3.5625 L 7.09375 0 Z M 2.046875 -7.328125 L 2.046875 -4.390625 L 3.515625 -4.390625 C 4.035156 -4.390625 4.445312 -4.519531 4.75 -4.78125 C 5.050781 -5.050781 5.203125 -5.410156 5.203125 -5.859375 C 5.203125 -6.304688 5.050781 -6.660156 4.75 -6.921875 C 4.445312 -7.191406 4.035156 -7.328125 3.515625 -7.328125 Z M 2.046875 -7.328125 "/></g></g></g><g fill="#000000" fill-opacity="1"><g transform="translate(188.579531, 197.799479)"><g><path d="M 4.875 0.125 C 4.101562 0.125 3.390625 -0.0625 2.734375 -0.4375 C 2.085938 -0.820312 1.578125 -1.335938 1.203125 -1.984375 C 0.828125 -2.628906 0.640625 -3.335938 0.640625 -4.109375 C 0.640625 -4.867188 0.828125 -5.570312 1.203125 -6.21875 C 1.578125 -6.875 2.085938 -7.390625 2.734375 -7.765625 C 3.390625 -8.140625 4.101562 -8.328125 4.875 -8.328125 C 5.644531 -8.328125 6.351562 -8.140625 7 -7.765625 C 7.65625 -7.390625 8.171875 -6.875 8.546875 -6.21875 C 8.921875 -5.570312 9.109375 -4.867188 9.109375 -4.109375 C 9.109375 -3.335938 8.921875 -2.628906 8.546875 -1.984375 C 8.171875 -1.335938 7.65625 -0.820312 7 -0.4375 C 6.351562 -0.0625 5.644531 0.125 4.875 0.125 Z M 4.875 -0.765625 C 5.46875 -0.765625 6.007812 -0.910156 6.5 -1.203125 C 7 -1.503906 7.394531 -1.90625 7.6875 -2.40625 C 7.988281 -2.914062 8.140625 -3.484375 8.140625 -4.109375 C 8.140625 -4.722656 7.988281 -5.28125 7.6875 -5.78125 C 7.394531 -6.289062 7 -6.691406 6.5 -6.984375 C 6.007812 -7.285156 5.46875 -7.4375 4.875 -7.4375 C 4.28125 -7.4375 3.734375 -7.285156 3.234375 -6.984375 C 2.742188 -6.691406 2.351562 -6.289062 2.0625 -5.78125 C 1.769531 -5.28125 1.625 -4.722656 1.625 -4.109375 C 1.625 -3.484375 1.769531 -2.914062 2.0625 -2.40625 C 2.351562 -1.90625 2.742188 -1.503906 3.234375 -1.203125 C 3.734375 -0.910156 4.28125 -0.765625 4.875 -0.765625 Z M 4.875 -0.765625 "/></g></g></g><g fill="#000000" fill-opacity="1"><g transform="translate(198.330748, 197.799479)"><g><path d="M 7.234375 -1.734375 L 7.234375 -8.203125 L 8.140625 -8.203125 L 8.140625 0 L 7.5625 0 L 2.03125 -6.46875 L 2.03125 0 L 1.109375 0 L 1.109375 -8.203125 L 1.703125 -8.203125 Z M 7.234375 -1.734375 "/></g></g></g><g fill="#000000" fill-opacity="1"><g transform="translate(207.589718, 197.799479)"><g><path d="M 3.34375 0 L 2.40625 0 L 2.40625 -7.328125 L 0.296875 -7.328125 L 0.296875 -8.203125 L 5.453125 -8.203125 L 5.453125 -7.328125 L 3.34375 -7.328125 Z M 3.34375 0 "/></g></g></g><g fill="#000000" fill-opacity="1"><g transform="translate(213.332621, 197.799479)"><g><path d="M 3.640625 -2.5625 L 0.59375 -2.5625 L 0.59375 -3.40625 L 3.640625 -3.40625 Z M 3.640625 -2.5625 "/></g></g></g><g fill="#000000" fill-opacity="1"><g transform="translate(217.551898, 197.799479)"><g><path d="M 2.046875 -3.8125 L 2.046875 -0.875 L 5.5625 -0.875 L 5.5625 0 L 1.109375 0 L 1.109375 -8.203125 L 5.453125 -8.203125 L 5.453125 -7.328125 L 2.046875 -7.328125 L 2.046875 -4.6875 L 5.328125 -4.6875 L 5.328125 -3.8125 Z M 2.046875 -3.8125 "/></g></g></g><g fill="#000000" fill-opacity="1"><g transform="translate(223.880815, 197.799479)"><g><path d="M 7.234375 -1.734375 L 7.234375 -8.203125 L 8.140625 -8.203125 L 8.140625 0 L 7.5625 0 L 2.03125 -6.46875 L 2.03125 0 L 1.109375 0 L 1.109375 -8.203125 L 1.703125 -8.203125 Z M 7.234375 -1.734375 "/></g></g></g><g fill="#000000" fill-opacity="1"><g transform="translate(233.139784, 197.799479)"><g><path d="M 1.109375 0 L 1.109375 -8.203125 L 3.28125 -8.203125 C 4.195312 -8.203125 4.992188 -8.03125 5.671875 -7.6875 C 6.347656 -7.351562 6.875 -6.875 7.25 -6.25 C 7.625 -5.632812 7.8125 -4.921875 7.8125 -4.109375 C 7.8125 -3.296875 7.625 -2.578125 7.25 -1.953125 C 6.875 -1.328125 6.347656 -0.84375 5.671875 -0.5 C 4.992188 -0.164062 4.195312 0 3.28125 0 Z M 3.28125 -0.875 C 4.007812 -0.875 4.640625 -1.003906 5.171875 -1.265625 C 5.710938 -1.535156 6.125 -1.914062 6.40625 -2.40625 C 6.6875 -2.894531 6.828125 -3.460938 6.828125 -4.109375 C 6.828125 -4.742188 6.6875 -5.304688 6.40625 -5.796875 C 6.125 -6.285156 5.710938 -6.660156 5.171875 -6.921875 C 4.640625 -7.191406 4.007812 -7.328125 3.28125 -7.328125 L 2.046875 -7.328125 L 2.046875 -0.875 Z M 3.28125 -0.875 "/></g></g></g></svg>