<svg xmlns="http://www.w3.org/2000/svg" xmlns:xlink="http://www.w3.org/1999/xlink" width="500" zoomAndPan="magnify" viewBox="0 0 375 374.999991" height="500" preserveAspectRatio="xMidYMid meet" version="1.0"><defs><g/><clipPath id="5edc2bda97"><path d="M 121.675781 112 L 249 112 L 249 238 L 121.675781 238 Z M 121.675781 112 " clip-rule="nonzero"/></clipPath><clipPath id="4946ea28aa"><path d="M 169 237 L 183 237 L 183 238.804688 L 169 238.804688 Z M 169 237 " clip-rule="nonzero"/></clipPath></defs><rect x="-37.5" width="450" fill="#ffffff" y="-37.499999" height="449.999989" fill-opacity="1"/><rect x="-37.5" width="450" fill="#d5dfd6" y="-37.499999" height="449.999989" fill-opacity="1"/><g clip-path="url(#5edc2bda97)"><path fill="#24331d" d="M 245.542969 194.300781 C 246.050781 192.792969 247.28125 190.691406 248.011719 188.597656 C 248.707031 186.503906 249.179688 184.480469 248.695312 183.46875 C 248.089844 182.203125 247.144531 183.972656 246.578125 183.90625 C 246.050781 183.851562 244.617188 183.132812 243.109375 182.59375 C 241.597656 182.058594 240.011719 181.683594 239.207031 182.132812 C 238.671875 182.433594 238.132812 183.554688 237.617188 185.128906 C 237.335938 185.914062 237.152344 186.832031 236.804688 187.796875 C 236.457031 188.761719 236.09375 189.789062 235.742188 190.867188 L 235.210938 192.496094 C 235.011719 193.035156 234.753906 193.5625 234.53125 194.101562 C 234.074219 195.164062 233.621094 196.230469 233.183594 197.253906 C 232.179688 199.242188 231.117188 201.015625 230.308594 202.34375 C 227.238281 206.621094 223.804688 210.582031 220.011719 214.226562 C 216.253906 217.566406 212.191406 220.652344 207.050781 223.3125 C 199.957031 226.796875 192.941406 228.117188 185.800781 228.425781 C 178.609375 228.660156 171.195312 228.015625 162.292969 225.835938 C 157.027344 224.308594 152.179688 221.933594 147.738281 218.707031 C 142.804688 215.144531 138.273438 210.242188 134.738281 204.742188 C 131.207031 199.246094 128.730469 193.132812 127.296875 187.339844 C 126.976562 185.878906 126.667969 184.449219 126.367188 183.066406 C 126.199219 181.652344 126.03125 180.289062 125.871094 178.972656 C 125.648438 177.65625 125.628906 176.378906 125.589844 175.160156 C 125.53125 173.933594 125.476562 172.765625 125.421875 171.667969 C 125.488281 172.324219 124.433594 171.933594 125.421875 171.667969 C 125.890625 166.5 126.921875 160.472656 129.179688 154.375 C 131.4375 148.273438 134.949219 142.242188 139.269531 136.925781 C 143.585938 131.609375 148.726562 127.050781 153.878906 123.472656 L 157.742188 120.984375 C 159.011719 120.195312 160.316406 119.578125 161.535156 118.882812 L 163.347656 117.878906 C 163.953125 117.578125 164.558594 117.328125 165.140625 117.054688 C 166.320312 116.519531 167.4375 115.992188 168.5 115.46875 C 166.007812 116.707031 167.328125 115.992188 169.234375 115.019531 C 171.175781 114.199219 173.773438 113.113281 173.4375 113.042969 C 172.578125 112.867188 171.625 112.914062 170.628906 113.09375 C 169.578125 113.269531 168.574219 113.59375 167.617188 114.0625 L 162.148438 116.761719 L 158.402344 118.554688 L 157.480469 119.007812 L 156.597656 119.542969 L 154.851562 120.609375 C 152.480469 121.9375 150.371094 123.625 148.226562 125.164062 C 144.089844 128.476562 140.21875 131.875 136.605469 135.519531 C 137.789062 136.421875 135.53125 137.265625 135.285156 138.140625 C 136.519531 139.945312 132.949219 140.140625 135.285156 138.140625 C 134.597656 138.515625 133.753906 139.429688 132.804688 140.566406 C 132.332031 141.132812 131.84375 141.765625 131.355469 142.421875 C 130.863281 143.082031 130.484375 143.84375 130.0625 144.554688 C 129.265625 146.015625 128.410156 147.390625 127.941406 148.601562 L 126.941406 151.039062 C 126.644531 151.761719 126.070312 152.660156 125.539062 153.75 C 125.039062 154.851562 124.464844 156.097656 123.925781 157.402344 C 123.335938 158.691406 123 160.101562 122.796875 161.453125 C 122.59375 162.808594 122.515625 164.097656 122.726562 165.21875 C 122.679688 165.0625 122.957031 163.691406 123.398438 161.636719 C 123.65625 160.621094 123.804688 159.390625 124.285156 158.144531 C 124.707031 156.886719 125.179688 155.53125 125.65625 154.140625 C 127.835938 148.679688 131.1875 143.128906 133 141.390625 C 133.636719 140.714844 133.414062 141.21875 132.71875 142.382812 L 132.109375 143.378906 C 131.910156 143.765625 131.695312 144.1875 131.464844 144.636719 C 130.992188 145.53125 130.460938 146.539062 129.910156 147.589844 C 129.304688 148.605469 128.902344 149.789062 128.414062 150.890625 C 127.953125 152.003906 127.476562 153.078125 127.085938 154.074219 L 125.699219 158.417969 C 125.417969 159.175781 125.347656 160.6875 125.265625 162.125 C 125.179688 163.5625 125.03125 164.941406 124.726562 165.578125 C 124.683594 165.683594 123.253906 166.457031 123.253906 166.457031 C 123.210938 167.175781 123.535156 167.953125 123.800781 168.929688 C 123.949219 169.46875 124.042969 170.015625 124.082031 170.574219 C 124.109375 171.273438 124.101562 171.972656 124.054688 172.671875 C 123.855469 174.660156 123.445312 174.375 123.121094 173.425781 C 122.796875 172.480469 122.554688 170.871094 122.8125 170.367188 C 122.386719 171.277344 122.238281 172.296875 122.070312 173.378906 C 121.902344 174.464844 121.808594 175.621094 121.746094 176.828125 C 121.683594 178.035156 121.875 179.285156 121.984375 180.574219 C 122.0625 181.21875 122.136719 181.867188 122.214844 182.53125 L 122.355469 183.523438 L 122.59375 184.519531 C 123.667969 189.871094 126.023438 195.222656 128.214844 200.179688 C 130.757812 205.386719 133.890625 210.207031 137.613281 214.632812 C 141.375 218.949219 145.566406 222.570312 149.566406 225.550781 C 157.878906 231.445312 167.230469 234.222656 176.246094 234.839844 C 177.367188 234.996094 178.503906 234.878906 179.636719 234.914062 L 182.996094 234.914062 L 186.332031 234.585938 C 187.4375 234.453125 188.558594 234.441406 189.644531 234.183594 C 191.820312 233.714844 194.046875 233.5 196.179688 232.808594 L 199.429688 231.945312 C 200.503906 231.617188 201.550781 231.191406 202.632812 230.832031 C 203.074219 230.660156 204.152344 230.429688 205.457031 230 L 209.855469 228.363281 C 211.367188 227.738281 212.75 226.945312 213.824219 226.375 C 214.898438 225.808594 215.589844 225.316406 215.578125 225.078125 C 215.589844 225.417969 214.835938 226.058594 213.683594 226.902344 C 212.511719 227.710938 211.023438 228.863281 209.261719 229.660156 C 205.878906 231.546875 201.914062 232.742188 200.582031 233.167969 C 199.644531 233.433594 198.554688 233.59375 197.414062 233.867188 C 196.261719 234.082031 195.066406 234.46875 193.769531 234.613281 L 189.8125 235.144531 L 188.8125 235.285156 L 187.796875 235.328125 L 185.785156 235.417969 C 180.457031 235.742188 175.554688 235.113281 173.351562 234.839844 C 173.152344 234.820312 172.355469 234.792969 171.296875 234.773438 C 170.253906 234.707031 168.976562 234.523438 167.789062 234.429688 C 166.597656 234.335938 165.519531 234.257812 164.917969 234.253906 C 164.324219 234.210938 164.195312 234.308594 164.898438 234.636719 C 173.320312 238.058594 183.695312 238.449219 193.285156 236.382812 C 193.886719 236.257812 194.5 236.171875 195.089844 236.015625 L 196.859375 235.503906 L 200.375 234.492188 C 201.519531 234.082031 202.636719 233.621094 203.765625 233.203125 C 204.898438 232.785156 206.039062 232.410156 207.09375 231.855469 C 209.238281 230.824219 211.4375 229.960938 213.433594 228.789062 C 214.460938 228.25 215.484375 227.722656 216.511719 227.210938 C 217.484375 226.625 218.453125 226.046875 219.429688 225.496094 C 219.695312 224.878906 220.347656 224.269531 221.183594 223.671875 C 222.042969 222.976562 222.933594 222.328125 223.859375 221.730469 C 224.789062 221.101562 225.734375 220.554688 226.375 220.027344 C 227.011719 219.503906 227.398438 219.0625 227.363281 218.820312 C 227.449219 219.421875 227.164062 220.050781 226.65625 220.6875 C 226.097656 221.28125 225.300781 221.859375 224.4375 222.425781 L 221.78125 224.082031 C 220.882812 224.570312 220.039062 225.015625 219.433594 225.503906 C 218.457031 226.269531 217.515625 227.09375 216.5 227.816406 L 213.378906 229.875 L 211.808594 230.898438 L 210.15625 231.777344 L 206.839844 233.535156 C 215.488281 229.949219 223.148438 224.863281 229.820312 218.277344 C 231.632812 216.667969 233.085938 214.726562 234.710938 212.921875 C 235.550781 212.035156 236.183594 211 236.910156 210.03125 L 239.039062 207.074219 C 240.242188 204.984375 241.5625 202.941406 242.644531 200.804688 L 244.164062 197.5625 C 244.675781 196.488281 245.1875 195.414062 245.542969 194.300781 Z M 243.59375 185.972656 C 243.949219 185.734375 244.34375 187.097656 244.140625 187.234375 C 243.785156 187.460938 243.390625 186.097656 243.59375 185.972656 Z M 237.847656 205.5625 C 238.972656 205.398438 234.414062 212.699219 236.757812 207.648438 C 236.90625 207.34375 237.589844 205.667969 237.847656 205.5625 Z M 234.730469 209.855469 C 235.207031 209.761719 234.394531 211.574219 233.53125 212.632812 C 232.722656 213.726562 232.148438 214.222656 233.519531 211.847656 C 233.730469 211.589844 234.429688 209.914062 234.730469 209.855469 Z M 240.664062 194.21875 Z M 231.632812 213.355469 C 232.058594 213.285156 230.519531 215.941406 229.085938 217.394531 C 227.730469 218.921875 226.949219 219.570312 229.605469 216.164062 C 230.3125 215.277344 231.132812 213.386719 231.632812 213.355469 Z M 238.789062 197.800781 C 239.179688 197.648438 239.304688 199.035156 239.070312 199.121094 C 238.691406 199.269531 238.5625 197.882812 238.789062 197.808594 Z M 237.839844 200.472656 C 238.699219 200.464844 236.894531 204.339844 236.851562 204.417969 C 235.316406 207.574219 232.285156 211.0625 229.871094 213.484375 C 229 214.535156 227.335938 215.996094 226.351562 216.777344 C 225.367188 217.5625 224.988281 217.617188 226.394531 215.707031 C 227.597656 214.238281 229.28125 212.179688 231.328125 209.984375 C 232.308594 208.863281 233.226562 207.601562 234.234375 206.378906 C 235.277344 205.175781 236.097656 203.832031 236.925781 202.554688 C 237.070312 202.339844 237.617188 200.480469 237.839844 200.480469 Z M 223.371094 218.160156 C 223.796875 218.203125 223.316406 219.4375 223.074219 219.414062 C 222.660156 219.363281 223.132812 218.128906 223.371094 218.160156 Z M 221.414062 220.074219 C 221.875 220.125 220.863281 222.203125 220.296875 222.125 C 219.859375 222.050781 220.851562 219.992188 221.414062 220.074219 Z M 169.613281 231.441406 Z M 149.390625 222.910156 C 149.410156 223.277344 149.363281 222.339844 149.390625 222.910156 Z M 147.652344 221.695312 C 147.675781 222.121094 145.917969 221.769531 145.929688 221.304688 C 145.917969 220.894531 147.640625 221.265625 147.652344 221.695312 Z M 145.144531 219.730469 C 145.128906 220.144531 143.871094 219.796875 143.882812 219.554688 C 143.90625 219.148438 145.15625 219.492188 145.144531 219.730469 Z M 143.925781 218.695312 C 143.960938 218.253906 142.902344 217.921875 141.871094 217.476562 C 140.882812 216.992188 139.875 216.445312 139.957031 215.863281 C 140.652344 216.058594 141.324219 216.308594 141.972656 216.621094 C 142.925781 217.144531 144.007812 217.695312 143.925781 218.695312 Z M 139.332031 214.242188 C 139.035156 215.3125 134.398438 208.988281 137.910156 212.648438 L 138.691406 213.4375 C 139.042969 213.757812 139.355469 214.09375 139.332031 214.242188 Z M 136.570312 210.976562 C 136.570312 210.976562 135.988281 210.675781 135.414062 210.308594 C 134.839844 209.9375 134.257812 209.515625 134.351562 209.265625 C 134.488281 209.261719 134.621094 209.273438 134.75 209.300781 C 135.046875 209.339844 135.335938 209.40625 135.621094 209.503906 C 136.230469 209.726562 136.773438 210.140625 136.570312 210.972656 Z M 134.027344 207.523438 C 133.710938 208.457031 129.695312 201.691406 132.847656 205.722656 C 133.035156 205.960938 134.128906 207.226562 134.027344 207.519531 Z M 131.214844 202.941406 C 131.289062 202.773438 130.875 202.15625 130.21875 201.273438 L 129.085938 199.78125 C 128.707031 199.210938 128.335938 198.59375 127.957031 197.960938 C 127.214844 196.691406 126.402344 195.386719 125.996094 194.230469 C 125.621094 193.074219 125.476562 192.132812 125.789062 191.691406 C 125.492188 192.128906 126.839844 194.617188 128.503906 196.980469 C 129.945312 199.445312 131.78125 201.714844 131.214844 202.9375 Z M 126.113281 190.457031 C 125.820312 190.90625 125.179688 189.371094 125.078125 188.25 C 124.933594 187.132812 125.042969 186.527344 125.640625 188.898438 C 125.722656 189.097656 126.246094 190.285156 126.113281 190.457031 Z M 125.226562 186.769531 C 125.226562 186.769531 124.851562 186.226562 124.511719 185.632812 C 124.175781 185.039062 123.875 184.378906 124.03125 184.199219 C 124.160156 184.257812 124.28125 184.328125 124.390625 184.414062 C 124.636719 184.585938 124.863281 184.78125 125.066406 185 C 125.507812 185.480469 125.796875 186.105469 125.234375 186.765625 Z M 124.320312 180.855469 Z M 124.167969 179.222656 C 123.855469 179.542969 122.828125 177.449219 123.320312 177.0625 C 123.628906 176.773438 124.585938 178.84375 124.175781 179.222656 Z M 139.953125 134.742188 C 139.496094 134.703125 140.210938 133.039062 140.667969 133.085938 C 141.121094 133.136719 140.402344 134.789062 139.953125 134.742188 Z M 142.746094 132.011719 C 142.203125 131.960938 143.308594 130.660156 144.265625 130.011719 C 145.21875 129.363281 145.804688 129.140625 143.945312 130.839844 C 143.792969 131.003906 142.960938 132.042969 142.746094 132.011719 Z M 127.007812 158.8125 Z M 129.210938 152.65625 C 129.210938 152.65625 129.210938 151.996094 129.273438 151.308594 C 129.335938 150.621094 129.460938 149.90625 129.695312 149.847656 C 129.773438 149.96875 129.828125 150.09375 129.871094 150.230469 C 129.976562 150.511719 130.050781 150.800781 130.09375 151.101562 C 130.171875 151.75 130.050781 152.433594 129.210938 152.65625 Z M 131.289062 148.195312 C 130.160156 148.390625 134.289062 142.289062 132.089844 146.761719 C 131.996094 146.960938 131.503906 148.160156 131.289062 148.195312 Z M 134.359375 143.011719 C 133.222656 143.09375 137.925781 137.402344 135.296875 141.660156 C 135.1875 141.847656 134.578125 143 134.359375 143.015625 Z M 125.832031 182.316406 C 125.53125 182.609375 124.878906 181.5 125.054688 181.324219 C 125.355469 181.046875 126.011719 182.152344 125.832031 182.316406 Z M 125.832031 182.316406 " fill-opacity="1" fill-rule="evenodd"/></g><path fill="#24331d" d="M 206.839844 233.527344 C 206.414062 234.226562 205.347656 234.730469 204.019531 235.1875 C 202.683594 235.613281 201.113281 236.070312 199.511719 236.191406 C 197.929688 236.375 196.414062 236.523438 195.242188 236.730469 C 194.058594 236.871094 193.210938 237.023438 192.996094 237.421875 C 193.304688 236.820312 194.304688 236.535156 195.585938 236.144531 C 196.867188 235.753906 198.484375 235.46875 200.105469 235.226562 C 201.722656 234.957031 203.285156 234.523438 204.535156 234.257812 C 205.78125 233.960938 206.6875 233.75 206.839844 233.527344 Z M 206.839844 233.527344 " fill-opacity="1" fill-rule="evenodd"/><g clip-path="url(#4946ea28aa)"><path fill="#24331d" d="M 182.132812 238.042969 C 181.929688 237.773438 179.144531 238.402344 176.140625 238.6875 C 173.175781 238.753906 169.964844 238.796875 169.472656 237.742188 C 169.6875 238.253906 172.574219 237.863281 175.441406 237.660156 C 176.871094 237.625 178.335938 237.324219 179.535156 237.339844 C 180.738281 237.328125 181.6875 237.511719 182.132812 238.042969 Z M 182.132812 238.042969 " fill-opacity="1" fill-rule="evenodd"/></g><path fill="#24331d" d="M 167.355469 236.574219 C 167.550781 236.949219 166.179688 237.210938 166.066406 236.992188 C 165.878906 236.617188 167.246094 236.355469 167.355469 236.574219 Z M 167.355469 236.574219 " fill-opacity="1" fill-rule="evenodd"/><path fill="#24331d" d="M 182.96875 111.492188 C 182.164062 110.566406 192.828125 111.363281 185.398438 111.523438 C 185.039062 111.53125 183.195312 111.75 182.96875 111.492188 Z M 182.96875 111.492188 " fill-opacity="1" fill-rule="evenodd"/><path fill="#24331d" d="M 174.609375 112.820312 C 173.703125 111.933594 184.183594 111.265625 179.378906 112.34375 C 179.425781 112.332031 178.355469 112.566406 177.222656 112.742188 C 176.089844 112.914062 174.878906 113.003906 174.609375 112.820312 Z M 174.609375 112.820312 " fill-opacity="1" fill-rule="evenodd"/><path fill="#24331d" d="M 136.597656 135.511719 C 135.546875 137.769531 134.96875 134.265625 136.597656 135.511719 Z M 136.597656 135.511719 " fill-opacity="1" fill-rule="evenodd"/><path fill="#24331d" d="M 156.351562 222.324219 C 156.359375 222.421875 155.765625 222.179688 154.839844 221.753906 L 153.234375 220.996094 C 152.664062 220.679688 152.078125 220.285156 151.46875 219.902344 L 149.644531 218.75 C 149.078125 218.417969 148.542969 218.039062 148.039062 217.617188 L 146.203125 216.132812 C 144.730469 215.039062 142.5625 213.234375 140.578125 211.566406 C 138.828125 209.707031 137.347656 207.941406 137.710938 206.886719 C 137.601562 207.117188 139.359375 208.9375 141.195312 210.921875 C 143.257812 212.71875 145.394531 214.691406 146.28125 215.300781 C 147.203125 216.066406 149.53125 217.59375 151.851562 218.792969 C 152.417969 219.117188 152.957031 219.449219 153.460938 219.789062 C 153.960938 220.125 154.476562 220.355469 154.890625 220.652344 C 155.726562 221.207031 156.285156 221.777344 156.351562 222.324219 Z M 156.351562 222.324219 " fill-opacity="1" fill-rule="evenodd"/><g fill="#19341c" fill-opacity="1"><g transform="translate(149.040596, 192.884754)"><g><path d="M 3.035156 5.546875 C 4.636719 6.632812 6.457031 7.109375 9.144531 7.109375 C 16.820312 7.109375 19.550781 1.082031 19.550781 -2.992188 L 19.550781 -43.347656 L 16.082031 -43.347656 L 16.082031 -1.820312 C 16.082031 2.082031 14.132812 6.242188 8.800781 6.242188 C 6.414062 6.242188 4.636719 5.636719 3.554688 4.726562 Z M 3.035156 5.546875 "/></g></g></g><g fill="#19341c" fill-opacity="1"><g transform="translate(172.058216, 192.884754)"><g><path d="M 3.46875 -43.347656 L 3.46875 0 L 17.164062 0 C 28.78125 0 37.667969 -9.101562 37.667969 -21.671875 C 37.667969 -34.246094 28.78125 -43.347656 17.164062 -43.347656 Z M 6.9375 -40.398438 C 7.109375 -42.046875 7.847656 -42.480469 9.191406 -42.480469 C 10.535156 -42.480469 13.265625 -42.523438 14.433594 -42.523438 C 28.132812 -42.523438 33.941406 -31.730469 33.941406 -21.671875 C 33.941406 -11.617188 28.132812 -0.605469 14.433594 -0.605469 C 13.265625 -0.605469 10.535156 -0.648438 9.191406 -0.648438 C 7.628906 -0.648438 6.890625 -1.257812 6.890625 -3.597656 C 6.890625 -9.101562 6.9375 -37.367188 6.9375 -40.398438 Z M 6.9375 -40.398438 "/></g></g></g><g fill="#19341c" fill-opacity="1"><g transform="translate(121.450839, 255.633301)"><g><path d="M 0.90625 -1.640625 L 0.90625 0 L 0.453125 0 L 0.453125 -3.609375 L 2.875 -3.609375 L 2.875 -3.203125 L 0.90625 -3.203125 L 0.90625 -2.046875 L 2.625 -2.046875 L 2.625 -1.640625 Z M 0.90625 -1.640625 "/></g></g></g><g fill="#19341c" fill-opacity="1"><g transform="translate(128.436279, 255.633301)"><g><path d="M 2.65625 -1.78125 C 2.78125 -1.726562 2.878906 -1.660156 2.953125 -1.578125 C 3.023438 -1.503906 3.070312 -1.425781 3.09375 -1.34375 C 3.125 -1.257812 3.140625 -1.171875 3.140625 -1.078125 C 3.148438 -0.984375 3.148438 -0.890625 3.140625 -0.796875 C 3.140625 -0.703125 3.140625 -0.613281 3.140625 -0.53125 C 3.148438 -0.445312 3.171875 -0.367188 3.203125 -0.296875 C 3.242188 -0.222656 3.296875 -0.160156 3.359375 -0.109375 L 3.359375 0 L 2.796875 0 C 2.734375 -0.15625 2.703125 -0.351562 2.703125 -0.59375 L 2.703125 -0.90625 C 2.703125 -1.132812 2.65625 -1.300781 2.5625 -1.40625 C 2.46875 -1.507812 2.316406 -1.5625 2.109375 -1.5625 L 0.921875 -1.5625 L 0.921875 0 L 0.46875 0 L 0.46875 -3.609375 L 2.125 -3.609375 C 2.476562 -3.609375 2.75 -3.523438 2.9375 -3.359375 C 3.125 -3.191406 3.21875 -2.953125 3.21875 -2.640625 C 3.21875 -2.429688 3.171875 -2.257812 3.078125 -2.125 C 2.992188 -2 2.851562 -1.882812 2.65625 -1.78125 Z M 2.75 -2.578125 C 2.75 -2.703125 2.726562 -2.804688 2.6875 -2.890625 C 2.65625 -2.972656 2.601562 -3.035156 2.53125 -3.078125 C 2.46875 -3.128906 2.394531 -3.160156 2.3125 -3.171875 C 2.226562 -3.191406 2.132812 -3.203125 2.03125 -3.203125 L 0.921875 -3.203125 L 0.921875 -1.96875 L 2.03125 -1.96875 C 2.28125 -1.96875 2.460938 -2.015625 2.578125 -2.109375 C 2.691406 -2.210938 2.75 -2.367188 2.75 -2.578125 Z M 2.75 -2.578125 "/></g></g></g><g fill="#19341c" fill-opacity="1"><g transform="translate(135.971969, 255.633301)"><g><path d="M 3.671875 -1.75 C 3.671875 -1.488281 3.628906 -1.242188 3.546875 -1.015625 C 3.472656 -0.796875 3.359375 -0.597656 3.203125 -0.421875 C 3.054688 -0.253906 2.875 -0.125 2.65625 -0.03125 C 2.4375 0.0625 2.195312 0.109375 1.9375 0.109375 C 1.414062 0.109375 0.992188 -0.0625 0.671875 -0.40625 C 0.347656 -0.757812 0.1875 -1.21875 0.1875 -1.78125 C 0.1875 -2.34375 0.347656 -2.796875 0.671875 -3.140625 C 0.992188 -3.492188 1.410156 -3.671875 1.921875 -3.671875 C 2.453125 -3.671875 2.875 -3.492188 3.1875 -3.140625 C 3.507812 -2.796875 3.671875 -2.332031 3.671875 -1.75 Z M 1.921875 -3.265625 C 1.546875 -3.265625 1.238281 -3.128906 1 -2.859375 C 0.757812 -2.585938 0.640625 -2.226562 0.640625 -1.78125 C 0.640625 -1.332031 0.757812 -0.972656 1 -0.703125 C 1.238281 -0.429688 1.550781 -0.296875 1.9375 -0.296875 C 2.3125 -0.296875 2.617188 -0.429688 2.859375 -0.703125 C 3.097656 -0.972656 3.21875 -1.320312 3.21875 -1.75 C 3.21875 -2.207031 3.097656 -2.570312 2.859375 -2.84375 C 2.628906 -3.125 2.316406 -3.265625 1.921875 -3.265625 Z M 1.921875 -3.265625 "/></g></g></g><g fill="#19341c" fill-opacity="1"><g transform="translate(143.78554, 255.633301)"><g><path d="M 3.203125 -3.609375 L 3.203125 0 L 2.6875 0 L 0.8125 -2.921875 L 0.8125 0 L 0.375 0 L 0.375 -3.609375 L 0.875 -3.609375 L 2.765625 -0.65625 L 2.765625 -3.609375 Z M 3.203125 -3.609375 "/></g></g></g><g fill="#19341c" fill-opacity="1"><g transform="translate(151.321229, 255.633301)"><g><path d="M 1.75 -3.203125 L 1.75 0 L 1.296875 0 L 1.296875 -3.203125 L 0.109375 -3.203125 L 0.109375 -3.609375 L 2.9375 -3.609375 L 2.9375 -3.203125 Z M 1.75 -3.203125 "/></g></g></g><g fill="#19341c" fill-opacity="1"><g transform="translate(158.306669, 255.633301)"><g><path d="M 1.40625 -1.546875 L 1.40625 -1.1875 L 0.234375 -1.1875 L 0.234375 -1.546875 Z M 1.40625 -1.546875 "/></g></g></g><g fill="#19341c" fill-opacity="1"><g transform="translate(163.91373, 255.633301)"><g><path d="M 0.90625 -1.640625 L 0.90625 -0.40625 L 3.03125 -0.40625 L 3.03125 0 L 0.453125 0 L 0.453125 -3.609375 L 2.9375 -3.609375 L 2.9375 -3.203125 L 0.90625 -3.203125 L 0.90625 -2.046875 L 2.875 -2.046875 L 2.875 -1.640625 Z M 0.90625 -1.640625 "/></g></g></g><g fill="#19341c" fill-opacity="1"><g transform="translate(171.177049, 255.633301)"><g><path d="M 3.203125 -3.609375 L 3.203125 0 L 2.6875 0 L 0.8125 -2.921875 L 0.8125 0 L 0.375 0 L 0.375 -3.609375 L 0.875 -3.609375 L 2.765625 -0.65625 L 2.765625 -3.609375 Z M 3.203125 -3.609375 "/></g></g></g><g fill="#19341c" fill-opacity="1"><g transform="translate(178.712742, 255.633301)"><g><path d="M 0.4375 0 L 0.4375 -3.609375 L 1.828125 -3.609375 C 2.285156 -3.609375 2.644531 -3.445312 2.90625 -3.125 C 3.164062 -2.800781 3.296875 -2.363281 3.296875 -1.8125 C 3.296875 -1.25 3.164062 -0.804688 2.90625 -0.484375 C 2.644531 -0.160156 2.285156 0 1.828125 0 Z M 0.90625 -0.40625 L 1.75 -0.40625 C 2.101562 -0.40625 2.375 -0.523438 2.5625 -0.765625 C 2.75 -1.003906 2.84375 -1.347656 2.84375 -1.796875 C 2.84375 -2.265625 2.75 -2.613281 2.5625 -2.84375 C 2.382812 -3.082031 2.113281 -3.203125 1.75 -3.203125 L 0.90625 -3.203125 Z M 0.90625 -0.40625 "/></g></g></g><g fill="#19341c" fill-opacity="1"><g transform="translate(186.248434, 255.633301)"><g/></g></g><g fill="#19341c" fill-opacity="1"><g transform="translate(191.585874, 255.633301)"><g><path d="M 0.4375 0 L 0.4375 -3.609375 L 1.828125 -3.609375 C 2.285156 -3.609375 2.644531 -3.445312 2.90625 -3.125 C 3.164062 -2.800781 3.296875 -2.363281 3.296875 -1.8125 C 3.296875 -1.25 3.164062 -0.804688 2.90625 -0.484375 C 2.644531 -0.160156 2.285156 0 1.828125 0 Z M 0.90625 -0.40625 L 1.75 -0.40625 C 2.101562 -0.40625 2.375 -0.523438 2.5625 -0.765625 C 2.75 -1.003906 2.84375 -1.347656 2.84375 -1.796875 C 2.84375 -2.265625 2.75 -2.613281 2.5625 -2.84375 C 2.382812 -3.082031 2.113281 -3.203125 1.75 -3.203125 L 0.90625 -3.203125 Z M 0.90625 -0.40625 "/></g></g></g><g fill="#19341c" fill-opacity="1"><g transform="translate(199.121567, 255.633301)"><g><path d="M 0.90625 -1.640625 L 0.90625 -0.40625 L 3.03125 -0.40625 L 3.03125 0 L 0.453125 0 L 0.453125 -3.609375 L 2.9375 -3.609375 L 2.9375 -3.203125 L 0.90625 -3.203125 L 0.90625 -2.046875 L 2.875 -2.046875 L 2.875 -1.640625 Z M 0.90625 -1.640625 "/></g></g></g><g fill="#19341c" fill-opacity="1"><g transform="translate(206.384889, 255.633301)"><g><path d="M 1.9375 0 L 1.453125 0 L 0.15625 -3.609375 L 0.640625 -3.609375 L 1.703125 -0.5625 L 2.703125 -3.609375 L 3.203125 -3.609375 Z M 1.9375 0 "/></g></g></g><g fill="#19341c" fill-opacity="1"><g transform="translate(213.648212, 255.633301)"><g><path d="M 0.90625 -1.640625 L 0.90625 -0.40625 L 3.03125 -0.40625 L 3.03125 0 L 0.453125 0 L 0.453125 -3.609375 L 2.9375 -3.609375 L 2.9375 -3.203125 L 0.90625 -3.203125 L 0.90625 -2.046875 L 2.875 -2.046875 L 2.875 -1.640625 Z M 0.90625 -1.640625 "/></g></g></g><g fill="#19341c" fill-opacity="1"><g transform="translate(220.911534, 255.633301)"><g><path d="M 0.859375 -3.609375 L 0.859375 -0.40625 L 2.640625 -0.40625 L 2.640625 0 L 0.390625 0 L 0.390625 -3.609375 Z M 0.859375 -3.609375 "/></g></g></g><g fill="#19341c" fill-opacity="1"><g transform="translate(227.624601, 255.633301)"><g><path d="M 3.671875 -1.75 C 3.671875 -1.488281 3.628906 -1.242188 3.546875 -1.015625 C 3.472656 -0.796875 3.359375 -0.597656 3.203125 -0.421875 C 3.054688 -0.253906 2.875 -0.125 2.65625 -0.03125 C 2.4375 0.0625 2.195312 0.109375 1.9375 0.109375 C 1.414062 0.109375 0.992188 -0.0625 0.671875 -0.40625 C 0.347656 -0.757812 0.1875 -1.21875 0.1875 -1.78125 C 0.1875 -2.34375 0.347656 -2.796875 0.671875 -3.140625 C 0.992188 -3.492188 1.410156 -3.671875 1.921875 -3.671875 C 2.453125 -3.671875 2.875 -3.492188 3.1875 -3.140625 C 3.507812 -2.796875 3.671875 -2.332031 3.671875 -1.75 Z M 1.921875 -3.265625 C 1.546875 -3.265625 1.238281 -3.128906 1 -2.859375 C 0.757812 -2.585938 0.640625 -2.226562 0.640625 -1.78125 C 0.640625 -1.332031 0.757812 -0.972656 1 -0.703125 C 1.238281 -0.429688 1.550781 -0.296875 1.9375 -0.296875 C 2.3125 -0.296875 2.617188 -0.429688 2.859375 -0.703125 C 3.097656 -0.972656 3.21875 -1.320312 3.21875 -1.75 C 3.21875 -2.207031 3.097656 -2.570312 2.859375 -2.84375 C 2.628906 -3.125 2.316406 -3.265625 1.921875 -3.265625 Z M 1.921875 -3.265625 "/></g></g></g><g fill="#19341c" fill-opacity="1"><g transform="translate(235.438166, 255.633301)"><g><path d="M 3.0625 -2.546875 C 3.0625 -2.242188 2.96875 -2 2.78125 -1.8125 C 2.59375 -1.625 2.347656 -1.53125 2.046875 -1.53125 L 0.90625 -1.53125 L 0.90625 0 L 0.453125 0 L 0.453125 -3.609375 L 1.9375 -3.609375 C 2.300781 -3.609375 2.578125 -3.515625 2.765625 -3.328125 C 2.960938 -3.148438 3.0625 -2.890625 3.0625 -2.546875 Z M 0.90625 -1.9375 L 1.875 -1.9375 C 2.09375 -1.9375 2.265625 -1.988281 2.390625 -2.09375 C 2.515625 -2.207031 2.578125 -2.363281 2.578125 -2.5625 C 2.578125 -2.769531 2.515625 -2.925781 2.390625 -3.03125 C 2.265625 -3.144531 2.09375 -3.203125 1.875 -3.203125 L 0.90625 -3.203125 Z M 0.90625 -1.9375 "/></g></g></g><g fill="#19341c" fill-opacity="1"><g transform="translate(242.701489, 255.633301)"><g><path d="M 0.90625 -1.640625 L 0.90625 -0.40625 L 3.03125 -0.40625 L 3.03125 0 L 0.453125 0 L 0.453125 -3.609375 L 2.9375 -3.609375 L 2.9375 -3.203125 L 0.90625 -3.203125 L 0.90625 -2.046875 L 2.875 -2.046875 L 2.875 -1.640625 Z M 0.90625 -1.640625 "/></g></g></g><g fill="#19341c" fill-opacity="1"><g transform="translate(249.964811, 255.633301)"><g><path d="M 2.65625 -1.78125 C 2.78125 -1.726562 2.878906 -1.660156 2.953125 -1.578125 C 3.023438 -1.503906 3.070312 -1.425781 3.09375 -1.34375 C 3.125 -1.257812 3.140625 -1.171875 3.140625 -1.078125 C 3.148438 -0.984375 3.148438 -0.890625 3.140625 -0.796875 C 3.140625 -0.703125 3.140625 -0.613281 3.140625 -0.53125 C 3.148438 -0.445312 3.171875 -0.367188 3.203125 -0.296875 C 3.242188 -0.222656 3.296875 -0.160156 3.359375 -0.109375 L 3.359375 0 L 2.796875 0 C 2.734375 -0.15625 2.703125 -0.351562 2.703125 -0.59375 L 2.703125 -0.90625 C 2.703125 -1.132812 2.65625 -1.300781 2.5625 -1.40625 C 2.46875 -1.507812 2.316406 -1.5625 2.109375 -1.5625 L 0.921875 -1.5625 L 0.921875 0 L 0.46875 0 L 0.46875 -3.609375 L 2.125 -3.609375 C 2.476562 -3.609375 2.75 -3.523438 2.9375 -3.359375 C 3.125 -3.191406 3.21875 -2.953125 3.21875 -2.640625 C 3.21875 -2.429688 3.171875 -2.257812 3.078125 -2.125 C 2.992188 -2 2.851562 -1.882812 2.65625 -1.78125 Z M 2.75 -2.578125 C 2.75 -2.703125 2.726562 -2.804688 2.6875 -2.890625 C 2.65625 -2.972656 2.601562 -3.035156 2.53125 -3.078125 C 2.46875 -3.128906 2.394531 -3.160156 2.3125 -3.171875 C 2.226562 -3.191406 2.132812 -3.203125 2.03125 -3.203125 L 0.921875 -3.203125 L 0.921875 -1.96875 L 2.03125 -1.96875 C 2.28125 -1.96875 2.460938 -2.015625 2.578125 -2.109375 C 2.691406 -2.210938 2.75 -2.367188 2.75 -2.578125 Z M 2.75 -2.578125 "/></g></g></g></svg>