<svg xmlns="http://www.w3.org/2000/svg" xmlns:xlink="http://www.w3.org/1999/xlink" width="500" zoomAndPan="magnify" viewBox="0 0 375 374.999991" height="500" preserveAspectRatio="xMidYMid meet" version="1.0"><defs><g/></defs><rect x="-37.5" width="450" fill="#ffffff" y="-37.499999" height="449.999989" fill-opacity="1"/><rect x="-37.5" width="450" fill="#f1efe7" y="-37.499999" height="449.999989" fill-opacity="1"/><g fill="#000000" fill-opacity="1"><g transform="translate(128.268498, 186.596238)"><g><path d="M 1.984375 -1.328125 C 0.984375 -2.421875 0.484375 -3.757812 0.484375 -5.34375 C 0.484375 -6.9375 0.984375 -8.285156 1.984375 -9.390625 C 2.992188 -10.492188 4.269531 -11.046875 5.8125 -11.046875 C 7.238281 -11.046875 8.410156 -10.597656 9.328125 -9.703125 L 9.328125 -18 L 13.03125 -18 L 13.03125 0 L 9.375 0 L 9.375 -1.21875 L 9.328125 -1.21875 C 8.410156 -0.195312 7.238281 0.3125 5.8125 0.3125 C 4.269531 0.3125 2.992188 -0.234375 1.984375 -1.328125 Z M 5.140625 -7.171875 C 4.660156 -6.703125 4.421875 -6.097656 4.421875 -5.359375 C 4.421875 -4.617188 4.648438 -4.015625 5.109375 -3.546875 C 5.566406 -3.078125 6.171875 -2.84375 6.921875 -2.84375 C 7.648438 -2.84375 8.25 -3.078125 8.71875 -3.546875 C 9.1875 -4.023438 9.421875 -4.628906 9.421875 -5.359375 C 9.421875 -6.097656 9.175781 -6.703125 8.6875 -7.171875 C 8.207031 -7.648438 7.617188 -7.890625 6.921875 -7.890625 C 6.210938 -7.890625 5.617188 -7.648438 5.140625 -7.171875 Z M 5.140625 -7.171875 "/></g></g></g><g fill="#000000" fill-opacity="1"><g transform="translate(140.59527, 186.596238)"><g><path d="M 12.109375 -4.859375 L 4.328125 -4.859375 C 4.328125 -4.097656 4.570312 -3.535156 5.0625 -3.171875 C 5.550781 -2.816406 6.082031 -2.640625 6.65625 -2.640625 C 7.25 -2.640625 7.71875 -2.71875 8.0625 -2.875 C 8.414062 -3.039062 8.816406 -3.359375 9.265625 -3.828125 L 11.953125 -2.484375 C 10.828125 -0.617188 8.96875 0.3125 6.375 0.3125 C 4.757812 0.3125 3.375 -0.238281 2.21875 -1.34375 C 1.0625 -2.457031 0.484375 -3.796875 0.484375 -5.359375 C 0.484375 -6.921875 1.0625 -8.257812 2.21875 -9.375 C 3.375 -10.488281 4.757812 -11.046875 6.375 -11.046875 C 8.082031 -11.046875 9.46875 -10.550781 10.53125 -9.5625 C 11.601562 -8.582031 12.140625 -7.179688 12.140625 -5.359375 C 12.140625 -5.109375 12.128906 -4.941406 12.109375 -4.859375 Z M 4.4375 -6.90625 L 8.515625 -6.90625 C 8.429688 -7.457031 8.210938 -7.882812 7.859375 -8.1875 C 7.503906 -8.488281 7.046875 -8.640625 6.484375 -8.640625 C 5.867188 -8.640625 5.378906 -8.476562 5.015625 -8.15625 C 4.660156 -7.832031 4.46875 -7.414062 4.4375 -6.90625 Z M 4.4375 -6.90625 "/></g></g></g><g fill="#000000" fill-opacity="1"><g transform="translate(151.247719, 186.596238)"><g><path d="M 3.96875 -10.734375 L 6.59375 -4.890625 L 9.203125 -10.734375 L 13.59375 -10.734375 L 7.84375 0 L 5.328125 0 L -0.421875 -10.734375 Z M 3.96875 -10.734375 "/></g></g></g><g fill="#000000" fill-opacity="1"><g transform="translate(162.465254, 186.596238)"><g><path d="M 12.109375 -4.859375 L 4.328125 -4.859375 C 4.328125 -4.097656 4.570312 -3.535156 5.0625 -3.171875 C 5.550781 -2.816406 6.082031 -2.640625 6.65625 -2.640625 C 7.25 -2.640625 7.71875 -2.71875 8.0625 -2.875 C 8.414062 -3.039062 8.816406 -3.359375 9.265625 -3.828125 L 11.953125 -2.484375 C 10.828125 -0.617188 8.96875 0.3125 6.375 0.3125 C 4.757812 0.3125 3.375 -0.238281 2.21875 -1.34375 C 1.0625 -2.457031 0.484375 -3.796875 0.484375 -5.359375 C 0.484375 -6.921875 1.0625 -8.257812 2.21875 -9.375 C 3.375 -10.488281 4.757812 -11.046875 6.375 -11.046875 C 8.082031 -11.046875 9.46875 -10.550781 10.53125 -9.5625 C 11.601562 -8.582031 12.140625 -7.179688 12.140625 -5.359375 C 12.140625 -5.109375 12.128906 -4.941406 12.109375 -4.859375 Z M 4.4375 -6.90625 L 8.515625 -6.90625 C 8.429688 -7.457031 8.210938 -7.882812 7.859375 -8.1875 C 7.503906 -8.488281 7.046875 -8.640625 6.484375 -8.640625 C 5.867188 -8.640625 5.378906 -8.476562 5.015625 -8.15625 C 4.660156 -7.832031 4.46875 -7.414062 4.4375 -6.90625 Z M 4.4375 -6.90625 "/></g></g></g><g fill="#000000" fill-opacity="1"><g transform="translate(173.117704, 186.596238)"><g><path d="M 1.25 0 L 1.25 -18 L 4.953125 -18 L 4.953125 0 Z M 1.25 0 "/></g></g></g><g fill="#000000" fill-opacity="1"><g transform="translate(177.365888, 186.596238)"><g><path d="M 2.265625 -1.265625 C 1.078125 -2.328125 0.484375 -3.6875 0.484375 -5.34375 C 0.484375 -7.007812 1.101562 -8.375 2.34375 -9.4375 C 3.582031 -10.507812 5.117188 -11.046875 6.953125 -11.046875 C 8.742188 -11.046875 10.253906 -10.507812 11.484375 -9.4375 C 12.722656 -8.363281 13.34375 -7.003906 13.34375 -5.359375 C 13.34375 -3.710938 12.738281 -2.351562 11.53125 -1.28125 C 10.332031 -0.21875 8.804688 0.3125 6.953125 0.3125 C 5.023438 0.3125 3.460938 -0.210938 2.265625 -1.265625 Z M 5.140625 -7.171875 C 4.660156 -6.703125 4.421875 -6.097656 4.421875 -5.359375 C 4.421875 -4.617188 4.648438 -4.015625 5.109375 -3.546875 C 5.566406 -3.078125 6.171875 -2.84375 6.921875 -2.84375 C 7.648438 -2.84375 8.25 -3.078125 8.71875 -3.546875 C 9.1875 -4.023438 9.421875 -4.628906 9.421875 -5.359375 C 9.421875 -6.097656 9.175781 -6.703125 8.6875 -7.171875 C 8.207031 -7.648438 7.617188 -7.890625 6.921875 -7.890625 C 6.210938 -7.890625 5.617188 -7.648438 5.140625 -7.171875 Z M 5.140625 -7.171875 "/></g></g></g><g fill="#000000" fill-opacity="1"><g transform="translate(189.232219, 186.596238)"><g><path d="M 12.296875 -9.40625 C 13.304688 -8.3125 13.8125 -6.96875 13.8125 -5.375 C 13.8125 -3.78125 13.304688 -2.429688 12.296875 -1.328125 C 11.296875 -0.234375 10.019531 0.3125 8.46875 0.3125 C 7.050781 0.3125 5.878906 -0.132812 4.953125 -1.03125 L 4.953125 5.4375 L 1.25 5.4375 L 1.25 -10.734375 L 4.921875 -10.734375 L 4.921875 -9.515625 L 4.953125 -9.515625 C 5.878906 -10.535156 7.050781 -11.046875 8.46875 -11.046875 C 10.019531 -11.046875 11.296875 -10.5 12.296875 -9.40625 Z M 9.15625 -3.546875 C 9.632812 -4.023438 9.875 -4.632812 9.875 -5.375 C 9.875 -6.113281 9.644531 -6.71875 9.1875 -7.1875 C 8.726562 -7.65625 8.117188 -7.890625 7.359375 -7.890625 C 6.640625 -7.890625 6.046875 -7.648438 5.578125 -7.171875 C 5.109375 -6.703125 4.875 -6.101562 4.875 -5.375 C 4.875 -4.632812 5.113281 -4.023438 5.59375 -3.546875 C 6.070312 -3.078125 6.660156 -2.84375 7.359375 -2.84375 C 8.078125 -2.84375 8.675781 -3.078125 9.15625 -3.546875 Z M 9.15625 -3.546875 "/></g></g></g><g fill="#000000" fill-opacity="1"><g transform="translate(201.558988, 186.596238)"><g><path d="M 12.296875 -9.40625 C 13.304688 -8.3125 13.8125 -6.96875 13.8125 -5.375 C 13.8125 -3.78125 13.304688 -2.429688 12.296875 -1.328125 C 11.296875 -0.234375 10.019531 0.3125 8.46875 0.3125 C 7.050781 0.3125 5.878906 -0.132812 4.953125 -1.03125 L 4.953125 5.4375 L 1.25 5.4375 L 1.25 -10.734375 L 4.921875 -10.734375 L 4.921875 -9.515625 L 4.953125 -9.515625 C 5.878906 -10.535156 7.050781 -11.046875 8.46875 -11.046875 C 10.019531 -11.046875 11.296875 -10.5 12.296875 -9.40625 Z M 9.15625 -3.546875 C 9.632812 -4.023438 9.875 -4.632812 9.875 -5.375 C 9.875 -6.113281 9.644531 -6.71875 9.1875 -7.1875 C 8.726562 -7.65625 8.117188 -7.890625 7.359375 -7.890625 C 6.640625 -7.890625 6.046875 -7.648438 5.578125 -7.171875 C 5.109375 -6.703125 4.875 -6.101562 4.875 -5.375 C 4.875 -4.632812 5.113281 -4.023438 5.59375 -3.546875 C 6.070312 -3.078125 6.660156 -2.84375 7.359375 -2.84375 C 8.078125 -2.84375 8.675781 -3.078125 9.15625 -3.546875 Z M 9.15625 -3.546875 "/></g></g></g><g fill="#000000" fill-opacity="1"><g transform="translate(213.885763, 186.596238)"><g><path d="M 12.109375 -4.859375 L 4.328125 -4.859375 C 4.328125 -4.097656 4.570312 -3.535156 5.0625 -3.171875 C 5.550781 -2.816406 6.082031 -2.640625 6.65625 -2.640625 C 7.25 -2.640625 7.71875 -2.71875 8.0625 -2.875 C 8.414062 -3.039062 8.816406 -3.359375 9.265625 -3.828125 L 11.953125 -2.484375 C 10.828125 -0.617188 8.96875 0.3125 6.375 0.3125 C 4.757812 0.3125 3.375 -0.238281 2.21875 -1.34375 C 1.0625 -2.457031 0.484375 -3.796875 0.484375 -5.359375 C 0.484375 -6.921875 1.0625 -8.257812 2.21875 -9.375 C 3.375 -10.488281 4.757812 -11.046875 6.375 -11.046875 C 8.082031 -11.046875 9.46875 -10.550781 10.53125 -9.5625 C 11.601562 -8.582031 12.140625 -7.179688 12.140625 -5.359375 C 12.140625 -5.109375 12.128906 -4.941406 12.109375 -4.859375 Z M 4.4375 -6.90625 L 8.515625 -6.90625 C 8.429688 -7.457031 8.210938 -7.882812 7.859375 -8.1875 C 7.503906 -8.488281 7.046875 -8.640625 6.484375 -8.640625 C 5.867188 -8.640625 5.378906 -8.476562 5.015625 -8.15625 C 4.660156 -7.832031 4.46875 -7.414062 4.4375 -6.90625 Z M 4.4375 -6.90625 "/></g></g></g><g fill="#000000" fill-opacity="1"><g transform="translate(224.538209, 186.596238)"><g><path d="M 4.75 -10.734375 L 4.75 -5.625 C 4.75 -4.5625 4.910156 -3.804688 5.234375 -3.359375 C 5.554688 -2.921875 6.097656 -2.703125 6.859375 -2.703125 C 7.628906 -2.703125 8.171875 -2.921875 8.484375 -3.359375 C 8.804688 -3.804688 8.96875 -4.5625 8.96875 -5.625 L 8.96875 -10.734375 L 12.671875 -10.734375 L 12.671875 -4.734375 C 12.671875 -2.941406 12.207031 -1.648438 11.28125 -0.859375 C 10.351562 -0.078125 8.878906 0.3125 6.859375 0.3125 C 4.835938 0.3125 3.363281 -0.078125 2.4375 -0.859375 C 1.507812 -1.648438 1.046875 -2.941406 1.046875 -4.734375 L 1.046875 -10.734375 Z M 4.75 -10.734375 "/></g></g></g><g fill="#000000" fill-opacity="1"><g transform="translate(236.299892, 186.596238)"><g><path d="M 1.25 0 L 1.25 -10.734375 L 4.953125 -10.734375 L 4.953125 -9.1875 L 5 -9.1875 C 5.03125 -9.238281 5.078125 -9.304688 5.140625 -9.390625 C 5.203125 -9.472656 5.335938 -9.617188 5.546875 -9.828125 C 5.753906 -10.035156 5.972656 -10.222656 6.203125 -10.390625 C 6.441406 -10.566406 6.75 -10.71875 7.125 -10.84375 C 7.507812 -10.976562 7.894531 -11.046875 8.28125 -11.046875 C 8.6875 -11.046875 9.082031 -10.988281 9.46875 -10.875 C 9.863281 -10.769531 10.148438 -10.660156 10.328125 -10.546875 L 10.625 -10.375 L 9.078125 -7.234375 C 8.617188 -7.628906 7.976562 -7.828125 7.15625 -7.828125 C 6.707031 -7.828125 6.320312 -7.726562 6 -7.53125 C 5.675781 -7.332031 5.445312 -7.09375 5.3125 -6.8125 C 5.1875 -6.539062 5.09375 -6.304688 5.03125 -6.109375 C 4.976562 -5.910156 4.953125 -5.757812 4.953125 -5.65625 L 4.953125 0 Z M 1.25 0 "/></g></g></g><g fill="#000000" fill-opacity="1"><g transform="translate(175.970926, 200.916082)"><g><path d="M 1.046875 -3.53125 L 1.046875 -2.328125 L 2.46875 -2.328125 C 2.550781 -2.328125 2.617188 -2.300781 2.671875 -2.25 C 2.722656 -2.195312 2.75 -2.128906 2.75 -2.046875 C 2.75 -1.984375 2.722656 -1.925781 2.671875 -1.875 C 2.617188 -1.820312 2.550781 -1.796875 2.46875 -1.796875 L 1.046875 -1.796875 L 1.046875 -0.28125 C 1.046875 -0.195312 1.015625 -0.128906 0.953125 -0.078125 C 0.898438 -0.0234375 0.835938 0 0.765625 0 C 0.679688 0 0.613281 -0.0234375 0.5625 -0.078125 C 0.507812 -0.128906 0.484375 -0.195312 0.484375 -0.28125 L 0.484375 -3.78125 C 0.484375 -3.851562 0.507812 -3.914062 0.5625 -3.96875 C 0.613281 -4.03125 0.679688 -4.0625 0.765625 -4.0625 L 2.734375 -4.0625 C 2.816406 -4.0625 2.882812 -4.035156 2.9375 -3.984375 C 2.988281 -3.929688 3.015625 -3.863281 3.015625 -3.78125 C 3.015625 -3.71875 2.988281 -3.660156 2.9375 -3.609375 C 2.882812 -3.554688 2.816406 -3.53125 2.734375 -3.53125 Z M 1.046875 -3.53125 "/></g></g></g><g fill="#000000" fill-opacity="1"><g transform="translate(183.01897, 200.916082)"><g><path d="M 1.921875 -3.109375 C 2.023438 -3.109375 2.113281 -3.082031 2.1875 -3.03125 C 2.257812 -2.976562 2.296875 -2.910156 2.296875 -2.828125 C 2.296875 -2.742188 2.269531 -2.675781 2.21875 -2.625 C 2.175781 -2.570312 2.117188 -2.546875 2.046875 -2.546875 C 2.015625 -2.546875 1.960938 -2.554688 1.890625 -2.578125 C 1.804688 -2.609375 1.742188 -2.625 1.703125 -2.625 C 1.578125 -2.625 1.457031 -2.582031 1.34375 -2.5 C 1.226562 -2.414062 1.132812 -2.300781 1.0625 -2.15625 C 1 -2.007812 0.96875 -1.847656 0.96875 -1.671875 L 0.96875 -0.28125 C 0.96875 -0.195312 0.941406 -0.128906 0.890625 -0.078125 C 0.835938 -0.0234375 0.769531 0 0.6875 0 C 0.601562 0 0.535156 -0.0234375 0.484375 -0.078125 C 0.429688 -0.128906 0.40625 -0.195312 0.40625 -0.28125 L 0.40625 -2.765625 C 0.40625 -2.835938 0.429688 -2.898438 0.484375 -2.953125 C 0.535156 -3.003906 0.601562 -3.03125 0.6875 -3.03125 C 0.769531 -3.03125 0.835938 -3.003906 0.890625 -2.953125 C 0.941406 -2.898438 0.96875 -2.835938 0.96875 -2.765625 L 0.96875 -2.46875 C 1.050781 -2.65625 1.175781 -2.804688 1.34375 -2.921875 C 1.507812 -3.035156 1.703125 -3.097656 1.921875 -3.109375 Z M 1.921875 -3.109375 "/></g></g></g><g fill="#000000" fill-opacity="1"><g transform="translate(189.192094, 200.916082)"><g><path d="M 3.28125 -1.515625 C 3.28125 -1.210938 3.210938 -0.941406 3.078125 -0.703125 C 2.941406 -0.460938 2.753906 -0.273438 2.515625 -0.140625 C 2.285156 -0.00390625 2.03125 0.0625 1.75 0.0625 C 1.46875 0.0625 1.207031 -0.00390625 0.96875 -0.140625 C 0.738281 -0.273438 0.554688 -0.460938 0.421875 -0.703125 C 0.285156 -0.941406 0.21875 -1.210938 0.21875 -1.515625 C 0.21875 -1.816406 0.285156 -2.085938 0.421875 -2.328125 C 0.554688 -2.578125 0.738281 -2.769531 0.96875 -2.90625 C 1.207031 -3.039062 1.46875 -3.109375 1.75 -3.109375 C 2.03125 -3.109375 2.285156 -3.039062 2.515625 -2.90625 C 2.753906 -2.769531 2.941406 -2.578125 3.078125 -2.328125 C 3.210938 -2.085938 3.28125 -1.816406 3.28125 -1.515625 Z M 2.734375 -1.515625 C 2.734375 -1.722656 2.6875 -1.910156 2.59375 -2.078125 C 2.507812 -2.242188 2.394531 -2.367188 2.25 -2.453125 C 2.101562 -2.546875 1.9375 -2.59375 1.75 -2.59375 C 1.570312 -2.59375 1.40625 -2.546875 1.25 -2.453125 C 1.101562 -2.367188 0.988281 -2.242188 0.90625 -2.078125 C 0.820312 -1.910156 0.78125 -1.722656 0.78125 -1.515625 C 0.78125 -1.316406 0.820312 -1.132812 0.90625 -0.96875 C 0.988281 -0.800781 1.101562 -0.671875 1.25 -0.578125 C 1.40625 -0.492188 1.570312 -0.453125 1.75 -0.453125 C 1.9375 -0.453125 2.101562 -0.492188 2.25 -0.578125 C 2.394531 -0.671875 2.507812 -0.800781 2.59375 -0.96875 C 2.6875 -1.132812 2.734375 -1.316406 2.734375 -1.515625 Z M 2.734375 -1.515625 "/></g></g></g><g fill="#000000" fill-opacity="1"><g transform="translate(196.483493, 200.916082)"><g><path d="M 1.953125 -3.109375 C 2.648438 -3.109375 3 -2.691406 3 -1.859375 L 3 -0.28125 C 3 -0.195312 2.972656 -0.128906 2.921875 -0.078125 C 2.867188 -0.0234375 2.800781 0 2.71875 0 C 2.644531 0 2.582031 -0.0234375 2.53125 -0.078125 C 2.476562 -0.128906 2.453125 -0.195312 2.453125 -0.28125 L 2.453125 -1.84375 C 2.453125 -2.070312 2.398438 -2.253906 2.296875 -2.390625 C 2.191406 -2.523438 2.019531 -2.59375 1.78125 -2.59375 C 1.625 -2.59375 1.484375 -2.554688 1.359375 -2.484375 C 1.234375 -2.421875 1.132812 -2.332031 1.0625 -2.21875 C 1 -2.101562 0.96875 -1.976562 0.96875 -1.84375 L 0.96875 -0.28125 C 0.96875 -0.195312 0.941406 -0.128906 0.890625 -0.078125 C 0.835938 -0.0234375 0.769531 0 0.6875 0 C 0.601562 0 0.535156 -0.0234375 0.484375 -0.078125 C 0.429688 -0.128906 0.40625 -0.195312 0.40625 -0.28125 L 0.40625 -2.765625 C 0.40625 -2.835938 0.429688 -2.898438 0.484375 -2.953125 C 0.535156 -3.003906 0.601562 -3.03125 0.6875 -3.03125 C 0.769531 -3.03125 0.835938 -3.003906 0.890625 -2.953125 C 0.941406 -2.898438 0.96875 -2.835938 0.96875 -2.765625 L 0.96875 -2.5625 C 1.0625 -2.707031 1.195312 -2.832031 1.375 -2.9375 C 1.5625 -3.050781 1.753906 -3.109375 1.953125 -3.109375 Z M 1.953125 -3.109375 "/></g></g></g><g fill="#000000" fill-opacity="1"><g transform="translate(203.676389, 200.916082)"><g><path d="M 1.234375 -2.5 L 1.234375 -0.765625 C 1.234375 -0.578125 1.320312 -0.484375 1.5 -0.484375 C 1.519531 -0.484375 1.550781 -0.488281 1.59375 -0.5 C 1.644531 -0.507812 1.6875 -0.515625 1.71875 -0.515625 C 1.769531 -0.515625 1.8125 -0.492188 1.84375 -0.453125 C 1.875 -0.410156 1.890625 -0.359375 1.890625 -0.296875 C 1.890625 -0.210938 1.84375 -0.140625 1.75 -0.078125 C 1.664062 -0.0234375 1.5625 0 1.4375 0 C 1.3125 0 1.195312 -0.0078125 1.09375 -0.03125 C 0.988281 -0.0625 0.894531 -0.128906 0.8125 -0.234375 C 0.726562 -0.347656 0.6875 -0.519531 0.6875 -0.75 L 0.6875 -2.5 L 0.34375 -2.5 C 0.269531 -2.5 0.207031 -2.519531 0.15625 -2.5625 C 0.113281 -2.613281 0.09375 -2.675781 0.09375 -2.75 C 0.09375 -2.820312 0.113281 -2.878906 0.15625 -2.921875 C 0.207031 -2.972656 0.269531 -3 0.34375 -3 L 0.6875 -3 L 0.6875 -3.484375 C 0.6875 -3.566406 0.710938 -3.632812 0.765625 -3.6875 C 0.816406 -3.738281 0.882812 -3.765625 0.96875 -3.765625 C 1.039062 -3.765625 1.101562 -3.738281 1.15625 -3.6875 C 1.207031 -3.632812 1.234375 -3.566406 1.234375 -3.484375 L 1.234375 -3 L 1.71875 -3 C 1.789062 -3 1.847656 -2.972656 1.890625 -2.921875 C 1.941406 -2.878906 1.96875 -2.820312 1.96875 -2.75 C 1.96875 -2.675781 1.941406 -2.613281 1.890625 -2.5625 C 1.847656 -2.519531 1.789062 -2.5 1.71875 -2.5 Z M 1.234375 -2.5 "/></g></g></g><g fill="#000000" fill-opacity="1"><g transform="translate(209.658306, 200.916082)"><g><path d="M 0.578125 -1.390625 C 0.503906 -1.390625 0.441406 -1.414062 0.390625 -1.46875 C 0.335938 -1.519531 0.3125 -1.585938 0.3125 -1.671875 C 0.3125 -1.742188 0.335938 -1.804688 0.390625 -1.859375 C 0.441406 -1.910156 0.503906 -1.9375 0.578125 -1.9375 L 1.703125 -1.9375 C 1.773438 -1.9375 1.835938 -1.910156 1.890625 -1.859375 C 1.941406 -1.804688 1.96875 -1.738281 1.96875 -1.65625 C 1.96875 -1.582031 1.941406 -1.519531 1.890625 -1.46875 C 1.835938 -1.414062 1.773438 -1.390625 1.703125 -1.390625 Z M 0.578125 -1.390625 "/></g></g></g><g fill="#000000" fill-opacity="1"><g transform="translate(215.721339, 200.916082)"><g><path d="M 3.078125 -1.640625 C 3.078125 -1.566406 3.046875 -1.503906 2.984375 -1.453125 C 2.929688 -1.410156 2.867188 -1.390625 2.796875 -1.390625 L 0.765625 -1.390625 C 0.785156 -1.109375 0.890625 -0.878906 1.078125 -0.703125 C 1.265625 -0.535156 1.492188 -0.453125 1.765625 -0.453125 C 1.953125 -0.453125 2.101562 -0.476562 2.21875 -0.53125 C 2.332031 -0.582031 2.4375 -0.648438 2.53125 -0.734375 C 2.582031 -0.773438 2.640625 -0.796875 2.703125 -0.796875 C 2.765625 -0.796875 2.816406 -0.769531 2.859375 -0.71875 C 2.898438 -0.675781 2.921875 -0.625 2.921875 -0.5625 C 2.921875 -0.476562 2.882812 -0.40625 2.8125 -0.34375 C 2.695312 -0.226562 2.546875 -0.128906 2.359375 -0.046875 C 2.179688 0.0234375 1.992188 0.0625 1.796875 0.0625 C 1.484375 0.0625 1.207031 -0.00390625 0.96875 -0.140625 C 0.726562 -0.273438 0.539062 -0.457031 0.40625 -0.6875 C 0.28125 -0.925781 0.21875 -1.191406 0.21875 -1.484375 C 0.21875 -1.816406 0.285156 -2.101562 0.421875 -2.34375 C 0.554688 -2.59375 0.734375 -2.78125 0.953125 -2.90625 C 1.171875 -3.039062 1.40625 -3.109375 1.65625 -3.109375 C 1.90625 -3.109375 2.132812 -3.039062 2.34375 -2.90625 C 2.5625 -2.78125 2.738281 -2.601562 2.875 -2.375 C 3.007812 -2.15625 3.078125 -1.910156 3.078125 -1.640625 Z M 1.65625 -2.59375 C 1.4375 -2.59375 1.25 -2.53125 1.09375 -2.40625 C 0.9375 -2.289062 0.832031 -2.101562 0.78125 -1.84375 L 2.5 -1.84375 L 2.5 -1.890625 C 2.476562 -2.097656 2.382812 -2.265625 2.21875 -2.390625 C 2.050781 -2.523438 1.863281 -2.59375 1.65625 -2.59375 Z M 1.65625 -2.59375 "/></g></g></g><g fill="#000000" fill-opacity="1"><g transform="translate(222.804144, 200.916082)"><g><path d="M 1.953125 -3.109375 C 2.648438 -3.109375 3 -2.691406 3 -1.859375 L 3 -0.28125 C 3 -0.195312 2.972656 -0.128906 2.921875 -0.078125 C 2.867188 -0.0234375 2.800781 0 2.71875 0 C 2.644531 0 2.582031 -0.0234375 2.53125 -0.078125 C 2.476562 -0.128906 2.453125 -0.195312 2.453125 -0.28125 L 2.453125 -1.84375 C 2.453125 -2.070312 2.398438 -2.253906 2.296875 -2.390625 C 2.191406 -2.523438 2.019531 -2.59375 1.78125 -2.59375 C 1.625 -2.59375 1.484375 -2.554688 1.359375 -2.484375 C 1.234375 -2.421875 1.132812 -2.332031 1.0625 -2.21875 C 1 -2.101562 0.96875 -1.976562 0.96875 -1.84375 L 0.96875 -0.28125 C 0.96875 -0.195312 0.941406 -0.128906 0.890625 -0.078125 C 0.835938 -0.0234375 0.769531 0 0.6875 0 C 0.601562 0 0.535156 -0.0234375 0.484375 -0.078125 C 0.429688 -0.128906 0.40625 -0.195312 0.40625 -0.28125 L 0.40625 -2.765625 C 0.40625 -2.835938 0.429688 -2.898438 0.484375 -2.953125 C 0.535156 -3.003906 0.601562 -3.03125 0.6875 -3.03125 C 0.769531 -3.03125 0.835938 -3.003906 0.890625 -2.953125 C 0.941406 -2.898438 0.96875 -2.835938 0.96875 -2.765625 L 0.96875 -2.5625 C 1.0625 -2.707031 1.195312 -2.832031 1.375 -2.9375 C 1.5625 -3.050781 1.753906 -3.109375 1.953125 -3.109375 Z M 1.953125 -3.109375 "/></g></g></g><g fill="#000000" fill-opacity="1"><g transform="translate(229.99704, 200.916082)"><g><path d="M 2.875 -4.296875 C 2.957031 -4.296875 3.023438 -4.269531 3.078125 -4.21875 C 3.128906 -4.164062 3.15625 -4.097656 3.15625 -4.015625 L 3.15625 -0.28125 C 3.15625 -0.195312 3.128906 -0.128906 3.078125 -0.078125 C 3.023438 -0.0234375 2.957031 0 2.875 0 C 2.789062 0 2.722656 -0.0234375 2.671875 -0.078125 C 2.628906 -0.128906 2.609375 -0.195312 2.609375 -0.28125 L 2.609375 -0.4375 C 2.503906 -0.300781 2.363281 -0.179688 2.1875 -0.078125 C 2.019531 0.015625 1.832031 0.0625 1.625 0.0625 C 1.363281 0.0625 1.125 -0.00390625 0.90625 -0.140625 C 0.695312 -0.273438 0.53125 -0.460938 0.40625 -0.703125 C 0.28125 -0.953125 0.21875 -1.226562 0.21875 -1.53125 C 0.21875 -1.832031 0.28125 -2.101562 0.40625 -2.34375 C 0.53125 -2.582031 0.695312 -2.769531 0.90625 -2.90625 C 1.125 -3.039062 1.359375 -3.109375 1.609375 -3.109375 C 1.816406 -3.109375 2.003906 -3.066406 2.171875 -2.984375 C 2.347656 -2.898438 2.492188 -2.789062 2.609375 -2.65625 L 2.609375 -4.015625 C 2.609375 -4.097656 2.628906 -4.164062 2.671875 -4.21875 C 2.722656 -4.269531 2.789062 -4.296875 2.875 -4.296875 Z M 1.6875 -0.453125 C 1.875 -0.453125 2.035156 -0.5 2.171875 -0.59375 C 2.316406 -0.6875 2.425781 -0.8125 2.5 -0.96875 C 2.582031 -1.132812 2.625 -1.320312 2.625 -1.53125 C 2.625 -1.726562 2.582031 -1.90625 2.5 -2.0625 C 2.425781 -2.226562 2.316406 -2.359375 2.171875 -2.453125 C 2.035156 -2.546875 1.875 -2.59375 1.6875 -2.59375 C 1.507812 -2.59375 1.347656 -2.546875 1.203125 -2.453125 C 1.066406 -2.359375 0.957031 -2.226562 0.875 -2.0625 C 0.800781 -1.90625 0.765625 -1.726562 0.765625 -1.53125 C 0.765625 -1.320312 0.800781 -1.132812 0.875 -0.96875 C 0.957031 -0.8125 1.066406 -0.6875 1.203125 -0.59375 C 1.347656 -0.5 1.507812 -0.453125 1.6875 -0.453125 Z M 1.6875 -0.453125 "/></g></g></g><g fill="#000000" fill-opacity="1"><g transform="translate(179.913728, 264.880177)"><g><path d="M 0.234375 -0.46875 C 0.203125 -0.53125 0.1875 -0.582031 0.1875 -0.625 C 0.1875 -0.707031 0.226562 -0.773438 0.3125 -0.828125 C 0.34375 -0.859375 0.382812 -0.875 0.4375 -0.875 C 0.507812 -0.875 0.570312 -0.84375 0.625 -0.78125 C 0.75 -0.644531 0.875 -0.546875 1 -0.484375 C 1.132812 -0.421875 1.296875 -0.390625 1.484375 -0.390625 C 1.628906 -0.390625 1.757812 -0.421875 1.875 -0.484375 C 1.988281 -0.546875 2.046875 -0.648438 2.046875 -0.796875 C 2.046875 -0.929688 1.988281 -1.03125 1.875 -1.09375 C 1.757812 -1.164062 1.59375 -1.234375 1.375 -1.296875 C 1.15625 -1.347656 0.972656 -1.40625 0.828125 -1.46875 C 0.679688 -1.539062 0.554688 -1.632812 0.453125 -1.75 C 0.359375 -1.875 0.3125 -2.035156 0.3125 -2.234375 C 0.3125 -2.410156 0.359375 -2.5625 0.453125 -2.6875 C 0.554688 -2.820312 0.691406 -2.925781 0.859375 -3 C 1.023438 -3.070312 1.203125 -3.109375 1.390625 -3.109375 C 1.578125 -3.109375 1.757812 -3.070312 1.9375 -3 C 2.125 -2.9375 2.28125 -2.832031 2.40625 -2.6875 C 2.445312 -2.632812 2.46875 -2.578125 2.46875 -2.515625 C 2.46875 -2.453125 2.4375 -2.394531 2.375 -2.34375 C 2.332031 -2.300781 2.285156 -2.28125 2.234375 -2.28125 C 2.160156 -2.28125 2.101562 -2.304688 2.0625 -2.359375 C 1.976562 -2.453125 1.878906 -2.519531 1.765625 -2.5625 C 1.648438 -2.613281 1.519531 -2.640625 1.375 -2.640625 C 1.226562 -2.640625 1.101562 -2.609375 1 -2.546875 C 0.894531 -2.492188 0.84375 -2.394531 0.84375 -2.25 C 0.851562 -2.113281 0.910156 -2.007812 1.015625 -1.9375 C 1.128906 -1.875 1.304688 -1.8125 1.546875 -1.75 C 1.753906 -1.695312 1.925781 -1.640625 2.0625 -1.578125 C 2.195312 -1.515625 2.304688 -1.421875 2.390625 -1.296875 C 2.484375 -1.179688 2.53125 -1.023438 2.53125 -0.828125 C 2.53125 -0.648438 2.476562 -0.492188 2.375 -0.359375 C 2.269531 -0.222656 2.132812 -0.117188 1.96875 -0.046875 C 1.800781 0.0234375 1.625 0.0625 1.4375 0.0625 C 1.195312 0.0625 0.972656 0.0195312 0.765625 -0.0625 C 0.554688 -0.15625 0.378906 -0.289062 0.234375 -0.46875 Z M 0.234375 -0.46875 "/></g></g></g><g fill="#000000" fill-opacity="1"><g transform="translate(183.025416, 264.880177)"><g><path d="M 0.9375 -0.28125 C 0.9375 -0.195312 0.910156 -0.128906 0.859375 -0.078125 C 0.804688 -0.0234375 0.738281 0 0.65625 0 C 0.582031 0 0.515625 -0.0234375 0.453125 -0.078125 C 0.398438 -0.128906 0.375 -0.195312 0.375 -0.28125 L 0.375 -2.78125 C 0.375 -2.863281 0.398438 -2.929688 0.453125 -2.984375 C 0.515625 -3.035156 0.582031 -3.0625 0.65625 -3.0625 C 0.738281 -3.0625 0.804688 -3.035156 0.859375 -2.984375 C 0.910156 -2.929688 0.9375 -2.863281 0.9375 -2.78125 Z M 0.65625 -3.453125 C 0.550781 -3.453125 0.472656 -3.472656 0.421875 -3.515625 C 0.367188 -3.554688 0.34375 -3.617188 0.34375 -3.703125 L 0.34375 -3.796875 C 0.34375 -3.890625 0.367188 -3.953125 0.421875 -3.984375 C 0.472656 -4.023438 0.554688 -4.046875 0.671875 -4.046875 C 0.773438 -4.046875 0.847656 -4.023438 0.890625 -3.984375 C 0.941406 -3.953125 0.96875 -3.890625 0.96875 -3.796875 L 0.96875 -3.703125 C 0.96875 -3.609375 0.941406 -3.539062 0.890625 -3.5 C 0.847656 -3.46875 0.769531 -3.453125 0.65625 -3.453125 Z M 0.65625 -3.453125 "/></g></g></g><g fill="#000000" fill-opacity="1"><g transform="translate(184.688556, 264.880177)"><g><path d="M 1.953125 -3.109375 C 2.648438 -3.109375 3 -2.691406 3 -1.859375 L 3 -0.28125 C 3 -0.195312 2.972656 -0.128906 2.921875 -0.078125 C 2.867188 -0.0234375 2.800781 0 2.71875 0 C 2.644531 0 2.582031 -0.0234375 2.53125 -0.078125 C 2.476562 -0.128906 2.453125 -0.195312 2.453125 -0.28125 L 2.453125 -1.84375 C 2.453125 -2.070312 2.398438 -2.253906 2.296875 -2.390625 C 2.191406 -2.523438 2.019531 -2.59375 1.78125 -2.59375 C 1.625 -2.59375 1.484375 -2.554688 1.359375 -2.484375 C 1.234375 -2.421875 1.132812 -2.332031 1.0625 -2.21875 C 1 -2.101562 0.96875 -1.976562 0.96875 -1.84375 L 0.96875 -0.28125 C 0.96875 -0.195312 0.941406 -0.128906 0.890625 -0.078125 C 0.835938 -0.0234375 0.769531 0 0.6875 0 C 0.601562 0 0.535156 -0.0234375 0.484375 -0.078125 C 0.429688 -0.128906 0.40625 -0.195312 0.40625 -0.28125 L 0.40625 -2.765625 C 0.40625 -2.835938 0.429688 -2.898438 0.484375 -2.953125 C 0.535156 -3.003906 0.601562 -3.03125 0.6875 -3.03125 C 0.769531 -3.03125 0.835938 -3.003906 0.890625 -2.953125 C 0.941406 -2.898438 0.96875 -2.835938 0.96875 -2.765625 L 0.96875 -2.5625 C 1.0625 -2.707031 1.195312 -2.832031 1.375 -2.9375 C 1.5625 -3.050781 1.753906 -3.109375 1.953125 -3.109375 Z M 1.953125 -3.109375 "/></g></g></g><g fill="#000000" fill-opacity="1"><g transform="translate(188.449188, 264.880177)"><g><path d="M 1.734375 -3.109375 C 2.035156 -3.109375 2.285156 -3.054688 2.484375 -2.953125 C 2.691406 -2.859375 2.796875 -2.738281 2.796875 -2.59375 C 2.796875 -2.53125 2.773438 -2.472656 2.734375 -2.421875 C 2.691406 -2.367188 2.640625 -2.34375 2.578125 -2.34375 C 2.523438 -2.34375 2.484375 -2.347656 2.453125 -2.359375 C 2.421875 -2.367188 2.382812 -2.394531 2.34375 -2.4375 C 2.3125 -2.457031 2.269531 -2.484375 2.21875 -2.515625 C 2.175781 -2.535156 2.113281 -2.550781 2.03125 -2.5625 C 1.945312 -2.582031 1.867188 -2.59375 1.796875 -2.59375 C 1.597656 -2.59375 1.421875 -2.546875 1.265625 -2.453125 C 1.109375 -2.359375 0.988281 -2.226562 0.90625 -2.0625 C 0.820312 -1.90625 0.78125 -1.726562 0.78125 -1.53125 C 0.78125 -1.320312 0.820312 -1.132812 0.90625 -0.96875 C 0.988281 -0.8125 1.101562 -0.6875 1.25 -0.59375 C 1.40625 -0.5 1.578125 -0.453125 1.765625 -0.453125 C 1.960938 -0.453125 2.125 -0.484375 2.25 -0.546875 C 2.28125 -0.554688 2.316406 -0.582031 2.359375 -0.625 C 2.398438 -0.65625 2.4375 -0.675781 2.46875 -0.6875 C 2.5 -0.707031 2.535156 -0.71875 2.578125 -0.71875 C 2.648438 -0.71875 2.707031 -0.691406 2.75 -0.640625 C 2.800781 -0.585938 2.828125 -0.523438 2.828125 -0.453125 C 2.828125 -0.367188 2.773438 -0.285156 2.671875 -0.203125 C 2.566406 -0.128906 2.425781 -0.0664062 2.25 -0.015625 C 2.082031 0.0351562 1.898438 0.0625 1.703125 0.0625 C 1.410156 0.0625 1.148438 -0.00390625 0.921875 -0.140625 C 0.703125 -0.285156 0.53125 -0.476562 0.40625 -0.71875 C 0.28125 -0.957031 0.21875 -1.226562 0.21875 -1.53125 C 0.21875 -1.820312 0.28125 -2.085938 0.40625 -2.328125 C 0.539062 -2.578125 0.722656 -2.769531 0.953125 -2.90625 C 1.179688 -3.039062 1.441406 -3.109375 1.734375 -3.109375 Z M 1.734375 -3.109375 "/></g></g></g><g fill="#000000" fill-opacity="1"><g transform="translate(191.775257, 264.880177)"><g><path d="M 3.078125 -1.640625 C 3.078125 -1.566406 3.046875 -1.503906 2.984375 -1.453125 C 2.929688 -1.410156 2.867188 -1.390625 2.796875 -1.390625 L 0.765625 -1.390625 C 0.785156 -1.109375 0.890625 -0.878906 1.078125 -0.703125 C 1.265625 -0.535156 1.492188 -0.453125 1.765625 -0.453125 C 1.953125 -0.453125 2.101562 -0.476562 2.21875 -0.53125 C 2.332031 -0.582031 2.4375 -0.648438 2.53125 -0.734375 C 2.582031 -0.773438 2.640625 -0.796875 2.703125 -0.796875 C 2.765625 -0.796875 2.816406 -0.769531 2.859375 -0.71875 C 2.898438 -0.675781 2.921875 -0.625 2.921875 -0.5625 C 2.921875 -0.476562 2.882812 -0.40625 2.8125 -0.34375 C 2.695312 -0.226562 2.546875 -0.128906 2.359375 -0.046875 C 2.179688 0.0234375 1.992188 0.0625 1.796875 0.0625 C 1.484375 0.0625 1.207031 -0.00390625 0.96875 -0.140625 C 0.726562 -0.273438 0.539062 -0.457031 0.40625 -0.6875 C 0.28125 -0.925781 0.21875 -1.191406 0.21875 -1.484375 C 0.21875 -1.816406 0.285156 -2.101562 0.421875 -2.34375 C 0.554688 -2.59375 0.734375 -2.78125 0.953125 -2.90625 C 1.171875 -3.039062 1.40625 -3.109375 1.65625 -3.109375 C 1.90625 -3.109375 2.132812 -3.039062 2.34375 -2.90625 C 2.5625 -2.78125 2.738281 -2.601562 2.875 -2.375 C 3.007812 -2.15625 3.078125 -1.910156 3.078125 -1.640625 Z M 1.65625 -2.59375 C 1.4375 -2.59375 1.25 -2.53125 1.09375 -2.40625 C 0.9375 -2.289062 0.832031 -2.101562 0.78125 -1.84375 L 2.5 -1.84375 L 2.5 -1.890625 C 2.476562 -2.097656 2.382812 -2.265625 2.21875 -2.390625 C 2.050781 -2.523438 1.863281 -2.59375 1.65625 -2.59375 Z M 1.65625 -2.59375 "/></g></g></g><g fill="#000000" fill-opacity="1"><g transform="translate(180.526765, 270.364552)"><g><path d="M 2.71875 -0.515625 C 2.789062 -0.515625 2.847656 -0.488281 2.890625 -0.4375 C 2.941406 -0.382812 2.96875 -0.320312 2.96875 -0.25 C 2.96875 -0.175781 2.941406 -0.113281 2.890625 -0.0625 C 2.847656 -0.0195312 2.789062 0 2.71875 0 L 0.65625 0 C 0.582031 0 0.519531 -0.0195312 0.46875 -0.0625 C 0.414062 -0.113281 0.390625 -0.179688 0.390625 -0.265625 C 0.390625 -0.335938 0.414062 -0.40625 0.46875 -0.46875 L 1.765625 -1.859375 C 2.117188 -2.242188 2.296875 -2.582031 2.296875 -2.875 C 2.296875 -3.082031 2.226562 -3.253906 2.09375 -3.390625 C 1.957031 -3.535156 1.785156 -3.609375 1.578125 -3.609375 C 1.429688 -3.609375 1.289062 -3.566406 1.15625 -3.484375 C 1.03125 -3.398438 0.925781 -3.285156 0.84375 -3.140625 C 0.78125 -3.054688 0.707031 -3.015625 0.625 -3.015625 C 0.550781 -3.015625 0.484375 -3.039062 0.421875 -3.09375 C 0.367188 -3.144531 0.34375 -3.203125 0.34375 -3.265625 C 0.34375 -3.304688 0.359375 -3.347656 0.390625 -3.390625 C 0.421875 -3.441406 0.460938 -3.5 0.515625 -3.5625 C 0.640625 -3.726562 0.800781 -3.859375 1 -3.953125 C 1.195312 -4.054688 1.394531 -4.109375 1.59375 -4.109375 C 1.851562 -4.109375 2.078125 -4.054688 2.265625 -3.953125 C 2.460938 -3.847656 2.609375 -3.707031 2.703125 -3.53125 C 2.804688 -3.351562 2.859375 -3.144531 2.859375 -2.90625 C 2.859375 -2.457031 2.617188 -1.976562 2.140625 -1.46875 L 1.265625 -0.515625 Z M 2.71875 -0.515625 "/></g></g></g><g fill="#000000" fill-opacity="1"><g transform="translate(184.055628, 270.364552)"><g><path d="M 1.75 0.0625 C 1.4375 0.0625 1.164062 -0.0234375 0.9375 -0.203125 C 0.71875 -0.378906 0.550781 -0.625 0.4375 -0.9375 C 0.320312 -1.257812 0.265625 -1.625 0.265625 -2.03125 C 0.265625 -2.4375 0.320312 -2.796875 0.4375 -3.109375 C 0.550781 -3.421875 0.71875 -3.664062 0.9375 -3.84375 C 1.164062 -4.019531 1.4375 -4.109375 1.75 -4.109375 C 2.070312 -4.109375 2.34375 -4.019531 2.5625 -3.84375 C 2.789062 -3.664062 2.960938 -3.421875 3.078125 -3.109375 C 3.191406 -2.796875 3.25 -2.4375 3.25 -2.03125 C 3.25 -1.625 3.191406 -1.257812 3.078125 -0.9375 C 2.960938 -0.625 2.789062 -0.378906 2.5625 -0.203125 C 2.34375 -0.0234375 2.070312 0.0625 1.75 0.0625 Z M 1.75 -0.5 C 2.03125 -0.5 2.25 -0.628906 2.40625 -0.890625 C 2.570312 -1.160156 2.65625 -1.539062 2.65625 -2.03125 C 2.65625 -2.519531 2.570312 -2.894531 2.40625 -3.15625 C 2.25 -3.425781 2.03125 -3.5625 1.75 -3.5625 C 1.46875 -3.5625 1.25 -3.425781 1.09375 -3.15625 C 0.9375 -2.894531 0.859375 -2.519531 0.859375 -2.03125 C 0.859375 -1.539062 0.9375 -1.160156 1.09375 -0.890625 C 1.25 -0.628906 1.46875 -0.5 1.75 -0.5 Z M 1.75 -0.5 "/></g></g></g><g fill="#000000" fill-opacity="1"><g transform="translate(187.914764, 270.364552)"><g><path d="M 2.71875 -0.515625 C 2.789062 -0.515625 2.847656 -0.488281 2.890625 -0.4375 C 2.941406 -0.382812 2.96875 -0.320312 2.96875 -0.25 C 2.96875 -0.175781 2.941406 -0.113281 2.890625 -0.0625 C 2.847656 -0.0195312 2.789062 0 2.71875 0 L 0.65625 0 C 0.582031 0 0.519531 -0.0195312 0.46875 -0.0625 C 0.414062 -0.113281 0.390625 -0.179688 0.390625 -0.265625 C 0.390625 -0.335938 0.414062 -0.40625 0.46875 -0.46875 L 1.765625 -1.859375 C 2.117188 -2.242188 2.296875 -2.582031 2.296875 -2.875 C 2.296875 -3.082031 2.226562 -3.253906 2.09375 -3.390625 C 1.957031 -3.535156 1.785156 -3.609375 1.578125 -3.609375 C 1.429688 -3.609375 1.289062 -3.566406 1.15625 -3.484375 C 1.03125 -3.398438 0.925781 -3.285156 0.84375 -3.140625 C 0.78125 -3.054688 0.707031 -3.015625 0.625 -3.015625 C 0.550781 -3.015625 0.484375 -3.039062 0.421875 -3.09375 C 0.367188 -3.144531 0.34375 -3.203125 0.34375 -3.265625 C 0.34375 -3.304688 0.359375 -3.347656 0.390625 -3.390625 C 0.421875 -3.441406 0.460938 -3.5 0.515625 -3.5625 C 0.640625 -3.726562 0.800781 -3.859375 1 -3.953125 C 1.195312 -4.054688 1.394531 -4.109375 1.59375 -4.109375 C 1.851562 -4.109375 2.078125 -4.054688 2.265625 -3.953125 C 2.460938 -3.847656 2.609375 -3.707031 2.703125 -3.53125 C 2.804688 -3.351562 2.859375 -3.144531 2.859375 -2.90625 C 2.859375 -2.457031 2.617188 -1.976562 2.140625 -1.46875 L 1.265625 -0.515625 Z M 2.71875 -0.515625 "/></g></g></g><g fill="#000000" fill-opacity="1"><g transform="translate(191.443627, 270.364552)"><g><path d="M 1.59375 -2.5625 C 1.8125 -2.5625 2.007812 -2.503906 2.1875 -2.390625 C 2.363281 -2.285156 2.5 -2.140625 2.59375 -1.953125 C 2.695312 -1.765625 2.75 -1.550781 2.75 -1.3125 C 2.75 -1.039062 2.6875 -0.800781 2.5625 -0.59375 C 2.4375 -0.382812 2.257812 -0.222656 2.03125 -0.109375 C 1.8125 0.00390625 1.554688 0.0625 1.265625 0.0625 C 1.109375 0.0625 0.957031 0.0390625 0.8125 0 C 0.664062 -0.0390625 0.539062 -0.101562 0.4375 -0.1875 C 0.332031 -0.25 0.28125 -0.328125 0.28125 -0.421875 C 0.28125 -0.503906 0.304688 -0.570312 0.359375 -0.625 C 0.410156 -0.6875 0.472656 -0.71875 0.546875 -0.71875 C 0.617188 -0.71875 0.691406 -0.695312 0.765625 -0.65625 C 0.921875 -0.5 1.117188 -0.421875 1.359375 -0.421875 C 1.503906 -0.421875 1.640625 -0.457031 1.765625 -0.53125 C 1.898438 -0.601562 2.003906 -0.703125 2.078125 -0.828125 C 2.160156 -0.960938 2.203125 -1.113281 2.203125 -1.28125 C 2.203125 -1.53125 2.125 -1.722656 1.96875 -1.859375 C 1.8125 -1.992188 1.628906 -2.0625 1.421875 -2.0625 C 1.359375 -2.0625 1.265625 -2.046875 1.140625 -2.015625 C 1.054688 -1.992188 0.992188 -1.984375 0.953125 -1.984375 C 0.890625 -1.984375 0.832031 -2.007812 0.78125 -2.0625 C 0.738281 -2.113281 0.71875 -2.175781 0.71875 -2.25 C 0.71875 -2.289062 0.722656 -2.328125 0.734375 -2.359375 C 0.753906 -2.390625 0.785156 -2.425781 0.828125 -2.46875 L 1.8125 -3.546875 L 0.46875 -3.546875 C 0.394531 -3.546875 0.332031 -3.570312 0.28125 -3.625 C 0.226562 -3.675781 0.203125 -3.738281 0.203125 -3.8125 C 0.203125 -3.882812 0.226562 -3.941406 0.28125 -3.984375 C 0.332031 -4.035156 0.394531 -4.0625 0.46875 -4.0625 L 2.3125 -4.0625 C 2.40625 -4.0625 2.476562 -4.03125 2.53125 -3.96875 C 2.582031 -3.914062 2.609375 -3.851562 2.609375 -3.78125 C 2.609375 -3.707031 2.570312 -3.632812 2.5 -3.5625 Z M 1.59375 -2.5625 "/></g></g></g></svg>