<svg xmlns="http://www.w3.org/2000/svg" xmlns:xlink="http://www.w3.org/1999/xlink" width="500" zoomAndPan="magnify" viewBox="0 0 375 374.999991" height="500" preserveAspectRatio="xMidYMid meet" version="1.0"><defs><g/><clipPath id="6f21064d04"><path d="M 106 84 L 261 84 L 261 238 L 106 238 Z M 106 84 " clip-rule="nonzero"/></clipPath><clipPath id="bef36b3292"><path d="M 235.859375 49.917969 L 293.703125 201.242188 L 138.875 260.421875 L 81.035156 109.101562 Z M 235.859375 49.917969 " clip-rule="nonzero"/></clipPath><clipPath id="17b6a64edd"><path d="M 235.859375 49.917969 L 293.703125 201.242188 L 138.875 260.421875 L 81.035156 109.101562 Z M 235.859375 49.917969 " clip-rule="nonzero"/></clipPath><clipPath id="3409c49200"><path d="M 235.859375 49.917969 L 293.703125 201.242188 L 138.875 260.421875 L 81.035156 109.101562 Z M 235.859375 49.917969 " clip-rule="nonzero"/></clipPath><clipPath id="0c765d1072"><path d="M 218 92 L 259 92 L 259 111 L 218 111 Z M 218 92 " clip-rule="nonzero"/></clipPath><clipPath id="816d123cd9"><path d="M 235.859375 49.917969 L 293.703125 201.242188 L 138.875 260.421875 L 81.035156 109.101562 Z M 235.859375 49.917969 " clip-rule="nonzero"/></clipPath><clipPath id="97d261bff1"><path d="M 235.859375 49.917969 L 293.703125 201.242188 L 138.875 260.421875 L 81.035156 109.101562 Z M 235.859375 49.917969 " clip-rule="nonzero"/></clipPath><clipPath id="2a14538a97"><path d="M 235.859375 49.917969 L 293.703125 201.242188 L 138.875 260.421875 L 81.035156 109.101562 Z M 235.859375 49.917969 " clip-rule="nonzero"/></clipPath><clipPath id="5f3f449f28"><path d="M 213 90 L 239 90 L 239 126 L 213 126 Z M 213 90 " clip-rule="nonzero"/></clipPath><clipPath id="888b8277be"><path d="M 235.859375 49.917969 L 293.703125 201.242188 L 138.875 260.421875 L 81.035156 109.101562 Z M 235.859375 49.917969 " clip-rule="nonzero"/></clipPath><clipPath id="a12696a701"><path d="M 235.859375 49.917969 L 293.703125 201.242188 L 138.875 260.421875 L 81.035156 109.101562 Z M 235.859375 49.917969 " clip-rule="nonzero"/></clipPath><clipPath id="36c89e635f"><path d="M 235.859375 49.917969 L 293.703125 201.242188 L 138.875 260.421875 L 81.035156 109.101562 Z M 235.859375 49.917969 " clip-rule="nonzero"/></clipPath><clipPath id="bece30c6ed"><path d="M 159 67 L 190 67 L 190 90 L 159 90 Z M 159 67 " clip-rule="nonzero"/></clipPath><clipPath id="9689700d35"><path d="M 235.859375 49.917969 L 293.703125 201.242188 L 138.875 260.421875 L 81.035156 109.101562 Z M 235.859375 49.917969 " clip-rule="nonzero"/></clipPath><clipPath id="e9d0cd1261"><path d="M 235.859375 49.917969 L 293.703125 201.242188 L 138.875 260.421875 L 81.035156 109.101562 Z M 235.859375 49.917969 " clip-rule="nonzero"/></clipPath><clipPath id="5b811d6969"><path d="M 235.859375 49.917969 L 293.703125 201.242188 L 138.875 260.421875 L 81.035156 109.101562 Z M 235.859375 49.917969 " clip-rule="nonzero"/></clipPath><clipPath id="f9515f4b21"><path d="M 163 86 L 200 86 L 200 98 L 163 98 Z M 163 86 " clip-rule="nonzero"/></clipPath><clipPath id="b55147b396"><path d="M 235.859375 49.917969 L 293.703125 201.242188 L 138.875 260.421875 L 81.035156 109.101562 Z M 235.859375 49.917969 " clip-rule="nonzero"/></clipPath><clipPath id="6aa9777f79"><path d="M 235.859375 49.917969 L 293.703125 201.242188 L 138.875 260.421875 L 81.035156 109.101562 Z M 235.859375 49.917969 " clip-rule="nonzero"/></clipPath><clipPath id="8e0e05ad1a"><path d="M 235.859375 49.917969 L 293.703125 201.242188 L 138.875 260.421875 L 81.035156 109.101562 Z M 235.859375 49.917969 " clip-rule="nonzero"/></clipPath><clipPath id="1de4ab5056"><path d="M 175 76 L 214 76 L 214 86 L 175 86 Z M 175 76 " clip-rule="nonzero"/></clipPath><clipPath id="6c012cd1a0"><path d="M 235.859375 49.917969 L 293.703125 201.242188 L 138.875 260.421875 L 81.035156 109.101562 Z M 235.859375 49.917969 " clip-rule="nonzero"/></clipPath><clipPath id="3559606486"><path d="M 235.859375 49.917969 L 293.703125 201.242188 L 138.875 260.421875 L 81.035156 109.101562 Z M 235.859375 49.917969 " clip-rule="nonzero"/></clipPath><clipPath id="9cd76224d0"><path d="M 235.859375 49.917969 L 293.703125 201.242188 L 138.875 260.421875 L 81.035156 109.101562 Z M 235.859375 49.917969 " clip-rule="nonzero"/></clipPath><clipPath id="250ad3a3c1"><path d="M 190 84 L 220 84 L 220 106 L 190 106 Z M 190 84 " clip-rule="nonzero"/></clipPath><clipPath id="d69f4f6212"><path d="M 235.859375 49.917969 L 293.703125 201.242188 L 138.875 260.421875 L 81.035156 109.101562 Z M 235.859375 49.917969 " clip-rule="nonzero"/></clipPath><clipPath id="41827b7a74"><path d="M 235.859375 49.917969 L 293.703125 201.242188 L 138.875 260.421875 L 81.035156 109.101562 Z M 235.859375 49.917969 " clip-rule="nonzero"/></clipPath><clipPath id="1644884d7c"><path d="M 235.859375 49.917969 L 293.703125 201.242188 L 138.875 260.421875 L 81.035156 109.101562 Z M 235.859375 49.917969 " clip-rule="nonzero"/></clipPath><clipPath id="81dca209bf"><path d="M 197 80 L 237 80 L 237 90 L 197 90 Z M 197 80 " clip-rule="nonzero"/></clipPath><clipPath id="6c46ef797e"><path d="M 235.859375 49.917969 L 293.703125 201.242188 L 138.875 260.421875 L 81.035156 109.101562 Z M 235.859375 49.917969 " clip-rule="nonzero"/></clipPath><clipPath id="de37b05279"><path d="M 235.859375 49.917969 L 293.703125 201.242188 L 138.875 260.421875 L 81.035156 109.101562 Z M 235.859375 49.917969 " clip-rule="nonzero"/></clipPath><clipPath id="1eb39530d8"><path d="M 235.859375 49.917969 L 293.703125 201.242188 L 138.875 260.421875 L 81.035156 109.101562 Z M 235.859375 49.917969 " clip-rule="nonzero"/></clipPath><clipPath id="bbf0efa4ff"><path d="M 129 215 L 134 215 L 134 219 L 129 219 Z M 129 215 " clip-rule="nonzero"/></clipPath><clipPath id="88a56b3bc9"><path d="M 235.859375 49.917969 L 293.703125 201.242188 L 138.875 260.421875 L 81.035156 109.101562 Z M 235.859375 49.917969 " clip-rule="nonzero"/></clipPath><clipPath id="2b85e171c7"><path d="M 235.859375 49.917969 L 293.703125 201.242188 L 138.875 260.421875 L 81.035156 109.101562 Z M 235.859375 49.917969 " clip-rule="nonzero"/></clipPath><clipPath id="8a30fb446f"><path d="M 235.859375 49.917969 L 293.703125 201.242188 L 138.875 260.421875 L 81.035156 109.101562 Z M 235.859375 49.917969 " clip-rule="nonzero"/></clipPath><clipPath id="050d61b4d4"><path d="M 140 223 L 144 223 L 144 227 L 140 227 Z M 140 223 " clip-rule="nonzero"/></clipPath><clipPath id="843448b781"><path d="M 235.859375 49.917969 L 293.703125 201.242188 L 138.875 260.421875 L 81.035156 109.101562 Z M 235.859375 49.917969 " clip-rule="nonzero"/></clipPath><clipPath id="0fca81a330"><path d="M 235.859375 49.917969 L 293.703125 201.242188 L 138.875 260.421875 L 81.035156 109.101562 Z M 235.859375 49.917969 " clip-rule="nonzero"/></clipPath><clipPath id="01faee83a0"><path d="M 235.859375 49.917969 L 293.703125 201.242188 L 138.875 260.421875 L 81.035156 109.101562 Z M 235.859375 49.917969 " clip-rule="nonzero"/></clipPath><clipPath id="5dc414c510"><path d="M 151 229 L 156 229 L 156 233 L 151 233 Z M 151 229 " clip-rule="nonzero"/></clipPath><clipPath id="843ce33573"><path d="M 235.859375 49.917969 L 293.703125 201.242188 L 138.875 260.421875 L 81.035156 109.101562 Z M 235.859375 49.917969 " clip-rule="nonzero"/></clipPath><clipPath id="2b635c3e2e"><path d="M 235.859375 49.917969 L 293.703125 201.242188 L 138.875 260.421875 L 81.035156 109.101562 Z M 235.859375 49.917969 " clip-rule="nonzero"/></clipPath><clipPath id="7250cdf57c"><path d="M 235.859375 49.917969 L 293.703125 201.242188 L 138.875 260.421875 L 81.035156 109.101562 Z M 235.859375 49.917969 " clip-rule="nonzero"/></clipPath><clipPath id="90ccd01074"><path d="M 164 233 L 168 233 L 168 237 L 164 237 Z M 164 233 " clip-rule="nonzero"/></clipPath><clipPath id="c5fb73a526"><path d="M 235.859375 49.917969 L 293.703125 201.242188 L 138.875 260.421875 L 81.035156 109.101562 Z M 235.859375 49.917969 " clip-rule="nonzero"/></clipPath><clipPath id="85a3b22d0d"><path d="M 235.859375 49.917969 L 293.703125 201.242188 L 138.875 260.421875 L 81.035156 109.101562 Z M 235.859375 49.917969 " clip-rule="nonzero"/></clipPath><clipPath id="7c0ba1bcc7"><path d="M 235.859375 49.917969 L 293.703125 201.242188 L 138.875 260.421875 L 81.035156 109.101562 Z M 235.859375 49.917969 " clip-rule="nonzero"/></clipPath><clipPath id="920b0b8fc7"><path d="M 219.589844 162.199219 L 230.996094 162.199219 L 230.996094 206.394531 L 219.589844 206.394531 Z M 219.589844 162.199219 " clip-rule="nonzero"/></clipPath><clipPath id="2fd5f07ad7"><path d="M 137 107 L 223 107 L 223 247.800781 L 137 247.800781 Z M 137 107 " clip-rule="nonzero"/></clipPath></defs><rect x="-37.5" width="450" fill="#ffffff" y="-37.499999" height="449.999989" fill-opacity="1"/><rect x="-37.5" width="450" fill="#ede6e1" y="-37.499999" height="449.999989" fill-opacity="1"/><g clip-path="url(#6f21064d04)"><g clip-path="url(#bef36b3292)"><g clip-path="url(#17b6a64edd)"><g clip-path="url(#3409c49200)"><path fill="#000000" d="M 111.5 188.621094 C 107.796875 178.933594 106.105469 168.804688 106.476562 158.519531 C 106.835938 148.585938 109.09375 138.925781 113.1875 129.808594 C 117.277344 120.691406 123 112.570312 130.1875 105.679688 C 137.636719 98.542969 146.339844 93.042969 156.058594 89.328125 C 165.773438 85.613281 175.929688 83.90625 186.238281 84.253906 C 196.191406 84.59375 205.871094 86.824219 215 90.890625 C 224.128906 94.957031 232.257812 100.644531 239.148438 107.808594 C 246.285156 115.222656 251.785156 123.894531 255.488281 133.582031 C 259.191406 143.273438 260.882812 153.402344 260.507812 163.6875 C 260.148438 173.617188 257.894531 183.28125 253.800781 192.398438 C 249.707031 201.515625 243.988281 209.636719 236.796875 216.527344 C 229.351562 223.664062 220.648438 229.164062 210.929688 232.878906 C 198.671875 237.566406 185.375 239.066406 172.472656 237.21875 C 172.15625 237.175781 171.9375 236.882812 171.984375 236.570312 C 172.03125 236.253906 172.324219 236.035156 172.636719 236.082031 C 185.347656 237.898438 198.445312 236.421875 210.519531 231.804688 C 249.621094 216.859375 269.3125 172.980469 254.410156 133.996094 C 239.507812 95.011719 195.570312 75.453125 156.46875 90.402344 C 117.363281 105.347656 97.675781 149.226562 112.578125 188.210938 C 115.910156 196.929688 120.734375 204.835938 126.917969 211.71875 C 127.128906 211.953125 127.109375 212.316406 126.871094 212.53125 C 126.632812 212.742188 126.269531 212.722656 126.054688 212.488281 C 119.78125 205.5 114.882812 197.46875 111.5 188.621094 Z M 111.5 188.621094 " fill-opacity="1" fill-rule="nonzero"/></g></g></g></g><g clip-path="url(#0c765d1072)"><g clip-path="url(#816d123cd9)"><g clip-path="url(#97d261bff1)"><g clip-path="url(#2a14538a97)"><path fill="#000000" d="M 218.949219 93.925781 C 218.925781 93.867188 218.914062 93.804688 218.910156 93.738281 C 218.902344 93.449219 219.109375 93.199219 219.394531 93.152344 C 223.753906 92.425781 226.410156 92.28125 229.714844 93.425781 C 231.695312 94.109375 233.535156 95.207031 235.101562 96.179688 C 239.074219 98.644531 242.945312 101.375 246.605469 104.289062 L 247.128906 104.707031 C 248.730469 105.988281 250.382812 107.3125 252.234375 108.175781 C 254.035156 109.011719 256.039062 109.414062 258.023438 109.339844 C 258.320312 109.328125 258.578125 109.546875 258.617188 109.84375 C 258.652344 110.140625 258.457031 110.414062 258.164062 110.480469 C 254.789062 111.195312 251.242188 111.105469 247.90625 110.207031 C 242.90625 108.859375 238.539062 105.761719 234.566406 102.617188 C 234.234375 102.355469 233.90625 102.09375 233.578125 101.828125 C 230.125 99.074219 226.554688 96.226562 222.347656 95.054688 C 222.089844 94.980469 221.816406 94.894531 221.53125 94.808594 C 220.8125 94.585938 220.070312 94.351562 219.433594 94.292969 C 219.210938 94.269531 219.027344 94.125 218.949219 93.925781 Z M 229.335938 94.511719 C 227.007812 93.707031 225.0625 93.585938 222.421875 93.878906 C 222.503906 93.902344 222.582031 93.925781 222.660156 93.945312 C 227.09375 95.179688 230.753906 98.105469 234.296875 100.929688 C 234.625 101.191406 234.953125 101.457031 235.28125 101.714844 C 239.160156 104.785156 243.410156 107.804688 248.210938 109.097656 C 249.84375 109.539062 251.53125 109.773438 253.222656 109.804688 C 252.71875 109.636719 252.226562 109.441406 251.746094 109.21875 C 249.769531 108.296875 248.058594 106.929688 246.40625 105.605469 L 245.882812 105.1875 C 242.257812 102.300781 238.425781 99.597656 234.492188 97.15625 C 232.910156 96.175781 231.207031 95.160156 229.335938 94.511719 Z M 229.335938 94.511719 " fill-opacity="1" fill-rule="nonzero"/></g></g></g></g><g clip-path="url(#5f3f449f28)"><g clip-path="url(#888b8277be)"><g clip-path="url(#a12696a701)"><g clip-path="url(#36c89e635f)"><path fill="#000000" d="M 213.097656 91.195312 C 213.039062 91.039062 213.046875 90.859375 213.136719 90.703125 C 213.285156 90.453125 213.589844 90.347656 213.859375 90.460938 C 217.941406 92.140625 220.269531 93.417969 222.464844 96.132812 C 223.78125 97.757812 224.761719 99.660156 225.578125 101.3125 C 227.640625 105.5 229.480469 109.859375 231.039062 114.265625 L 231.261719 114.898438 C 231.941406 116.832031 232.644531 118.832031 233.757812 120.539062 C 234.84375 122.203125 236.328125 123.597656 238.050781 124.582031 C 238.308594 124.730469 238.410156 125.050781 238.285156 125.320312 C 238.160156 125.59375 237.847656 125.722656 237.566406 125.621094 C 234.320312 124.453125 231.363281 122.503906 229.011719 119.984375 C 225.480469 116.207031 223.417969 111.269531 221.710938 106.5 C 221.570312 106.105469 221.429688 105.707031 221.289062 105.308594 C 219.820312 101.148438 218.300781 96.847656 215.351562 93.632812 C 215.171875 93.433594 214.984375 93.214844 214.789062 92.992188 C 214.296875 92.425781 213.789062 91.835938 213.28125 91.449219 C 213.199219 91.378906 213.136719 91.292969 213.097656 91.195312 Z M 221.570312 96.855469 C 220.019531 94.941406 218.433594 93.816406 216.039062 92.671875 C 216.09375 92.734375 216.152344 92.796875 216.203125 92.855469 C 219.3125 96.242188 220.871094 100.65625 222.378906 104.925781 C 222.515625 105.324219 222.65625 105.71875 222.796875 106.113281 C 224.460938 110.769531 226.46875 115.574219 229.855469 119.203125 C 231.007812 120.4375 232.316406 121.527344 233.734375 122.445312 C 233.398438 122.039062 233.078125 121.613281 232.789062 121.171875 C 231.601562 119.347656 230.875 117.28125 230.171875 115.28125 L 229.953125 114.65625 C 228.40625 110.289062 226.585938 105.972656 224.542969 101.824219 C 223.71875 100.152344 222.8125 98.390625 221.570312 96.855469 Z M 221.570312 96.855469 " fill-opacity="1" fill-rule="nonzero"/></g></g></g></g><g clip-path="url(#bece30c6ed)"><g clip-path="url(#9689700d35)"><g clip-path="url(#e9d0cd1261)"><g clip-path="url(#5b811d6969)"><path fill="#000000" d="M 159.773438 88.710938 C 159.710938 88.546875 159.726562 88.359375 159.820312 88.203125 C 161.09375 86.136719 162.25 84.550781 163.449219 83.222656 C 166.941406 79.347656 171.648438 76.761719 175.792969 74.746094 C 176.824219 74.242188 177.882812 73.746094 178.90625 73.265625 C 182.277344 71.683594 185.769531 70.042969 188.878906 67.9375 C 189.097656 67.789062 189.394531 67.808594 189.589844 67.988281 C 189.789062 68.164062 189.839844 68.453125 189.710938 68.683594 C 186.921875 73.875 183.777344 77.765625 180.089844 80.585938 C 175.878906 83.808594 170.847656 85.621094 166.933594 86.835938 C 164.921875 87.460938 163.058594 88.105469 161.242188 88.804688 C 160.984375 88.902344 160.730469 88.988281 160.46875 89.058594 C 160.238281 89.125 159.996094 89.042969 159.851562 88.855469 C 159.820312 88.808594 159.792969 88.761719 159.773438 88.710938 Z M 164.304688 83.988281 C 163.4375 84.949219 162.59375 86.058594 161.699219 87.398438 C 163.265625 86.816406 164.875 86.273438 166.589844 85.738281 C 170.414062 84.550781 175.320312 82.785156 179.390625 79.671875 C 182.460938 77.324219 185.148438 74.191406 187.570312 70.128906 C 184.925781 71.707031 182.121094 73.023438 179.394531 74.308594 C 178.375 74.785156 177.320312 75.28125 176.296875 75.78125 C 172.253906 77.746094 167.667969 80.261719 164.304688 83.988281 Z M 164.304688 83.988281 " fill-opacity="1" fill-rule="nonzero"/></g></g></g></g><g clip-path="url(#f9515f4b21)"><g clip-path="url(#b55147b396)"><g clip-path="url(#6aa9777f79)"><g clip-path="url(#8e0e05ad1a)"><path fill="#000000" d="M 163.933594 87.949219 C 163.914062 87.902344 163.902344 87.847656 163.898438 87.792969 C 163.875 87.523438 164.046875 87.269531 164.308594 87.195312 C 165.105469 86.957031 165.988281 86.761719 166.996094 86.597656 C 169.21875 86.238281 171.058594 86.121094 172.789062 86.226562 C 177.292969 86.5 181.5 88.371094 185.566406 90.179688 C 189.785156 92.058594 194.148438 94 198.722656 94.042969 C 198.976562 94.046875 199.199219 94.214844 199.269531 94.457031 C 199.339844 94.703125 199.246094 94.960938 199.03125 95.101562 C 195.042969 97.699219 189.367188 98.121094 183.453125 96.261719 C 180.148438 95.222656 177.023438 93.632812 174.003906 92.101562 C 172.433594 91.304688 170.816406 90.480469 169.195312 89.75 C 167.460938 88.964844 165.992188 88.421875 164.453125 88.320312 C 164.433594 88.320312 164.414062 88.316406 164.394531 88.316406 C 164.183594 88.289062 164.007812 88.144531 163.933594 87.949219 Z M 196.683594 95.0625 C 192.632812 94.582031 188.808594 92.882812 185.097656 91.230469 C 181.121094 89.464844 177.015625 87.632812 172.714844 87.375 C 171.085938 87.273438 169.34375 87.386719 167.230469 87.726562 C 168.070312 88 168.886719 88.347656 169.675781 88.703125 C 171.316406 89.445312 172.949219 90.273438 174.527344 91.074219 C 177.507812 92.585938 180.589844 94.152344 183.804688 95.164062 C 188.570312 96.664062 193.148438 96.609375 196.683594 95.0625 Z M 196.683594 95.0625 " fill-opacity="1" fill-rule="nonzero"/></g></g></g></g><g clip-path="url(#1de4ab5056)"><g clip-path="url(#6c012cd1a0)"><g clip-path="url(#3559606486)"><g clip-path="url(#9cd76224d0)"><path fill="#000000" d="M 175.800781 84.777344 C 175.792969 84.753906 175.785156 84.730469 175.777344 84.703125 C 175.71875 84.441406 175.84375 84.175781 176.082031 84.058594 C 187.351562 78.460938 199.941406 75.703125 212.492188 76.078125 C 212.773438 76.089844 213.007812 76.300781 213.042969 76.578125 C 213.082031 76.859375 212.90625 77.125 212.636719 77.207031 C 210.027344 77.980469 207.445312 79.027344 204.945312 80.039062 C 202.363281 81.085938 199.691406 82.171875 196.957031 82.96875 C 190.648438 84.804688 184.148438 85.167969 176.335938 85.148438 C 176.097656 85.148438 175.886719 85 175.800781 84.777344 Z M 209.019531 77.207031 C 198.65625 77.375 188.355469 79.691406 178.90625 83.988281 C 185.5 83.921875 191.160156 83.460938 196.636719 81.863281 C 199.316406 81.085938 201.957031 80.011719 204.515625 78.976562 C 205.988281 78.375 207.492188 77.765625 209.019531 77.207031 Z M 209.019531 77.207031 " fill-opacity="1" fill-rule="nonzero"/></g></g></g></g><g clip-path="url(#250ad3a3c1)"><g clip-path="url(#d69f4f6212)"><g clip-path="url(#41827b7a74)"><g clip-path="url(#1644884d7c)"><path fill="#000000" d="M 190.859375 84.800781 C 190.8125 84.679688 190.804688 84.546875 190.851562 84.414062 C 190.933594 84.152344 191.195312 83.988281 191.46875 84.023438 C 193.039062 84.21875 194.742188 84.765625 196.824219 85.746094 C 205.710938 89.921875 213.347656 96.394531 218.90625 104.472656 C 219.050781 104.683594 219.039062 104.964844 218.875 105.164062 C 218.710938 105.363281 218.4375 105.429688 218.203125 105.328125 C 213.304688 103.242188 208.242188 101.082031 204.09375 97.507812 C 202.382812 96.035156 200.75 94.207031 199.175781 92.4375 C 196.691406 89.648438 194.121094 86.765625 191.113281 85.097656 C 190.992188 85.03125 190.90625 84.921875 190.859375 84.800781 Z M 196.332031 86.785156 C 195.648438 86.464844 195.007812 86.191406 194.402344 85.964844 C 196.429688 87.621094 198.253906 89.667969 200.039062 91.667969 C 201.664062 93.492188 203.195312 95.210938 204.847656 96.636719 C 208.339844 99.640625 212.554688 101.640625 216.761719 103.460938 C 211.441406 96.324219 204.414062 90.582031 196.332031 86.785156 Z M 196.332031 86.785156 " fill-opacity="1" fill-rule="nonzero"/></g></g></g></g><g clip-path="url(#81dca209bf)"><g clip-path="url(#6c46ef797e)"><g clip-path="url(#de37b05279)"><g clip-path="url(#1eb39530d8)"><path fill="#000000" d="M 197.230469 85.960938 C 197.214844 85.921875 197.207031 85.882812 197.199219 85.84375 C 197.167969 85.640625 197.246094 85.433594 197.40625 85.304688 C 198.308594 84.582031 199.421875 84 200.621094 83.628906 C 202.6875 82.988281 204.84375 82.945312 206.871094 82.992188 C 209.1875 83.042969 211.527344 83.222656 213.789062 83.394531 C 216.304688 83.585938 218.902344 83.785156 221.457031 83.808594 C 226.183594 83.855469 235.386719 81.03125 235.476562 81.003906 C 235.757812 80.917969 236.054688 81.050781 236.171875 81.3125 C 236.292969 81.574219 236.199219 81.890625 235.949219 82.042969 C 235.484375 82.328125 224.445312 89.066406 218.03125 89.824219 C 210.246094 90.742188 201.121094 87.660156 197.5625 86.289062 C 197.40625 86.230469 197.289062 86.109375 197.230469 85.960938 Z M 200.960938 84.726562 C 200.257812 84.945312 199.59375 85.242188 199 85.597656 C 202.992188 87.046875 211.023438 89.492188 217.898438 88.683594 C 221.730469 88.230469 227.503906 85.417969 231.347656 83.339844 C 228.242188 84.125 224.191406 84.984375 221.445312 84.960938 C 218.851562 84.9375 216.230469 84.738281 213.699219 84.542969 C 211.449219 84.371094 209.125 84.195312 206.839844 84.144531 C 204.914062 84.097656 202.867188 84.136719 200.960938 84.726562 Z M 200.960938 84.726562 " fill-opacity="1" fill-rule="nonzero"/></g></g></g></g><g clip-path="url(#bbf0efa4ff)"><g clip-path="url(#88a56b3bc9)"><g clip-path="url(#2b85e171c7)"><g clip-path="url(#8a30fb446f)"><path fill="#000000" d="M 131.921875 218.359375 C 131.707031 218.441406 131.484375 218.480469 131.253906 218.472656 C 131.027344 218.464844 130.808594 218.417969 130.597656 218.324219 C 130.386719 218.230469 130.203125 218.101562 130.046875 217.933594 C 129.890625 217.769531 129.769531 217.578125 129.6875 217.367188 C 129.605469 217.152344 129.570312 216.929688 129.578125 216.703125 C 129.582031 216.472656 129.632812 216.253906 129.726562 216.046875 C 129.820312 215.835938 129.949219 215.652344 130.117188 215.496094 C 130.285156 215.339844 130.476562 215.21875 130.6875 215.136719 C 130.902344 215.054688 131.125 215.015625 131.355469 215.023438 C 131.582031 215.03125 131.800781 215.078125 132.011719 215.171875 C 132.222656 215.265625 132.40625 215.394531 132.5625 215.5625 C 132.71875 215.726562 132.839844 215.917969 132.921875 216.128906 C 133.003906 216.34375 133.039062 216.566406 133.035156 216.792969 C 133.027344 217.023438 132.976562 217.242188 132.882812 217.449219 C 132.789062 217.660156 132.660156 217.84375 132.492188 218 C 132.324219 218.15625 132.136719 218.277344 131.921875 218.359375 Z M 131.921875 218.359375 " fill-opacity="1" fill-rule="nonzero"/></g></g></g></g><g clip-path="url(#050d61b4d4)"><g clip-path="url(#843448b781)"><g clip-path="url(#0fca81a330)"><g clip-path="url(#01faee83a0)"><path fill="#000000" d="M 142.378906 226.535156 C 142.164062 226.617188 141.945312 226.65625 141.714844 226.648438 C 141.484375 226.644531 141.265625 226.59375 141.058594 226.5 C 140.847656 226.40625 140.664062 226.277344 140.507812 226.113281 C 140.347656 225.945312 140.230469 225.757812 140.148438 225.542969 C 140.066406 225.328125 140.027344 225.109375 140.035156 224.878906 C 140.042969 224.652344 140.09375 224.433594 140.1875 224.222656 C 140.28125 224.015625 140.410156 223.832031 140.578125 223.671875 C 140.742188 223.515625 140.933594 223.394531 141.148438 223.316406 C 141.363281 223.234375 141.585938 223.195312 141.8125 223.199219 C 142.042969 223.207031 142.261719 223.257812 142.472656 223.347656 C 142.679688 223.441406 142.863281 223.574219 143.019531 223.738281 C 143.179688 223.90625 143.296875 224.09375 143.378906 224.308594 C 143.460938 224.519531 143.5 224.742188 143.492188 224.972656 C 143.484375 225.199219 143.4375 225.417969 143.34375 225.628906 C 143.25 225.835938 143.117188 226.019531 142.953125 226.175781 C 142.785156 226.335938 142.59375 226.453125 142.378906 226.535156 Z M 142.378906 226.535156 " fill-opacity="1" fill-rule="nonzero"/></g></g></g></g><g clip-path="url(#5dc414c510)"><g clip-path="url(#843ce33573)"><g clip-path="url(#2b635c3e2e)"><g clip-path="url(#7250cdf57c)"><path fill="#000000" d="M 154.105469 232.773438 C 153.890625 232.855469 153.671875 232.894531 153.441406 232.890625 C 153.210938 232.882812 152.992188 232.832031 152.785156 232.738281 C 152.574219 232.648438 152.390625 232.515625 152.234375 232.351562 C 152.074219 232.183594 151.957031 231.996094 151.875 231.78125 C 151.792969 231.566406 151.753906 231.347656 151.761719 231.117188 C 151.769531 230.890625 151.820312 230.671875 151.914062 230.460938 C 152.007812 230.253906 152.136719 230.070312 152.304688 229.910156 C 152.46875 229.753906 152.660156 229.636719 152.875 229.554688 C 153.089844 229.472656 153.3125 229.433594 153.539062 229.4375 C 153.769531 229.445312 153.988281 229.496094 154.199219 229.589844 C 154.40625 229.679688 154.589844 229.8125 154.746094 229.976562 C 154.90625 230.144531 155.023438 230.332031 155.105469 230.546875 C 155.1875 230.761719 155.226562 230.980469 155.21875 231.210938 C 155.210938 231.4375 155.164062 231.65625 155.070312 231.867188 C 154.976562 232.074219 154.84375 232.257812 154.679688 232.414062 C 154.511719 232.574219 154.320312 232.691406 154.105469 232.773438 Z M 154.105469 232.773438 " fill-opacity="1" fill-rule="nonzero"/></g></g></g></g><g clip-path="url(#90ccd01074)"><g clip-path="url(#c5fb73a526)"><g clip-path="url(#85a3b22d0d)"><g clip-path="url(#7c0ba1bcc7)"><path fill="#000000" d="M 166.746094 236.882812 C 166.53125 236.964844 166.308594 237.003906 166.082031 236.996094 C 165.851562 236.992188 165.632812 236.941406 165.421875 236.847656 C 165.214844 236.753906 165.03125 236.625 164.871094 236.460938 C 164.714844 236.292969 164.59375 236.105469 164.515625 235.890625 C 164.433594 235.675781 164.394531 235.457031 164.402344 235.226562 C 164.40625 235 164.457031 234.78125 164.550781 234.570312 C 164.644531 234.363281 164.777344 234.179688 164.941406 234.019531 C 165.109375 233.863281 165.300781 233.742188 165.515625 233.664062 C 165.726562 233.582031 165.949219 233.542969 166.179688 233.546875 C 166.40625 233.554688 166.628906 233.605469 166.835938 233.699219 C 167.046875 233.789062 167.230469 233.921875 167.386719 234.085938 C 167.542969 234.253906 167.664062 234.441406 167.746094 234.65625 C 167.828125 234.867188 167.863281 235.089844 167.859375 235.320312 C 167.851562 235.546875 167.800781 235.765625 167.707031 235.976562 C 167.613281 236.183594 167.484375 236.367188 167.316406 236.523438 C 167.148438 236.683594 166.960938 236.800781 166.746094 236.882812 Z M 166.746094 236.882812 " fill-opacity="1" fill-rule="nonzero"/></g></g></g></g><path fill="#000000" d="M 208.746094 157.496094 C 207.847656 157.570312 207.207031 156.78125 206.492188 156.375 C 204.707031 155.359375 202.578125 155.03125 200.570312 155.433594 C 198.679688 155.8125 197.4375 156.839844 196.277344 158.3125 C 196.089844 158.550781 195.867188 158.789062 195.820312 159.089844 C 196.089844 159.140625 196.296875 158.867188 196.453125 158.644531 C 197.246094 157.472656 198.523438 156.746094 199.894531 156.507812 C 199.820312 156.59375 199.753906 156.691406 199.707031 156.796875 C 199.503906 157.234375 199.621094 157.753906 199.804688 158.199219 C 200.003906 158.683594 200.300781 159.160156 200.765625 159.398438 C 200.929688 159.484375 201.105469 159.539062 201.289062 159.5625 C 202.132812 159.6875 203.027344 159.207031 203.390625 158.433594 C 203.582031 158.019531 203.636719 157.394531 203.472656 156.886719 C 204.03125 157.082031 204.574219 157.339844 205.089844 157.632812 C 205.671875 157.964844 206.25 158.359375 206.914062 158.425781 C 207.441406 158.476562 207.945312 158.3125 208.410156 158.070312 C 208.800781 157.867188 209.066406 157.503906 209.449219 157.324219 C 209.191406 157.289062 208.996094 157.472656 208.746094 157.496094 " fill-opacity="1" fill-rule="nonzero"/><path fill="#000000" d="M 207.25 149.808594 C 206.136719 149.28125 204.890625 149.417969 203.761719 149.796875 C 201.789062 150.457031 199.847656 151.152344 197.8125 151.578125 C 196.625 151.832031 195.269531 152.34375 194.828125 153.589844 C 194.753906 153.789062 194.554688 155.445312 194.519531 155.460938 C 194.929688 155.265625 195.363281 155.328125 195.789062 155.246094 C 196.296875 155.140625 196.816406 154.882812 197.296875 154.695312 C 199.386719 153.894531 201.398438 152.957031 203.535156 152.269531 C 204.617188 151.921875 205.738281 151.457031 206.890625 151.65625 C 207.75 151.804688 208.539062 152.25 209.207031 152.8125 C 209.875 153.371094 210.4375 154.042969 211 154.710938 C 210.558594 154.1875 210.265625 153.457031 209.878906 152.882812 C 209.101562 151.726562 208.582031 150.433594 207.25 149.808594 " fill-opacity="1" fill-rule="nonzero"/><path fill="#000000" d="M 226.652344 152.242188 C 225.460938 148.878906 223.136719 145.886719 220.015625 144.125 C 218.789062 143.4375 217.441406 142.933594 216.070312 142.558594 C 217.117188 141.101562 218.757812 140.050781 219.429688 138.203125 C 220.367188 135.636719 220.191406 132.726562 219.382812 130.152344 C 219.101562 129.261719 218.75 128.398438 218.347656 127.558594 C 218.40625 127.714844 218.457031 127.875 218.507812 128.035156 C 219.347656 130.71875 219.367188 133.722656 218.191406 136.277344 C 217.367188 138.105469 215.839844 139.679688 214.007812 140.507812 C 213.367188 140.796875 212.476562 140.769531 212 141.269531 C 212.210938 141.355469 212.402344 141.507812 212.550781 141.75 C 213.179688 142.769531 214.269531 143.414062 215.355469 143.925781 C 215.355469 143.921875 215.359375 143.914062 215.359375 143.910156 C 216.039062 144.316406 216.785156 144.65625 217.488281 145 C 220.554688 146.507812 224.472656 148.789062 225.425781 152.332031 C 226.066406 154.699219 226.539062 157.113281 226.390625 159.589844 C 226.339844 160.472656 226.136719 161.386719 225.898438 162.316406 C 227.558594 158.964844 227.992188 156.019531 226.652344 152.242188 " fill-opacity="1" fill-rule="nonzero"/><g clip-path="url(#920b0b8fc7)"><path fill="#000000" d="M 229.738281 174.503906 C 229.097656 173.335938 228.179688 172.417969 227.222656 171.511719 C 226.21875 170.558594 224.988281 169.476562 224.875 168.003906 C 224.734375 166.21875 225.398438 164.242188 225.898438 162.316406 C 225.75 162.613281 225.597656 162.910156 225.429688 163.210938 C 224.796875 164.375 224.132812 165.574219 223.964844 166.910156 C 223.617188 169.742188 225.632812 171.507812 227.449219 173.320312 C 229.238281 175.109375 230.1875 177.402344 230 179.953125 C 229.789062 182.757812 228.242188 184.867188 226.058594 186.527344 C 222.851562 188.964844 218.871094 191.796875 219.890625 196.425781 C 220.25 198.050781 221.042969 199.546875 221.433594 201.164062 C 221.824219 202.777344 221.796875 204.488281 221.359375 206.089844 C 222.082031 204.300781 222.378906 202.335938 222.214844 200.414062 C 221.921875 196.9375 222.117188 193.183594 224.242188 190.265625 C 226.496094 187.167969 229.960938 185.710938 230.792969 181.605469 C 231.277344 179.214844 230.914062 176.644531 229.738281 174.503906 " fill-opacity="1" fill-rule="nonzero"/></g><path fill="#000000" d="M 194.867188 179.59375 C 194.546875 179.621094 194.195312 179.46875 193.878906 179.429688 C 193.5 179.378906 193.125 179.351562 192.738281 179.371094 C 191.886719 179.417969 191.054688 179.652344 190.226562 179.859375 C 189.980469 179.921875 189.730469 179.980469 189.476562 179.972656 C 189.164062 179.964844 188.867188 179.851562 188.570312 179.753906 C 187.476562 179.394531 186.328125 179.199219 185.179688 179.179688 C 185.042969 179.179688 184.914062 179.179688 184.777344 179.183594 C 184.890625 179.140625 185 179.09375 185.101562 179.046875 C 185.671875 178.773438 186.210938 178.367188 186.84375 178.355469 C 187.339844 178.34375 187.808594 178.582031 188.289062 178.710938 C 189.121094 178.941406 190.035156 178.851562 190.804688 178.460938 C 190.949219 178.386719 191.089844 178.304688 191.246094 178.292969 C 191.394531 178.277344 191.539062 178.328125 191.675781 178.378906 C 192.636719 178.71875 193.582031 179.117188 194.570312 179.363281 C 194.652344 179.382812 194.886719 179.445312 195.175781 179.515625 C 195.074219 179.550781 194.972656 179.582031 194.867188 179.59375 Z M 196.972656 179.046875 C 195.914062 178.105469 194.800781 176.914062 193.574219 176.210938 C 192.898438 175.824219 192.144531 175.484375 191.371094 175.558594 C 191.019531 175.59375 190.683594 175.714844 190.347656 175.832031 C 189.460938 176.148438 189.0625 176.292969 188.195312 175.867188 C 187.402344 175.476562 186.429688 175.65625 185.652344 176.078125 C 184.875 176.5 184.246094 177.140625 183.578125 177.722656 C 183.160156 178.089844 182.722656 178.410156 182.242188 178.691406 C 182.027344 178.816406 181.824219 178.941406 181.765625 179.058594 C 181.75 179.054688 181.734375 179.054688 181.722656 179.054688 C 181.730469 179.074219 181.738281 179.097656 181.75 179.121094 C 181.75 179.152344 181.761719 179.179688 181.789062 179.210938 C 181.914062 179.515625 182.035156 179.839844 182.230469 180.101562 C 182.398438 180.324219 182.628906 180.515625 182.796875 180.746094 C 183.152344 181.242188 183.53125 181.722656 183.960938 182.15625 C 184.683594 182.882812 185.574219 183.476562 186.578125 183.691406 C 187.074219 183.792969 187.589844 183.804688 188.09375 183.839844 C 189.308594 183.925781 190.535156 184.160156 191.726562 183.914062 C 192.691406 183.714844 193.574219 183.203125 194.324219 182.5625 C 195.074219 181.921875 195.703125 181.152344 196.300781 180.363281 C 196.445312 180.175781 196.730469 179.890625 196.820312 179.660156 C 197.042969 179.601562 197.171875 179.472656 197.109375 179.230469 C 197.09375 179.15625 197.03125 179.097656 196.972656 179.046875 " fill-opacity="1" fill-rule="nonzero"/><path fill="#000000" d="M 191.851562 171.75 C 192.230469 171.765625 192.6875 171.75 192.992188 171.484375 C 193.300781 171.21875 193.253906 170.898438 193.023438 170.71875 C 192.910156 170.632812 192.75 170.578125 192.570312 170.585938 C 191.714844 170.617188 191.011719 171.328125 190.585938 172.015625 C 190.996094 171.800781 191.398438 171.726562 191.851562 171.75 " fill-opacity="1" fill-rule="nonzero"/><path fill="#000000" d="M 186.367188 171.664062 C 186.609375 171.707031 186.839844 171.792969 187.070312 171.875 C 187.316406 171.96875 187.5625 172.058594 187.808594 172.148438 C 187.808594 172.144531 187.808594 172.144531 187.808594 172.144531 C 187.511719 171.480469 186.535156 169.910156 185.652344 170.476562 C 185.371094 170.65625 185.265625 171.09375 185.480469 171.355469 C 185.6875 171.597656 186.050781 171.605469 186.367188 171.664062 " fill-opacity="1" fill-rule="nonzero"/><path fill="#000000" d="M 188.085938 121.792969 C 188.164062 121.8125 188.246094 121.832031 188.328125 121.855469 C 188.246094 121.832031 188.167969 121.808594 188.085938 121.792969 " fill-opacity="1" fill-rule="nonzero"/><path fill="#000000" d="M 180.351562 123.082031 C 178.148438 124.554688 176.316406 127.1875 176.335938 129.890625 C 176.359375 132.933594 175.632812 137.714844 174.402344 140.679688 C 173.5 142.84375 173.121094 143.621094 171.777344 145.378906 C 169.363281 148.53125 164.738281 149.785156 161.050781 150.890625 C 154.597656 152.820312 149.855469 159.265625 151.171875 166.34375 C 150.15625 160.890625 163.089844 155.570312 166.671875 154.730469 C 170.582031 153.808594 174.898438 152.632812 177.039062 149.230469 C 179.089844 145.972656 179.769531 142.160156 179.640625 138.347656 C 179.554688 135.84375 179.105469 133.359375 179.128906 130.855469 C 179.144531 128.496094 179.574219 125.488281 181.5 123.921875 C 183.25 122.5 185.765625 121.246094 188.085938 121.792969 C 185.480469 121.109375 182.589844 121.585938 180.351562 123.082031 " fill-opacity="1" fill-rule="nonzero"/><g clip-path="url(#2fd5f07ad7)"><path fill="#000000" d="M 216.972656 197.507812 C 215.925781 196.492188 214.683594 195.519531 213.742188 194.335938 C 214.867188 195.542969 216.183594 196.558594 217.304688 197.769531 C 217.445312 197.917969 217.578125 198.074219 217.707031 198.234375 C 217.464844 197.984375 217.21875 197.742188 216.972656 197.507812 Z M 204 133.628906 C 203.941406 133.730469 203.839844 133.820312 203.71875 133.894531 C 202.078125 134.011719 200.574219 133.371094 199.140625 132.558594 C 197.667969 131.441406 196.289062 130.023438 194.65625 129.179688 C 191.726562 127.660156 186.542969 128.066406 184.714844 131.234375 C 184.042969 132.394531 183.882812 133.699219 184.03125 135.023438 C 184.035156 135.703125 184.125 136.386719 184.308594 137.0625 C 185.050781 139.796875 186.820312 142.105469 187.664062 144.804688 C 188.167969 146.429688 188.421875 148.160156 188.378906 149.875 C 187.847656 146.554688 186.339844 143.605469 184.914062 140.550781 C 183.320312 137.132812 181.679688 132.742188 183.9375 129.230469 C 185.5625 126.699219 188.960938 125.28125 191.902344 125.847656 C 195.644531 126.570312 197.695312 130.234375 200.671875 132.234375 C 201.695312 132.925781 202.8125 133.445312 204 133.628906 Z M 213.453125 168.902344 C 212.859375 169.269531 212.148438 169.359375 211.539062 169.695312 C 211.511719 169.710938 211.488281 169.726562 211.464844 169.742188 C 212.675781 164.742188 213.007812 159.511719 213.101562 154.394531 C 213.109375 154.183594 212.894531 154.195312 212.882812 154.398438 C 212.574219 160.304688 211.871094 166.457031 210.054688 172.105469 C 208.3125 177.53125 205.234375 182.394531 201.183594 186.390625 C 197.660156 189.871094 192.679688 193.726562 187.410156 192.769531 C 183.753906 192.101562 180.5 189.660156 177.839844 187.082031 C 177.339844 186.480469 176.785156 185.914062 176.234375 185.359375 C 175.996094 185.121094 175.757812 184.882812 175.519531 184.636719 C 174.75 183.746094 174.023438 182.816406 173.359375 181.84375 C 173.332031 181.792969 173.308594 181.742188 173.28125 181.691406 C 172.6875 180.488281 172.589844 179.292969 172.875 178.0625 C 173.003906 178 173.136719 177.933594 173.265625 177.867188 C 173.757812 177.625 174.265625 177.371094 174.75 177.070312 C 176.238281 176.136719 177.074219 174.847656 177.046875 173.535156 C 177.023438 172.5 176.488281 171.628906 175.96875 170.785156 C 175.453125 169.953125 174.964844 169.160156 175.125 168.363281 C 175.359375 167.160156 176.714844 166.761719 177.683594 166.367188 C 178.308594 166.113281 178.949219 165.785156 179.542969 165.394531 C 182.515625 164.671875 185.0625 162.925781 186.628906 160.242188 C 187.699219 158.410156 188.304688 156.324219 188.507812 154.203125 C 189.683594 150.421875 189.277344 146.101562 187.890625 142.472656 C 187.609375 141.734375 187.226562 140.992188 186.835938 140.238281 C 186.804688 139.273438 186.84375 138.308594 187.058594 137.371094 C 187.402344 135.886719 188.265625 134.449219 189.636719 133.789062 C 190.859375 133.203125 192.285156 133.308594 193.636719 133.425781 C 195.15625 133.554688 196.675781 133.6875 198.195312 133.816406 C 199.628906 133.941406 201.082031 134.011719 202.507812 134.1875 C 203.652344 134.328125 204.769531 134.835938 205.582031 135.667969 C 205.964844 136.058594 206.242188 136.558594 206.519531 137.027344 C 206.734375 137.386719 207.089844 137.945312 206.933594 138.382812 C 207.878906 135.683594 208.820312 132.902344 208.730469 130.042969 C 208.691406 128.71875 208.425781 127.410156 208.074219 126.132812 C 207.003906 122.238281 205.074219 118.539062 202.265625 115.636719 C 203.972656 117.453125 204.9375 119.832031 205.800781 122.171875 C 206.417969 123.835938 207.023438 125.578125 206.992188 127.375 C 206.960938 128.949219 206.1875 129.988281 205.105469 131.085938 C 204.515625 131.6875 203.671875 132.035156 202.824219 132.027344 C 201.4375 132.015625 200.472656 130.9375 199.441406 130.136719 C 198.1875 129.167969 197.246094 127.816406 196.082031 126.738281 C 193.703125 124.535156 190.59375 123.519531 187.429688 124.542969 C 184.289062 125.554688 182.140625 128.203125 181.648438 131.453125 C 181.019531 135.597656 182.777344 139.503906 184.527344 143.140625 C 186.09375 146.390625 187.445312 149.613281 187.246094 153.292969 C 187.199219 154.148438 187.074219 155 186.867188 155.839844 C 186.039062 157.347656 184.867188 158.636719 183.335938 159.523438 C 181.214844 160.753906 178.746094 161.214844 176.320312 161.3125 C 173.792969 161.414062 171.273438 161.066406 168.75 161.011719 C 166.179688 160.953125 163.570312 161.101562 161.097656 161.855469 C 157.300781 163.015625 154.070312 165.972656 153.183594 169.773438 C 151.683594 172.308594 151.074219 175.410156 151.789062 178.289062 C 152.207031 179.980469 153.066406 181.460938 154.335938 182.648438 C 155.65625 183.890625 157.265625 184.761719 158.609375 185.972656 C 161.023438 188.148438 161.515625 191.710938 159.65625 194.425781 C 157.777344 197.164062 154.101562 197.648438 151.085938 198.144531 C 148.121094 198.632812 144.78125 199.210938 142.730469 201.636719 C 140.949219 203.742188 140.503906 206.792969 141.203125 209.417969 C 141.332031 209.914062 141.5 210.398438 141.707031 210.863281 C 142.648438 211.691406 143.707031 212.402344 144.722656 213.152344 C 143.949219 212.578125 143.148438 212.03125 142.398438 211.4375 C 142.160156 211.25 141.933594 211.0625 141.707031 210.867188 C 141.625 210.792969 141.542969 210.71875 141.460938 210.644531 C 138.722656 208.121094 137.992188 204.289062 138.96875 200.78125 C 139.464844 199.003906 140.332031 197.347656 141.378906 195.839844 C 142.339844 194.457031 143.558594 193.257812 144.453125 191.832031 C 146.207031 189.042969 145.730469 185.941406 143.890625 183.328125 C 141.980469 180.617188 138.488281 178.457031 137.804688 175.019531 C 137.132812 171.636719 140.953125 169.375 143.042969 167.425781 C 144.292969 166.253906 145.386719 164.929688 146.304688 163.484375 C 147.179688 162.097656 148.054688 160.539062 148.460938 158.9375 C 148.777344 157.675781 148.679688 156.382812 148.097656 155.207031 C 146.703125 152.386719 144.96875 150.175781 147.179688 147.089844 C 148.441406 145.328125 150.425781 144.242188 152.425781 143.414062 C 154.425781 142.585938 156.523438 141.949219 158.367188 140.816406 C 160.824219 139.308594 162.734375 136.925781 163.679688 134.199219 C 164.882812 130.722656 164.519531 126.875 165.53125 123.332031 C 167.65625 115.917969 176.464844 111.480469 183.3125 109.34375 C 188.222656 107.808594 193.78125 107.203125 198.121094 109.742188 C 200.570312 111.171875 201.460938 111.53125 203.878906 113.765625 C 208.035156 117.597656 212.410156 124.320312 211.535156 129.636719 C 211.203125 131.660156 210.636719 133.628906 209.613281 135.414062 C 208.734375 136.949219 207.949219 138.394531 207.996094 140.199219 C 208.0625 142.785156 208.992188 145.007812 210.445312 147.101562 C 213.0625 150.878906 216.328125 154.488281 216.914062 159.207031 C 216.902344 159.296875 216.894531 159.386719 216.882812 159.480469 C 216.683594 160.851562 216.214844 162.164062 215.949219 163.527344 C 215.679688 164.898438 215.464844 166.316406 214.734375 167.539062 C 214.410156 168.074219 213.992188 168.566406 213.453125 168.902344 Z M 217.675781 175.53125 C 217.683594 175.726562 217.640625 175.957031 217.46875 176.054688 C 217.3125 176.144531 217.105469 176.085938 216.976562 175.96875 C 216.84375 175.847656 216.769531 175.679688 216.699219 175.515625 C 216.328125 174.613281 216.011719 173.625 215.253906 173.011719 C 215.246094 173.03125 215.242188 173.050781 215.238281 173.074219 C 215.1875 173.027344 215.132812 172.988281 215.078125 172.945312 C 215.175781 172.867188 215.257812 172.777344 215.332031 172.675781 C 216.46875 173.136719 217.625 174.25 217.675781 175.53125 Z M 214.6875 173.191406 C 215.476562 173.691406 216.136719 174.503906 216.132812 175.484375 C 216.128906 176.53125 215.289062 177.511719 214.230469 177.570312 C 213.40625 177.617188 212.222656 176.992188 211.992188 176.132812 C 211.816406 175.480469 212.164062 174.6875 212.5 174.132812 C 212.726562 173.75 213.023438 173.480469 213.332031 173.183594 C 213.542969 173.277344 213.773438 173.332031 214.019531 173.332031 C 214.257812 173.332031 214.484375 173.28125 214.6875 173.191406 Z M 173.261719 189.726562 C 173.136719 189.605469 173.015625 189.484375 172.890625 189.363281 C 171.984375 188.476562 171.113281 187.617188 170.453125 186.664062 C 171.347656 187.71875 172.34375 188.691406 173.261719 189.726562 Z M 173.894531 204.917969 C 172.5625 205.960938 170.921875 206.445312 169.183594 206.957031 C 168.324219 207.210938 167.433594 207.476562 166.582031 207.8125 C 163.765625 208.929688 161.234375 211.550781 161.84375 214.402344 C 162.238281 216.230469 163.699219 217.386719 165.113281 218.503906 C 166.355469 219.484375 167.527344 220.414062 167.964844 221.730469 C 168.441406 223.171875 167.84375 225.015625 166.507812 226.210938 C 165.5 227.113281 164.09375 227.726562 162.324219 228.035156 C 162.765625 227.800781 163.167969 227.511719 163.507812 227.128906 C 164.472656 226.058594 164.714844 224.394531 164.097656 223.09375 C 163.289062 221.398438 161.339844 220.570312 160.214844 219.066406 C 158.652344 216.984375 158.992188 213.933594 160.359375 211.714844 C 161.195312 210.363281 162.347656 209.25 163.589844 208.277344 C 164.214844 207.785156 164.867188 207.261719 165.554688 206.867188 C 166.230469 206.484375 166.882812 206.210938 167.40625 205.597656 C 168.183594 204.691406 168.460938 203.175781 167.855469 202.105469 C 167.851562 204.511719 165.515625 206.210938 163.308594 207.160156 C 161.101562 208.109375 158.589844 208.875 157.285156 210.894531 C 155.578125 213.539062 156.734375 217.039062 158.089844 219.878906 C 158.71875 221.195312 159.335938 222.910156 158.335938 223.972656 C 157.566406 224.792969 156.273438 224.710938 155.179688 224.972656 C 152.914062 225.519531 151.332031 227.851562 151.300781 230.179688 C 151.269531 232.511719 152.59375 234.730469 154.445312 236.144531 C 155.757812 237.148438 157.367188 237.847656 158.476562 239.019531 C 158.710938 239.742188 158.804688 240.492188 158.660156 241.234375 C 158.660156 242.789062 156.867188 244.265625 155.65625 244.921875 C 154.609375 245.484375 153.578125 245.710938 152.5 245.777344 C 152.578125 245.308594 152.992188 244.894531 153.414062 244.472656 C 154.109375 243.78125 154.445312 242.789062 154.445312 241.804688 C 154.472656 240.105469 153.65625 238.480469 152.496094 237.28125 C 151.136719 235.871094 149.285156 235.066406 147.660156 234.019531 C 146.238281 233.097656 144.550781 231.703125 144.414062 229.875 C 144.285156 228.21875 145.734375 226.949219 146.9375 226.054688 C 149.519531 224.140625 153.375 222.300781 153.054688 218.460938 C 152.871094 216.242188 151.347656 215.148438 149.574219 214.394531 C 149.5625 214.375 149.550781 214.363281 149.53125 214.351562 C 147.421875 213.023438 145.226562 210.5 145.765625 207.816406 C 146.359375 204.839844 149.753906 203.78125 152.351562 203.402344 C 154.964844 203.027344 157.574219 202.875 159.910156 201.515625 C 161.621094 200.515625 163.0625 199.085938 164.109375 197.402344 C 166.175781 194.078125 166.726562 189.738281 165.128906 186.109375 C 163.09375 181.472656 157.964844 179.882812 155.066406 175.992188 C 154.097656 174.691406 153.675781 173.195312 153.726562 171.675781 C 154.667969 169.800781 156.191406 168.191406 157.976562 167.113281 C 163.496094 163.773438 169.976562 166.007812 176.070312 165.828125 C 175.996094 165.863281 175.925781 165.902344 175.851562 165.945312 C 174.988281 166.425781 174.238281 167.144531 174.042969 168.152344 C 173.800781 169.375 174.425781 170.386719 175.03125 171.367188 C 175.492188 172.117188 175.929688 172.824219 175.945312 173.5625 C 175.964844 174.460938 175.296875 175.421875 174.164062 176.132812 C 173.726562 176.40625 173.265625 176.636719 172.777344 176.875 C 172.101562 177.210938 171.40625 177.558594 170.773438 178.035156 C 168.652344 179.632812 167.699219 182.535156 168.457031 185.085938 C 169.074219 187.164062 170.621094 188.683594 172.121094 190.152344 C 172.714844 190.738281 173.332031 191.34375 173.867188 191.964844 C 175.574219 193.949219 176.5625 196.300781 176.644531 198.585938 C 176.738281 201.085938 175.683594 203.515625 173.894531 204.917969 Z M 156.992188 236.328125 C 155.832031 235.347656 154.613281 234.351562 154.503906 232.953125 C 154.4375 232.109375 154.800781 231.378906 155.382812 230.785156 C 155.316406 230.921875 155.253906 231.066406 155.203125 231.21875 C 154.546875 233.121094 155.867188 234.785156 156.992188 236.328125 Z M 148.738281 221.671875 C 149.214844 220.277344 149.105469 218.746094 148.53125 217.394531 C 148.207031 216.628906 147.769531 215.96875 147.257812 215.378906 C 148.414062 215.746094 149.621094 216.085938 150.617188 216.765625 C 152.050781 217.746094 152.179688 219.207031 151.214844 220.609375 C 150.308594 221.929688 148.964844 222.796875 147.636719 223.671875 C 147.632812 223.671875 147.632812 223.671875 147.632812 223.671875 C 148.097656 223.066406 148.492188 222.410156 148.738281 221.671875 Z M 216.632812 163.445312 C 216.617188 163.007812 216.765625 162.5625 216.941406 162.128906 C 216.90625 162.335938 216.871094 162.542969 216.816406 162.746094 C 216.722656 163.117188 216.671875 163.484375 216.640625 163.855469 C 216.640625 163.71875 216.640625 163.582031 216.632812 163.445312 Z M 220.683594 203.484375 C 220.507812 201.101562 219.628906 198.765625 218.101562 196.964844 C 216.980469 195.644531 215.632812 194.558594 214.460938 193.292969 C 213.585938 192.347656 212.683594 191.113281 212.402344 189.796875 C 212.695312 188.03125 213.828125 186.398438 215.101562 185 C 215.933594 184.460938 216.824219 184.007812 217.570312 183.558594 C 219.804688 182.210938 221.792969 180.5 222.027344 177.722656 C 222.152344 176.226562 221.789062 174.699219 221.007812 173.417969 C 220.257812 172.183594 219.0625 171.347656 218.015625 170.386719 C 217.046875 169.492188 216.097656 168.332031 216.746094 166.964844 C 217.289062 165.820312 218.46875 165.089844 219.398438 164.292969 C 220.480469 163.363281 221.46875 162.378906 221.882812 160.964844 C 222.359375 159.34375 222.179688 157.582031 221.632812 156.003906 C 220.351562 152.332031 216.898438 150.125 213.90625 147.945312 C 212.402344 146.847656 210.9375 145.648438 209.976562 144.023438 C 209.679688 143.53125 209.449219 143.015625 209.269531 142.484375 C 209.25 142.25 209.246094 142.015625 209.261719 141.78125 C 209.367188 140.078125 210.339844 138.476562 211.144531 137.011719 C 212.421875 134.6875 214.503906 132.578125 215.355469 130.054688 C 215.832031 128.636719 215.382812 127.300781 214.773438 126.003906 C 213.675781 123.667969 212.453125 121.328125 210.597656 119.496094 C 209.300781 118.210938 204.042969 113.09375 202.40625 111.761719 C 200.109375 109.894531 197.316406 108.335938 194.414062 107.648438 C 187.976562 106.132812 180.074219 107.613281 174.132812 110.308594 C 168.210938 112.992188 162.363281 117.699219 160.570312 124.222656 C 160.152344 125.742188 160.003906 127.332031 160.136719 128.902344 C 160.300781 130.820312 161.359375 132.824219 161.039062 134.75 C 160.585938 137.492188 157.445312 138.441406 155.160156 139.09375 C 152.328125 139.902344 149.308594 140.824219 147.175781 142.96875 C 145.039062 145.117188 144.367188 148.476562 145.101562 151.367188 C 145.488281 152.902344 146.386719 154.125 147.214844 155.441406 C 147.566406 156.003906 147.957031 156.636719 148.015625 157.316406 C 148.101562 158.261719 147.589844 159.222656 147.195312 160.050781 C 146.402344 161.726562 145.394531 163.292969 144.179688 164.691406 C 143.042969 166 141.695312 167.058594 140.410156 168.207031 C 138.128906 170.25 136.507812 172.792969 137.320312 175.96875 C 138.21875 179.472656 141.390625 181.566406 143.425781 184.34375 C 144.492188 185.804688 145.398438 187.601562 144.730469 189.425781 C 144.121094 191.09375 142.75 192.378906 141.6875 193.761719 C 139.601562 196.488281 138.085938 199.734375 137.925781 203.203125 C 137.773438 206.546875 138.871094 209.839844 141.390625 212.101562 C 142.726562 213.296875 144.289062 214.195312 145.664062 215.339844 C 146.386719 215.941406 147.066406 216.625 147.589844 217.410156 C 148.1875 218.308594 148.421875 219.152344 148.210938 220.230469 C 147.925781 221.691406 146.972656 222.917969 146.058594 224.09375 C 145.585938 224.699219 145.109375 225.324219 144.726562 225.988281 C 144.386719 226.378906 144.082031 226.808594 143.835938 227.296875 C 142.109375 230.734375 144.632812 233.957031 147.476562 235.714844 C 149.101562 236.722656 151.007812 237.546875 152.246094 239.054688 C 153.320312 240.359375 153.90625 242.28125 152.457031 243.550781 C 151.441406 244.441406 150.042969 244.789062 148.734375 244.960938 C 148.09375 245.046875 147.378906 244.972656 147.863281 245.761719 C 148.214844 246.34375 148.980469 246.761719 149.585938 247.015625 C 150.417969 247.359375 151.316406 247.503906 152.207031 247.648438 C 152.351562 247.671875 152.515625 247.691406 152.65625 247.664062 C 153.328125 247.710938 154.003906 247.667969 154.65625 247.519531 C 157.039062 246.972656 159.082031 245.09375 160.261719 242.980469 C 161.621094 240.550781 160.089844 237.929688 158.378906 236.175781 C 157.101562 234.863281 155.703125 233.152344 156.242188 231.578125 C 156.84375 229.835938 159.242188 229.542969 161.359375 229.28125 C 161.511719 229.265625 161.660156 229.246094 161.804688 229.226562 C 164.109375 228.9375 165.941406 228.199219 167.242188 227.035156 C 168.921875 225.53125 169.632812 223.261719 169.007812 221.382812 C 168.46875 219.75 167.109375 218.675781 165.792969 217.640625 C 164.476562 216.59375 163.230469 215.609375 162.921875 214.167969 C 162.441406 211.921875 164.601562 209.785156 166.988281 208.839844 C 167.792969 208.519531 168.660156 208.265625 169.496094 208.015625 C 171.257812 207.496094 173.078125 206.960938 174.574219 205.785156 C 175.441406 205.105469 176.15625 204.21875 176.691406 203.210938 C 178.089844 201.941406 179.078125 200.226562 179.601562 198.402344 C 180.230469 196.195312 180.222656 193.84375 179.835938 191.582031 C 179.707031 190.851562 179.542969 190.125 179.273438 189.433594 C 181.167969 191.03125 183.269531 192.382812 185.550781 193.214844 C 187.925781 194.078125 190.441406 194.089844 192.820312 193.242188 C 195.316406 192.355469 197.59375 190.714844 199.609375 189.027344 C 204.058594 185.296875 207.644531 180.394531 209.800781 175 C 210.15625 174.121094 210.46875 173.226562 210.753906 172.324219 C 210.976562 172.0625 211.160156 171.765625 211.414062 171.53125 C 211.730469 171.238281 212.128906 171.074219 212.542969 170.933594 C 212.429688 171.15625 212.363281 171.40625 212.363281 171.675781 C 212.363281 171.898438 212.40625 172.105469 212.484375 172.300781 C 211.769531 172.765625 211.066406 173.582031 210.78125 174.121094 C 210.308594 175.015625 209.992188 176.207031 210.28125 177.183594 C 210.84375 179.050781 212.976562 180.875 215.109375 180.398438 C 216.960938 179.984375 218.257812 178.175781 218.339844 176.324219 C 218.429688 174.460938 217.304688 172.816406 215.605469 172.140625 C 215.648438 171.992188 215.671875 171.835938 215.671875 171.675781 C 215.671875 170.871094 215.097656 170.199219 214.332031 170.050781 C 214.886719 169.582031 215.3125 168.984375 215.648438 168.339844 C 215.980469 171.023438 218.84375 172.199219 220.21875 174.292969 C 221.121094 175.660156 221.382812 177.507812 220.640625 179.011719 C 220.109375 180.089844 219.136719 180.898438 218.152344 181.554688 C 217.484375 182 216.765625 182.402344 216.046875 182.8125 C 215.675781 183.003906 215.304688 183.210938 214.949219 183.441406 C 214.679688 183.617188 214.414062 183.804688 214.148438 184.003906 C 213.769531 184.277344 213.410156 184.570312 213.074219 184.894531 C 209.902344 187.808594 207.675781 192.398438 209.839844 196.578125 C 211.558594 199.882812 215.496094 201.394531 217.078125 204.773438 C 218.207031 207.179688 217.863281 209.929688 216.824219 212.449219 C 216.929688 212.351562 217.03125 212.25 217.132812 212.148438 C 217.171875 212.234375 217.238281 212.28125 217.328125 212.203125 C 218.925781 210.84375 219.9375 209.019531 220.410156 207.042969 C 220.75 205.90625 220.867188 204.707031 220.683594 203.484375 " fill-opacity="1" fill-rule="nonzero"/></g><path fill="#000000" d="M 194.566406 117.171875 C 193.339844 116.480469 192.03125 115.933594 190.679688 115.519531 C 189.328125 115.117188 187.925781 114.859375 186.511719 114.765625 C 183.683594 114.5625 180.785156 115.042969 178.183594 116.226562 C 175.582031 117.410156 173.308594 119.257812 171.519531 121.476562 C 169.746094 123.703125 168.449219 126.320312 167.796875 129.097656 C 167.710938 129.445312 167.652344 129.796875 167.582031 130.144531 C 167.53125 130.5 167.46875 130.851562 167.4375 131.207031 C 167.351562 131.914062 167.328125 132.628906 167.332031 133.339844 L 167.34375 133.875 C 167.355469 134.054688 167.371094 134.234375 167.382812 134.410156 C 167.402344 134.765625 167.449219 135.117188 167.488281 135.46875 C 167.582031 136.164062 167.691406 136.851562 167.769531 137.53125 C 167.851562 138.210938 167.898438 138.890625 167.867188 139.558594 C 167.839844 140.226562 167.714844 140.878906 167.5 141.507812 C 167.0625 142.765625 166.214844 143.863281 165.167969 144.730469 C 164.132812 145.617188 162.917969 146.296875 161.667969 146.878906 C 160.410156 147.460938 159.105469 147.941406 157.785156 148.386719 C 158.460938 148.210938 159.128906 148.023438 159.796875 147.820312 C 160.460938 147.609375 161.121094 147.378906 161.769531 147.121094 C 162.421875 146.863281 163.058594 146.570312 163.679688 146.234375 C 164.296875 145.902344 164.898438 145.527344 165.460938 145.09375 C 166.585938 144.230469 167.550781 143.085938 168.082031 141.722656 C 168.347656 141.046875 168.5 140.320312 168.546875 139.597656 C 168.601562 138.875 168.566406 138.160156 168.503906 137.457031 C 168.441406 136.753906 168.347656 136.058594 168.277344 135.375 C 168.246094 135.035156 168.203125 134.691406 168.191406 134.355469 C 168.183594 134.183594 168.171875 134.015625 168.164062 133.847656 L 168.160156 133.335938 C 168.164062 132.65625 168.203125 131.980469 168.292969 131.308594 C 168.328125 130.96875 168.394531 130.636719 168.449219 130.300781 C 168.519531 129.96875 168.578125 129.632812 168.667969 129.304688 C 169.3125 126.671875 170.554688 124.179688 172.257812 122.066406 C 173.945312 119.941406 176.105469 118.1875 178.554688 117.035156 C 179.167969 116.75 179.796875 116.5 180.441406 116.289062 C 181.089844 116.089844 181.742188 115.90625 182.410156 115.789062 C 183.078125 115.664062 183.753906 115.574219 184.429688 115.53125 C 184.769531 115.5 185.109375 115.496094 185.449219 115.484375 C 185.789062 115.488281 186.132812 115.476562 186.472656 115.5 C 189.191406 115.617188 191.902344 116.328125 194.347656 117.578125 C 196.800781 118.820312 198.992188 120.613281 200.65625 122.84375 C 199.160156 120.488281 197.015625 118.554688 194.566406 117.171875 " fill-opacity="1" fill-rule="nonzero"/><path fill="#000000" d="M 198.320312 189.375 C 196.679688 190.800781 194.824219 192.042969 192.742188 192.71875 C 191.753906 193.042969 191.046875 193 190.050781 192.953125 C 188.957031 192.90625 185.527344 193.117188 184.503906 192.652344 C 187.421875 193.980469 192.414062 195.027344 195.601562 194.710938 C 197.414062 194.53125 200.425781 193.355469 200.292969 195.203125 C 200.265625 195.605469 200.089844 196.136719 199.730469 196.832031 C 198.078125 200.027344 194.769531 206.421875 194.769531 206.421875 C 194.769531 206.421875 201.199219 200.050781 202.253906 198.394531 C 203.894531 195.820312 205.382812 192.824219 205.820312 189.796875 C 206.324219 186.269531 207.417969 181.125 208.527344 177.714844 C 204.011719 184.910156 201.738281 186.414062 198.320312 189.375 " fill-opacity="1" fill-rule="nonzero"/><g fill="#000000" fill-opacity="1"><g transform="translate(97.822614, 261.960333)"><g><path d="M 0.957031 0 L 9.519531 0 L 9.84375 -3.660156 L 9.652344 -3.660156 C 9.519531 -1.667969 7.414062 -0.191406 5.191406 -0.191406 L 3.851562 -0.191406 L 3.851562 -10.726562 L 0.957031 -10.726562 Z M 0.957031 0 "/></g></g></g><g fill="#000000" fill-opacity="1"><g transform="translate(108.622346, 261.960333)"><g><path d="M 2.777344 0.191406 C 3.8125 0.191406 4.867188 -0.59375 5.304688 -1.320312 C 5.402344 -0.460938 6.109375 0.191406 7.011719 0.191406 C 8.007812 0.191406 8.8125 -0.613281 8.8125 -1.609375 L 8.65625 -1.628906 C 8.621094 -1.074219 8.523438 -0.976562 8.390625 -0.976562 C 8.140625 -0.976562 8.082031 -1.285156 8.082031 -1.628906 L 8.082031 -4.808594 C 8.082031 -5.765625 7.679688 -6.511719 7.03125 -7.050781 C 6.28125 -7.660156 5.269531 -7.988281 4.042969 -7.988281 C 2.261719 -7.988281 0.824219 -7.066406 0.824219 -5.898438 C 0.824219 -5.191406 1.265625 -4.464844 2.261719 -4.558594 C 2.875 -4.617188 3.332031 -5.152344 3.332031 -5.515625 C 3.332031 -5.515625 2.71875 -5.667969 2.71875 -6.570312 C 2.71875 -7.46875 3.332031 -7.777344 4.023438 -7.777344 C 4.730469 -7.777344 5.285156 -7.296875 5.285156 -6.398438 L 5.285156 -5.019531 C 2.625 -3.753906 0.480469 -3.621094 0.480469 -1.648438 C 0.480469 -0.613281 1.457031 0.191406 2.777344 0.191406 Z M 4.0625 -0.898438 C 3.523438 -0.898438 3.140625 -1.457031 3.140625 -2.050781 C 3.140625 -3.410156 3.964844 -4.078125 5.285156 -4.847656 L 5.285156 -1.511719 C 4.960938 -1.109375 4.578125 -0.898438 4.0625 -0.898438 Z M 4.0625 -0.898438 "/></g></g></g><g fill="#000000" fill-opacity="1"><g transform="translate(117.909352, 261.960333)"><g/></g></g><g fill="#000000" fill-opacity="1"><g transform="translate(121.796486, 261.960333)"><g><path d="M 0 -7.625 L 1.207031 -7.625 L 1.207031 0 L 4.003906 0 L 4.003906 -7.625 L 5.171875 -7.625 L 5.171875 -7.816406 L 4.003906 -7.816406 L 4.003906 -10.898438 C 4.003906 -11.800781 4.558594 -12.277344 5.269531 -12.277344 C 5.957031 -12.277344 6.511719 -11.800781 6.511719 -10.898438 C 6.511719 -9.730469 5.707031 -9.519531 5.707031 -9.519531 C 5.707031 -9.042969 6.089844 -8.273438 6.875 -8.273438 C 8.007812 -8.273438 8.621094 -9.097656 8.621094 -10.019531 C 8.621094 -11.398438 7.03125 -12.488281 5.25 -12.488281 C 4.023438 -12.488281 3.007812 -12.164062 2.261719 -11.550781 C 1.609375 -11.015625 1.207031 -10.265625 1.207031 -9.308594 L 1.207031 -7.816406 L 0 -7.816406 Z M 0 -7.625 "/></g></g></g><g fill="#000000" fill-opacity="1"><g transform="translate(130.892009, 261.960333)"><g><path d="M 4.730469 0.191406 C 6.78125 0.191406 8.046875 -1.226562 8.449219 -3.082031 L 8.238281 -3.121094 C 7.835938 -1.914062 6.914062 -1.074219 5.84375 -1.074219 C 4.386719 -1.074219 3.332031 -2.433594 3.238281 -4.867188 L 8.21875 -4.867188 C 8.21875 -6.875 6.78125 -8.027344 4.730469 -8.027344 C 2.394531 -8.027344 0.480469 -6.1875 0.480469 -3.925781 C 0.480469 -1.648438 2.394531 0.191406 4.730469 0.191406 Z M 3.238281 -5.058594 C 3.257812 -6.609375 3.871094 -7.816406 4.617188 -7.816406 C 5.363281 -7.816406 5.652344 -6.609375 5.652344 -5.058594 Z M 3.238281 -5.058594 "/></g></g></g><g fill="#000000" fill-opacity="1"><g transform="translate(139.815196, 261.960333)"><g><path d="M 0.957031 0 L 3.753906 0 L 3.753906 -6.035156 C 3.984375 -6.359375 4.519531 -6.914062 4.671875 -7.050781 C 5.382812 -7.660156 6.089844 -7.546875 6.089844 -6.492188 L 6.089844 0 L 8.886719 0 L 8.886719 -6.320312 C 9.136719 -6.628906 9.460938 -6.953125 9.578125 -7.050781 C 10.285156 -7.660156 10.996094 -7.546875 10.996094 -6.492188 L 10.996094 0 L 13.792969 0 L 13.792969 -6.4375 C 13.792969 -7.296875 12.910156 -8.121094 11.589844 -8.121094 C 10.441406 -8.121094 9.480469 -7.316406 8.867188 -6.609375 C 8.753906 -7.414062 7.910156 -8.121094 6.683594 -8.121094 C 5.402344 -8.121094 4.328125 -7.105469 3.753906 -6.359375 L 3.753906 -7.816406 L 0.957031 -7.816406 Z M 0.957031 0 "/></g></g></g><g fill="#000000" fill-opacity="1"><g transform="translate(154.559511, 261.960333)"><g><path d="M 0.957031 0 L 3.753906 0 L 3.753906 -6.035156 C 3.984375 -6.359375 4.519531 -6.914062 4.671875 -7.050781 C 5.382812 -7.660156 6.089844 -7.546875 6.089844 -6.492188 L 6.089844 0 L 8.886719 0 L 8.886719 -6.320312 C 9.136719 -6.628906 9.460938 -6.953125 9.578125 -7.050781 C 10.285156 -7.660156 10.996094 -7.546875 10.996094 -6.492188 L 10.996094 0 L 13.792969 0 L 13.792969 -6.4375 C 13.792969 -7.296875 12.910156 -8.121094 11.589844 -8.121094 C 10.441406 -8.121094 9.480469 -7.316406 8.867188 -6.609375 C 8.753906 -7.414062 7.910156 -8.121094 6.683594 -8.121094 C 5.402344 -8.121094 4.328125 -7.105469 3.753906 -6.359375 L 3.753906 -7.816406 L 0.957031 -7.816406 Z M 0.957031 0 "/></g></g></g><g fill="#000000" fill-opacity="1"><g transform="translate(169.303826, 261.960333)"><g><path d="M 4.730469 0.191406 C 6.78125 0.191406 8.046875 -1.226562 8.449219 -3.082031 L 8.238281 -3.121094 C 7.835938 -1.914062 6.914062 -1.074219 5.84375 -1.074219 C 4.386719 -1.074219 3.332031 -2.433594 3.238281 -4.867188 L 8.21875 -4.867188 C 8.21875 -6.875 6.78125 -8.027344 4.730469 -8.027344 C 2.394531 -8.027344 0.480469 -6.1875 0.480469 -3.925781 C 0.480469 -1.648438 2.394531 0.191406 4.730469 0.191406 Z M 3.238281 -5.058594 C 3.257812 -6.609375 3.871094 -7.816406 4.617188 -7.816406 C 5.363281 -7.816406 5.652344 -6.609375 5.652344 -5.058594 Z M 3.238281 -5.058594 "/></g></g></g><g fill="#000000" fill-opacity="1"><g transform="translate(178.227013, 261.960333)"><g/></g></g><g fill="#000000" fill-opacity="1"><g transform="translate(182.114147, 261.960333)"><g><path d="M 2.777344 0.191406 C 3.8125 0.191406 4.867188 -0.59375 5.304688 -1.320312 C 5.402344 -0.460938 6.109375 0.191406 7.011719 0.191406 C 8.007812 0.191406 8.8125 -0.613281 8.8125 -1.609375 L 8.65625 -1.628906 C 8.621094 -1.074219 8.523438 -0.976562 8.390625 -0.976562 C 8.140625 -0.976562 8.082031 -1.285156 8.082031 -1.628906 L 8.082031 -4.808594 C 8.082031 -5.765625 7.679688 -6.511719 7.03125 -7.050781 C 6.28125 -7.660156 5.269531 -7.988281 4.042969 -7.988281 C 2.261719 -7.988281 0.824219 -7.066406 0.824219 -5.898438 C 0.824219 -5.191406 1.265625 -4.464844 2.261719 -4.558594 C 2.875 -4.617188 3.332031 -5.152344 3.332031 -5.515625 C 3.332031 -5.515625 2.71875 -5.667969 2.71875 -6.570312 C 2.71875 -7.46875 3.332031 -7.777344 4.023438 -7.777344 C 4.730469 -7.777344 5.285156 -7.296875 5.285156 -6.398438 L 5.285156 -5.019531 C 2.625 -3.753906 0.480469 -3.621094 0.480469 -1.648438 C 0.480469 -0.613281 1.457031 0.191406 2.777344 0.191406 Z M 4.0625 -0.898438 C 3.523438 -0.898438 3.140625 -1.457031 3.140625 -2.050781 C 3.140625 -3.410156 3.964844 -4.078125 5.285156 -4.847656 L 5.285156 -1.511719 C 4.960938 -1.109375 4.578125 -0.898438 4.0625 -0.898438 Z M 4.0625 -0.898438 "/></g></g></g><g fill="#000000" fill-opacity="1"><g transform="translate(191.401153, 261.960333)"><g><path d="M 3.160156 0.191406 C 4.445312 0.191406 5.515625 -0.824219 6.089844 -1.570312 L 6.089844 -1.53125 C 6.089844 -0.574219 6.839844 0.191406 7.816406 0.191406 C 8.8125 0.191406 9.617188 -0.613281 9.617188 -1.609375 L 9.460938 -1.628906 C 9.425781 -1.074219 9.328125 -0.976562 9.195312 -0.976562 C 8.945312 -0.976562 8.886719 -1.285156 8.886719 -1.628906 L 8.886719 -7.816406 L 6.089844 -7.816406 L 6.089844 -1.894531 C 5.863281 -1.570312 5.324219 -1.015625 5.171875 -0.882812 C 4.464844 -0.269531 3.753906 -0.382812 3.753906 -1.4375 L 3.753906 -7.816406 L 0.957031 -7.816406 L 0.957031 -1.492188 C 0.957031 -0.632812 1.839844 0.191406 3.160156 0.191406 Z M 3.160156 0.191406 "/></g></g></g><g fill="#000000" fill-opacity="1"><g transform="translate(201.492392, 261.960333)"><g/></g></g><g fill="#000000" fill-opacity="1"><g transform="translate(205.379526, 261.960333)"><g><path d="M 5.613281 4.042969 L 8.390625 4.042969 L 8.390625 -7.835938 C 8.140625 -7.738281 7.625 -7.566406 6.953125 -7.625 C 5.707031 -7.738281 5.632812 -8.007812 4.445312 -8.007812 C 2.183594 -8.007812 0.480469 -6.417969 0.480469 -3.792969 C 0.480469 -1.570312 2.125 0.132812 4.214844 0.132812 C 4.769531 0.132812 5.324219 -0.0390625 5.613281 -0.304688 Z M 4.710938 -0.132812 C 3.695312 -0.132812 3.351562 -1.6875 3.351562 -3.792969 C 3.351562 -5.898438 3.773438 -7.796875 4.710938 -7.796875 C 5.230469 -7.796875 5.613281 -7.355469 5.613281 -6.648438 L 5.613281 -0.632812 C 5.363281 -0.324219 5.019531 -0.132812 4.710938 -0.132812 Z M 4.710938 -0.132812 "/></g></g></g><g fill="#000000" fill-opacity="1"><g transform="translate(214.723981, 261.960333)"><g><path d="M 3.160156 0.191406 C 4.445312 0.191406 5.515625 -0.824219 6.089844 -1.570312 L 6.089844 -1.53125 C 6.089844 -0.574219 6.839844 0.191406 7.816406 0.191406 C 8.8125 0.191406 9.617188 -0.613281 9.617188 -1.609375 L 9.460938 -1.628906 C 9.425781 -1.074219 9.328125 -0.976562 9.195312 -0.976562 C 8.945312 -0.976562 8.886719 -1.285156 8.886719 -1.628906 L 8.886719 -7.816406 L 6.089844 -7.816406 L 6.089844 -1.894531 C 5.863281 -1.570312 5.324219 -1.015625 5.171875 -0.882812 C 4.464844 -0.269531 3.753906 -0.382812 3.753906 -1.4375 L 3.753906 -7.816406 L 0.957031 -7.816406 L 0.957031 -1.492188 C 0.957031 -0.632812 1.839844 0.191406 3.160156 0.191406 Z M 3.160156 0.191406 "/></g></g></g><g fill="#000000" fill-opacity="1"><g transform="translate(224.815221, 261.960333)"><g><path d="M 4.710938 0.191406 C 7.050781 0.191406 8.945312 -1.628906 8.945312 -3.90625 C 8.945312 -6.167969 7.050781 -7.988281 4.710938 -7.988281 C 2.375 -7.988281 0.480469 -6.167969 0.480469 -3.90625 C 0.480469 -1.628906 2.375 0.191406 4.710938 0.191406 Z M 4.710938 0 C 3.660156 0 3.277344 -1.6875 3.277344 -3.90625 C 3.277344 -6.128906 3.660156 -7.816406 4.710938 -7.816406 C 5.707031 -7.816406 6.148438 -6.128906 6.148438 -3.90625 C 6.148438 -1.6875 5.785156 0 4.710938 0 Z M 4.710938 0 "/></g></g></g><g fill="#000000" fill-opacity="1"><g transform="translate(234.236271, 261.960333)"><g><path d="M 4.347656 -7.625 L 4.347656 -7.816406 L 3.621094 -7.816406 L 3.621094 -10.535156 L 3.429688 -10.535156 C 3.429688 -8.945312 2.507812 -7.855469 0.976562 -7.816406 L 0 -7.816406 L 0 -7.625 L 0.824219 -7.625 L 0.824219 -1.53125 C 0.824219 -0.574219 1.570312 0.191406 2.546875 0.191406 C 3.542969 0.191406 4.347656 -0.613281 4.347656 -1.609375 L 4.195312 -1.628906 C 4.15625 -1.074219 4.0625 -0.976562 3.925781 -0.976562 C 3.679688 -0.976562 3.621094 -1.285156 3.621094 -1.628906 L 3.621094 -7.625 Z M 4.347656 -7.625 "/></g></g></g><g fill="#000000" fill-opacity="1"><g transform="translate(239.061684, 261.960333)"><g><path d="M 2.453125 -8.867188 C 3.292969 -8.867188 3.964844 -9.539062 3.964844 -10.382812 C 3.964844 -11.207031 3.292969 -11.875 2.453125 -11.875 C 1.628906 -11.875 0.957031 -11.207031 0.957031 -10.382812 C 0.957031 -9.539062 1.628906 -8.867188 2.453125 -8.867188 Z M 1.054688 0 L 3.851562 0 L 3.851562 -7.796875 L 1.054688 -7.816406 Z M 1.054688 0 "/></g></g></g><g fill="#000000" fill-opacity="1"><g transform="translate(243.982837, 261.960333)"><g><path d="M 3.714844 0.191406 C 4.480469 0.191406 5.171875 -0.0195312 5.726562 -0.59375 L 5.726562 0 L 8.523438 0 L 8.523438 -11.875 L 5.726562 -11.875 L 5.726562 -7.050781 C 5.171875 -7.625 4.480469 -7.96875 3.714844 -7.96875 C 1.933594 -7.96875 0.480469 -6.109375 0.480469 -3.8125 C 0.480469 -1.53125 1.933594 0.191406 3.714844 0.191406 Z M 4.617188 -0.191406 C 3.695312 -0.191406 3.292969 -1.761719 3.292969 -3.8125 C 3.292969 -5.878906 3.640625 -7.453125 4.617188 -7.453125 C 5.074219 -7.453125 5.460938 -7.085938 5.726562 -6.492188 L 5.726562 -1.148438 C 5.460938 -0.554688 5.074219 -0.191406 4.617188 -0.191406 Z M 4.617188 -0.191406 "/></g></g></g><g fill="#000000" fill-opacity="1"><g transform="translate(253.461326, 261.960333)"><g><path d="M 2.453125 -8.867188 C 3.292969 -8.867188 3.964844 -9.539062 3.964844 -10.382812 C 3.964844 -11.207031 3.292969 -11.875 2.453125 -11.875 C 1.628906 -11.875 0.957031 -11.207031 0.957031 -10.382812 C 0.957031 -9.539062 1.628906 -8.867188 2.453125 -8.867188 Z M 1.054688 0 L 3.851562 0 L 3.851562 -7.796875 L 1.054688 -7.816406 Z M 1.054688 0 "/></g></g></g><g fill="#000000" fill-opacity="1"><g transform="translate(258.382479, 261.960333)"><g><path d="M 4.730469 0.191406 C 6.78125 0.191406 8.046875 -1.226562 8.449219 -3.082031 L 8.238281 -3.121094 C 7.835938 -1.914062 6.914062 -1.074219 5.84375 -1.074219 C 4.386719 -1.074219 3.332031 -2.433594 3.238281 -4.867188 L 8.21875 -4.867188 C 8.21875 -6.875 6.78125 -8.027344 4.730469 -8.027344 C 2.394531 -8.027344 0.480469 -6.1875 0.480469 -3.925781 C 0.480469 -1.648438 2.394531 0.191406 4.730469 0.191406 Z M 3.238281 -5.058594 C 3.257812 -6.609375 3.871094 -7.816406 4.617188 -7.816406 C 5.363281 -7.816406 5.652344 -6.609375 5.652344 -5.058594 Z M 3.238281 -5.058594 "/></g></g></g><g fill="#000000" fill-opacity="1"><g transform="translate(267.305666, 261.960333)"><g><path d="M 0.957031 0 L 3.753906 0 L 3.753906 -6.035156 C 3.984375 -6.359375 4.519531 -6.914062 4.671875 -7.050781 C 5.382812 -7.660156 6.089844 -7.546875 6.089844 -6.492188 L 6.089844 0 L 8.886719 0 L 8.886719 -6.4375 C 8.886719 -7.296875 8.007812 -8.121094 6.683594 -8.121094 C 5.402344 -8.121094 4.328125 -7.105469 3.753906 -6.359375 L 3.753906 -7.816406 L 0.957031 -7.816406 Z M 0.957031 0 "/></g></g></g><g fill="#000000" fill-opacity="1"><g transform="translate(125.865333, 277.867014)"><g><path d="M 0.734375 -4.296875 C 0.585938 -4.546875 0.488281 -4.800781 0.4375 -5.0625 C 0.382812 -5.332031 0.378906 -5.59375 0.421875 -5.84375 C 0.460938 -6.101562 0.550781 -6.347656 0.6875 -6.578125 C 0.820312 -6.816406 1.003906 -7.035156 1.234375 -7.234375 L 1.59375 -7.015625 C 1.65625 -6.972656 1.679688 -6.921875 1.671875 -6.859375 C 1.671875 -6.796875 1.65625 -6.75 1.625 -6.71875 C 1.5625 -6.644531 1.5 -6.539062 1.4375 -6.40625 C 1.375 -6.28125 1.332031 -6.140625 1.3125 -5.984375 C 1.289062 -5.828125 1.289062 -5.660156 1.3125 -5.484375 C 1.34375 -5.304688 1.414062 -5.128906 1.53125 -4.953125 C 1.582031 -4.859375 1.59375 -4.773438 1.5625 -4.703125 C 1.539062 -4.640625 1.492188 -4.597656 1.421875 -4.578125 Z M 0.734375 -4.296875 "/></g></g></g><g fill="#000000" fill-opacity="1"><g transform="translate(128.298712, 277.867014)"><g><path d="M 4.28125 -2.53125 L 3.46875 -4.75 C 3.425781 -4.851562 3.382812 -4.972656 3.34375 -5.109375 C 3.300781 -5.242188 3.257812 -5.390625 3.21875 -5.546875 C 3.175781 -5.390625 3.132812 -5.242188 3.09375 -5.109375 C 3.050781 -4.972656 3.007812 -4.851562 2.96875 -4.75 L 2.15625 -2.53125 Z M 6.484375 0 L 5.515625 0 C 5.410156 0 5.320312 -0.0234375 5.25 -0.078125 C 5.1875 -0.128906 5.140625 -0.195312 5.109375 -0.28125 L 4.609375 -1.65625 L 1.828125 -1.65625 L 1.328125 -0.28125 C 1.304688 -0.207031 1.257812 -0.140625 1.1875 -0.078125 C 1.113281 -0.0234375 1.023438 0 0.921875 0 L -0.046875 0 L 2.578125 -6.703125 L 3.859375 -6.703125 Z M 6.484375 0 "/></g></g></g><g fill="#000000" fill-opacity="1"><g transform="translate(135.125765, 277.867014)"><g><path d="M 4.3125 -5.484375 C 4.269531 -5.421875 4.226562 -5.375 4.1875 -5.34375 C 4.144531 -5.3125 4.097656 -5.296875 4.046875 -5.296875 C 3.972656 -5.296875 3.898438 -5.316406 3.828125 -5.359375 C 3.753906 -5.410156 3.664062 -5.460938 3.5625 -5.515625 C 3.457031 -5.578125 3.332031 -5.632812 3.1875 -5.6875 C 3.050781 -5.738281 2.882812 -5.765625 2.6875 -5.765625 C 2.519531 -5.765625 2.367188 -5.742188 2.234375 -5.703125 C 2.109375 -5.660156 2 -5.597656 1.90625 -5.515625 C 1.820312 -5.441406 1.757812 -5.351562 1.71875 -5.25 C 1.675781 -5.144531 1.65625 -5.035156 1.65625 -4.921875 C 1.65625 -4.753906 1.695312 -4.617188 1.78125 -4.515625 C 1.863281 -4.410156 1.976562 -4.320312 2.125 -4.25 C 2.269531 -4.175781 2.4375 -4.109375 2.625 -4.046875 C 2.8125 -3.992188 3 -3.929688 3.1875 -3.859375 C 3.382812 -3.796875 3.578125 -3.71875 3.765625 -3.625 C 3.953125 -3.539062 4.117188 -3.429688 4.265625 -3.296875 C 4.410156 -3.160156 4.523438 -2.992188 4.609375 -2.796875 C 4.703125 -2.609375 4.75 -2.375 4.75 -2.09375 C 4.75 -1.789062 4.695312 -1.507812 4.59375 -1.25 C 4.488281 -0.988281 4.332031 -0.757812 4.125 -0.5625 C 3.925781 -0.363281 3.679688 -0.207031 3.390625 -0.09375 C 3.109375 0.0195312 2.785156 0.078125 2.421875 0.078125 C 2.203125 0.078125 1.988281 0.0546875 1.78125 0.015625 C 1.582031 -0.0234375 1.382812 -0.0820312 1.1875 -0.15625 C 1 -0.238281 0.820312 -0.332031 0.65625 -0.4375 C 0.488281 -0.550781 0.34375 -0.675781 0.21875 -0.8125 L 0.578125 -1.40625 C 0.609375 -1.445312 0.648438 -1.484375 0.703125 -1.515625 C 0.753906 -1.546875 0.804688 -1.5625 0.859375 -1.5625 C 0.929688 -1.5625 1.007812 -1.523438 1.09375 -1.453125 C 1.1875 -1.390625 1.296875 -1.320312 1.421875 -1.25 C 1.546875 -1.175781 1.691406 -1.101562 1.859375 -1.03125 C 2.023438 -0.96875 2.222656 -0.9375 2.453125 -0.9375 C 2.804688 -0.9375 3.082031 -1.019531 3.28125 -1.1875 C 3.476562 -1.363281 3.578125 -1.609375 3.578125 -1.921875 C 3.578125 -2.097656 3.53125 -2.238281 3.4375 -2.34375 C 3.351562 -2.457031 3.238281 -2.550781 3.09375 -2.625 C 2.945312 -2.707031 2.78125 -2.773438 2.59375 -2.828125 C 2.40625 -2.878906 2.210938 -2.9375 2.015625 -3 C 1.828125 -3.0625 1.640625 -3.132812 1.453125 -3.21875 C 1.273438 -3.300781 1.113281 -3.410156 0.96875 -3.546875 C 0.820312 -3.691406 0.703125 -3.867188 0.609375 -4.078125 C 0.523438 -4.285156 0.484375 -4.539062 0.484375 -4.84375 C 0.484375 -5.09375 0.53125 -5.332031 0.625 -5.5625 C 0.726562 -5.789062 0.867188 -5.992188 1.046875 -6.171875 C 1.234375 -6.359375 1.460938 -6.503906 1.734375 -6.609375 C 2.015625 -6.710938 2.328125 -6.765625 2.671875 -6.765625 C 3.066406 -6.765625 3.429688 -6.703125 3.765625 -6.578125 C 4.097656 -6.460938 4.382812 -6.289062 4.625 -6.0625 Z M 4.3125 -5.484375 "/></g></g></g><g fill="#000000" fill-opacity="1"><g transform="translate(140.599497, 277.867014)"><g><path d="M 4.3125 -5.484375 C 4.269531 -5.421875 4.226562 -5.375 4.1875 -5.34375 C 4.144531 -5.3125 4.097656 -5.296875 4.046875 -5.296875 C 3.972656 -5.296875 3.898438 -5.316406 3.828125 -5.359375 C 3.753906 -5.410156 3.664062 -5.460938 3.5625 -5.515625 C 3.457031 -5.578125 3.332031 -5.632812 3.1875 -5.6875 C 3.050781 -5.738281 2.882812 -5.765625 2.6875 -5.765625 C 2.519531 -5.765625 2.367188 -5.742188 2.234375 -5.703125 C 2.109375 -5.660156 2 -5.597656 1.90625 -5.515625 C 1.820312 -5.441406 1.757812 -5.351562 1.71875 -5.25 C 1.675781 -5.144531 1.65625 -5.035156 1.65625 -4.921875 C 1.65625 -4.753906 1.695312 -4.617188 1.78125 -4.515625 C 1.863281 -4.410156 1.976562 -4.320312 2.125 -4.25 C 2.269531 -4.175781 2.4375 -4.109375 2.625 -4.046875 C 2.8125 -3.992188 3 -3.929688 3.1875 -3.859375 C 3.382812 -3.796875 3.578125 -3.71875 3.765625 -3.625 C 3.953125 -3.539062 4.117188 -3.429688 4.265625 -3.296875 C 4.410156 -3.160156 4.523438 -2.992188 4.609375 -2.796875 C 4.703125 -2.609375 4.75 -2.375 4.75 -2.09375 C 4.75 -1.789062 4.695312 -1.507812 4.59375 -1.25 C 4.488281 -0.988281 4.332031 -0.757812 4.125 -0.5625 C 3.925781 -0.363281 3.679688 -0.207031 3.390625 -0.09375 C 3.109375 0.0195312 2.785156 0.078125 2.421875 0.078125 C 2.203125 0.078125 1.988281 0.0546875 1.78125 0.015625 C 1.582031 -0.0234375 1.382812 -0.0820312 1.1875 -0.15625 C 1 -0.238281 0.820312 -0.332031 0.65625 -0.4375 C 0.488281 -0.550781 0.34375 -0.675781 0.21875 -0.8125 L 0.578125 -1.40625 C 0.609375 -1.445312 0.648438 -1.484375 0.703125 -1.515625 C 0.753906 -1.546875 0.804688 -1.5625 0.859375 -1.5625 C 0.929688 -1.5625 1.007812 -1.523438 1.09375 -1.453125 C 1.1875 -1.390625 1.296875 -1.320312 1.421875 -1.25 C 1.546875 -1.175781 1.691406 -1.101562 1.859375 -1.03125 C 2.023438 -0.96875 2.222656 -0.9375 2.453125 -0.9375 C 2.804688 -0.9375 3.082031 -1.019531 3.28125 -1.1875 C 3.476562 -1.363281 3.578125 -1.609375 3.578125 -1.921875 C 3.578125 -2.097656 3.53125 -2.238281 3.4375 -2.34375 C 3.351562 -2.457031 3.238281 -2.550781 3.09375 -2.625 C 2.945312 -2.707031 2.78125 -2.773438 2.59375 -2.828125 C 2.40625 -2.878906 2.210938 -2.9375 2.015625 -3 C 1.828125 -3.0625 1.640625 -3.132812 1.453125 -3.21875 C 1.273438 -3.300781 1.113281 -3.410156 0.96875 -3.546875 C 0.820312 -3.691406 0.703125 -3.867188 0.609375 -4.078125 C 0.523438 -4.285156 0.484375 -4.539062 0.484375 -4.84375 C 0.484375 -5.09375 0.53125 -5.332031 0.625 -5.5625 C 0.726562 -5.789062 0.867188 -5.992188 1.046875 -6.171875 C 1.234375 -6.359375 1.460938 -6.503906 1.734375 -6.609375 C 2.015625 -6.710938 2.328125 -6.765625 2.671875 -6.765625 C 3.066406 -6.765625 3.429688 -6.703125 3.765625 -6.578125 C 4.097656 -6.460938 4.382812 -6.289062 4.625 -6.0625 Z M 4.3125 -5.484375 "/></g></g></g><g fill="#000000" fill-opacity="1"><g transform="translate(146.073228, 277.867014)"><g><path d="M 7.140625 -3.34375 C 7.140625 -2.851562 7.054688 -2.398438 6.890625 -1.984375 C 6.722656 -1.566406 6.492188 -1.203125 6.203125 -0.890625 C 5.910156 -0.585938 5.550781 -0.347656 5.125 -0.171875 C 4.707031 -0.00390625 4.25 0.078125 3.75 0.078125 C 3.238281 0.078125 2.773438 -0.00390625 2.359375 -0.171875 C 1.941406 -0.347656 1.582031 -0.585938 1.28125 -0.890625 C 0.988281 -1.203125 0.757812 -1.566406 0.59375 -1.984375 C 0.425781 -2.398438 0.34375 -2.851562 0.34375 -3.34375 C 0.34375 -3.84375 0.425781 -4.300781 0.59375 -4.71875 C 0.757812 -5.132812 0.988281 -5.492188 1.28125 -5.796875 C 1.582031 -6.109375 1.941406 -6.347656 2.359375 -6.515625 C 2.773438 -6.679688 3.238281 -6.765625 3.75 -6.765625 C 4.082031 -6.765625 4.398438 -6.722656 4.703125 -6.640625 C 5.003906 -6.566406 5.28125 -6.457031 5.53125 -6.3125 C 5.78125 -6.175781 6.003906 -6.003906 6.203125 -5.796875 C 6.398438 -5.585938 6.566406 -5.359375 6.703125 -5.109375 C 6.847656 -4.859375 6.957031 -4.582031 7.03125 -4.28125 C 7.101562 -3.988281 7.140625 -3.675781 7.140625 -3.34375 Z M 5.859375 -3.34375 C 5.859375 -3.71875 5.804688 -4.050781 5.703125 -4.34375 C 5.609375 -4.632812 5.46875 -4.878906 5.28125 -5.078125 C 5.101562 -5.285156 4.882812 -5.441406 4.625 -5.546875 C 4.363281 -5.660156 4.070312 -5.71875 3.75 -5.71875 C 3.414062 -5.71875 3.117188 -5.660156 2.859375 -5.546875 C 2.597656 -5.441406 2.375 -5.285156 2.1875 -5.078125 C 2.007812 -4.878906 1.867188 -4.632812 1.765625 -4.34375 C 1.671875 -4.050781 1.625 -3.71875 1.625 -3.34375 C 1.625 -2.976562 1.671875 -2.648438 1.765625 -2.359375 C 1.867188 -2.066406 2.007812 -1.816406 2.1875 -1.609375 C 2.375 -1.410156 2.597656 -1.253906 2.859375 -1.140625 C 3.117188 -1.035156 3.414062 -0.984375 3.75 -0.984375 C 4.070312 -0.984375 4.363281 -1.035156 4.625 -1.140625 C 4.882812 -1.253906 5.101562 -1.410156 5.28125 -1.609375 C 5.46875 -1.816406 5.609375 -2.066406 5.703125 -2.359375 C 5.804688 -2.648438 5.859375 -2.976562 5.859375 -3.34375 Z M 5.859375 -3.34375 "/></g></g></g><g fill="#000000" fill-opacity="1"><g transform="translate(153.952359, 277.867014)"><g><path d="M 5.34375 -1.578125 C 5.414062 -1.578125 5.476562 -1.550781 5.53125 -1.5 L 6.015625 -0.96875 C 5.742188 -0.632812 5.410156 -0.375 5.015625 -0.1875 C 4.617188 -0.0078125 4.140625 0.078125 3.578125 0.078125 C 3.085938 0.078125 2.644531 -0.00390625 2.25 -0.171875 C 1.851562 -0.347656 1.515625 -0.585938 1.234375 -0.890625 C 0.953125 -1.191406 0.734375 -1.550781 0.578125 -1.96875 C 0.429688 -2.394531 0.359375 -2.851562 0.359375 -3.34375 C 0.359375 -3.851562 0.4375 -4.316406 0.59375 -4.734375 C 0.757812 -5.148438 0.988281 -5.507812 1.28125 -5.8125 C 1.570312 -6.113281 1.914062 -6.347656 2.3125 -6.515625 C 2.71875 -6.679688 3.171875 -6.765625 3.671875 -6.765625 C 4.148438 -6.765625 4.578125 -6.6875 4.953125 -6.53125 C 5.335938 -6.375 5.664062 -6.164062 5.9375 -5.90625 L 5.515625 -5.328125 C 5.484375 -5.285156 5.445312 -5.25 5.40625 -5.21875 C 5.375 -5.195312 5.328125 -5.1875 5.265625 -5.1875 C 5.210938 -5.1875 5.160156 -5.195312 5.109375 -5.21875 C 5.066406 -5.25 5.015625 -5.28125 4.953125 -5.3125 C 4.890625 -5.351562 4.816406 -5.394531 4.734375 -5.4375 C 4.660156 -5.488281 4.570312 -5.535156 4.46875 -5.578125 C 4.375 -5.617188 4.257812 -5.648438 4.125 -5.671875 C 3.988281 -5.703125 3.832031 -5.71875 3.65625 -5.71875 C 3.351562 -5.71875 3.078125 -5.660156 2.828125 -5.546875 C 2.585938 -5.441406 2.375 -5.285156 2.1875 -5.078125 C 2.007812 -4.878906 1.867188 -4.632812 1.765625 -4.34375 C 1.671875 -4.050781 1.625 -3.71875 1.625 -3.34375 C 1.625 -2.96875 1.675781 -2.632812 1.78125 -2.34375 C 1.894531 -2.050781 2.039062 -1.800781 2.21875 -1.59375 C 2.40625 -1.394531 2.617188 -1.242188 2.859375 -1.140625 C 3.109375 -1.035156 3.378906 -0.984375 3.671875 -0.984375 C 3.835938 -0.984375 3.988281 -0.988281 4.125 -1 C 4.257812 -1.019531 4.382812 -1.050781 4.5 -1.09375 C 4.613281 -1.132812 4.722656 -1.1875 4.828125 -1.25 C 4.929688 -1.3125 5.035156 -1.390625 5.140625 -1.484375 C 5.171875 -1.515625 5.203125 -1.535156 5.234375 -1.546875 C 5.273438 -1.566406 5.3125 -1.578125 5.34375 -1.578125 Z M 5.34375 -1.578125 "/></g></g></g><g fill="#000000" fill-opacity="1"><g transform="translate(160.473523, 277.867014)"><g><path d="M 2 0 L 0.75 0 L 0.75 -6.703125 L 2 -6.703125 Z M 2 0 "/></g></g></g><g fill="#000000" fill-opacity="1"><g transform="translate(163.611378, 277.867014)"><g><path d="M 4.28125 -2.53125 L 3.46875 -4.75 C 3.425781 -4.851562 3.382812 -4.972656 3.34375 -5.109375 C 3.300781 -5.242188 3.257812 -5.390625 3.21875 -5.546875 C 3.175781 -5.390625 3.132812 -5.242188 3.09375 -5.109375 C 3.050781 -4.972656 3.007812 -4.851562 2.96875 -4.75 L 2.15625 -2.53125 Z M 6.484375 0 L 5.515625 0 C 5.410156 0 5.320312 -0.0234375 5.25 -0.078125 C 5.1875 -0.128906 5.140625 -0.195312 5.109375 -0.28125 L 4.609375 -1.65625 L 1.828125 -1.65625 L 1.328125 -0.28125 C 1.304688 -0.207031 1.257812 -0.140625 1.1875 -0.078125 C 1.113281 -0.0234375 1.023438 0 0.921875 0 L -0.046875 0 L 2.578125 -6.703125 L 3.859375 -6.703125 Z M 6.484375 0 "/></g></g></g><g fill="#000000" fill-opacity="1"><g transform="translate(170.438431, 277.867014)"><g><path d="M 5.421875 -5.671875 L 3.40625 -5.671875 L 3.40625 0 L 2.15625 0 L 2.15625 -5.671875 L 0.140625 -5.671875 L 0.140625 -6.703125 L 5.421875 -6.703125 Z M 5.421875 -5.671875 "/></g></g></g><g fill="#000000" fill-opacity="1"><g transform="translate(176.38953, 277.867014)"><g><path d="M 2 0 L 0.75 0 L 0.75 -6.703125 L 2 -6.703125 Z M 2 0 "/></g></g></g><g fill="#000000" fill-opacity="1"><g transform="translate(179.527385, 277.867014)"><g><path d="M 7.140625 -3.34375 C 7.140625 -2.851562 7.054688 -2.398438 6.890625 -1.984375 C 6.722656 -1.566406 6.492188 -1.203125 6.203125 -0.890625 C 5.910156 -0.585938 5.550781 -0.347656 5.125 -0.171875 C 4.707031 -0.00390625 4.25 0.078125 3.75 0.078125 C 3.238281 0.078125 2.773438 -0.00390625 2.359375 -0.171875 C 1.941406 -0.347656 1.582031 -0.585938 1.28125 -0.890625 C 0.988281 -1.203125 0.757812 -1.566406 0.59375 -1.984375 C 0.425781 -2.398438 0.34375 -2.851562 0.34375 -3.34375 C 0.34375 -3.84375 0.425781 -4.300781 0.59375 -4.71875 C 0.757812 -5.132812 0.988281 -5.492188 1.28125 -5.796875 C 1.582031 -6.109375 1.941406 -6.347656 2.359375 -6.515625 C 2.773438 -6.679688 3.238281 -6.765625 3.75 -6.765625 C 4.082031 -6.765625 4.398438 -6.722656 4.703125 -6.640625 C 5.003906 -6.566406 5.28125 -6.457031 5.53125 -6.3125 C 5.78125 -6.175781 6.003906 -6.003906 6.203125 -5.796875 C 6.398438 -5.585938 6.566406 -5.359375 6.703125 -5.109375 C 6.847656 -4.859375 6.957031 -4.582031 7.03125 -4.28125 C 7.101562 -3.988281 7.140625 -3.675781 7.140625 -3.34375 Z M 5.859375 -3.34375 C 5.859375 -3.71875 5.804688 -4.050781 5.703125 -4.34375 C 5.609375 -4.632812 5.46875 -4.878906 5.28125 -5.078125 C 5.101562 -5.285156 4.882812 -5.441406 4.625 -5.546875 C 4.363281 -5.660156 4.070312 -5.71875 3.75 -5.71875 C 3.414062 -5.71875 3.117188 -5.660156 2.859375 -5.546875 C 2.597656 -5.441406 2.375 -5.285156 2.1875 -5.078125 C 2.007812 -4.878906 1.867188 -4.632812 1.765625 -4.34375 C 1.671875 -4.050781 1.625 -3.71875 1.625 -3.34375 C 1.625 -2.976562 1.671875 -2.648438 1.765625 -2.359375 C 1.867188 -2.066406 2.007812 -1.816406 2.1875 -1.609375 C 2.375 -1.410156 2.597656 -1.253906 2.859375 -1.140625 C 3.117188 -1.035156 3.414062 -0.984375 3.75 -0.984375 C 4.070312 -0.984375 4.363281 -1.035156 4.625 -1.140625 C 4.882812 -1.253906 5.101562 -1.410156 5.28125 -1.609375 C 5.46875 -1.816406 5.609375 -2.066406 5.703125 -2.359375 C 5.804688 -2.648438 5.859375 -2.976562 5.859375 -3.34375 Z M 5.859375 -3.34375 "/></g></g></g><g fill="#000000" fill-opacity="1"><g transform="translate(187.406516, 277.867014)"><g><path d="M 6.390625 -6.703125 L 6.390625 0 L 5.75 0 C 5.65625 0 5.570312 -0.015625 5.5 -0.046875 C 5.4375 -0.078125 5.375 -0.132812 5.3125 -0.21875 L 1.8125 -4.671875 C 1.832031 -4.472656 1.84375 -4.285156 1.84375 -4.109375 L 1.84375 0 L 0.75 0 L 0.75 -6.703125 L 1.40625 -6.703125 C 1.457031 -6.703125 1.5 -6.695312 1.53125 -6.6875 C 1.570312 -6.6875 1.609375 -6.675781 1.640625 -6.65625 C 1.671875 -6.644531 1.695312 -6.625 1.71875 -6.59375 C 1.75 -6.570312 1.78125 -6.539062 1.8125 -6.5 L 5.328125 -2.015625 C 5.316406 -2.117188 5.304688 -2.222656 5.296875 -2.328125 C 5.296875 -2.441406 5.296875 -2.539062 5.296875 -2.625 L 5.296875 -6.703125 Z M 6.390625 -6.703125 "/></g></g></g><g fill="#000000" fill-opacity="1"><g transform="translate(194.938044, 277.867014)"><g/></g></g><g fill="#000000" fill-opacity="1"><g transform="translate(197.579981, 277.867014)"><g><path d="M 6.6875 -3.34375 C 6.6875 -2.851562 6.601562 -2.398438 6.4375 -1.984375 C 6.28125 -1.578125 6.050781 -1.222656 5.75 -0.921875 C 5.457031 -0.628906 5.101562 -0.398438 4.6875 -0.234375 C 4.269531 -0.078125 3.804688 0 3.296875 0 L 0.75 0 L 0.75 -6.703125 L 3.296875 -6.703125 C 3.804688 -6.703125 4.269531 -6.617188 4.6875 -6.453125 C 5.101562 -6.285156 5.457031 -6.050781 5.75 -5.75 C 6.050781 -5.457031 6.28125 -5.109375 6.4375 -4.703125 C 6.601562 -4.296875 6.6875 -3.84375 6.6875 -3.34375 Z M 5.421875 -3.34375 C 5.421875 -3.71875 5.367188 -4.050781 5.265625 -4.34375 C 5.171875 -4.632812 5.03125 -4.878906 4.84375 -5.078125 C 4.664062 -5.285156 4.445312 -5.441406 4.1875 -5.546875 C 3.925781 -5.648438 3.628906 -5.703125 3.296875 -5.703125 L 2 -5.703125 L 2 -0.984375 L 3.296875 -0.984375 C 3.628906 -0.984375 3.925781 -1.035156 4.1875 -1.140625 C 4.445312 -1.253906 4.664062 -1.410156 4.84375 -1.609375 C 5.03125 -1.816406 5.171875 -2.066406 5.265625 -2.359375 C 5.367188 -2.648438 5.421875 -2.976562 5.421875 -3.34375 Z M 5.421875 -3.34375 "/></g></g></g><g fill="#000000" fill-opacity="1"><g transform="translate(205.018812, 277.867014)"><g><path d="M 2 -5.703125 L 2 -3.84375 L 4.34375 -3.84375 L 4.34375 -2.890625 L 2 -2.890625 L 2 -1 L 4.96875 -1 L 4.96875 0 L 0.75 0 L 0.75 -6.703125 L 4.96875 -6.703125 L 4.96875 -5.703125 Z M 4.875 -8.625 L 3.375 -7.296875 C 3.3125 -7.242188 3.25 -7.207031 3.1875 -7.1875 C 3.132812 -7.175781 3.066406 -7.171875 2.984375 -7.171875 L 2.15625 -7.171875 L 3.125 -8.4375 C 3.15625 -8.476562 3.1875 -8.507812 3.21875 -8.53125 C 3.25 -8.5625 3.28125 -8.582031 3.3125 -8.59375 C 3.351562 -8.601562 3.394531 -8.609375 3.4375 -8.609375 C 3.476562 -8.617188 3.53125 -8.625 3.59375 -8.625 Z M 4.875 -8.625 "/></g></g></g><g fill="#000000" fill-opacity="1"><g transform="translate(210.738179, 277.867014)"><g><path d="M 5.34375 -1.578125 C 5.414062 -1.578125 5.476562 -1.550781 5.53125 -1.5 L 6.015625 -0.96875 C 5.742188 -0.632812 5.410156 -0.375 5.015625 -0.1875 C 4.617188 -0.0078125 4.140625 0.078125 3.578125 0.078125 C 3.085938 0.078125 2.644531 -0.00390625 2.25 -0.171875 C 1.851562 -0.347656 1.515625 -0.585938 1.234375 -0.890625 C 0.953125 -1.191406 0.734375 -1.550781 0.578125 -1.96875 C 0.429688 -2.394531 0.359375 -2.851562 0.359375 -3.34375 C 0.359375 -3.851562 0.4375 -4.316406 0.59375 -4.734375 C 0.757812 -5.148438 0.988281 -5.507812 1.28125 -5.8125 C 1.570312 -6.113281 1.914062 -6.347656 2.3125 -6.515625 C 2.71875 -6.679688 3.171875 -6.765625 3.671875 -6.765625 C 4.148438 -6.765625 4.578125 -6.6875 4.953125 -6.53125 C 5.335938 -6.375 5.664062 -6.164062 5.9375 -5.90625 L 5.515625 -5.328125 C 5.484375 -5.285156 5.445312 -5.25 5.40625 -5.21875 C 5.375 -5.195312 5.328125 -5.1875 5.265625 -5.1875 C 5.210938 -5.1875 5.160156 -5.195312 5.109375 -5.21875 C 5.066406 -5.25 5.015625 -5.28125 4.953125 -5.3125 C 4.890625 -5.351562 4.816406 -5.394531 4.734375 -5.4375 C 4.660156 -5.488281 4.570312 -5.535156 4.46875 -5.578125 C 4.375 -5.617188 4.257812 -5.648438 4.125 -5.671875 C 3.988281 -5.703125 3.832031 -5.71875 3.65625 -5.71875 C 3.351562 -5.71875 3.078125 -5.660156 2.828125 -5.546875 C 2.585938 -5.441406 2.375 -5.285156 2.1875 -5.078125 C 2.007812 -4.878906 1.867188 -4.632812 1.765625 -4.34375 C 1.671875 -4.050781 1.625 -3.71875 1.625 -3.34375 C 1.625 -2.96875 1.675781 -2.632812 1.78125 -2.34375 C 1.894531 -2.050781 2.039062 -1.800781 2.21875 -1.59375 C 2.40625 -1.394531 2.617188 -1.242188 2.859375 -1.140625 C 3.109375 -1.035156 3.378906 -0.984375 3.671875 -0.984375 C 3.835938 -0.984375 3.988281 -0.988281 4.125 -1 C 4.257812 -1.019531 4.382812 -1.050781 4.5 -1.09375 C 4.613281 -1.132812 4.722656 -1.1875 4.828125 -1.25 C 4.929688 -1.3125 5.035156 -1.390625 5.140625 -1.484375 C 5.171875 -1.515625 5.203125 -1.535156 5.234375 -1.546875 C 5.273438 -1.566406 5.3125 -1.578125 5.34375 -1.578125 Z M 5.34375 -1.578125 "/></g></g></g><g fill="#000000" fill-opacity="1"><g transform="translate(217.259343, 277.867014)"><g><path d="M 4.671875 -1.03125 L 4.671875 0 L 0.75 0 L 0.75 -6.703125 L 1.984375 -6.703125 L 1.984375 -1.03125 Z M 4.671875 -1.03125 "/></g></g></g><g fill="#000000" fill-opacity="1"><g transform="translate(222.464264, 277.867014)"><g><path d="M 4.28125 -2.53125 L 3.46875 -4.75 C 3.425781 -4.851562 3.382812 -4.972656 3.34375 -5.109375 C 3.300781 -5.242188 3.257812 -5.390625 3.21875 -5.546875 C 3.175781 -5.390625 3.132812 -5.242188 3.09375 -5.109375 C 3.050781 -4.972656 3.007812 -4.851562 2.96875 -4.75 L 2.15625 -2.53125 Z M 6.484375 0 L 5.515625 0 C 5.410156 0 5.320312 -0.0234375 5.25 -0.078125 C 5.1875 -0.128906 5.140625 -0.195312 5.109375 -0.28125 L 4.609375 -1.65625 L 1.828125 -1.65625 L 1.328125 -0.28125 C 1.304688 -0.207031 1.257812 -0.140625 1.1875 -0.078125 C 1.113281 -0.0234375 1.023438 0 0.921875 0 L -0.046875 0 L 2.578125 -6.703125 L 3.859375 -6.703125 Z M 6.484375 0 "/></g></g></g><g fill="#000000" fill-opacity="1"><g transform="translate(229.291317, 277.867014)"><g><path d="M 2.765625 -3.515625 C 3.003906 -3.515625 3.207031 -3.539062 3.375 -3.59375 C 3.550781 -3.65625 3.695312 -3.738281 3.8125 -3.84375 C 3.925781 -3.945312 4.007812 -4.066406 4.0625 -4.203125 C 4.125 -4.347656 4.15625 -4.503906 4.15625 -4.671875 C 4.15625 -5.015625 4.039062 -5.273438 3.8125 -5.453125 C 3.59375 -5.640625 3.25 -5.734375 2.78125 -5.734375 L 1.984375 -5.734375 L 1.984375 -3.515625 Z M 5.96875 0 L 4.84375 0 C 4.632812 0 4.484375 -0.0820312 4.390625 -0.25 L 2.984375 -2.390625 C 2.929688 -2.472656 2.867188 -2.53125 2.796875 -2.5625 C 2.734375 -2.601562 2.644531 -2.625 2.53125 -2.625 L 1.984375 -2.625 L 1.984375 0 L 0.75 0 L 0.75 -6.703125 L 2.78125 -6.703125 C 3.238281 -6.703125 3.628906 -6.65625 3.953125 -6.5625 C 4.285156 -6.46875 4.554688 -6.332031 4.765625 -6.15625 C 4.972656 -5.988281 5.125 -5.785156 5.21875 -5.546875 C 5.320312 -5.316406 5.375 -5.054688 5.375 -4.765625 C 5.375 -4.546875 5.335938 -4.332031 5.265625 -4.125 C 5.203125 -3.925781 5.109375 -3.742188 4.984375 -3.578125 C 4.859375 -3.421875 4.703125 -3.28125 4.515625 -3.15625 C 4.335938 -3.03125 4.128906 -2.929688 3.890625 -2.859375 C 3.972656 -2.816406 4.046875 -2.765625 4.109375 -2.703125 C 4.179688 -2.640625 4.242188 -2.5625 4.296875 -2.46875 Z M 5.96875 0 "/></g></g></g><g fill="#000000" fill-opacity="1"><g transform="translate(235.641002, 277.867014)"><g><path d="M 2 -5.703125 L 2 -3.84375 L 4.34375 -3.84375 L 4.34375 -2.890625 L 2 -2.890625 L 2 -1 L 4.96875 -1 L 4.96875 0 L 0.75 0 L 0.75 -6.703125 L 4.96875 -6.703125 L 4.96875 -5.703125 Z M 4.875 -8.625 L 3.375 -7.296875 C 3.3125 -7.242188 3.25 -7.207031 3.1875 -7.1875 C 3.132812 -7.175781 3.066406 -7.171875 2.984375 -7.171875 L 2.15625 -7.171875 L 3.125 -8.4375 C 3.15625 -8.476562 3.1875 -8.507812 3.21875 -8.53125 C 3.25 -8.5625 3.28125 -8.582031 3.3125 -8.59375 C 3.351562 -8.601562 3.394531 -8.609375 3.4375 -8.609375 C 3.476562 -8.617188 3.53125 -8.625 3.59375 -8.625 Z M 4.875 -8.625 "/></g></g></g><g fill="#000000" fill-opacity="1"><g transform="translate(241.36037, 277.867014)"><g><path d="M 2 -5.703125 L 2 -3.84375 L 4.34375 -3.84375 L 4.34375 -2.890625 L 2 -2.890625 L 2 -1 L 4.96875 -1 L 4.96875 0 L 0.75 0 L 0.75 -6.703125 L 4.96875 -6.703125 L 4.96875 -5.703125 Z M 2 -5.703125 "/></g></g></g><g fill="#000000" fill-opacity="1"><g transform="translate(247.079737, 277.867014)"><g><path d="M 1.34375 -7.15625 C 1.5 -6.90625 1.601562 -6.644531 1.65625 -6.375 C 1.707031 -6.113281 1.707031 -5.851562 1.65625 -5.59375 C 1.613281 -5.34375 1.523438 -5.097656 1.390625 -4.859375 C 1.253906 -4.628906 1.070312 -4.414062 0.84375 -4.21875 L 0.484375 -4.4375 C 0.453125 -4.457031 0.425781 -4.476562 0.40625 -4.5 C 0.394531 -4.53125 0.390625 -4.554688 0.390625 -4.578125 C 0.398438 -4.609375 0.410156 -4.632812 0.421875 -4.65625 C 0.429688 -4.6875 0.441406 -4.710938 0.453125 -4.734375 C 0.523438 -4.804688 0.585938 -4.90625 0.640625 -5.03125 C 0.703125 -5.15625 0.742188 -5.296875 0.765625 -5.453125 C 0.785156 -5.617188 0.78125 -5.789062 0.75 -5.96875 C 0.726562 -6.144531 0.660156 -6.320312 0.546875 -6.5 C 0.492188 -6.59375 0.476562 -6.671875 0.5 -6.734375 C 0.519531 -6.804688 0.570312 -6.851562 0.65625 -6.875 Z M 1.34375 -7.15625 "/></g></g></g></svg>