<svg xmlns="http://www.w3.org/2000/svg" xmlns:xlink="http://www.w3.org/1999/xlink" width="500" zoomAndPan="magnify" viewBox="0 0 375 374.999991" height="500" preserveAspectRatio="xMidYMid meet" version="1.0"><defs><g/><clipPath id="60e6aaea9d"><path d="M 116.683594 171.390625 L 169.933594 171.390625 L 169.933594 184.140625 L 116.683594 184.140625 Z M 116.683594 171.390625 " clip-rule="nonzero"/></clipPath><clipPath id="fe5379ecd8"><path d="M 210 168 L 265 168 L 265 177 L 210 177 Z M 210 168 " clip-rule="nonzero"/></clipPath><clipPath id="70881319d9"><path d="M 211.804688 163.929688 L 264.878906 168.234375 L 263.847656 180.941406 L 210.773438 176.636719 Z M 211.804688 163.929688 " clip-rule="nonzero"/></clipPath><clipPath id="d5251baa5a"><path d="M 263.832031 180.824219 L 210.757812 176.519531 L 211.789062 163.808594 L 264.863281 168.117188 Z M 263.832031 180.824219 " clip-rule="nonzero"/></clipPath><clipPath id="751b19dfdf"><path d="M 263.832031 180.824219 L 210.757812 176.519531 L 211.789062 163.808594 L 264.863281 168.117188 Z M 263.832031 180.824219 " clip-rule="nonzero"/></clipPath></defs><rect x="-37.5" width="450" fill="#ffffff" y="-37.499999" height="449.999989" fill-opacity="1"/><rect x="-37.5" width="450" fill="#ffffff" y="-37.499999" height="449.999989" fill-opacity="1"/><g clip-path="url(#60e6aaea9d)"><path fill="#000000" d="M 118.515625 183.675781 C 118.648438 183.371094 118.597656 182.996094 118.378906 182.769531 C 118.359375 182.746094 118.339844 182.71875 118.3125 182.699219 C 118.269531 182.675781 118.226562 182.636719 118.183594 182.597656 C 118.183594 182.597656 118.175781 182.59375 118.175781 182.589844 C 118.171875 182.589844 118.171875 182.589844 118.171875 182.589844 C 117.984375 182.40625 117.800781 182.117188 117.6875 181.898438 C 117.683594 181.773438 117.691406 181.625 117.710938 181.460938 C 117.800781 180.613281 118.484375 179.730469 119.765625 178.800781 C 120.488281 178.257812 121.398438 177.742188 122.496094 177.253906 C 123.636719 176.757812 125.011719 176.328125 126.628906 175.96875 C 130.125 175.21875 133.5 175.035156 136.757812 175.421875 C 139.96875 175.808594 143.265625 176.167969 146.65625 176.492188 C 148.507812 176.703125 150.386719 176.824219 152.269531 176.847656 C 154.152344 176.875 156.140625 176.75 158.21875 176.476562 C 162.742188 175.890625 166.097656 174.828125 168.273438 173.292969 C 168.769531 172.933594 169.21875 172.621094 169.632812 172.339844 C 169.675781 172.183594 169.71875 172.027344 169.765625 171.871094 C 169.742188 171.710938 169.722656 171.550781 169.699219 171.390625 C 169.1875 171.75 168.601562 172.15625 167.921875 172.625 C 165.691406 174.117188 162.457031 175.144531 158.199219 175.703125 C 154.582031 176.191406 151.132812 176.195312 147.871094 175.71875 C 144.5625 175.246094 141.242188 174.890625 137.914062 174.652344 C 136.109375 174.53125 134.265625 174.496094 132.390625 174.5625 C 130.519531 174.628906 128.597656 174.886719 126.625 175.332031 C 124.695312 175.773438 123.09375 176.277344 121.824219 176.832031 C 120.601562 177.429688 119.636719 178.019531 118.917969 178.609375 C 117.53125 179.78125 116.863281 180.871094 116.925781 181.886719 L 116.964844 182.230469 C 116.972656 182.324219 116.984375 182.410156 117.003906 182.492188 C 117.015625 182.691406 117.015625 182.898438 116.996094 183.074219 C 116.980469 183.203125 116.992188 183.335938 117.003906 183.464844 C 117.035156 183.785156 117.371094 184.089844 117.734375 184.136719 " fill-opacity="1" fill-rule="nonzero"/></g><g fill="#000000" fill-opacity="1"><g transform="translate(168.928793, 185.119689)"><g><path d="M -1.175781 2.773438 C -13.316406 12.5625 -11.511719 26.675781 -6.933594 26.96875 C -1.429688 27.308594 0.421875 13.148438 1.636719 1.804688 C 3.992188 0.628906 11.257812 -4.199219 15.964844 -9.832031 C 15.964844 -10.039062 15.292969 -10.039062 15.164062 -9.871094 C 11.175781 -5.25 4.410156 -0.460938 1.722656 1.007812 C 2.3125 -4.496094 3.109375 -11.890625 3.445312 -14.324219 C 3.65625 -16.382812 0.460938 -16.175781 0.210938 -13.273438 C -0.503906 -4.578125 -0.882812 -0.0859375 -1.175781 2.773438 Z M -1.21875 3.695312 C -2.226562 12.980469 -3.488281 26.296875 -6.804688 26.296875 C -10.417969 26.296875 -11.972656 12.980469 -1.21875 3.695312 Z M 2.605469 -17.8125 C 3.824219 -17.8125 4.410156 -20.878906 3.320312 -21.214844 C 1.597656 -21.382812 1.132812 -17.8125 2.605469 -17.8125 Z M 2.605469 -17.8125 "/></g></g></g><g fill="#000000" fill-opacity="1"><g transform="translate(183.926193, 185.119689)"><g><path d="M 16.59375 4.789062 C 20.375 1.972656 25.753906 -6.847656 28.0625 -9.871094 C 28.0625 -10.082031 27.515625 -10.082031 27.347656 -9.914062 C 25.542969 -7.605469 19.449219 2.183594 15.835938 4.578125 C 14.453125 5.460938 13.234375 5.796875 12.730469 5.167969 C 11.214844 3.191406 13.695312 -7.941406 14.789062 -12.519531 C 28.523438 -27.9375 27.644531 -35.035156 23.398438 -35.035156 C 17.769531 -35.035156 13.527344 -26.046875 11.386719 -11.089844 C 10.207031 -13.90625 8.445312 -16.425781 6.175781 -16.46875 C -1.007812 -16.550781 -2.4375 -1.261719 1.46875 0.0859375 C 3.90625 0.925781 7.605469 -3.152344 10.964844 -7.898438 C 10.292969 -2.773438 9.914062 1.722656 10.375 3.488281 C 11.132812 6.34375 13.234375 7.351562 16.59375 4.789062 Z M 14.914062 -13.613281 C 16.132812 -24.871094 20.5 -34.363281 23.230469 -34.363281 C 26.675781 -34.363281 27.515625 -28.652344 14.914062 -13.613281 Z M 6.175781 -15.835938 C 8.402344 -16.007812 10.335938 -12.140625 11.214844 -9.871094 L 11.089844 -9.03125 C 6.425781 -2.394531 3.320312 0.0429688 2.3125 -0.460938 C 0 -1.636719 3.152344 -15.585938 6.175781 -15.835938 Z M 6.175781 -15.835938 "/></g></g></g><g clip-path="url(#fe5379ecd8)"><g clip-path="url(#70881319d9)"><g clip-path="url(#d5251baa5a)"><g clip-path="url(#751b19dfdf)"><path fill="#000000" d="M 263.003906 168.429688 C 262.847656 168.726562 262.867188 169.105469 263.0625 169.347656 C 263.082031 169.371094 263.101562 169.402344 263.125 169.421875 C 263.164062 169.449219 263.203125 169.492188 263.246094 169.53125 C 263.246094 169.53125 263.25 169.539062 263.25 169.542969 C 263.253906 169.542969 263.253906 169.542969 263.253906 169.542969 C 263.429688 169.738281 263.585938 170.042969 263.683594 170.269531 C 263.679688 170.398438 263.65625 170.542969 263.625 170.707031 C 263.464844 171.542969 262.710938 172.367188 261.363281 173.191406 C 260.597656 173.671875 259.652344 174.113281 258.515625 174.511719 C 257.339844 174.914062 255.929688 175.230469 254.292969 175.457031 C 250.746094 175.921875 247.367188 175.832031 244.152344 175.183594 C 240.980469 174.539062 237.726562 173.914062 234.375 173.316406 C 232.542969 172.957031 230.683594 172.683594 228.804688 172.507812 C 226.929688 172.328125 224.941406 172.292969 222.847656 172.394531 C 218.289062 172.617188 214.859375 173.402344 212.566406 174.757812 C 212.042969 175.074219 211.570312 175.351562 211.136719 175.597656 C 211.082031 175.75 211.023438 175.902344 210.96875 176.050781 C 210.972656 176.214844 210.984375 176.375 210.992188 176.535156 C 211.53125 176.21875 212.148438 175.863281 212.863281 175.453125 C 215.207031 174.144531 218.515625 173.382812 222.804688 173.171875 C 226.449219 172.972656 229.886719 173.25 233.097656 173.988281 C 236.359375 174.726562 239.640625 175.347656 242.9375 175.855469 C 244.726562 176.125 246.558594 176.308594 248.433594 176.390625 C 250.304688 176.480469 252.242188 176.375 254.246094 176.09375 C 256.203125 175.808594 257.839844 175.4375 259.152344 174.988281 C 260.417969 174.492188 261.429688 173.976562 262.191406 173.449219 C 263.667969 172.394531 264.421875 171.359375 264.441406 170.34375 L 264.429688 169.996094 C 264.429688 169.902344 264.425781 169.816406 264.414062 169.734375 C 264.417969 169.535156 264.433594 169.328125 264.46875 169.152344 C 264.492188 169.027344 264.496094 168.894531 264.492188 168.765625 C 264.484375 168.445312 264.175781 168.113281 263.820312 168.035156 " fill-opacity="1" fill-rule="nonzero"/></g></g></g></g><g fill="#000000" fill-opacity="1"><g transform="translate(172.431542, 201.92552)"><g><path d="M 2.71875 -6.078125 C 2.738281 -6.078125 2.75 -6.054688 2.75 -6.015625 C 2.75 -5.984375 2.738281 -5.96875 2.71875 -5.96875 C 2.507812 -5.96875 2.351562 -5.945312 2.25 -5.90625 C 2.15625 -5.863281 2.085938 -5.796875 2.046875 -5.703125 C 2.015625 -5.609375 2 -5.46875 2 -5.28125 L 2 0.265625 C 2 0.910156 1.847656 1.421875 1.546875 1.796875 C 1.253906 2.179688 0.828125 2.375 0.265625 2.375 C 0.046875 2.375 -0.125 2.335938 -0.25 2.265625 C -0.382812 2.191406 -0.453125 2.085938 -0.453125 1.953125 C -0.453125 1.859375 -0.421875 1.78125 -0.359375 1.71875 C -0.296875 1.664062 -0.210938 1.640625 -0.109375 1.640625 C -0.00390625 1.640625 0.0703125 1.660156 0.125 1.703125 C 0.1875 1.753906 0.253906 1.828125 0.328125 1.921875 C 0.378906 2.015625 0.425781 2.082031 0.46875 2.125 C 0.519531 2.164062 0.585938 2.1875 0.671875 2.1875 C 0.898438 2.1875 1.070312 2.050781 1.1875 1.78125 C 1.300781 1.507812 1.359375 1.078125 1.359375 0.484375 L 1.359375 -5.296875 C 1.359375 -5.492188 1.332031 -5.632812 1.28125 -5.71875 C 1.238281 -5.8125 1.148438 -5.875 1.015625 -5.90625 C 0.890625 -5.945312 0.6875 -5.96875 0.40625 -5.96875 C 0.394531 -5.96875 0.390625 -5.984375 0.390625 -6.015625 C 0.390625 -6.054688 0.394531 -6.078125 0.40625 -6.078125 L 0.96875 -6.078125 C 1.269531 -6.066406 1.503906 -6.0625 1.671875 -6.0625 C 1.835938 -6.0625 2.046875 -6.066406 2.296875 -6.078125 Z M 2.71875 -6.078125 "/></g></g></g><g fill="#000000" fill-opacity="1"><g transform="translate(176.8465, 201.92552)"><g><path d="M 5.5625 -5.015625 C 5.5625 -5.648438 5.28125 -5.96875 4.71875 -5.96875 C 4.695312 -5.96875 4.6875 -5.984375 4.6875 -6.015625 C 4.6875 -6.054688 4.695312 -6.078125 4.71875 -6.078125 L 5.140625 -6.078125 C 5.367188 -6.066406 5.550781 -6.0625 5.6875 -6.0625 C 5.800781 -6.0625 5.960938 -6.066406 6.171875 -6.078125 L 6.578125 -6.078125 C 6.585938 -6.078125 6.59375 -6.054688 6.59375 -6.015625 C 6.59375 -5.984375 6.585938 -5.96875 6.578125 -5.96875 C 6.054688 -5.96875 5.796875 -5.648438 5.796875 -5.015625 L 5.796875 -2.25 C 5.796875 -1.5 5.585938 -0.914062 5.171875 -0.5 C 4.765625 -0.0820312 4.207031 0.125 3.5 0.125 C 3.019531 0.125 2.597656 0.03125 2.234375 -0.15625 C 1.878906 -0.34375 1.601562 -0.609375 1.40625 -0.953125 C 1.207031 -1.304688 1.109375 -1.71875 1.109375 -2.1875 L 1.109375 -5.296875 C 1.109375 -5.492188 1.085938 -5.632812 1.046875 -5.71875 C 1.015625 -5.8125 0.941406 -5.875 0.828125 -5.90625 C 0.710938 -5.945312 0.53125 -5.96875 0.28125 -5.96875 C 0.269531 -5.96875 0.265625 -5.984375 0.265625 -6.015625 C 0.265625 -6.054688 0.269531 -6.078125 0.28125 -6.078125 L 0.765625 -6.078125 C 1.035156 -6.066406 1.253906 -6.0625 1.421875 -6.0625 C 1.597656 -6.0625 1.828125 -6.066406 2.109375 -6.078125 L 2.5625 -6.078125 C 2.582031 -6.078125 2.59375 -6.054688 2.59375 -6.015625 C 2.59375 -5.984375 2.582031 -5.96875 2.5625 -5.96875 C 2.320312 -5.96875 2.144531 -5.945312 2.03125 -5.90625 C 1.914062 -5.863281 1.835938 -5.796875 1.796875 -5.703125 C 1.765625 -5.609375 1.75 -5.46875 1.75 -5.28125 L 1.75 -2.515625 C 1.75 -1.753906 1.921875 -1.171875 2.265625 -0.765625 C 2.609375 -0.367188 3.09375 -0.171875 3.71875 -0.171875 C 4.300781 -0.171875 4.753906 -0.351562 5.078125 -0.71875 C 5.398438 -1.082031 5.5625 -1.585938 5.5625 -2.234375 Z M 5.5625 -5.015625 "/></g></g></g><g fill="#000000" fill-opacity="1"><g transform="translate(184.917286, 201.92552)"><g><path d="M 1.796875 -0.828125 C 1.796875 -0.640625 1.816406 -0.503906 1.859375 -0.421875 C 1.898438 -0.335938 1.972656 -0.28125 2.078125 -0.25 C 2.179688 -0.21875 2.347656 -0.203125 2.578125 -0.203125 L 3.640625 -0.203125 C 4.015625 -0.203125 4.3125 -0.316406 4.53125 -0.546875 C 4.75 -0.773438 4.894531 -1.085938 4.96875 -1.484375 C 4.96875 -1.503906 4.984375 -1.515625 5.015625 -1.515625 C 5.054688 -1.515625 5.078125 -1.503906 5.078125 -1.484375 C 5.015625 -0.941406 4.984375 -0.492188 4.984375 -0.140625 C 4.984375 -0.0859375 4.972656 -0.0507812 4.953125 -0.03125 C 4.929688 -0.0078125 4.894531 0 4.84375 0 L 0.34375 0 C 0.332031 0 0.328125 -0.015625 0.328125 -0.046875 C 0.328125 -0.0859375 0.332031 -0.109375 0.34375 -0.109375 C 0.582031 -0.109375 0.757812 -0.125 0.875 -0.15625 C 0.988281 -0.195312 1.066406 -0.265625 1.109375 -0.359375 C 1.148438 -0.453125 1.171875 -0.59375 1.171875 -0.78125 L 1.171875 -5.296875 C 1.171875 -5.492188 1.148438 -5.632812 1.109375 -5.71875 C 1.066406 -5.8125 0.988281 -5.875 0.875 -5.90625 C 0.757812 -5.945312 0.582031 -5.96875 0.34375 -5.96875 C 0.332031 -5.96875 0.328125 -5.984375 0.328125 -6.015625 C 0.328125 -6.054688 0.332031 -6.078125 0.34375 -6.078125 L 0.8125 -6.078125 C 1.082031 -6.066406 1.304688 -6.0625 1.484375 -6.0625 C 1.660156 -6.0625 1.882812 -6.066406 2.15625 -6.078125 L 2.625 -6.078125 C 2.644531 -6.078125 2.65625 -6.054688 2.65625 -6.015625 C 2.65625 -5.984375 2.644531 -5.96875 2.625 -5.96875 C 2.382812 -5.96875 2.207031 -5.945312 2.09375 -5.90625 C 1.976562 -5.875 1.898438 -5.8125 1.859375 -5.71875 C 1.816406 -5.625 1.796875 -5.476562 1.796875 -5.28125 Z M 1.796875 -0.828125 "/></g></g></g><g fill="#000000" fill-opacity="1"><g transform="translate(191.383787, 201.92552)"><g><path d="M 1.9375 -0.78125 C 1.9375 -0.59375 1.953125 -0.453125 1.984375 -0.359375 C 2.023438 -0.265625 2.101562 -0.195312 2.21875 -0.15625 C 2.332031 -0.125 2.515625 -0.109375 2.765625 -0.109375 C 2.785156 -0.109375 2.796875 -0.0859375 2.796875 -0.046875 C 2.796875 -0.015625 2.785156 0 2.765625 0 C 2.566406 0 2.410156 -0.00390625 2.296875 -0.015625 L 0.9375 -0.015625 C 0.820312 -0.00390625 0.660156 0 0.453125 0 C 0.429688 0 0.421875 -0.015625 0.421875 -0.046875 C 0.421875 -0.0859375 0.429688 -0.109375 0.453125 -0.109375 C 0.703125 -0.109375 0.882812 -0.125 1 -0.15625 C 1.113281 -0.195312 1.191406 -0.265625 1.234375 -0.359375 C 1.273438 -0.453125 1.296875 -0.59375 1.296875 -0.78125 L 1.296875 -5.296875 C 1.296875 -5.492188 1.273438 -5.632812 1.234375 -5.71875 C 1.191406 -5.8125 1.113281 -5.875 1 -5.90625 C 0.882812 -5.945312 0.703125 -5.96875 0.453125 -5.96875 C 0.429688 -5.96875 0.421875 -5.984375 0.421875 -6.015625 C 0.421875 -6.054688 0.429688 -6.078125 0.453125 -6.078125 L 0.9375 -6.078125 C 1.207031 -6.066406 1.429688 -6.0625 1.609375 -6.0625 C 1.796875 -6.0625 2.03125 -6.066406 2.3125 -6.078125 L 2.765625 -6.078125 C 2.785156 -6.078125 2.796875 -6.054688 2.796875 -6.015625 C 2.796875 -5.984375 2.785156 -5.96875 2.765625 -5.96875 C 2.523438 -5.96875 2.347656 -5.945312 2.234375 -5.90625 C 2.117188 -5.863281 2.039062 -5.796875 2 -5.703125 C 1.957031 -5.609375 1.9375 -5.46875 1.9375 -5.28125 Z M 1.9375 -0.78125 "/></g></g></g><g fill="#000000" fill-opacity="1"><g transform="translate(195.895975, 201.92552)"><g><path d="M 4.625 -1.453125 C 4.625 -1.460938 4.632812 -1.46875 4.65625 -1.46875 C 4.675781 -1.46875 4.691406 -1.460938 4.703125 -1.453125 C 4.722656 -1.453125 4.734375 -1.445312 4.734375 -1.4375 C 4.679688 -1.019531 4.65625 -0.585938 4.65625 -0.140625 C 4.65625 -0.0859375 4.640625 -0.0507812 4.609375 -0.03125 C 4.585938 -0.0078125 4.550781 0 4.5 0 L 0.421875 0 C 0.410156 0 0.40625 -0.015625 0.40625 -0.046875 C 0.40625 -0.0859375 0.410156 -0.109375 0.421875 -0.109375 C 0.660156 -0.109375 0.835938 -0.125 0.953125 -0.15625 C 1.066406 -0.195312 1.144531 -0.265625 1.1875 -0.359375 C 1.226562 -0.453125 1.25 -0.59375 1.25 -0.78125 L 1.25 -5.296875 C 1.25 -5.492188 1.226562 -5.632812 1.1875 -5.71875 C 1.144531 -5.8125 1.066406 -5.875 0.953125 -5.90625 C 0.835938 -5.945312 0.660156 -5.96875 0.421875 -5.96875 C 0.410156 -5.96875 0.40625 -5.984375 0.40625 -6.015625 C 0.40625 -6.054688 0.410156 -6.078125 0.421875 -6.078125 L 4.328125 -6.078125 C 4.390625 -6.078125 4.421875 -6.050781 4.421875 -6 L 4.4375 -4.796875 C 4.4375 -4.773438 4.421875 -4.765625 4.390625 -4.765625 C 4.359375 -4.765625 4.335938 -4.773438 4.328125 -4.796875 C 4.304688 -5.140625 4.203125 -5.40625 4.015625 -5.59375 C 3.828125 -5.78125 3.578125 -5.875 3.265625 -5.875 L 2.671875 -5.875 C 2.453125 -5.875 2.285156 -5.851562 2.171875 -5.8125 C 2.066406 -5.78125 1.992188 -5.722656 1.953125 -5.640625 C 1.910156 -5.554688 1.890625 -5.425781 1.890625 -5.25 L 1.890625 -3.265625 L 3.078125 -3.265625 C 3.390625 -3.265625 3.609375 -3.316406 3.734375 -3.421875 C 3.867188 -3.523438 3.9375 -3.703125 3.9375 -3.953125 C 3.9375 -3.960938 3.957031 -3.96875 4 -3.96875 C 4.039062 -3.96875 4.0625 -3.960938 4.0625 -3.953125 L 4.046875 -3.15625 C 4.046875 -2.96875 4.050781 -2.828125 4.0625 -2.734375 L 4.0625 -2.265625 C 4.0625 -2.253906 4.039062 -2.25 4 -2.25 C 3.96875 -2.25 3.953125 -2.253906 3.953125 -2.265625 C 3.953125 -2.554688 3.878906 -2.757812 3.734375 -2.875 C 3.597656 -3 3.367188 -3.0625 3.046875 -3.0625 L 1.890625 -3.0625 L 1.890625 -0.828125 C 1.890625 -0.648438 1.90625 -0.515625 1.9375 -0.421875 C 1.976562 -0.335938 2.050781 -0.28125 2.15625 -0.25 C 2.257812 -0.21875 2.421875 -0.203125 2.640625 -0.203125 L 3.421875 -0.203125 C 3.734375 -0.203125 3.992188 -0.3125 4.203125 -0.53125 C 4.410156 -0.75 4.550781 -1.054688 4.625 -1.453125 Z M 4.625 -1.453125 "/></g></g></g><g fill="#000000" fill-opacity="1"><g transform="translate(202.401363, 201.92552)"><g><path d="M 6.859375 -6.078125 C 6.867188 -6.078125 6.875 -6.054688 6.875 -6.015625 C 6.875 -5.984375 6.867188 -5.96875 6.859375 -5.96875 C 6.578125 -5.96875 6.375 -5.890625 6.25 -5.734375 C 6.132812 -5.585938 6.078125 -5.347656 6.078125 -5.015625 L 6.078125 0.109375 C 6.078125 0.128906 6.0625 0.140625 6.03125 0.140625 C 6 0.148438 5.972656 0.148438 5.953125 0.140625 L 1.484375 -5.28125 L 1.390625 -5.390625 L 1.390625 -1.0625 C 1.390625 -0.726562 1.445312 -0.484375 1.5625 -0.328125 C 1.6875 -0.179688 1.882812 -0.109375 2.15625 -0.109375 C 2.175781 -0.109375 2.1875 -0.0859375 2.1875 -0.046875 C 2.1875 -0.015625 2.175781 0 2.15625 0 C 1.988281 0 1.863281 -0.00390625 1.78125 -0.015625 L 0.796875 -0.015625 C 0.703125 -0.00390625 0.570312 0 0.40625 0 C 0.382812 0 0.375 -0.015625 0.375 -0.046875 C 0.375 -0.0859375 0.382812 -0.109375 0.40625 -0.109375 C 0.675781 -0.109375 0.867188 -0.179688 0.984375 -0.328125 C 1.109375 -0.484375 1.171875 -0.726562 1.171875 -1.0625 L 1.171875 -5.609375 C 0.910156 -5.847656 0.65625 -5.96875 0.40625 -5.96875 C 0.382812 -5.96875 0.375 -5.984375 0.375 -6.015625 C 0.375 -6.054688 0.382812 -6.078125 0.40625 -6.078125 L 0.765625 -6.078125 C 0.835938 -6.066406 0.941406 -6.0625 1.078125 -6.0625 C 1.222656 -6.0625 1.335938 -6.0625 1.421875 -6.0625 C 1.515625 -6.070312 1.585938 -6.078125 1.640625 -6.078125 C 1.691406 -6.078125 1.726562 -6.066406 1.75 -6.046875 C 1.78125 -6.023438 1.820312 -5.976562 1.875 -5.90625 C 1.945312 -5.78125 2.023438 -5.671875 2.109375 -5.578125 L 5.84375 -0.96875 L 5.84375 -5.015625 C 5.84375 -5.347656 5.785156 -5.585938 5.671875 -5.734375 C 5.566406 -5.890625 5.378906 -5.96875 5.109375 -5.96875 C 5.097656 -5.96875 5.09375 -5.984375 5.09375 -6.015625 C 5.09375 -6.054688 5.097656 -6.078125 5.109375 -6.078125 L 5.484375 -6.078125 C 5.679688 -6.066406 5.84375 -6.0625 5.96875 -6.0625 C 6.082031 -6.0625 6.242188 -6.066406 6.453125 -6.078125 Z M 6.859375 -6.078125 "/></g></g></g><g fill="#000000" fill-opacity="1"><g transform="translate(210.754109, 201.92552)"><g/></g></g><g fill="#000000" fill-opacity="1"><g transform="translate(214.313448, 201.92552)"><g><path d="M 2.953125 0.03125 C 2.765625 0.03125 2.546875 0.0234375 2.296875 0.015625 C 2.203125 0.00390625 2.085938 0 1.953125 0 C 1.816406 -0.0078125 1.660156 -0.015625 1.484375 -0.015625 L 0.828125 -0.015625 C 0.710938 -0.00390625 0.550781 0 0.34375 0 C 0.332031 0 0.328125 -0.015625 0.328125 -0.046875 C 0.328125 -0.0859375 0.332031 -0.109375 0.34375 -0.109375 C 0.582031 -0.109375 0.757812 -0.125 0.875 -0.15625 C 0.988281 -0.195312 1.066406 -0.265625 1.109375 -0.359375 C 1.148438 -0.453125 1.171875 -0.59375 1.171875 -0.78125 L 1.171875 -5.296875 C 1.171875 -5.492188 1.148438 -5.632812 1.109375 -5.71875 C 1.078125 -5.8125 1.003906 -5.875 0.890625 -5.90625 C 0.773438 -5.945312 0.59375 -5.96875 0.34375 -5.96875 C 0.332031 -5.96875 0.328125 -5.984375 0.328125 -6.015625 C 0.328125 -6.054688 0.332031 -6.078125 0.34375 -6.078125 L 0.84375 -6.078125 C 1.113281 -6.066406 1.328125 -6.0625 1.484375 -6.0625 C 1.734375 -6.0625 1.976562 -6.066406 2.21875 -6.078125 C 2.5 -6.097656 2.695312 -6.109375 2.8125 -6.109375 C 3.488281 -6.109375 4.085938 -5.976562 4.609375 -5.71875 C 5.128906 -5.457031 5.53125 -5.101562 5.8125 -4.65625 C 6.101562 -4.207031 6.25 -3.703125 6.25 -3.140625 C 6.25 -2.515625 6.097656 -1.957031 5.796875 -1.46875 C 5.503906 -0.988281 5.101562 -0.617188 4.59375 -0.359375 C 4.09375 -0.0976562 3.546875 0.03125 2.953125 0.03125 Z M 2.859375 -0.109375 C 3.367188 -0.109375 3.828125 -0.21875 4.234375 -0.4375 C 4.640625 -0.65625 4.953125 -0.972656 5.171875 -1.390625 C 5.398438 -1.816406 5.515625 -2.332031 5.515625 -2.9375 C 5.515625 -3.5 5.40625 -4.007812 5.1875 -4.46875 C 4.976562 -4.925781 4.671875 -5.285156 4.265625 -5.546875 C 3.867188 -5.816406 3.414062 -5.953125 2.90625 -5.953125 C 2.625 -5.953125 2.40625 -5.9375 2.25 -5.90625 C 2.101562 -5.875 1.992188 -5.804688 1.921875 -5.703125 C 1.847656 -5.609375 1.8125 -5.46875 1.8125 -5.28125 L 1.8125 -0.890625 C 1.8125 -0.703125 1.835938 -0.550781 1.890625 -0.4375 C 1.941406 -0.320312 2.046875 -0.238281 2.203125 -0.1875 C 2.359375 -0.132812 2.578125 -0.109375 2.859375 -0.109375 Z M 2.859375 -0.109375 "/></g></g></g><g fill="#000000" fill-opacity="1"><g transform="translate(222.316171, 201.92552)"><g><path d="M 5.5625 -5.015625 C 5.5625 -5.648438 5.28125 -5.96875 4.71875 -5.96875 C 4.695312 -5.96875 4.6875 -5.984375 4.6875 -6.015625 C 4.6875 -6.054688 4.695312 -6.078125 4.71875 -6.078125 L 5.140625 -6.078125 C 5.367188 -6.066406 5.550781 -6.0625 5.6875 -6.0625 C 5.800781 -6.0625 5.960938 -6.066406 6.171875 -6.078125 L 6.578125 -6.078125 C 6.585938 -6.078125 6.59375 -6.054688 6.59375 -6.015625 C 6.59375 -5.984375 6.585938 -5.96875 6.578125 -5.96875 C 6.054688 -5.96875 5.796875 -5.648438 5.796875 -5.015625 L 5.796875 -2.25 C 5.796875 -1.5 5.585938 -0.914062 5.171875 -0.5 C 4.765625 -0.0820312 4.207031 0.125 3.5 0.125 C 3.019531 0.125 2.597656 0.03125 2.234375 -0.15625 C 1.878906 -0.34375 1.601562 -0.609375 1.40625 -0.953125 C 1.207031 -1.304688 1.109375 -1.71875 1.109375 -2.1875 L 1.109375 -5.296875 C 1.109375 -5.492188 1.085938 -5.632812 1.046875 -5.71875 C 1.015625 -5.8125 0.941406 -5.875 0.828125 -5.90625 C 0.710938 -5.945312 0.53125 -5.96875 0.28125 -5.96875 C 0.269531 -5.96875 0.265625 -5.984375 0.265625 -6.015625 C 0.265625 -6.054688 0.269531 -6.078125 0.28125 -6.078125 L 0.765625 -6.078125 C 1.035156 -6.066406 1.253906 -6.0625 1.421875 -6.0625 C 1.597656 -6.0625 1.828125 -6.066406 2.109375 -6.078125 L 2.5625 -6.078125 C 2.582031 -6.078125 2.59375 -6.054688 2.59375 -6.015625 C 2.59375 -5.984375 2.582031 -5.96875 2.5625 -5.96875 C 2.320312 -5.96875 2.144531 -5.945312 2.03125 -5.90625 C 1.914062 -5.863281 1.835938 -5.796875 1.796875 -5.703125 C 1.765625 -5.609375 1.75 -5.46875 1.75 -5.28125 L 1.75 -2.515625 C 1.75 -1.753906 1.921875 -1.171875 2.265625 -0.765625 C 2.609375 -0.367188 3.09375 -0.171875 3.71875 -0.171875 C 4.300781 -0.171875 4.753906 -0.351562 5.078125 -0.71875 C 5.398438 -1.082031 5.5625 -1.585938 5.5625 -2.234375 Z M 5.5625 -5.015625 "/></g></g></g><g fill="#000000" fill-opacity="1"><g transform="translate(230.386957, 201.92552)"><g><path d="M 1.84375 -5.90625 C 1.425781 -5.90625 1.113281 -5.800781 0.90625 -5.59375 C 0.707031 -5.382812 0.566406 -5.03125 0.484375 -4.53125 C 0.484375 -4.519531 0.460938 -4.515625 0.421875 -4.515625 C 0.390625 -4.515625 0.375 -4.519531 0.375 -4.53125 C 0.394531 -4.769531 0.421875 -5.078125 0.453125 -5.453125 C 0.484375 -5.828125 0.5 -6.109375 0.5 -6.296875 C 0.5 -6.328125 0.515625 -6.34375 0.546875 -6.34375 C 0.585938 -6.34375 0.609375 -6.328125 0.609375 -6.296875 C 0.609375 -6.148438 0.785156 -6.078125 1.140625 -6.078125 C 1.691406 -6.066406 2.34375 -6.0625 3.09375 -6.0625 C 3.476562 -6.0625 3.882812 -6.066406 4.3125 -6.078125 L 4.96875 -6.078125 C 5.207031 -6.078125 5.382812 -6.09375 5.5 -6.125 C 5.613281 -6.164062 5.6875 -6.234375 5.71875 -6.328125 C 5.71875 -6.347656 5.734375 -6.359375 5.765625 -6.359375 C 5.804688 -6.359375 5.828125 -6.347656 5.828125 -6.328125 C 5.804688 -6.140625 5.785156 -5.851562 5.765625 -5.46875 C 5.742188 -5.082031 5.734375 -4.769531 5.734375 -4.53125 C 5.734375 -4.519531 5.710938 -4.515625 5.671875 -4.515625 C 5.628906 -4.515625 5.609375 -4.519531 5.609375 -4.53125 C 5.597656 -5.039062 5.492188 -5.394531 5.296875 -5.59375 C 5.109375 -5.800781 4.800781 -5.90625 4.375 -5.90625 C 4.082031 -5.90625 3.875 -5.890625 3.75 -5.859375 C 3.625 -5.835938 3.535156 -5.785156 3.484375 -5.703125 C 3.441406 -5.617188 3.421875 -5.476562 3.421875 -5.28125 L 3.421875 -0.78125 C 3.421875 -0.582031 3.441406 -0.4375 3.484375 -0.34375 C 3.535156 -0.257812 3.625 -0.195312 3.75 -0.15625 C 3.882812 -0.125 4.09375 -0.109375 4.375 -0.109375 C 4.394531 -0.109375 4.40625 -0.0859375 4.40625 -0.046875 C 4.40625 -0.015625 4.394531 0 4.375 0 C 4.15625 0 3.984375 -0.00390625 3.859375 -0.015625 L 2.359375 -0.015625 C 2.234375 -0.00390625 2.054688 0 1.828125 0 C 1.816406 0 1.8125 -0.015625 1.8125 -0.046875 C 1.8125 -0.0859375 1.816406 -0.109375 1.828125 -0.109375 C 2.109375 -0.109375 2.3125 -0.125 2.4375 -0.15625 C 2.570312 -0.195312 2.660156 -0.265625 2.703125 -0.359375 C 2.753906 -0.453125 2.78125 -0.59375 2.78125 -0.78125 L 2.78125 -5.296875 C 2.78125 -5.492188 2.753906 -5.632812 2.703125 -5.71875 C 2.660156 -5.800781 2.578125 -5.851562 2.453125 -5.875 C 2.335938 -5.894531 2.132812 -5.90625 1.84375 -5.90625 Z M 1.84375 -5.90625 "/></g></g></g><g fill="#000000" fill-opacity="1"><g transform="translate(237.835475, 201.92552)"><g><path d="M 6.65625 -0.109375 C 6.664062 -0.109375 6.671875 -0.0859375 6.671875 -0.046875 C 6.671875 -0.015625 6.664062 0 6.65625 0 L 5.390625 0 C 5.234375 0 4.929688 -0.265625 4.484375 -0.796875 C 4.035156 -1.335938 3.5 -2.082031 2.875 -3.03125 C 2.707031 -2.988281 2.53125 -2.96875 2.34375 -2.96875 C 2.300781 -2.96875 2.148438 -2.976562 1.890625 -3 L 1.890625 -0.78125 C 1.890625 -0.582031 1.910156 -0.4375 1.953125 -0.34375 C 1.992188 -0.257812 2.070312 -0.195312 2.1875 -0.15625 C 2.300781 -0.125 2.476562 -0.109375 2.71875 -0.109375 C 2.738281 -0.109375 2.75 -0.0859375 2.75 -0.046875 C 2.75 -0.015625 2.738281 0 2.71875 0 C 2.519531 0 2.363281 -0.00390625 2.25 -0.015625 L 0.921875 -0.015625 C 0.796875 -0.00390625 0.628906 0 0.421875 0 C 0.410156 0 0.40625 -0.015625 0.40625 -0.046875 C 0.40625 -0.0859375 0.410156 -0.109375 0.421875 -0.109375 C 0.660156 -0.109375 0.835938 -0.125 0.953125 -0.15625 C 1.078125 -0.195312 1.160156 -0.265625 1.203125 -0.359375 C 1.242188 -0.453125 1.265625 -0.59375 1.265625 -0.78125 L 1.265625 -5.296875 C 1.265625 -5.492188 1.242188 -5.632812 1.203125 -5.71875 C 1.171875 -5.8125 1.097656 -5.875 0.984375 -5.90625 C 0.867188 -5.945312 0.6875 -5.96875 0.4375 -5.96875 C 0.414062 -5.96875 0.40625 -5.984375 0.40625 -6.015625 C 0.40625 -6.054688 0.414062 -6.078125 0.4375 -6.078125 L 0.921875 -6.078125 C 1.191406 -6.066406 1.410156 -6.0625 1.578125 -6.0625 C 1.722656 -6.0625 1.851562 -6.0625 1.96875 -6.0625 C 2.09375 -6.070312 2.195312 -6.078125 2.28125 -6.078125 C 2.519531 -6.097656 2.738281 -6.109375 2.9375 -6.109375 C 3.445312 -6.109375 3.84375 -5.988281 4.125 -5.75 C 4.40625 -5.519531 4.546875 -5.210938 4.546875 -4.828125 C 4.546875 -4.472656 4.441406 -4.15625 4.234375 -3.875 C 4.035156 -3.59375 3.765625 -3.375 3.421875 -3.21875 C 3.972656 -2.425781 4.429688 -1.804688 4.796875 -1.359375 C 5.171875 -0.921875 5.503906 -0.601562 5.796875 -0.40625 C 6.085938 -0.207031 6.375 -0.109375 6.65625 -0.109375 Z M 1.890625 -3.234375 C 2.054688 -3.203125 2.25 -3.1875 2.46875 -3.1875 C 2.976562 -3.1875 3.34375 -3.296875 3.5625 -3.515625 C 3.78125 -3.742188 3.890625 -4.085938 3.890625 -4.546875 C 3.890625 -5.054688 3.773438 -5.421875 3.546875 -5.640625 C 3.328125 -5.859375 3 -5.96875 2.5625 -5.96875 C 2.3125 -5.96875 2.132812 -5.921875 2.03125 -5.828125 C 1.9375 -5.734375 1.890625 -5.550781 1.890625 -5.28125 Z M 1.890625 -3.234375 "/></g></g></g><g fill="#000000" fill-opacity="1"><g transform="translate(245.663181, 201.92552)"><g><path d="M 5.5625 -5.015625 C 5.5625 -5.648438 5.28125 -5.96875 4.71875 -5.96875 C 4.695312 -5.96875 4.6875 -5.984375 4.6875 -6.015625 C 4.6875 -6.054688 4.695312 -6.078125 4.71875 -6.078125 L 5.140625 -6.078125 C 5.367188 -6.066406 5.550781 -6.0625 5.6875 -6.0625 C 5.800781 -6.0625 5.960938 -6.066406 6.171875 -6.078125 L 6.578125 -6.078125 C 6.585938 -6.078125 6.59375 -6.054688 6.59375 -6.015625 C 6.59375 -5.984375 6.585938 -5.96875 6.578125 -5.96875 C 6.054688 -5.96875 5.796875 -5.648438 5.796875 -5.015625 L 5.796875 -2.25 C 5.796875 -1.5 5.585938 -0.914062 5.171875 -0.5 C 4.765625 -0.0820312 4.207031 0.125 3.5 0.125 C 3.019531 0.125 2.597656 0.03125 2.234375 -0.15625 C 1.878906 -0.34375 1.601562 -0.609375 1.40625 -0.953125 C 1.207031 -1.304688 1.109375 -1.71875 1.109375 -2.1875 L 1.109375 -5.296875 C 1.109375 -5.492188 1.085938 -5.632812 1.046875 -5.71875 C 1.015625 -5.8125 0.941406 -5.875 0.828125 -5.90625 C 0.710938 -5.945312 0.53125 -5.96875 0.28125 -5.96875 C 0.269531 -5.96875 0.265625 -5.984375 0.265625 -6.015625 C 0.265625 -6.054688 0.269531 -6.078125 0.28125 -6.078125 L 0.765625 -6.078125 C 1.035156 -6.066406 1.253906 -6.0625 1.421875 -6.0625 C 1.597656 -6.0625 1.828125 -6.066406 2.109375 -6.078125 L 2.5625 -6.078125 C 2.582031 -6.078125 2.59375 -6.054688 2.59375 -6.015625 C 2.59375 -5.984375 2.582031 -5.96875 2.5625 -5.96875 C 2.320312 -5.96875 2.144531 -5.945312 2.03125 -5.90625 C 1.914062 -5.863281 1.835938 -5.796875 1.796875 -5.703125 C 1.765625 -5.609375 1.75 -5.46875 1.75 -5.28125 L 1.75 -2.515625 C 1.75 -1.753906 1.921875 -1.171875 2.265625 -0.765625 C 2.609375 -0.367188 3.09375 -0.171875 3.71875 -0.171875 C 4.300781 -0.171875 4.753906 -0.351562 5.078125 -0.71875 C 5.398438 -1.082031 5.5625 -1.585938 5.5625 -2.234375 Z M 5.5625 -5.015625 "/></g></g></g><g fill="#000000" fill-opacity="1"><g transform="translate(253.733967, 201.92552)"><g><path d="M 4 -6.1875 C 4.40625 -6.1875 4.75 -6.15625 5.03125 -6.09375 C 5.3125 -6.039062 5.59375 -5.941406 5.875 -5.796875 C 5.914062 -5.773438 5.9375 -5.753906 5.9375 -5.734375 C 5.945312 -5.710938 5.960938 -5.664062 5.984375 -5.59375 L 6.09375 -4.421875 C 6.09375 -4.410156 6.070312 -4.398438 6.03125 -4.390625 C 6 -4.390625 5.984375 -4.398438 5.984375 -4.421875 C 5.679688 -5.503906 5.007812 -6.046875 3.96875 -6.046875 C 3.425781 -6.046875 2.945312 -5.925781 2.53125 -5.6875 C 2.113281 -5.445312 1.789062 -5.101562 1.5625 -4.65625 C 1.332031 -4.207031 1.21875 -3.691406 1.21875 -3.109375 C 1.21875 -2.546875 1.34375 -2.023438 1.59375 -1.546875 C 1.84375 -1.078125 2.179688 -0.707031 2.609375 -0.4375 C 3.035156 -0.164062 3.5 -0.03125 4 -0.03125 C 4.53125 -0.03125 4.960938 -0.160156 5.296875 -0.421875 C 5.628906 -0.679688 5.882812 -1.078125 6.0625 -1.609375 C 6.0625 -1.617188 6.078125 -1.625 6.109375 -1.625 C 6.148438 -1.625 6.171875 -1.613281 6.171875 -1.59375 L 6.078125 -0.53125 C 6.066406 -0.445312 6.054688 -0.394531 6.046875 -0.375 C 6.035156 -0.351562 6.007812 -0.332031 5.96875 -0.3125 C 5.632812 -0.144531 5.316406 -0.03125 5.015625 0.03125 C 4.722656 0.09375 4.382812 0.125 4 0.125 C 3.320312 0.125 2.710938 -0.0078125 2.171875 -0.28125 C 1.640625 -0.550781 1.222656 -0.925781 0.921875 -1.40625 C 0.628906 -1.894531 0.484375 -2.453125 0.484375 -3.078125 C 0.484375 -3.691406 0.632812 -4.234375 0.9375 -4.703125 C 1.238281 -5.171875 1.65625 -5.535156 2.1875 -5.796875 C 2.726562 -6.054688 3.332031 -6.1875 4 -6.1875 Z M 4 -6.1875 "/></g></g></g><g fill="#000000" fill-opacity="1"><g transform="translate(261.688077, 201.92552)"><g><path d="M 7.03125 -0.109375 C 7.050781 -0.109375 7.0625 -0.0859375 7.0625 -0.046875 C 7.0625 -0.015625 7.050781 0 7.03125 0 C 6.820312 0 6.660156 -0.00390625 6.546875 -0.015625 L 5.15625 -0.015625 C 5.050781 -0.00390625 4.898438 0 4.703125 0 C 4.679688 0 4.671875 -0.015625 4.671875 -0.046875 C 4.671875 -0.0859375 4.679688 -0.109375 4.703125 -0.109375 C 4.953125 -0.109375 5.132812 -0.125 5.25 -0.15625 C 5.375 -0.195312 5.457031 -0.265625 5.5 -0.359375 C 5.539062 -0.453125 5.5625 -0.59375 5.5625 -0.78125 L 5.5625 -3.0625 L 1.828125 -3.0625 L 1.828125 -0.78125 C 1.828125 -0.59375 1.847656 -0.453125 1.890625 -0.359375 C 1.929688 -0.265625 2.007812 -0.195312 2.125 -0.15625 C 2.238281 -0.125 2.421875 -0.109375 2.671875 -0.109375 C 2.691406 -0.109375 2.703125 -0.0859375 2.703125 -0.046875 C 2.703125 -0.015625 2.691406 0 2.671875 0 C 2.472656 0 2.316406 -0.00390625 2.203125 -0.015625 L 0.828125 -0.015625 C 0.710938 -0.00390625 0.550781 0 0.34375 0 C 0.332031 0 0.328125 -0.015625 0.328125 -0.046875 C 0.328125 -0.0859375 0.332031 -0.109375 0.34375 -0.109375 C 0.582031 -0.109375 0.765625 -0.125 0.890625 -0.15625 C 1.015625 -0.195312 1.097656 -0.265625 1.140625 -0.359375 C 1.179688 -0.453125 1.203125 -0.59375 1.203125 -0.78125 L 1.203125 -5.296875 C 1.203125 -5.492188 1.179688 -5.632812 1.140625 -5.71875 C 1.097656 -5.8125 1.015625 -5.875 0.890625 -5.90625 C 0.773438 -5.945312 0.59375 -5.96875 0.34375 -5.96875 C 0.332031 -5.96875 0.328125 -5.984375 0.328125 -6.015625 C 0.328125 -6.054688 0.332031 -6.078125 0.34375 -6.078125 L 0.84375 -6.078125 C 1.113281 -6.066406 1.332031 -6.0625 1.5 -6.0625 C 1.6875 -6.0625 1.921875 -6.066406 2.203125 -6.078125 L 2.671875 -6.078125 C 2.691406 -6.078125 2.703125 -6.054688 2.703125 -6.015625 C 2.703125 -5.984375 2.691406 -5.96875 2.671875 -5.96875 C 2.429688 -5.96875 2.25 -5.945312 2.125 -5.90625 C 2.007812 -5.863281 1.929688 -5.796875 1.890625 -5.703125 C 1.847656 -5.609375 1.828125 -5.46875 1.828125 -5.28125 L 1.828125 -3.265625 L 5.5625 -3.265625 L 5.5625 -5.28125 C 5.5625 -5.46875 5.539062 -5.609375 5.5 -5.703125 C 5.457031 -5.796875 5.375 -5.863281 5.25 -5.90625 C 5.132812 -5.945312 4.953125 -5.96875 4.703125 -5.96875 C 4.679688 -5.96875 4.671875 -5.984375 4.671875 -6.015625 C 4.671875 -6.054688 4.679688 -6.078125 4.703125 -6.078125 L 5.15625 -6.078125 C 5.445312 -6.066406 5.6875 -6.0625 5.875 -6.0625 C 6.050781 -6.0625 6.273438 -6.066406 6.546875 -6.078125 L 7.03125 -6.078125 C 7.050781 -6.078125 7.0625 -6.054688 7.0625 -6.015625 C 7.0625 -5.984375 7.050781 -5.96875 7.03125 -5.96875 C 6.78125 -5.96875 6.597656 -5.945312 6.484375 -5.90625 C 6.367188 -5.875 6.289062 -5.8125 6.25 -5.71875 C 6.207031 -5.632812 6.1875 -5.492188 6.1875 -5.296875 L 6.1875 -0.78125 C 6.1875 -0.59375 6.207031 -0.453125 6.25 -0.359375 C 6.289062 -0.265625 6.367188 -0.195312 6.484375 -0.15625 C 6.597656 -0.125 6.78125 -0.109375 7.03125 -0.109375 Z M 7.03125 -0.109375 "/></g></g></g></svg>