<svg xmlns="http://www.w3.org/2000/svg" xmlns:xlink="http://www.w3.org/1999/xlink" width="500" zoomAndPan="magnify" viewBox="0 0 375 374.999991" height="500" preserveAspectRatio="xMidYMid meet" version="1.0"><defs><g/><clipPath id="a5b0cdb61c"><path d="M 128.464844 209.382812 L 162.964844 209.382812 L 162.964844 216.882812 L 128.464844 216.882812 Z M 128.464844 209.382812 " clip-rule="nonzero"/></clipPath><clipPath id="94e9909de9"><path d="M 215 196 L 251 196 L 251 202 L 215 202 Z M 215 196 " clip-rule="nonzero"/></clipPath><clipPath id="b3288d86cd"><path d="M 249.867188 204.640625 L 215.554688 201.035156 L 216.339844 193.578125 L 250.648438 197.179688 Z M 249.867188 204.640625 " clip-rule="nonzero"/></clipPath><clipPath id="7fdd5cb56c"><path d="M 249.867188 204.640625 L 215.554688 201.035156 L 216.339844 193.578125 L 250.648438 197.179688 Z M 249.867188 204.640625 " clip-rule="nonzero"/></clipPath><clipPath id="71072da949"><path d="M 249.867188 204.640625 L 215.554688 201.035156 L 216.339844 193.578125 L 250.648438 197.179688 Z M 249.867188 204.640625 " clip-rule="nonzero"/></clipPath></defs><rect x="-37.5" width="450" fill="#ffffff" y="-37.499999" height="449.999989" fill-opacity="1"/><rect x="-37.5" width="450" fill="#ffffff" y="-37.499999" height="449.999989" fill-opacity="1"/><g fill="#000000" fill-opacity="1"><g transform="translate(147.389262, 184.701008)"><g><path d="M 4.1875 -0.65625 C 4.1875 0.15625 4.007812 0.890625 3.65625 1.546875 C 3.300781 2.203125 2.828125 2.710938 2.234375 3.078125 C 1.640625 3.441406 1.003906 3.625 0.328125 3.625 C 1.054688 3.332031 1.628906 2.796875 2.046875 2.015625 C 2.460938 1.242188 2.671875 0.328125 2.671875 -0.734375 L 2.671875 -12.46875 C 2.671875 -13.007812 2.601562 -13.421875 2.46875 -13.703125 C 2.332031 -13.992188 2.175781 -14.1875 2 -14.28125 C 1.832031 -14.382812 1.75 -14.421875 1.75 -14.390625 L 5.078125 -14.390625 C 5.078125 -14.421875 4.992188 -14.382812 4.828125 -14.28125 C 4.660156 -14.1875 4.507812 -13.992188 4.375 -13.703125 C 4.25 -13.421875 4.1875 -13.007812 4.1875 -12.46875 Z M 4.1875 -0.65625 "/></g></g></g><g fill="#000000" fill-opacity="1"><g transform="translate(156.69745, 184.701008)"><g><path d="M 12.9375 -5 C 12.9375 -3.894531 12.722656 -2.945312 12.296875 -2.15625 C 11.878906 -1.375 11.289062 -0.773438 10.53125 -0.359375 C 9.769531 0.046875 8.890625 0.25 7.890625 0.25 C 6.222656 0.25 4.9375 -0.207031 4.03125 -1.125 C 3.125 -2.050781 2.671875 -3.328125 2.671875 -4.953125 L 2.671875 -12.453125 C 2.671875 -13.003906 2.601562 -13.421875 2.46875 -13.703125 C 2.34375 -13.992188 2.195312 -14.1875 2.03125 -14.28125 C 1.875 -14.382812 1.796875 -14.421875 1.796875 -14.390625 L 5.0625 -14.390625 C 5.0625 -14.421875 4.976562 -14.382812 4.8125 -14.28125 C 4.65625 -14.1875 4.507812 -14 4.375 -13.71875 C 4.25 -13.445312 4.1875 -13.046875 4.1875 -12.515625 L 4.1875 -4.953125 C 4.1875 -3.597656 4.507812 -2.550781 5.15625 -1.8125 C 5.800781 -1.082031 6.753906 -0.71875 8.015625 -0.71875 C 9.171875 -0.71875 10.082031 -1.066406 10.75 -1.765625 C 11.425781 -2.472656 11.765625 -3.515625 11.765625 -4.890625 L 11.765625 -12.453125 C 11.765625 -13.003906 11.691406 -13.421875 11.546875 -13.703125 C 11.410156 -13.992188 11.257812 -14.1875 11.09375 -14.28125 C 10.925781 -14.382812 10.84375 -14.421875 10.84375 -14.390625 L 13.84375 -14.390625 C 13.84375 -14.421875 13.757812 -14.382812 13.59375 -14.28125 C 13.425781 -14.1875 13.273438 -13.992188 13.140625 -13.703125 C 13.003906 -13.421875 12.9375 -13.003906 12.9375 -12.453125 Z M 12.9375 -5 "/></g></g></g><g fill="#000000" fill-opacity="1"><g transform="translate(174.371953, 184.701008)"><g><path d="M 2.671875 -12.453125 C 2.671875 -13.003906 2.601562 -13.421875 2.46875 -13.703125 C 2.34375 -13.992188 2.195312 -14.1875 2.03125 -14.28125 C 1.863281 -14.382812 1.78125 -14.421875 1.78125 -14.390625 L 5.109375 -14.390625 C 5.109375 -14.421875 5.023438 -14.382812 4.859375 -14.28125 C 4.691406 -14.1875 4.535156 -13.992188 4.390625 -13.703125 C 4.253906 -13.421875 4.1875 -13.003906 4.1875 -12.453125 L 4.1875 -0.84375 L 7.609375 -0.84375 C 8.242188 -0.84375 8.785156 -0.96875 9.234375 -1.21875 C 9.691406 -1.476562 10.015625 -1.8125 10.203125 -2.21875 L 9.828125 0 L 1.78125 0 C 1.78125 0.0390625 1.863281 0.0078125 2.03125 -0.09375 C 2.195312 -0.195312 2.34375 -0.40625 2.46875 -0.71875 C 2.601562 -1.03125 2.671875 -1.488281 2.671875 -2.09375 Z M 2.671875 -12.453125 "/></g></g></g><g fill="#000000" fill-opacity="1"><g transform="translate(187.737805, 184.701008)"><g><path d="M 1.75 0 C 1.75 0.0390625 1.832031 0.0078125 2 -0.09375 C 2.175781 -0.195312 2.332031 -0.390625 2.46875 -0.671875 C 2.601562 -0.960938 2.671875 -1.390625 2.671875 -1.953125 L 2.671875 -12.453125 C 2.671875 -13.003906 2.601562 -13.421875 2.46875 -13.703125 C 2.34375 -13.992188 2.195312 -14.1875 2.03125 -14.28125 C 1.863281 -14.382812 1.78125 -14.421875 1.78125 -14.390625 L 5.109375 -14.390625 C 5.109375 -14.421875 5.023438 -14.382812 4.859375 -14.28125 C 4.691406 -14.1875 4.535156 -13.992188 4.390625 -13.703125 C 4.253906 -13.421875 4.1875 -13.003906 4.1875 -12.453125 L 4.1875 -1.953125 C 4.1875 -1.390625 4.253906 -0.960938 4.390625 -0.671875 C 4.535156 -0.390625 4.691406 -0.195312 4.859375 -0.09375 C 5.023438 0 5.109375 0.03125 5.109375 0 Z M 1.75 0 "/></g></g></g><g fill="#000000" fill-opacity="1"><g transform="translate(197.045994, 184.701008)"><g><path d="M 1.78125 0 C 1.78125 0.0390625 1.863281 0.0078125 2.03125 -0.09375 C 2.195312 -0.195312 2.34375 -0.40625 2.46875 -0.71875 C 2.601562 -1.03125 2.671875 -1.488281 2.671875 -2.09375 L 2.671875 -12.359375 C 2.671875 -12.929688 2.601562 -13.367188 2.46875 -13.671875 C 2.34375 -13.972656 2.195312 -14.175781 2.03125 -14.28125 C 1.863281 -14.394531 1.78125 -14.429688 1.78125 -14.390625 L 9.359375 -14.390625 L 9.359375 -12.296875 C 9.097656 -13.140625 8.34375 -13.5625 7.09375 -13.5625 L 4.1875 -13.5625 L 4.1875 -7.609375 L 7.78125 -7.609375 C 8.0625 -7.609375 8.296875 -7.65625 8.484375 -7.75 C 8.679688 -7.84375 8.828125 -7.9375 8.921875 -8.03125 C 9.023438 -8.132812 9.082031 -8.195312 9.09375 -8.21875 L 9.09375 -6.1875 C 9.082031 -6.21875 9.023438 -6.28125 8.921875 -6.375 C 8.828125 -6.476562 8.6875 -6.570312 8.5 -6.65625 C 8.3125 -6.738281 8.078125 -6.78125 7.796875 -6.78125 L 4.1875 -6.78125 L 4.1875 -0.84375 L 7.453125 -0.84375 C 8.078125 -0.84375 8.613281 -0.96875 9.0625 -1.21875 C 9.519531 -1.476562 9.847656 -1.8125 10.046875 -2.21875 L 9.671875 0 Z M 1.78125 0 "/></g></g></g><g fill="#000000" fill-opacity="1"><g transform="translate(210.871994, 184.701008)"><g><path d="M 15.25 -14.390625 C 15.050781 -14.347656 14.859375 -14.191406 14.671875 -13.921875 C 14.484375 -13.648438 14.390625 -13.171875 14.390625 -12.484375 L 14.390625 0.578125 L 3.6875 -11.90625 L 3.6875 -1.890625 C 3.6875 -1.210938 3.800781 -0.738281 4.03125 -0.46875 C 4.269531 -0.195312 4.503906 -0.0390625 4.734375 0 L 1.78125 0 C 1.976562 -0.0390625 2.175781 -0.195312 2.375 -0.46875 C 2.570312 -0.738281 2.671875 -1.21875 2.671875 -1.90625 L 2.671875 -12.359375 C 2.671875 -12.835938 2.507812 -13.269531 2.1875 -13.65625 C 1.875 -14.050781 1.472656 -14.296875 0.984375 -14.390625 L 3.578125 -14.390625 L 13.390625 -2.953125 L 13.390625 -12.484375 C 13.390625 -13.554688 13.023438 -14.191406 12.296875 -14.390625 Z M 15.25 -14.390625 "/></g></g></g><g fill="#000000" fill-opacity="1"><g transform="translate(160.454989, 205.044257)"><g><path d="M 14.972656 -18.609375 C 13.269531 -19.652344 10.714844 -19.5 8.183594 -18.300781 C 8.242188 -18.589844 8.296875 -18.878906 8.335938 -19.132812 C 8.375 -19.324219 8.242188 -19.519531 8.046875 -19.558594 C 7.835938 -19.59375 7.640625 -19.460938 7.601562 -19.246094 C 7.542969 -18.839844 7.449219 -18.375 7.351562 -17.855469 C 6.945312 -17.640625 6.539062 -17.371094 6.152344 -17.101562 C 3.035156 -14.855469 0.0976562 -10.714844 1.199219 -5.765625 C 1.238281 -5.570312 1.429688 -5.4375 1.644531 -5.492188 C 1.835938 -5.53125 1.972656 -5.726562 1.914062 -5.9375 C 0.890625 -10.523438 3.65625 -14.390625 6.578125 -16.480469 C 6.769531 -16.617188 6.964844 -16.75 7.15625 -16.886719 C 6.789062 -15.011719 6.304688 -12.652344 5.785156 -10.058594 C 4.179688 -2.128906 3.210938 2.804688 2.6875 5.898438 C 2.515625 5.648438 2.398438 5.320312 2.359375 4.914062 C 2.320312 4.699219 2.148438 4.566406 1.933594 4.585938 C 1.742188 4.605469 1.585938 4.796875 1.605469 4.992188 C 1.703125 5.824219 2.03125 6.421875 2.535156 6.789062 C 1.894531 10.679688 2.109375 11.007812 2.496094 11.121094 C 2.535156 11.140625 2.59375 11.140625 2.628906 11.140625 C 3 11.140625 3.25 10.660156 3.65625 9.671875 C 3.734375 9.476562 3.65625 9.265625 3.460938 9.1875 C 3.269531 9.109375 3.054688 9.1875 2.980469 9.382812 C 2.941406 9.460938 2.921875 9.515625 2.902344 9.574219 C 2.960938 8.957031 3.074219 8.105469 3.230469 7.078125 C 3.386719 7.097656 3.539062 7.117188 3.714844 7.136719 C 3.734375 7.136719 3.753906 7.136719 3.753906 7.136719 C 5.746094 7.136719 8.683594 5.03125 11.257812 1.761719 C 14.316406 -2.089844 16.363281 -6.925781 17.082031 -11.800781 C 17.699219 -15.996094 16.269531 -17.816406 14.972656 -18.609375 Z M 16.34375 -11.914062 C 15.417969 -5.492188 12.398438 -0.871094 10.679688 1.316406 C 7.910156 4.816406 5.203125 6.382812 3.753906 6.382812 C 3.753906 6.382812 3.734375 6.382812 3.734375 6.382812 C 3.597656 6.382812 3.480469 6.363281 3.367188 6.34375 C 4.101562 1.992188 5.472656 -4.816406 6.519531 -9.902344 C 7.097656 -12.804688 7.640625 -15.417969 8.007812 -17.371094 C 10.464844 -18.6875 12.980469 -18.9375 14.585938 -17.96875 C 16.171875 -17.003906 16.789062 -14.914062 16.34375 -11.914062 Z M 16.34375 -11.914062 "/></g></g></g><g fill="#000000" fill-opacity="1"><g transform="translate(176.911911, 205.044257)"><g><path d="M 7.699219 -4.179688 C 7.523438 -4.273438 7.292969 -4.21875 7.195312 -4.042969 C 5.359375 -1.101562 3.8125 0.210938 3.480469 0.0976562 C 3.480469 0.0976562 3.09375 -0.117188 3.460938 -2.339844 C 3.597656 -3.09375 3.65625 -3.519531 3.289062 -3.675781 C 2.941406 -3.8125 2.726562 -3.519531 2.320312 -2.941406 C 1.992188 -2.476562 1.546875 -1.855469 1.0625 -1.429688 C 1.007812 -1.394531 0.792969 -1.199219 0.695312 -1.277344 C 0.40625 -1.507812 0.347656 -2.765625 1.023438 -3.925781 C 1.140625 -4.101562 1.0625 -4.332031 0.890625 -4.449219 C 0.714844 -4.546875 0.484375 -4.488281 0.386719 -4.3125 C -0.386719 -2.960938 -0.464844 -1.277344 0.210938 -0.714844 C 0.386719 -0.5625 0.871094 -0.289062 1.546875 -0.851562 C 1.992188 -1.238281 2.378906 -1.742188 2.6875 -2.167969 C 2.417969 -0.367188 2.574219 0.542969 3.210938 0.792969 C 3.308594 0.832031 3.40625 0.832031 3.480469 0.832031 C 4.953125 0.832031 7.332031 -2.882812 7.816406 -3.65625 C 7.929688 -3.832031 7.871094 -4.0625 7.699219 -4.179688 Z M 7.699219 -4.179688 "/></g></g></g><g fill="#000000" fill-opacity="1"><g transform="translate(183.835035, 205.044257)"><g><path d="M 16.328125 -11.414062 C 16.074219 -11.761719 14.953125 -11.972656 2.941406 -11.703125 C 3.328125 -13.269531 3.675781 -14.683594 3.984375 -15.824219 C 4.042969 -16.035156 3.925781 -16.230469 3.734375 -16.289062 C 3.539062 -16.34375 3.328125 -16.230469 3.269531 -16.035156 C 2.941406 -14.816406 2.574219 -13.347656 2.167969 -11.683594 C 1.101562 -11.664062 -0.0585938 -11.644531 -1.316406 -11.605469 C -3.035156 -11.566406 -4.390625 -11.527344 -4.914062 -11.527344 C -5.125 -11.527344 -5.300781 -11.355469 -5.300781 -11.160156 C -5.300781 -10.949219 -5.125 -10.773438 -4.914062 -10.773438 C -4.371094 -10.792969 -3.019531 -10.8125 -1.296875 -10.871094 C -0.386719 -10.890625 0.734375 -10.910156 1.992188 -10.949219 C 1.160156 -7.429688 0.210938 -3.210938 -0.636719 0.910156 C -1.257812 3.925781 -1.761719 6.539062 -2.089844 8.453125 C -2.261719 9.460938 -2.378906 10.253906 -2.4375 10.792969 C -2.515625 11.527344 -2.554688 11.953125 -2.1875 12.089844 C -2.128906 12.089844 -2.089844 12.109375 -2.03125 12.109375 C -1.703125 12.109375 -1.527344 11.644531 -1.375 11.21875 C -1.296875 11.027344 -1.394531 10.8125 -1.585938 10.734375 C -1.625 10.734375 -1.644531 10.714844 -1.683594 10.714844 C -1.488281 9.207031 -0.910156 5.824219 0.210938 0.484375 C 1.042969 -3.558594 1.953125 -7.601562 2.765625 -10.96875 C 8.085938 -11.085938 14.992188 -11.179688 15.785156 -10.910156 C 15.921875 -10.792969 16.09375 -10.792969 16.25 -10.890625 C 16.402344 -11.007812 16.441406 -11.238281 16.328125 -11.414062 Z M 16.328125 -11.414062 "/></g></g></g><g fill="#000000" fill-opacity="1"><g transform="translate(186.407034, 205.044257)"><g><path d="M 8.492188 -4.371094 C 8.296875 -4.46875 8.066406 -4.390625 7.988281 -4.199219 C 5.765625 0.484375 3.65625 2.882812 3.191406 2.804688 C 3.152344 2.785156 2.476562 2.128906 4.660156 -4.585938 C 4.71875 -4.757812 4.855469 -5.164062 4.546875 -5.378906 C 4.253906 -5.609375 3.925781 -5.398438 3.386719 -5.03125 C 2.804688 -4.660156 2.011719 -4.140625 1.394531 -4.21875 C 3.367188 -7.621094 3.171875 -8.375 2.726562 -8.667969 C 2.03125 -9.074219 1.023438 -7.890625 0.5625 -7.214844 C -0.386719 -5.746094 -0.367188 -4.410156 0.636719 -3.734375 C 1.664062 -3.019531 3 -3.886719 3.792969 -4.410156 C 3.8125 -4.429688 3.8125 -4.429688 3.832031 -4.449219 C 3.074219 -2.070312 2.59375 -0.195312 2.417969 1.101562 C 2.207031 2.535156 2.359375 3.289062 2.902344 3.5 C 3 3.519531 3.074219 3.539062 3.171875 3.539062 C 4.71875 3.539062 7.410156 -1.21875 8.667969 -3.867188 C 8.742188 -4.0625 8.667969 -4.292969 8.492188 -4.371094 Z M 0.675781 -5.707031 C 0.949219 -6.75 1.855469 -7.71875 2.261719 -7.949219 C 2.222656 -7.640625 2.011719 -6.769531 0.773438 -4.625 C 0.636719 -4.835938 0.542969 -5.164062 0.675781 -5.707031 Z M 0.675781 -5.707031 "/></g></g></g><g fill="#000000" fill-opacity="1"><g transform="translate(194.123029, 205.044257)"><g><path d="M 7.699219 -4.179688 C 7.523438 -4.273438 7.292969 -4.21875 7.195312 -4.042969 C 5.359375 -1.101562 3.8125 0.210938 3.480469 0.0976562 C 3.480469 0.0976562 3.09375 -0.117188 3.460938 -2.339844 C 3.597656 -3.09375 3.65625 -3.519531 3.289062 -3.675781 C 2.941406 -3.8125 2.726562 -3.519531 2.320312 -2.941406 C 1.992188 -2.476562 1.546875 -1.855469 1.0625 -1.429688 C 1.007812 -1.394531 0.792969 -1.199219 0.695312 -1.277344 C 0.40625 -1.507812 0.347656 -2.765625 1.023438 -3.925781 C 1.140625 -4.101562 1.0625 -4.332031 0.890625 -4.449219 C 0.714844 -4.546875 0.484375 -4.488281 0.386719 -4.3125 C -0.386719 -2.960938 -0.464844 -1.277344 0.210938 -0.714844 C 0.386719 -0.5625 0.871094 -0.289062 1.546875 -0.851562 C 1.992188 -1.238281 2.378906 -1.742188 2.6875 -2.167969 C 2.417969 -0.367188 2.574219 0.542969 3.210938 0.792969 C 3.308594 0.832031 3.40625 0.832031 3.480469 0.832031 C 4.953125 0.832031 7.332031 -2.882812 7.816406 -3.65625 C 7.929688 -3.832031 7.871094 -4.0625 7.699219 -4.179688 Z M 7.699219 -4.179688 "/></g></g></g><g fill="#000000" fill-opacity="1"><g transform="translate(201.046153, 205.044257)"><g><path d="M 6.382812 -4.390625 C 6.210938 -4.488281 5.976562 -4.449219 5.878906 -4.273438 C 4.566406 -2.28125 2.378906 1.042969 0.949219 0.734375 C 0.714844 0.675781 0.523438 0.523438 0.386719 0.269531 C 0 -0.425781 0.0585938 -1.816406 0.503906 -3.035156 C 0.988281 -4.332031 1.566406 -4.660156 1.683594 -4.640625 C 1.703125 -4.625 1.816406 -4.371094 1.664062 -3.773438 C 1.605469 -3.558594 1.722656 -3.367188 1.914062 -3.308594 C 2.128906 -3.269531 2.320312 -3.386719 2.378906 -3.578125 C 2.746094 -4.972656 2.109375 -5.28125 1.914062 -5.359375 C 1.199219 -5.570312 0.328125 -4.71875 -0.195312 -3.289062 C -0.636719 -2.089844 -0.832031 -0.386719 -0.25 0.636719 C -0.0195312 1.082031 0.347656 1.355469 0.792969 1.449219 C 0.910156 1.488281 1.023438 1.488281 1.140625 1.488281 C 2.824219 1.488281 4.640625 -1.042969 6.5 -3.867188 C 6.617188 -4.042969 6.558594 -4.273438 6.382812 -4.390625 Z M 6.382812 -4.390625 "/></g></g></g><g fill="#000000" fill-opacity="1"><g transform="translate(206.7703, 205.044257)"><g><path d="M 9.148438 -4.410156 C 8.976562 -4.527344 8.742188 -4.46875 8.648438 -4.292969 C 5.898438 0.136719 4.933594 0.0390625 4.835938 0.0195312 C 4.640625 -0.0390625 4.429688 -0.425781 4.371094 -1.375 C 4.351562 -1.800781 4.253906 -3.074219 3.40625 -3.191406 C 2.417969 -3.328125 1.238281 -1.605469 0.175781 0.617188 C 0.832031 -2.320312 1.78125 -6.363281 2.476562 -9.226562 C 5.066406 -13.890625 6.382812 -17.390625 5.84375 -18.144531 C 5.726562 -18.320312 5.53125 -18.375 5.339844 -18.339844 C 4.507812 -18.183594 3.210938 -15.359375 2.339844 -11.78125 C 2.300781 -11.644531 -1.160156 2.496094 -1.277344 4.234375 C -1.277344 4.429688 -1.160156 4.585938 -0.96875 4.625 C -0.949219 4.625 -0.929688 4.625 -0.910156 4.625 C -0.753906 4.625 -0.601562 4.527344 -0.542969 4.390625 C 1.140625 -0.445312 2.785156 -2.457031 3.269531 -2.457031 C 3.289062 -2.457031 3.289062 -2.457031 3.289062 -2.457031 C 3.367188 -2.457031 3.578125 -2.222656 3.636719 -1.335938 C 3.65625 -0.871094 3.753906 0.503906 4.640625 0.734375 C 5.03125 0.832031 6.171875 1.121094 9.265625 -3.90625 C 9.382812 -4.082031 9.324219 -4.3125 9.148438 -4.410156 Z M 5.203125 -17.273438 C 5.046875 -16.5 4.507812 -14.835938 3.210938 -12.226562 C 3.945312 -15.011719 4.738281 -16.617188 5.203125 -17.273438 Z M 5.203125 -17.273438 "/></g></g></g><g clip-path="url(#a5b0cdb61c)"><path fill="#000000" d="M 162.921875 210.09375 L 162.921875 209.503906 C 162.867188 209.472656 162.816406 209.429688 162.773438 209.382812 C 161.554688 210.105469 158.457031 211.5625 155.074219 212.488281 C 150.808594 213.65625 142.410156 216.195312 137.746094 216.378906 C 137.433594 216.402344 137.125 216.402344 136.835938 216.402344 C 132.902344 216.402344 131.414062 215.234375 129.414062 213.472656 C 129.414062 213.472656 129.191406 213.335938 128.949219 213.335938 C 128.792969 213.335938 128.636719 213.402344 128.546875 213.609375 C 128.503906 213.679688 128.503906 213.769531 128.503906 213.839844 C 128.503906 214.320312 129.039062 214.960938 130.171875 215.554688 C 131.257812 216.148438 133.367188 216.882812 136.546875 216.882812 C 137.300781 216.882812 138.121094 216.835938 139.011719 216.746094 C 143.609375 216.21875 151.40625 214.296875 155.71875 212.945312 C 159.339844 211.8125 161.863281 210.839844 162.839844 210.273438 C 162.859375 210.207031 162.886719 210.148438 162.921875 210.09375 Z M 162.921875 210.09375 " fill-opacity="1" fill-rule="nonzero"/></g><g clip-path="url(#94e9909de9)"><g clip-path="url(#b3288d86cd)"><g clip-path="url(#7fdd5cb56c)"><g clip-path="url(#71072da949)"><path fill="#000000" d="M 215.667969 200.332031 L 215.609375 200.917969 C 215.660156 200.957031 215.707031 201.003906 215.746094 201.054688 C 217.03125 200.464844 220.265625 199.339844 223.726562 198.769531 C 228.089844 198.054688 236.707031 196.40625 241.367188 196.714844 C 241.679688 196.722656 241.988281 196.753906 242.273438 196.785156 C 246.183594 197.195312 247.542969 198.511719 249.347656 200.472656 C 249.347656 200.472656 249.554688 200.632812 249.796875 200.660156 C 249.953125 200.675781 250.113281 200.621094 250.222656 200.425781 C 250.273438 200.363281 250.285156 200.273438 250.292969 200.203125 C 250.34375 199.726562 249.878906 199.035156 248.8125 198.324219 C 247.792969 197.617188 245.769531 196.667969 242.613281 196.335938 C 241.859375 196.257812 241.039062 196.21875 240.144531 196.214844 C 235.515625 196.257812 227.5625 197.355469 223.132812 198.25 C 219.414062 199 216.800781 199.703125 215.773438 200.164062 C 215.746094 200.226562 215.710938 200.28125 215.667969 200.332031 Z M 215.667969 200.332031 " fill-opacity="1" fill-rule="nonzero"/></g></g></g></g></svg>