<svg xmlns="http://www.w3.org/2000/svg" xmlns:xlink="http://www.w3.org/1999/xlink" width="500" zoomAndPan="magnify" viewBox="0 0 375 374.999991" height="500" preserveAspectRatio="xMidYMid meet" version="1.0"><defs><g/><clipPath id="88292dce73"><path d="M 218 174 L 232 174 L 232 189 L 218 189 Z M 218 174 " clip-rule="nonzero"/></clipPath><clipPath id="83142784e2"><path d="M 216.746094 175.558594 L 230.792969 173.160156 L 232.941406 185.730469 L 218.894531 188.128906 Z M 216.746094 175.558594 " clip-rule="nonzero"/></clipPath><clipPath id="08a5e162dc"><path d="M 216.746094 175.558594 L 230.792969 173.160156 L 232.941406 185.730469 L 218.894531 188.128906 Z M 216.746094 175.558594 " clip-rule="nonzero"/></clipPath></defs><rect x="-37.5" width="450" fill="#ffffff" y="-37.499999" height="449.999989" fill-opacity="1"/><rect x="-37.5" width="450" fill="#000000" y="-37.499999" height="449.999989" fill-opacity="1"/><g clip-path="url(#88292dce73)"><g clip-path="url(#83142784e2)"><g clip-path="url(#08a5e162dc)"><path fill="#ffffff" d="M 230.449219 174.671875 C 230.449219 174.671875 230.449219 174.675781 230.453125 174.675781 C 230.453125 174.683594 230.457031 174.699219 230.457031 174.707031 C 230.457031 174.710938 230.457031 174.710938 230.457031 174.710938 C 230.453125 174.710938 230.453125 174.703125 230.449219 174.691406 C 230.449219 174.679688 230.449219 174.671875 230.449219 174.671875 Z M 221.488281 174.75 C 221.46875 174.753906 221.453125 174.761719 221.441406 174.777344 C 221.425781 174.796875 221.421875 174.808594 221.425781 174.839844 C 221.433594 174.875 221.441406 174.882812 221.472656 174.90625 C 221.496094 174.921875 221.539062 174.949219 221.566406 174.96875 C 221.59375 174.988281 221.640625 175.023438 221.664062 175.042969 C 221.6875 175.066406 221.714844 175.089844 221.726562 175.09375 C 221.738281 175.097656 221.75 175.105469 221.75 175.113281 C 221.753906 175.117188 221.761719 175.132812 221.777344 175.140625 L 221.796875 175.160156 L 221.78125 175.191406 C 221.773438 175.207031 221.765625 175.21875 221.761719 175.21875 C 221.71875 175.207031 221.609375 175.1875 221.550781 175.1875 C 221.53125 175.1875 221.488281 175.1875 221.464844 175.1875 C 221.394531 175.183594 221.328125 175.175781 221.28125 175.164062 C 221.261719 175.15625 221.226562 175.152344 221.207031 175.15625 C 221.175781 175.160156 221.167969 175.167969 221.15625 175.195312 C 221.136719 175.234375 221.140625 175.296875 221.164062 175.320312 C 221.183594 175.34375 221.320312 175.375 221.359375 175.367188 C 221.375 175.363281 221.410156 175.371094 221.441406 175.378906 C 221.472656 175.390625 221.507812 175.398438 221.511719 175.394531 C 221.519531 175.394531 221.546875 175.394531 221.574219 175.398438 C 221.601562 175.402344 221.640625 175.40625 221.664062 175.40625 C 221.699219 175.410156 221.703125 175.410156 221.695312 175.425781 C 221.691406 175.433594 221.683594 175.4375 221.671875 175.4375 C 221.667969 175.441406 221.660156 175.441406 221.652344 175.441406 C 221.613281 175.441406 221.285156 175.484375 221.140625 175.511719 C 221.109375 175.515625 221.085938 175.519531 221.078125 175.523438 C 221.035156 175.539062 221.027344 175.554688 221.039062 175.621094 C 221.054688 175.703125 221.070312 175.710938 221.183594 175.703125 C 221.234375 175.695312 221.320312 175.6875 221.371094 175.683594 C 221.425781 175.679688 221.519531 175.667969 221.585938 175.65625 L 221.707031 175.636719 L 221.699219 175.65625 C 221.691406 175.667969 221.683594 175.683594 221.675781 175.6875 C 221.65625 175.699219 221.585938 175.734375 221.535156 175.75 C 221.511719 175.757812 221.472656 175.773438 221.445312 175.789062 C 221.417969 175.804688 221.355469 175.828125 221.300781 175.84375 C 221.171875 175.882812 221.164062 175.886719 221.171875 175.953125 C 221.179688 176 221.183594 176.011719 221.203125 176.027344 C 221.21875 176.042969 221.226562 176.042969 221.300781 176.03125 C 221.320312 176.027344 221.34375 176.023438 221.375 176.019531 C 221.53125 175.988281 221.664062 175.945312 221.714844 175.910156 C 221.738281 175.898438 221.765625 175.886719 221.828125 175.878906 C 221.835938 175.875 221.839844 175.875 221.84375 175.875 C 221.933594 175.859375 221.949219 175.859375 221.992188 175.875 C 222.019531 175.882812 222.046875 175.890625 222.046875 175.894531 C 222.054688 175.902344 222.046875 175.976562 222.035156 176.011719 C 222.03125 176.023438 222.019531 176.042969 222.007812 176.058594 C 221.972656 176.101562 221.972656 176.191406 222.011719 176.304688 C 222.046875 176.40625 222.0625 176.425781 222.121094 176.414062 C 222.128906 176.414062 222.136719 176.410156 222.148438 176.40625 L 222.191406 176.398438 L 222.183594 176.335938 C 222.171875 176.269531 222.171875 176.210938 222.179688 176.203125 C 222.191406 176.191406 222.230469 176.113281 222.230469 176.105469 C 222.226562 176.089844 222.339844 175.972656 222.359375 175.96875 C 222.363281 175.96875 222.378906 175.957031 222.390625 175.941406 C 222.414062 175.910156 222.433594 175.898438 222.492188 175.875 C 222.511719 175.863281 222.546875 175.847656 222.566406 175.832031 C 222.585938 175.820312 222.605469 175.808594 222.613281 175.808594 C 222.617188 175.804688 222.636719 175.785156 222.648438 175.761719 C 222.675781 175.71875 222.691406 175.710938 222.90625 175.640625 C 223.070312 175.59375 223.109375 175.582031 223.363281 175.535156 C 223.386719 175.53125 223.410156 175.527344 223.433594 175.523438 C 223.648438 175.488281 223.714844 175.484375 223.808594 175.492188 C 223.878906 175.496094 223.910156 175.496094 224.046875 175.496094 C 224.089844 175.496094 224.160156 175.496094 224.199219 175.496094 C 224.308594 175.5 224.410156 175.492188 224.546875 175.46875 C 224.585938 175.460938 224.628906 175.453125 224.679688 175.441406 L 224.882812 175.402344 L 224.910156 175.417969 C 224.921875 175.425781 224.96875 175.453125 225.007812 175.472656 C 225.046875 175.496094 225.117188 175.542969 225.167969 175.578125 C 225.257812 175.640625 225.367188 175.710938 225.390625 175.714844 C 225.394531 175.714844 225.410156 175.726562 225.425781 175.734375 C 225.472656 175.761719 225.519531 175.789062 225.578125 175.8125 C 225.609375 175.824219 225.640625 175.84375 225.652344 175.851562 C 225.664062 175.859375 225.679688 175.867188 225.6875 175.863281 C 225.699219 175.863281 225.707031 175.867188 225.710938 175.878906 C 225.71875 175.886719 225.726562 175.894531 225.734375 175.894531 C 225.761719 175.902344 225.757812 175.949219 225.730469 176.003906 C 225.71875 176.035156 225.699219 176.074219 225.695312 176.089844 C 225.6875 176.109375 225.671875 176.144531 225.660156 176.164062 C 225.648438 176.183594 225.632812 176.214844 225.621094 176.234375 C 225.597656 176.277344 225.582031 176.304688 225.546875 176.34375 C 225.464844 176.441406 225.394531 176.53125 225.351562 176.601562 C 225.339844 176.621094 225.300781 176.679688 225.265625 176.734375 C 225.230469 176.789062 225.203125 176.835938 225.203125 176.839844 C 225.207031 176.847656 225.179688 176.898438 225.148438 176.945312 C 225.136719 176.960938 225.113281 177 225.097656 177.035156 C 225.078125 177.066406 225.027344 177.144531 224.984375 177.207031 C 224.941406 177.269531 224.886719 177.351562 224.867188 177.390625 C 224.847656 177.425781 224.824219 177.457031 224.820312 177.457031 C 224.816406 177.460938 224.808594 177.484375 224.800781 177.511719 C 224.792969 177.535156 224.78125 177.558594 224.777344 177.558594 C 224.773438 177.558594 224.761719 177.585938 224.75 177.617188 C 224.714844 177.714844 224.703125 177.746094 224.683594 177.777344 C 224.671875 177.792969 224.664062 177.808594 224.664062 177.8125 C 224.667969 177.820312 224.609375 177.917969 224.570312 177.972656 C 224.558594 177.988281 224.550781 178.011719 224.550781 178.023438 C 224.546875 178.039062 224.542969 178.054688 224.53125 178.058594 C 224.523438 178.066406 224.515625 178.078125 224.515625 178.089844 C 224.515625 178.097656 224.503906 178.109375 224.488281 178.117188 C 224.441406 178.136719 224.375 178.226562 224.371094 178.289062 C 224.367188 178.328125 224.292969 178.441406 224.269531 178.445312 C 224.261719 178.445312 224.234375 178.464844 224.207031 178.488281 C 224.167969 178.519531 224.152344 178.535156 224.144531 178.570312 C 224.132812 178.613281 224.109375 178.640625 224.074219 178.65625 C 224.0625 178.660156 224.046875 178.679688 224.039062 178.703125 C 224.035156 178.71875 224.019531 178.75 224.003906 178.769531 C 223.988281 178.785156 223.972656 178.808594 223.96875 178.8125 C 223.953125 178.835938 223.875 178.886719 223.851562 178.894531 C 223.835938 178.894531 223.820312 178.902344 223.820312 178.90625 C 223.816406 178.914062 223.792969 178.933594 223.765625 178.957031 C 223.738281 178.980469 223.707031 179.011719 223.699219 179.023438 C 223.6875 179.039062 223.660156 179.058594 223.636719 179.070312 C 223.601562 179.089844 223.585938 179.101562 223.582031 179.117188 C 223.578125 179.132812 223.566406 179.144531 223.554688 179.152344 C 223.542969 179.15625 223.527344 179.167969 223.519531 179.175781 C 223.515625 179.183594 223.488281 179.203125 223.464844 179.21875 C 223.4375 179.234375 223.410156 179.261719 223.402344 179.273438 C 223.398438 179.289062 223.386719 179.300781 223.378906 179.304688 C 223.367188 179.3125 223.316406 179.375 223.269531 179.441406 C 223.203125 179.535156 223.195312 179.550781 223.183594 179.582031 C 223.179688 179.601562 223.171875 179.617188 223.167969 179.617188 C 223.160156 179.617188 223.15625 179.628906 223.152344 179.648438 C 223.148438 179.664062 223.136719 179.699219 223.121094 179.726562 C 223.109375 179.753906 223.101562 179.777344 223.101562 179.777344 C 223.101562 179.78125 223.09375 179.816406 223.082031 179.859375 C 223.070312 179.898438 223.054688 179.960938 223.050781 179.992188 C 223.050781 180.027344 223.042969 180.0625 223.042969 180.074219 C 223.035156 180.109375 223.03125 180.214844 223.035156 180.25 C 223.039062 180.265625 223.039062 180.296875 223.035156 180.3125 C 223.027344 180.324219 223.027344 180.351562 223.03125 180.367188 C 223.03125 180.386719 223.03125 180.410156 223.027344 180.421875 C 223.019531 180.441406 223.019531 180.507812 223.023438 180.570312 C 223.03125 180.625 223.023438 180.640625 223.003906 180.660156 C 222.992188 180.667969 222.984375 180.683594 222.984375 180.695312 C 222.988281 180.707031 222.980469 180.722656 222.96875 180.734375 C 222.960938 180.742188 222.949219 180.765625 222.949219 180.777344 C 222.945312 180.804688 222.910156 180.875 222.875 180.917969 C 222.863281 180.933594 222.832031 180.972656 222.808594 181.007812 C 222.785156 181.039062 222.765625 181.066406 222.761719 181.066406 C 222.757812 181.070312 222.601562 181.285156 222.558594 181.355469 C 222.542969 181.378906 222.527344 181.40625 222.523438 181.417969 C 222.519531 181.429688 222.503906 181.457031 222.492188 181.480469 C 222.480469 181.5 222.46875 181.523438 222.464844 181.53125 C 222.460938 181.542969 222.441406 181.582031 222.417969 181.625 C 222.375 181.714844 222.347656 181.765625 222.324219 181.835938 C 222.3125 181.863281 222.296875 181.898438 222.289062 181.917969 C 222.28125 181.933594 222.273438 181.953125 222.277344 181.957031 C 222.277344 181.960938 222.269531 181.976562 222.261719 181.996094 C 222.25 182.011719 222.238281 182.042969 222.230469 182.066406 C 222.222656 182.089844 222.210938 182.117188 222.207031 182.125 C 222.199219 182.132812 222.191406 182.15625 222.1875 182.171875 C 222.183594 182.1875 222.175781 182.203125 222.175781 182.203125 C 222.171875 182.207031 222.152344 182.234375 222.136719 182.273438 C 222.121094 182.308594 222.105469 182.34375 222.097656 182.351562 C 222.09375 182.359375 222.089844 182.375 222.09375 182.382812 C 222.09375 182.394531 222.09375 182.402344 222.085938 182.402344 C 222.082031 182.402344 222.070312 182.429688 222.054688 182.464844 C 222.042969 182.496094 222.027344 182.527344 222.019531 182.535156 C 222.011719 182.542969 222 182.5625 221.992188 182.582031 C 221.980469 182.597656 221.964844 182.621094 221.949219 182.632812 C 221.933594 182.644531 221.886719 182.699219 221.84375 182.757812 C 221.75 182.882812 221.730469 182.90625 221.660156 182.960938 C 221.628906 182.980469 221.601562 183.003906 221.59375 183.007812 C 221.546875 183.042969 221.457031 183.109375 221.4375 183.117188 C 221.410156 183.128906 221.363281 183.160156 221.359375 183.167969 C 221.359375 183.175781 221.332031 183.195312 221.300781 183.21875 C 221.273438 183.242188 221.246094 183.261719 221.246094 183.269531 C 221.246094 183.277344 221.238281 183.28125 221.230469 183.285156 C 221.222656 183.285156 221.183594 183.3125 221.132812 183.355469 C 221.125 183.359375 221.097656 183.382812 221.074219 183.398438 C 221.046875 183.417969 221.003906 183.453125 220.972656 183.476562 C 220.941406 183.5 220.898438 183.535156 220.882812 183.546875 C 220.863281 183.5625 220.828125 183.597656 220.800781 183.628906 C 220.777344 183.660156 220.753906 183.6875 220.75 183.6875 C 220.738281 183.691406 220.628906 183.855469 220.605469 183.90625 C 220.59375 183.929688 220.570312 183.964844 220.558594 183.988281 C 220.496094 184.085938 220.480469 184.117188 220.480469 184.125 C 220.484375 184.132812 220.4375 184.199219 220.324219 184.347656 C 220.296875 184.382812 220.238281 184.464844 220.191406 184.535156 C 220.144531 184.605469 220.085938 184.695312 220.0625 184.734375 C 220.039062 184.769531 220.007812 184.816406 220 184.835938 C 219.976562 184.878906 219.925781 184.953125 219.878906 185.007812 C 219.859375 185.03125 219.84375 185.054688 219.84375 185.058594 C 219.84375 185.074219 219.691406 185.269531 219.660156 185.296875 C 219.640625 185.3125 219.613281 185.332031 219.601562 185.34375 C 219.589844 185.351562 219.578125 185.367188 219.574219 185.378906 C 219.570312 185.398438 219.53125 185.4375 219.464844 185.492188 C 219.457031 185.5 219.445312 185.511719 219.4375 185.519531 C 219.429688 185.53125 219.410156 185.542969 219.394531 185.542969 C 219.378906 185.546875 219.355469 185.558594 219.347656 185.566406 C 219.332031 185.582031 219.285156 185.59375 219.238281 185.601562 C 219.195312 185.609375 219.152344 185.613281 219.140625 185.605469 C 219.132812 185.597656 219.121094 185.59375 219.113281 185.59375 C 219.105469 185.59375 219.089844 185.59375 219.074219 185.585938 C 219.058594 185.582031 219.019531 185.582031 218.984375 185.585938 C 218.949219 185.585938 218.921875 185.585938 218.921875 185.582031 C 218.921875 185.578125 218.894531 185.554688 218.867188 185.535156 C 218.820312 185.507812 218.804688 185.5 218.78125 185.503906 C 218.777344 185.503906 218.777344 185.503906 218.777344 185.503906 C 218.761719 185.507812 218.738281 185.519531 218.730469 185.527344 C 218.722656 185.535156 218.707031 185.546875 218.695312 185.550781 C 218.679688 185.554688 218.667969 185.570312 218.65625 185.617188 C 218.640625 185.667969 218.636719 185.707031 218.636719 185.808594 C 218.640625 185.917969 218.648438 185.984375 218.691406 186.25 C 218.71875 186.421875 218.75 186.636719 218.757812 186.722656 C 218.765625 186.8125 218.777344 186.933594 218.785156 186.992188 C 218.792969 187.054688 218.796875 187.113281 218.796875 187.125 C 218.792969 187.136719 218.789062 187.167969 218.789062 187.195312 C 218.785156 187.492188 218.828125 187.710938 218.921875 187.871094 C 218.941406 187.90625 218.960938 187.941406 218.96875 187.957031 C 218.980469 187.992188 219.011719 188.015625 219.082031 188.058594 C 219.125 188.085938 219.132812 188.085938 219.179688 188.078125 C 219.183594 188.078125 219.1875 188.078125 219.191406 188.078125 C 219.277344 188.0625 219.328125 188.023438 219.347656 187.960938 C 219.359375 187.914062 219.371094 187.835938 219.371094 187.777344 C 219.367188 187.757812 219.375 187.714844 219.382812 187.6875 C 219.390625 187.65625 219.402344 187.613281 219.40625 187.589844 C 219.410156 187.5625 219.421875 187.527344 219.429688 187.511719 C 219.4375 187.496094 219.445312 187.476562 219.445312 187.464844 C 219.441406 187.457031 219.445312 187.449219 219.449219 187.445312 C 219.460938 187.445312 219.488281 187.390625 219.507812 187.332031 C 219.511719 187.316406 219.515625 187.285156 219.507812 187.261719 C 219.503906 187.242188 219.503906 187.195312 219.507812 187.160156 C 219.511719 187.109375 219.515625 187.101562 219.539062 187.09375 C 219.558594 187.085938 219.566406 187.074219 219.570312 187.042969 C 219.570312 187.015625 219.585938 186.988281 219.601562 186.964844 C 219.613281 186.949219 219.625 186.929688 219.625 186.921875 C 219.625 186.914062 219.667969 186.8125 219.6875 186.789062 C 219.695312 186.777344 219.699219 186.761719 219.699219 186.753906 C 219.695312 186.746094 219.699219 186.730469 219.707031 186.726562 C 219.710938 186.71875 219.714844 186.707031 219.714844 186.699219 C 219.714844 186.6875 219.753906 186.65625 219.785156 186.644531 C 219.792969 186.640625 219.800781 186.628906 219.800781 186.621094 C 219.800781 186.609375 219.808594 186.589844 219.820312 186.582031 C 219.839844 186.5625 219.839844 186.519531 219.8125 186.480469 C 219.800781 186.464844 219.800781 186.457031 219.816406 186.433594 C 219.828125 186.417969 219.839844 186.390625 219.847656 186.378906 C 219.855469 186.363281 219.871094 186.335938 219.882812 186.316406 C 219.894531 186.296875 219.910156 186.269531 219.917969 186.253906 C 219.921875 186.242188 219.9375 186.226562 219.945312 186.226562 C 219.957031 186.222656 219.964844 186.21875 219.960938 186.210938 C 219.960938 186.207031 219.96875 186.195312 219.976562 186.183594 C 219.984375 186.171875 219.996094 186.148438 220.003906 186.132812 C 220.007812 186.113281 220.023438 186.097656 220.03125 186.09375 C 220.042969 186.089844 220.054688 186.074219 220.058594 186.058594 C 220.0625 186.042969 220.074219 186.027344 220.082031 186.023438 C 220.101562 186.015625 220.167969 185.925781 220.167969 185.914062 C 220.164062 185.902344 220.207031 185.832031 220.246094 185.773438 C 220.261719 185.75 220.273438 185.726562 220.273438 185.71875 C 220.269531 185.703125 220.363281 185.578125 220.441406 185.488281 C 220.484375 185.445312 220.523438 185.398438 220.53125 185.382812 C 220.542969 185.371094 220.554688 185.359375 220.554688 185.359375 C 220.558594 185.359375 220.597656 185.324219 220.636719 185.277344 C 220.679688 185.234375 220.722656 185.191406 220.730469 185.183594 C 220.742188 185.171875 220.757812 185.160156 220.761719 185.148438 C 220.769531 185.140625 220.785156 185.121094 220.800781 185.109375 C 220.816406 185.097656 220.84375 185.078125 220.855469 185.058594 C 220.871094 185.042969 220.898438 185.023438 220.914062 185.007812 C 220.929688 185 220.945312 184.984375 220.945312 184.980469 C 220.945312 184.976562 220.957031 184.964844 220.972656 184.953125 C 220.992188 184.941406 221.019531 184.917969 221.035156 184.898438 C 221.085938 184.847656 221.148438 184.789062 221.15625 184.789062 C 221.160156 184.789062 221.179688 184.765625 221.199219 184.742188 C 221.222656 184.71875 221.242188 184.699219 221.25 184.699219 C 221.257812 184.699219 221.269531 184.683594 221.277344 184.667969 C 221.285156 184.648438 221.296875 184.636719 221.300781 184.632812 C 221.308594 184.632812 221.332031 184.609375 221.355469 184.585938 C 221.378906 184.558594 221.402344 184.535156 221.40625 184.535156 C 221.410156 184.535156 221.421875 184.519531 221.433594 184.507812 C 221.441406 184.492188 221.453125 184.480469 221.460938 184.480469 C 221.464844 184.476562 221.488281 184.457031 221.503906 184.433594 C 221.523438 184.410156 221.542969 184.390625 221.546875 184.390625 C 221.550781 184.390625 221.566406 184.371094 221.582031 184.351562 C 221.59375 184.332031 221.621094 184.304688 221.636719 184.292969 C 221.652344 184.277344 221.667969 184.265625 221.664062 184.261719 C 221.664062 184.253906 221.679688 184.242188 221.699219 184.226562 C 221.746094 184.195312 221.769531 184.171875 221.78125 184.160156 C 221.785156 184.152344 221.792969 184.144531 221.800781 184.144531 C 221.804688 184.144531 221.824219 184.132812 221.839844 184.117188 C 221.855469 184.101562 221.886719 184.082031 221.90625 184.070312 C 221.925781 184.054688 221.964844 184.027344 221.992188 184 C 222.019531 183.976562 222.042969 183.957031 222.050781 183.953125 C 222.054688 183.953125 222.066406 183.945312 222.070312 183.941406 C 222.074219 183.933594 222.097656 183.914062 222.125 183.902344 C 222.152344 183.886719 222.179688 183.867188 222.1875 183.859375 C 222.191406 183.851562 222.203125 183.847656 222.207031 183.84375 C 222.214844 183.84375 222.226562 183.839844 222.234375 183.832031 C 222.242188 183.824219 222.269531 183.804688 222.300781 183.78125 C 222.394531 183.71875 222.40625 183.707031 222.464844 183.628906 C 222.546875 183.519531 222.566406 183.5 222.589844 183.480469 C 222.601562 183.472656 222.621094 183.449219 222.628906 183.433594 C 222.640625 183.417969 222.652344 183.402344 222.65625 183.402344 C 222.660156 183.398438 222.6875 183.367188 222.71875 183.324219 C 222.75 183.285156 222.777344 183.25 222.78125 183.25 C 222.785156 183.25 222.796875 183.242188 222.804688 183.230469 C 222.816406 183.21875 222.84375 183.195312 222.972656 183.09375 C 223.003906 183.070312 223.03125 183.046875 223.035156 183.039062 C 223.035156 183.03125 223.054688 183.015625 223.070312 183.003906 C 223.085938 182.992188 223.101562 182.980469 223.101562 182.976562 C 223.101562 182.972656 223.121094 182.953125 223.148438 182.929688 C 223.171875 182.910156 223.203125 182.878906 223.21875 182.863281 C 223.230469 182.84375 223.253906 182.824219 223.265625 182.8125 C 223.273438 182.796875 223.304688 182.765625 223.328125 182.738281 C 223.386719 182.671875 223.421875 182.628906 223.488281 182.539062 C 223.558594 182.441406 223.585938 182.410156 223.613281 182.382812 C 223.625 182.375 223.644531 182.351562 223.65625 182.335938 C 223.703125 182.273438 223.804688 182.152344 223.832031 182.128906 C 223.847656 182.117188 223.882812 182.078125 223.90625 182.046875 C 223.964844 181.96875 223.972656 181.957031 223.984375 181.941406 C 224 181.910156 224.050781 181.851562 224.066406 181.84375 C 224.074219 181.839844 224.082031 181.828125 224.082031 181.816406 C 224.082031 181.804688 224.09375 181.789062 224.109375 181.777344 C 224.121094 181.769531 224.132812 181.75 224.136719 181.738281 C 224.140625 181.722656 224.148438 181.714844 224.152344 181.710938 C 224.15625 181.710938 224.175781 181.6875 224.195312 181.660156 C 224.308594 181.5 224.429688 181.347656 224.503906 181.265625 C 224.519531 181.25 224.542969 181.222656 224.5625 181.199219 C 224.578125 181.175781 224.597656 181.160156 224.601562 181.160156 C 224.605469 181.15625 224.617188 181.144531 224.632812 181.128906 C 224.675781 181.074219 224.753906 181.003906 224.765625 181 C 224.773438 181 224.78125 180.992188 224.78125 180.988281 C 224.785156 180.980469 224.800781 180.964844 224.820312 180.945312 C 224.835938 180.929688 224.84375 180.921875 224.859375 180.917969 C 224.867188 180.917969 224.882812 180.917969 224.898438 180.921875 C 224.957031 180.9375 225.074219 180.949219 225.101562 180.941406 C 225.117188 180.941406 225.175781 180.945312 225.230469 180.953125 C 225.28125 180.960938 225.34375 180.964844 225.363281 180.964844 C 225.378906 180.964844 225.4375 180.96875 225.484375 180.976562 C 225.535156 180.980469 225.59375 180.988281 225.617188 180.992188 C 225.640625 180.992188 225.6875 181 225.726562 181.003906 C 225.761719 181.007812 225.839844 181.007812 225.894531 181.003906 C 225.953125 181 226.039062 180.996094 226.082031 180.996094 C 226.128906 180.996094 226.25 180.992188 226.351562 180.984375 C 226.457031 180.980469 226.574219 180.976562 226.613281 180.976562 C 226.65625 180.976562 226.734375 180.972656 226.792969 180.972656 C 226.941406 180.964844 226.980469 180.964844 226.992188 180.96875 C 226.996094 180.972656 227.023438 180.972656 227.046875 180.976562 C 227.074219 180.976562 227.105469 180.980469 227.121094 180.980469 L 227.148438 180.988281 L 227.0625 181.105469 C 226.96875 181.238281 226.9375 181.289062 226.890625 181.375 C 226.875 181.410156 226.851562 181.445312 226.84375 181.453125 C 226.835938 181.464844 226.824219 181.484375 226.824219 181.492188 C 226.824219 181.503906 226.8125 181.523438 226.808594 181.53125 C 226.800781 181.539062 226.785156 181.570312 226.777344 181.597656 C 226.769531 181.625 226.757812 181.652344 226.75 181.664062 C 226.742188 181.675781 226.734375 181.695312 226.734375 181.710938 C 226.734375 181.722656 226.722656 181.753906 226.714844 181.777344 C 226.703125 181.804688 226.695312 181.832031 226.691406 181.84375 C 226.691406 181.859375 226.683594 181.882812 226.675781 181.902344 C 226.667969 181.921875 226.65625 181.957031 226.652344 181.976562 C 226.644531 181.996094 226.632812 182.027344 226.621094 182.046875 C 226.613281 182.066406 226.597656 182.101562 226.589844 182.121094 C 226.5625 182.199219 226.542969 182.25 226.519531 182.296875 C 226.507812 182.320312 226.5 182.347656 226.5 182.351562 C 226.5 182.355469 226.492188 182.378906 226.480469 182.398438 C 226.46875 182.421875 226.460938 182.441406 226.460938 182.445312 C 226.460938 182.449219 226.453125 182.472656 226.441406 182.496094 C 226.429688 182.519531 226.40625 182.570312 226.390625 182.617188 C 226.375 182.660156 226.351562 182.707031 226.339844 182.722656 C 226.332031 182.738281 226.320312 182.761719 226.320312 182.773438 C 226.316406 182.785156 226.304688 182.816406 226.289062 182.84375 C 226.273438 182.871094 226.265625 182.902344 226.265625 182.910156 C 226.265625 182.917969 226.265625 182.925781 226.257812 182.925781 C 226.253906 182.925781 226.242188 182.949219 226.234375 182.972656 C 226.226562 182.996094 226.203125 183.03125 226.1875 183.054688 C 226.167969 183.078125 226.144531 183.121094 226.132812 183.148438 C 226.121094 183.175781 226.105469 183.199219 226.097656 183.203125 C 226.082031 183.203125 226.066406 183.234375 226.070312 183.257812 C 226.070312 183.269531 226.058594 183.292969 226.046875 183.316406 C 226.03125 183.335938 226.023438 183.359375 226.023438 183.371094 C 226.027344 183.378906 226.023438 183.386719 226.019531 183.390625 C 226.015625 183.390625 226.003906 183.410156 225.992188 183.429688 C 225.980469 183.453125 225.964844 183.484375 225.957031 183.496094 C 225.949219 183.511719 225.941406 183.53125 225.941406 183.539062 C 225.945312 183.558594 225.863281 183.683594 225.84375 183.6875 C 225.84375 183.6875 225.839844 183.6875 225.839844 183.6875 C 225.832031 183.679688 225.804688 183.675781 225.78125 183.679688 C 225.769531 183.683594 225.757812 183.6875 225.75 183.691406 C 225.742188 183.699219 225.722656 183.738281 225.710938 183.777344 C 225.695312 183.847656 225.652344 183.945312 225.636719 183.964844 C 225.617188 183.984375 225.574219 184.132812 225.578125 184.171875 C 225.578125 184.199219 225.570312 184.21875 225.554688 184.242188 C 225.542969 184.261719 225.53125 184.285156 225.53125 184.300781 C 225.527344 184.324219 225.464844 184.390625 225.441406 184.394531 C 225.429688 184.398438 225.410156 184.441406 225.414062 184.464844 C 225.417969 184.5 225.464844 184.550781 225.507812 184.582031 C 225.59375 184.628906 225.613281 184.640625 225.640625 184.648438 C 225.652344 184.648438 225.675781 184.65625 225.695312 184.660156 C 225.710938 184.664062 225.726562 184.664062 225.734375 184.664062 C 225.738281 184.664062 225.757812 184.671875 225.777344 184.679688 C 225.796875 184.691406 225.8125 184.695312 225.816406 184.695312 C 225.820312 184.695312 225.84375 184.699219 225.875 184.707031 C 225.898438 184.714844 225.9375 184.722656 225.957031 184.722656 C 225.984375 184.722656 226.089844 184.738281 226.128906 184.75 C 226.136719 184.753906 226.160156 184.753906 226.179688 184.753906 C 226.203125 184.753906 226.238281 184.761719 226.261719 184.765625 C 226.308594 184.78125 226.398438 184.796875 226.417969 184.792969 C 226.421875 184.792969 226.457031 184.796875 226.488281 184.808594 C 226.523438 184.816406 226.558594 184.824219 226.566406 184.820312 C 226.574219 184.820312 226.605469 184.828125 226.640625 184.839844 C 226.671875 184.851562 226.710938 184.863281 226.726562 184.863281 C 226.738281 184.863281 226.761719 184.871094 226.777344 184.878906 C 226.792969 184.886719 226.828125 184.894531 226.851562 184.894531 C 226.875 184.898438 226.914062 184.910156 226.9375 184.917969 C 226.964844 184.929688 226.996094 184.9375 227.011719 184.9375 C 227.027344 184.941406 227.0625 184.945312 227.085938 184.953125 C 227.113281 184.964844 227.152344 184.96875 227.175781 184.964844 C 227.199219 184.960938 227.21875 184.960938 227.226562 184.964844 C 227.238281 184.976562 227.335938 184.972656 227.523438 184.945312 C 227.570312 184.9375 227.609375 184.929688 227.636719 184.925781 C 227.699219 184.914062 227.722656 184.910156 227.71875 184.902344 C 227.71875 184.898438 227.734375 184.890625 227.757812 184.886719 C 227.851562 184.871094 228 184.792969 228.023438 184.746094 C 228.027344 184.738281 228.035156 184.722656 228.039062 184.71875 C 228.070312 184.675781 228.074219 184.652344 228.054688 184.585938 C 228.039062 184.523438 228.007812 184.46875 227.996094 184.46875 C 227.992188 184.472656 227.980469 184.464844 227.972656 184.453125 C 227.949219 184.421875 227.898438 184.410156 227.789062 184.410156 C 227.753906 184.410156 227.6875 184.410156 227.644531 184.410156 C 227.597656 184.410156 227.550781 184.410156 227.535156 184.410156 C 227.511719 184.410156 227.503906 184.40625 227.5 184.390625 C 227.5 184.382812 227.488281 184.371094 227.472656 184.367188 C 227.457031 184.363281 227.441406 184.351562 227.441406 184.34375 C 227.429688 184.316406 227.414062 184.308594 227.375 184.308594 C 227.351562 184.308594 227.3125 184.304688 227.285156 184.292969 C 227.242188 184.28125 227.226562 184.273438 227.207031 184.246094 C 227.195312 184.226562 227.179688 184.210938 227.171875 184.210938 C 227.164062 184.214844 227.15625 184.210938 227.15625 184.203125 C 227.152344 184.195312 227.136719 184.179688 227.113281 184.167969 C 227.089844 184.15625 227.0625 184.136719 227.054688 184.121094 C 227.042969 184.109375 227.023438 184.097656 227.011719 184.097656 C 226.996094 184.097656 226.988281 184.089844 226.984375 184.078125 C 226.984375 184.070312 226.976562 184.058594 226.96875 184.058594 C 226.960938 184.058594 226.953125 184.050781 226.953125 184.042969 C 226.949219 184.035156 226.925781 184.015625 226.898438 183.996094 C 226.84375 183.957031 226.828125 183.933594 226.859375 183.929688 C 226.867188 183.925781 226.878906 183.917969 226.882812 183.90625 C 226.890625 183.882812 226.875 183.84375 226.863281 183.84375 C 226.855469 183.847656 226.851562 183.832031 226.847656 183.816406 C 226.84375 183.800781 226.832031 183.777344 226.820312 183.765625 C 226.796875 183.746094 226.792969 183.710938 226.808594 183.648438 C 226.832031 183.558594 226.835938 183.539062 226.835938 183.527344 C 226.832031 183.519531 226.839844 183.511719 226.84375 183.507812 C 226.851562 183.503906 226.855469 183.488281 226.851562 183.472656 C 226.851562 183.457031 226.851562 183.445312 226.855469 183.441406 C 226.867188 183.433594 226.898438 183.363281 226.894531 183.347656 C 226.894531 183.335938 226.894531 183.328125 226.902344 183.328125 C 226.90625 183.324219 226.90625 183.316406 226.90625 183.304688 C 226.902344 183.292969 226.910156 183.269531 226.921875 183.253906 C 226.929688 183.242188 226.957031 183.191406 226.980469 183.144531 C 227.003906 183.101562 227.03125 183.046875 227.042969 183.03125 C 227.085938 182.964844 227.113281 182.914062 227.113281 182.910156 C 227.113281 182.902344 227.125 182.890625 227.136719 182.878906 C 227.152344 182.867188 227.164062 182.847656 227.167969 182.835938 C 227.171875 182.824219 227.183594 182.808594 227.195312 182.796875 C 227.207031 182.785156 227.21875 182.773438 227.21875 182.765625 C 227.21875 182.757812 227.230469 182.742188 227.246094 182.722656 C 227.265625 182.707031 227.277344 182.6875 227.277344 182.679688 C 227.273438 182.671875 227.277344 182.664062 227.285156 182.664062 C 227.292969 182.664062 227.308594 182.644531 227.324219 182.625 C 227.335938 182.601562 227.367188 182.566406 227.386719 182.546875 C 227.40625 182.527344 227.433594 182.492188 227.445312 182.476562 C 227.457031 182.457031 227.496094 182.40625 227.535156 182.363281 C 227.648438 182.226562 228.023438 181.6875 228.097656 181.558594 C 228.148438 181.472656 228.167969 181.4375 228.191406 181.410156 C 228.277344 181.296875 228.488281 180.976562 228.484375 180.960938 C 228.484375 180.949219 228.535156 180.835938 228.558594 180.800781 C 228.589844 180.75 228.628906 180.636719 228.632812 180.589844 C 228.632812 180.566406 228.625 180.496094 228.613281 180.433594 C 228.597656 180.332031 228.59375 180.320312 228.566406 180.285156 C 228.550781 180.261719 228.523438 180.238281 228.511719 180.230469 C 228.496094 180.21875 228.484375 180.207031 228.484375 180.203125 C 228.480469 180.199219 228.472656 180.195312 228.460938 180.195312 C 228.449219 180.195312 228.421875 180.179688 228.398438 180.164062 C 228.371094 180.144531 228.316406 180.125 228.25 180.105469 C 228.191406 180.085938 228.136719 180.070312 228.125 180.066406 C 228.117188 180.0625 228.074219 180.050781 228.027344 180.035156 C 227.976562 180.023438 227.910156 180 227.878906 179.984375 C 227.84375 179.972656 227.796875 179.953125 227.777344 179.945312 C 227.753906 179.9375 227.703125 179.917969 227.667969 179.902344 C 227.632812 179.886719 227.59375 179.871094 227.585938 179.871094 C 227.574219 179.871094 227.566406 179.867188 227.566406 179.859375 C 227.566406 179.855469 227.558594 179.855469 227.554688 179.855469 C 227.550781 179.855469 227.53125 179.847656 227.511719 179.839844 C 227.492188 179.828125 227.476562 179.824219 227.46875 179.824219 C 227.464844 179.824219 227.453125 179.820312 227.441406 179.8125 C 227.433594 179.804688 227.410156 179.792969 227.394531 179.789062 C 227.378906 179.789062 227.34375 179.773438 227.316406 179.761719 C 227.292969 179.75 227.261719 179.742188 227.25 179.738281 C 227.238281 179.738281 227.21875 179.730469 227.207031 179.722656 C 227.195312 179.714844 227.164062 179.707031 227.144531 179.703125 C 227.121094 179.699219 227.089844 179.6875 227.074219 179.679688 C 227.058594 179.671875 227.03125 179.660156 227.011719 179.65625 C 226.996094 179.65625 226.972656 179.648438 226.964844 179.644531 C 226.957031 179.644531 226.9375 179.636719 226.917969 179.632812 C 226.898438 179.625 226.84375 179.613281 226.792969 179.597656 C 226.742188 179.582031 226.6875 179.570312 226.671875 179.5625 C 226.65625 179.558594 226.621094 179.546875 226.59375 179.539062 C 226.566406 179.53125 226.53125 179.519531 226.515625 179.507812 C 226.5 179.5 226.480469 179.488281 226.46875 179.484375 C 226.460938 179.480469 226.429688 179.464844 226.402344 179.453125 C 226.378906 179.441406 226.351562 179.433594 226.34375 179.433594 C 226.335938 179.4375 226.328125 179.433594 226.328125 179.429688 C 226.324219 179.425781 226.289062 179.417969 226.25 179.410156 C 226.210938 179.40625 226.175781 179.398438 226.167969 179.394531 C 226.125 179.375 226.066406 179.367188 226.015625 179.367188 C 225.980469 179.367188 225.953125 179.363281 225.945312 179.359375 C 225.941406 179.355469 225.921875 179.355469 225.90625 179.355469 C 225.890625 179.359375 225.871094 179.355469 225.859375 179.347656 C 225.847656 179.335938 225.828125 179.332031 225.808594 179.335938 C 225.792969 179.339844 225.777344 179.335938 225.777344 179.332031 C 225.777344 179.320312 225.816406 179.273438 225.863281 179.234375 C 225.882812 179.21875 225.90625 179.191406 225.917969 179.175781 C 225.925781 179.164062 225.941406 179.148438 225.945312 179.148438 C 225.949219 179.148438 225.964844 179.132812 225.976562 179.117188 C 225.988281 179.097656 226 179.082031 226.007812 179.082031 C 226.011719 179.082031 226.03125 179.0625 226.050781 179.039062 C 226.109375 178.976562 226.160156 178.925781 226.183594 178.914062 C 226.195312 178.902344 226.210938 178.886719 226.21875 178.875 C 226.226562 178.863281 226.25 178.84375 226.265625 178.832031 C 226.285156 178.820312 226.308594 178.796875 226.316406 178.785156 C 226.328125 178.773438 226.347656 178.757812 226.359375 178.75 C 226.371094 178.746094 226.382812 178.734375 226.386719 178.726562 C 226.394531 178.722656 226.414062 178.703125 226.4375 178.691406 C 226.460938 178.679688 226.496094 178.652344 226.515625 178.632812 C 226.539062 178.613281 226.566406 178.589844 226.578125 178.582031 C 226.621094 178.542969 226.667969 178.488281 226.679688 178.464844 C 226.683594 178.453125 226.691406 178.441406 226.695312 178.441406 C 226.699219 178.441406 226.71875 178.421875 226.730469 178.398438 C 226.746094 178.375 226.761719 178.355469 226.761719 178.355469 C 226.765625 178.355469 226.78125 178.339844 226.796875 178.324219 C 226.816406 178.304688 226.835938 178.285156 226.851562 178.273438 C 226.863281 178.265625 226.886719 178.25 226.898438 178.234375 C 226.914062 178.222656 226.941406 178.199219 226.964844 178.183594 C 226.988281 178.167969 227.007812 178.152344 227.007812 178.148438 C 227.007812 178.144531 227.015625 178.136719 227.03125 178.132812 C 227.042969 178.125 227.082031 178.101562 227.113281 178.078125 C 227.148438 178.054688 227.203125 178.023438 227.230469 178.007812 C 227.261719 177.992188 227.292969 177.972656 227.300781 177.964844 C 227.3125 177.957031 227.335938 177.941406 227.351562 177.933594 C 227.371094 177.921875 227.398438 177.90625 227.410156 177.894531 C 227.425781 177.882812 227.457031 177.855469 227.480469 177.835938 C 227.503906 177.816406 227.527344 177.792969 227.527344 177.785156 C 227.53125 177.777344 227.539062 177.773438 227.542969 177.769531 C 227.550781 177.769531 227.574219 177.75 227.589844 177.726562 C 227.609375 177.703125 227.625 177.683594 227.628906 177.683594 C 227.636719 177.683594 227.773438 177.523438 227.78125 177.507812 C 227.785156 177.503906 227.792969 177.5 227.808594 177.496094 C 227.851562 177.488281 227.941406 177.5 227.988281 177.523438 C 228.027344 177.542969 228.132812 177.613281 228.152344 177.636719 C 228.167969 177.652344 228.207031 177.660156 228.230469 177.65625 C 228.238281 177.65625 228.246094 177.652344 228.25 177.648438 C 228.253906 177.644531 228.261719 177.640625 228.273438 177.636719 C 228.292969 177.636719 228.324219 177.640625 228.339844 177.65625 C 228.355469 177.664062 228.371094 177.671875 228.378906 177.671875 C 228.382812 177.671875 228.417969 177.679688 228.453125 177.695312 C 228.488281 177.707031 228.519531 177.71875 228.523438 177.71875 C 228.523438 177.71875 228.5625 177.730469 228.609375 177.742188 C 228.652344 177.753906 228.691406 177.761719 228.699219 177.761719 C 228.699219 177.761719 228.726562 177.765625 228.75 177.773438 C 228.804688 177.792969 228.992188 177.828125 229.046875 177.828125 C 229.085938 177.828125 229.15625 177.839844 229.191406 177.847656 C 229.199219 177.851562 229.242188 177.855469 229.28125 177.859375 C 229.347656 177.867188 229.445312 177.878906 229.5 177.890625 C 229.558594 177.90625 229.605469 177.914062 229.640625 177.914062 C 229.65625 177.917969 229.714844 177.921875 229.765625 177.929688 C 229.878906 177.941406 229.941406 177.945312 229.980469 177.9375 C 230.003906 177.933594 230.023438 177.929688 230.042969 177.917969 C 230.070312 177.902344 230.132812 177.832031 230.128906 177.820312 C 230.128906 177.808594 230.222656 177.625 230.253906 177.578125 C 230.269531 177.554688 230.28125 177.53125 230.28125 177.523438 C 230.277344 177.515625 230.285156 177.496094 230.296875 177.476562 C 230.320312 177.441406 230.375 177.320312 230.371094 177.308594 C 230.371094 177.300781 230.375 177.289062 230.386719 177.277344 C 230.394531 177.265625 230.40625 177.242188 230.414062 177.21875 C 230.417969 177.199219 230.433594 177.164062 230.445312 177.140625 C 230.457031 177.121094 230.464844 177.097656 230.460938 177.09375 C 230.460938 177.089844 230.464844 177.074219 230.476562 177.0625 C 230.480469 177.050781 230.496094 177.011719 230.507812 176.976562 C 230.519531 176.945312 230.535156 176.902344 230.539062 176.886719 C 230.546875 176.871094 230.554688 176.839844 230.558594 176.824219 C 230.5625 176.804688 230.574219 176.769531 230.582031 176.746094 C 230.589844 176.722656 230.59375 176.695312 230.59375 176.683594 C 230.59375 176.675781 230.601562 176.632812 230.613281 176.59375 C 230.628906 176.550781 230.636719 176.507812 230.636719 176.5 C 230.632812 176.488281 230.636719 176.460938 230.644531 176.429688 C 230.65625 176.402344 230.660156 176.375 230.660156 176.371094 C 230.65625 176.355469 230.667969 176.273438 230.675781 176.246094 C 230.683594 176.21875 230.6875 176.183594 230.703125 176.039062 C 230.707031 175.996094 230.710938 175.957031 230.714844 175.949219 C 230.71875 175.945312 230.71875 175.929688 230.71875 175.917969 C 230.714844 175.902344 230.722656 175.867188 230.738281 175.835938 C 230.761719 175.78125 230.792969 175.707031 230.808594 175.660156 C 230.8125 175.648438 230.824219 175.632812 230.832031 175.621094 C 230.855469 175.59375 230.910156 175.480469 230.90625 175.464844 C 230.90625 175.460938 230.914062 175.421875 230.929688 175.382812 C 230.941406 175.339844 230.949219 175.296875 230.949219 175.289062 C 230.945312 175.277344 230.949219 175.242188 230.957031 175.210938 C 230.972656 175.15625 230.972656 175.03125 230.960938 175.003906 C 230.953125 174.992188 230.960938 174.957031 230.972656 174.910156 C 230.988281 174.867188 230.996094 174.824219 230.996094 174.816406 C 230.992188 174.804688 230.996094 174.773438 231.003906 174.75 C 231.027344 174.660156 231.027344 174.550781 230.996094 174.515625 C 230.988281 174.503906 230.957031 174.496094 230.929688 174.503906 C 230.921875 174.503906 230.910156 174.507812 230.902344 174.511719 C 230.878906 174.523438 230.867188 174.566406 230.863281 174.660156 C 230.859375 174.695312 230.851562 174.726562 230.847656 174.734375 C 230.839844 174.742188 230.835938 174.75 230.835938 174.753906 C 230.835938 174.757812 230.832031 174.769531 230.828125 174.777344 C 230.820312 174.789062 230.816406 174.804688 230.820312 174.8125 C 230.820312 174.824219 230.816406 174.84375 230.8125 174.855469 L 230.804688 174.878906 L 230.789062 174.863281 C 230.777344 174.84375 230.777344 174.828125 230.792969 174.722656 C 230.792969 174.695312 230.792969 174.644531 230.789062 174.609375 C 230.785156 174.574219 230.78125 174.539062 230.785156 174.535156 C 230.789062 174.515625 230.777344 174.359375 230.765625 174.332031 C 230.757812 174.308594 230.714844 174.289062 230.679688 174.296875 C 230.679688 174.296875 230.675781 174.296875 230.675781 174.296875 C 230.65625 174.300781 230.65625 174.296875 230.664062 174.273438 C 230.675781 174.234375 230.671875 174.207031 230.640625 174.1875 C 230.625 174.175781 230.597656 174.171875 230.570312 174.175781 C 230.554688 174.179688 230.539062 174.1875 230.527344 174.195312 C 230.507812 174.210938 230.480469 174.304688 230.480469 174.375 C 230.480469 174.410156 230.46875 174.457031 230.460938 174.484375 C 230.453125 174.507812 230.449219 174.539062 230.449219 174.554688 C 230.453125 174.566406 230.453125 174.570312 230.453125 174.570312 C 230.449219 174.570312 230.449219 174.566406 230.445312 174.554688 C 230.441406 174.546875 230.441406 174.511719 230.441406 174.484375 C 230.460938 174.292969 230.445312 174.246094 230.367188 174.257812 C 230.367188 174.257812 230.363281 174.257812 230.363281 174.257812 C 230.292969 174.273438 230.277344 174.292969 230.273438 174.421875 C 230.269531 174.449219 230.265625 174.496094 230.261719 174.527344 C 230.257812 174.558594 230.257812 174.609375 230.265625 174.640625 C 230.269531 174.679688 230.269531 174.71875 230.265625 174.753906 C 230.257812 174.78125 230.25 174.832031 230.242188 174.863281 C 230.238281 174.894531 230.222656 174.9375 230.210938 174.957031 C 230.199219 174.976562 230.1875 175 230.183594 175.007812 C 230.183594 175.015625 230.179688 175.019531 230.175781 175.019531 C 230.171875 175.019531 230.160156 175.019531 230.144531 175.011719 C 230.101562 175 230.035156 174.957031 230.03125 174.945312 C 230.027344 174.925781 229.96875 174.898438 229.917969 174.890625 C 229.890625 174.886719 229.84375 174.890625 229.785156 174.902344 C 229.785156 174.902344 229.78125 174.902344 229.78125 174.902344 C 229.671875 174.921875 229.65625 174.929688 229.671875 174.984375 C 229.679688 175.011719 229.683594 175.015625 229.726562 175.019531 C 229.78125 175.027344 229.816406 175.042969 229.894531 175.097656 C 229.988281 175.160156 230.003906 175.179688 230.03125 175.230469 C 230.042969 175.257812 230.066406 175.289062 230.082031 175.304688 C 230.097656 175.320312 230.109375 175.339844 230.113281 175.351562 C 230.117188 175.386719 230.171875 175.496094 230.195312 175.519531 C 230.21875 175.539062 230.222656 175.550781 230.230469 175.605469 C 230.238281 175.636719 230.238281 175.671875 230.234375 175.675781 C 230.230469 175.683594 230.226562 175.691406 230.226562 175.699219 C 230.230469 175.707031 230.226562 175.726562 230.222656 175.742188 C 230.210938 175.796875 230.199219 175.851562 230.203125 175.867188 C 230.203125 175.875 230.195312 175.894531 230.191406 175.917969 C 230.179688 175.9375 230.171875 175.964844 230.171875 175.980469 C 230.171875 175.996094 230.164062 176.015625 230.160156 176.023438 C 230.148438 176.042969 230.113281 176.144531 230.089844 176.234375 C 230.078125 176.265625 230.066406 176.304688 230.054688 176.320312 C 230.046875 176.335938 230.035156 176.367188 230.03125 176.386719 C 230.027344 176.402344 230.015625 176.429688 230.003906 176.445312 C 229.996094 176.457031 229.988281 176.480469 229.984375 176.492188 C 229.980469 176.507812 229.921875 176.601562 229.851562 176.707031 C 229.785156 176.808594 229.726562 176.898438 229.730469 176.902344 C 229.730469 176.90625 229.71875 176.925781 229.703125 176.945312 C 229.6875 176.96875 229.671875 176.992188 229.667969 176.996094 C 229.625 177.066406 229.574219 177.105469 229.519531 177.113281 C 229.480469 177.121094 229.464844 177.121094 229.429688 177.097656 C 229.402344 177.085938 229.367188 177.070312 229.34375 177.0625 C 229.324219 177.058594 229.289062 177.039062 229.269531 177.023438 C 229.21875 176.984375 229.164062 176.957031 229.097656 176.933594 C 229.070312 176.925781 229.035156 176.914062 229.027344 176.910156 C 228.960938 176.890625 228.867188 176.863281 228.839844 176.863281 C 228.820312 176.863281 228.808594 176.855469 228.804688 176.84375 C 228.800781 176.835938 228.792969 176.824219 228.785156 176.824219 C 228.777344 176.820312 228.757812 176.8125 228.738281 176.808594 C 228.722656 176.804688 228.703125 176.800781 228.691406 176.800781 C 228.683594 176.804688 228.667969 176.800781 228.660156 176.800781 C 228.640625 176.789062 228.671875 176.734375 228.699219 176.726562 C 228.75 176.71875 228.792969 176.691406 228.800781 176.65625 C 228.804688 176.640625 228.816406 176.625 228.824219 176.625 C 228.832031 176.621094 228.84375 176.613281 228.851562 176.605469 C 228.855469 176.601562 228.867188 176.589844 228.875 176.585938 C 228.882812 176.582031 228.894531 176.554688 228.902344 176.527344 C 228.910156 176.492188 228.914062 176.480469 228.925781 176.480469 C 228.929688 176.480469 228.933594 176.480469 228.941406 176.480469 C 228.984375 176.480469 229.015625 176.480469 229.039062 176.472656 C 229.089844 176.464844 229.105469 176.445312 229.101562 176.40625 C 229.105469 176.386719 229.105469 176.324219 229.109375 176.269531 C 229.109375 176.210938 229.109375 176.144531 229.101562 176.097656 C 229.085938 176.015625 229.085938 176.015625 229.15625 175.980469 C 229.191406 175.960938 229.199219 175.9375 229.191406 175.890625 C 229.191406 175.871094 229.191406 175.847656 229.195312 175.835938 C 229.203125 175.820312 229.203125 175.800781 229.203125 175.789062 C 229.199219 175.78125 229.203125 175.769531 229.207031 175.769531 C 229.214844 175.769531 229.214844 175.761719 229.214844 175.757812 C 229.210938 175.734375 229.21875 175.683594 229.226562 175.679688 C 229.226562 175.679688 229.226562 175.679688 229.226562 175.683594 C 229.234375 175.6875 229.277344 175.683594 229.328125 175.679688 C 229.378906 175.671875 229.429688 175.671875 229.433594 175.675781 C 229.441406 175.679688 229.453125 175.679688 229.46875 175.675781 C 229.507812 175.671875 229.5625 175.644531 229.5625 175.625 C 229.558594 175.617188 229.5625 175.605469 229.566406 175.605469 C 229.570312 175.605469 229.574219 175.597656 229.574219 175.585938 C 229.570312 175.574219 229.574219 175.558594 229.582031 175.546875 C 229.597656 175.523438 229.589844 175.425781 229.570312 175.410156 C 229.5625 175.40625 229.558594 175.390625 229.5625 175.363281 C 229.5625 175.34375 229.5625 175.3125 229.558594 175.296875 C 229.554688 175.265625 229.488281 175.125 229.46875 175.101562 C 229.464844 175.097656 229.449219 175.078125 229.4375 175.0625 C 229.429688 175.050781 229.414062 175.039062 229.40625 175.039062 C 229.398438 175.042969 229.386719 175.027344 229.375 175.011719 C 229.355469 174.984375 229.261719 174.941406 229.1875 174.921875 C 229.167969 174.917969 229.15625 174.90625 229.144531 174.882812 C 229.132812 174.863281 229.117188 174.835938 229.101562 174.824219 C 229.089844 174.808594 229.074219 174.792969 229.070312 174.785156 C 229.066406 174.777344 229.050781 174.773438 229.03125 174.777344 C 228.988281 174.785156 228.945312 174.773438 228.929688 174.753906 C 228.917969 174.734375 228.882812 174.730469 228.824219 174.738281 C 228.824219 174.738281 228.820312 174.738281 228.820312 174.738281 C 228.796875 174.742188 228.777344 174.742188 228.765625 174.730469 C 228.753906 174.726562 228.730469 174.714844 228.710938 174.707031 C 228.6875 174.703125 228.671875 174.691406 228.667969 174.683594 C 228.664062 174.652344 228.621094 174.632812 228.515625 174.609375 C 228.5 174.609375 228.472656 174.609375 228.449219 174.613281 C 228.425781 174.617188 228.367188 174.621094 228.316406 174.621094 C 228.273438 174.621094 228.230469 174.625 228.191406 174.632812 C 228.175781 174.636719 228.160156 174.636719 228.144531 174.640625 C 227.90625 174.699219 227.898438 174.703125 227.898438 174.714844 C 227.902344 174.722656 227.882812 174.730469 227.851562 174.738281 C 227.824219 174.746094 227.789062 174.761719 227.773438 174.773438 C 227.757812 174.78125 227.726562 174.796875 227.707031 174.808594 C 227.65625 174.832031 227.609375 174.871094 227.578125 174.910156 C 227.5625 174.929688 227.539062 174.953125 227.519531 174.96875 C 227.503906 174.980469 227.484375 175.003906 227.480469 175.019531 C 227.46875 175.054688 227.429688 175.113281 227.40625 175.128906 C 227.398438 175.136719 227.386719 175.152344 227.382812 175.167969 C 227.375 175.179688 227.363281 175.210938 227.351562 175.234375 C 227.335938 175.269531 227.332031 175.289062 227.339844 175.34375 L 227.347656 175.410156 L 227.3125 175.433594 C 227.296875 175.445312 227.289062 175.449219 227.28125 175.453125 C 227.277344 175.453125 227.273438 175.449219 227.269531 175.445312 C 227.265625 175.4375 227.246094 175.429688 227.230469 175.425781 C 227.214844 175.417969 227.195312 175.402344 227.183594 175.390625 C 227.164062 175.355469 227.03125 175.261719 226.992188 175.25 C 226.972656 175.242188 226.960938 175.234375 226.957031 175.230469 C 226.957031 175.226562 226.941406 175.21875 226.921875 175.214844 C 226.902344 175.207031 226.882812 175.203125 226.878906 175.199219 C 226.867188 175.1875 226.773438 175.164062 226.75 175.164062 C 226.738281 175.167969 226.710938 175.160156 226.691406 175.152344 C 226.636719 175.125 226.609375 175.121094 226.5625 175.121094 C 226.535156 175.121094 226.511719 175.117188 226.496094 175.105469 C 226.480469 175.09375 226.460938 175.089844 226.445312 175.089844 C 226.429688 175.09375 226.414062 175.089844 226.40625 175.078125 C 226.398438 175.070312 226.371094 175.054688 226.34375 175.046875 C 226.316406 175.039062 226.28125 175.027344 226.261719 175.019531 C 226.246094 175.011719 226.214844 175 226.191406 174.996094 C 226.167969 174.996094 226.125 174.984375 226.097656 174.972656 C 226.035156 174.941406 226.007812 174.9375 225.886719 174.929688 C 225.835938 174.921875 225.785156 174.917969 225.777344 174.910156 C 225.769531 174.90625 225.738281 174.894531 225.707031 174.886719 C 225.671875 174.878906 225.640625 174.867188 225.632812 174.863281 C 225.625 174.859375 225.597656 174.851562 225.574219 174.847656 C 225.550781 174.839844 225.519531 174.832031 225.503906 174.824219 C 225.488281 174.816406 225.472656 174.8125 225.464844 174.8125 C 225.453125 174.816406 225.367188 174.792969 225.300781 174.773438 C 225.289062 174.769531 225.269531 174.765625 225.261719 174.765625 C 225.253906 174.769531 225.21875 174.757812 225.183594 174.746094 C 225.144531 174.730469 225.109375 174.722656 225.097656 174.722656 C 225.089844 174.722656 225.078125 174.722656 225.074219 174.714844 C 225.070312 174.707031 225.039062 174.695312 225.011719 174.679688 C 224.980469 174.667969 224.945312 174.652344 224.933594 174.644531 C 224.914062 174.636719 224.882812 174.636719 224.796875 174.644531 C 224.738281 174.652344 224.65625 174.660156 224.621094 174.660156 C 224.5 174.664062 224.203125 174.703125 223.972656 174.746094 C 223.835938 174.769531 223.722656 174.789062 223.679688 174.804688 C 223.609375 174.832031 223.503906 174.863281 223.402344 174.890625 C 223.355469 174.90625 223.304688 174.921875 223.289062 174.929688 C 223.277344 174.9375 223.234375 174.949219 223.199219 174.957031 C 223.160156 174.960938 223.113281 174.976562 223.085938 174.984375 C 223.0625 174.992188 223.015625 175.007812 222.980469 175.019531 C 222.941406 175.03125 222.890625 175.046875 222.863281 175.058594 C 222.839844 175.066406 222.800781 175.078125 222.769531 175.082031 C 222.757812 175.085938 222.746094 175.085938 222.738281 175.085938 C 222.664062 175.097656 222.617188 175.089844 222.574219 175.066406 C 222.53125 175.046875 222.394531 175.027344 222.292969 175.027344 C 222.242188 175.027344 222.191406 175.023438 222.175781 175.019531 C 222.140625 175.015625 222.015625 175.007812 221.996094 175.007812 C 221.980469 175.011719 221.9375 174.992188 221.855469 174.941406 C 221.828125 174.921875 221.785156 174.894531 221.761719 174.882812 C 221.742188 174.871094 221.6875 174.835938 221.640625 174.804688 C 221.589844 174.769531 221.546875 174.75 221.53125 174.75 C 221.511719 174.75 221.5 174.75 221.488281 174.75 Z M 221.488281 174.75 " fill-opacity="1" fill-rule="nonzero"/></g></g></g><g fill="#ffffff" fill-opacity="1"><g transform="translate(150.605844, 190.256601)"><g><path d="M 10.390625 -20.4375 L 10.390625 -5.78125 C 10.390625 -3.78125 9.835938 -2.253906 8.734375 -1.203125 C 7.640625 -0.148438 6.066406 0.375 4.015625 0.375 C 3.472656 0.375 2.9375 0.304688 2.40625 0.171875 C 1.875 0.0351562 1.425781 -0.125 1.0625 -0.3125 C 0.695312 -0.5 0.367188 -0.691406 0.078125 -0.890625 C -0.203125 -1.085938 -0.410156 -1.253906 -0.546875 -1.390625 L -0.765625 -1.59375 L 0.71875 -5.484375 C 1.695312 -4.554688 2.582031 -4.09375 3.375 -4.09375 C 4.082031 -4.09375 4.648438 -4.328125 5.078125 -4.796875 C 5.503906 -5.265625 5.71875 -5.988281 5.71875 -6.96875 L 5.71875 -20.4375 Z M 10.390625 -20.4375 "/></g></g></g><g fill="#ffffff" fill-opacity="1"><g transform="translate(160.989605, 190.256601)"><g><path d="M 5.625 -12.71875 L 5.625 -6.671875 C 5.625 -5.410156 5.8125 -4.515625 6.1875 -3.984375 C 6.570312 -3.460938 7.21875 -3.203125 8.125 -3.203125 C 9.03125 -3.203125 9.671875 -3.460938 10.046875 -3.984375 C 10.429688 -4.515625 10.625 -5.410156 10.625 -6.671875 L 10.625 -12.71875 L 15.015625 -12.71875 L 15.015625 -5.59375 C 15.015625 -3.476562 14.460938 -1.953125 13.359375 -1.015625 C 12.265625 -0.0859375 10.519531 0.375 8.125 0.375 C 5.726562 0.375 3.976562 -0.0859375 2.875 -1.015625 C 1.78125 -1.953125 1.234375 -3.476562 1.234375 -5.59375 L 1.234375 -12.71875 Z M 5.625 -12.71875 "/></g></g></g><g fill="#ffffff" fill-opacity="1"><g transform="translate(176.007702, 190.256601)"><g><path d="M 1.484375 0 L 1.484375 -21.3125 L 5.875 -21.3125 L 5.875 0 Z M 1.484375 0 "/></g></g></g><g fill="#ffffff" fill-opacity="1"><g transform="translate(182.12887, 190.256601)"><g><path d="M 14.34375 -5.75 L 5.125 -5.75 C 5.125 -4.851562 5.410156 -4.191406 5.984375 -3.765625 C 6.566406 -3.335938 7.195312 -3.125 7.875 -3.125 C 8.59375 -3.125 9.15625 -3.21875 9.5625 -3.40625 C 9.976562 -3.59375 10.453125 -3.96875 10.984375 -4.53125 L 14.15625 -2.953125 C 12.832031 -0.734375 10.632812 0.375 7.5625 0.375 C 5.644531 0.375 4 -0.28125 2.625 -1.59375 C 1.25 -2.90625 0.5625 -4.488281 0.5625 -6.34375 C 0.5625 -8.195312 1.25 -9.78125 2.625 -11.09375 C 4 -12.414062 5.644531 -13.078125 7.5625 -13.078125 C 9.570312 -13.078125 11.207031 -12.492188 12.46875 -11.328125 C 13.738281 -10.171875 14.375 -8.507812 14.375 -6.34375 C 14.375 -6.039062 14.363281 -5.84375 14.34375 -5.75 Z M 5.25 -8.171875 L 10.09375 -8.171875 C 9.988281 -8.835938 9.722656 -9.347656 9.296875 -9.703125 C 8.878906 -10.054688 8.34375 -10.234375 7.6875 -10.234375 C 6.957031 -10.234375 6.375 -10.039062 5.9375 -9.65625 C 5.507812 -9.28125 5.28125 -8.785156 5.25 -8.171875 Z M 5.25 -8.171875 "/></g></g></g><g fill="#ffffff" fill-opacity="1"><g transform="translate(195.833495, 190.256601)"><g><path d="M 7.015625 -13.078125 C 7.742188 -13.078125 8.460938 -12.992188 9.171875 -12.828125 C 9.878906 -12.671875 10.40625 -12.507812 10.75 -12.34375 L 11.28125 -12.09375 L 9.84375 -9.21875 C 8.84375 -9.75 7.898438 -10.015625 7.015625 -10.015625 C 6.515625 -10.015625 6.160156 -9.957031 5.953125 -9.84375 C 5.753906 -9.738281 5.65625 -9.539062 5.65625 -9.25 C 5.65625 -9.175781 5.660156 -9.109375 5.671875 -9.046875 C 5.691406 -8.984375 5.722656 -8.921875 5.765625 -8.859375 C 5.816406 -8.796875 5.863281 -8.742188 5.90625 -8.703125 C 5.945312 -8.671875 6.015625 -8.628906 6.109375 -8.578125 C 6.210938 -8.523438 6.289062 -8.484375 6.34375 -8.453125 C 6.40625 -8.429688 6.503906 -8.394531 6.640625 -8.34375 C 6.773438 -8.300781 6.875 -8.265625 6.9375 -8.234375 C 7 -8.210938 7.109375 -8.175781 7.265625 -8.125 C 7.429688 -8.070312 7.550781 -8.039062 7.625 -8.03125 C 8.144531 -7.882812 8.59375 -7.71875 8.96875 -7.53125 C 9.351562 -7.351562 9.753906 -7.101562 10.171875 -6.78125 C 10.585938 -6.46875 10.910156 -6.070312 11.140625 -5.59375 C 11.378906 -5.113281 11.5 -4.570312 11.5 -3.96875 C 11.5 -1.070312 9.492188 0.375 5.484375 0.375 C 4.566406 0.375 3.695312 0.234375 2.875 -0.046875 C 2.0625 -0.328125 1.472656 -0.609375 1.109375 -0.890625 L 0.5625 -1.34375 L 2.359375 -4.34375 C 2.484375 -4.21875 2.65625 -4.078125 2.875 -3.921875 C 3.09375 -3.765625 3.476562 -3.550781 4.03125 -3.28125 C 4.59375 -3.007812 5.082031 -2.875 5.5 -2.875 C 6.40625 -2.875 6.859375 -3.179688 6.859375 -3.796875 C 6.859375 -4.078125 6.742188 -4.296875 6.515625 -4.453125 C 6.285156 -4.609375 5.894531 -4.785156 5.34375 -4.984375 C 4.789062 -5.179688 4.359375 -5.363281 4.046875 -5.53125 C 3.242188 -5.9375 2.613281 -6.398438 2.15625 -6.921875 C 1.695312 -7.441406 1.46875 -8.132812 1.46875 -9 C 1.46875 -10.28125 1.960938 -11.28125 2.953125 -12 C 3.953125 -12.71875 5.304688 -13.078125 7.015625 -13.078125 Z M 7.015625 -13.078125 "/></g></g></g><g fill="#ffffff" fill-opacity="1"><g transform="translate(206.787256, 190.256601)"><g/></g></g><g fill="#ffffff" fill-opacity="1"><g transform="translate(212.313646, 190.256601)"><g><path d="M 4.3125 -5.296875 C 5.101562 -5.296875 5.773438 -5.019531 6.328125 -4.46875 C 6.878906 -3.914062 7.15625 -3.242188 7.15625 -2.453125 C 7.15625 -1.671875 6.878906 -1.003906 6.328125 -0.453125 C 5.773438 0.0976562 5.101562 0.375 4.3125 0.375 C 3.53125 0.375 2.863281 0.0976562 2.3125 -0.453125 C 1.757812 -1.003906 1.484375 -1.671875 1.484375 -2.453125 C 1.484375 -3.242188 1.757812 -3.914062 2.3125 -4.46875 C 2.863281 -5.019531 3.53125 -5.296875 4.3125 -5.296875 Z M 4.3125 -5.296875 "/></g></g></g></svg>