<svg xmlns="http://www.w3.org/2000/svg" xmlns:xlink="http://www.w3.org/1999/xlink" width="500" zoomAndPan="magnify" viewBox="0 0 375 374.999991" height="500" preserveAspectRatio="xMidYMid meet" version="1.0"><defs><g/><clipPath id="4765b928ef"><path d="M 229.695312 187.5 L 240.722656 187.5 L 240.722656 198.527344 L 229.695312 198.527344 Z M 229.695312 187.5 " clip-rule="nonzero"/></clipPath><clipPath id="6fc6a973a0"><path d="M 235.210938 187.5 C 232.164062 187.5 229.695312 189.96875 229.695312 193.011719 C 229.695312 196.058594 232.164062 198.527344 235.210938 198.527344 C 238.253906 198.527344 240.722656 196.058594 240.722656 193.011719 C 240.722656 189.96875 238.253906 187.5 235.210938 187.5 Z M 235.210938 187.5 " clip-rule="nonzero"/></clipPath></defs><rect x="-37.5" width="450" fill="#ffffff" y="-37.499999" height="449.999989" fill-opacity="1"/><rect x="-37.5" width="450" fill="#e6e6dd" y="-37.499999" height="449.999989" fill-opacity="1"/><g fill="#000000" fill-opacity="1"><g transform="translate(135.93398, 199.254319)"><g><path d="M 10.703125 0.375 C 8.867188 0.375 7.203125 0.015625 5.703125 -0.703125 C 4.203125 -1.421875 3.023438 -2.472656 2.171875 -3.859375 C 1.316406 -5.242188 0.890625 -6.914062 0.890625 -8.875 L 0.890625 -18.9375 L 8.78125 -18.9375 L 8.78125 -9.34375 C 8.78125 -8.632812 8.925781 -8.066406 9.21875 -7.640625 C 9.519531 -7.222656 9.984375 -7.015625 10.609375 -7.015625 C 11.203125 -7.015625 11.644531 -7.207031 11.9375 -7.59375 C 12.238281 -7.988281 12.390625 -8.539062 12.390625 -9.25 L 12.390625 -40.15625 L 20.46875 -40.15625 L 20.46875 -10.046875 C 20.46875 -7.960938 20.054688 -6.132812 19.234375 -4.5625 C 18.410156 -2.988281 17.257812 -1.769531 15.78125 -0.90625 C 14.300781 -0.0507812 12.609375 0.375 10.703125 0.375 Z M 10.703125 0.375 "/></g></g></g><g fill="#000000" fill-opacity="1"><g transform="translate(155.144705, 199.254319)"><g><path d="M 8.234375 0.375 C 5.671875 0.375 3.914062 -0.382812 2.96875 -1.90625 C 2.019531 -3.4375 1.546875 -5.71875 1.546875 -8.75 L 1.546875 -34.21875 L 9.765625 -34.21875 L 9.765625 -10.375 C 9.765625 -10.15625 9.765625 -9.570312 9.765625 -8.625 C 9.765625 -7.675781 9.910156 -7.003906 10.203125 -6.609375 C 10.503906 -6.222656 10.96875 -6.03125 11.59375 -6.03125 C 12.4375 -6.03125 12.96875 -6.378906 13.1875 -7.078125 C 13.40625 -7.785156 13.515625 -8.789062 13.515625 -10.09375 L 13.515625 -10.375 L 13.5625 -34.21875 L 21.6875 -34.21875 L 21.6875 0 L 13.515625 0 L 13.515625 -3.640625 C 12.953125 -2.210938 12.296875 -1.1875 11.546875 -0.5625 C 10.796875 0.0625 9.691406 0.375 8.234375 0.375 Z M 8.234375 0.375 "/></g></g></g><g fill="#000000" fill-opacity="1"><g transform="translate(175.897937, 199.254319)"><g><path d="M 1.640625 0 L 1.640625 -40.390625 L 9.953125 -40.390625 L 9.953125 0 Z M 1.640625 0 "/></g></g></g><g fill="#000000" fill-opacity="1"><g transform="translate(184.918813, 199.254319)"><g><path d="M 11.21875 0.375 C 7.695312 0.375 5.171875 -0.585938 3.640625 -2.515625 C 2.117188 -4.453125 1.359375 -7.335938 1.359375 -11.171875 L 1.359375 -24.921875 C 1.359375 -28.066406 2.257812 -30.460938 4.0625 -32.109375 C 5.875 -33.765625 8.398438 -34.59375 11.640625 -34.59375 C 18.210938 -34.59375 21.5 -31.367188 21.5 -24.921875 L 21.5 -22.4375 C 21.5 -19.945312 21.46875 -17.921875 21.40625 -16.359375 L 9.53125 -16.359375 L 9.53125 -9.71875 C 9.53125 -8.539062 9.65625 -7.613281 9.90625 -6.9375 C 10.15625 -6.269531 10.6875 -5.9375 11.5 -5.9375 C 12.125 -5.9375 12.566406 -6.125 12.828125 -6.5 C 13.097656 -6.875 13.253906 -7.300781 13.296875 -7.78125 C 13.347656 -8.269531 13.375 -8.976562 13.375 -9.90625 L 13.375 -13.234375 L 21.5 -13.234375 L 21.5 -11.265625 C 21.5 -7.273438 20.726562 -4.335938 19.1875 -2.453125 C 17.644531 -0.566406 14.988281 0.375 11.21875 0.375 Z M 13.375 -20.4375 L 13.375 -24.828125 C 13.375 -27.285156 12.765625 -28.515625 11.546875 -28.515625 C 10.171875 -28.515625 9.484375 -27.285156 9.484375 -24.828125 L 9.484375 -20.4375 Z M 13.375 -20.4375 "/></g></g></g><g fill="#000000" fill-opacity="1"><g transform="translate(205.157878, 199.254319)"><g><path d="M 11.03125 0.375 C 4.269531 0.375 0.890625 -3.050781 0.890625 -9.90625 L 0.9375 -12.625 L 9.109375 -12.625 L 9.15625 -8.609375 C 9.15625 -7.796875 9.3125 -7.175781 9.625 -6.75 C 9.9375 -6.332031 10.453125 -6.125 11.171875 -6.125 C 12.265625 -6.125 12.8125 -7.007812 12.8125 -8.78125 C 12.8125 -10.09375 12.550781 -11.125 12.03125 -11.875 C 11.519531 -12.625 10.703125 -13.421875 9.578125 -14.265625 L 5.234375 -17.625 C 3.734375 -18.78125 2.65625 -19.972656 2 -21.203125 C 1.351562 -22.429688 1.03125 -24.164062 1.03125 -26.40625 C 1.03125 -28.15625 1.488281 -29.644531 2.40625 -30.875 C 3.320312 -32.101562 4.546875 -33.03125 6.078125 -33.65625 C 7.609375 -34.28125 9.304688 -34.59375 11.171875 -34.59375 C 17.804688 -34.59375 21.125 -31.289062 21.125 -24.6875 L 21.125 -24.03125 L 12.671875 -24.03125 L 12.671875 -25.34375 C 12.671875 -26.144531 12.535156 -26.832031 12.265625 -27.40625 C 12.003906 -27.988281 11.5625 -28.28125 10.9375 -28.28125 C 10.375 -28.28125 9.941406 -28.113281 9.640625 -27.78125 C 9.347656 -27.457031 9.203125 -27.015625 9.203125 -26.453125 C 9.203125 -25.210938 9.6875 -24.25 10.65625 -23.5625 L 15.703125 -19.875 C 17.515625 -18.53125 18.898438 -17.070312 19.859375 -15.5 C 20.828125 -13.925781 21.3125 -11.9375 21.3125 -9.53125 C 21.3125 -6.351562 20.40625 -3.90625 18.59375 -2.1875 C 16.789062 -0.476562 14.269531 0.375 11.03125 0.375 Z M 11.03125 0.375 "/></g></g></g><g clip-path="url(#4765b928ef)"><g clip-path="url(#6fc6a973a0)"><path fill="#000000" d="M 229.695312 187.5 L 240.722656 187.5 L 240.722656 198.527344 L 229.695312 198.527344 Z M 229.695312 187.5 " fill-opacity="1" fill-rule="nonzero"/></g></g><g fill="#000000" fill-opacity="1"><g transform="translate(228.806153, 185.818947)"><g><path d="M 0.328125 -7.296875 L 2.34375 -7.296875 C 2.863281 -7.296875 3.253906 -7.148438 3.515625 -6.859375 C 3.773438 -6.578125 3.90625 -6.148438 3.90625 -5.578125 L 3.921875 -2.171875 C 3.929688 -1.453125 3.804688 -0.910156 3.546875 -0.546875 C 3.296875 -0.179688 2.875 0 2.28125 0 L 0.328125 0 Z M 2.046875 -1.296875 C 2.316406 -1.296875 2.453125 -1.425781 2.453125 -1.6875 L 2.453125 -5.453125 C 2.453125 -5.609375 2.4375 -5.726562 2.40625 -5.8125 C 2.382812 -5.894531 2.335938 -5.953125 2.265625 -5.984375 C 2.203125 -6.015625 2.097656 -6.03125 1.953125 -6.03125 L 1.796875 -6.03125 L 1.796875 -1.296875 Z M 2.046875 -1.296875 "/></g></g></g><g fill="#000000" fill-opacity="1"><g transform="translate(232.527479, 185.818947)"><g><path d="M 2.046875 0.0625 C 1.398438 0.0625 0.9375 -0.109375 0.65625 -0.453125 C 0.382812 -0.804688 0.25 -1.332031 0.25 -2.03125 L 0.25 -4.53125 C 0.25 -5.101562 0.410156 -5.539062 0.734375 -5.84375 C 1.066406 -6.144531 1.523438 -6.296875 2.109375 -6.296875 C 3.304688 -6.296875 3.90625 -5.707031 3.90625 -4.53125 L 3.90625 -4.078125 C 3.90625 -3.628906 3.898438 -3.257812 3.890625 -2.96875 L 1.734375 -2.96875 L 1.734375 -1.765625 C 1.734375 -1.546875 1.753906 -1.375 1.796875 -1.25 C 1.847656 -1.132812 1.945312 -1.078125 2.09375 -1.078125 C 2.207031 -1.078125 2.285156 -1.109375 2.328125 -1.171875 C 2.378906 -1.242188 2.410156 -1.320312 2.421875 -1.40625 C 2.429688 -1.5 2.4375 -1.628906 2.4375 -1.796875 L 2.4375 -2.40625 L 3.90625 -2.40625 L 3.90625 -2.046875 C 3.90625 -1.316406 3.765625 -0.78125 3.484375 -0.4375 C 3.203125 -0.101562 2.722656 0.0625 2.046875 0.0625 Z M 2.4375 -3.71875 L 2.4375 -4.515625 C 2.4375 -4.960938 2.320312 -5.1875 2.09375 -5.1875 C 1.84375 -5.1875 1.71875 -4.960938 1.71875 -4.515625 L 1.71875 -3.71875 Z M 2.4375 -3.71875 "/></g></g></g><g fill="#000000" fill-opacity="1"><g transform="translate(236.206325, 185.818947)"><g><path d="M 1.09375 0 L 0.09375 -6.21875 L 1.578125 -6.21875 L 1.890625 -3.078125 L 1.9375 -2.0625 L 2 -3.078125 L 2.34375 -6.21875 L 3.828125 -6.21875 L 2.8125 0 Z M 1.09375 0 "/></g></g></g><g fill="#000000" fill-opacity="1"><g transform="translate(239.655752, 185.818947)"><g><path d="M 0.234375 0 L 0.234375 -1.234375 L 1.71875 -1.234375 L 1.71875 0 Z M 0.234375 0 "/></g></g></g></svg>