<svg xmlns="http://www.w3.org/2000/svg" xmlns:xlink="http://www.w3.org/1999/xlink" width="500" zoomAndPan="magnify" viewBox="0 0 375 374.999991" height="500" preserveAspectRatio="xMidYMid meet" version="1.0"><defs><g/><clipPath id="c691d0e977"><path d="M 140.636719 135.648438 L 235.796875 135.648438 L 235.796875 239.351562 L 140.636719 239.351562 Z M 140.636719 135.648438 " clip-rule="nonzero"/></clipPath><clipPath id="bd9b9a7bcb"><path d="M 146.796875 168.554688 C 153.90625 152.761719 169.785156 141.726562 188.214844 141.726562 C 206.648438 141.726562 222.527344 152.761719 229.632812 168.554688 L 231.066406 168.554688 C 223.875 152.015625 207.363281 140.40625 188.214844 140.40625 C 169.070312 140.40625 152.558594 152.015625 145.367188 168.554688 Z M 229.632812 205.644531 C 222.527344 221.4375 206.648438 232.472656 188.214844 232.472656 C 169.785156 232.472656 153.90625 221.4375 146.796875 205.644531 L 145.367188 205.644531 C 152.558594 222.183594 169.042969 233.789062 188.214844 233.789062 C 207.363281 233.789062 223.875 222.183594 231.066406 205.644531 Z M 142.242188 166.890625 C 150.125 149.347656 167.78125 137.082031 188.214844 137.082031 C 208.652344 137.082031 226.308594 149.320312 234.191406 166.890625 L 235.796875 166.890625 C 227.800781 148.519531 209.484375 135.648438 188.214844 135.648438 C 166.949219 135.648438 148.632812 148.519531 140.636719 166.890625 Z M 234.191406 208.078125 C 226.308594 225.621094 208.652344 237.890625 188.214844 237.890625 C 167.78125 237.890625 150.125 225.652344 142.242188 208.078125 L 140.636719 208.078125 C 148.605469 226.453125 166.949219 239.324219 188.214844 239.324219 C 209.484375 239.324219 227.800781 226.453125 235.796875 208.078125 Z M 234.191406 208.078125 " clip-rule="nonzero"/></clipPath></defs><rect x="-37.5" width="450" fill="#ffffff" y="-37.499999" height="449.999989" fill-opacity="1"/><rect x="-37.5" width="450" fill="#303034" y="-37.499999" height="449.999989" fill-opacity="1"/><g clip-path="url(#c691d0e977)"><g clip-path="url(#bd9b9a7bcb)"><path fill="#fefce6" d="M 116.558594 135.648438 L 258.441406 135.648438 L 258.441406 239.351562 L 116.558594 239.351562 Z M 116.558594 135.648438 " fill-opacity="1" fill-rule="nonzero"/></g></g><g fill="#fefce6" fill-opacity="1"><g transform="translate(161.306961, 165.579853)"><g><path d="M 0.15625 -2.375 L -2.109375 -4.171875 L -1.46875 -4.984375 L 0.796875 -3.1875 C 1.140625 -2.914062 1.328125 -2.597656 1.359375 -2.234375 C 1.390625 -1.867188 1.273438 -1.523438 1.015625 -1.203125 C 0.765625 -0.890625 0.460938 -0.703125 0.109375 -0.640625 C -0.242188 -0.585938 -0.597656 -0.703125 -0.953125 -0.984375 L -0.3125 -1.78125 C -0.1875 -1.6875 -0.0703125 -1.640625 0.03125 -1.640625 C 0.132812 -1.648438 0.21875 -1.695312 0.28125 -1.78125 C 0.351562 -1.875 0.378906 -1.96875 0.359375 -2.0625 C 0.347656 -2.164062 0.28125 -2.269531 0.15625 -2.375 Z M 0.15625 -2.375 "/></g></g></g><g fill="#fefce6" fill-opacity="1"><g transform="translate(163.963733, 162.259297)"><g><path d="M -0.859375 -1.546875 L -2.609375 -3.390625 L -1.859375 -4.09375 L -0.109375 -2.25 C 0.0664062 -2.0625 0.25 -1.960938 0.4375 -1.953125 C 0.625 -1.941406 0.804688 -2.019531 0.984375 -2.1875 C 1.160156 -2.351562 1.25 -2.53125 1.25 -2.71875 C 1.25 -2.90625 1.160156 -3.09375 0.984375 -3.28125 L -0.765625 -5.125 L -0.015625 -5.84375 L 1.734375 -4 C 1.984375 -3.726562 2.140625 -3.425781 2.203125 -3.09375 C 2.273438 -2.769531 2.253906 -2.472656 2.140625 -2.203125 C 2.023438 -1.929688 1.851562 -1.6875 1.625 -1.46875 C 1.269531 -1.132812 0.863281 -0.960938 0.40625 -0.953125 C -0.0507812 -0.941406 -0.472656 -1.140625 -0.859375 -1.546875 Z M -0.859375 -1.546875 "/></g></g></g><g fill="#fefce6" fill-opacity="1"><g transform="translate(167.737012, 158.834668)"><g><path d="M -2.09375 -3.71875 L -1.265625 -4.3125 L 0.75 -1.5 L 1.8125 -2.265625 L 2.265625 -1.625 L 0.375 -0.265625 Z M -2.09375 -3.71875 "/></g></g></g><g fill="#fefce6" fill-opacity="1"><g transform="translate(170.725026, 156.766084)"><g><path d="M 0.390625 -0.234375 L -1.734375 -3.921875 L -0.84375 -4.4375 L 1.28125 -0.75 Z M 0.390625 -0.234375 "/></g></g></g><g fill="#fefce6" fill-opacity="1"><g transform="translate(173.031125, 155.430756)"><g><path d="M 1.03125 -5.125 L 1.34375 -4.421875 L -0.0625 -3.796875 L 0.3125 -2.953125 L 1.546875 -3.5 L 1.875 -2.78125 L 0.640625 -2.234375 L 1.046875 -1.328125 L 2.453125 -1.953125 L 2.765625 -1.234375 L 0.421875 -0.1875 L -1.3125 -4.078125 Z M 1.03125 -5.125 "/></g></g></g><g fill="#fefce6" fill-opacity="1"><g transform="translate(176.794299, 153.761533)"><g><path d="M 1.953125 -4.96875 L 2.96875 -5.25 L 4.109375 -1.140625 L 3.09375 -0.859375 L 0.71875 -2.984375 L 1.4375 -0.390625 L 0.4375 -0.125 L -0.703125 -4.234375 L 0.296875 -4.5 L 2.671875 -2.375 Z M 1.953125 -4.96875 "/></g></g></g><g fill="#fefce6" fill-opacity="1"><g transform="translate(182.029322, 152.439572)"><g/></g></g><g fill="#fefce6" fill-opacity="1"><g transform="translate(184.513145, 152.028506)"><g><path d="M 1.453125 -0.828125 L 1.921875 -0.84375 C 2.316406 -0.851562 2.625 -0.984375 2.84375 -1.234375 C 3.0625 -1.484375 3.164062 -1.8125 3.15625 -2.21875 C 3.144531 -2.625 3.019531 -2.945312 2.78125 -3.1875 C 2.550781 -3.425781 2.238281 -3.539062 1.84375 -3.53125 L 1.375 -3.515625 Z M 1.828125 -4.3125 C 2.503906 -4.332031 3.066406 -4.148438 3.515625 -3.765625 C 3.960938 -3.390625 4.195312 -2.882812 4.21875 -2.25 C 4.238281 -1.625 4.035156 -1.109375 3.609375 -0.703125 C 3.179688 -0.296875 2.628906 -0.0820312 1.953125 -0.0625 L 0.453125 -0.015625 L 0.328125 -4.265625 Z M 1.828125 -4.3125 "/></g></g></g><g fill="#fefce6" fill-opacity="1"><g transform="translate(189.619867, 151.925526)"><g><path d="M 0.65625 -1.640625 L 0.96875 -4.15625 L 1.984375 -4.03125 L 1.671875 -1.515625 C 1.640625 -1.253906 1.675781 -1.050781 1.78125 -0.90625 C 1.882812 -0.757812 2.054688 -0.671875 2.296875 -0.640625 C 2.546875 -0.609375 2.742188 -0.648438 2.890625 -0.765625 C 3.035156 -0.878906 3.125 -1.066406 3.15625 -1.328125 L 3.46875 -3.84375 L 4.5 -3.71875 L 4.1875 -1.203125 C 4.132812 -0.828125 4.003906 -0.515625 3.796875 -0.265625 C 3.585938 -0.015625 3.34375 0.15625 3.0625 0.25 C 2.789062 0.34375 2.492188 0.367188 2.171875 0.328125 C 1.679688 0.265625 1.285156 0.0625 0.984375 -0.28125 C 0.691406 -0.632812 0.582031 -1.085938 0.65625 -1.640625 Z M 0.65625 -1.640625 "/></g></g></g><g fill="#fefce6" fill-opacity="1"><g transform="translate(194.64626, 152.64212)"><g><path d="M 1.09375 -3.296875 L 1.296875 -4.046875 L 4.53125 -3.140625 L 4.328125 -2.390625 L 3.203125 -2.703125 L 2.265625 0.640625 L 1.28125 0.359375 L 2.21875 -2.984375 Z M 1.09375 -3.296875 "/></g></g></g><g fill="#fefce6" fill-opacity="1"><g transform="translate(198.820601, 153.843756)"><g><path d="M 2.015625 -0.921875 L 1.359375 0.59375 L 0.421875 0.1875 L 2.125 -3.703125 L 3.671875 -3.03125 C 4.117188 -2.832031 4.414062 -2.5625 4.5625 -2.21875 C 4.707031 -1.875 4.710938 -1.539062 4.578125 -1.21875 C 4.472656 -0.988281 4.304688 -0.796875 4.078125 -0.640625 C 3.847656 -0.492188 3.554688 -0.445312 3.203125 -0.5 L 3.46875 1.515625 L 2.359375 1.03125 L 2.125 -0.875 Z M 2.75 -2.578125 L 2.34375 -1.640625 L 2.953125 -1.375 C 3.085938 -1.3125 3.210938 -1.300781 3.328125 -1.34375 C 3.453125 -1.394531 3.539062 -1.488281 3.59375 -1.625 C 3.65625 -1.769531 3.660156 -1.90625 3.609375 -2.03125 C 3.566406 -2.15625 3.484375 -2.25 3.359375 -2.3125 Z M 2.75 -2.578125 "/></g></g></g><g fill="#fefce6" fill-opacity="1"><g transform="translate(203.102785, 155.754254)"><g><path d="M 1.296875 -1.21875 L 2.640625 -3.359375 L 3.5 -2.8125 L 2.15625 -0.671875 C 2.007812 -0.453125 1.957031 -0.25 2 -0.0625 C 2.039062 0.113281 2.160156 0.265625 2.359375 0.390625 C 2.566406 0.523438 2.757812 0.566406 2.9375 0.515625 C 3.125 0.472656 3.289062 0.34375 3.4375 0.125 L 4.78125 -2.015625 L 5.640625 -1.453125 L 4.296875 0.6875 C 4.097656 1 3.847656 1.222656 3.546875 1.359375 C 3.253906 1.503906 2.960938 1.554688 2.671875 1.515625 C 2.378906 1.484375 2.09375 1.382812 1.8125 1.21875 C 1.40625 0.957031 1.140625 0.601562 1.015625 0.15625 C 0.898438 -0.28125 0.992188 -0.738281 1.296875 -1.21875 Z M 1.296875 -1.21875 "/></g></g></g><g fill="#fefce6" fill-opacity="1"><g transform="translate(207.354984, 158.490259)"><g><path d="M 1 0.109375 C 0.957031 -0.460938 1.144531 -0.984375 1.5625 -1.453125 C 1.976562 -1.929688 2.476562 -2.1875 3.0625 -2.21875 C 3.65625 -2.25 4.1875 -2.0625 4.65625 -1.65625 C 5 -1.34375 5.226562 -0.96875 5.34375 -0.53125 C 5.457031 -0.101562 5.414062 0.320312 5.21875 0.75 L 4.296875 -0.0625 C 4.378906 -0.40625 4.285156 -0.691406 4.015625 -0.921875 C 3.753906 -1.160156 3.472656 -1.265625 3.171875 -1.234375 C 2.878906 -1.203125 2.609375 -1.046875 2.359375 -0.765625 C 2.117188 -0.484375 2 -0.195312 2 0.09375 C 2.007812 0.394531 2.144531 0.660156 2.40625 0.890625 C 2.675781 1.128906 2.972656 1.191406 3.296875 1.078125 L 4.21875 1.890625 C 3.820312 2.128906 3.398438 2.21875 2.953125 2.15625 C 2.515625 2.09375 2.125 1.90625 1.78125 1.59375 C 1.3125 1.1875 1.050781 0.691406 1 0.109375 Z M 1 0.109375 "/></g></g></g><g fill="#fefce6" fill-opacity="1"><g transform="translate(211.259097, 162.001951)"><g><path d="M 5.28125 -0.25 L 5.9375 0.546875 L 2.640625 3.234375 L 1.984375 2.4375 L 3.34375 1.3125 L 2.296875 0.03125 L 0.9375 1.15625 L 0.28125 0.34375 L 3.578125 -2.34375 L 4.234375 -1.53125 L 2.90625 -0.453125 L 3.953125 0.828125 Z M 5.28125 -0.25 "/></g></g></g><g fill="#fefce6" fill-opacity="1"><g transform="translate(165.916474, 219.886354)"><g><path d="M 0.375 0.25 L 2.703125 -3.296875 L 5.015625 -1.78125 L 4.59375 -1.140625 L 3.140625 -2.09375 L 2.625 -1.3125 L 3.71875 -0.59375 L 3.296875 0.0625 L 2.203125 -0.65625 L 1.234375 0.8125 Z M 0.375 0.25 "/></g></g></g><g fill="#fefce6" fill-opacity="1"><g transform="translate(169.827238, 222.385497)"><g><path d="M 2.0625 -0.859375 L 1.34375 0.640625 L 0.40625 0.203125 L 2.25 -3.625 L 3.78125 -2.90625 C 4.21875 -2.6875 4.503906 -2.398438 4.640625 -2.046875 C 4.773438 -1.703125 4.769531 -1.367188 4.625 -1.046875 C 4.507812 -0.828125 4.332031 -0.644531 4.09375 -0.5 C 3.863281 -0.351562 3.570312 -0.3125 3.21875 -0.375 L 3.40625 1.640625 L 2.328125 1.109375 L 2.171875 -0.796875 Z M 2.84375 -2.484375 L 2.40625 -1.5625 L 3 -1.28125 C 3.132812 -1.207031 3.257812 -1.191406 3.375 -1.234375 C 3.488281 -1.285156 3.578125 -1.378906 3.640625 -1.515625 C 3.710938 -1.648438 3.726562 -1.78125 3.6875 -1.90625 C 3.644531 -2.039062 3.5625 -2.140625 3.4375 -2.203125 Z M 2.84375 -2.484375 "/></g></g></g><g fill="#fefce6" fill-opacity="1"><g transform="translate(174.578955, 224.595488)"><g><path d="M 3.421875 -0.25 C 3.679688 -0.40625 3.863281 -0.660156 3.96875 -1.015625 C 4.082031 -1.378906 4.070312 -1.695312 3.9375 -1.96875 C 3.8125 -2.238281 3.585938 -2.421875 3.265625 -2.515625 C 2.941406 -2.617188 2.644531 -2.59375 2.375 -2.4375 C 2.113281 -2.289062 1.925781 -2.035156 1.8125 -1.671875 C 1.707031 -1.316406 1.722656 -1.003906 1.859375 -0.734375 C 1.992188 -0.460938 2.222656 -0.273438 2.546875 -0.171875 C 2.867188 -0.078125 3.160156 -0.101562 3.421875 -0.25 Z M 0.953125 -0.296875 C 0.671875 -0.816406 0.617188 -1.375 0.796875 -1.96875 C 0.984375 -2.570312 1.335938 -3.007812 1.859375 -3.28125 C 2.390625 -3.5625 2.945312 -3.609375 3.53125 -3.421875 C 4.125 -3.242188 4.554688 -2.894531 4.828125 -2.375 C 5.109375 -1.863281 5.15625 -1.304688 4.96875 -0.703125 C 4.789062 -0.109375 4.441406 0.320312 3.921875 0.59375 C 3.398438 0.863281 2.847656 0.910156 2.265625 0.734375 C 1.679688 0.554688 1.242188 0.210938 0.953125 -0.296875 Z M 0.953125 -0.296875 "/></g></g></g><g fill="#fefce6" fill-opacity="1"><g transform="translate(180.332481, 226.2424)"><g><path d="M 3.75 -3.8125 L 4.796875 -3.671875 L 4.234375 0.5625 L 3.1875 0.421875 L 1.828125 -2.453125 L 1.46875 0.203125 L 0.453125 0.0625 L 1.015625 -4.171875 L 2.03125 -4.03125 L 3.390625 -1.140625 Z M 3.75 -3.8125 "/></g></g></g><g fill="#fefce6" fill-opacity="1"><g transform="translate(186.186638, 226.906206)"><g><path d="M 0.109375 -3.46875 L 0.109375 -4.25 L 3.46875 -4.296875 L 3.46875 -3.515625 L 2.3125 -3.5 L 2.359375 -0.03125 L 1.328125 -0.015625 L 1.28125 -3.484375 Z M 0.109375 -3.46875 "/></g></g></g><g fill="#fefce6" fill-opacity="1"><g transform="translate(191.015214, 226.768394)"><g><path d="M 0.1875 -1.75 L 0.0625 -2.59375 L 2.703125 -2.96875 L 2.828125 -2.125 Z M 0.1875 -1.75 "/></g></g></g><g fill="#fefce6" fill-opacity="1"><g transform="translate(195.613313, 226.041853)"><g><path d="M 1.796875 -4.90625 L 2 -4.15625 L 0.515625 -3.75 L 0.765625 -2.859375 L 2.078125 -3.21875 L 2.28125 -2.46875 L 0.96875 -2.109375 L 1.234375 -1.140625 L 2.71875 -1.546875 L 2.921875 -0.796875 L 0.4375 -0.125 L -0.6875 -4.234375 Z M 1.796875 -4.90625 "/></g></g></g><g fill="#fefce6" fill-opacity="1"><g transform="translate(200.080896, 224.780864)"><g><path d="M 1.25 -5.1875 L 2.203125 -5.609375 L 3.90625 -1.703125 L 2.953125 -1.28125 L 0.296875 -3.0625 L 1.359375 -0.59375 L 0.421875 -0.1875 L -1.28125 -4.09375 L -0.34375 -4.5 L 2.328125 -2.734375 Z M 1.25 -5.1875 "/></g></g></g><g fill="#fefce6" fill-opacity="1"><g transform="translate(205.464937, 222.331171)"><g><path d="M 0.828125 -1.453125 L 1.21875 -1.703125 C 1.5625 -1.921875 1.757812 -2.191406 1.8125 -2.515625 C 1.875 -2.847656 1.796875 -3.1875 1.578125 -3.53125 C 1.359375 -3.875 1.085938 -4.085938 0.765625 -4.171875 C 0.453125 -4.253906 0.125 -4.1875 -0.21875 -3.96875 L -0.609375 -3.71875 Z M -0.640625 -4.625 C -0.0664062 -4.988281 0.503906 -5.125 1.078125 -5.03125 C 1.660156 -4.9375 2.117188 -4.625 2.453125 -4.09375 C 2.796875 -3.5625 2.890625 -3.007812 2.734375 -2.4375 C 2.578125 -1.875 2.210938 -1.410156 1.640625 -1.046875 L 0.375 -0.25 L -1.90625 -3.828125 Z M -0.640625 -4.625 "/></g></g></g><g fill="#fefce6" fill-opacity="1"><g transform="translate(140.350263, 194.793532)"><g><path d="M 3.515625 -1.9375 L 4.03125 -1.9375 C 4.375 -1.9375 4.617188 -2.035156 4.765625 -2.234375 C 4.835938 -2.335938 4.894531 -2.503906 4.9375 -2.734375 C 4.976562 -2.960938 5 -3.242188 5 -3.578125 L 5 -10.796875 C 5 -11.515625 4.914062 -12.015625 4.75 -12.296875 C 4.601562 -12.554688 4.34375 -12.6875 3.96875 -12.6875 L 3.515625 -12.6875 Z M 0.875 0 L 0.875 -14.796875 L 4.359375 -14.796875 C 5.503906 -14.796875 6.335938 -14.457031 6.859375 -13.78125 C 7.367188 -13.101562 7.625 -12.125 7.625 -10.84375 L 7.640625 -4.265625 C 7.640625 -3.515625 7.578125 -2.859375 7.453125 -2.296875 C 7.328125 -1.734375 7.128906 -1.269531 6.859375 -0.90625 C 6.335938 -0.164062 5.476562 0.203125 4.28125 0.203125 L 0.875 0.203125 Z M 0.875 0 "/></g></g></g><g fill="#fefce6" fill-opacity="1"><g transform="translate(149.739946, 194.793532)"><g><path d="M 0.890625 0 L 0.890625 -14.796875 L 6.1875 -14.796875 L 6.1875 -12.46875 L 3.53125 -12.46875 L 3.53125 -8.640625 L 6.0625 -8.640625 L 6.0625 -6.359375 L 3.53125 -6.359375 L 3.53125 -2.125 L 6.296875 -2.125 L 6.296875 0.203125 L 0.890625 0.203125 Z M 0.890625 0 "/></g></g></g><g fill="#fefce6" fill-opacity="1"><g transform="translate(157.561884, 194.793532)"><g><path d="M 2.515625 0.03125 L 0.25 -14.5625 L 0.21875 -14.796875 L 2.765625 -14.796875 L 2.78125 -14.625 L 3.734375 -8.03125 L 4.140625 -4.890625 L 4.484375 -8.03125 L 5.28125 -14.625 L 5.296875 -14.796875 L 7.796875 -14.796875 L 7.765625 -14.5625 L 5.6875 0.03125 L 5.65625 0.203125 L 2.546875 0.203125 Z M 2.515625 0.03125 "/></g></g></g><g fill="#fefce6" fill-opacity="1"><g transform="translate(166.628066, 194.793532)"><g><path d="M 0.890625 0 L 0.890625 -14.796875 L 6.1875 -14.796875 L 6.1875 -12.46875 L 3.53125 -12.46875 L 3.53125 -8.640625 L 6.0625 -8.640625 L 6.0625 -6.359375 L 3.53125 -6.359375 L 3.53125 -2.125 L 6.296875 -2.125 L 6.296875 0.203125 L 0.890625 0.203125 Z M 0.890625 0 "/></g></g></g><g fill="#fefce6" fill-opacity="1"><g transform="translate(174.450003, 194.793532)"><g><path d="M 0.890625 0 L 0.890625 -14.796875 L 3.53125 -14.796875 L 3.53125 -2.09375 L 6.34375 -2.09375 L 6.34375 0.203125 L 0.890625 0.203125 Z M 0.890625 0 "/></g></g></g><g fill="#fefce6" fill-opacity="1"><g transform="translate(181.815718, 194.793532)"><g><path d="M 3.546875 -2.34375 C 3.585938 -2.207031 3.65625 -2.109375 3.75 -2.046875 C 3.84375 -1.992188 3.972656 -1.96875 4.140625 -1.96875 C 4.304688 -1.96875 4.4375 -1.992188 4.53125 -2.046875 C 4.625 -2.109375 4.695312 -2.207031 4.75 -2.34375 C 4.863281 -2.664062 4.921875 -3.238281 4.921875 -4.0625 L 4.921875 -10.859375 C 4.921875 -11.515625 4.863281 -11.992188 4.75 -12.296875 C 4.695312 -12.410156 4.625 -12.492188 4.53125 -12.546875 C 4.445312 -12.609375 4.328125 -12.640625 4.171875 -12.640625 C 4.015625 -12.640625 3.890625 -12.609375 3.796875 -12.546875 C 3.703125 -12.492188 3.625 -12.40625 3.5625 -12.28125 C 3.5 -12.144531 3.445312 -11.957031 3.40625 -11.71875 C 3.375 -11.476562 3.359375 -11.191406 3.359375 -10.859375 L 3.359375 -4.0625 C 3.359375 -3.226562 3.421875 -2.65625 3.546875 -2.34375 Z M 6.765625 -0.765625 C 6.492188 -0.390625 6.140625 -0.109375 5.703125 0.078125 C 5.265625 0.273438 4.75 0.375 4.15625 0.375 C 2.96875 0.375 2.09375 -0.00390625 1.53125 -0.765625 C 0.976562 -1.503906 0.703125 -2.609375 0.703125 -4.078125 L 0.703125 -10.75 C 0.703125 -12.132812 0.992188 -13.1875 1.578125 -13.90625 C 2.171875 -14.625 3.039062 -14.984375 4.1875 -14.984375 C 5.382812 -14.984375 6.253906 -14.613281 6.796875 -13.875 C 7.316406 -13.15625 7.578125 -12.113281 7.578125 -10.75 L 7.578125 -4.078125 C 7.578125 -3.347656 7.507812 -2.707031 7.375 -2.15625 C 7.238281 -1.601562 7.035156 -1.140625 6.765625 -0.765625 Z M 6.765625 -0.765625 "/></g></g></g><g fill="#fefce6" fill-opacity="1"><g transform="translate(191.155634, 194.793532)"><g><path d="M 0.890625 0 L 0.890625 -14.796875 L 4.4375 -14.796875 C 4.738281 -14.796875 5.015625 -14.769531 5.265625 -14.71875 C 5.515625 -14.675781 5.742188 -14.609375 5.953125 -14.515625 C 6.171875 -14.429688 6.363281 -14.316406 6.53125 -14.171875 C 6.695312 -14.023438 6.835938 -13.859375 6.953125 -13.671875 C 7.171875 -13.304688 7.335938 -12.859375 7.453125 -12.328125 C 7.566406 -11.796875 7.628906 -11.179688 7.640625 -10.484375 L 7.640625 -10.171875 C 7.640625 -9.679688 7.613281 -9.226562 7.5625 -8.8125 C 7.519531 -8.40625 7.453125 -8.03125 7.359375 -7.6875 C 7.265625 -7.34375 7.140625 -7.039062 6.984375 -6.78125 C 6.835938 -6.507812 6.644531 -6.28125 6.40625 -6.09375 C 6.164062 -5.90625 5.890625 -5.765625 5.578125 -5.671875 C 5.265625 -5.585938 4.910156 -5.546875 4.515625 -5.546875 L 3.53125 -5.546875 L 3.53125 0.203125 L 0.890625 0.203125 Z M 3.53125 -7.796875 L 4.078125 -7.796875 C 4.453125 -7.796875 4.691406 -7.929688 4.796875 -8.203125 C 4.929688 -8.546875 5 -9.210938 5 -10.203125 L 5 -10.484375 C 5 -10.898438 4.976562 -11.257812 4.9375 -11.5625 C 4.90625 -11.863281 4.851562 -12.09375 4.78125 -12.25 C 4.726562 -12.394531 4.644531 -12.503906 4.53125 -12.578125 C 4.425781 -12.648438 4.28125 -12.6875 4.09375 -12.6875 L 3.53125 -12.6875 Z M 3.53125 -7.796875 "/></g></g></g><g fill="#fefce6" fill-opacity="1"><g transform="translate(200.039325, 194.793532)"><g><path d="M 0.890625 0 L 0.890625 -14.796875 L 4.4375 -14.796875 C 4.738281 -14.796875 5.015625 -14.769531 5.265625 -14.71875 C 5.515625 -14.675781 5.742188 -14.609375 5.953125 -14.515625 C 6.171875 -14.429688 6.363281 -14.316406 6.53125 -14.171875 C 6.695312 -14.023438 6.835938 -13.859375 6.953125 -13.671875 C 7.171875 -13.304688 7.335938 -12.859375 7.453125 -12.328125 C 7.566406 -11.796875 7.628906 -11.179688 7.640625 -10.484375 L 7.640625 -10.171875 C 7.640625 -9.679688 7.613281 -9.226562 7.5625 -8.8125 C 7.519531 -8.40625 7.453125 -8.03125 7.359375 -7.6875 C 7.265625 -7.34375 7.140625 -7.039062 6.984375 -6.78125 C 6.835938 -6.507812 6.644531 -6.28125 6.40625 -6.09375 C 6.164062 -5.90625 5.890625 -5.765625 5.578125 -5.671875 C 5.265625 -5.585938 4.910156 -5.546875 4.515625 -5.546875 L 3.53125 -5.546875 L 3.53125 0.203125 L 0.890625 0.203125 Z M 3.53125 -7.796875 L 4.078125 -7.796875 C 4.453125 -7.796875 4.691406 -7.929688 4.796875 -8.203125 C 4.929688 -8.546875 5 -9.210938 5 -10.203125 L 5 -10.484375 C 5 -10.898438 4.976562 -11.257812 4.9375 -11.5625 C 4.90625 -11.863281 4.851562 -12.09375 4.78125 -12.25 C 4.726562 -12.394531 4.644531 -12.503906 4.53125 -12.578125 C 4.425781 -12.648438 4.28125 -12.6875 4.09375 -12.6875 L 3.53125 -12.6875 Z M 3.53125 -7.796875 "/></g></g></g><g fill="#fefce6" fill-opacity="1"><g transform="translate(208.923016, 194.793532)"><g><path d="M 0.890625 0 L 0.890625 -14.796875 L 6.1875 -14.796875 L 6.1875 -12.46875 L 3.53125 -12.46875 L 3.53125 -8.640625 L 6.0625 -8.640625 L 6.0625 -6.359375 L 3.53125 -6.359375 L 3.53125 -2.125 L 6.296875 -2.125 L 6.296875 0.203125 L 0.890625 0.203125 Z M 0.890625 0 "/></g></g></g><g fill="#fefce6" fill-opacity="1"><g transform="translate(216.744954, 194.793532)"><g><path d="M 6.84375 -0.65625 C 6.289062 0.03125 5.421875 0.375 4.234375 0.375 C 3.046875 0.375 2.171875 0.03125 1.609375 -0.65625 C 1.066406 -1.332031 0.796875 -2.363281 0.796875 -3.75 L 0.796875 -14.8125 L 3.4375 -14.8125 L 3.4375 -3.796875 C 3.4375 -3.046875 3.46875 -2.601562 3.53125 -2.46875 C 3.5625 -2.394531 3.597656 -2.320312 3.640625 -2.25 C 3.679688 -2.1875 3.722656 -2.125 3.765625 -2.0625 C 3.828125 -1.976562 3.984375 -1.9375 4.234375 -1.9375 C 4.484375 -1.9375 4.660156 -2.003906 4.765625 -2.140625 C 4.878906 -2.296875 4.945312 -2.492188 4.96875 -2.734375 C 4.988281 -2.867188 5 -3.023438 5 -3.203125 C 5.007812 -3.378906 5.015625 -3.578125 5.015625 -3.796875 L 5.015625 -14.8125 L 7.65625 -14.8125 L 7.65625 -3.75 C 7.65625 -2.351562 7.382812 -1.320312 6.84375 -0.65625 Z M 6.84375 -0.65625 "/></g></g></g><g fill="#fefce6" fill-opacity="1"><g transform="translate(226.259061, 194.793532)"><g><path d="M 4.015625 -6.65625 L 3.53125 -6.671875 L 3.53125 0.203125 L 0.890625 0.203125 L 0.890625 -14.796875 L 4.765625 -14.796875 C 5.035156 -14.796875 5.28125 -14.78125 5.5 -14.75 C 5.71875 -14.71875 5.921875 -14.660156 6.109375 -14.578125 C 6.296875 -14.503906 6.460938 -14.410156 6.609375 -14.296875 C 6.691406 -14.234375 6.769531 -14.160156 6.84375 -14.078125 C 6.914062 -13.992188 6.976562 -13.90625 7.03125 -13.8125 C 7.09375 -13.726562 7.144531 -13.632812 7.1875 -13.53125 C 7.238281 -13.4375 7.28125 -13.332031 7.3125 -13.21875 C 7.351562 -13.113281 7.390625 -13.003906 7.421875 -12.890625 C 7.484375 -12.609375 7.53125 -12.285156 7.5625 -11.921875 C 7.59375 -11.554688 7.609375 -11.148438 7.609375 -10.703125 C 7.609375 -9.785156 7.507812 -9.082031 7.3125 -8.59375 C 7.164062 -8.226562 6.929688 -7.945312 6.609375 -7.75 C 6.929688 -7.550781 7.171875 -7.226562 7.328125 -6.78125 C 7.429688 -6.457031 7.503906 -5.984375 7.546875 -5.359375 C 7.597656 -4.742188 7.625 -3.960938 7.625 -3.015625 C 7.625 -2.585938 7.625 -2.191406 7.625 -1.828125 C 7.632812 -1.460938 7.640625 -1.160156 7.640625 -0.921875 C 7.648438 -0.679688 7.660156 -0.488281 7.671875 -0.34375 C 7.679688 -0.195312 7.691406 -0.109375 7.703125 -0.078125 L 7.8125 0.203125 L 5.15625 0.203125 L 5.09375 0.09375 C 5.050781 -0.0078125 5.023438 -0.335938 5.015625 -0.890625 C 5.003906 -1.441406 5 -2.453125 5 -3.921875 C 5 -4.484375 5 -4.921875 5 -5.234375 C 5 -5.535156 4.976562 -5.785156 4.9375 -5.984375 C 4.90625 -6.179688 4.859375 -6.320312 4.796875 -6.40625 C 4.679688 -6.5625 4.421875 -6.644531 4.015625 -6.65625 Z M 3.53125 -8.828125 L 4.21875 -8.828125 C 4.257812 -8.828125 4.300781 -8.828125 4.34375 -8.828125 C 4.394531 -8.835938 4.4375 -8.84375 4.46875 -8.84375 C 4.5 -8.851562 4.53125 -8.863281 4.5625 -8.875 C 4.59375 -8.894531 4.617188 -8.910156 4.640625 -8.921875 C 4.660156 -8.929688 4.675781 -8.941406 4.6875 -8.953125 C 4.789062 -9.046875 4.867188 -9.226562 4.921875 -9.5 C 4.941406 -9.644531 4.957031 -9.832031 4.96875 -10.0625 C 4.988281 -10.300781 5 -10.570312 5 -10.875 L 5 -10.96875 C 5 -11.726562 4.9375 -12.210938 4.8125 -12.421875 C 4.71875 -12.597656 4.472656 -12.6875 4.078125 -12.6875 L 3.53125 -12.6875 Z M 3.53125 -8.828125 "/></g></g></g><path stroke-linecap="round" transform="matrix(0.749582, 0, 0, 0.75, 134.968325, 173.36678)" fill="none" stroke-linejoin="miter" d="M 1.001125 1.000544 L 139.08335 1.000544 " stroke="#fefce6" stroke-width="2" stroke-opacity="1" stroke-miterlimit="4"/><path stroke-linecap="round" transform="matrix(0.749582, 0, 0, 0.75, 134.968325, 200.133196)" fill="none" stroke-linejoin="miter" d="M 1.001125 0.999489 L 139.08335 0.999489 " stroke="#fefce6" stroke-width="2" stroke-opacity="1" stroke-miterlimit="4"/></svg>