<svg xmlns="http://www.w3.org/2000/svg" xmlns:xlink="http://www.w3.org/1999/xlink" width="500" zoomAndPan="magnify" viewBox="0 0 375 374.999991" height="500" preserveAspectRatio="xMidYMid meet" version="1.0"><defs><g/></defs><rect x="-37.5" width="450" fill="#ffffff" y="-37.499999" height="449.999989" fill-opacity="1"/><rect x="-37.5" width="450" fill="#e4e2dd" y="-37.499999" height="449.999989" fill-opacity="1"/><g fill="#292929" fill-opacity="1"><g transform="translate(132.1379, 203.933972)"><g><path d="M 34.890625 0 L 28.21875 0 L 28.21875 -20.84375 C 28.21875 -22.144531 28.15625 -23.59375 28.03125 -25.1875 C 27.914062 -26.78125 27.617188 -28.273438 27.140625 -29.671875 C 26.660156 -31.066406 25.925781 -32.234375 24.9375 -33.171875 C 23.945312 -34.117188 22.582031 -34.59375 20.84375 -34.59375 C 19.101562 -34.59375 17.59375 -34.335938 16.3125 -33.828125 C 15.039062 -33.328125 14.019531 -32.738281 13.25 -32.0625 C 12.476562 -31.382812 11.96875 -30.707031 11.71875 -30.03125 C 11.476562 -29.351562 11.53125 -28.820312 11.875 -28.4375 C 12.0625 -28.195312 12.382812 -28.015625 12.84375 -27.890625 C 13.300781 -27.773438 13.816406 -27.671875 14.390625 -27.578125 C 14.972656 -27.484375 15.585938 -27.382812 16.234375 -27.28125 C 16.890625 -27.1875 17.507812 -27.019531 18.09375 -26.78125 C 19.6875 -26.15625 20.953125 -25.15625 21.890625 -23.78125 C 22.835938 -22.40625 23.503906 -20.867188 23.890625 -19.171875 C 24.273438 -17.484375 24.414062 -15.75 24.3125 -13.96875 C 24.21875 -12.1875 23.882812 -10.617188 23.3125 -9.265625 C 22.195312 -6.460938 20.550781 -4.144531 18.375 -2.3125 C 16.207031 -0.476562 13.847656 0.390625 11.296875 0.296875 C 8.878906 0.191406 6.921875 -0.472656 5.421875 -1.703125 C 3.929688 -2.929688 2.90625 -4.445312 2.34375 -6.25 C 1.789062 -8.0625 1.734375 -10.015625 2.171875 -12.109375 C 2.609375 -14.210938 3.535156 -16.171875 4.953125 -17.984375 C 6.378906 -19.796875 8.332031 -21.328125 10.8125 -22.578125 C 13.300781 -23.835938 16.332031 -24.539062 19.90625 -24.6875 C 20 -24.726562 20.164062 -24.75 20.40625 -24.75 C 19.6875 -25.375 18.84375 -25.878906 17.875 -26.265625 C 17.007812 -26.609375 16.066406 -26.828125 15.046875 -26.921875 C 14.035156 -27.015625 13.082031 -27.035156 12.1875 -26.984375 C 11.300781 -26.941406 10.503906 -26.875 9.796875 -26.78125 C 9.097656 -26.6875 8.65625 -26.613281 8.46875 -26.5625 C 8.320312 -27.28125 8.523438 -28.132812 9.078125 -29.125 C 9.640625 -30.113281 10.460938 -31.054688 11.546875 -31.953125 C 12.628906 -32.847656 13.953125 -33.597656 15.515625 -34.203125 C 17.085938 -34.804688 18.863281 -35.109375 20.84375 -35.109375 C 23.15625 -35.109375 25.109375 -34.742188 26.703125 -34.015625 C 28.296875 -33.296875 29.570312 -32.304688 30.53125 -31.046875 C 31.5 -29.796875 32.1875 -28.289062 32.59375 -26.53125 C 33.007812 -24.769531 33.21875 -22.875 33.21875 -20.84375 L 33.21875 -6.21875 C 33.21875 -5.019531 33.273438 -4.054688 33.390625 -3.328125 C 33.515625 -2.609375 33.671875 -2.039062 33.859375 -1.625 C 34.054688 -1.21875 34.25 -0.953125 34.4375 -0.828125 C 34.632812 -0.710938 34.785156 -0.65625 34.890625 -0.65625 Z M 20.921875 -24.171875 C 18.984375 -24.171875 17.15625 -23.925781 15.4375 -23.4375 C 13.726562 -22.957031 12.234375 -22.210938 10.953125 -21.203125 C 9.679688 -20.191406 8.671875 -18.910156 7.921875 -17.359375 C 7.171875 -15.816406 6.796875 -14.007812 6.796875 -11.9375 C 6.796875 -10.925781 6.90625 -9.910156 7.125 -8.890625 C 7.34375 -7.878906 7.703125 -6.941406 8.203125 -6.078125 C 8.710938 -5.210938 9.351562 -4.460938 10.125 -3.828125 C 10.90625 -3.203125 11.847656 -2.796875 12.953125 -2.609375 C 14.109375 -2.367188 15.191406 -2.414062 16.203125 -2.75 C 17.222656 -3.082031 18.164062 -3.578125 19.03125 -4.234375 C 19.90625 -4.890625 20.664062 -5.675781 21.3125 -6.59375 C 21.96875 -7.507812 22.488281 -8.445312 22.875 -9.40625 C 23.300781 -10.5625 23.597656 -11.800781 23.765625 -13.125 C 23.941406 -14.457031 23.957031 -15.785156 23.8125 -17.109375 C 23.664062 -18.441406 23.347656 -19.707031 22.859375 -20.90625 C 22.378906 -22.113281 21.734375 -23.203125 20.921875 -24.171875 Z M 20.921875 -24.171875 "/></g></g></g><g fill="#292929" fill-opacity="1"><g transform="translate(167.595539, 203.933972)"><g><path d="M 1.8125 -34.890625 L 8.46875 -34.890625 L 8.46875 -16.140625 C 8.757812 -18.359375 9.15625 -20.359375 9.65625 -22.140625 C 10.164062 -23.929688 10.734375 -25.523438 11.359375 -26.921875 C 11.847656 -27.929688 12.40625 -28.921875 13.03125 -29.890625 C 13.65625 -30.859375 14.390625 -31.738281 15.234375 -32.53125 C 16.078125 -33.332031 16.992188 -33.972656 17.984375 -34.453125 C 18.972656 -34.929688 20.070312 -35.171875 21.28125 -35.171875 C 23.257812 -35.171875 24.863281 -34.757812 26.09375 -33.9375 C 27.320312 -33.125 28.285156 -32.066406 28.984375 -30.765625 C 29.679688 -29.460938 30.160156 -27.988281 30.421875 -26.34375 C 30.691406 -24.707031 30.828125 -23.066406 30.828125 -21.421875 L 30.828125 -6.21875 C 30.828125 -5.019531 30.882812 -4.054688 31 -3.328125 C 31.125 -2.609375 31.28125 -2.039062 31.46875 -1.625 C 31.664062 -1.21875 31.863281 -0.953125 32.0625 -0.828125 C 32.257812 -0.710938 32.40625 -0.65625 32.5 -0.65625 L 32.5 0 L 24.09375 0 L 24.09375 -0.65625 C 24.195312 -0.65625 24.34375 -0.710938 24.53125 -0.828125 C 24.726562 -0.953125 24.910156 -1.21875 25.078125 -1.625 C 25.242188 -2.039062 25.398438 -2.609375 25.546875 -3.328125 C 25.691406 -4.054688 25.765625 -5.019531 25.765625 -6.21875 L 25.765625 -21.421875 C 25.765625 -22.285156 25.710938 -23.332031 25.609375 -24.5625 C 25.515625 -25.800781 25.3125 -27.007812 25 -28.1875 C 24.6875 -29.375 24.226562 -30.445312 23.625 -31.40625 C 23.019531 -32.375 22.210938 -33.023438 21.203125 -33.359375 C 20.191406 -33.703125 19.203125 -33.691406 18.234375 -33.328125 C 17.273438 -32.960938 16.394531 -32.414062 15.59375 -31.6875 C 14.800781 -30.96875 14.085938 -30.148438 13.453125 -29.234375 C 12.828125 -28.316406 12.320312 -27.453125 11.9375 -26.640625 C 10.875 -24.316406 10.03125 -21.476562 9.40625 -18.125 C 8.78125 -14.769531 8.46875 -10.800781 8.46875 -6.21875 C 8.46875 -5.019531 8.523438 -4.054688 8.640625 -3.328125 C 8.765625 -2.609375 8.921875 -2.039062 9.109375 -1.625 C 9.304688 -1.21875 9.5 -0.953125 9.6875 -0.828125 C 9.882812 -0.710938 10.03125 -0.65625 10.125 -0.65625 L 10.125 0 L 1.8125 0 L 1.8125 -0.65625 C 1.90625 -0.65625 2.046875 -0.710938 2.234375 -0.828125 C 2.429688 -0.953125 2.613281 -1.21875 2.78125 -1.625 C 2.957031 -2.039062 3.113281 -2.609375 3.25 -3.328125 C 3.394531 -4.054688 3.46875 -5.019531 3.46875 -6.21875 L 3.46875 -28.65625 C 3.46875 -29.8125 3.394531 -30.765625 3.25 -31.515625 C 3.113281 -32.265625 2.957031 -32.832031 2.78125 -33.21875 C 2.613281 -33.601562 2.429688 -33.867188 2.234375 -34.015625 C 2.046875 -34.160156 1.90625 -34.234375 1.8125 -34.234375 Z M 1.8125 -34.890625 "/></g></g></g><g fill="#292929" fill-opacity="1"><g transform="translate(200.665206, 203.933972)"><g><path d="M 1.8125 -32.28125 L 8.609375 -34.890625 L 8.609375 -6.21875 C 8.609375 -5.019531 8.664062 -4.054688 8.78125 -3.328125 C 8.90625 -2.609375 9.0625 -2.039062 9.25 -1.625 C 9.445312 -1.21875 9.640625 -0.953125 9.828125 -0.828125 C 10.023438 -0.710938 10.175781 -0.65625 10.28125 -0.65625 L 10.28125 0 L 1.875 0 L 1.875 -0.65625 C 2.019531 -0.65625 2.1875 -0.710938 2.375 -0.828125 C 2.570312 -0.953125 2.753906 -1.21875 2.921875 -1.625 C 3.097656 -2.039062 3.257812 -2.609375 3.40625 -3.328125 C 3.550781 -4.054688 3.625 -5.019531 3.625 -6.21875 L 3.625 -28.59375 C 3.425781 -29.894531 3.15625 -30.738281 2.8125 -31.125 C 2.476562 -31.507812 2.21875 -31.703125 2.03125 -31.703125 Z M 5.578125 -40.75 C 4.609375 -40.75 3.796875 -41.070312 3.140625 -41.71875 C 2.492188 -42.375 2.171875 -43.1875 2.171875 -44.15625 C 2.171875 -45.113281 2.492188 -45.914062 3.140625 -46.5625 C 3.796875 -47.21875 4.609375 -47.546875 5.578125 -47.546875 C 6.535156 -47.546875 7.335938 -47.21875 7.984375 -46.5625 C 8.640625 -45.914062 8.96875 -45.113281 8.96875 -44.15625 C 8.96875 -43.1875 8.640625 -42.375 7.984375 -41.71875 C 7.335938 -41.070312 6.535156 -40.75 5.578125 -40.75 Z M 5.578125 -40.75 "/></g></g></g><g fill="#292929" fill-opacity="1"><g transform="translate(211.51936, 203.933972)"><g><path d="M 10.28125 0 L 1.875 0 L 1.875 -0.65625 C 1.976562 -0.65625 2.125 -0.710938 2.3125 -0.828125 C 2.507812 -0.953125 2.691406 -1.21875 2.859375 -1.625 C 3.023438 -2.039062 3.179688 -2.609375 3.328125 -3.328125 C 3.472656 -4.054688 3.546875 -5.019531 3.546875 -6.21875 L 3.546875 -46.03125 C 3.347656 -47.28125 3.09375 -48.097656 2.78125 -48.484375 C 2.46875 -48.867188 2.21875 -49.0625 2.03125 -49.0625 L 1.8125 -49.71875 L 8.609375 -52.25 L 8.609375 -6.21875 C 8.609375 -5.019531 8.664062 -4.054688 8.78125 -3.328125 C 8.90625 -2.609375 9.0625 -2.039062 9.25 -1.625 C 9.445312 -1.21875 9.640625 -0.953125 9.828125 -0.828125 C 10.023438 -0.710938 10.175781 -0.65625 10.28125 -0.65625 Z M 10.28125 0 "/></g></g></g><g fill="#292929" fill-opacity="1"><g transform="translate(222.373515, 203.933972)"><g><path d="M 10.28125 0 L 1.875 0 L 1.875 -0.65625 C 1.976562 -0.65625 2.125 -0.710938 2.3125 -0.828125 C 2.507812 -0.953125 2.691406 -1.21875 2.859375 -1.625 C 3.023438 -2.039062 3.179688 -2.609375 3.328125 -3.328125 C 3.472656 -4.054688 3.546875 -5.019531 3.546875 -6.21875 L 3.546875 -46.03125 C 3.347656 -47.28125 3.09375 -48.097656 2.78125 -48.484375 C 2.46875 -48.867188 2.21875 -49.0625 2.03125 -49.0625 L 1.8125 -49.71875 L 8.609375 -52.25 L 8.609375 -6.21875 C 8.609375 -5.019531 8.664062 -4.054688 8.78125 -3.328125 C 8.90625 -2.609375 9.0625 -2.039062 9.25 -1.625 C 9.445312 -1.21875 9.640625 -0.953125 9.828125 -0.828125 C 10.023438 -0.710938 10.175781 -0.65625 10.28125 -0.65625 Z M 10.28125 0 "/></g></g></g><g fill="#292929" fill-opacity="1"><g transform="translate(233.227669, 203.933972)"><g><path d="M 34.890625 0 L 28.21875 0 L 28.21875 -20.84375 C 28.21875 -22.144531 28.15625 -23.59375 28.03125 -25.1875 C 27.914062 -26.78125 27.617188 -28.273438 27.140625 -29.671875 C 26.660156 -31.066406 25.925781 -32.234375 24.9375 -33.171875 C 23.945312 -34.117188 22.582031 -34.59375 20.84375 -34.59375 C 19.101562 -34.59375 17.59375 -34.335938 16.3125 -33.828125 C 15.039062 -33.328125 14.019531 -32.738281 13.25 -32.0625 C 12.476562 -31.382812 11.96875 -30.707031 11.71875 -30.03125 C 11.476562 -29.351562 11.53125 -28.820312 11.875 -28.4375 C 12.0625 -28.195312 12.382812 -28.015625 12.84375 -27.890625 C 13.300781 -27.773438 13.816406 -27.671875 14.390625 -27.578125 C 14.972656 -27.484375 15.585938 -27.382812 16.234375 -27.28125 C 16.890625 -27.1875 17.507812 -27.019531 18.09375 -26.78125 C 19.6875 -26.15625 20.953125 -25.15625 21.890625 -23.78125 C 22.835938 -22.40625 23.503906 -20.867188 23.890625 -19.171875 C 24.273438 -17.484375 24.414062 -15.75 24.3125 -13.96875 C 24.21875 -12.1875 23.882812 -10.617188 23.3125 -9.265625 C 22.195312 -6.460938 20.550781 -4.144531 18.375 -2.3125 C 16.207031 -0.476562 13.847656 0.390625 11.296875 0.296875 C 8.878906 0.191406 6.921875 -0.472656 5.421875 -1.703125 C 3.929688 -2.929688 2.90625 -4.445312 2.34375 -6.25 C 1.789062 -8.0625 1.734375 -10.015625 2.171875 -12.109375 C 2.609375 -14.210938 3.535156 -16.171875 4.953125 -17.984375 C 6.378906 -19.796875 8.332031 -21.328125 10.8125 -22.578125 C 13.300781 -23.835938 16.332031 -24.539062 19.90625 -24.6875 C 20 -24.726562 20.164062 -24.75 20.40625 -24.75 C 19.6875 -25.375 18.84375 -25.878906 17.875 -26.265625 C 17.007812 -26.609375 16.066406 -26.828125 15.046875 -26.921875 C 14.035156 -27.015625 13.082031 -27.035156 12.1875 -26.984375 C 11.300781 -26.941406 10.503906 -26.875 9.796875 -26.78125 C 9.097656 -26.6875 8.65625 -26.613281 8.46875 -26.5625 C 8.320312 -27.28125 8.523438 -28.132812 9.078125 -29.125 C 9.640625 -30.113281 10.460938 -31.054688 11.546875 -31.953125 C 12.628906 -32.847656 13.953125 -33.597656 15.515625 -34.203125 C 17.085938 -34.804688 18.863281 -35.109375 20.84375 -35.109375 C 23.15625 -35.109375 25.109375 -34.742188 26.703125 -34.015625 C 28.296875 -33.296875 29.570312 -32.304688 30.53125 -31.046875 C 31.5 -29.796875 32.1875 -28.289062 32.59375 -26.53125 C 33.007812 -24.769531 33.21875 -22.875 33.21875 -20.84375 L 33.21875 -6.21875 C 33.21875 -5.019531 33.273438 -4.054688 33.390625 -3.328125 C 33.515625 -2.609375 33.671875 -2.039062 33.859375 -1.625 C 34.054688 -1.21875 34.25 -0.953125 34.4375 -0.828125 C 34.632812 -0.710938 34.785156 -0.65625 34.890625 -0.65625 Z M 20.921875 -24.171875 C 18.984375 -24.171875 17.15625 -23.925781 15.4375 -23.4375 C 13.726562 -22.957031 12.234375 -22.210938 10.953125 -21.203125 C 9.679688 -20.191406 8.671875 -18.910156 7.921875 -17.359375 C 7.171875 -15.816406 6.796875 -14.007812 6.796875 -11.9375 C 6.796875 -10.925781 6.90625 -9.910156 7.125 -8.890625 C 7.34375 -7.878906 7.703125 -6.941406 8.203125 -6.078125 C 8.710938 -5.210938 9.351562 -4.460938 10.125 -3.828125 C 10.90625 -3.203125 11.847656 -2.796875 12.953125 -2.609375 C 14.109375 -2.367188 15.191406 -2.414062 16.203125 -2.75 C 17.222656 -3.082031 18.164062 -3.578125 19.03125 -4.234375 C 19.90625 -4.890625 20.664062 -5.675781 21.3125 -6.59375 C 21.96875 -7.507812 22.488281 -8.445312 22.875 -9.40625 C 23.300781 -10.5625 23.597656 -11.800781 23.765625 -13.125 C 23.941406 -14.457031 23.957031 -15.785156 23.8125 -17.109375 C 23.664062 -18.441406 23.347656 -19.707031 22.859375 -20.90625 C 22.378906 -22.113281 21.734375 -23.203125 20.921875 -24.171875 Z M 20.921875 -24.171875 "/></g></g></g><g fill="#292929" fill-opacity="1"><g transform="translate(105.053213, 203.973932)"><g><path d="M 11.078125 -28.65625 L 20.1875 -6.59375 L 28.59375 -26.703125 C 29.550781 -29.023438 30.066406 -30.859375 30.140625 -32.203125 C 30.210938 -33.554688 29.769531 -34.234375 28.8125 -34.234375 L 28.8125 -34.890625 L 34.890625 -34.890625 L 34.890625 -34.234375 C 34.597656 -34.234375 34.257812 -34.113281 33.875 -33.875 C 33.488281 -33.632812 33.050781 -33.210938 32.5625 -32.609375 C 32.082031 -32.003906 31.539062 -31.15625 30.9375 -30.0625 C 30.332031 -28.976562 29.671875 -27.617188 28.953125 -25.984375 L 20.546875 -5.71875 L 22.9375 0 L 17.515625 0 L 5.796875 -28.375 C 5.160156 -29.820312 4.476562 -31.160156 3.75 -32.390625 C 3.03125 -33.617188 2.382812 -34.234375 1.8125 -34.234375 L 1.8125 -34.890625 L 10.203125 -34.890625 L 10.203125 -34.234375 C 9.816406 -34.234375 9.644531 -33.832031 9.6875 -33.03125 C 9.738281 -32.238281 10.203125 -30.78125 11.078125 -28.65625 Z M 11.078125 -28.65625 "/></g></g></g><g fill="#292929" fill-opacity="1"><g transform="translate(151.972868, 217.879313)"><g><path d="M 2.078125 0.078125 C 1.742188 0.078125 1.4375 0 1.15625 -0.15625 C 0.882812 -0.3125 0.664062 -0.523438 0.5 -0.796875 C 0.445312 -0.878906 0.421875 -0.957031 0.421875 -1.03125 C 0.421875 -1.132812 0.460938 -1.222656 0.546875 -1.296875 C 0.628906 -1.367188 0.71875 -1.40625 0.8125 -1.40625 C 0.9375 -1.40625 1.0625 -1.335938 1.1875 -1.203125 C 1.40625 -0.878906 1.703125 -0.71875 2.078125 -0.71875 C 2.378906 -0.71875 2.632812 -0.816406 2.84375 -1.015625 C 3.0625 -1.222656 3.171875 -1.476562 3.171875 -1.78125 L 3.171875 -5.46875 C 3.171875 -5.582031 3.210938 -5.675781 3.296875 -5.75 C 3.378906 -5.832031 3.476562 -5.875 3.59375 -5.875 C 3.71875 -5.875 3.816406 -5.832031 3.890625 -5.75 C 3.960938 -5.675781 4 -5.582031 4 -5.46875 L 4 -1.78125 C 4 -1.445312 3.914062 -1.132812 3.75 -0.84375 C 3.582031 -0.5625 3.351562 -0.335938 3.0625 -0.171875 C 2.769531 -0.00390625 2.441406 0.078125 2.078125 0.078125 Z M 2.078125 0.078125 "/></g></g></g><g fill="#292929" fill-opacity="1"><g transform="translate(159.067856, 217.879313)"><g><path d="M 5.203125 -0.515625 C 5.222656 -0.460938 5.234375 -0.410156 5.234375 -0.359375 C 5.234375 -0.242188 5.195312 -0.148438 5.125 -0.078125 C 5.050781 -0.00390625 4.960938 0.03125 4.859375 0.03125 C 4.773438 0.03125 4.703125 0.00390625 4.640625 -0.046875 C 4.578125 -0.0976562 4.523438 -0.164062 4.484375 -0.25 L 3.96875 -1.484375 L 1.375 -1.484375 L 0.859375 -0.234375 C 0.835938 -0.148438 0.789062 -0.0820312 0.71875 -0.03125 C 0.65625 0.0078125 0.585938 0.03125 0.515625 0.03125 C 0.390625 0.03125 0.296875 0 0.234375 -0.0625 C 0.179688 -0.125 0.15625 -0.207031 0.15625 -0.3125 C 0.15625 -0.34375 0.160156 -0.390625 0.171875 -0.453125 L 2.3125 -5.640625 C 2.34375 -5.722656 2.394531 -5.789062 2.46875 -5.84375 C 2.539062 -5.894531 2.617188 -5.914062 2.703125 -5.90625 C 2.796875 -5.90625 2.875 -5.878906 2.9375 -5.828125 C 3 -5.785156 3.046875 -5.722656 3.078125 -5.640625 Z M 1.6875 -2.234375 L 3.65625 -2.234375 L 2.671875 -4.59375 Z M 1.6875 -2.234375 "/></g></g></g><g fill="#292929" fill-opacity="1"><g transform="translate(166.850305, 217.879313)"><g><path d="M 4.96875 -5.875 C 5.082031 -5.875 5.175781 -5.835938 5.25 -5.765625 C 5.332031 -5.691406 5.375 -5.601562 5.375 -5.5 C 5.375 -5.445312 5.363281 -5.382812 5.34375 -5.3125 L 3.203125 -0.265625 C 3.160156 -0.179688 3.101562 -0.113281 3.03125 -0.0625 C 2.957031 -0.0195312 2.878906 0 2.796875 0 C 2.722656 -0.0078125 2.65625 -0.0351562 2.59375 -0.078125 C 2.53125 -0.117188 2.476562 -0.175781 2.4375 -0.25 L 0.296875 -5.3125 C 0.273438 -5.363281 0.265625 -5.425781 0.265625 -5.5 C 0.265625 -5.613281 0.304688 -5.707031 0.390625 -5.78125 C 0.472656 -5.851562 0.566406 -5.890625 0.671875 -5.890625 C 0.835938 -5.890625 0.960938 -5.800781 1.046875 -5.625 L 2.875 -1.296875 L 4.59375 -5.625 C 4.632812 -5.707031 4.6875 -5.769531 4.75 -5.8125 C 4.8125 -5.851562 4.882812 -5.875 4.96875 -5.875 Z M 4.96875 -5.875 "/></g></g></g><g fill="#292929" fill-opacity="1"><g transform="translate(174.884266, 217.879313)"><g><path d="M 5.203125 -0.515625 C 5.222656 -0.460938 5.234375 -0.410156 5.234375 -0.359375 C 5.234375 -0.242188 5.195312 -0.148438 5.125 -0.078125 C 5.050781 -0.00390625 4.960938 0.03125 4.859375 0.03125 C 4.773438 0.03125 4.703125 0.00390625 4.640625 -0.046875 C 4.578125 -0.0976562 4.523438 -0.164062 4.484375 -0.25 L 3.96875 -1.484375 L 1.375 -1.484375 L 0.859375 -0.234375 C 0.835938 -0.148438 0.789062 -0.0820312 0.71875 -0.03125 C 0.65625 0.0078125 0.585938 0.03125 0.515625 0.03125 C 0.390625 0.03125 0.296875 0 0.234375 -0.0625 C 0.179688 -0.125 0.15625 -0.207031 0.15625 -0.3125 C 0.15625 -0.34375 0.160156 -0.390625 0.171875 -0.453125 L 2.3125 -5.640625 C 2.34375 -5.722656 2.394531 -5.789062 2.46875 -5.84375 C 2.539062 -5.894531 2.617188 -5.914062 2.703125 -5.90625 C 2.796875 -5.90625 2.875 -5.878906 2.9375 -5.828125 C 3 -5.785156 3.046875 -5.722656 3.078125 -5.640625 Z M 1.6875 -2.234375 L 3.65625 -2.234375 L 2.671875 -4.59375 Z M 1.6875 -2.234375 "/></g></g></g><g fill="#292929" fill-opacity="1"><g transform="translate(182.666715, 217.879313)"><g><path d="M 2.46875 0.078125 C 2.0625 0.078125 1.703125 0.0195312 1.390625 -0.09375 C 1.078125 -0.207031 0.78125 -0.390625 0.5 -0.640625 C 0.375 -0.742188 0.3125 -0.859375 0.3125 -0.984375 C 0.3125 -1.085938 0.347656 -1.179688 0.421875 -1.265625 C 0.503906 -1.347656 0.601562 -1.390625 0.71875 -1.390625 C 0.8125 -1.390625 0.890625 -1.359375 0.953125 -1.296875 C 1.179688 -1.085938 1.410156 -0.929688 1.640625 -0.828125 C 1.878906 -0.734375 2.148438 -0.6875 2.453125 -0.6875 C 2.804688 -0.6875 3.101562 -0.765625 3.34375 -0.921875 C 3.59375 -1.085938 3.71875 -1.296875 3.71875 -1.546875 C 3.707031 -1.835938 3.582031 -2.0625 3.34375 -2.21875 C 3.113281 -2.375 2.753906 -2.507812 2.265625 -2.625 C 1.691406 -2.738281 1.25 -2.925781 0.9375 -3.1875 C 0.625 -3.457031 0.46875 -3.832031 0.46875 -4.3125 C 0.46875 -4.644531 0.550781 -4.929688 0.71875 -5.171875 C 0.894531 -5.421875 1.132812 -5.613281 1.4375 -5.75 C 1.75 -5.882812 2.097656 -5.953125 2.484375 -5.953125 C 2.835938 -5.953125 3.164062 -5.894531 3.46875 -5.78125 C 3.78125 -5.675781 4.03125 -5.53125 4.21875 -5.34375 C 4.34375 -5.226562 4.40625 -5.109375 4.40625 -4.984375 C 4.40625 -4.878906 4.367188 -4.785156 4.296875 -4.703125 C 4.222656 -4.628906 4.132812 -4.59375 4.03125 -4.59375 C 3.945312 -4.59375 3.878906 -4.617188 3.828125 -4.671875 C 3.679688 -4.816406 3.476562 -4.9375 3.21875 -5.03125 C 2.96875 -5.132812 2.722656 -5.1875 2.484375 -5.1875 C 2.117188 -5.1875 1.820312 -5.109375 1.59375 -4.953125 C 1.375 -4.796875 1.265625 -4.59375 1.265625 -4.34375 C 1.265625 -4.070312 1.375 -3.863281 1.59375 -3.71875 C 1.820312 -3.570312 2.148438 -3.445312 2.578125 -3.34375 C 3.015625 -3.25 3.367188 -3.132812 3.640625 -3 C 3.921875 -2.875 4.132812 -2.695312 4.28125 -2.46875 C 4.4375 -2.238281 4.515625 -1.941406 4.515625 -1.578125 C 4.515625 -1.253906 4.425781 -0.960938 4.25 -0.703125 C 4.070312 -0.453125 3.820312 -0.257812 3.5 -0.125 C 3.1875 0.0078125 2.84375 0.078125 2.46875 0.078125 Z M 2.46875 0.078125 "/></g></g></g><g fill="#292929" fill-opacity="1"><g transform="translate(189.946148, 217.879313)"><g><path d="M 4.890625 -5.53125 C 5.015625 -5.457031 5.078125 -5.34375 5.078125 -5.1875 C 5.078125 -5.09375 5.046875 -5.003906 4.984375 -4.921875 C 4.921875 -4.828125 4.828125 -4.78125 4.703125 -4.78125 C 4.628906 -4.78125 4.554688 -4.800781 4.484375 -4.84375 C 4.128906 -5.039062 3.753906 -5.140625 3.359375 -5.140625 C 2.941406 -5.140625 2.570312 -5.046875 2.25 -4.859375 C 1.925781 -4.671875 1.671875 -4.410156 1.484375 -4.078125 C 1.304688 -3.742188 1.21875 -3.363281 1.21875 -2.9375 C 1.21875 -2.46875 1.3125 -2.066406 1.5 -1.734375 C 1.6875 -1.398438 1.941406 -1.144531 2.265625 -0.96875 C 2.585938 -0.789062 2.953125 -0.703125 3.359375 -0.703125 C 3.773438 -0.703125 4.148438 -0.800781 4.484375 -1 C 4.546875 -1.039062 4.617188 -1.0625 4.703125 -1.0625 C 4.828125 -1.0625 4.925781 -1.015625 5 -0.921875 C 5.0625 -0.828125 5.09375 -0.734375 5.09375 -0.640625 C 5.09375 -0.578125 5.070312 -0.515625 5.03125 -0.453125 C 5 -0.398438 4.953125 -0.351562 4.890625 -0.3125 C 4.671875 -0.195312 4.425781 -0.101562 4.15625 -0.03125 C 3.882812 0.0390625 3.617188 0.078125 3.359375 0.078125 C 2.816406 0.078125 2.316406 -0.0390625 1.859375 -0.28125 C 1.398438 -0.519531 1.035156 -0.867188 0.765625 -1.328125 C 0.492188 -1.785156 0.359375 -2.320312 0.359375 -2.9375 C 0.359375 -3.5 0.488281 -4.007812 0.75 -4.46875 C 1.007812 -4.925781 1.367188 -5.285156 1.828125 -5.546875 C 2.285156 -5.804688 2.796875 -5.9375 3.359375 -5.9375 C 3.898438 -5.9375 4.410156 -5.800781 4.890625 -5.53125 Z M 4.890625 -5.53125 "/></g></g></g><g fill="#292929" fill-opacity="1"><g transform="translate(197.69506, 217.879313)"><g><path d="M 5.171875 -0.671875 C 5.222656 -0.628906 5.265625 -0.578125 5.296875 -0.515625 C 5.335938 -0.460938 5.359375 -0.40625 5.359375 -0.34375 C 5.359375 -0.226562 5.316406 -0.140625 5.234375 -0.078125 C 5.160156 -0.0234375 5.070312 0 4.96875 0 C 4.863281 0 4.773438 -0.0195312 4.703125 -0.0625 C 4.535156 -0.15625 4.394531 -0.304688 4.28125 -0.515625 C 4.175781 -0.734375 4.125 -1.050781 4.125 -1.46875 C 4.125 -1.75 4.039062 -1.957031 3.875 -2.09375 C 3.707031 -2.226562 3.488281 -2.296875 3.21875 -2.296875 L 1.53125 -2.296875 L 1.53125 -0.40625 C 1.53125 -0.28125 1.492188 -0.179688 1.421875 -0.109375 C 1.359375 -0.0351562 1.273438 0 1.171875 0 C 1.035156 0 0.921875 -0.0351562 0.828125 -0.109375 C 0.742188 -0.191406 0.703125 -0.289062 0.703125 -0.40625 L 0.703125 -5.46875 C 0.703125 -5.582031 0.738281 -5.675781 0.8125 -5.75 C 0.894531 -5.832031 0.988281 -5.875 1.09375 -5.875 L 3.453125 -5.875 C 3.753906 -5.875 4.03125 -5.796875 4.28125 -5.640625 C 4.539062 -5.492188 4.742188 -5.289062 4.890625 -5.03125 C 5.046875 -4.769531 5.125 -4.476562 5.125 -4.15625 C 5.125 -3.84375 5.035156 -3.550781 4.859375 -3.28125 C 4.691406 -3.007812 4.476562 -2.804688 4.21875 -2.671875 C 4.425781 -2.566406 4.585938 -2.421875 4.703125 -2.234375 C 4.828125 -2.046875 4.894531 -1.820312 4.90625 -1.5625 C 4.925781 -1.25 4.953125 -1.035156 4.984375 -0.921875 C 5.015625 -0.804688 5.078125 -0.722656 5.171875 -0.671875 Z M 3.4375 -2.984375 C 3.582031 -2.992188 3.71875 -3.050781 3.84375 -3.15625 C 3.96875 -3.257812 4.066406 -3.394531 4.140625 -3.5625 C 4.222656 -3.726562 4.265625 -3.921875 4.265625 -4.140625 C 4.265625 -4.410156 4.179688 -4.632812 4.015625 -4.8125 C 3.847656 -5 3.648438 -5.09375 3.421875 -5.09375 L 1.53125 -5.09375 L 1.53125 -2.984375 Z M 3.4375 -2.984375 "/></g></g></g><g fill="#292929" fill-opacity="1"><g transform="translate(205.796087, 217.879313)"><g><path d="M 1.53125 -0.40625 C 1.53125 -0.289062 1.488281 -0.191406 1.40625 -0.109375 C 1.320312 -0.0351562 1.222656 0 1.109375 0 C 0.984375 0 0.882812 -0.0351562 0.8125 -0.109375 C 0.738281 -0.191406 0.703125 -0.289062 0.703125 -0.40625 L 0.703125 -5.46875 C 0.703125 -5.582031 0.738281 -5.675781 0.8125 -5.75 C 0.894531 -5.832031 0.992188 -5.875 1.109375 -5.875 C 1.222656 -5.875 1.320312 -5.832031 1.40625 -5.75 C 1.488281 -5.675781 1.53125 -5.582031 1.53125 -5.46875 Z M 1.53125 -0.40625 "/></g></g></g><g fill="#292929" fill-opacity="1"><g transform="translate(210.417904, 217.879313)"><g><path d="M 3.046875 -5.875 C 3.335938 -5.875 3.609375 -5.789062 3.859375 -5.625 C 4.117188 -5.46875 4.320312 -5.253906 4.46875 -4.984375 C 4.613281 -4.710938 4.6875 -4.410156 4.6875 -4.078125 C 4.6875 -3.742188 4.613281 -3.4375 4.46875 -3.15625 C 4.320312 -2.882812 4.117188 -2.664062 3.859375 -2.5 C 3.609375 -2.332031 3.335938 -2.25 3.046875 -2.25 L 1.46875 -2.25 L 1.46875 -0.40625 C 1.46875 -0.289062 1.429688 -0.191406 1.359375 -0.109375 C 1.285156 -0.0351562 1.191406 0 1.078125 0 C 0.960938 0 0.867188 -0.0351562 0.796875 -0.109375 C 0.734375 -0.179688 0.703125 -0.28125 0.703125 -0.40625 L 0.703125 -5.46875 C 0.703125 -5.582031 0.738281 -5.675781 0.8125 -5.75 C 0.894531 -5.832031 0.988281 -5.875 1.09375 -5.875 Z M 3.046875 -3.015625 C 3.191406 -3.015625 3.328125 -3.0625 3.453125 -3.15625 C 3.585938 -3.257812 3.691406 -3.390625 3.765625 -3.546875 C 3.847656 -3.710938 3.890625 -3.890625 3.890625 -4.078125 C 3.890625 -4.359375 3.804688 -4.597656 3.640625 -4.796875 C 3.472656 -4.992188 3.273438 -5.09375 3.046875 -5.09375 L 1.46875 -5.09375 L 1.46875 -3.015625 Z M 3.046875 -3.015625 "/></g></g></g><g fill="#292929" fill-opacity="1"><g transform="translate(217.848236, 217.879313)"><g><path d="M 4.5 -5.875 C 4.625 -5.875 4.722656 -5.835938 4.796875 -5.765625 C 4.867188 -5.691406 4.90625 -5.597656 4.90625 -5.484375 C 4.90625 -5.367188 4.867188 -5.273438 4.796875 -5.203125 C 4.722656 -5.140625 4.625 -5.109375 4.5 -5.109375 L 3.015625 -5.109375 L 3.015625 -0.40625 C 3.015625 -0.289062 2.972656 -0.191406 2.890625 -0.109375 C 2.804688 -0.0351562 2.703125 0 2.578125 0 C 2.460938 0 2.363281 -0.0351562 2.28125 -0.109375 C 2.195312 -0.191406 2.15625 -0.289062 2.15625 -0.40625 L 2.15625 -5.109375 L 0.671875 -5.109375 C 0.554688 -5.109375 0.457031 -5.140625 0.375 -5.203125 C 0.300781 -5.273438 0.265625 -5.375 0.265625 -5.5 C 0.265625 -5.601562 0.300781 -5.691406 0.375 -5.765625 C 0.457031 -5.835938 0.554688 -5.875 0.671875 -5.875 Z M 4.5 -5.875 "/></g></g></g></svg>