<svg xmlns="http://www.w3.org/2000/svg" xmlns:xlink="http://www.w3.org/1999/xlink" width="500" zoomAndPan="magnify" viewBox="0 0 375 374.999991" height="500" preserveAspectRatio="xMidYMid meet" version="1.0"><defs><g/><clipPath id="e4fb20f6a1"><path d="M 131 181 L 230 181 L 230 249 L 131 249 Z M 131 181 " clip-rule="nonzero"/></clipPath><clipPath id="faaf0899f3"><path d="M 136.195312 181.042969 L 232.609375 189.117188 L 227.601562 248.90625 L 131.1875 240.832031 Z M 136.195312 181.042969 " clip-rule="nonzero"/></clipPath><clipPath id="70d03fd198"><path d="M 116.742188 179.414062 L 232.589844 189.117188 L 227.269531 252.644531 L 111.421875 242.941406 Z M 116.742188 179.414062 " clip-rule="nonzero"/></clipPath><clipPath id="48e8ef6149"><path d="M 116.742188 179.414062 L 232.589844 189.117188 L 227.269531 252.644531 L 111.421875 242.941406 Z M 116.742188 179.414062 " clip-rule="nonzero"/></clipPath></defs><rect x="-37.5" width="450" fill="#ffffff" y="-37.499999" height="449.999989" fill-opacity="1"/><rect x="-37.5" width="450" fill="#ffffff" y="-37.499999" height="449.999989" fill-opacity="1"/><g fill="#3b3937" fill-opacity="1"><g transform="translate(150.833843, 196.291041)"><g><path d="M 31.03125 -61.109375 L 31.03125 -17.265625 C 31.03125 -11.285156 29.390625 -6.726562 26.109375 -3.59375 C 22.828125 -0.457031 18.125 1.109375 12 1.109375 C 10.375 1.109375 8.769531 0.910156 7.1875 0.515625 C 5.601562 0.117188 4.269531 -0.359375 3.1875 -0.921875 C 2.101562 -1.492188 1.128906 -2.078125 0.265625 -2.671875 C -0.597656 -3.265625 -1.226562 -3.753906 -1.625 -4.140625 L -2.296875 -4.734375 L 2.140625 -16.375 C 5.054688 -13.601562 7.703125 -12.21875 10.078125 -12.21875 C 12.203125 -12.21875 13.90625 -12.921875 15.1875 -14.328125 C 16.46875 -15.742188 17.109375 -17.90625 17.109375 -20.8125 L 17.109375 -61.109375 Z M 31.03125 -61.109375 "/></g></g></g><g fill="#0097b2" fill-opacity="1"><g transform="translate(181.881204, 196.291041)"><g><path d="M 12.890625 -15.859375 C 15.265625 -15.859375 17.273438 -15.03125 18.921875 -13.375 C 20.578125 -11.71875 21.40625 -9.703125 21.40625 -7.328125 C 21.40625 -5.015625 20.578125 -3.03125 18.921875 -1.375 C 17.273438 0.28125 15.265625 1.109375 12.890625 1.109375 C 10.566406 1.109375 8.578125 0.28125 6.921875 -1.375 C 5.265625 -3.03125 4.4375 -5.015625 4.4375 -7.328125 C 4.4375 -9.703125 5.265625 -11.71875 6.921875 -13.375 C 8.578125 -15.03125 10.566406 -15.859375 12.890625 -15.859375 Z M 12.890625 -15.859375 "/></g></g></g><g clip-path="url(#e4fb20f6a1)"><g clip-path="url(#faaf0899f3)"><g clip-path="url(#70d03fd198)"><g clip-path="url(#48e8ef6149)"><path fill="#ffffff" d="M 132.425781 180.726562 C 137.71875 181.203125 137.894531 187.457031 145.773438 190.21875 C 151.246094 192.136719 166.710938 186.46875 178.4375 192.941406 C 185.335938 196.75 185.3125 203.132812 190.632812 207.609375 C 198.738281 214.429688 213.160156 209.09375 222.539062 215.066406 C 231.210938 220.585938 231.324219 233.0625 223.941406 240.539062 C 212.324219 252.304688 184.59375 249.214844 175.503906 248.203125 C 169.328125 247.515625 134.921875 243.6875 120.355469 223.492188 C 109.5625 208.527344 116.078125 193.484375 122.40625 186.347656 C 123.941406 184.613281 127.855469 180.316406 132.425781 180.726562 Z M 132.425781 180.726562 " fill-opacity="1" fill-rule="nonzero"/></g></g></g></g></svg>