<svg xmlns="http://www.w3.org/2000/svg" xmlns:xlink="http://www.w3.org/1999/xlink" width="500" zoomAndPan="magnify" viewBox="0 0 375 374.999991" height="500" preserveAspectRatio="xMidYMid meet" version="1.0"><defs><g/><clipPath id="6bee1d73e5"><path d="M 23.476562 126.882812 L 351.21875 126.882812 L 351.21875 236.382812 L 23.476562 236.382812 Z M 23.476562 126.882812 " clip-rule="nonzero"/></clipPath><clipPath id="8dbc6654d4"><path d="M 64.332031 224.683594 L 310.667969 224.683594 L 310.667969 248.117188 L 64.332031 248.117188 Z M 64.332031 224.683594 " clip-rule="nonzero"/></clipPath></defs><rect x="-37.5" width="450" fill="#ffffff" y="-37.499999" height="449.999989" fill-opacity="1"/><rect x="-37.5" width="450" fill="#fbfaf9" y="-37.499999" height="449.999989" fill-opacity="1"/><g clip-path="url(#6bee1d73e5)"><path stroke-linecap="butt" transform="matrix(0.74933, 0, 0, 0.74992, 23.475378, 126.883321)" fill="none" stroke-linejoin="miter" d="M 0.00158032 -0.00067843 L 437.381811 -0.00067843 L 437.381811 146.014951 L 0.00158032 146.014951 Z M 0.00158032 -0.00067843 " stroke="#060606" stroke-width="2" stroke-opacity="1" stroke-miterlimit="4"/></g><g fill="#060606" fill-opacity="1"><g transform="translate(53.881969, 197.654042)"><g><path d="M -1 8.453125 C 1.332031 8.378906 3.054688 7.507812 4.171875 5.84375 C 5.285156 4.175781 5.84375 1.363281 5.84375 -2.59375 L 5.84375 -30.09375 C 5.84375 -31.351562 5.742188 -32.265625 5.546875 -32.828125 C 5.347656 -33.398438 4.972656 -33.785156 4.421875 -33.984375 C 3.867188 -34.191406 2.992188 -34.328125 1.796875 -34.390625 L 1.796875 -35.390625 C 3.203125 -35.285156 5.300781 -35.234375 8.09375 -35.234375 C 10.832031 -35.234375 12.984375 -35.285156 14.546875 -35.390625 L 14.546875 -34.390625 C 13.347656 -34.328125 12.472656 -34.191406 11.921875 -33.984375 C 11.367188 -33.785156 10.992188 -33.398438 10.796875 -32.828125 C 10.597656 -32.265625 10.5 -31.351562 10.5 -30.09375 L 10.5 -11.796875 C 10.5 -8.960938 10.445312 -6.453125 10.34375 -4.265625 C 10.25 -2.085938 10.015625 -0.25 9.640625 1.25 C 9.046875 3.6875 7.820312 5.648438 5.96875 7.140625 C 4.125 8.640625 1.800781 9.390625 -1 9.390625 Z M -1 8.453125 "/></g></g></g><g fill="#060606" fill-opacity="1"><g transform="translate(68.674809, 197.654042)"><g><path d="M 24.140625 -5.390625 C 24.140625 -3.859375 24.421875 -2.742188 24.984375 -2.046875 C 25.554688 -1.347656 26.539062 -1 27.9375 -1 L 27.9375 0.046875 C 26.90625 -0.046875 25.875 -0.09375 24.84375 -0.09375 C 22.738281 -0.09375 21.003906 0.132812 19.640625 0.59375 L 19.640625 -5.296875 C 18.835938 -3.234375 17.703125 -1.71875 16.234375 -0.75 C 14.773438 0.21875 13.179688 0.703125 11.453125 0.703125 C 9.179688 0.703125 7.445312 0.0664062 6.25 -1.203125 C 5.644531 -1.867188 5.21875 -2.71875 4.96875 -3.75 C 4.71875 -4.78125 4.59375 -6.113281 4.59375 -7.75 L 4.59375 -20.296875 C 4.59375 -21.828125 4.3125 -22.941406 3.75 -23.640625 C 3.1875 -24.335938 2.203125 -24.6875 0.796875 -24.6875 L 0.796875 -25.734375 C 1.828125 -25.640625 2.863281 -25.59375 3.90625 -25.59375 C 6 -25.59375 7.726562 -25.828125 9.09375 -26.296875 L 9.09375 -6.640625 C 9.09375 -5.378906 9.164062 -4.359375 9.3125 -3.578125 C 9.46875 -2.796875 9.820312 -2.15625 10.375 -1.65625 C 10.925781 -1.15625 11.765625 -0.90625 12.890625 -0.90625 C 14.160156 -0.90625 15.3125 -1.300781 16.34375 -2.09375 C 17.375 -2.894531 18.179688 -3.988281 18.765625 -5.375 C 19.347656 -6.757812 19.640625 -8.285156 19.640625 -9.953125 L 19.640625 -20.296875 C 19.640625 -21.828125 19.351562 -22.941406 18.78125 -23.640625 C 18.21875 -24.335938 17.238281 -24.6875 15.84375 -24.6875 L 15.84375 -25.734375 C 16.875 -25.640625 17.90625 -25.59375 18.9375 -25.59375 C 21.039062 -25.59375 22.773438 -25.828125 24.140625 -26.296875 Z M 24.140625 -5.390625 "/></g></g></g><g fill="#060606" fill-opacity="1"><g transform="translate(96.211778, 197.654042)"><g><path d="M 9.390625 -4.65625 C 9.390625 -3.28125 9.671875 -2.332031 10.234375 -1.8125 C 10.804688 -1.300781 11.796875 -1.046875 13.203125 -1.046875 L 13.203125 0 C 10.128906 -0.132812 8.109375 -0.203125 7.140625 -0.203125 C 6.179688 -0.203125 4.164062 -0.132812 1.09375 0 L 1.09375 -1.046875 C 2.5 -1.046875 3.484375 -1.300781 4.046875 -1.8125 C 4.617188 -2.332031 4.90625 -3.28125 4.90625 -4.65625 L 4.90625 -33.1875 C 4.90625 -34.71875 4.617188 -35.832031 4.046875 -36.53125 C 3.484375 -37.238281 2.5 -37.59375 1.09375 -37.59375 L 1.09375 -38.640625 C 2.132812 -38.535156 3.171875 -38.484375 4.203125 -38.484375 C 6.296875 -38.484375 8.023438 -38.71875 9.390625 -39.1875 Z M 9.390625 -4.65625 "/></g></g></g><g fill="#060606" fill-opacity="1"><g transform="translate(109.005526, 197.654042)"><g><path d="M 7.140625 -38.234375 C 8.003906 -38.234375 8.753906 -37.914062 9.390625 -37.28125 C 10.023438 -36.65625 10.34375 -35.910156 10.34375 -35.046875 C 10.34375 -34.171875 10.023438 -33.414062 9.390625 -32.78125 C 8.753906 -32.15625 8.003906 -31.84375 7.140625 -31.84375 C 6.273438 -31.84375 5.523438 -32.15625 4.890625 -32.78125 C 4.265625 -33.414062 3.953125 -34.171875 3.953125 -35.046875 C 3.953125 -35.910156 4.265625 -36.65625 4.890625 -37.28125 C 5.523438 -37.914062 6.273438 -38.234375 7.140625 -38.234375 Z M 9.75 -4.65625 C 9.75 -3.28125 10.03125 -2.332031 10.59375 -1.8125 C 11.164062 -1.300781 12.148438 -1.046875 13.546875 -1.046875 L 13.546875 0 C 10.484375 -0.132812 8.46875 -0.203125 7.5 -0.203125 C 6.53125 -0.203125 4.515625 -0.132812 1.453125 0 L 1.453125 -1.046875 C 2.847656 -1.046875 3.828125 -1.300781 4.390625 -1.8125 C 4.960938 -2.332031 5.25 -3.28125 5.25 -4.65625 L 5.25 -20.296875 C 5.25 -21.828125 4.960938 -22.941406 4.390625 -23.640625 C 3.828125 -24.335938 2.847656 -24.6875 1.453125 -24.6875 L 1.453125 -25.734375 C 2.515625 -25.640625 3.546875 -25.59375 4.546875 -25.59375 C 6.648438 -25.59375 8.382812 -25.828125 9.75 -26.296875 Z M 9.75 -4.65625 "/></g></g></g><g fill="#060606" fill-opacity="1"><g transform="translate(122.149114, 197.654042)"><g><path d="M 23.140625 -6 C 22.546875 -4.164062 21.421875 -2.585938 19.765625 -1.265625 C 18.117188 0.046875 16.128906 0.703125 13.796875 0.703125 C 11.429688 0.703125 9.378906 0.160156 7.640625 -0.921875 C 5.910156 -2.003906 4.585938 -3.519531 3.671875 -5.46875 C 2.753906 -7.414062 2.296875 -9.675781 2.296875 -12.25 C 2.296875 -15.144531 2.757812 -17.660156 3.6875 -19.796875 C 4.625 -21.929688 5.941406 -23.570312 7.640625 -24.71875 C 9.347656 -25.863281 11.332031 -26.4375 13.59375 -26.4375 C 16.59375 -26.4375 18.898438 -25.53125 20.515625 -23.71875 C 22.128906 -21.90625 22.9375 -19.144531 22.9375 -15.4375 L 7.296875 -15.4375 C 7.191406 -14.507812 7.140625 -13.445312 7.140625 -12.25 C 7.140625 -10.050781 7.5 -8.132812 8.21875 -6.5 C 8.9375 -4.863281 9.882812 -3.601562 11.0625 -2.71875 C 12.25 -1.84375 13.492188 -1.40625 14.796875 -1.40625 C 16.390625 -1.40625 17.800781 -1.785156 19.03125 -2.546875 C 20.269531 -3.316406 21.304688 -4.597656 22.140625 -6.390625 Z M 13.390625 -25.484375 C 11.828125 -25.484375 10.476562 -24.71875 9.34375 -23.1875 C 8.207031 -21.65625 7.507812 -19.390625 7.25 -16.390625 L 18.140625 -16.390625 C 18.210938 -18.992188 17.835938 -21.160156 17.015625 -22.890625 C 16.203125 -24.617188 14.992188 -25.484375 13.390625 -25.484375 Z M 13.390625 -25.484375 "/></g></g></g><g fill="#060606" fill-opacity="1"><g transform="translate(145.937807, 197.654042)"><g><path d="M 18.25 -26.4375 C 20.582031 -26.4375 22.347656 -25.804688 23.546875 -24.546875 C 24.179688 -23.878906 24.628906 -23.046875 24.890625 -22.046875 C 25.160156 -21.046875 25.296875 -19.695312 25.296875 -18 L 25.296875 -4.65625 C 25.296875 -3.28125 25.578125 -2.332031 26.140625 -1.8125 C 26.703125 -1.300781 27.6875 -1.046875 29.09375 -1.046875 L 29.09375 0 C 26.03125 -0.132812 24.03125 -0.203125 23.09375 -0.203125 C 22.15625 -0.203125 20.289062 -0.132812 17.5 0 L 17.5 -1.046875 C 18.726562 -1.046875 19.582031 -1.300781 20.0625 -1.8125 C 20.550781 -2.332031 20.796875 -3.28125 20.796875 -4.65625 L 20.796875 -19.09375 C 20.796875 -20.957031 20.523438 -22.378906 19.984375 -23.359375 C 19.453125 -24.347656 18.375 -24.84375 16.75 -24.84375 C 15.382812 -24.84375 14.164062 -24.441406 13.09375 -23.640625 C 12.03125 -22.835938 11.207031 -21.742188 10.625 -20.359375 C 10.039062 -18.984375 9.75 -17.445312 9.75 -15.75 L 9.75 -4.65625 C 9.75 -3.28125 9.988281 -2.332031 10.46875 -1.8125 C 10.957031 -1.300781 11.816406 -1.046875 13.046875 -1.046875 L 13.046875 0 C 10.242188 -0.132812 8.378906 -0.203125 7.453125 -0.203125 C 6.515625 -0.203125 4.515625 -0.132812 1.453125 0 L 1.453125 -1.046875 C 2.847656 -1.046875 3.828125 -1.300781 4.390625 -1.8125 C 4.960938 -2.332031 5.25 -3.28125 5.25 -4.65625 L 5.25 -20.296875 C 5.25 -21.828125 4.960938 -22.941406 4.390625 -23.640625 C 3.828125 -24.335938 2.847656 -24.6875 1.453125 -24.6875 L 1.453125 -25.734375 C 2.515625 -25.640625 3.546875 -25.59375 4.546875 -25.59375 C 6.648438 -25.59375 8.382812 -25.828125 9.75 -26.296875 L 9.75 -20.390625 C 10.582031 -22.523438 11.738281 -24.066406 13.21875 -25.015625 C 14.695312 -25.960938 16.375 -26.4375 18.25 -26.4375 Z M 18.25 -26.4375 "/></g></g></g><g fill="#060606" fill-opacity="1"><g transform="translate(193.7917, 212.885149)"><g><path d="M 35.234375 -26.578125 C 35.347656 -26.410156 35.296875 -26.21875 35.078125 -26 C 34.242188 -25.5 33.769531 -25.21875 33.65625 -25.15625 C 28.269531 -21.65625 24.601562 -19.15625 22.65625 -17.65625 C 21.21875 -16.488281 18.332031 -14.019531 14 -10.25 C 13.882812 -10.03125 13.617188 -9.53125 13.203125 -8.75 C 12.785156 -7.96875 12.519531 -7.46875 12.40625 -7.25 C 12.300781 -7.03125 12.066406 -6.597656 11.703125 -5.953125 C 11.335938 -5.316406 11.070312 -4.875 10.90625 -4.625 C 10.738281 -4.375 10.488281 -4 10.15625 -3.5 C 9.832031 -3 9.554688 -2.625 9.328125 -2.375 C 9.109375 -2.125 8.832031 -1.816406 8.5 -1.453125 C 8.164062 -1.097656 7.832031 -0.804688 7.5 -0.578125 C 7.164062 -0.359375 6.832031 -0.140625 6.5 0.078125 C 6 0.359375 5.523438 0.472656 5.078125 0.421875 C 4.359375 0.304688 4.054688 -0.0820312 4.171875 -0.75 C 4.335938 -1.300781 4.53125 -1.742188 4.75 -2.078125 C 5.03125 -2.640625 5.554688 -3.363281 6.328125 -4.25 C 7.160156 -5.195312 8.851562 -6.835938 11.40625 -9.171875 L 12.40625 -10 C 12.738281 -10.332031 13.019531 -10.582031 13.25 -10.75 C 16.300781 -16.75 18.578125 -22.21875 20.078125 -27.15625 C 22.296875 -34.207031 23.710938 -39.898438 24.328125 -44.234375 C 24.773438 -47.128906 24.941406 -49.296875 24.828125 -50.734375 C 24.828125 -51.515625 24.6875 -52.15625 24.40625 -52.65625 C 24.070312 -53.425781 23.488281 -53.703125 22.65625 -53.484375 C 22.101562 -53.367188 21.46875 -53.035156 20.75 -52.484375 C 19.519531 -51.597656 18.101562 -50.15625 16.5 -48.15625 C 14.882812 -46.039062 13.300781 -43.347656 11.75 -40.078125 C 9.300781 -34.515625 7.359375 -28.679688 5.921875 -22.578125 C 4.523438 -17.128906 3.441406 -11.578125 2.671875 -5.921875 C 2.671875 -5.804688 2.503906 -4.25 2.171875 -1.25 C 2.171875 -0.75 2.054688 -0.382812 1.828125 -0.15625 C 1.609375 0.0625 1.414062 0.0859375 1.25 -0.078125 C 1.03125 -0.078125 0.921875 -0.160156 0.921875 -0.328125 C 0.859375 -0.660156 0.828125 -1.109375 0.828125 -1.671875 C 1.160156 -7.003906 1.328125 -9.722656 1.328125 -9.828125 C 1.441406 -11.660156 1.722656 -14.550781 2.171875 -18.5 C 2.609375 -22.332031 3.109375 -26.164062 3.671875 -30 C 3.890625 -31.820312 4.273438 -34.515625 4.828125 -38.078125 L 6.328125 -48.328125 C 6.609375 -50.546875 6.890625 -52.347656 7.171875 -53.734375 L 7.171875 -54.234375 C 7.273438 -54.679688 7.46875 -54.929688 7.75 -54.984375 C 7.863281 -55.035156 7.960938 -54.976562 8.046875 -54.8125 C 8.128906 -54.644531 8.171875 -54.453125 8.171875 -54.234375 C 8.171875 -52.847656 8.113281 -51.796875 8 -51.078125 C 7.832031 -49.515625 7.023438 -43.234375 5.578125 -32.234375 C 5.359375 -30.847656 5.066406 -28.765625 4.703125 -25.984375 C 4.347656 -23.210938 4.085938 -21.132812 3.921875 -19.75 C 3.921875 -19.632812 3.890625 -19.394531 3.828125 -19.03125 C 3.773438 -18.675781 3.734375 -18.234375 3.703125 -17.703125 C 3.679688 -17.171875 3.640625 -16.710938 3.578125 -16.328125 C 3.640625 -16.546875 3.722656 -16.78125 3.828125 -17.03125 C 3.941406 -17.28125 4.023438 -17.488281 4.078125 -17.65625 C 4.140625 -17.820312 4.171875 -17.9375 4.171875 -18 C 4.222656 -18.269531 4.5 -19.421875 5 -21.453125 C 5.5 -23.484375 5.890625 -25.023438 6.171875 -26.078125 C 7.835938 -32.242188 9.863281 -37.6875 12.25 -42.40625 C 13.6875 -45.351562 15.320312 -47.910156 17.15625 -50.078125 C 18.15625 -51.242188 19.15625 -52.210938 20.15625 -52.984375 C 20.820312 -53.429688 21.351562 -53.738281 21.75 -53.90625 C 23.75 -54.84375 25 -54.257812 25.5 -52.15625 C 25.71875 -50.820312 25.800781 -49.765625 25.75 -48.984375 C 25.6875 -47.265625 25.460938 -45.347656 25.078125 -43.234375 C 23.460938 -34.460938 21.070312 -26.21875 17.90625 -18.5 C 17.300781 -16.769531 16.414062 -14.796875 15.25 -12.578125 C 17.914062 -14.910156 19.941406 -16.632812 21.328125 -17.75 C 24.273438 -20.132812 28.550781 -23.019531 34.15625 -26.40625 L 34.734375 -26.65625 C 35.015625 -26.65625 35.179688 -26.628906 35.234375 -26.578125 Z M 5.75 -0.828125 C 7.582031 -1.660156 9.664062 -4.191406 12 -8.421875 C 11.601562 -8.023438 11.296875 -7.742188 11.078125 -7.578125 C 9.578125 -6.410156 8.023438 -4.828125 6.421875 -2.828125 C 5.859375 -2.160156 5.523438 -1.609375 5.421875 -1.171875 C 5.421875 -1.003906 5.445312 -0.890625 5.5 -0.828125 Z M 5.75 -0.828125 "/></g></g></g><g fill="#060606" fill-opacity="1"><g transform="translate(227.447839, 212.885149)"><g><path d="M 4 -22.15625 C 2.5 -21.269531 1.472656 -21.6875 0.921875 -23.40625 C 0.859375 -23.632812 0.828125 -23.96875 0.828125 -24.40625 C 0.828125 -25.519531 1.160156 -26.550781 1.828125 -27.5 C 2.054688 -27.832031 2.304688 -28.023438 2.578125 -28.078125 C 3.242188 -28.191406 3.578125 -27.96875 3.578125 -27.40625 C 3.578125 -27.351562 3.550781 -27.160156 3.5 -26.828125 C 3.445312 -26.492188 3.390625 -26.242188 3.328125 -26.078125 C 3.160156 -25.460938 3.078125 -24.820312 3.078125 -24.15625 C 3.078125 -23.320312 3.46875 -23.070312 4.25 -23.40625 C 5.25 -23.96875 5.972656 -24.382812 6.421875 -24.65625 C 6.972656 -25.050781 7.914062 -25.914062 9.25 -27.25 C 9.695312 -27.6875 10.25 -28.296875 10.90625 -29.078125 C 11.40625 -29.410156 11.769531 -29.550781 12 -29.5 C 12.21875 -29.382812 12.382812 -29.050781 12.5 -28.5 C 12.5 -27.882812 12.523438 -27.4375 12.578125 -27.15625 C 12.691406 -26.269531 12.800781 -25.601562 12.90625 -25.15625 C 13.351562 -23.820312 14.242188 -23.320312 15.578125 -23.65625 C 16.023438 -23.769531 16.632812 -24.050781 17.40625 -24.5 L 20.15625 -26.078125 C 20.320312 -26.191406 20.570312 -26.300781 20.90625 -26.40625 C 20.96875 -26.46875 21.023438 -26.484375 21.078125 -26.453125 C 21.128906 -26.421875 21.15625 -26.378906 21.15625 -26.328125 C 21.269531 -26.210938 21.269531 -26.070312 21.15625 -25.90625 L 20.90625 -25.65625 C 19.351562 -24.601562 17.96875 -23.800781 16.75 -23.25 C 15.96875 -22.914062 15.382812 -22.75 15 -22.75 C 13.832031 -22.632812 12.96875 -23.101562 12.40625 -24.15625 C 12.019531 -24.820312 11.828125 -25.460938 11.828125 -26.078125 C 11.773438 -26.410156 11.75 -26.910156 11.75 -27.578125 C 11.75 -27.960938 11.664062 -28.1875 11.5 -28.25 C 11.332031 -28.351562 11.050781 -28.210938 10.65625 -27.828125 L 8.578125 -25.75 C 7.804688 -24.851562 6.421875 -23.738281 4.421875 -22.40625 C 4.359375 -22.351562 4.21875 -22.269531 4 -22.15625 Z M 4 -22.15625 "/></g></g></g><g fill="#060606" fill-opacity="1"><g transform="translate(247.025051, 212.885149)"><g><path d="M 37.078125 -46.65625 C 37.128906 -46.65625 37.15625 -46.625 37.15625 -46.5625 C 37.15625 -46.507812 37.128906 -46.484375 37.078125 -46.484375 L 36.734375 -46.15625 C 35.515625 -45.488281 34.40625 -45.015625 33.40625 -44.734375 C 31.1875 -44.234375 28.578125 -43.984375 25.578125 -43.984375 C 24.859375 -43.984375 21.984375 -44.007812 16.953125 -44.0625 C 11.929688 -44.125 8.804688 -44.15625 7.578125 -44.15625 L 6.078125 -44.15625 C 5.191406 -40.707031 4.722656 -38.847656 4.671875 -38.578125 C 3.335938 -33.023438 2.503906 -26.941406 2.171875 -20.328125 C 2.054688 -18.660156 2.164062 -17.101562 2.5 -15.65625 C 2.71875 -14.65625 2.941406 -13.960938 3.171875 -13.578125 C 3.671875 -12.359375 4.554688 -12.023438 5.828125 -12.578125 C 6.054688 -12.691406 6.390625 -12.914062 6.828125 -13.25 C 8.222656 -14.1875 9.472656 -15.40625 10.578125 -16.90625 C 11.910156 -18.6875 13.851562 -21.410156 16.40625 -25.078125 C 17.070312 -25.910156 17.519531 -26.351562 17.75 -26.40625 C 17.800781 -26.1875 17.8125 -26.046875 17.78125 -25.984375 C 17.757812 -25.929688 17.625 -25.722656 17.375 -25.359375 C 17.125 -25.003906 16.96875 -24.800781 16.90625 -24.75 C 14.851562 -21.800781 12.742188 -18.9375 10.578125 -16.15625 C 9.472656 -14.769531 8.363281 -13.632812 7.25 -12.75 C 6.800781 -12.351562 6.328125 -12.046875 5.828125 -11.828125 C 4.660156 -11.109375 3.578125 -11.359375 2.578125 -12.578125 C 2.242188 -12.960938 1.941406 -13.546875 1.671875 -14.328125 C 1.109375 -15.992188 0.828125 -17.800781 0.828125 -19.75 C 0.722656 -24.132812 1.003906 -28.378906 1.671875 -32.484375 C 2.171875 -35.984375 2.945312 -39.875 4 -44.15625 C -0.382812 -44.15625 -4.992188 -43.90625 -9.828125 -43.40625 C -12.328125 -43.1875 -14.1875 -42.878906 -15.40625 -42.484375 C -16.738281 -41.984375 -17.546875 -41.457031 -17.828125 -40.90625 C -17.828125 -40.851562 -17.910156 -40.828125 -18.078125 -40.828125 C -18.242188 -40.992188 -18.328125 -41.128906 -18.328125 -41.234375 C -18.378906 -41.566406 -18.238281 -41.898438 -17.90625 -42.234375 C -17.519531 -42.566406 -16.992188 -42.847656 -16.328125 -43.078125 C -15.210938 -43.515625 -13.738281 -43.847656 -11.90625 -44.078125 C -6.75 -44.679688 -1.835938 -44.984375 2.828125 -44.984375 L 4.171875 -44.984375 C 4.171875 -45.148438 4.210938 -45.398438 4.296875 -45.734375 C 4.378906 -46.066406 4.445312 -46.347656 4.5 -46.578125 C 5.5 -50.296875 7.054688 -54.570312 9.171875 -59.40625 C 9.273438 -59.570312 9.410156 -59.847656 9.578125 -60.234375 C 9.742188 -60.617188 9.882812 -60.925781 10 -61.15625 L 10.421875 -61.90625 C 10.742188 -62.457031 11.097656 -62.648438 11.484375 -62.484375 C 11.878906 -62.316406 11.992188 -61.925781 11.828125 -61.3125 C 11.773438 -60.925781 11.632812 -60.398438 11.40625 -59.734375 C 11.1875 -59.117188 10.867188 -58.253906 10.453125 -57.140625 C 10.035156 -56.035156 9.742188 -55.289062 9.578125 -54.90625 C 8.359375 -51.738281 7.390625 -48.90625 6.671875 -46.40625 L 6.25 -44.90625 C 12.25 -44.789062 16.632812 -44.734375 19.40625 -44.734375 C 20.132812 -44.734375 21.257812 -44.707031 22.78125 -44.65625 C 24.3125 -44.601562 25.46875 -44.578125 26.25 -44.578125 C 27.851562 -44.578125 29.820312 -44.769531 32.15625 -45.15625 C 33.320312 -45.4375 34.628906 -45.910156 36.078125 -46.578125 L 36.828125 -46.828125 C 36.878906 -46.828125 36.960938 -46.769531 37.078125 -46.65625 Z M 37.078125 -46.65625 "/></g></g></g><g fill="#060606" fill-opacity="1"><g transform="translate(262.936737, 212.885149)"><g><path d="M 5 -16.578125 C 3.832031 -16.691406 3.082031 -17.273438 2.75 -18.328125 C 2.632812 -18.710938 2.578125 -19.378906 2.578125 -20.328125 C 2.640625 -20.828125 2.722656 -21.394531 2.828125 -22.03125 C 2.941406 -22.675781 3.007812 -23.109375 3.03125 -23.328125 C 3.0625 -23.546875 3.0625 -23.796875 3.03125 -24.078125 C 3.007812 -24.359375 2.941406 -24.566406 2.828125 -24.703125 C 2.722656 -24.835938 2.554688 -24.988281 2.328125 -25.15625 C 1.773438 -25.488281 1.273438 -25.90625 0.828125 -26.40625 C -0.222656 -27.738281 -0.0820312 -28.90625 1.25 -29.90625 C 1.695312 -30.1875 2.128906 -30.226562 2.546875 -30.03125 C 2.960938 -29.84375 3.195312 -29.5 3.25 -29 C 3.300781 -28.769531 3.273438 -28.378906 3.171875 -27.828125 C 3.171875 -27.773438 3.03125 -27.414062 2.75 -26.75 C 2.582031 -26.519531 2.609375 -26.296875 2.828125 -26.078125 C 2.992188 -25.910156 3.132812 -25.800781 3.25 -25.75 C 4.195312 -25.019531 4.640625 -23.960938 4.578125 -22.578125 C 4.578125 -22.296875 4.5625 -21.878906 4.53125 -21.328125 C 4.507812 -20.773438 4.5 -20.359375 4.5 -20.078125 C 4.5 -19.742188 4.554688 -19.300781 4.671875 -18.75 C 4.835938 -18.132812 5.253906 -17.828125 5.921875 -17.828125 C 6.359375 -17.878906 6.882812 -18.046875 7.5 -18.328125 C 8.550781 -18.773438 9.601562 -19.441406 10.65625 -20.328125 C 11.15625 -20.710938 12.238281 -21.585938 13.90625 -22.953125 C 15.570312 -24.316406 16.65625 -25.191406 17.15625 -25.578125 C 17.601562 -25.910156 17.96875 -26.160156 18.25 -26.328125 C 18.300781 -26.378906 18.351562 -26.390625 18.40625 -26.359375 C 18.46875 -26.335938 18.5 -26.300781 18.5 -26.25 C 18.601562 -26.132812 18.628906 -26.050781 18.578125 -26 C 18.410156 -25.71875 18.300781 -25.550781 18.25 -25.5 C 17.519531 -24.882812 16.171875 -23.785156 14.203125 -22.203125 C 12.234375 -20.617188 11.050781 -19.6875 10.65625 -19.40625 C 9.71875 -18.570312 8.5 -17.796875 7 -17.078125 C 6.445312 -16.742188 5.78125 -16.578125 5 -16.578125 Z M 1.671875 -27.15625 L 1.828125 -27.25 L 2 -27.328125 C 2.28125 -27.773438 2.421875 -28.21875 2.421875 -28.65625 C 2.421875 -28.769531 2.335938 -28.910156 2.171875 -29.078125 C 2.054688 -29.191406 1.890625 -29.191406 1.671875 -29.078125 C 1.054688 -28.628906 0.972656 -28.070312 1.421875 -27.40625 Z M 1.671875 -27.15625 "/></g></g></g><g fill="#060606" fill-opacity="1"><g transform="translate(279.84811, 212.885149)"><g><path d="M 4 -22.15625 C 2.5 -21.269531 1.472656 -21.6875 0.921875 -23.40625 C 0.859375 -23.632812 0.828125 -23.96875 0.828125 -24.40625 C 0.828125 -25.519531 1.160156 -26.550781 1.828125 -27.5 C 2.054688 -27.832031 2.304688 -28.023438 2.578125 -28.078125 C 3.242188 -28.191406 3.578125 -27.96875 3.578125 -27.40625 C 3.578125 -27.351562 3.550781 -27.160156 3.5 -26.828125 C 3.445312 -26.492188 3.390625 -26.242188 3.328125 -26.078125 C 3.160156 -25.460938 3.078125 -24.820312 3.078125 -24.15625 C 3.078125 -23.320312 3.46875 -23.070312 4.25 -23.40625 C 5.25 -23.96875 5.972656 -24.382812 6.421875 -24.65625 C 6.972656 -25.050781 7.914062 -25.914062 9.25 -27.25 C 9.695312 -27.6875 10.25 -28.296875 10.90625 -29.078125 C 11.40625 -29.410156 11.769531 -29.550781 12 -29.5 C 12.21875 -29.382812 12.382812 -29.050781 12.5 -28.5 C 12.5 -27.882812 12.523438 -27.4375 12.578125 -27.15625 C 12.691406 -26.269531 12.800781 -25.601562 12.90625 -25.15625 C 13.351562 -23.820312 14.242188 -23.320312 15.578125 -23.65625 C 16.023438 -23.769531 16.632812 -24.050781 17.40625 -24.5 L 20.15625 -26.078125 C 20.320312 -26.191406 20.570312 -26.300781 20.90625 -26.40625 C 20.96875 -26.46875 21.023438 -26.484375 21.078125 -26.453125 C 21.128906 -26.421875 21.15625 -26.378906 21.15625 -26.328125 C 21.269531 -26.210938 21.269531 -26.070312 21.15625 -25.90625 L 20.90625 -25.65625 C 19.351562 -24.601562 17.96875 -23.800781 16.75 -23.25 C 15.96875 -22.914062 15.382812 -22.75 15 -22.75 C 13.832031 -22.632812 12.96875 -23.101562 12.40625 -24.15625 C 12.019531 -24.820312 11.828125 -25.460938 11.828125 -26.078125 C 11.773438 -26.410156 11.75 -26.910156 11.75 -27.578125 C 11.75 -27.960938 11.664062 -28.1875 11.5 -28.25 C 11.332031 -28.351562 11.050781 -28.210938 10.65625 -27.828125 L 8.578125 -25.75 C 7.804688 -24.851562 6.421875 -23.738281 4.421875 -22.40625 C 4.359375 -22.351562 4.21875 -22.269531 4 -22.15625 Z M 4 -22.15625 "/></g></g></g><g fill="#060606" fill-opacity="1"><g transform="translate(299.425322, 212.885149)"><g><path d="M 2.671875 -21.578125 C 2.390625 -21.628906 2 -21.65625 1.5 -21.65625 C 0.0507812 -21.882812 -0.585938 -22.71875 -0.421875 -24.15625 C -0.421875 -24.550781 -0.28125 -25.023438 0 -25.578125 C 0.882812 -27.191406 2.273438 -28.300781 4.171875 -28.90625 C 4.441406 -28.96875 4.859375 -29 5.421875 -29 C 5.472656 -29 5.664062 -28.914062 6 -28.75 C 6.21875 -28.582031 6.300781 -28.382812 6.25 -28.15625 C 6.132812 -27.9375 6.023438 -27.828125 5.921875 -27.828125 L 5.171875 -27.578125 C 3.890625 -27.296875 2.75 -26.546875 1.75 -25.328125 C 1.632812 -25.210938 1.46875 -24.988281 1.25 -24.65625 C 0.53125 -23.320312 0.890625 -22.570312 2.328125 -22.40625 C 2.890625 -22.351562 3.722656 -22.382812 4.828125 -22.5 C 6.828125 -22.882812 9.242188 -23.6875 12.078125 -24.90625 C 12.691406 -25.132812 13.609375 -25.523438 14.828125 -26.078125 L 15.65625 -26.328125 C 15.820312 -26.328125 15.9375 -26.21875 16 -26 C 16 -25.832031 15.96875 -25.75 15.90625 -25.75 C 15.6875 -25.519531 15.492188 -25.378906 15.328125 -25.328125 C 14.441406 -24.992188 13.148438 -24.519531 11.453125 -23.90625 C 9.765625 -23.300781 8.472656 -22.832031 7.578125 -22.5 C 7.410156 -22.4375 6.441406 -22.1875 4.671875 -21.75 C 4.441406 -21.6875 4.101562 -21.65625 3.65625 -21.65625 C 3.21875 -21.65625 2.890625 -21.628906 2.671875 -21.578125 Z M 2.671875 -21.578125 "/></g></g></g><g fill="#060606" fill-opacity="1"><g transform="translate(313.754166, 212.885149)"><g><path d="M 3.25 -19.90625 C 2.53125 -19.1875 1.921875 -19.300781 1.421875 -20.25 C 1.140625 -20.914062 0.941406 -21.71875 0.828125 -22.65625 C 0.722656 -25.15625 0.890625 -27.320312 1.328125 -29.15625 C 2.273438 -33.820312 3.859375 -38.90625 6.078125 -44.40625 C 7.191406 -46.957031 8.554688 -49.289062 10.171875 -51.40625 C 10.722656 -52.238281 11.332031 -52.875 12 -53.3125 C 12.4375 -53.644531 12.878906 -53.894531 13.328125 -54.0625 C 14.109375 -54.34375 14.75 -54.148438 15.25 -53.484375 C 15.6875 -52.867188 15.90625 -52.148438 15.90625 -51.328125 C 15.96875 -50.160156 15.800781 -48.769531 15.40625 -47.15625 C 14.851562 -44.707031 13.910156 -42.234375 12.578125 -39.734375 C 10.472656 -35.515625 8.195312 -31.960938 5.75 -29.078125 C 4.414062 -27.628906 3.523438 -26.710938 3.078125 -26.328125 C 2.691406 -26.046875 2.5 -25.738281 2.5 -25.40625 C 2.21875 -23.632812 2.273438 -22.050781 2.671875 -20.65625 C 3.222656 -20.9375 3.773438 -21.46875 4.328125 -22.25 L 7.25 -25.5 C 7.695312 -26.050781 8.304688 -26.601562 9.078125 -27.15625 C 9.472656 -27.550781 9.890625 -27.773438 10.328125 -27.828125 C 11.328125 -28.109375 12.078125 -27.882812 12.578125 -27.15625 C 13.128906 -26.550781 13.601562 -25.914062 14 -25.25 C 14.832031 -23.75 16.007812 -22.84375 17.53125 -22.53125 C 19.0625 -22.226562 20.578125 -22.660156 22.078125 -23.828125 L 24.328125 -25.828125 C 24.492188 -25.992188 24.742188 -26.1875 25.078125 -26.40625 C 25.078125 -26.519531 25.160156 -26.492188 25.328125 -26.328125 C 25.378906 -26.328125 25.40625 -26.269531 25.40625 -26.15625 L 25.328125 -26.078125 C 23.941406 -24.359375 22.46875 -23.109375 20.90625 -22.328125 C 19.738281 -21.609375 18.378906 -21.425781 16.828125 -21.78125 C 15.273438 -22.144531 14.109375 -23.019531 13.328125 -24.40625 C 12.546875 -25.632812 12.101562 -26.332031 12 -26.5 C 11.4375 -27.332031 10.710938 -27.46875 9.828125 -26.90625 C 9.328125 -26.632812 8.800781 -26.21875 8.25 -25.65625 C 7.300781 -24.769531 6.21875 -23.519531 5 -21.90625 C 4.882812 -21.738281 4.71875 -21.515625 4.5 -21.234375 C 4.28125 -20.960938 4.070312 -20.710938 3.875 -20.484375 C 3.675781 -20.265625 3.46875 -20.070312 3.25 -19.90625 Z M 2.828125 -27.328125 L 3.078125 -27.328125 C 3.140625 -27.378906 3.253906 -27.472656 3.421875 -27.609375 C 3.585938 -27.753906 3.722656 -27.894531 3.828125 -28.03125 C 3.941406 -28.175781 4.054688 -28.300781 4.171875 -28.40625 C 7.554688 -32.125 10.5 -36.648438 13 -41.984375 C 13.71875 -43.597656 14.269531 -45.15625 14.65625 -46.65625 C 15.101562 -48.15625 15.328125 -49.570312 15.328125 -50.90625 C 15.328125 -51.40625 15.242188 -51.90625 15.078125 -52.40625 C 14.691406 -53.289062 14.050781 -53.484375 13.15625 -52.984375 C 12.4375 -52.429688 11.882812 -51.820312 11.5 -51.15625 C 11.101562 -50.539062 10.578125 -49.625 9.921875 -48.40625 C 8.359375 -45.625 6.910156 -42.148438 5.578125 -37.984375 C 4.410156 -34.648438 3.550781 -31.679688 3 -29.078125 C 2.882812 -28.128906 2.828125 -27.546875 2.828125 -27.328125 Z M 2.828125 -27.328125 "/></g></g></g><g clip-path="url(#8dbc6654d4)"><path fill="#fbfaf9" d="M 64.332031 224.683594 L 310.667969 224.683594 L 310.667969 248.117188 L 64.332031 248.117188 Z M 64.332031 224.683594 " fill-opacity="1" fill-rule="nonzero"/></g><g fill="#060606" fill-opacity="1"><g transform="translate(96.602863, 236.837174)"><g><path d="M 4.546875 -4.8125 L 1.703125 -4.8125 L 1.703125 -3.171875 L 4.28125 -3.171875 L 4.28125 -2.328125 L 1.703125 -2.328125 L 1.703125 0 L 0.75 0 L 0.75 -5.671875 L 4.5625 -5.671875 Z M 4.546875 -4.8125 "/></g></g></g><g fill="#060606" fill-opacity="1"><g transform="translate(105.731987, 236.837174)"><g><path d="M 4.34375 0 L 3.3125 -1.71875 C 3.257812 -1.71875 3.171875 -1.71875 3.046875 -1.71875 L 1.703125 -1.71875 L 1.703125 0 L 0.75 0 L 0.75 -5.671875 L 3.046875 -5.671875 C 3.773438 -5.671875 4.335938 -5.5 4.734375 -5.15625 C 5.140625 -4.820312 5.34375 -4.347656 5.34375 -3.734375 C 5.34375 -3.285156 5.238281 -2.898438 5.03125 -2.578125 C 4.832031 -2.265625 4.539062 -2.035156 4.15625 -1.890625 L 5.4375 0 Z M 1.703125 -2.578125 L 3.046875 -2.578125 C 3.960938 -2.578125 4.421875 -2.957031 4.421875 -3.71875 C 4.421875 -4.445312 3.960938 -4.8125 3.046875 -4.8125 L 1.703125 -4.8125 Z M 1.703125 -2.578125 "/></g></g></g><g fill="#060606" fill-opacity="1"><g transform="translate(116.062094, 236.837174)"><g><path d="M 1.140625 -4.875 C 1.722656 -5.425781 2.4375 -5.703125 3.28125 -5.703125 C 4.132812 -5.703125 4.847656 -5.425781 5.421875 -4.875 C 6.003906 -4.320312 6.296875 -3.640625 6.296875 -2.828125 C 6.296875 -2.023438 6.003906 -1.34375 5.421875 -0.78125 C 4.847656 -0.226562 4.132812 0.046875 3.28125 0.046875 C 2.4375 0.046875 1.722656 -0.226562 1.140625 -0.78125 C 0.566406 -1.34375 0.28125 -2.023438 0.28125 -2.828125 C 0.28125 -3.640625 0.566406 -4.320312 1.140625 -4.875 Z M 3.296875 -4.84375 C 2.734375 -4.84375 2.25 -4.648438 1.84375 -4.265625 C 1.445312 -3.878906 1.25 -3.40625 1.25 -2.84375 C 1.25 -2.28125 1.445312 -1.800781 1.84375 -1.40625 C 2.25 -1.007812 2.726562 -0.8125 3.28125 -0.8125 C 3.84375 -0.8125 4.320312 -1.007812 4.71875 -1.40625 C 5.113281 -1.800781 5.3125 -2.28125 5.3125 -2.84375 C 5.3125 -3.40625 5.113281 -3.878906 4.71875 -4.265625 C 4.320312 -4.648438 3.847656 -4.84375 3.296875 -4.84375 Z M 3.296875 -4.84375 "/></g></g></g><g fill="#060606" fill-opacity="1"><g transform="translate(127.098189, 236.837174)"><g><path d="M 5.671875 0 L 4.734375 0 L 1.703125 -4.078125 L 1.703125 0 L 0.75 0 L 0.75 -5.671875 L 1.6875 -5.671875 L 4.734375 -1.59375 L 4.734375 -5.671875 L 5.671875 -5.671875 Z M 5.671875 0 "/></g></g></g><g fill="#060606" fill-opacity="1"><g transform="translate(137.988225, 236.837174)"><g><path d="M 4.625 -4.8125 L 2.828125 -4.8125 L 2.828125 0 L 1.859375 0 L 1.859375 -4.8125 L 0.078125 -4.8125 L 0.078125 -5.671875 L 4.625 -5.671875 Z M 4.625 -4.8125 "/></g></g></g><g fill="#060606" fill-opacity="1"><g transform="translate(147.149799, 236.837174)"><g><path d="M 2.484375 -2.15625 L 0.5 -2.15625 L 0.5 -2.796875 L 2.484375 -2.796875 Z M 2.484375 -2.15625 "/></g></g></g><g fill="#060606" fill-opacity="1"><g transform="translate(154.599154, 236.837174)"><g><path d="M 4.796875 -4.8125 L 1.703125 -4.8125 L 1.703125 -3.28125 L 4.46875 -3.28125 L 4.46875 -2.421875 L 1.703125 -2.421875 L 1.703125 -0.859375 L 4.890625 -0.859375 L 4.890625 0 L 0.75 0 L 0.75 -5.671875 L 4.796875 -5.671875 Z M 4.796875 -4.8125 "/></g></g></g><g fill="#060606" fill-opacity="1"><g transform="translate(164.385571, 236.837174)"><g><path d="M 5.671875 0 L 4.734375 0 L 1.703125 -4.078125 L 1.703125 0 L 0.75 0 L 0.75 -5.671875 L 1.6875 -5.671875 L 4.734375 -1.59375 L 4.734375 -5.671875 L 5.671875 -5.671875 Z M 5.671875 0 "/></g></g></g><g fill="#060606" fill-opacity="1"><g transform="translate(175.275607, 236.837174)"><g><path d="M 0.75 -5.671875 L 3.078125 -5.671875 C 3.921875 -5.671875 4.617188 -5.40625 5.171875 -4.875 C 5.734375 -4.34375 6.015625 -3.664062 6.015625 -2.84375 C 6.015625 -2.019531 5.734375 -1.335938 5.171875 -0.796875 C 4.617188 -0.265625 3.910156 0 3.046875 0 L 0.75 0 Z M 1.703125 -4.8125 L 1.703125 -0.859375 L 3.09375 -0.859375 C 3.65625 -0.859375 4.117188 -1.039062 4.484375 -1.40625 C 4.859375 -1.78125 5.046875 -2.253906 5.046875 -2.828125 C 5.046875 -3.398438 4.851562 -3.875 4.46875 -4.25 C 4.09375 -4.625 3.625 -4.8125 3.0625 -4.8125 Z M 1.703125 -4.8125 "/></g></g></g><g fill="#060606" fill-opacity="1"><g transform="translate(186.027685, 236.837174)"><g/></g></g><g fill="#060606" fill-opacity="1"><g transform="translate(192.584418, 236.837174)"><g><path d="M 0.75 -5.671875 L 3.078125 -5.671875 C 3.921875 -5.671875 4.617188 -5.40625 5.171875 -4.875 C 5.734375 -4.34375 6.015625 -3.664062 6.015625 -2.84375 C 6.015625 -2.019531 5.734375 -1.335938 5.171875 -0.796875 C 4.617188 -0.265625 3.910156 0 3.046875 0 L 0.75 0 Z M 1.703125 -4.8125 L 1.703125 -0.859375 L 3.09375 -0.859375 C 3.65625 -0.859375 4.117188 -1.039062 4.484375 -1.40625 C 4.859375 -1.78125 5.046875 -2.253906 5.046875 -2.828125 C 5.046875 -3.398438 4.851562 -3.875 4.46875 -4.25 C 4.09375 -4.625 3.625 -4.8125 3.0625 -4.8125 Z M 1.703125 -4.8125 "/></g></g></g><g fill="#060606" fill-opacity="1"><g transform="translate(203.336501, 236.837174)"><g><path d="M 4.796875 -4.8125 L 1.703125 -4.8125 L 1.703125 -3.28125 L 4.46875 -3.28125 L 4.46875 -2.421875 L 1.703125 -2.421875 L 1.703125 -0.859375 L 4.890625 -0.859375 L 4.890625 0 L 0.75 0 L 0.75 -5.671875 L 4.796875 -5.671875 Z M 4.796875 -4.8125 "/></g></g></g><g fill="#060606" fill-opacity="1"><g transform="translate(213.122924, 236.837174)"><g><path d="M 3.28125 0 L 2.28125 0 L 0.03125 -5.671875 L 1.046875 -5.671875 L 2.8125 -1.0625 L 4.578125 -5.671875 L 5.578125 -5.671875 Z M 3.28125 0 "/></g></g></g><g fill="#060606" fill-opacity="1"><g transform="translate(223.185251, 236.837174)"><g><path d="M 4.796875 -4.8125 L 1.703125 -4.8125 L 1.703125 -3.28125 L 4.46875 -3.28125 L 4.46875 -2.421875 L 1.703125 -2.421875 L 1.703125 -0.859375 L 4.890625 -0.859375 L 4.890625 0 L 0.75 0 L 0.75 -5.671875 L 4.796875 -5.671875 Z M 4.796875 -4.8125 "/></g></g></g><g fill="#060606" fill-opacity="1"><g transform="translate(232.971673, 236.837174)"><g><path d="M 1.703125 -0.875 L 4.15625 -0.875 L 4.15625 0 L 0.75 0 L 0.75 -5.671875 L 1.703125 -5.671875 Z M 1.703125 -0.875 "/></g></g></g><g fill="#060606" fill-opacity="1"><g transform="translate(241.768094, 236.837174)"><g><path d="M 1.140625 -4.875 C 1.722656 -5.425781 2.4375 -5.703125 3.28125 -5.703125 C 4.132812 -5.703125 4.847656 -5.425781 5.421875 -4.875 C 6.003906 -4.320312 6.296875 -3.640625 6.296875 -2.828125 C 6.296875 -2.023438 6.003906 -1.34375 5.421875 -0.78125 C 4.847656 -0.226562 4.132812 0.046875 3.28125 0.046875 C 2.4375 0.046875 1.722656 -0.226562 1.140625 -0.78125 C 0.566406 -1.34375 0.28125 -2.023438 0.28125 -2.828125 C 0.28125 -3.640625 0.566406 -4.320312 1.140625 -4.875 Z M 3.296875 -4.84375 C 2.734375 -4.84375 2.25 -4.648438 1.84375 -4.265625 C 1.445312 -3.878906 1.25 -3.40625 1.25 -2.84375 C 1.25 -2.28125 1.445312 -1.800781 1.84375 -1.40625 C 2.25 -1.007812 2.726562 -0.8125 3.28125 -0.8125 C 3.84375 -0.8125 4.320312 -1.007812 4.71875 -1.40625 C 5.113281 -1.800781 5.3125 -2.28125 5.3125 -2.84375 C 5.3125 -3.40625 5.113281 -3.878906 4.71875 -4.265625 C 4.320312 -4.648438 3.847656 -4.84375 3.296875 -4.84375 Z M 3.296875 -4.84375 "/></g></g></g><g fill="#060606" fill-opacity="1"><g transform="translate(252.804192, 236.837174)"><g><path d="M 0.75 -5.671875 L 3.015625 -5.671875 C 3.722656 -5.671875 4.269531 -5.5 4.65625 -5.15625 C 5.050781 -4.820312 5.25 -4.347656 5.25 -3.734375 C 5.25 -3.085938 5.050781 -2.585938 4.65625 -2.234375 C 4.269531 -1.890625 3.722656 -1.71875 3.015625 -1.71875 L 1.703125 -1.71875 L 1.703125 0 L 0.75 0 Z M 1.703125 -4.8125 L 1.703125 -2.578125 L 2.96875 -2.578125 C 3.882812 -2.578125 4.34375 -2.957031 4.34375 -3.71875 C 4.34375 -4.445312 3.882812 -4.8125 2.96875 -4.8125 Z M 1.703125 -4.8125 "/></g></g></g><g fill="#060606" fill-opacity="1"><g transform="translate(262.728561, 236.837174)"><g><path d="M 4.796875 -4.8125 L 1.703125 -4.8125 L 1.703125 -3.28125 L 4.46875 -3.28125 L 4.46875 -2.421875 L 1.703125 -2.421875 L 1.703125 -0.859375 L 4.890625 -0.859375 L 4.890625 0 L 0.75 0 L 0.75 -5.671875 L 4.796875 -5.671875 Z M 4.796875 -4.8125 "/></g></g></g><g fill="#060606" fill-opacity="1"><g transform="translate(272.514974, 236.837174)"><g><path d="M 4.34375 0 L 3.3125 -1.71875 C 3.257812 -1.71875 3.171875 -1.71875 3.046875 -1.71875 L 1.703125 -1.71875 L 1.703125 0 L 0.75 0 L 0.75 -5.671875 L 3.046875 -5.671875 C 3.773438 -5.671875 4.335938 -5.5 4.734375 -5.15625 C 5.140625 -4.820312 5.34375 -4.347656 5.34375 -3.734375 C 5.34375 -3.285156 5.238281 -2.898438 5.03125 -2.578125 C 4.832031 -2.265625 4.539062 -2.035156 4.15625 -1.890625 L 5.4375 0 Z M 1.703125 -2.578125 L 3.046875 -2.578125 C 3.960938 -2.578125 4.421875 -2.957031 4.421875 -3.71875 C 4.421875 -4.445312 3.960938 -4.8125 3.046875 -4.8125 L 1.703125 -4.8125 Z M 1.703125 -2.578125 "/></g></g></g></svg>