<svg xmlns="http://www.w3.org/2000/svg" xmlns:xlink="http://www.w3.org/1999/xlink" width="500" zoomAndPan="magnify" viewBox="0 0 375 374.999991" height="500" preserveAspectRatio="xMidYMid meet" version="1.0"><defs><g/><clipPath id="efc0ee60c1"><path d="M 133.632812 187.5 L 141.359375 187.5 L 141.359375 191.480469 L 133.632812 191.480469 Z M 133.632812 187.5 " clip-rule="nonzero"/></clipPath><clipPath id="0a76f00afa"><path d="M 134.382812 187.5 L 140.609375 187.5 C 141.027344 187.5 141.359375 187.835938 141.359375 188.25 L 141.359375 190.730469 C 141.359375 191.144531 141.027344 191.480469 140.609375 191.480469 L 134.382812 191.480469 C 133.96875 191.480469 133.632812 191.144531 133.632812 190.730469 L 133.632812 188.25 C 133.632812 187.835938 133.96875 187.5 134.382812 187.5 Z M 134.382812 187.5 " clip-rule="nonzero"/></clipPath><clipPath id="d9780c7552"><path d="M 222.832031 187.5 L 228.75 187.5 L 228.75 193.417969 L 222.832031 193.417969 Z M 222.832031 187.5 " clip-rule="nonzero"/></clipPath><clipPath id="9a1ab73a4c"><path d="M 225.789062 187.5 C 224.15625 187.5 222.832031 188.824219 222.832031 190.457031 C 222.832031 192.09375 224.15625 193.417969 225.789062 193.417969 C 227.421875 193.417969 228.75 192.09375 228.75 190.457031 C 228.75 188.824219 227.421875 187.5 225.789062 187.5 Z M 225.789062 187.5 " clip-rule="nonzero"/></clipPath><clipPath id="1e5bcb646c"><path d="M 187.507812 198.140625 L 218.25 198.140625 L 218.25 206.390625 L 187.507812 206.390625 Z M 187.507812 198.140625 " clip-rule="nonzero"/></clipPath><clipPath id="10068ba9a5"><path d="M 191.628906 198.140625 L 214.121094 198.140625 C 216.398438 198.140625 218.242188 199.988281 218.242188 202.265625 C 218.242188 204.542969 216.398438 206.390625 214.121094 206.390625 L 191.628906 206.390625 C 189.351562 206.390625 187.507812 204.542969 187.507812 202.265625 C 187.507812 199.988281 189.351562 198.140625 191.628906 198.140625 Z M 191.628906 198.140625 " clip-rule="nonzero"/></clipPath></defs><rect x="-37.5" width="450" fill="#ffffff" y="-37.499999" height="449.999989" fill-opacity="1"/><rect x="-37.5" width="450" fill="#e6e3dd" y="-37.499999" height="449.999989" fill-opacity="1"/><g clip-path="url(#efc0ee60c1)"><g clip-path="url(#0a76f00afa)"><path fill="#000000" d="M 133.632812 187.5 L 141.359375 187.5 L 141.359375 191.480469 L 133.632812 191.480469 Z M 133.632812 187.5 " fill-opacity="1" fill-rule="nonzero"/></g></g><g clip-path="url(#d9780c7552)"><g clip-path="url(#9a1ab73a4c)"><path fill="#000000" d="M 222.832031 187.5 L 228.75 187.5 L 228.75 193.417969 L 222.832031 193.417969 Z M 222.832031 187.5 " fill-opacity="1" fill-rule="nonzero"/></g></g><g clip-path="url(#1e5bcb646c)"><g clip-path="url(#10068ba9a5)"><path stroke-linecap="butt" transform="matrix(0.745737, 0, 0, 0.746818, 187.508284, 198.140845)" fill="none" stroke-linejoin="miter" d="M 5.52557 -0.000295104 L 35.686588 -0.000295104 C 38.740404 -0.000295104 41.21279 2.473745 41.21279 5.523142 C 41.21279 8.57254 38.740404 11.04658 35.686588 11.04658 L 5.52557 11.04658 C 2.471754 11.04658 -0.000632511 8.57254 -0.000632511 5.523142 C -0.000632511 2.473745 2.471754 -0.000295104 5.52557 -0.000295104 Z M 5.52557 -0.000295104 " stroke="#000000" stroke-width="2" stroke-opacity="1" stroke-miterlimit="4"/></g></g><g fill="#000000" fill-opacity="1"><g transform="translate(144.605811, 191.296863)"><g><path d="M 4.78125 -8.84375 C 7.875 -8.84375 9.421875 -7.367188 9.421875 -4.421875 C 9.421875 -1.472656 7.875 0 4.78125 0 L 0.953125 0 L 0.953125 -8.84375 Z M 3.796875 -2.125 L 4.734375 -2.125 C 5.921875 -2.125 6.515625 -2.757812 6.515625 -4.03125 L 6.515625 -4.8125 C 6.515625 -6.082031 5.921875 -6.71875 4.734375 -6.71875 L 3.796875 -6.71875 Z M 3.796875 -2.125 "/></g></g></g><g fill="#000000" fill-opacity="1"><g transform="translate(153.294488, 191.296863)"><g><path d="M 4.28125 -6.9375 C 5.519531 -6.9375 6.46875 -6.644531 7.125 -6.0625 C 7.78125 -5.476562 8.109375 -4.585938 8.109375 -3.390625 L 8.109375 -2.953125 L 3.015625 -2.953125 C 3.015625 -2.460938 3.125 -2.09375 3.34375 -1.84375 C 3.5625 -1.601562 3.910156 -1.484375 4.390625 -1.484375 C 4.816406 -1.484375 5.128906 -1.570312 5.328125 -1.75 C 5.523438 -1.925781 5.625 -2.164062 5.625 -2.46875 L 8.109375 -2.46875 C 8.109375 -1.644531 7.796875 -1 7.171875 -0.53125 C 6.546875 -0.0703125 5.632812 0.15625 4.4375 0.15625 C 3.175781 0.15625 2.195312 -0.132812 1.5 -0.71875 C 0.8125 -1.3125 0.46875 -2.203125 0.46875 -3.390625 C 0.46875 -4.554688 0.804688 -5.4375 1.484375 -6.03125 C 2.160156 -6.632812 3.09375 -6.9375 4.28125 -6.9375 Z M 4.390625 -5.3125 C 3.578125 -5.3125 3.125 -4.929688 3.03125 -4.171875 L 5.53125 -4.171875 C 5.53125 -4.515625 5.425781 -4.789062 5.21875 -5 C 5.019531 -5.207031 4.742188 -5.3125 4.390625 -5.3125 Z M 4.390625 -5.3125 "/></g></g></g><g fill="#000000" fill-opacity="1"><g transform="translate(160.556377, 191.296863)"><g><path d="M 2.578125 0 L 0 -6.796875 L 2.75 -6.796875 L 4 -2.5625 L 4.09375 -2.5625 L 5.34375 -6.796875 L 7.859375 -6.796875 L 5.265625 0 Z M 2.578125 0 "/></g></g></g><g fill="#000000" fill-opacity="1"><g transform="translate(167.09844, 191.296863)"><g><path d="M 4.28125 -6.9375 C 5.519531 -6.9375 6.46875 -6.644531 7.125 -6.0625 C 7.78125 -5.476562 8.109375 -4.585938 8.109375 -3.390625 L 8.109375 -2.953125 L 3.015625 -2.953125 C 3.015625 -2.460938 3.125 -2.09375 3.34375 -1.84375 C 3.5625 -1.601562 3.910156 -1.484375 4.390625 -1.484375 C 4.816406 -1.484375 5.128906 -1.570312 5.328125 -1.75 C 5.523438 -1.925781 5.625 -2.164062 5.625 -2.46875 L 8.109375 -2.46875 C 8.109375 -1.644531 7.796875 -1 7.171875 -0.53125 C 6.546875 -0.0703125 5.632812 0.15625 4.4375 0.15625 C 3.175781 0.15625 2.195312 -0.132812 1.5 -0.71875 C 0.8125 -1.3125 0.46875 -2.203125 0.46875 -3.390625 C 0.46875 -4.554688 0.804688 -5.4375 1.484375 -6.03125 C 2.160156 -6.632812 3.09375 -6.9375 4.28125 -6.9375 Z M 4.390625 -5.3125 C 3.578125 -5.3125 3.125 -4.929688 3.03125 -4.171875 L 5.53125 -4.171875 C 5.53125 -4.515625 5.425781 -4.789062 5.21875 -5 C 5.019531 -5.207031 4.742188 -5.3125 4.390625 -5.3125 Z M 4.390625 -5.3125 "/></g></g></g><g fill="#000000" fill-opacity="1"><g transform="translate(174.360328, 191.296863)"><g><path d="M 0.859375 0 L 0.859375 -9.328125 L 3.421875 -9.328125 L 3.421875 0 Z M 0.859375 0 "/></g></g></g><g fill="#000000" fill-opacity="1"><g transform="translate(177.328979, 191.296863)"><g><path d="M 4.28125 -6.9375 C 5.46875 -6.9375 6.398438 -6.632812 7.078125 -6.03125 C 7.765625 -5.425781 8.109375 -4.546875 8.109375 -3.390625 C 8.109375 -2.234375 7.765625 -1.351562 7.078125 -0.75 C 6.398438 -0.144531 5.46875 0.15625 4.28125 0.15625 C 3.09375 0.15625 2.160156 -0.140625 1.484375 -0.734375 C 0.804688 -1.335938 0.46875 -2.222656 0.46875 -3.390625 C 0.46875 -4.554688 0.804688 -5.4375 1.484375 -6.03125 C 2.160156 -6.632812 3.09375 -6.9375 4.28125 -6.9375 Z M 4.28125 -5.203125 C 3.4375 -5.203125 3.015625 -4.71875 3.015625 -3.75 L 3.015625 -3.015625 C 3.015625 -2.054688 3.4375 -1.578125 4.28125 -1.578125 C 5.132812 -1.578125 5.5625 -2.054688 5.5625 -3.015625 L 5.5625 -3.75 C 5.5625 -4.71875 5.132812 -5.203125 4.28125 -5.203125 Z M 4.28125 -5.203125 "/></g></g></g><g fill="#000000" fill-opacity="1"><g transform="translate(184.590867, 191.296863)"><g><path d="M 5.25 -6.9375 C 6.164062 -6.9375 6.867188 -6.632812 7.359375 -6.03125 C 7.859375 -5.4375 8.109375 -4.550781 8.109375 -3.375 C 8.109375 -2.21875 7.859375 -1.335938 7.359375 -0.734375 C 6.867188 -0.140625 6.164062 0.15625 5.25 0.15625 C 4.457031 0.15625 3.820312 -0.101562 3.34375 -0.625 L 3.34375 2.53125 L 0.78125 2.53125 L 0.78125 -6.796875 L 2.875 -6.796875 L 3.09375 -5.828125 C 3.582031 -6.566406 4.300781 -6.9375 5.25 -6.9375 Z M 4.453125 -5.046875 C 4.078125 -5.046875 3.789062 -4.910156 3.59375 -4.640625 C 3.40625 -4.378906 3.3125 -4.035156 3.3125 -3.609375 L 3.3125 -3.1875 C 3.3125 -2.757812 3.40625 -2.410156 3.59375 -2.140625 C 3.789062 -1.867188 4.078125 -1.734375 4.453125 -1.734375 C 5.191406 -1.734375 5.5625 -2.175781 5.5625 -3.0625 L 5.5625 -3.734375 C 5.5625 -4.609375 5.191406 -5.046875 4.453125 -5.046875 Z M 4.453125 -5.046875 "/></g></g></g><g fill="#000000" fill-opacity="1"><g transform="translate(191.852754, 191.296863)"><g><path d="M 5.25 -6.9375 C 6.164062 -6.9375 6.867188 -6.632812 7.359375 -6.03125 C 7.859375 -5.4375 8.109375 -4.550781 8.109375 -3.375 C 8.109375 -2.21875 7.859375 -1.335938 7.359375 -0.734375 C 6.867188 -0.140625 6.164062 0.15625 5.25 0.15625 C 4.457031 0.15625 3.820312 -0.101562 3.34375 -0.625 L 3.34375 2.53125 L 0.78125 2.53125 L 0.78125 -6.796875 L 2.875 -6.796875 L 3.09375 -5.828125 C 3.582031 -6.566406 4.300781 -6.9375 5.25 -6.9375 Z M 4.453125 -5.046875 C 4.078125 -5.046875 3.789062 -4.910156 3.59375 -4.640625 C 3.40625 -4.378906 3.3125 -4.035156 3.3125 -3.609375 L 3.3125 -3.1875 C 3.3125 -2.757812 3.40625 -2.410156 3.59375 -2.140625 C 3.789062 -1.867188 4.078125 -1.734375 4.453125 -1.734375 C 5.191406 -1.734375 5.5625 -2.175781 5.5625 -3.0625 L 5.5625 -3.734375 C 5.5625 -4.609375 5.191406 -5.046875 4.453125 -5.046875 Z M 4.453125 -5.046875 "/></g></g></g><g fill="#000000" fill-opacity="1"><g transform="translate(199.114645, 191.296863)"><g><path d="M 4.28125 -6.9375 C 5.519531 -6.9375 6.46875 -6.644531 7.125 -6.0625 C 7.78125 -5.476562 8.109375 -4.585938 8.109375 -3.390625 L 8.109375 -2.953125 L 3.015625 -2.953125 C 3.015625 -2.460938 3.125 -2.09375 3.34375 -1.84375 C 3.5625 -1.601562 3.910156 -1.484375 4.390625 -1.484375 C 4.816406 -1.484375 5.128906 -1.570312 5.328125 -1.75 C 5.523438 -1.925781 5.625 -2.164062 5.625 -2.46875 L 8.109375 -2.46875 C 8.109375 -1.644531 7.796875 -1 7.171875 -0.53125 C 6.546875 -0.0703125 5.632812 0.15625 4.4375 0.15625 C 3.175781 0.15625 2.195312 -0.132812 1.5 -0.71875 C 0.8125 -1.3125 0.46875 -2.203125 0.46875 -3.390625 C 0.46875 -4.554688 0.804688 -5.4375 1.484375 -6.03125 C 2.160156 -6.632812 3.09375 -6.9375 4.28125 -6.9375 Z M 4.390625 -5.3125 C 3.578125 -5.3125 3.125 -4.929688 3.03125 -4.171875 L 5.53125 -4.171875 C 5.53125 -4.515625 5.425781 -4.789062 5.21875 -5 C 5.019531 -5.207031 4.742188 -5.3125 4.390625 -5.3125 Z M 4.390625 -5.3125 "/></g></g></g><g fill="#000000" fill-opacity="1"><g transform="translate(206.376532, 191.296863)"><g><path d="M 5.703125 0 L 5.53125 -1.03125 C 5.257812 -0.65625 4.90625 -0.363281 4.46875 -0.15625 C 4.039062 0.0507812 3.585938 0.15625 3.109375 0.15625 C 2.316406 0.15625 1.722656 -0.0625 1.328125 -0.5 C 0.941406 -0.9375 0.75 -1.566406 0.75 -2.390625 L 0.75 -6.796875 L 3.3125 -6.796875 L 3.3125 -2.703125 C 3.3125 -2.410156 3.382812 -2.175781 3.53125 -2 C 3.675781 -1.820312 3.890625 -1.734375 4.171875 -1.734375 C 4.484375 -1.734375 4.738281 -1.835938 4.9375 -2.046875 C 5.132812 -2.253906 5.234375 -2.503906 5.234375 -2.796875 L 5.234375 -6.796875 L 7.796875 -6.796875 L 7.796875 0 Z M 5.703125 0 "/></g></g></g><g fill="#000000" fill-opacity="1"><g transform="translate(213.63842, 191.296863)"><g><path d="M 4.90625 -6.953125 C 5.09375 -6.953125 5.265625 -6.925781 5.421875 -6.875 C 5.578125 -6.832031 5.65625 -6.804688 5.65625 -6.796875 L 5.65625 -4.65625 L 4.828125 -4.65625 C 4.296875 -4.65625 3.910156 -4.515625 3.671875 -4.234375 C 3.441406 -3.960938 3.328125 -3.554688 3.328125 -3.015625 L 3.328125 0 L 0.765625 0 L 0.765625 -6.796875 L 2.875 -6.796875 L 3.03125 -5.765625 C 3.1875 -6.160156 3.429688 -6.457031 3.765625 -6.65625 C 4.097656 -6.851562 4.476562 -6.953125 4.90625 -6.953125 Z M 4.90625 -6.953125 "/></g></g></g><g fill="#000000" fill-opacity="1"><g transform="translate(193.136467, 203.703461)"><g><path d="M 0.789062 -2.636719 L 2.335938 -2.636719 L 2.335938 -2.933594 L 0.425781 -2.933594 L 0.425781 0 L 0.789062 0 L 0.789062 -1.316406 L 2.164062 -1.316406 L 2.164062 -1.617188 L 0.789062 -1.617188 Z M 0.789062 -2.636719 "/></g></g></g><g fill="#000000" fill-opacity="1"><g transform="translate(195.058688, 203.703461)"><g><path d="M 2.355469 -0.769531 C 2.332031 -1.0625 2.214844 -1.332031 1.976562 -1.441406 C 2.25 -1.527344 2.5 -1.746094 2.5 -2.136719 C 2.5 -2.628906 2.195312 -2.863281 1.769531 -2.917969 C 1.636719 -2.933594 1.535156 -2.933594 1.386719 -2.933594 L 0.425781 -2.933594 L 0.425781 0 L 0.789062 0 L 0.789062 -1.261719 L 1.34375 -1.261719 C 1.410156 -1.261719 1.484375 -1.261719 1.550781 -1.257812 C 1.839844 -1.238281 1.957031 -1.039062 1.992188 -0.734375 C 2.027344 -0.375 2.066406 -0.1875 2.148438 0 L 2.550781 0 C 2.433594 -0.15625 2.390625 -0.386719 2.355469 -0.769531 Z M 0.789062 -1.5625 L 0.789062 -2.636719 L 1.386719 -2.636719 C 1.519531 -2.636719 1.597656 -2.632812 1.679688 -2.621094 C 1.953125 -2.578125 2.109375 -2.429688 2.109375 -2.101562 C 2.109375 -1.769531 1.910156 -1.59375 1.636719 -1.570312 C 1.554688 -1.5625 1.484375 -1.5625 1.351562 -1.5625 Z M 0.789062 -1.5625 "/></g></g></g><g fill="#000000" fill-opacity="1"><g transform="translate(197.20205, 203.703461)"><g><path d="M 1.585938 -2.992188 C 0.691406 -2.992188 0.199219 -2.363281 0.199219 -1.46875 C 0.199219 -0.574219 0.691406 0.0585938 1.585938 0.0585938 C 2.480469 0.0585938 2.972656 -0.574219 2.972656 -1.46875 C 2.972656 -2.363281 2.480469 -2.992188 1.585938 -2.992188 Z M 1.585938 -0.230469 C 0.96875 -0.230469 0.609375 -0.707031 0.609375 -1.46875 C 0.609375 -2.234375 0.96875 -2.703125 1.585938 -2.703125 C 2.203125 -2.703125 2.5625 -2.234375 2.5625 -1.46875 C 2.5625 -0.707031 2.203125 -0.230469 1.585938 -0.230469 Z M 1.585938 -0.230469 "/></g></g></g><g fill="#000000" fill-opacity="1"><g transform="translate(199.847227, 203.703461)"><g><path d="M 2.722656 0 L 2.714844 -2.933594 L 2.355469 -2.933594 L 2.355469 -1.46875 C 2.355469 -1.121094 2.359375 -0.703125 2.367188 -0.355469 L 0.988281 -2.933594 L 0.425781 -2.933594 L 0.425781 0 L 0.789062 0 L 0.789062 -1.46875 C 0.789062 -1.8125 0.785156 -2.234375 0.777344 -2.578125 L 2.160156 0 Z M 2.722656 0 "/></g></g></g><g fill="#000000" fill-opacity="1"><g transform="translate(202.411604, 203.703461)"><g><path d="M 2.601562 -2.636719 L 2.601562 -2.933594 L 0.144531 -2.933594 L 0.144531 -2.636719 L 1.191406 -2.636719 L 1.191406 0 L 1.554688 0 L 1.554688 -2.636719 Z M 2.601562 -2.636719 "/></g></g></g><g fill="#000000" fill-opacity="1"><g transform="translate(204.525197, 203.703461)"><g><path d="M 1.027344 -1.085938 L 1.027344 -1.324219 L 0.136719 -1.324219 L 0.136719 -1.085938 Z M 1.027344 -1.085938 "/></g></g></g><g fill="#000000" fill-opacity="1"><g transform="translate(205.201379, 203.703461)"><g><path d="M 2.378906 -0.296875 L 0.789062 -0.296875 L 0.789062 -1.316406 L 2.207031 -1.316406 L 2.207031 -1.617188 L 0.789062 -1.617188 L 0.789062 -2.636719 L 2.335938 -2.636719 L 2.335938 -2.933594 L 0.425781 -2.933594 L 0.425781 0 L 2.378906 0 Z M 2.378906 -0.296875 "/></g></g></g><g fill="#000000" fill-opacity="1"><g transform="translate(207.208655, 203.703461)"><g><path d="M 2.722656 0 L 2.714844 -2.933594 L 2.355469 -2.933594 L 2.355469 -1.46875 C 2.355469 -1.121094 2.359375 -0.703125 2.367188 -0.355469 L 0.988281 -2.933594 L 0.425781 -2.933594 L 0.425781 0 L 0.789062 0 L 0.789062 -1.46875 C 0.789062 -1.8125 0.785156 -2.234375 0.777344 -2.578125 L 2.160156 0 Z M 2.722656 0 "/></g></g></g><g fill="#000000" fill-opacity="1"><g transform="translate(209.773031, 203.703461)"><g><path d="M 1.691406 -2.917969 C 1.542969 -2.933594 1.476562 -2.933594 1.316406 -2.933594 L 0.425781 -2.933594 L 0.425781 0 L 1.296875 0 C 1.453125 0 1.523438 0 1.671875 -0.015625 C 2.351562 -0.101562 2.855469 -0.636719 2.855469 -1.5 C 2.855469 -2.378906 2.371094 -2.832031 1.691406 -2.917969 Z M 1.632812 -0.320312 C 1.539062 -0.300781 1.429688 -0.296875 1.277344 -0.296875 L 0.789062 -0.296875 L 0.789062 -2.636719 L 1.296875 -2.636719 C 1.449219 -2.636719 1.5625 -2.632812 1.652344 -2.617188 C 2.152344 -2.535156 2.453125 -2.152344 2.453125 -1.5 C 2.453125 -0.808594 2.128906 -0.398438 1.632812 -0.320312 Z M 1.632812 -0.320312 "/></g></g></g></svg>