<svg xmlns="http://www.w3.org/2000/svg" xmlns:xlink="http://www.w3.org/1999/xlink" width="500" zoomAndPan="magnify" viewBox="0 0 375 374.999991" height="500" preserveAspectRatio="xMidYMid meet" version="1.0"><defs><g/></defs><rect x="-37.5" width="450" fill="#ffffff" y="-37.499999" height="449.999989" fill-opacity="1"/><rect x="-37.5" width="450" fill="#ffffff" y="-37.499999" height="449.999989" fill-opacity="1"/><g fill="#000000" fill-opacity="1"><g transform="translate(109.258129, 189.442252)"><g><path d="M 19.589844 -9.269531 C 19.589844 -14.992188 14.707031 -18.542969 8.164062 -18.542969 L 1.660156 -18.542969 L 1.660156 -4.757812 C 1.660156 -2.132812 3.792969 0 6.441406 0 L 8.164062 0 C 14.707031 0 19.589844 -3.546875 19.589844 -9.269531 Z M 6.441406 -18.273438 L 8.164062 -18.273438 C 12.367188 -18.273438 14.277344 -15.054688 14.277344 -9.269531 C 14.277344 -3.488281 12.367188 -0.265625 8.164062 -0.265625 L 6.441406 -0.265625 Z M 6.441406 -18.273438 "/></g></g></g><g fill="#000000" fill-opacity="1"><g transform="translate(128.248943, 189.442252)"><g><path d="M 14.089844 -4.964844 L 13.84375 -4.964844 C 13.558594 -1.96875 11.730469 -0.738281 9.660156 -0.738281 C 7.035156 -0.738281 5.496094 -2.316406 5.496094 -6.851562 L 13.90625 -6.851562 C 14.03125 -11.773438 11.097656 -13.785156 7.691406 -13.785156 C 3.589844 -13.785156 0.71875 -11.035156 0.71875 -6.914062 C 0.71875 -2.769531 3.816406 0 8.328125 0 C 11.382812 0 13.785156 -1.519531 14.089844 -4.964844 Z M 7.671875 -13.515625 C 9.679688 -13.515625 9.539062 -9.3125 9.539062 -7.097656 L 5.496094 -7.097656 C 5.515625 -11.238281 6.132812 -13.515625 7.671875 -13.515625 Z M 7.671875 -13.515625 "/></g></g></g><g fill="#000000" fill-opacity="1"><g transform="translate(141.784428, 189.442252)"><g><path d="M 12.777344 -13.515625 L 9.886719 -7.136719 C 9.703125 -6.707031 9.292969 -6.503906 8.882812 -6.503906 C 8.472656 -6.503906 8.0625 -6.707031 7.855469 -7.136719 L 6.769531 -9.496094 C 5.640625 -11.9375 3.179688 -13.515625 0.472656 -13.515625 L 0.246094 -13.515625 L 6.953125 0 L 6.972656 0 L 13.105469 -13.515625 Z M 12.777344 -13.515625 "/></g></g></g><g fill="#000000" fill-opacity="1"><g transform="translate(153.802267, 189.442252)"><g><path d="M 14.089844 -4.964844 L 13.84375 -4.964844 C 13.558594 -1.96875 11.730469 -0.738281 9.660156 -0.738281 C 7.035156 -0.738281 5.496094 -2.316406 5.496094 -6.851562 L 13.90625 -6.851562 C 14.03125 -11.773438 11.097656 -13.785156 7.691406 -13.785156 C 3.589844 -13.785156 0.71875 -11.035156 0.71875 -6.914062 C 0.71875 -2.769531 3.816406 0 8.328125 0 C 11.382812 0 13.785156 -1.519531 14.089844 -4.964844 Z M 7.671875 -13.515625 C 9.679688 -13.515625 9.539062 -9.3125 9.539062 -7.097656 L 5.496094 -7.097656 C 5.515625 -11.238281 6.132812 -13.515625 7.671875 -13.515625 Z M 7.671875 -13.515625 "/></g></g></g><g fill="#000000" fill-opacity="1"><g transform="translate(167.337752, 189.442252)"><g><path d="M 1.394531 -18.542969 L 1.394531 -4.511719 C 1.394531 -2.011719 3.425781 0 5.90625 0 L 5.90625 -14.050781 C 5.90625 -16.53125 3.898438 -18.542969 1.394531 -18.542969 Z M 1.394531 -18.542969 "/></g></g></g><g fill="#000000" fill-opacity="1"><g transform="translate(173.326025, 189.442252)"><g><path d="M 14.871094 -6.953125 C 14.871094 -11.054688 11.199219 -13.785156 7.792969 -13.785156 C 4.410156 -13.785156 0.71875 -11.054688 0.71875 -6.953125 C 0.71875 -2.789062 4.410156 0 7.792969 0 C 11.199219 0 14.871094 -2.789062 14.871094 -6.953125 Z M 5.496094 -6.953125 C 5.496094 -11.425781 6.152344 -13.515625 7.792969 -13.515625 C 9.433594 -13.515625 10.113281 -11.425781 10.113281 -6.953125 C 10.113281 -2.421875 9.433594 -0.265625 7.792969 -0.265625 C 6.152344 -0.265625 5.496094 -2.421875 5.496094 -6.953125 Z M 5.496094 -6.953125 "/></g></g></g><g fill="#000000" fill-opacity="1"><g transform="translate(187.640845, 189.442252)"><g><path d="M 10.625 0.0429688 C 13.90625 0.0429688 16 -2.460938 16 -6.914062 C 16 -11.238281 13.925781 -13.742188 10.664062 -13.742188 C 8.246094 -13.742188 6.542969 -12.222656 5.90625 -9.476562 C 5.90625 -11.691406 4.121094 -13.476562 1.90625 -13.476562 L 1.394531 -13.476562 L 1.394531 0.0195312 C 1.394531 2.214844 3.199219 4.019531 5.394531 4.019531 L 5.90625 4.019531 L 5.90625 -4.285156 C 6.542969 -1.476562 8.203125 0.0429688 10.625 0.0429688 Z M 5.90625 -6.914062 C 5.90625 -10.378906 7.300781 -12.675781 8.71875 -12.675781 C 10.214844 -12.675781 11.238281 -10.378906 11.238281 -6.914062 C 11.238281 -3.382812 10.214844 -1.027344 8.71875 -1.027344 C 7.300781 -1.027344 5.90625 -3.382812 5.90625 -6.914062 Z M 5.90625 -6.914062 "/></g></g></g><g fill="#000000" fill-opacity="1"><g transform="translate(203.104157, 189.442252)"><g><path d="M 8.65625 -12.265625 C 9.722656 -12.265625 10.214844 -11.527344 10.214844 -9.96875 L 10.214844 -3.816406 C 10.214844 -1.703125 11.9375 0 14.03125 0 L 14.726562 0 L 14.726562 -6.625 C 14.726562 -8.308594 15.074219 -12.265625 17.476562 -12.265625 C 18.542969 -12.265625 19.054688 -11.527344 19.054688 -9.96875 L 19.054688 -3.816406 C 19.054688 -1.703125 20.757812 0 22.871094 0 L 23.546875 0 L 23.546875 -8.820312 C 23.546875 -11.648438 22.007812 -13.515625 19.199219 -13.515625 C 16.550781 -13.515625 15.238281 -11.855469 14.707031 -9.351562 C 14.523438 -11.894531 13.003906 -13.515625 10.378906 -13.515625 C 7.753906 -13.515625 6.441406 -11.875 5.90625 -9.433594 C 5.90625 -11.546875 4.203125 -13.25 2.09375 -13.25 L 1.394531 -13.25 L 1.394531 -3.816406 C 1.394531 -1.703125 3.117188 0 5.210938 0 L 5.90625 0 L 5.90625 -7.507812 C 6.070312 -10.152344 6.996094 -12.265625 8.65625 -12.265625 Z M 8.65625 -12.265625 "/></g></g></g><g fill="#000000" fill-opacity="1"><g transform="translate(226.647904, 189.442252)"><g><path d="M 14.089844 -4.964844 L 13.84375 -4.964844 C 13.558594 -1.96875 11.730469 -0.738281 9.660156 -0.738281 C 7.035156 -0.738281 5.496094 -2.316406 5.496094 -6.851562 L 13.90625 -6.851562 C 14.03125 -11.773438 11.097656 -13.785156 7.691406 -13.785156 C 3.589844 -13.785156 0.71875 -11.035156 0.71875 -6.914062 C 0.71875 -2.769531 3.816406 0 8.328125 0 C 11.382812 0 13.785156 -1.519531 14.089844 -4.964844 Z M 7.671875 -13.515625 C 9.679688 -13.515625 9.539062 -9.3125 9.539062 -7.097656 L 5.496094 -7.097656 C 5.515625 -11.238281 6.132812 -13.515625 7.671875 -13.515625 Z M 7.671875 -13.515625 "/></g></g></g><g fill="#000000" fill-opacity="1"><g transform="translate(240.183385, 189.442252)"><g><path d="M 8.65625 -12.265625 C 9.722656 -12.265625 10.214844 -11.527344 10.214844 -9.96875 L 10.214844 -3.816406 C 10.214844 -1.703125 11.9375 0 14.03125 0 L 14.726562 0 L 14.726562 -8.820312 C 14.726562 -11.648438 13.1875 -13.515625 10.378906 -13.515625 C 7.753906 -13.515625 6.441406 -11.875 5.90625 -9.433594 C 5.90625 -11.546875 4.203125 -13.25 2.09375 -13.25 L 1.394531 -13.25 L 1.394531 -3.816406 C 1.394531 -1.703125 3.117188 0 5.210938 0 L 5.90625 0 L 5.90625 -7.507812 C 6.070312 -10.152344 6.996094 -12.265625 8.65625 -12.265625 Z M 8.65625 -12.265625 "/></g></g></g><g fill="#000000" fill-opacity="1"><g transform="translate(254.908377, 189.442252)"><g><path d="M 10.441406 -4.941406 L 10.171875 -4.941406 C 10.089844 -2.03125 8.613281 -1.128906 7.710938 -1.128906 C 6.75 -1.128906 6.441406 -1.683594 6.441406 -2.996094 L 6.441406 -13.230469 L 10.171875 -13.230469 L 10.171875 -13.496094 L 6.441406 -13.496094 C 6.441406 -15.402344 4.902344 -16.941406 2.996094 -16.941406 L 1.929688 -16.941406 L 1.929688 -13.496094 L 0.125 -13.496094 L 0.125 -13.230469 L 1.929688 -13.230469 L 1.929688 -4.347656 C 1.929688 -0.964844 4.183594 0 6.195312 0 C 8.183594 0 10.441406 -1.355469 10.441406 -4.941406 Z M 10.441406 -4.941406 "/></g></g></g><g fill="#000000" fill-opacity="1"><g transform="translate(237.736775, 203.625807)"><g><path d="M 1.140625 0.0625 C 0.691406 0.0625 0.34375 -0.132812 0.09375 -0.53125 L 0.46875 -0.84375 C 0.644531 -0.53125 0.875 -0.375 1.15625 -0.375 C 1.382812 -0.375 1.5625 -0.457031 1.6875 -0.625 C 1.820312 -0.789062 1.890625 -1.019531 1.890625 -1.3125 L 1.890625 -4.078125 L 0.578125 -4.078125 L 0.578125 -4.515625 L 2.359375 -4.515625 L 2.359375 -1.3125 C 2.359375 -1.101562 2.328125 -0.914062 2.265625 -0.75 C 2.210938 -0.582031 2.132812 -0.4375 2.03125 -0.3125 C 1.925781 -0.1875 1.796875 -0.09375 1.640625 -0.03125 C 1.492188 0.03125 1.328125 0.0625 1.140625 0.0625 Z M 1.140625 0.0625 "/></g></g></g><g fill="#000000" fill-opacity="1"><g transform="translate(242.698104, 203.625807)"><g><path d="M 2.203125 0.0625 C 1.960938 0.0625 1.738281 0.0195312 1.53125 -0.0625 C 1.332031 -0.15625 1.160156 -0.285156 1.015625 -0.453125 C 0.878906 -0.617188 0.769531 -0.816406 0.6875 -1.046875 C 0.613281 -1.285156 0.578125 -1.550781 0.578125 -1.84375 L 0.578125 -4.515625 L 1.046875 -4.515625 L 1.046875 -1.875 C 1.046875 -1.644531 1.070312 -1.4375 1.125 -1.25 C 1.1875 -1.070312 1.269531 -0.914062 1.375 -0.78125 C 1.476562 -0.65625 1.601562 -0.554688 1.75 -0.484375 C 1.894531 -0.410156 2.054688 -0.375 2.234375 -0.375 C 2.410156 -0.375 2.570312 -0.410156 2.71875 -0.484375 C 2.863281 -0.554688 2.988281 -0.65625 3.09375 -0.78125 C 3.195312 -0.914062 3.273438 -1.070312 3.328125 -1.25 C 3.390625 -1.4375 3.421875 -1.644531 3.421875 -1.875 L 3.421875 -4.515625 L 3.875 -4.515625 L 3.875 -1.84375 C 3.875 -1.550781 3.832031 -1.285156 3.75 -1.046875 C 3.664062 -0.816406 3.550781 -0.617188 3.40625 -0.453125 C 3.257812 -0.285156 3.082031 -0.15625 2.875 -0.0625 C 2.664062 0.0195312 2.441406 0.0625 2.203125 0.0625 Z M 2.203125 0.0625 "/></g></g></g><g fill="#000000" fill-opacity="1"><g transform="translate(249.178191, 203.625807)"><g><path d="M 0.609375 -4.515625 L 1.078125 -4.515625 L 1.078125 -0.4375 L 2.90625 -0.4375 L 2.90625 0 L 0.609375 0 Z M 0.609375 -4.515625 "/></g></g></g><g fill="#000000" fill-opacity="1"><g transform="translate(254.409527, 203.625807)"><g><path d="M 0.609375 -4.515625 L 2.9375 -4.515625 L 2.9375 -4.078125 L 1.078125 -4.078125 L 1.078125 -2.5625 L 2.5 -2.5625 L 2.5 -2.125 L 1.078125 -2.125 L 1.078125 -0.4375 L 2.96875 -0.4375 L 2.96875 0 L 0.609375 0 Z M 0.609375 -4.515625 "/></g></g></g><g fill="#000000" fill-opacity="1"><g transform="translate(259.809608, 203.625807)"><g><path d="M 1.6875 0.0625 C 1.382812 0.0625 1.101562 -0.0078125 0.84375 -0.15625 C 0.582031 -0.300781 0.367188 -0.507812 0.203125 -0.78125 L 0.5625 -1.078125 C 0.882812 -0.597656 1.265625 -0.359375 1.703125 -0.359375 C 1.960938 -0.359375 2.171875 -0.429688 2.328125 -0.578125 C 2.492188 -0.722656 2.578125 -0.914062 2.578125 -1.15625 C 2.578125 -1.363281 2.503906 -1.539062 2.359375 -1.6875 C 2.210938 -1.832031 1.976562 -1.972656 1.65625 -2.109375 C 1.25 -2.265625 0.953125 -2.445312 0.765625 -2.65625 C 0.585938 -2.875 0.5 -3.128906 0.5 -3.421875 C 0.5 -3.585938 0.523438 -3.742188 0.578125 -3.890625 C 0.640625 -4.035156 0.722656 -4.160156 0.828125 -4.265625 C 0.941406 -4.367188 1.070312 -4.445312 1.21875 -4.5 C 1.375 -4.5625 1.546875 -4.59375 1.734375 -4.59375 C 2.242188 -4.59375 2.671875 -4.363281 3.015625 -3.90625 L 2.640625 -3.609375 C 2.503906 -3.796875 2.359375 -3.929688 2.203125 -4.015625 C 2.054688 -4.109375 1.894531 -4.15625 1.71875 -4.15625 C 1.488281 -4.15625 1.304688 -4.085938 1.171875 -3.953125 C 1.035156 -3.828125 0.96875 -3.660156 0.96875 -3.453125 C 0.96875 -3.253906 1.035156 -3.082031 1.171875 -2.9375 C 1.316406 -2.800781 1.546875 -2.664062 1.859375 -2.53125 C 2.273438 -2.375 2.578125 -2.1875 2.765625 -1.96875 C 2.960938 -1.75 3.0625 -1.488281 3.0625 -1.1875 C 3.0625 -1.007812 3.023438 -0.84375 2.953125 -0.6875 C 2.890625 -0.53125 2.796875 -0.394531 2.671875 -0.28125 C 2.546875 -0.164062 2.398438 -0.078125 2.234375 -0.015625 C 2.066406 0.0351562 1.882812 0.0625 1.6875 0.0625 Z M 1.6875 0.0625 "/></g></g></g><g fill="#000000" fill-opacity="1"><g transform="translate(265.229941, 203.625807)"><g><path d="M 0.796875 0.03125 C 0.703125 0.03125 0.625 0 0.5625 -0.0625 C 0.5 -0.125 0.46875 -0.203125 0.46875 -0.296875 C 0.46875 -0.398438 0.5 -0.484375 0.5625 -0.546875 C 0.625 -0.609375 0.707031 -0.640625 0.8125 -0.640625 C 0.90625 -0.640625 0.984375 -0.609375 1.046875 -0.546875 C 1.109375 -0.484375 1.140625 -0.398438 1.140625 -0.296875 C 1.140625 -0.203125 1.109375 -0.125 1.046875 -0.0625 C 0.984375 0 0.898438 0.03125 0.796875 0.03125 Z M 0.796875 0.03125 "/></g></g></g></svg>