<svg xmlns="http://www.w3.org/2000/svg" xmlns:xlink="http://www.w3.org/1999/xlink" width="500" zoomAndPan="magnify" viewBox="0 0 375 374.999991" height="500" preserveAspectRatio="xMidYMid meet" version="1.0"><defs><g/><clipPath id="eb07ade752"><path d="M 82.941406 82.941406 L 292.191406 82.941406 L 292.191406 292.191406 L 82.941406 292.191406 Z M 82.941406 82.941406 " clip-rule="nonzero"/></clipPath><clipPath id="c12e2e68ce"><path d="M 187.566406 82.941406 C 129.785156 82.941406 82.941406 129.785156 82.941406 187.566406 C 82.941406 245.347656 129.785156 292.191406 187.566406 292.191406 C 245.347656 292.191406 292.191406 245.347656 292.191406 187.566406 C 292.191406 129.785156 245.347656 82.941406 187.566406 82.941406 Z M 187.566406 82.941406 " clip-rule="nonzero"/></clipPath><clipPath id="f81009c7ed"><path d="M 103.296875 103.296875 L 271.703125 103.296875 L 271.703125 271.703125 L 103.296875 271.703125 Z M 103.296875 103.296875 " clip-rule="nonzero"/></clipPath><clipPath id="16be856c3f"><path d="M 187.5 103.296875 C 140.996094 103.296875 103.296875 140.996094 103.296875 187.5 C 103.296875 234.003906 140.996094 271.703125 187.5 271.703125 C 234.003906 271.703125 271.703125 234.003906 271.703125 187.5 C 271.703125 140.996094 234.003906 103.296875 187.5 103.296875 Z M 187.5 103.296875 " clip-rule="nonzero"/></clipPath></defs><rect x="-37.5" width="450" fill="#ffffff" y="-37.499999" height="449.999989" fill-opacity="1"/><rect x="-37.5" width="450" fill="#f6f6f6" y="-37.499999" height="449.999989" fill-opacity="1"/><g clip-path="url(#eb07ade752)"><g clip-path="url(#c12e2e68ce)"><path stroke-linecap="butt" transform="matrix(0.750504, 0, 0, 0.750504, 82.94151, 82.941506)" fill="none" stroke-linejoin="miter" d="M 139.406114 -0.000132582 C 62.416221 -0.000132582 -0.000138578 62.416227 -0.000138578 139.40612 C -0.000138578 216.396012 62.416221 278.812372 139.406114 278.812372 C 216.396006 278.812372 278.812366 216.396012 278.812366 139.40612 C 278.812366 62.416227 216.396006 -0.000132582 139.406114 -0.000132582 Z M 139.406114 -0.000132582 " stroke="#272727" stroke-width="4" stroke-opacity="1" stroke-miterlimit="4"/></g></g><g clip-path="url(#f81009c7ed)"><g clip-path="url(#16be856c3f)"><path fill="#272727" d="M 103.296875 103.296875 L 271.703125 103.296875 L 271.703125 271.703125 L 103.296875 271.703125 Z M 103.296875 103.296875 " fill-opacity="1" fill-rule="nonzero"/></g></g><g fill="#f6f6f6" fill-opacity="1"><g transform="translate(126.983621, 203.249987)"><g><path d="M 23.257812 -1.570312 C 24.734375 -1 26.257812 -0.761719 27.824219 -1 C 28.109375 -1.046875 28.585938 -1.046875 28.585938 -1.378906 C 28.585938 -1.808594 28.109375 -1.664062 27.875 -1.710938 C 27.777344 -1.710938 27.730469 -1.710938 27.683594 -1.710938 C 25.449219 -1.617188 23.542969 -2.570312 21.785156 -3.851562 C 16.933594 -7.371094 12.984375 -11.75 10.226562 -17.125 C 6.800781 -23.925781 6.660156 -30.773438 9.847656 -37.671875 C 12.699219 -43.855469 17.027344 -48.800781 22.640625 -52.65625 C 25.636719 -54.699219 28.824219 -56.269531 32.4375 -56.886719 C 36.195312 -57.457031 39.097656 -56.222656 41.285156 -53.128906 C 42.378906 -51.511719 43.1875 -49.800781 43.761719 -47.945312 C 45.472656 -41.953125 45.042969 -35.910156 43.617188 -29.964844 C 40.90625 -18.550781 36.386719 -7.847656 30.820312 2.472656 C 30.585938 2.902344 30.300781 3.234375 29.824219 3.472656 C 28.347656 4.234375 26.921875 5.089844 25.589844 6.089844 C 22.210938 8.515625 19.074219 11.179688 16.695312 14.601562 C 15.695312 16.078125 14.839844 17.648438 14.792969 19.5 C 14.792969 20.644531 15.222656 21.117188 16.316406 21.355469 C 17.457031 21.59375 18.503906 21.308594 19.5 20.738281 C 20.785156 20.023438 21.832031 18.976562 22.832031 17.933594 C 26.828125 13.652344 29.726562 8.703125 32.582031 3.664062 C 32.773438 3.28125 33.058594 2.996094 33.4375 2.804688 C 36.910156 1.285156 40.335938 -0.191406 43.855469 -1.570312 C 44.09375 -1.664062 44.664062 -1.664062 44.519531 -2.09375 C 44.425781 -2.425781 43.949219 -2.332031 43.617188 -2.234375 C 43.238281 -2.1875 42.855469 -2.046875 42.523438 -1.902344 C 39.953125 -1.046875 37.480469 0 35.007812 1.046875 C 34.675781 1.1875 34.34375 1.425781 33.820312 1.425781 C 34.007812 1.046875 34.152344 0.664062 34.34375 0.332031 C 38.003906 -6.800781 41.332031 -14.125 43.710938 -21.832031 C 45.710938 -28.207031 47.375 -34.628906 46.945312 -41.429688 C 46.707031 -45.378906 45.949219 -49.132812 43.808594 -52.511719 C 41.714844 -55.839844 38.8125 -57.792969 34.769531 -57.886719 C 30.917969 -57.980469 27.398438 -56.886719 24.164062 -54.984375 C 16.980469 -50.894531 11.75 -45.042969 8.324219 -37.578125 C 5.042969 -30.347656 5.28125 -23.164062 8.988281 -16.171875 C 11.605469 -11.320312 15.078125 -7.230469 19.40625 -3.851562 C 20.59375 -2.949219 21.878906 -2.140625 23.257812 -1.570312 Z M 26.351562 10.132812 C 24.402344 13.316406 22.210938 16.363281 19.453125 18.929688 C 18.835938 19.5 18.21875 20.023438 17.457031 20.40625 C 16.695312 20.785156 16.316406 20.59375 16.265625 19.738281 C 16.21875 18.929688 16.410156 18.167969 16.695312 17.457031 C 17.265625 16.03125 18.121094 14.746094 19.074219 13.554688 C 21.878906 10.035156 25.351562 7.277344 29.347656 5.089844 C 28.347656 6.753906 27.351562 8.464844 26.351562 10.132812 Z M 26.351562 10.132812 "/></g></g></g><g fill="#f6f6f6" fill-opacity="1"><g transform="translate(177.819567, 203.249987)"><g><path d="M 8.894531 14.125 C 11.796875 15.507812 14.933594 16.03125 18.121094 15.742188 C 23.6875 15.316406 28.871094 13.652344 33.914062 11.320312 C 38.8125 9.085938 43.1875 6.039062 47.328125 2.570312 C 47.613281 2.332031 47.851562 2.09375 48.324219 2.140625 C 50.417969 2.425781 52.558594 2.332031 54.652344 2.1875 C 62.167969 1.664062 67.589844 -2.519531 72.441406 -7.707031 C 72.773438 -8.085938 72.535156 -8.277344 72.15625 -8.371094 C 71.632812 -8.417969 71.203125 -7.707031 70.824219 -7.421875 C 65.449219 -2.570312 61.167969 0.238281 53.984375 0.953125 C 52.464844 1.09375 50.894531 1.285156 49.183594 0.953125 C 49.46875 0.714844 49.65625 0.570312 49.800781 0.429688 C 71.539062 -19.40625 77.386719 -48.613281 63.355469 -51.464844 C 51.039062 -53.605469 32.960938 -31.582031 25.589844 -19.835938 C 25.496094 -20.167969 25.636719 -20.359375 25.734375 -20.546875 C 28.730469 -27.730469 32.25 -34.675781 36.433594 -41.238281 C 39.429688 -46.042969 42.761719 -50.515625 46.851562 -54.460938 C 48.46875 -55.984375 50.179688 -57.316406 52.179688 -58.21875 C 52.558594 -58.410156 52.890625 -58.503906 53.175781 -58.03125 C 53.414062 -57.648438 53.84375 -57.457031 54.273438 -57.695312 C 54.652344 -57.886719 55.082031 -58.125 55.128906 -58.648438 C 55.128906 -59.21875 54.652344 -59.410156 54.222656 -59.550781 C 53.984375 -59.597656 53.699219 -59.695312 53.464844 -59.695312 C 52.273438 -59.789062 51.132812 -59.597656 50.039062 -59.125 C 48.277344 -58.410156 46.707031 -57.316406 45.328125 -56.078125 C 40.238281 -51.558594 36.148438 -46.1875 32.582031 -40.429688 C 26.96875 -31.441406 22.734375 -21.785156 19.3125 -11.75 C 19.121094 -11.128906 18.882812 -10.988281 18.21875 -10.988281 C 13.414062 -11.273438 8.847656 -10.417969 4.804688 -7.707031 C -2.570312 -2.902344 -0.144531 9.796875 8.894531 14.125 Z M 23.59375 -10.558594 C 33.199219 -30.726562 50.894531 -51.179688 61.027344 -50.179688 C 64.117188 -49.847656 65.972656 -47.992188 66.925781 -44.519531 C 67.351562 -42.808594 67.445312 -41.046875 67.445312 -39.289062 C 67.351562 -32.390625 65.355469 -25.96875 62.214844 -19.882812 C 58.265625 -12.320312 52.941406 -5.804688 46.707031 0 C 46.28125 0.378906 45.949219 0.429688 45.378906 0.285156 C 40.761719 -0.953125 36.625 -3.234375 32.488281 -5.46875 C 29.585938 -6.992188 26.828125 -8.800781 23.734375 -9.796875 C 23.070312 -9.988281 23.496094 -10.320312 23.59375 -10.558594 Z M 7.941406 -7.5625 C 10.941406 -9.179688 14.175781 -9.894531 17.597656 -9.65625 C 18.597656 -9.5625 18.597656 -9.5625 18.3125 -8.65625 C 17.3125 -5.421875 16.316406 -2.28125 15.742188 1.046875 C 15.507812 2.425781 15.316406 3.804688 15.171875 5.230469 C 15.078125 5.660156 15.078125 6.089844 15.695312 6.183594 C 16.265625 6.324219 16.742188 6.324219 17.125 5.707031 C 17.789062 4.613281 18.074219 3.328125 18.457031 2.09375 C 19.550781 -1.285156 20.785156 -4.566406 22.261719 -7.800781 C 22.5 -8.371094 22.734375 -8.417969 23.257812 -8.179688 C 25.96875 -7.039062 28.492188 -5.46875 31.109375 -4.136719 C 33.296875 -3.042969 35.53125 -1.902344 37.765625 -0.902344 C 40.003906 0.144531 42.378906 0.808594 44.855469 1.570312 C 37.003906 8.371094 28.300781 13.367188 17.882812 14.460938 C 4.136719 15.980469 -2.570312 -2.09375 7.941406 -7.5625 Z M 7.941406 -7.5625 "/></g></g></g><path fill="#f6f6f6" d="M 78.007812 164.160156 C 77.648438 164.074219 77.304688 163.957031 76.96875 163.808594 C 76.636719 163.65625 76.316406 163.476562 76.019531 163.265625 C 75.71875 163.054688 75.445312 162.816406 75.191406 162.550781 C 74.9375 162.285156 74.714844 161.996094 74.515625 161.6875 C 74.320312 161.378906 74.15625 161.054688 74.019531 160.714844 C 73.886719 160.371094 73.789062 160.023438 73.722656 159.660156 C 73.65625 159.300781 73.625 158.9375 73.632812 158.570312 C 73.636719 158.207031 73.675781 157.84375 73.753906 157.484375 C 74.289062 155.449219 74.882812 153.429688 75.535156 151.429688 C 76.1875 149.429688 76.894531 147.445312 77.660156 145.484375 C 78.421875 143.523438 79.242188 141.585938 80.117188 139.667969 C 80.988281 137.753906 81.917969 135.863281 82.898438 134 C 83.878906 132.136719 84.910156 130.300781 85.996094 128.496094 C 87.078125 126.6875 88.214844 124.914062 89.398438 123.171875 C 90.582031 121.429688 91.816406 119.722656 93.097656 118.050781 C 94.378906 116.375 95.707031 114.742188 97.078125 113.144531 C 98.453125 111.542969 99.871094 109.988281 101.332031 108.46875 C 102.792969 106.949219 104.296875 105.472656 105.84375 104.039062 C 107.386719 102.605469 108.972656 101.214844 110.597656 99.871094 C 112.21875 98.527344 113.878906 97.226562 115.578125 95.976562 C 117.273438 94.726562 119.003906 93.523438 120.769531 92.367188 C 122.535156 91.214844 124.332031 90.113281 126.15625 89.058594 C 127.984375 88.007812 129.839844 87.003906 131.722656 86.058594 C 133.605469 85.109375 135.515625 84.214844 137.449219 83.375 C 139.382812 82.53125 141.339844 81.746094 143.316406 81.015625 C 145.296875 80.285156 147.292969 79.613281 149.308594 78.992188 C 151.324219 78.375 153.359375 77.8125 155.40625 77.3125 C 157.453125 76.808594 159.511719 76.363281 161.585938 75.972656 C 163.65625 75.585938 165.738281 75.257812 167.832031 74.988281 C 169.921875 74.71875 172.019531 74.507812 174.121094 74.355469 C 176.222656 74.203125 178.328125 74.109375 180.4375 74.078125 C 182.542969 74.042969 184.648438 74.070312 186.753906 74.15625 C 188.859375 74.242188 190.960938 74.386719 193.058594 74.589844 C 195.15625 74.792969 197.246094 75.058594 199.328125 75.378906 C 201.410156 75.699219 203.480469 76.082031 205.542969 76.519531 C 207.601562 76.957031 209.648438 77.453125 211.679688 78.007812 C 213.710938 78.5625 215.726562 79.175781 217.722656 79.84375 C 219.71875 80.511719 221.695312 81.234375 223.652344 82.011719 C 225.605469 82.792969 227.539062 83.625 229.445312 84.515625 C 231.355469 85.402344 233.238281 86.34375 235.089844 87.339844 C 235.40625 87.53125 235.699219 87.746094 235.96875 87.992188 C 236.238281 88.238281 236.484375 88.511719 236.703125 88.804688 C 236.921875 89.097656 237.113281 89.410156 237.269531 89.738281 C 237.425781 90.070312 237.550781 90.414062 237.644531 90.765625 C 237.734375 91.121094 237.792969 91.480469 237.8125 91.847656 C 237.835938 92.214844 237.820312 92.578125 237.773438 92.941406 C 237.722656 93.304688 237.640625 93.660156 237.523438 94.007812 C 237.402344 94.355469 237.253906 94.6875 237.070312 95.003906 L 231.164062 104.714844 C 230.976562 105.046875 230.757812 105.355469 230.507812 105.644531 C 230.261719 105.929688 229.984375 106.191406 229.683594 106.425781 C 229.378906 106.65625 229.058594 106.855469 228.714844 107.023438 C 228.375 107.191406 228.019531 107.324219 227.652344 107.421875 C 227.28125 107.519531 226.90625 107.578125 226.527344 107.601562 C 226.148438 107.621094 225.769531 107.605469 225.390625 107.550781 C 225.015625 107.5 224.648438 107.40625 224.289062 107.28125 C 223.929688 107.152344 223.585938 106.988281 223.261719 106.792969 C 221.796875 106.03125 220.308594 105.308594 218.800781 104.628906 C 217.296875 103.953125 215.769531 103.3125 214.230469 102.71875 C 212.6875 102.125 211.128906 101.574219 209.554688 101.066406 C 207.980469 100.558594 206.394531 100.09375 204.792969 99.675781 C 203.195312 99.253906 201.585938 98.878906 199.964844 98.550781 C 198.34375 98.21875 196.714844 97.933594 195.078125 97.695312 C 193.441406 97.457031 191.796875 97.261719 190.148438 97.113281 C 188.5 96.964844 186.851562 96.863281 185.195312 96.804688 C 183.542969 96.75 181.886719 96.738281 180.234375 96.773438 C 178.578125 96.808594 176.925781 96.890625 175.273438 97.019531 C 173.625 97.144531 171.980469 97.320312 170.339844 97.539062 C 168.695312 97.757812 167.0625 98.019531 165.4375 98.332031 C 163.808594 98.640625 162.195312 98.996094 160.585938 99.394531 C 158.980469 99.792969 157.386719 100.238281 155.800781 100.726562 C 154.21875 101.210938 152.652344 101.742188 151.097656 102.320312 C 149.546875 102.894531 148.011719 103.511719 146.492188 104.171875 C 144.972656 104.832031 143.472656 105.535156 141.996094 106.277344 C 140.515625 107.019531 139.058594 107.804688 137.621094 108.628906 C 136.183594 109.453125 134.773438 110.316406 133.382812 111.21875 C 131.996094 112.121094 130.632812 113.0625 129.296875 114.042969 C 127.964844 115.019531 126.65625 116.035156 125.375 117.085938 C 124.097656 118.136719 122.847656 119.222656 121.628906 120.34375 C 120.410156 121.460938 119.222656 122.617188 118.070312 123.800781 C 116.914062 124.988281 115.792969 126.203125 114.707031 127.453125 C 113.621094 128.699219 112.570312 129.976562 111.550781 131.285156 C 110.535156 132.589844 109.558594 133.921875 108.617188 135.285156 C 107.675781 136.644531 106.773438 138.03125 105.910156 139.441406 C 105.046875 140.851562 104.222656 142.285156 103.4375 143.742188 C 102.652344 145.195312 101.910156 146.671875 101.207031 148.171875 C 100.503906 149.667969 99.847656 151.183594 99.230469 152.71875 C 98.613281 154.25 98.039062 155.800781 97.507812 157.367188 C 96.976562 158.929688 96.488281 160.507812 96.046875 162.101562 C 95.96875 162.472656 95.851562 162.835938 95.703125 163.183594 C 95.550781 163.535156 95.367188 163.863281 95.148438 164.175781 C 94.933594 164.488281 94.683594 164.777344 94.410156 165.039062 C 94.132812 165.304688 93.835938 165.535156 93.511719 165.742188 C 93.191406 165.945312 92.851562 166.113281 92.496094 166.25 C 92.140625 166.382812 91.773438 166.484375 91.398438 166.546875 C 91.019531 166.605469 90.644531 166.632812 90.261719 166.617188 C 89.882812 166.605469 89.507812 166.550781 89.136719 166.464844 Z M 78.007812 164.160156 " fill-opacity="1" fill-rule="nonzero"/><g fill="#272727" fill-opacity="1"><g transform="translate(88.740107, 164.310338)"><g><path d="M -1.628906 -2.433594 C -1.820312 -1.734375 -2.210938 -1.308594 -2.832031 -1.171875 L -2.847656 -1.125 L 0.0703125 -0.324219 C 0.308594 -0.753906 0.511719 -1.246094 0.667969 -1.804688 C 1.378906 -4.402344 0.675781 -6.277344 -2.417969 -7.125 L -9.191406 -8.980469 L -9.847656 -6.589844 L -3.265625 -4.785156 C -2.132812 -4.476562 -1.160156 -4.140625 -1.628906 -2.433594 Z M -1.628906 -2.433594 "/></g></g></g><g fill="#272727" fill-opacity="1"><g transform="translate(91.759822, 153.80211)"><g><path d="M -7.394531 -11.347656 L -1.414062 -8.808594 C 0.015625 -8.199219 0.640625 -7.433594 -0.0234375 -5.863281 C -0.683594 -4.3125 -1.675781 -4.214844 -3.105469 -4.820312 L -9.085938 -7.359375 L -10.054688 -5.078125 L -3.742188 -2.398438 C -0.988281 -1.226562 1.113281 -2.203125 2.257812 -4.894531 C 3.402344 -7.589844 2.644531 -9.777344 -0.109375 -10.949219 L -6.425781 -13.628906 Z M -7.394531 -11.347656 "/></g></g></g><g fill="#272727" fill-opacity="1"><g transform="translate(97.800879, 140.49414)"><g><path d="M 0.511719 -0.851562 L 3.863281 -6.433594 L 1.933594 -7.589844 L -0.140625 -4.132812 L -7.851562 -8.761719 L -9.128906 -6.632812 Z M 0.511719 -0.851562 "/></g></g></g><g fill="#272727" fill-opacity="1"><g transform="translate(104.280715, 130.302142)"><g><path d="M 2.09375 -2.765625 L -6.867188 -9.554688 L -8.363281 -7.578125 L 0.597656 -0.789062 Z M 2.09375 -2.765625 "/></g></g></g><g fill="#272727" fill-opacity="1"><g transform="translate(109.471565, 123.626515)"><g><path d="M 3.523438 -6.996094 L 0.753906 -4.066406 L -0.890625 -5.621094 L 1.765625 -8.433594 L 0.132812 -9.976562 L -2.523438 -7.167969 L -4.144531 -8.703125 L -1.375 -11.632812 L -3.007812 -13.175781 L -7.484375 -8.445312 L 0.683594 -0.71875 L 5.15625 -5.449219 Z M 3.523438 -6.996094 "/></g></g></g><g fill="#272727" fill-opacity="1"><g transform="translate(118.08515, 114.80032)"><g><path d="M 7.683594 -6.109375 L 0.6875 -14.910156 L -1.25 -13.367188 L 3.109375 -7.878906 L -4.277344 -10.957031 L -6.21875 -9.414062 L 0.777344 -0.617188 L 2.71875 -2.160156 L -1.644531 -7.644531 L 5.746094 -4.566406 Z M 7.683594 -6.109375 "/></g></g></g><g fill="#272727" fill-opacity="1"><g transform="translate(129.887147, 105.969655)"><g/></g></g><g fill="#272727" fill-opacity="1"><g transform="translate(136.797252, 101.764816)"><g><path d="M 2.160156 -3.515625 L -0.644531 -9.558594 L 0.03125 -9.871094 C 1.769531 -10.679688 3.550781 -9.902344 4.339844 -8.207031 C 5.125 -6.511719 4.558594 -4.628906 2.832031 -3.828125 Z M -3.832031 -10.613281 L 0.898438 -0.417969 L 3.929688 -1.824219 C 6.824219 -3.164062 7.96875 -6.394531 6.632812 -9.273438 C 5.296875 -12.152344 2.078125 -13.355469 -0.800781 -12.019531 Z M -3.832031 -10.613281 "/></g></g></g><g fill="#272727" fill-opacity="1"><g transform="translate(149.866068, 96.00603)"><g><path d="M 4.109375 -12.902344 L 5.925781 -6.667969 C 6.359375 -5.175781 6.160156 -4.203125 4.527344 -3.726562 C 2.90625 -3.257812 2.203125 -3.964844 1.769531 -5.457031 L -0.046875 -11.691406 L -2.429688 -11 L -0.511719 -4.414062 C 0.324219 -1.542969 2.410156 -0.53125 5.21875 -1.347656 C 8.03125 -2.164062 9.246094 -4.136719 8.410156 -7.011719 L 6.492188 -13.597656 Z M 4.109375 -12.902344 "/></g></g></g><g fill="#272727" fill-opacity="1"><g transform="translate(163.967388, 92.251119)"><g><path d="M 4.460938 -9.707031 L 7.636719 -10.152344 L 7.324219 -12.378906 L -1.480469 -11.144531 L -1.167969 -8.917969 L 2.007812 -9.363281 L 3.257812 -0.457031 L 5.714844 -0.800781 Z M 4.460938 -9.707031 "/></g></g></g><g fill="#272727" fill-opacity="1"><g transform="translate(176.793458, 90.713688)"><g><path d="M 3.457031 -4.03125 L 3.472656 -4.03125 L 6.164062 -0.0234375 L 9.304688 -0.0351562 L 6.066406 -4.15625 C 7.488281 -4.507812 8.621094 -5.769531 8.613281 -7.671875 C 8.605469 -9.804688 6.980469 -11.269531 5.164062 -11.261719 L 3.425781 -11.253906 L 2.816406 -11.25 L 0.949219 -11.246094 L 0.992188 -0.00390625 L 3.472656 -0.0117188 Z M 4.757812 -9.308594 C 5.484375 -9.3125 6.246094 -8.6875 6.25 -7.660156 C 6.253906 -6.585938 5.496094 -5.988281 4.769531 -5.984375 L 3.449219 -5.980469 L 3.433594 -9.304688 Z M 4.757812 -9.308594 "/></g></g></g><g fill="#272727" fill-opacity="1"><g transform="translate(189.721434, 90.876647)"><g><path d="M 9.050781 -10.074219 L 8.144531 -3.640625 C 7.925781 -2.105469 7.34375 -1.300781 5.660156 -1.539062 C 3.988281 -1.773438 3.636719 -2.707031 3.855469 -4.246094 L 4.761719 -10.679688 L 2.308594 -11.027344 L 1.347656 -4.234375 C 0.929688 -1.269531 2.414062 0.507812 5.3125 0.917969 C 8.210938 1.324219 10.128906 0.0273438 10.546875 -2.9375 L 11.503906 -9.726562 Z M 9.050781 -10.074219 "/></g></g></g><g fill="#272727" fill-opacity="1"><g transform="translate(204.066957, 93.143665)"><g><path d="M 9.828125 -0.957031 C 9.09375 -0.144531 7.820312 0.171875 6.714844 -0.171875 C 4.976562 -0.710938 4.046875 -2.625 4.613281 -4.457031 C 5.175781 -6.273438 7.03125 -7.34375 8.765625 -6.804688 C 9.855469 -6.46875 10.746094 -5.535156 10.890625 -4.433594 L 13.527344 -3.617188 C 13.480469 -6.039062 11.898438 -8.257812 9.449219 -9.015625 C 6.402344 -9.957031 3.15625 -8.246094 2.214844 -5.199219 C 1.269531 -2.148438 2.984375 1.097656 6.03125 2.039062 C 8.480469 2.796875 11.054688 1.847656 12.46875 -0.140625 Z M 9.828125 -0.957031 "/></g></g></g><g fill="#272727" fill-opacity="1"><g transform="translate(219.260306, 98.216816)"><g><path d="M 11.417969 -6.886719 L 9.429688 -2.871094 L 6.113281 -4.515625 L 8.101562 -8.53125 L 5.878906 -9.632812 L 0.886719 0.441406 L 3.109375 1.542969 L 5.113281 -2.503906 L 8.433594 -0.859375 L 6.429688 3.183594 L 8.796875 4.359375 L 13.789062 -5.710938 Z M 11.417969 -6.886719 "/></g></g></g><path fill="#f6f6f6" d="M 295.5 209.230469 C 295.878906 209.332031 296.246094 209.464844 296.597656 209.636719 C 296.949219 209.804688 297.285156 210.007812 297.597656 210.242188 C 297.910156 210.476562 298.195312 210.738281 298.457031 211.03125 C 298.71875 211.320312 298.949219 211.632812 299.152344 211.96875 C 299.351562 212.304688 299.515625 212.65625 299.648438 213.027344 C 299.78125 213.394531 299.875 213.773438 299.933594 214.160156 C 299.992188 214.546875 300.011719 214.9375 299.996094 215.328125 C 299.976562 215.722656 299.921875 216.109375 299.832031 216.492188 C 299 219.285156 298.070312 222.046875 297.039062 224.773438 C 296.003906 227.5 294.871094 230.1875 293.640625 232.832031 C 292.410156 235.480469 291.085938 238.078125 289.664062 240.625 C 288.242188 243.175781 286.730469 245.671875 285.125 248.109375 C 283.519531 250.550781 281.828125 252.929688 280.046875 255.246094 C 278.265625 257.5625 276.40625 259.808594 274.460938 261.992188 C 272.515625 264.171875 270.492188 266.277344 268.394531 268.3125 C 266.292969 270.34375 264.125 272.296875 261.882812 274.171875 C 259.640625 276.046875 257.332031 277.835938 254.960938 279.539062 C 252.585938 281.246094 250.15625 282.863281 247.664062 284.390625 C 245.171875 285.917969 242.628906 287.351562 240.035156 288.691406 C 237.4375 290.03125 234.796875 291.277344 232.113281 292.421875 C 229.425781 293.570312 226.703125 294.617188 223.941406 295.566406 C 221.179688 296.511719 218.386719 297.355469 215.566406 298.097656 C 212.746094 298.839844 209.898438 299.476562 207.03125 300.011719 C 204.164062 300.542969 201.28125 300.972656 198.382812 301.292969 C 197.992188 301.316406 197.601562 301.300781 197.210938 301.246094 C 196.824219 301.195312 196.445312 301.105469 196.074219 300.980469 C 195.703125 300.855469 195.347656 300.695312 195.007812 300.5 C 194.667969 300.304688 194.351562 300.078125 194.054688 299.820312 C 193.761719 299.5625 193.492188 299.28125 193.253906 298.972656 C 193.015625 298.664062 192.808594 298.335938 192.632812 297.984375 C 192.457031 297.636719 192.316406 297.273438 192.210938 296.894531 C 192.105469 296.519531 192.039062 296.132812 192.007812 295.742188 L 191.386719 283.617188 C 191.351562 283.210938 191.359375 282.804688 191.40625 282.402344 C 191.453125 281.996094 191.542969 281.601562 191.667969 281.210938 C 191.796875 280.824219 191.960938 280.453125 192.160156 280.097656 C 192.363281 279.742188 192.597656 279.410156 192.867188 279.101562 C 193.136719 278.792969 193.429688 278.511719 193.753906 278.261719 C 194.078125 278.015625 194.425781 277.796875 194.789062 277.617188 C 195.15625 277.4375 195.539062 277.292969 195.933594 277.191406 C 196.328125 277.085938 196.730469 277.019531 197.136719 276.996094 C 199.382812 276.71875 201.617188 276.359375 203.839844 275.917969 C 206.0625 275.480469 208.265625 274.960938 210.453125 274.363281 C 212.640625 273.765625 214.800781 273.089844 216.941406 272.335938 C 219.082031 271.582031 221.191406 270.753906 223.269531 269.847656 C 225.351562 268.945312 227.394531 267.964844 229.40625 266.914062 C 231.417969 265.863281 233.386719 264.742188 235.320312 263.546875 C 237.25 262.355469 239.136719 261.09375 240.976562 259.769531 C 242.816406 258.441406 244.609375 257.046875 246.351562 255.59375 C 248.089844 254.136719 249.777344 252.621094 251.410156 251.042969 C 253.046875 249.46875 254.621094 247.835938 256.136719 246.148438 C 257.652344 244.457031 259.105469 242.71875 260.496094 240.925781 C 261.886719 239.132812 263.214844 237.292969 264.472656 235.40625 C 265.730469 233.519531 266.921875 231.589844 268.042969 229.621094 C 269.164062 227.648438 270.210938 225.640625 271.1875 223.59375 C 272.164062 221.546875 273.066406 219.472656 273.890625 217.363281 C 274.71875 215.253906 275.46875 213.117188 276.140625 210.953125 C 276.238281 210.558594 276.371094 210.175781 276.542969 209.804688 C 276.71875 209.433594 276.925781 209.085938 277.167969 208.757812 C 277.410156 208.429688 277.683594 208.125 277.988281 207.851562 C 278.289062 207.578125 278.617188 207.335938 278.96875 207.125 C 279.320312 206.917969 279.6875 206.746094 280.074219 206.609375 C 280.460938 206.472656 280.855469 206.378906 281.257812 206.320312 C 281.664062 206.265625 282.070312 206.25 282.476562 206.273438 C 282.882812 206.300781 283.28125 206.363281 283.675781 206.46875 Z M 295.5 209.230469 " fill-opacity="1" fill-rule="nonzero"/><g fill="#272727" fill-opacity="1"><g transform="translate(195.629318, 295.551713)"><g><path d="M 9.65625 -7.347656 C 9.539062 -8.199219 9.257812 -8.957031 8.84375 -9.640625 C 8.429688 -10.328125 7.910156 -10.894531 7.300781 -11.339844 C 6.671875 -11.785156 5.976562 -12.09375 5.207031 -12.289062 C 4.417969 -12.480469 3.597656 -12.527344 2.765625 -12.414062 L -0.328125 -11.988281 L 1.300781 -0.179688 L 4.394531 -0.605469 C 5.226562 -0.722656 6.003906 -0.96875 6.710938 -1.367188 C 7.398438 -1.765625 7.984375 -2.269531 8.46875 -2.867188 C 8.933594 -3.460938 9.285156 -4.128906 9.496094 -4.902344 C 9.710938 -5.675781 9.773438 -6.480469 9.65625 -7.347656 Z M 8.476562 -7.183594 C 8.660156 -5.832031 8.332031 -4.636719 7.515625 -3.621094 C 6.699219 -2.605469 5.613281 -2.011719 4.261719 -1.828125 L 2.351562 -1.5625 L 1.054688 -10.9375 L 2.964844 -11.203125 C 4.320312 -11.390625 5.527344 -11.09375 6.585938 -10.355469 C 7.648438 -9.582031 8.289062 -8.523438 8.476562 -7.183594 Z M 8.476562 -7.183594 "/></g></g></g><g fill="#272727" fill-opacity="1"><g transform="translate(212.435012, 292.759176)"><g><path d="M 8.066406 -2.328125 L 7.75 -3.421875 L 2.125 -1.800781 L 0.949219 -5.875 L 6.40625 -7.449219 L 6.085938 -8.5625 L 0.628906 -6.984375 L -0.546875 -11.0625 L 5.074219 -12.683594 L 4.761719 -13.78125 L -2.042969 -11.816406 L 1.261719 -0.363281 Z M 8.066406 -2.328125 "/></g></g></g><g fill="#272727" fill-opacity="1"><g transform="translate(227.118768, 288.151077)"><g><path d="M 5.390625 -1.644531 L 5.109375 -15.386719 L 3.898438 -14.835938 L 4.144531 -4.410156 L -3.53125 -11.484375 L -4.746094 -10.933594 Z M 5.390625 -1.644531 "/></g></g></g><g fill="#272727" fill-opacity="1"><g transform="translate(242.270974, 280.806082)"><g><path d="M 7.082031 -4.511719 L 6.46875 -5.472656 L 1.53125 -2.328125 L -0.746094 -5.902344 L 4.042969 -8.957031 L 3.421875 -9.929688 L -1.371094 -6.878906 L -3.648438 -10.457031 L 1.289062 -13.601562 L 0.675781 -14.5625 L -5.296875 -10.757812 L 1.109375 -0.707031 Z M 7.082031 -4.511719 "/></g></g></g><g fill="#272727" fill-opacity="1"><g transform="translate(254.914968, 272.247044)"><g><path d="M 1.175781 -2.566406 L -5.644531 -10.800781 L -6.589844 -10.019531 L 1.011719 -0.839844 L 1.957031 -1.621094 L 5.238281 -4.335938 L 4.457031 -5.28125 Z M 1.175781 -2.566406 "/></g></g></g><g fill="#272727" fill-opacity="1"><g transform="translate(264.700669, 263.925677)"><g><path d="M 3.484375 -12.78125 C 4.496094 -11.863281 5.027344 -10.722656 5.09375 -9.386719 C 5.160156 -8.023438 4.734375 -6.851562 3.828125 -5.847656 C 2.921875 -4.847656 1.796875 -4.308594 0.445312 -4.253906 C -0.902344 -4.175781 -2.078125 -4.601562 -3.089844 -5.515625 C -4.078125 -6.410156 -4.617188 -7.539062 -4.6875 -8.898438 C -4.753906 -10.238281 -4.339844 -11.421875 -3.433594 -12.425781 C -2.527344 -13.425781 -1.390625 -13.953125 -0.0390625 -14.03125 C 1.308594 -14.085938 2.496094 -13.675781 3.484375 -12.78125 Z M 4.308594 -13.691406 C 3.683594 -14.253906 2.980469 -14.65625 2.210938 -14.925781 C 1.453125 -15.1875 0.679688 -15.296875 -0.113281 -15.257812 C -0.894531 -15.207031 -1.652344 -15.019531 -2.382812 -14.6875 C -3.121094 -14.339844 -3.78125 -13.871094 -4.34375 -13.246094 C -4.910156 -12.625 -5.320312 -11.910156 -5.582031 -11.152344 C -5.839844 -10.394531 -5.949219 -9.617188 -5.925781 -8.839844 C -5.886719 -8.046875 -5.699219 -7.285156 -5.363281 -6.558594 C -5.015625 -5.820312 -4.539062 -5.171875 -3.914062 -4.609375 C -3.289062 -4.042969 -2.585938 -3.617188 -1.828125 -3.359375 C -1.058594 -3.085938 -0.285156 -2.976562 0.507812 -3.015625 C 1.300781 -3.054688 2.058594 -3.242188 2.789062 -3.574219 C 3.515625 -3.910156 4.175781 -4.402344 4.738281 -5.027344 C 5.304688 -5.648438 5.714844 -6.339844 5.988281 -7.109375 C 6.246094 -7.867188 6.359375 -8.644531 6.320312 -9.433594 C 6.277344 -10.226562 6.09375 -10.988281 5.746094 -11.726562 C 5.410156 -12.453125 4.929688 -13.125 4.308594 -13.691406 Z M 4.308594 -13.691406 "/></g></g></g><g fill="#272727" fill-opacity="1"><g transform="translate(277.363975, 249.018858)"><g><path d="M -3.535156 -5.371094 L -7.578125 -8.03125 L -6.054688 -10.34375 C -5.660156 -10.945312 -5.152344 -11.300781 -4.542969 -11.425781 C -3.933594 -11.527344 -3.339844 -11.410156 -2.753906 -11.023438 C -2.152344 -10.628906 -1.792969 -10.121094 -1.648438 -9.480469 C -1.519531 -8.847656 -1.636719 -8.253906 -2.015625 -7.683594 Z M -2.046875 -12.03125 C -2.925781 -12.609375 -3.855469 -12.757812 -4.832031 -12.519531 C -5.792969 -12.269531 -6.554688 -11.722656 -7.132812 -10.84375 L -9.234375 -7.652344 L 0.722656 -1.097656 L 1.398438 -2.121094 L -2.539062 -4.714844 L -1.113281 -6.882812 C -0.535156 -7.761719 -0.324219 -8.691406 -0.484375 -9.65625 C -0.664062 -10.65625 -1.171875 -11.453125 -2.046875 -12.03125 Z M -2.046875 -12.03125 "/></g></g></g><g fill="#272727" fill-opacity="1"><g transform="translate(285.249393, 236.382279)"><g><path d="M 3.636719 -7.566406 L 2.609375 -8.0625 L 0.0742188 -2.785156 L -3.75 -4.621094 L -1.289062 -9.738281 L -2.332031 -10.242188 L -4.792969 -5.121094 L -8.613281 -6.960938 L -6.078125 -12.234375 L -7.105469 -12.730469 L -10.171875 -6.347656 L 0.570312 -1.183594 Z M 3.636719 -7.566406 "/></g></g></g><g fill="#272727" fill-opacity="1"><g transform="translate(291.542177, 222.392542)"><g><path d="M -4.824219 -4.230469 L -9.441406 -5.722656 L -8.589844 -8.355469 C -8.371094 -9.039062 -7.976562 -9.519531 -7.40625 -9.796875 C -6.84375 -10.058594 -6.242188 -10.101562 -5.574219 -9.886719 C -4.90625 -9.671875 -4.425781 -9.277344 -4.117188 -8.699219 C -3.804688 -8.117188 -3.761719 -7.515625 -3.972656 -6.863281 Z M -5.179688 -11.050781 C -6.148438 -11.363281 -7.097656 -11.265625 -7.976562 -10.773438 C -8.832031 -10.292969 -9.4375 -9.550781 -9.761719 -8.550781 L -10.9375 -4.914062 L 0.402344 -1.25 L 0.78125 -2.417969 L -3.707031 -3.867188 L -3.269531 -5.21875 L 2.296875 -7.105469 L 2.800781 -8.671875 L -2.816406 -6.621094 C -2.582031 -7.519531 -2.65625 -8.371094 -3.039062 -9.179688 C -3.464844 -10.089844 -4.179688 -10.726562 -5.179688 -11.050781 Z M -5.179688 -11.050781 "/></g></g></g></svg>