<svg xmlns="http://www.w3.org/2000/svg" xmlns:xlink="http://www.w3.org/1999/xlink" width="500" zoomAndPan="magnify" viewBox="0 0 375 374.999991" height="500" preserveAspectRatio="xMidYMid meet" version="1.0"><defs><g/><clipPath id="52fafe2f5a"><path d="M 122.304688 167.230469 L 240.042969 167.230469 L 240.042969 207.730469 L 122.304688 207.730469 Z M 122.304688 167.230469 " clip-rule="nonzero"/></clipPath><clipPath id="4be2b42488"><path d="M 126.273438 171.039062 L 195.898438 171.039062 L 195.898438 203.960938 L 126.273438 203.960938 Z M 126.273438 171.039062 " clip-rule="nonzero"/></clipPath></defs><rect x="-37.5" width="450" fill="#ffffff" y="-37.499999" height="449.999989" fill-opacity="1"/><rect x="-37.5" width="450" fill="#ffffff" y="-37.499999" height="449.999989" fill-opacity="1"/><g clip-path="url(#52fafe2f5a)"><path stroke-linecap="butt" transform="matrix(0.749701, 0, 0, 0.749349, 122.303778, 167.230127)" fill="none" stroke-linejoin="miter" d="M 0.00121306 0.000456571 L 157.048095 0.000456571 L 157.048095 54.047335 L 0.00121306 54.047335 Z M 0.00121306 0.000456571 " stroke="#000000" stroke-width="4" stroke-opacity="1" stroke-miterlimit="4"/></g><g clip-path="url(#4be2b42488)"><path fill="#000000" d="M 126.273438 171.039062 L 195.898438 171.039062 L 195.898438 203.960938 L 126.273438 203.960938 Z M 126.273438 171.039062 " fill-opacity="1" fill-rule="nonzero"/></g><g fill="#ffffff" fill-opacity="1"><g transform="translate(131.285181, 192.62905)"><g><path d="M 1.613281 0 L 3 0 L 3 -4.660156 L 7.535156 -4.660156 L 7.535156 -5.941406 L 3 -5.941406 L 3 -9.765625 L 7.945312 -9.765625 L 7.945312 -11.058594 L 1.613281 -11.058594 Z M 1.613281 0 "/></g></g></g><g fill="#ffffff" fill-opacity="1"><g transform="translate(141.299011, 192.62905)"><g><path d="M 1.613281 0 L 3 0 L 3 -3.964844 L 5.433594 -3.964844 L 8.136719 0 L 9.8125 0 L 7.03125 -4.109375 C 8.640625 -4.503906 9.636719 -5.71875 9.636719 -7.503906 C 9.636719 -9.699219 8.121094 -11.058594 5.828125 -11.058594 L 1.613281 -11.058594 Z M 3 -5.292969 L 3 -9.730469 L 5.671875 -9.730469 C 7.285156 -9.730469 8.214844 -8.910156 8.214844 -7.503906 C 8.214844 -6.097656 7.285156 -5.292969 5.671875 -5.292969 Z M 3 -5.292969 "/></g></g></g><g fill="#ffffff" fill-opacity="1"><g transform="translate(153.255497, 192.62905)"><g><path d="M 6.636719 0.207031 C 10 0.207031 12.371094 -2.164062 12.371094 -5.53125 C 12.371094 -8.894531 10 -11.265625 6.636719 -11.265625 C 3.269531 -11.265625 0.917969 -8.894531 0.917969 -5.53125 C 0.917969 -2.164062 3.269531 0.207031 6.636719 0.207031 Z M 2.339844 -5.53125 C 2.339844 -8.105469 4.09375 -9.875 6.636719 -9.875 C 9.179688 -9.875 10.933594 -8.105469 10.933594 -5.53125 C 10.933594 -2.953125 9.179688 -1.183594 6.636719 -1.183594 C 4.09375 -1.183594 2.339844 -2.953125 2.339844 -5.53125 Z M 2.339844 -5.53125 "/></g></g></g><g fill="#ffffff" fill-opacity="1"><g transform="translate(167.723212, 192.62905)"><g><path d="M 1.613281 0 L 2.984375 0 L 2.984375 -8.65625 L 9.101562 0 L 10.394531 0 L 10.394531 -11.058594 L 9.039062 -11.058594 L 9.039062 -2.402344 L 2.921875 -11.058594 L 1.613281 -11.058594 Z M 1.613281 0 "/></g></g></g><g fill="#ffffff" fill-opacity="1"><g transform="translate(180.927414, 192.62905)"><g><path d="M 4.28125 0 L 5.671875 0 L 5.671875 -9.730469 L 9.402344 -9.730469 L 9.402344 -11.058594 L 0.539062 -11.058594 L 0.539062 -9.730469 L 4.28125 -9.730469 Z M 4.28125 0 "/></g></g></g><g fill="#000000" fill-opacity="1"><g transform="translate(198.659748, 192.847139)"><g><path d="M 1.167969 0 L 8.925781 0 L 8.925781 -2.605469 L 4.328125 -2.605469 L 4.328125 -4.3125 L 8.324219 -4.3125 L 8.324219 -6.871094 L 4.328125 -6.871094 L 4.328125 -8.484375 L 8.753906 -8.484375 L 8.753906 -11.058594 L 1.167969 -11.058594 Z M 1.167969 0 "/></g></g></g><g fill="#000000" fill-opacity="1"><g transform="translate(208.296417, 192.847139)"><g><path d="M 1.167969 0 L 4.328125 0 L 4.328125 -5.640625 L 8.53125 0 L 11.121094 0 L 11.121094 -11.058594 L 7.976562 -11.058594 L 7.976562 -5.449219 L 3.777344 -11.058594 L 1.167969 -11.058594 Z M 1.167969 0 "/></g></g></g><g fill="#000000" fill-opacity="1"><g transform="translate(220.60292, 192.847139)"><g><path d="M 1.167969 0 L 5.863281 0 C 9.433594 0 11.800781 -2.195312 11.800781 -5.53125 C 11.800781 -8.847656 9.433594 -11.058594 5.863281 -11.058594 L 1.167969 -11.058594 Z M 4.359375 -2.859375 L 4.359375 -8.199219 L 5.765625 -8.199219 C 7.457031 -8.199219 8.546875 -7.15625 8.546875 -5.53125 C 8.546875 -3.902344 7.457031 -2.859375 5.765625 -2.859375 Z M 4.359375 -2.859375 "/></g></g></g><g fill="#000000" fill-opacity="1"><g transform="translate(186.021995, 221.680004)"><g><path d="M 2.273438 0.167969 C 2.289062 0.152344 2.289062 0.152344 2.289062 0.117188 L 2.742188 -0.117188 C 3.476562 -0.484375 4.179688 -0.917969 4.898438 -1.4375 C 5.332031 -1.773438 5.714844 -2.140625 6.101562 -2.539062 C 6.351562 -2.773438 6.585938 -3.042969 6.804688 -3.308594 C 7.121094 -3.644531 7.355469 -4.011719 7.605469 -4.378906 C 7.722656 -4.578125 7.839844 -4.746094 7.957031 -4.929688 C 8.207031 -5.382812 8.375 -5.851562 8.589844 -6.300781 C 8.742188 -6.71875 8.910156 -7.121094 8.960938 -7.539062 C 9.042969 -8.054688 9.058594 -8.558594 8.84375 -8.925781 C 8.660156 -9.261719 8.390625 -9.511719 8.023438 -9.679688 C 7.503906 -9.910156 6.9375 -9.996094 6.335938 -10.046875 C 5.699219 -10.078125 5.03125 -10.0625 4.328125 -9.910156 C 3.945312 -9.792969 3.542969 -9.777344 3.160156 -9.679688 L 2.609375 -9.578125 C 2.375 -9.511719 2.074219 -9.34375 1.839844 -9.394531 C 1.773438 -9.394531 1.6875 -9.34375 1.65625 -9.242188 C 1.589844 -9.09375 1.503906 -8.941406 1.472656 -8.757812 C 1.4375 -8.472656 1.371094 -8.140625 1.421875 -7.855469 L 1.421875 -7.523438 C 1.421875 -7.289062 1.503906 -7.085938 1.703125 -7.054688 C 1.820312 -7.019531 1.921875 -7.019531 2.023438 -7.019531 C 2.273438 -7.054688 2.539062 -7.136719 2.839844 -7.253906 C 2.910156 -7.253906 2.957031 -7.269531 3.042969 -7.289062 C 2.976562 -7.085938 2.910156 -6.9375 2.875 -6.753906 C 2.722656 -6.285156 2.558594 -5.816406 2.40625 -5.332031 C 2.304688 -4.980469 2.191406 -4.578125 2.054688 -4.210938 L 1.371094 -2.171875 L 1.152344 -1.554688 C 1.085938 -1.371094 1.070312 -1.355469 0.886719 -1.304688 C 0.519531 -1.171875 1.085938 -1.320312 0.683594 -1.1875 C 0.382812 -1.101562 0.0820312 -1.035156 -0.21875 -0.917969 C -0.402344 -0.886719 -0.585938 -0.785156 -0.785156 -0.667969 C -0.886719 -0.652344 -0.984375 -0.550781 -1.035156 -0.453125 C -1.101562 -0.25 -1.1875 -0.0507812 -1.269531 0.167969 C -1.285156 0.199219 -1.304688 0.285156 -1.238281 0.285156 C -1.1875 0.402344 -1.1875 0.535156 -1.203125 0.667969 C -1.1875 0.785156 -1.171875 0.851562 -1.070312 0.886719 C -0.886719 0.96875 -0.71875 1.085938 -0.433594 0.984375 C -0.417969 0.96875 -0.367188 0.96875 -0.316406 1.003906 C -0.0664062 0.953125 0.183594 0.9375 0.453125 0.902344 C 0.953125 0.835938 0.519531 0.871094 1.019531 0.734375 C 1.136719 0.71875 1.269531 0.667969 1.355469 0.71875 C 1.453125 0.769531 1.503906 0.71875 1.589844 0.636719 C 1.773438 0.351562 1.839844 0.367188 2.039062 0.316406 C 2.207031 0.351562 2.492188 0.234375 2.675781 0.0664062 Z M 4.230469 -2.640625 C 2.792969 -1.421875 1.789062 -1.269531 2.707031 -3.242188 C 2.808594 -3.542969 2.839844 -3.8125 2.910156 -4.078125 C 3.058594 -4.511719 3.210938 -4.929688 3.34375 -5.367188 C 3.511719 -5.832031 3.675781 -6.300781 3.8125 -6.785156 C 3.859375 -6.917969 3.945312 -7.085938 4.027344 -7.203125 C 4.011719 -7.238281 4.0625 -7.304688 4.09375 -7.304688 C 4.179688 -7.355469 4.277344 -7.371094 4.347656 -7.386719 C 5.28125 -7.605469 6.101562 -7.605469 6.886719 -7.472656 C 7.121094 -7.421875 7.355469 -7.355469 7.570312 -7.289062 C 7.636719 -7.269531 7.6875 -7.171875 7.65625 -7.070312 C 7.605469 -6.570312 7.386719 -6.085938 7.105469 -5.566406 C 6.734375 -4.964844 6.269531 -4.429688 5.765625 -3.910156 C 5.296875 -3.425781 4.78125 -3.007812 4.230469 -2.640625 Z M 4.230469 -2.640625 "/></g></g></g><g fill="#000000" fill-opacity="1"><g transform="translate(195.195909, 221.680004)"><g><path d="M 1.636719 -4.0625 C 1.6875 -4.113281 1.738281 -4.09375 1.753906 -4.046875 C 1.839844 -3.910156 1.90625 -3.761719 1.972656 -3.628906 C 1.988281 -3.578125 2.023438 -3.542969 1.988281 -3.476562 C 1.988281 -3.460938 2.003906 -3.410156 2.023438 -3.394531 C 2.121094 -3.34375 2.207031 -3.191406 2.339844 -3.210938 C 2.339844 -3.210938 2.355469 -3.210938 2.355469 -3.191406 C 2.390625 -3.125 2.441406 -3.140625 2.492188 -3.125 C 2.589844 -3.109375 2.707031 -3.125 2.808594 -3.175781 C 2.925781 -3.210938 3.042969 -3.292969 3.109375 -3.425781 C 3.175781 -3.542969 3.242188 -3.644531 3.277344 -3.761719 C 3.328125 -3.894531 3.394531 -3.996094 3.460938 -4.113281 C 3.578125 -4.3125 3.675781 -4.53125 3.710938 -4.765625 C 3.761719 -4.980469 3.742188 -5.164062 3.710938 -5.367188 C 3.695312 -5.414062 3.675781 -5.480469 3.644531 -5.515625 C 3.527344 -5.617188 3.460938 -5.785156 3.375 -5.933594 C 3.34375 -6 3.308594 -6.066406 3.257812 -6.101562 C 3.109375 -6.199219 2.472656 -6.367188 2.304688 -6.453125 C 2.273438 -6.484375 2.257812 -6.550781 2.207031 -6.585938 C 2.171875 -6.617188 2.105469 -6.601562 2.054688 -6.652344 C 2.003906 -6.734375 1.921875 -6.71875 1.839844 -6.6875 L 1.671875 -6.601562 C 1.402344 -6.433594 1.152344 -6.21875 0.917969 -5.96875 C 0.683594 -5.734375 0.484375 -5.480469 0.300781 -5.199219 C 0.117188 -4.929688 -0.0351562 -4.648438 -0.167969 -4.347656 C -0.21875 -4.230469 -0.285156 -4.128906 -0.285156 -3.976562 C -0.199219 -4.128906 -0.132812 -4.261719 -0.0820312 -4.414062 C -0.0507812 -4.511719 0 -4.546875 0.0820312 -4.597656 C 0.101562 -4.445312 0.101562 -4.445312 0.0507812 -4.347656 C -0.167969 -3.878906 -0.300781 -3.375 -0.300781 -2.859375 C -0.285156 -2.609375 -0.265625 -2.375 -0.183594 -2.15625 C -0.132812 -2.023438 -0.0507812 -1.890625 0.0507812 -1.804688 C 0.316406 -1.570312 0.433594 -1.285156 1.019531 -1.054688 C 1.238281 -0.96875 2.222656 -0.785156 2.457031 -0.820312 C 2.65625 -0.835938 2.859375 -0.871094 3.058594 -0.9375 L 3.210938 -0.984375 C 3.394531 -1.019531 3.578125 -1.101562 3.742188 -1.203125 C 3.84375 -1.269531 3.945312 -1.320312 4.046875 -1.371094 L 4.246094 -1.503906 C 4.328125 -1.554688 4.394531 -1.621094 4.480469 -1.6875 C 4.648438 -1.820312 4.8125 -1.957031 4.964844 -2.121094 C 5.046875 -2.222656 5.148438 -2.324219 5.25 -2.40625 C 5.316406 -2.472656 5.367188 -2.523438 5.414062 -2.609375 C 5.382812 -2.625 5.382812 -2.640625 5.367188 -2.65625 C 5.382812 -2.742188 5.464844 -2.757812 5.480469 -2.859375 L 5.347656 -2.808594 L 5.414062 -2.910156 L 5.582031 -3.109375 C 5.648438 -3.242188 5.734375 -3.34375 5.832031 -3.460938 C 5.867188 -3.492188 5.898438 -3.542969 5.917969 -3.59375 C 5.984375 -3.726562 6.015625 -3.859375 6.050781 -4.011719 C 5.949219 -3.976562 5.898438 -3.894531 5.851562 -3.8125 C 5.699219 -3.59375 5.53125 -3.410156 5.347656 -3.226562 L 5.046875 -2.890625 L 4.996094 -2.839844 C 4.714844 -2.609375 4.445312 -2.355469 4.160156 -2.140625 C 3.792969 -1.855469 3.410156 -1.636719 3.007812 -1.519531 C 2.925781 -1.503906 2.441406 -1.421875 2.355469 -1.4375 C 2.089844 -1.453125 1.804688 -1.753906 1.570312 -1.988281 C 1.519531 -2.054688 1.386719 -2.421875 1.335938 -2.492188 C 1.304688 -2.574219 1.269531 -2.675781 1.269531 -2.792969 C 1.269531 -2.910156 1.269531 -3.007812 1.253906 -3.125 C 1.238281 -3.125 1.21875 -3.140625 1.1875 -3.160156 L 1.238281 -3.511719 L 1.269531 -3.511719 C 1.269531 -3.476562 1.269531 -3.425781 1.253906 -3.375 L 1.371094 -3.375 L 1.371094 -3.394531 C 1.355469 -3.410156 1.335938 -3.410156 1.304688 -3.410156 C 1.320312 -3.511719 1.320312 -3.527344 1.355469 -3.542969 C 1.402344 -3.558594 1.421875 -3.578125 1.4375 -3.644531 C 1.4375 -3.695312 1.472656 -3.710938 1.488281 -3.726562 C 1.519531 -3.742188 1.554688 -3.777344 1.554688 -3.8125 C 1.554688 -3.910156 1.621094 -3.976562 1.636719 -4.0625 Z M 2.539062 -5.25 C 2.792969 -5.449219 3.328125 -5.597656 3.058594 -4.964844 C 2.957031 -4.679688 2.890625 -4.628906 2.773438 -4.347656 C 2.707031 -4.230469 2.625 -4.113281 2.507812 -4.078125 C 2.375 -4.0625 2.238281 -4.046875 2.140625 -4.160156 C 2.105469 -4.210938 2.039062 -4.246094 1.988281 -4.277344 C 1.90625 -4.328125 1.890625 -4.414062 1.957031 -4.53125 L 2.074219 -4.714844 C 2.222656 -4.898438 2.355469 -5.113281 2.539062 -5.25 Z M 0 -2.324219 C 0.0507812 -2.238281 0.0507812 -2.140625 0.101562 -2.039062 C 0.132812 -1.957031 0.183594 -1.890625 0.234375 -1.804688 C 0.199219 -1.804688 0.183594 -1.789062 0.183594 -1.804688 C 0.132812 -1.820312 0.101562 -1.839844 0.0664062 -1.871094 C 0.015625 -1.9375 -0.0351562 -1.988281 -0.0664062 -2.054688 C -0.25 -2.40625 -0.265625 -2.808594 -0.199219 -3.242188 L -0.152344 -3.476562 C -0.132812 -3.542969 -0.101562 -3.609375 -0.0507812 -3.710938 L -0.0507812 -3.59375 C -0.0507812 -3.542969 -0.0664062 -3.492188 -0.0820312 -3.441406 C -0.152344 -3.191406 -0.152344 -2.957031 -0.152344 -2.707031 C -0.152344 -2.691406 -0.167969 -2.675781 -0.152344 -2.65625 C -0.117188 -2.441406 -0.0820312 -2.222656 0 -2.054688 C 0 -2.039062 0.015625 -2.039062 0.0351562 -2.023438 C 0.0664062 -2.089844 0.015625 -2.121094 0.015625 -2.171875 L -0.0351562 -2.304688 C -0.0351562 -2.304688 -0.015625 -2.324219 0 -2.324219 Z M 0 -3.425781 C 0.0507812 -3.328125 0.0351562 -3.210938 0.015625 -3.09375 L -0.0351562 -2.574219 C -0.0507812 -2.589844 -0.0664062 -2.589844 -0.0664062 -2.609375 C -0.101562 -2.859375 -0.117188 -3.109375 -0.0351562 -3.375 C -0.0351562 -3.394531 -0.015625 -3.410156 0 -3.425781 Z M 0 -3.425781 "/></g></g></g><g fill="#000000" fill-opacity="1"><g transform="translate(200.810549, 221.680004)"><g><path d="M 6.367188 -3.660156 C 6.351562 -3.660156 6.335938 -3.660156 6.316406 -3.644531 C 6.167969 -3.558594 6.050781 -3.375 5.898438 -3.34375 C 5.734375 -3.308594 5.648438 -3.242188 5.480469 -3.191406 C 5.148438 -3.125 4.964844 -3.578125 4.8125 -3.695312 C 4.628906 -4.128906 4.5625 -4.261719 4.460938 -4.914062 C 4.445312 -4.964844 4.429688 -4.980469 4.429688 -5.015625 C 4.414062 -5.066406 4.394531 -5.082031 4.363281 -5.097656 C 4.3125 -5.113281 4.261719 -5.148438 4.195312 -5.132812 C 4.078125 -5.132812 4.160156 -5.148438 4.0625 -5.199219 C 4.011719 -5.230469 3.710938 -5.296875 3.644531 -5.296875 C 3.441406 -5.25 3.527344 -5.265625 3.527344 -4.949219 C 3.542969 -4.878906 3.644531 -4.496094 3.628906 -4.445312 C 3.511719 -4.0625 3.476562 -4.347656 3.292969 -3.910156 C 3.226562 -3.8125 3.160156 -3.660156 3.125 -3.542969 C 3.058594 -3.359375 2.976562 -3.191406 2.859375 -3.042969 L 2.609375 -2.691406 C 2.390625 -2.339844 2.140625 -2.054688 1.890625 -1.753906 L 1.804688 -1.6875 C 1.789062 -1.773438 1.6875 -1.804688 1.773438 -1.921875 C 1.773438 -1.921875 1.753906 -1.9375 1.753906 -1.972656 L 1.722656 -2.074219 C 1.722656 -2.15625 1.722656 -2.238281 1.6875 -2.339844 C 1.6875 -2.375 1.671875 -2.390625 1.671875 -2.40625 L 1.636719 -2.375 C 1.605469 -2.257812 1.570312 -2.140625 1.589844 -2.054688 C 1.605469 -2.023438 1.589844 -1.988281 1.570312 -1.988281 C 1.554688 -1.972656 1.503906 -1.988281 1.488281 -1.988281 C 1.453125 -2.023438 1.4375 -2.074219 1.453125 -2.140625 C 1.472656 -2.222656 1.453125 -2.324219 1.4375 -2.40625 C 1.421875 -2.574219 1.421875 -2.742188 1.421875 -2.925781 C 1.421875 -2.941406 1.4375 -2.976562 1.453125 -2.976562 C 1.472656 -3.007812 1.488281 -2.976562 1.503906 -2.976562 C 1.519531 -2.957031 1.554688 -2.941406 1.554688 -2.925781 L 1.589844 -2.707031 L 1.636719 -2.691406 C 1.6875 -2.808594 1.6875 -2.808594 1.6875 -2.925781 C 1.671875 -3.042969 1.65625 -3.175781 1.671875 -3.308594 C 1.671875 -3.476562 1.671875 -3.644531 1.65625 -3.8125 L 1.65625 -3.945312 C 1.65625 -4.144531 1.65625 -4.363281 1.589844 -4.5625 C 1.589844 -4.613281 1.570312 -4.695312 1.570312 -4.78125 C 1.554688 -4.980469 1.554688 -5.164062 1.472656 -5.332031 C 1.421875 -5.449219 1.453125 -5.515625 1.488281 -5.617188 C 1.554688 -5.597656 1.589844 -5.597656 1.65625 -5.597656 C 1.636719 -5.765625 1.519531 -5.851562 1.453125 -5.984375 C 1.335938 -6.085938 1.203125 -6.167969 1.121094 -6.316406 C 1.121094 -6.335938 1.054688 -6.386719 1.019531 -6.386719 C 0.902344 -6.386719 0.9375 -6.402344 0.871094 -6.484375 C 0.851562 -6.503906 0.800781 -6.550781 0.785156 -6.585938 C 0.734375 -6.636719 0.667969 -6.652344 0.617188 -6.617188 C 0.585938 -6.570312 0.585938 -6.535156 0.566406 -6.484375 L 0.550781 -6.25 C 0.5 -6.101562 0.5 -5.933594 0.484375 -5.785156 C 0.433594 -5.515625 0.382812 -5.28125 0.300781 -5.015625 C 0.183594 -4.578125 0.101562 -4.128906 -0.015625 -3.660156 L -0.152344 -3.042969 C -0.21875 -2.773438 -0.25 -2.472656 -0.316406 -2.222656 C -0.335938 -2.105469 -0.367188 -1.988281 -0.367188 -1.855469 C -0.402344 -1.703125 -0.21875 -1.320312 -0.101562 -1.203125 C -0.015625 -1.121094 0.5 -0.769531 0.550781 -0.652344 C 0.652344 -0.417969 0.886719 -0.351562 1.121094 -0.453125 C 1.238281 -0.46875 1.335938 -0.484375 1.421875 -0.484375 C 1.488281 -0.46875 1.554688 -0.46875 1.605469 -0.46875 C 1.6875 -0.46875 1.753906 -0.5 1.804688 -0.566406 C 2.039062 -0.71875 2.140625 -0.902344 2.238281 -1.136719 C 2.304688 -1.285156 2.390625 -1.402344 2.492188 -1.519531 C 2.539062 -1.621094 2.609375 -1.703125 2.589844 -1.820312 C 2.589844 -1.839844 2.609375 -1.890625 2.609375 -1.90625 C 2.675781 -2.074219 2.742188 -2.207031 2.839844 -2.339844 C 2.976562 -2.472656 3.074219 -2.609375 3.125 -2.773438 C 3.160156 -2.808594 3.175781 -2.859375 3.226562 -2.890625 C 3.394531 -3.160156 3.492188 -3.425781 3.628906 -3.675781 C 3.761719 -3.945312 3.726562 -3.960938 3.878906 -4.160156 C 4.027344 -3.894531 4.113281 -3.8125 4.261719 -3.527344 C 4.296875 -3.492188 4.5625 -3.257812 4.578125 -3.226562 C 4.597656 -3.210938 4.832031 -3.042969 4.832031 -3.042969 C 4.878906 -3.023438 5.316406 -2.722656 5.480469 -2.824219 C 5.53125 -2.824219 6.085938 -2.957031 6.117188 -3.058594 C 6.152344 -3.09375 6.25 -3.140625 6.269531 -3.191406 C 6.285156 -3.277344 6.300781 -3.527344 6.351562 -3.59375 C 6.367188 -3.609375 6.386719 -3.628906 6.367188 -3.660156 Z M 1.453125 -3.84375 C 1.4375 -3.84375 1.453125 -3.878906 1.453125 -3.894531 C 1.472656 -3.910156 1.488281 -3.894531 1.503906 -3.878906 L 1.503906 -3.792969 Z M 1.589844 -1.871094 C 1.589844 -1.90625 1.570312 -1.90625 1.570312 -1.90625 C 1.570312 -1.9375 1.589844 -1.957031 1.589844 -1.972656 L 1.605469 -1.972656 C 1.636719 -1.957031 1.636719 -1.921875 1.605469 -1.90625 Z M 1.488281 -3.777344 C 1.488281 -3.742188 1.488281 -3.710938 1.472656 -3.675781 C 1.472656 -3.675781 1.453125 -3.660156 1.453125 -3.675781 L 1.4375 -3.710938 Z M 1.472656 -3.558594 C 1.472656 -3.558594 1.453125 -3.527344 1.453125 -3.511719 C 1.4375 -3.527344 1.4375 -3.527344 1.4375 -3.558594 C 1.4375 -3.558594 1.4375 -3.578125 1.453125 -3.578125 C 1.453125 -3.578125 1.472656 -3.578125 1.472656 -3.558594 Z M 1.605469 -1.703125 C 1.589844 -1.703125 1.570312 -1.6875 1.570312 -1.6875 C 1.554688 -1.6875 1.554688 -1.703125 1.554688 -1.703125 C 1.554688 -1.722656 1.570312 -1.722656 1.589844 -1.753906 C 1.589844 -1.722656 1.589844 -1.722656 1.605469 -1.703125 Z M 1.488281 -3.394531 L 1.488281 -3.410156 C 1.503906 -3.410156 1.503906 -3.410156 1.503906 -3.394531 Z M 1.488281 -3.394531 "/></g></g></g><g fill="#000000" fill-opacity="1"><g transform="translate(206.909783, 221.680004)"><g><path d="M 1.636719 -4.0625 C 1.6875 -4.113281 1.738281 -4.09375 1.753906 -4.046875 C 1.839844 -3.910156 1.90625 -3.761719 1.972656 -3.628906 C 1.988281 -3.578125 2.023438 -3.542969 1.988281 -3.476562 C 1.988281 -3.460938 2.003906 -3.410156 2.023438 -3.394531 C 2.121094 -3.34375 2.207031 -3.191406 2.339844 -3.210938 C 2.339844 -3.210938 2.355469 -3.210938 2.355469 -3.191406 C 2.390625 -3.125 2.441406 -3.140625 2.492188 -3.125 C 2.589844 -3.109375 2.707031 -3.125 2.808594 -3.175781 C 2.925781 -3.210938 3.042969 -3.292969 3.109375 -3.425781 C 3.175781 -3.542969 3.242188 -3.644531 3.277344 -3.761719 C 3.328125 -3.894531 3.394531 -3.996094 3.460938 -4.113281 C 3.578125 -4.3125 3.675781 -4.53125 3.710938 -4.765625 C 3.761719 -4.980469 3.742188 -5.164062 3.710938 -5.367188 C 3.695312 -5.414062 3.675781 -5.480469 3.644531 -5.515625 C 3.527344 -5.617188 3.460938 -5.785156 3.375 -5.933594 C 3.34375 -6 3.308594 -6.066406 3.257812 -6.101562 C 3.109375 -6.199219 2.472656 -6.367188 2.304688 -6.453125 C 2.273438 -6.484375 2.257812 -6.550781 2.207031 -6.585938 C 2.171875 -6.617188 2.105469 -6.601562 2.054688 -6.652344 C 2.003906 -6.734375 1.921875 -6.71875 1.839844 -6.6875 L 1.671875 -6.601562 C 1.402344 -6.433594 1.152344 -6.21875 0.917969 -5.96875 C 0.683594 -5.734375 0.484375 -5.480469 0.300781 -5.199219 C 0.117188 -4.929688 -0.0351562 -4.648438 -0.167969 -4.347656 C -0.21875 -4.230469 -0.285156 -4.128906 -0.285156 -3.976562 C -0.199219 -4.128906 -0.132812 -4.261719 -0.0820312 -4.414062 C -0.0507812 -4.511719 0 -4.546875 0.0820312 -4.597656 C 0.101562 -4.445312 0.101562 -4.445312 0.0507812 -4.347656 C -0.167969 -3.878906 -0.300781 -3.375 -0.300781 -2.859375 C -0.285156 -2.609375 -0.265625 -2.375 -0.183594 -2.15625 C -0.132812 -2.023438 -0.0507812 -1.890625 0.0507812 -1.804688 C 0.316406 -1.570312 0.433594 -1.285156 1.019531 -1.054688 C 1.238281 -0.96875 2.222656 -0.785156 2.457031 -0.820312 C 2.65625 -0.835938 2.859375 -0.871094 3.058594 -0.9375 L 3.210938 -0.984375 C 3.394531 -1.019531 3.578125 -1.101562 3.742188 -1.203125 C 3.84375 -1.269531 3.945312 -1.320312 4.046875 -1.371094 L 4.246094 -1.503906 C 4.328125 -1.554688 4.394531 -1.621094 4.480469 -1.6875 C 4.648438 -1.820312 4.8125 -1.957031 4.964844 -2.121094 C 5.046875 -2.222656 5.148438 -2.324219 5.25 -2.40625 C 5.316406 -2.472656 5.367188 -2.523438 5.414062 -2.609375 C 5.382812 -2.625 5.382812 -2.640625 5.367188 -2.65625 C 5.382812 -2.742188 5.464844 -2.757812 5.480469 -2.859375 L 5.347656 -2.808594 L 5.414062 -2.910156 L 5.582031 -3.109375 C 5.648438 -3.242188 5.734375 -3.34375 5.832031 -3.460938 C 5.867188 -3.492188 5.898438 -3.542969 5.917969 -3.59375 C 5.984375 -3.726562 6.015625 -3.859375 6.050781 -4.011719 C 5.949219 -3.976562 5.898438 -3.894531 5.851562 -3.8125 C 5.699219 -3.59375 5.53125 -3.410156 5.347656 -3.226562 L 5.046875 -2.890625 L 4.996094 -2.839844 C 4.714844 -2.609375 4.445312 -2.355469 4.160156 -2.140625 C 3.792969 -1.855469 3.410156 -1.636719 3.007812 -1.519531 C 2.925781 -1.503906 2.441406 -1.421875 2.355469 -1.4375 C 2.089844 -1.453125 1.804688 -1.753906 1.570312 -1.988281 C 1.519531 -2.054688 1.386719 -2.421875 1.335938 -2.492188 C 1.304688 -2.574219 1.269531 -2.675781 1.269531 -2.792969 C 1.269531 -2.910156 1.269531 -3.007812 1.253906 -3.125 C 1.238281 -3.125 1.21875 -3.140625 1.1875 -3.160156 L 1.238281 -3.511719 L 1.269531 -3.511719 C 1.269531 -3.476562 1.269531 -3.425781 1.253906 -3.375 L 1.371094 -3.375 L 1.371094 -3.394531 C 1.355469 -3.410156 1.335938 -3.410156 1.304688 -3.410156 C 1.320312 -3.511719 1.320312 -3.527344 1.355469 -3.542969 C 1.402344 -3.558594 1.421875 -3.578125 1.4375 -3.644531 C 1.4375 -3.695312 1.472656 -3.710938 1.488281 -3.726562 C 1.519531 -3.742188 1.554688 -3.777344 1.554688 -3.8125 C 1.554688 -3.910156 1.621094 -3.976562 1.636719 -4.0625 Z M 2.539062 -5.25 C 2.792969 -5.449219 3.328125 -5.597656 3.058594 -4.964844 C 2.957031 -4.679688 2.890625 -4.628906 2.773438 -4.347656 C 2.707031 -4.230469 2.625 -4.113281 2.507812 -4.078125 C 2.375 -4.0625 2.238281 -4.046875 2.140625 -4.160156 C 2.105469 -4.210938 2.039062 -4.246094 1.988281 -4.277344 C 1.90625 -4.328125 1.890625 -4.414062 1.957031 -4.53125 L 2.074219 -4.714844 C 2.222656 -4.898438 2.355469 -5.113281 2.539062 -5.25 Z M 0 -2.324219 C 0.0507812 -2.238281 0.0507812 -2.140625 0.101562 -2.039062 C 0.132812 -1.957031 0.183594 -1.890625 0.234375 -1.804688 C 0.199219 -1.804688 0.183594 -1.789062 0.183594 -1.804688 C 0.132812 -1.820312 0.101562 -1.839844 0.0664062 -1.871094 C 0.015625 -1.9375 -0.0351562 -1.988281 -0.0664062 -2.054688 C -0.25 -2.40625 -0.265625 -2.808594 -0.199219 -3.242188 L -0.152344 -3.476562 C -0.132812 -3.542969 -0.101562 -3.609375 -0.0507812 -3.710938 L -0.0507812 -3.59375 C -0.0507812 -3.542969 -0.0664062 -3.492188 -0.0820312 -3.441406 C -0.152344 -3.191406 -0.152344 -2.957031 -0.152344 -2.707031 C -0.152344 -2.691406 -0.167969 -2.675781 -0.152344 -2.65625 C -0.117188 -2.441406 -0.0820312 -2.222656 0 -2.054688 C 0 -2.039062 0.015625 -2.039062 0.0351562 -2.023438 C 0.0664062 -2.089844 0.015625 -2.121094 0.015625 -2.171875 L -0.0351562 -2.304688 C -0.0351562 -2.304688 -0.015625 -2.324219 0 -2.324219 Z M 0 -3.425781 C 0.0507812 -3.328125 0.0351562 -3.210938 0.015625 -3.09375 L -0.0351562 -2.574219 C -0.0507812 -2.589844 -0.0664062 -2.589844 -0.0664062 -2.609375 C -0.101562 -2.859375 -0.117188 -3.109375 -0.0351562 -3.375 C -0.0351562 -3.394531 -0.015625 -3.410156 0 -3.425781 Z M 0 -3.425781 "/></g></g></g><g fill="#000000" fill-opacity="1"><g transform="translate(212.524422, 221.680004)"><g><path d="M 5.597656 -3.792969 C 5.28125 -3.359375 5.179688 -3.023438 4.878906 -2.625 C 4.664062 -2.304688 4.546875 -2.039062 4.296875 -1.804688 C 4.0625 -1.570312 3.84375 -1.320312 3.578125 -1.171875 C 3.460938 -1.085938 2.574219 -0.484375 2.457031 -0.566406 C 2.375 -0.601562 2.140625 -0.652344 2.105469 -0.71875 C 2.003906 -0.9375 1.957031 -1.019531 1.90625 -1.253906 C 1.890625 -1.320312 1.839844 -1.972656 1.820312 -2.074219 C 1.839844 -2.421875 1.804688 -2.625 1.871094 -2.976562 C 2.054688 -3.859375 2.003906 -4.011719 2.523438 -4.898438 C 2.839844 -5.367188 3.140625 -5.867188 3.492188 -6.335938 C 3.695312 -6.617188 3.859375 -6.9375 4.0625 -7.238281 L 4.429688 -7.890625 C 4.613281 -8.15625 4.746094 -8.425781 4.863281 -8.707031 C 4.949219 -8.875 5.015625 -9.007812 5.03125 -9.160156 C 5.082031 -9.34375 5.097656 -9.542969 5.132812 -9.746094 C 5.179688 -10.0625 5.132812 -10.296875 4.964844 -10.445312 C 4.796875 -10.613281 4.578125 -10.648438 4.347656 -10.628906 C 4.296875 -10.613281 4.246094 -10.597656 4.195312 -10.5625 C 4.046875 -10.511719 3.894531 -10.378906 3.742188 -10.261719 C 3.492188 -10.046875 3.226562 -9.777344 2.976562 -9.527344 C 2.609375 -9.125 2.257812 -8.640625 1.9375 -8.089844 C 1.789062 -7.839844 1.621094 -7.605469 1.519531 -7.355469 C 1.386719 -7.152344 1.253906 -6.917969 1.136719 -6.6875 C 0.96875 -6.25 0.820312 -6.21875 0.652344 -5.785156 C 0.335938 -5.132812 0.285156 -5.046875 0.117188 -4.328125 C 0.0507812 -3.945312 -0.0351562 -3.527344 -0.132812 -3.140625 C -0.199219 -2.589844 -0.285156 -2.054688 -0.300781 -1.519531 C -0.285156 -1.386719 -0.21875 -1.304688 -0.199219 -1.171875 C -0.167969 -0.652344 0.21875 -0.402344 0.367188 -0.0351562 C 0.46875 0.117188 0.800781 0.25 0.953125 0.335938 C 1.035156 0.382812 1.171875 0.402344 1.304688 0.402344 C 1.789062 0.382812 2.441406 0.566406 2.925781 0.167969 C 2.992188 0.0820312 3.878906 -0.769531 3.976562 -0.851562 C 4.363281 -1.21875 4.511719 -1.453125 4.746094 -1.871094 C 4.78125 -1.9375 4.832031 -1.972656 4.863281 -2.054688 C 4.898438 -2.140625 4.949219 -2.207031 4.996094 -2.257812 C 5.03125 -2.273438 5.082031 -2.324219 5.097656 -2.339844 C 5.097656 -2.523438 5.382812 -2.890625 5.464844 -3.058594 C 5.699219 -3.476562 5.832031 -3.828125 5.597656 -3.792969 Z M 2.15625 -5.066406 C 1.9375 -4.832031 1.90625 -5.214844 1.957031 -5.347656 C 2.140625 -5.917969 2.054688 -5.632812 2.257812 -6.199219 L 2.441406 -6.71875 C 2.609375 -7.070312 2.773438 -7.421875 2.890625 -7.773438 L 3.140625 -8.308594 C 3.210938 -8.523438 3.292969 -8.707031 3.441406 -8.890625 C 3.578125 -9.027344 3.660156 -9.175781 3.777344 -9.308594 C 3.929688 -9.542969 4.128906 -9.710938 4.347656 -9.792969 C 4.394531 -9.828125 4.445312 -9.863281 4.53125 -9.878906 C 4.613281 -9.910156 4.613281 -9.863281 4.578125 -9.777344 C 4.546875 -9.527344 4.496094 -9.277344 4.414062 -9.027344 C 4.230469 -8.675781 4.078125 -8.324219 3.894531 -7.972656 C 3.410156 -7.054688 3.328125 -6.917969 2.792969 -6.066406 C 2.574219 -5.683594 2.40625 -5.433594 2.15625 -5.066406 Z M 2.15625 -5.066406 "/></g></g></g><g fill="#000000" fill-opacity="1"><g transform="translate(217.971956, 221.680004)"><g><path d="M 0.46875 -4.277344 C 0.453125 -4.230469 0.453125 -4.195312 0.402344 -4.179688 C 0.152344 -3.878906 -0.0664062 -3.558594 -0.21875 -3.191406 C -0.367188 -2.890625 -0.46875 -2.589844 -0.5 -2.273438 C -0.535156 -1.957031 -0.519531 -1.65625 -0.484375 -1.355469 L -0.335938 -0.902344 C -0.167969 -0.617188 0.0351562 -0.402344 0.335938 -0.367188 C 0.550781 -0.335938 0.785156 -0.316406 1.019531 -0.382812 C 1.070312 -0.417969 1.152344 -0.453125 1.1875 -0.453125 C 1.371094 -0.5 1.519531 -0.617188 1.65625 -0.769531 C 1.671875 -0.820312 1.722656 -0.851562 1.753906 -0.871094 L 1.871094 -0.953125 C 1.972656 -1.019531 2.039062 -1.136719 2.105469 -1.238281 C 2.222656 -1.386719 2.339844 -1.539062 2.421875 -1.738281 C 2.539062 -2.023438 2.691406 -2.289062 2.742188 -2.574219 C 2.757812 -2.609375 2.773438 -2.625 2.773438 -2.65625 C 2.773438 -2.691406 2.824219 -2.707031 2.875 -2.707031 L 2.925781 -2.707031 C 3.527344 -2.707031 5.066406 -2.691406 5.566406 -3.226562 C 5.632812 -3.292969 5.464844 -3.328125 5.515625 -3.410156 C 5.53125 -3.441406 5.550781 -3.511719 5.515625 -3.558594 L 5.398438 -3.492188 L 5.132812 -3.359375 C 4.328125 -3.226562 4.011719 -3.34375 3.191406 -3.292969 C 3.058594 -3.292969 2.957031 -3.410156 3.007812 -3.511719 C 3.058594 -3.695312 3.007812 -3.878906 3.023438 -4.078125 C 3.023438 -4.09375 3.007812 -4.230469 3.007812 -4.296875 C 2.976562 -4.429688 2.976562 -4.546875 2.957031 -4.695312 C 2.925781 -4.863281 2.910156 -5.03125 2.859375 -5.179688 C 2.792969 -5.296875 2.757812 -5.414062 2.707031 -5.550781 C 2.625 -5.765625 2.523438 -5.917969 2.375 -6.050781 C 2.257812 -6.117188 2.15625 -6.21875 2.054688 -6.300781 C 1.972656 -6.367188 1.605469 -6.703125 1.472656 -6.703125 C 1.285156 -6.734375 1.085938 -6.71875 0.9375 -6.617188 C 0.734375 -6.503906 0.566406 -6.402344 0.433594 -6.285156 C 0.367188 -6.269531 0.335938 -6.234375 0.316406 -6.199219 C 0.167969 -5.933594 0.0820312 -5.667969 0.132812 -5.382812 C 0.183594 -4.996094 0.265625 -4.628906 0.453125 -4.328125 C 0.46875 -4.3125 0.46875 -4.296875 0.46875 -4.277344 Z M 2.457031 -4.597656 C 2.65625 -3.476562 1.773438 -3.140625 1.285156 -4.09375 C 0.871094 -4.546875 0.433594 -5.414062 0.886719 -6.050781 C 1.003906 -6.167969 1.371094 -6.519531 1.570312 -6.351562 C 1.6875 -6.285156 1.773438 -6.21875 1.871094 -6.132812 C 1.972656 -6.085938 2.023438 -6 2.089844 -5.933594 C 2.207031 -5.832031 2.273438 -5.699219 2.324219 -5.53125 C 2.375 -5.347656 2.40625 -5.199219 2.441406 -4.996094 C 2.492188 -4.878906 2.492188 -4.730469 2.457031 -4.597656 Z M 1.269531 -2.457031 C 1.488281 -2.742188 1.671875 -2.890625 2.054688 -2.722656 C 2.003906 -2.609375 1.972656 -2.457031 1.890625 -2.324219 C 1.722656 -1.9375 1.519531 -1.554688 1.238281 -1.253906 L 1.171875 -1.203125 C 1.152344 -1.1875 1.152344 -1.1875 1.136719 -1.1875 C 1.054688 -1.21875 0.984375 -1.304688 0.953125 -1.386719 C 0.9375 -1.421875 0.902344 -1.4375 0.9375 -1.472656 C 0.9375 -1.554688 0.9375 -1.65625 0.953125 -1.738281 C 1.054688 -2.039062 1.085938 -2.191406 1.269531 -2.457031 Z M 3.007812 -4.296875 L 3.007812 -4.277344 C 2.992188 -4.347656 2.992188 -4.328125 3.007812 -4.296875 Z M 3.023438 -4.261719 C 3.023438 -4.261719 3.007812 -4.261719 3.007812 -4.277344 C 3.007812 -4.261719 3.023438 -4.261719 3.023438 -4.261719 Z M 3.023438 -4.261719 "/></g></g></g><g fill="#000000" fill-opacity="1"><g transform="translate(223.218968, 221.680004)"><g><path d="M 3.511719 -2.140625 C 3.558594 -2.238281 3.492188 -1.972656 3.308594 -1.722656 C 3.257812 -1.636719 3.175781 -1.570312 3.09375 -1.519531 C 3.058594 -1.488281 3.007812 -1.488281 2.976562 -1.453125 C 2.925781 -1.453125 2.875 -1.519531 2.859375 -1.605469 C 2.859375 -1.804688 2.925781 -1.921875 3.023438 -1.972656 C 3.175781 -2.089844 3.328125 -2.054688 3.511719 -2.140625 Z M 4.964844 -3.910156 L 4.898438 -4.394531 C 4.898438 -4.511719 4.863281 -4.664062 4.847656 -4.796875 C 4.832031 -4.929688 4.765625 -5.066406 4.679688 -5.113281 C 4.546875 -5.230469 4.414062 -5.367188 4.261719 -5.332031 L 3.976562 -5.332031 C 3.859375 -5.332031 3.710938 -5.25 3.609375 -5.148438 C 3.476562 -5.015625 3.359375 -4.847656 3.242188 -4.714844 C 3.109375 -4.546875 3.023438 -4.394531 2.941406 -4.179688 L 2.390625 -3.042969 C 2.339844 -2.875 2.089844 -2.539062 2.039062 -2.40625 C 1.921875 -2.121094 1.386719 -2.003906 1.65625 -2.941406 C 1.753906 -3.242188 1.855469 -3.578125 1.957031 -3.84375 C 2.105469 -4.261719 2.222656 -4.695312 2.324219 -5.097656 C 2.390625 -5.382812 2.40625 -5.667969 2.375 -5.917969 C 2.324219 -6.417969 2.171875 -6.785156 1.921875 -7.085938 L 1.90625 -7.105469 L 1.503906 -7.355469 C 1.421875 -7.421875 1.335938 -7.421875 1.253906 -7.355469 C 1.136719 -7.105469 1.003906 -6.820312 0.917969 -6.570312 C 0.71875 -6.050781 0.550781 -5.515625 0.351562 -5.015625 C 0.300781 -4.8125 0.234375 -4.664062 0.183594 -4.496094 C -0.0351562 -3.792969 -0.234375 -3.074219 -0.417969 -2.339844 C -0.550781 -1.855469 -0.667969 -1.335938 -0.734375 -0.820312 C -0.785156 -0.519531 -0.851562 -0.183594 -0.886719 0.132812 C -0.984375 0.9375 -1.035156 1.703125 -1.003906 2.507812 C -0.984375 2.839844 -0.953125 3.191406 -0.851562 3.511719 C -0.753906 3.828125 -0.585938 4.027344 -0.316406 3.976562 L -0.300781 3.976562 C -0.265625 3.929688 -0.25 3.8125 -0.199219 3.8125 C -0.183594 3.8125 -0.132812 3.742188 -0.117188 3.726562 C -0.0664062 3.59375 0 3.527344 0.0820312 3.476562 C 0.199219 3.425781 0.265625 3.308594 0.285156 3.160156 C 0.335938 2.957031 0.335938 2.757812 0.351562 2.558594 C 0.382812 2.105469 0.519531 1.6875 0.683594 1.269531 C 0.734375 1.1875 0.769531 1.101562 0.871094 0.984375 C 0.902344 0.953125 0.9375 0.886719 0.96875 0.820312 C 1.003906 0.71875 1.019531 0.585938 1.019531 0.46875 C 1.019531 0.367188 1.054688 0.234375 1.136719 0.199219 C 1.238281 0.132812 1.269531 0.015625 1.320312 -0.101562 C 1.539062 -0.753906 2.105469 -1.355469 2.355469 -1.957031 C 2.507812 -2.324219 2.675781 -2.640625 2.859375 -2.992188 C 3.109375 -3.460938 3.34375 -3.976562 3.59375 -4.460938 C 3.675781 -4.664062 3.792969 -4.847656 3.910156 -5.03125 C 3.929688 -5.082031 3.945312 -5.097656 3.976562 -5.113281 C 4.027344 -5.179688 4.113281 -5.148438 4.128906 -5.066406 C 4.144531 -5.03125 4.144531 -4.996094 4.144531 -4.964844 L 4.144531 -4.394531 C 4.09375 -3.945312 3.960938 -3.308594 3.84375 -2.875 C 3.777344 -2.691406 3.695312 -2.574219 3.578125 -2.507812 C 3.359375 -2.40625 3.175781 -2.40625 2.976562 -2.273438 C 2.859375 -2.222656 2.742188 -2.15625 2.640625 -2.074219 C 2.539062 -2.003906 2.457031 -1.921875 2.390625 -1.773438 C 2.257812 -1.554688 2.289062 -1.285156 2.441406 -1.1875 C 2.523438 -1.136719 2.574219 -1.101562 2.640625 -1.003906 C 2.691406 -0.953125 2.742188 -0.886719 2.808594 -0.851562 C 2.957031 -0.835938 3.007812 -0.703125 3.042969 -0.550781 C 3.042969 -0.5 3.042969 -0.453125 3.058594 -0.402344 C 3.109375 -0.382812 3.175781 -0.335938 3.226562 -0.300781 C 3.277344 -0.285156 3.328125 -0.285156 3.375 -0.300781 L 3.542969 -0.453125 L 3.660156 -0.585938 C 3.777344 -0.667969 3.878906 -0.800781 3.945312 -0.917969 L 4.113281 -1.121094 C 4.144531 -1.136719 4.179688 -1.1875 4.210938 -1.21875 C 4.296875 -1.371094 4.414062 -1.519531 4.460938 -1.722656 L 4.53125 -1.855469 C 4.679688 -2.191406 4.714844 -2.40625 5.132812 -2.507812 C 5.648438 -2.574219 6.015625 -2.574219 6.71875 -2.992188 C 6.753906 -3.023438 6.96875 -3.359375 6.96875 -3.425781 C 6.886719 -3.511719 6.703125 -3.695312 6.550781 -3.542969 C 6.25 -3.242188 5.949219 -3.160156 5.75 -3.125 C 5.132812 -3.023438 4.996094 -2.875 4.980469 -3.292969 Z M 4.964844 -3.910156 "/></g></g></g><g fill="#000000" fill-opacity="1"><g transform="translate(229.819507, 221.680004)"><g><path d="M 1.636719 -4.0625 C 1.6875 -4.113281 1.738281 -4.09375 1.753906 -4.046875 C 1.839844 -3.910156 1.90625 -3.761719 1.972656 -3.628906 C 1.988281 -3.578125 2.023438 -3.542969 1.988281 -3.476562 C 1.988281 -3.460938 2.003906 -3.410156 2.023438 -3.394531 C 2.121094 -3.34375 2.207031 -3.191406 2.339844 -3.210938 C 2.339844 -3.210938 2.355469 -3.210938 2.355469 -3.191406 C 2.390625 -3.125 2.441406 -3.140625 2.492188 -3.125 C 2.589844 -3.109375 2.707031 -3.125 2.808594 -3.175781 C 2.925781 -3.210938 3.042969 -3.292969 3.109375 -3.425781 C 3.175781 -3.542969 3.242188 -3.644531 3.277344 -3.761719 C 3.328125 -3.894531 3.394531 -3.996094 3.460938 -4.113281 C 3.578125 -4.3125 3.675781 -4.53125 3.710938 -4.765625 C 3.761719 -4.980469 3.742188 -5.164062 3.710938 -5.367188 C 3.695312 -5.414062 3.675781 -5.480469 3.644531 -5.515625 C 3.527344 -5.617188 3.460938 -5.785156 3.375 -5.933594 C 3.34375 -6 3.308594 -6.066406 3.257812 -6.101562 C 3.109375 -6.199219 2.472656 -6.367188 2.304688 -6.453125 C 2.273438 -6.484375 2.257812 -6.550781 2.207031 -6.585938 C 2.171875 -6.617188 2.105469 -6.601562 2.054688 -6.652344 C 2.003906 -6.734375 1.921875 -6.71875 1.839844 -6.6875 L 1.671875 -6.601562 C 1.402344 -6.433594 1.152344 -6.21875 0.917969 -5.96875 C 0.683594 -5.734375 0.484375 -5.480469 0.300781 -5.199219 C 0.117188 -4.929688 -0.0351562 -4.648438 -0.167969 -4.347656 C -0.21875 -4.230469 -0.285156 -4.128906 -0.285156 -3.976562 C -0.199219 -4.128906 -0.132812 -4.261719 -0.0820312 -4.414062 C -0.0507812 -4.511719 0 -4.546875 0.0820312 -4.597656 C 0.101562 -4.445312 0.101562 -4.445312 0.0507812 -4.347656 C -0.167969 -3.878906 -0.300781 -3.375 -0.300781 -2.859375 C -0.285156 -2.609375 -0.265625 -2.375 -0.183594 -2.15625 C -0.132812 -2.023438 -0.0507812 -1.890625 0.0507812 -1.804688 C 0.316406 -1.570312 0.433594 -1.285156 1.019531 -1.054688 C 1.238281 -0.96875 2.222656 -0.785156 2.457031 -0.820312 C 2.65625 -0.835938 2.859375 -0.871094 3.058594 -0.9375 L 3.210938 -0.984375 C 3.394531 -1.019531 3.578125 -1.101562 3.742188 -1.203125 C 3.84375 -1.269531 3.945312 -1.320312 4.046875 -1.371094 L 4.246094 -1.503906 C 4.328125 -1.554688 4.394531 -1.621094 4.480469 -1.6875 C 4.648438 -1.820312 4.8125 -1.957031 4.964844 -2.121094 C 5.046875 -2.222656 5.148438 -2.324219 5.25 -2.40625 C 5.316406 -2.472656 5.367188 -2.523438 5.414062 -2.609375 C 5.382812 -2.625 5.382812 -2.640625 5.367188 -2.65625 C 5.382812 -2.742188 5.464844 -2.757812 5.480469 -2.859375 L 5.347656 -2.808594 L 5.414062 -2.910156 L 5.582031 -3.109375 C 5.648438 -3.242188 5.734375 -3.34375 5.832031 -3.460938 C 5.867188 -3.492188 5.898438 -3.542969 5.917969 -3.59375 C 5.984375 -3.726562 6.015625 -3.859375 6.050781 -4.011719 C 5.949219 -3.976562 5.898438 -3.894531 5.851562 -3.8125 C 5.699219 -3.59375 5.53125 -3.410156 5.347656 -3.226562 L 5.046875 -2.890625 L 4.996094 -2.839844 C 4.714844 -2.609375 4.445312 -2.355469 4.160156 -2.140625 C 3.792969 -1.855469 3.410156 -1.636719 3.007812 -1.519531 C 2.925781 -1.503906 2.441406 -1.421875 2.355469 -1.4375 C 2.089844 -1.453125 1.804688 -1.753906 1.570312 -1.988281 C 1.519531 -2.054688 1.386719 -2.421875 1.335938 -2.492188 C 1.304688 -2.574219 1.269531 -2.675781 1.269531 -2.792969 C 1.269531 -2.910156 1.269531 -3.007812 1.253906 -3.125 C 1.238281 -3.125 1.21875 -3.140625 1.1875 -3.160156 L 1.238281 -3.511719 L 1.269531 -3.511719 C 1.269531 -3.476562 1.269531 -3.425781 1.253906 -3.375 L 1.371094 -3.375 L 1.371094 -3.394531 C 1.355469 -3.410156 1.335938 -3.410156 1.304688 -3.410156 C 1.320312 -3.511719 1.320312 -3.527344 1.355469 -3.542969 C 1.402344 -3.558594 1.421875 -3.578125 1.4375 -3.644531 C 1.4375 -3.695312 1.472656 -3.710938 1.488281 -3.726562 C 1.519531 -3.742188 1.554688 -3.777344 1.554688 -3.8125 C 1.554688 -3.910156 1.621094 -3.976562 1.636719 -4.0625 Z M 2.539062 -5.25 C 2.792969 -5.449219 3.328125 -5.597656 3.058594 -4.964844 C 2.957031 -4.679688 2.890625 -4.628906 2.773438 -4.347656 C 2.707031 -4.230469 2.625 -4.113281 2.507812 -4.078125 C 2.375 -4.0625 2.238281 -4.046875 2.140625 -4.160156 C 2.105469 -4.210938 2.039062 -4.246094 1.988281 -4.277344 C 1.90625 -4.328125 1.890625 -4.414062 1.957031 -4.53125 L 2.074219 -4.714844 C 2.222656 -4.898438 2.355469 -5.113281 2.539062 -5.25 Z M 0 -2.324219 C 0.0507812 -2.238281 0.0507812 -2.140625 0.101562 -2.039062 C 0.132812 -1.957031 0.183594 -1.890625 0.234375 -1.804688 C 0.199219 -1.804688 0.183594 -1.789062 0.183594 -1.804688 C 0.132812 -1.820312 0.101562 -1.839844 0.0664062 -1.871094 C 0.015625 -1.9375 -0.0351562 -1.988281 -0.0664062 -2.054688 C -0.25 -2.40625 -0.265625 -2.808594 -0.199219 -3.242188 L -0.152344 -3.476562 C -0.132812 -3.542969 -0.101562 -3.609375 -0.0507812 -3.710938 L -0.0507812 -3.59375 C -0.0507812 -3.542969 -0.0664062 -3.492188 -0.0820312 -3.441406 C -0.152344 -3.191406 -0.152344 -2.957031 -0.152344 -2.707031 C -0.152344 -2.691406 -0.167969 -2.675781 -0.152344 -2.65625 C -0.117188 -2.441406 -0.0820312 -2.222656 0 -2.054688 C 0 -2.039062 0.015625 -2.039062 0.0351562 -2.023438 C 0.0664062 -2.089844 0.015625 -2.121094 0.015625 -2.171875 L -0.0351562 -2.304688 C -0.0351562 -2.304688 -0.015625 -2.324219 0 -2.324219 Z M 0 -3.425781 C 0.0507812 -3.328125 0.0351562 -3.210938 0.015625 -3.09375 L -0.0351562 -2.574219 C -0.0507812 -2.589844 -0.0664062 -2.589844 -0.0664062 -2.609375 C -0.101562 -2.859375 -0.117188 -3.109375 -0.0351562 -3.375 C -0.0351562 -3.394531 -0.015625 -3.410156 0 -3.425781 Z M 0 -3.425781 "/></g></g></g><g fill="#000000" fill-opacity="1"><g transform="translate(235.434147, 221.680004)"><g><path d="M 1.453125 -3.007812 C 1.636719 -3.644531 2.039062 -4.195312 2.257812 -4.898438 C 2.339844 -5.25 2.375 -4.996094 2.457031 -5.332031 C 2.558594 -5.648438 2.523438 -5.851562 2.375 -6.117188 C 2.207031 -6.316406 2.039062 -6.46875 1.921875 -6.6875 C 1.789062 -6.804688 1.6875 -6.835938 1.589844 -6.851562 C 1.4375 -6.886719 1.285156 -6.917969 1.171875 -6.917969 C 1.003906 -6.953125 0.9375 -6.917969 0.871094 -6.703125 C 0.734375 -6.433594 0.636719 -6.167969 0.519531 -5.867188 C 0.484375 -5.75 0.417969 -5.667969 0.402344 -5.550781 C 0.167969 -4.898438 0.234375 -4.996094 0.117188 -4.347656 C -0.015625 -3.894531 0.0507812 -3.929688 -0.0351562 -3.441406 C -0.0664062 -3.007812 -0.0820312 -2.574219 -0.101562 -2.140625 C -0.101562 -1.855469 -0.101562 -1.554688 -0.0507812 -1.269531 C 0.015625 -0.9375 0.152344 -0.683594 0.417969 -0.617188 C 0.453125 -0.585938 0.484375 -0.550781 0.519531 -0.585938 C 0.785156 -0.519531 1.019531 -0.5 1.21875 -0.785156 C 1.253906 -0.820312 1.304688 -0.835938 1.304688 -0.871094 C 1.402344 -0.953125 1.820312 -1.753906 1.855469 -1.855469 C 1.90625 -1.988281 1.972656 -2.121094 2.003906 -2.238281 C 2.121094 -2.609375 2.304688 -2.925781 2.457031 -3.277344 C 2.558594 -3.511719 2.675781 -3.710938 2.757812 -3.945312 C 2.859375 -4.261719 2.992188 -4.53125 3.140625 -4.8125 C 3.160156 -4.863281 3.210938 -4.914062 3.191406 -4.980469 C 3.210938 -5.097656 3.242188 -5.199219 3.292969 -5.28125 L 3.527344 -5.699219 L 3.59375 -5.785156 C 3.59375 -5.816406 3.628906 -5.800781 3.644531 -5.800781 C 3.660156 -5.734375 3.660156 -5.683594 3.628906 -5.617188 L 3.578125 -5.316406 C 3.558594 -5.179688 3.558594 -5.046875 3.527344 -4.898438 C 3.476562 -4.578125 3.476562 -4.246094 3.578125 -3.945312 C 3.660156 -3.710938 3.8125 -3.527344 4.011719 -3.476562 C 4.128906 -3.425781 4.246094 -3.410156 4.363281 -3.34375 C 4.394531 -3.308594 4.445312 -3.308594 4.496094 -3.34375 C 4.5625 -3.394531 4.628906 -3.410156 4.648438 -3.410156 C 4.714844 -3.410156 4.765625 -3.425781 4.832031 -3.492188 L 4.878906 -3.527344 C 4.878906 -3.542969 4.914062 -3.558594 4.929688 -3.578125 L 4.980469 -3.628906 C 5.03125 -3.644531 5.066406 -3.695312 5.082031 -3.742188 L 5.132812 -3.828125 C 5.179688 -3.859375 5.199219 -3.910156 5.199219 -3.960938 C 5.132812 -4.046875 5.082031 -4.046875 5.03125 -3.960938 C 4.964844 -3.878906 4.898438 -3.828125 4.832031 -3.777344 L 4.765625 -3.695312 C 4.730469 -3.660156 4.613281 -3.710938 4.578125 -3.675781 C 4.5625 -3.660156 4.578125 -3.726562 4.496094 -3.777344 C 4.511719 -3.929688 4.496094 -4.078125 4.496094 -4.230469 C 4.496094 -4.445312 4.511719 -4.679688 4.480469 -4.898438 L 4.363281 -5.582031 L 4.363281 -5.648438 C 4.261719 -5.867188 4.144531 -6.015625 3.945312 -6.015625 C 3.84375 -6.015625 3.742188 -6 3.628906 -6 C 3.527344 -5.984375 3.425781 -5.917969 3.359375 -5.800781 C 3.292969 -5.667969 3.191406 -5.515625 3.09375 -5.382812 C 3.007812 -5.214844 2.910156 -5.066406 2.808594 -4.914062 C 2.691406 -4.714844 2.105469 -3.527344 2.039062 -3.277344 C 1.972656 -2.992188 1.203125 -2.207031 1.453125 -3.007812 Z M 1.453125 -3.007812 "/></g></g></g></svg>