<svg xmlns="http://www.w3.org/2000/svg" xmlns:xlink="http://www.w3.org/1999/xlink" width="500" zoomAndPan="magnify" viewBox="0 0 375 374.999991" height="500" preserveAspectRatio="xMidYMid meet" version="1.0"><defs><g/></defs><rect x="-37.5" width="450" fill="#ffffff" y="-37.499999" height="449.999989" fill-opacity="1"/><rect x="-37.5" width="450" fill="#fdfcf8" y="-37.499999" height="449.999989" fill-opacity="1"/><g fill="#000000" fill-opacity="1"><g transform="translate(142.080347, 176.066472)"><g><path d="M 3.179688 0 C 6.875 0 7.9375 -2.613281 7.9375 -5.0625 C 7.9375 -7.511719 6.875 -10.125 3.179688 -10.125 L 0.707031 -10.125 L 0.707031 0 Z M 2.867188 -9.972656 C 5.945312 -9.972656 6.46875 -7.066406 6.46875 -5.0625 C 6.46875 -3.058594 5.945312 -0.152344 2.867188 -0.152344 L 2.175781 -0.152344 L 2.175781 -9.972656 Z M 2.867188 -9.972656 "/></g></g></g><g fill="#000000" fill-opacity="1"><g transform="translate(150.423321, 176.066472)"><g><path d="M 0.40625 -3.402344 C 0.40625 -0.820312 2.652344 0.101562 5.09375 0.101562 C 5.78125 0.101562 6.296875 0 6.835938 -0.253906 L 7.441406 -2.015625 C 6.753906 -1.4375 5.902344 -1.367188 5.050781 -1.367188 C 2.785156 -1.367188 0.585938 -1.832031 0.585938 -3.320312 C 0.585938 -3.847656 0.980469 -4.160156 1.894531 -4.160156 C 3.21875 -4.160156 4.242188 -3.1875 5.742188 -3.238281 C 6.449219 -3.261719 7.085938 -3.734375 7.085938 -4.496094 C 7.085938 -6.511719 1.792969 -5.8125 1.792969 -7.734375 C 1.792969 -8.445312 2.417969 -8.796875 3.898438 -8.796875 C 5.195312 -8.796875 6.539062 -8.453125 7.128906 -8.027344 L 7.542969 -9.546875 C 6.914062 -10.054688 5.175781 -10.226562 4.132812 -10.226562 C 1.214844 -10.226562 0.648438 -8.847656 0.648438 -8.230469 C 0.648438 -6.734375 2.105469 -6.460938 3.535156 -6.117188 C 4.617188 -5.851562 6.347656 -5.539062 6.347656 -4.941406 C 6.347656 -4.707031 6.136719 -4.617188 5.902344 -4.617188 C 4.960938 -4.617188 4.191406 -5.324219 2.84375 -5.324219 C 1.46875 -5.324219 0.40625 -4.6875 0.40625 -3.402344 Z M 0.40625 -3.402344 "/></g></g></g><g fill="#000000" fill-opacity="1"><g transform="translate(158.189172, 176.066472)"><g><path d="M 0.203125 -10.125 C 1.253906 -6.671875 1.863281 -4.628906 2.894531 -1.253906 C 3.109375 -0.558594 3.511719 0.101562 4.253906 0.101562 C 4.992188 0.101562 5.398438 -0.558594 5.609375 -1.253906 C 6.632812 -4.628906 7.257812 -6.671875 8.300781 -10.125 L 6.753906 -10.125 C 5.710938 -6.671875 5.125 -4.617188 4.058594 -1.253906 C 3.96875 -0.972656 3.835938 -0.882812 3.613281 -0.882812 C 2.277344 -0.882812 2.125 -8.941406 2.410156 -10.125 Z M 0.203125 -10.125 "/></g></g></g><g fill="#000000" fill-opacity="1"><g transform="translate(166.694148, 176.066472)"><g><path d="M 0.40625 -3.402344 C 0.40625 -0.820312 2.652344 0.101562 5.09375 0.101562 C 5.78125 0.101562 6.296875 0 6.835938 -0.253906 L 7.441406 -2.015625 C 6.753906 -1.4375 5.902344 -1.367188 5.050781 -1.367188 C 2.785156 -1.367188 0.585938 -1.832031 0.585938 -3.320312 C 0.585938 -3.847656 0.980469 -4.160156 1.894531 -4.160156 C 3.21875 -4.160156 4.242188 -3.1875 5.742188 -3.238281 C 6.449219 -3.261719 7.085938 -3.734375 7.085938 -4.496094 C 7.085938 -6.511719 1.792969 -5.8125 1.792969 -7.734375 C 1.792969 -8.445312 2.417969 -8.796875 3.898438 -8.796875 C 5.195312 -8.796875 6.539062 -8.453125 7.128906 -8.027344 L 7.542969 -9.546875 C 6.914062 -10.054688 5.175781 -10.226562 4.132812 -10.226562 C 1.214844 -10.226562 0.648438 -8.847656 0.648438 -8.230469 C 0.648438 -6.734375 2.105469 -6.460938 3.535156 -6.117188 C 4.617188 -5.851562 6.347656 -5.539062 6.347656 -4.941406 C 6.347656 -4.707031 6.136719 -4.617188 5.902344 -4.617188 C 4.960938 -4.617188 4.191406 -5.324219 2.84375 -5.324219 C 1.46875 -5.324219 0.40625 -4.6875 0.40625 -3.402344 Z M 0.40625 -3.402344 "/></g></g></g><g fill="#000000" fill-opacity="1"><g transform="translate(174.459998, 176.066472)"><g><path d="M 0.707031 0 L 6.785156 0 L 6.785156 -1.660156 C 6.09375 -0.953125 3.949219 -0.160156 2.175781 -0.152344 L 2.175781 -10.125 L 0.707031 -10.125 Z M 0.707031 0 "/></g></g></g><g fill="#000000" fill-opacity="1"><g transform="translate(181.6386, 176.066472)"><g><path d="M 4.40625 0.101562 C 6.804688 0.101562 8.402344 -1.964844 8.402344 -5.0625 C 8.402344 -8.160156 6.804688 -10.226562 4.40625 -10.226562 C 1.996094 -10.226562 0.40625 -8.160156 0.40625 -5.0625 C 0.40625 -1.964844 1.996094 0.101562 4.40625 0.101562 Z M 1.984375 -5.074219 C 1.984375 -8.078125 2.945312 -10.085938 4.394531 -10.085938 C 5.851562 -10.085938 6.824219 -8.078125 6.824219 -5.074219 C 6.824219 -2.054688 5.851562 -0.0507812 4.394531 -0.0507812 C 2.945312 -0.0507812 1.984375 -2.054688 1.984375 -5.074219 Z M 1.984375 -5.074219 "/></g></g></g><g fill="#000000" fill-opacity="1"><g transform="translate(190.447326, 176.066472)"><g><path d="M 2.175781 0 L 2.175781 -4.089844 L 3.96875 -4.089844 C 6.074219 -4.089844 7.199219 -5.628906 7.199219 -7.109375 C 7.199219 -8.585938 6.167969 -10.125 4.453125 -10.125 L 0.707031 -10.125 L 0.707031 0 Z M 3.039062 -9.992188 C 4.839844 -9.992188 5.730469 -8.523438 5.730469 -7.085938 C 5.730469 -5.679688 4.820312 -4.242188 3.039062 -4.242188 L 2.175781 -4.242188 L 2.175781 -9.992188 Z M 3.039062 -9.992188 "/></g></g></g><g fill="#000000" fill-opacity="1"><g transform="translate(198.051175, 176.066472)"><g><path d="M 2.175781 0 L 2.175781 -4.089844 L 3.96875 -4.089844 C 6.074219 -4.089844 7.199219 -5.628906 7.199219 -7.109375 C 7.199219 -8.585938 6.167969 -10.125 4.453125 -10.125 L 0.707031 -10.125 L 0.707031 0 Z M 3.039062 -9.992188 C 4.839844 -9.992188 5.730469 -8.523438 5.730469 -7.085938 C 5.730469 -5.679688 4.820312 -4.242188 3.039062 -4.242188 L 2.175781 -4.242188 L 2.175781 -9.992188 Z M 3.039062 -9.992188 "/></g></g></g><g fill="#000000" fill-opacity="1"><g transform="translate(205.655025, 176.066472)"><g><path d="M 0.40625 -3.402344 C 0.40625 -0.820312 2.652344 0.101562 5.09375 0.101562 C 5.78125 0.101562 6.296875 0 6.835938 -0.253906 L 7.441406 -2.015625 C 6.753906 -1.4375 5.902344 -1.367188 5.050781 -1.367188 C 2.785156 -1.367188 0.585938 -1.832031 0.585938 -3.320312 C 0.585938 -3.847656 0.980469 -4.160156 1.894531 -4.160156 C 3.21875 -4.160156 4.242188 -3.1875 5.742188 -3.238281 C 6.449219 -3.261719 7.085938 -3.734375 7.085938 -4.496094 C 7.085938 -6.511719 1.792969 -5.8125 1.792969 -7.734375 C 1.792969 -8.445312 2.417969 -8.796875 3.898438 -8.796875 C 5.195312 -8.796875 6.539062 -8.453125 7.128906 -8.027344 L 7.542969 -9.546875 C 6.914062 -10.054688 5.175781 -10.226562 4.132812 -10.226562 C 1.214844 -10.226562 0.648438 -8.847656 0.648438 -8.230469 C 0.648438 -6.734375 2.105469 -6.460938 3.535156 -6.117188 C 4.617188 -5.851562 6.347656 -5.539062 6.347656 -4.941406 C 6.347656 -4.707031 6.136719 -4.617188 5.902344 -4.617188 C 4.960938 -4.617188 4.191406 -5.324219 2.84375 -5.324219 C 1.46875 -5.324219 0.40625 -4.6875 0.40625 -3.402344 Z M 0.40625 -3.402344 "/></g></g></g><g fill="#000000" fill-opacity="1"><g transform="translate(213.420876, 176.066472)"><g><path d="M 0.707031 -2.226562 C 0.707031 -0.992188 1.558594 0.101562 3.167969 0.101562 C 6.390625 0.101562 7.855469 -3.675781 7.855469 -6.117188 L 7.855469 -10.125 L 6.390625 -10.125 L 6.398438 -2.238281 C 6.398438 -1.214844 5.011719 -1.214844 3.664062 -1.214844 C 1.832031 -1.214844 0.890625 -1.550781 0.890625 -2.773438 C 0.890625 -3.96875 1.609375 -7.707031 2.816406 -10.125 L 0.707031 -10.125 Z M 0.707031 -2.226562 "/></g></g></g><g fill="#000000" fill-opacity="1"><g transform="translate(221.885347, 176.066472)"><g><path d="M 2.175781 0 L 2.175781 -9.972656 L 4.34375 -9.972656 C 5.539062 -9.972656 6.015625 -9.242188 6.015625 -8.292969 C 6.015625 -5.640625 2.957031 -5.519531 2.957031 -4.535156 C 2.957031 -3.886719 4.253906 -1.882812 5.101562 -0.769531 C 5.628906 -0.0820312 5.660156 0 6.257812 0 L 7.929688 0 L 7.929688 -0.0625 C 7.199219 -0.0625 4.132812 -4.527344 4.132812 -5.222656 C 4.132812 -5.84375 7.480469 -5.945312 7.480469 -8.382812 C 7.480469 -9.214844 6.945312 -10.125 5.84375 -10.125 L 0.707031 -10.125 L 0.707031 0 Z M 2.175781 0 "/></g></g></g><g fill="#000000" fill-opacity="1"><g transform="translate(140.733075, 196.005111)"><g><path d="M 1.953125 -1.84375 L 0.609375 -1.328125 L 1.953125 -0.8125 L 1.953125 -0.484375 L 0.25 -1.15625 L 0.25 -1.484375 L 1.953125 -2.15625 Z M 1.953125 -1.84375 "/></g></g></g><g fill="#000000" fill-opacity="1"><g transform="translate(142.937521, 196.005111)"><g/></g></g><g fill="#000000" fill-opacity="1"><g transform="translate(143.956415, 196.005111)"><g><path d="M 0.734375 0.03125 C 0.578125 0.03125 0.429688 0 0.296875 -0.0625 C 0.160156 -0.132812 0.0507812 -0.234375 -0.03125 -0.359375 L 0.1875 -0.609375 C 0.332031 -0.398438 0.515625 -0.296875 0.734375 -0.296875 C 0.878906 -0.296875 0.988281 -0.335938 1.0625 -0.421875 C 1.144531 -0.515625 1.1875 -0.648438 1.1875 -0.828125 L 1.1875 -2.3125 L 0.234375 -2.3125 L 0.234375 -2.640625 L 1.5625 -2.640625 L 1.5625 -0.84375 C 1.5625 -0.550781 1.488281 -0.332031 1.34375 -0.1875 C 1.207031 -0.0390625 1.003906 0.03125 0.734375 0.03125 Z M 0.734375 0.03125 "/></g></g></g><g fill="#000000" fill-opacity="1"><g transform="translate(145.899505, 196.005111)"><g><path d="M 2.078125 -0.65625 L 0.671875 -0.65625 L 0.390625 0 L 0 0 L 1.1875 -2.640625 L 1.5625 -2.640625 L 2.765625 0 L 2.375 0 Z M 1.953125 -0.96875 L 1.375 -2.265625 L 0.8125 -0.96875 Z M 1.953125 -0.96875 "/></g></g></g><g fill="#000000" fill-opacity="1"><g transform="translate(148.672103, 196.005111)"><g><path d="M 2.703125 -2.640625 L 1.53125 0 L 1.15625 0 L 0 -2.640625 L 0.40625 -2.640625 L 1.359375 -0.46875 L 2.3125 -2.640625 Z M 2.703125 -2.640625 "/></g></g></g><g fill="#000000" fill-opacity="1"><g transform="translate(151.368951, 196.005111)"><g><path d="M 2.078125 -0.65625 L 0.671875 -0.65625 L 0.390625 0 L 0 0 L 1.1875 -2.640625 L 1.5625 -2.640625 L 2.765625 0 L 2.375 0 Z M 1.953125 -0.96875 L 1.375 -2.265625 L 0.8125 -0.96875 Z M 1.953125 -0.96875 "/></g></g></g><g fill="#000000" fill-opacity="1"><g transform="translate(154.14155, 196.005111)"><g><path d="M 1.171875 0.03125 C 0.972656 0.03125 0.78125 0 0.59375 -0.0625 C 0.40625 -0.125 0.257812 -0.203125 0.15625 -0.296875 L 0.296875 -0.59375 C 0.398438 -0.507812 0.53125 -0.4375 0.6875 -0.375 C 0.84375 -0.320312 1.003906 -0.296875 1.171875 -0.296875 C 1.390625 -0.296875 1.550781 -0.332031 1.65625 -0.40625 C 1.769531 -0.476562 1.828125 -0.578125 1.828125 -0.703125 C 1.828125 -0.785156 1.796875 -0.851562 1.734375 -0.90625 C 1.671875 -0.96875 1.597656 -1.015625 1.515625 -1.046875 C 1.429688 -1.078125 1.304688 -1.113281 1.140625 -1.15625 C 0.941406 -1.195312 0.78125 -1.242188 0.65625 -1.296875 C 0.539062 -1.347656 0.4375 -1.421875 0.34375 -1.515625 C 0.257812 -1.617188 0.21875 -1.753906 0.21875 -1.921875 C 0.21875 -2.054688 0.253906 -2.179688 0.328125 -2.296875 C 0.398438 -2.410156 0.507812 -2.5 0.65625 -2.5625 C 0.8125 -2.632812 1.003906 -2.671875 1.234375 -2.671875 C 1.390625 -2.671875 1.539062 -2.648438 1.6875 -2.609375 C 1.84375 -2.578125 1.972656 -2.519531 2.078125 -2.4375 L 1.953125 -2.140625 C 1.847656 -2.210938 1.734375 -2.265625 1.609375 -2.296875 C 1.484375 -2.335938 1.359375 -2.359375 1.234375 -2.359375 C 1.015625 -2.359375 0.851562 -2.316406 0.75 -2.234375 C 0.644531 -2.160156 0.59375 -2.0625 0.59375 -1.9375 C 0.59375 -1.84375 0.617188 -1.765625 0.671875 -1.703125 C 0.734375 -1.648438 0.8125 -1.609375 0.90625 -1.578125 C 1 -1.546875 1.117188 -1.515625 1.265625 -1.484375 C 1.460938 -1.429688 1.625 -1.378906 1.75 -1.328125 C 1.875 -1.285156 1.976562 -1.210938 2.0625 -1.109375 C 2.144531 -1.015625 2.1875 -0.882812 2.1875 -0.71875 C 2.1875 -0.582031 2.148438 -0.457031 2.078125 -0.34375 C 2.003906 -0.226562 1.890625 -0.132812 1.734375 -0.0625 C 1.578125 0 1.390625 0.03125 1.171875 0.03125 Z M 1.171875 0.03125 "/></g></g></g><g fill="#000000" fill-opacity="1"><g transform="translate(156.493716, 196.005111)"><g><path d="M 1.578125 0.03125 C 1.316406 0.03125 1.078125 -0.0234375 0.859375 -0.140625 C 0.648438 -0.265625 0.484375 -0.425781 0.359375 -0.625 C 0.242188 -0.832031 0.1875 -1.066406 0.1875 -1.328125 C 0.1875 -1.578125 0.242188 -1.804688 0.359375 -2.015625 C 0.484375 -2.222656 0.648438 -2.382812 0.859375 -2.5 C 1.078125 -2.613281 1.316406 -2.671875 1.578125 -2.671875 C 1.785156 -2.671875 1.972656 -2.632812 2.140625 -2.5625 C 2.316406 -2.5 2.46875 -2.398438 2.59375 -2.265625 L 2.34375 -2.03125 C 2.144531 -2.238281 1.894531 -2.34375 1.59375 -2.34375 C 1.394531 -2.34375 1.21875 -2.296875 1.0625 -2.203125 C 0.90625 -2.117188 0.78125 -2 0.6875 -1.84375 C 0.601562 -1.6875 0.5625 -1.515625 0.5625 -1.328125 C 0.5625 -1.128906 0.601562 -0.953125 0.6875 -0.796875 C 0.78125 -0.648438 0.90625 -0.53125 1.0625 -0.4375 C 1.21875 -0.351562 1.394531 -0.3125 1.59375 -0.3125 C 1.894531 -0.3125 2.144531 -0.414062 2.34375 -0.625 L 2.59375 -0.390625 C 2.46875 -0.253906 2.316406 -0.148438 2.140625 -0.078125 C 1.972656 -0.00390625 1.785156 0.03125 1.578125 0.03125 Z M 1.578125 0.03125 "/></g></g></g><g fill="#000000" fill-opacity="1"><g transform="translate(159.232224, 196.005111)"><g><path d="M 2.171875 0 L 1.59375 -0.8125 C 1.519531 -0.8125 1.460938 -0.8125 1.421875 -0.8125 L 0.78125 -0.8125 L 0.78125 0 L 0.390625 0 L 0.390625 -2.640625 L 1.421875 -2.640625 C 1.765625 -2.640625 2.035156 -2.554688 2.234375 -2.390625 C 2.429688 -2.234375 2.53125 -2.007812 2.53125 -1.71875 C 2.53125 -1.519531 2.476562 -1.347656 2.375 -1.203125 C 2.28125 -1.054688 2.140625 -0.953125 1.953125 -0.890625 L 2.578125 0 Z M 1.421875 -1.125 C 1.660156 -1.125 1.84375 -1.175781 1.96875 -1.28125 C 2.09375 -1.382812 2.15625 -1.53125 2.15625 -1.71875 C 2.15625 -1.914062 2.09375 -2.0625 1.96875 -2.15625 C 1.84375 -2.257812 1.660156 -2.3125 1.421875 -2.3125 L 0.78125 -2.3125 L 0.78125 -1.125 Z M 1.421875 -1.125 "/></g></g></g><g fill="#000000" fill-opacity="1"><g transform="translate(161.985885, 196.005111)"><g><path d="M 0.390625 -2.640625 L 0.78125 -2.640625 L 0.78125 0 L 0.390625 0 Z M 0.390625 -2.640625 "/></g></g></g><g fill="#000000" fill-opacity="1"><g transform="translate(163.160075, 196.005111)"><g><path d="M 1.421875 -2.640625 C 1.765625 -2.640625 2.035156 -2.554688 2.234375 -2.390625 C 2.429688 -2.234375 2.53125 -2.007812 2.53125 -1.71875 C 2.53125 -1.4375 2.429688 -1.210938 2.234375 -1.046875 C 2.035156 -0.878906 1.765625 -0.796875 1.421875 -0.796875 L 0.78125 -0.796875 L 0.78125 0 L 0.390625 0 L 0.390625 -2.640625 Z M 1.421875 -1.125 C 1.660156 -1.125 1.84375 -1.175781 1.96875 -1.28125 C 2.09375 -1.382812 2.15625 -1.53125 2.15625 -1.71875 C 2.15625 -1.914062 2.09375 -2.0625 1.96875 -2.15625 C 1.84375 -2.257812 1.660156 -2.3125 1.421875 -2.3125 L 0.78125 -2.3125 L 0.78125 -1.125 Z M 1.421875 -1.125 "/></g></g></g><g fill="#000000" fill-opacity="1"><g transform="translate(165.894798, 196.005111)"><g><path d="M 0.921875 -2.3125 L 0.015625 -2.3125 L 0.015625 -2.640625 L 2.203125 -2.640625 L 2.203125 -2.3125 L 1.296875 -2.3125 L 1.296875 0 L 0.921875 0 Z M 0.921875 -2.3125 "/></g></g></g><g fill="#000000" fill-opacity="1"><g transform="translate(168.118182, 196.005111)"><g/></g></g><g fill="#000000" fill-opacity="1"><g transform="translate(169.137076, 196.005111)"><g><path d="M 1.140625 -3.1875 L 1.46875 -3.1875 L 0.21875 0.375 L -0.109375 0.375 Z M 1.140625 -3.1875 "/></g></g></g><g fill="#000000" fill-opacity="1"><g transform="translate(170.470347, 196.005111)"><g/></g></g><g fill="#000000" fill-opacity="1"><g transform="translate(171.489241, 196.005111)"><g><path d="M 2.171875 0 L 1.59375 -0.8125 C 1.519531 -0.8125 1.460938 -0.8125 1.421875 -0.8125 L 0.78125 -0.8125 L 0.78125 0 L 0.390625 0 L 0.390625 -2.640625 L 1.421875 -2.640625 C 1.765625 -2.640625 2.035156 -2.554688 2.234375 -2.390625 C 2.429688 -2.234375 2.53125 -2.007812 2.53125 -1.71875 C 2.53125 -1.519531 2.476562 -1.347656 2.375 -1.203125 C 2.28125 -1.054688 2.140625 -0.953125 1.953125 -0.890625 L 2.578125 0 Z M 1.421875 -1.125 C 1.660156 -1.125 1.84375 -1.175781 1.96875 -1.28125 C 2.09375 -1.382812 2.15625 -1.53125 2.15625 -1.71875 C 2.15625 -1.914062 2.09375 -2.0625 1.96875 -2.15625 C 1.84375 -2.257812 1.660156 -2.3125 1.421875 -2.3125 L 0.78125 -2.3125 L 0.78125 -1.125 Z M 1.421875 -1.125 "/></g></g></g><g fill="#000000" fill-opacity="1"><g transform="translate(174.242902, 196.005111)"><g><path d="M 2.3125 -0.328125 L 2.3125 0 L 0.390625 0 L 0.390625 -2.640625 L 2.265625 -2.640625 L 2.265625 -2.3125 L 0.78125 -2.3125 L 0.78125 -1.5 L 2.109375 -1.5 L 2.109375 -1.1875 L 0.78125 -1.1875 L 0.78125 -0.328125 Z M 2.3125 -0.328125 "/></g></g></g><g fill="#000000" fill-opacity="1"><g transform="translate(176.780663, 196.005111)"><g><path d="M 2.078125 -0.65625 L 0.671875 -0.65625 L 0.390625 0 L 0 0 L 1.1875 -2.640625 L 1.5625 -2.640625 L 2.765625 0 L 2.375 0 Z M 1.953125 -0.96875 L 1.375 -2.265625 L 0.8125 -0.96875 Z M 1.953125 -0.96875 "/></g></g></g><g fill="#000000" fill-opacity="1"><g transform="translate(179.553262, 196.005111)"><g><path d="M 1.578125 0.03125 C 1.316406 0.03125 1.078125 -0.0234375 0.859375 -0.140625 C 0.648438 -0.265625 0.484375 -0.425781 0.359375 -0.625 C 0.242188 -0.832031 0.1875 -1.066406 0.1875 -1.328125 C 0.1875 -1.578125 0.242188 -1.804688 0.359375 -2.015625 C 0.484375 -2.222656 0.648438 -2.382812 0.859375 -2.5 C 1.078125 -2.613281 1.316406 -2.671875 1.578125 -2.671875 C 1.785156 -2.671875 1.972656 -2.632812 2.140625 -2.5625 C 2.316406 -2.5 2.46875 -2.398438 2.59375 -2.265625 L 2.34375 -2.03125 C 2.144531 -2.238281 1.894531 -2.34375 1.59375 -2.34375 C 1.394531 -2.34375 1.21875 -2.296875 1.0625 -2.203125 C 0.90625 -2.117188 0.78125 -2 0.6875 -1.84375 C 0.601562 -1.6875 0.5625 -1.515625 0.5625 -1.328125 C 0.5625 -1.128906 0.601562 -0.953125 0.6875 -0.796875 C 0.78125 -0.648438 0.90625 -0.53125 1.0625 -0.4375 C 1.21875 -0.351562 1.394531 -0.3125 1.59375 -0.3125 C 1.894531 -0.3125 2.144531 -0.414062 2.34375 -0.625 L 2.59375 -0.390625 C 2.46875 -0.253906 2.316406 -0.148438 2.140625 -0.078125 C 1.972656 -0.00390625 1.785156 0.03125 1.578125 0.03125 Z M 1.578125 0.03125 "/></g></g></g><g fill="#000000" fill-opacity="1"><g transform="translate(182.291771, 196.005111)"><g><path d="M 0.921875 -2.3125 L 0.015625 -2.3125 L 0.015625 -2.640625 L 2.203125 -2.640625 L 2.203125 -2.3125 L 1.296875 -2.3125 L 1.296875 0 L 0.921875 0 Z M 0.921875 -2.3125 "/></g></g></g><g fill="#000000" fill-opacity="1"><g transform="translate(184.515154, 196.005111)"><g/></g></g><g fill="#000000" fill-opacity="1"><g transform="translate(185.534048, 196.005111)"><g><path d="M 1.953125 -1.484375 L 1.953125 -1.15625 L 0.25 -0.484375 L 0.25 -0.8125 L 1.59375 -1.328125 L 0.25 -1.84375 L 0.25 -2.15625 Z M 1.953125 -1.484375 "/></g></g></g><g fill="#000000" fill-opacity="1"><g transform="translate(176.571395, 188.215066)"><g><path d="M 0.550781 0 L 1.691406 0 L 1.691406 -3.929688 L 2.667969 -3.929688 C 3.597656 -3.929688 4.28125 -3.699219 4.503906 -3.203125 L 4.503906 -4.769531 C 4.28125 -4.273438 3.597656 -4.046875 2.667969 -4.046875 L 1.691406 -4.046875 L 1.691406 -7.753906 L 2.296875 -7.753906 C 4.109375 -7.753906 5.039062 -7.140625 5.582031 -6.582031 L 5.582031 -7.871094 L 0.550781 -7.871094 Z M 0.550781 0 "/></g></g></g><g fill="#000000" fill-opacity="1"><g transform="translate(182.309065, 188.215066)"><g><path d="M 1.691406 0 L 1.691406 -7.753906 L 3.378906 -7.753906 C 4.304688 -7.753906 4.675781 -7.1875 4.675781 -6.449219 C 4.675781 -4.386719 2.296875 -4.289062 2.296875 -3.527344 C 2.296875 -3.023438 3.304688 -1.464844 3.96875 -0.597656 C 4.375 -0.0625 4.402344 0 4.863281 0 L 6.164062 0 L 6.164062 -0.046875 C 5.597656 -0.046875 3.210938 -3.519531 3.210938 -4.0625 C 3.210938 -4.542969 5.816406 -4.621094 5.816406 -6.519531 C 5.816406 -7.164062 5.398438 -7.871094 4.542969 -7.871094 L 0.550781 -7.871094 L 0.550781 0 Z M 1.691406 0 "/></g></g></g><g fill="#000000" fill-opacity="1"><g transform="translate(188.471751, 188.215066)"><g><path d="M 3.425781 0.078125 C 5.289062 0.078125 6.535156 -1.527344 6.535156 -3.9375 C 6.535156 -6.34375 5.289062 -7.949219 3.425781 -7.949219 C 1.550781 -7.949219 0.316406 -6.34375 0.316406 -3.9375 C 0.316406 -1.527344 1.550781 0.078125 3.425781 0.078125 Z M 1.542969 -3.945312 C 1.542969 -6.28125 2.289062 -7.839844 3.417969 -7.839844 C 4.550781 -7.839844 5.304688 -6.28125 5.304688 -3.945312 C 5.304688 -1.597656 4.550781 -0.0390625 3.417969 -0.0390625 C 2.289062 -0.0390625 1.542969 -1.597656 1.542969 -3.945312 Z M 1.542969 -3.945312 "/></g></g></g><g fill="#000000" fill-opacity="1"><g transform="translate(195.319179, 188.215066)"><g><path d="M 0.550781 0 L 2.1875 0 C 1.1875 -1.792969 0.691406 -3.875 0.691406 -6.878906 C 0.691406 -6.878906 0.890625 -7.023438 1.332031 -6.179688 C 1.558594 -5.738281 2.007812 -4.800781 2.761719 -3.363281 C 3.730469 -1.519531 4.777344 0.078125 5.746094 0.078125 C 5.855469 0.078125 6.015625 0.046875 6.101562 0 L 6.101562 -7.871094 L 4.464844 -7.871094 C 5.464844 -6.078125 5.960938 -4 5.960938 -1.054688 C 5.960938 -1.054688 5.816406 -0.890625 5.390625 -1.347656 C 5.054688 -1.714844 4.535156 -2.480469 3.746094 -3.9375 C 2.265625 -6.675781 2.078125 -7.949219 0.90625 -7.949219 C 0.796875 -7.949219 0.636719 -7.917969 0.550781 -7.871094 Z M 0.550781 0 "/></g></g></g><g fill="#000000" fill-opacity="1"><g transform="translate(201.969844, 188.215066)"><g><path d="M 0.234375 -6.582031 C 0.753906 -7.109375 1.746094 -7.691406 2.457031 -7.746094 L 2.457031 0 L 3.597656 0 L 3.597656 -7.746094 C 4.304688 -7.691406 5.296875 -7.109375 5.816406 -6.582031 L 5.816406 -7.871094 L 0.234375 -7.871094 Z M 0.234375 -6.582031 "/></g></g></g><g fill="#000000" fill-opacity="1"><g transform="translate(208.022343, 188.215066)"><g><path d="M 0.394531 -3.777344 L 0.394531 -3.542969 L 3.777344 -3.542969 L 3.777344 -3.777344 Z M 0.394531 -3.777344 "/></g></g></g><g fill="#000000" fill-opacity="1"><g transform="translate(212.193766, 188.215066)"><g><path d="M 0.316406 -2.644531 C 0.316406 -0.636719 2.0625 0.078125 3.960938 0.078125 C 4.496094 0.078125 4.898438 0 5.3125 -0.195312 L 5.785156 -1.566406 C 5.25 -1.117188 4.589844 -1.0625 3.929688 -1.0625 C 2.164062 -1.0625 0.457031 -1.425781 0.457031 -2.582031 C 0.457031 -2.992188 0.761719 -3.234375 1.472656 -3.234375 C 2.503906 -3.234375 3.296875 -2.480469 4.464844 -2.519531 C 5.015625 -2.535156 5.511719 -2.90625 5.511719 -3.496094 C 5.511719 -5.0625 1.394531 -4.519531 1.394531 -6.015625 C 1.394531 -6.566406 1.882812 -6.839844 3.03125 -6.839844 C 4.039062 -6.839844 5.085938 -6.574219 5.542969 -6.242188 L 5.863281 -7.421875 C 5.375 -7.816406 4.023438 -7.949219 3.210938 -7.949219 C 0.945312 -7.949219 0.503906 -6.878906 0.503906 -6.398438 C 0.503906 -5.234375 1.636719 -5.023438 2.746094 -4.753906 C 3.589844 -4.550781 4.9375 -4.304688 4.9375 -3.839844 C 4.9375 -3.660156 4.769531 -3.589844 4.589844 -3.589844 C 3.855469 -3.589844 3.257812 -4.140625 2.210938 -4.140625 C 1.140625 -4.140625 0.316406 -3.644531 0.316406 -2.644531 Z M 0.316406 -2.644531 "/></g></g></g><g fill="#000000" fill-opacity="1"><g transform="translate(218.230519, 188.215066)"><g><path d="M 0.550781 0 L 2.1875 0 C 1.1875 -1.792969 0.691406 -3.875 0.691406 -6.878906 C 0.691406 -6.878906 0.890625 -7.023438 1.332031 -6.179688 C 1.558594 -5.738281 2.007812 -4.800781 2.761719 -3.363281 C 3.730469 -1.519531 4.777344 0.078125 5.746094 0.078125 C 5.855469 0.078125 6.015625 0.046875 6.101562 0 L 6.101562 -7.871094 L 4.464844 -7.871094 C 5.464844 -6.078125 5.960938 -4 5.960938 -1.054688 C 5.960938 -1.054688 5.816406 -0.890625 5.390625 -1.347656 C 5.054688 -1.714844 4.535156 -2.480469 3.746094 -3.9375 C 2.265625 -6.675781 2.078125 -7.949219 0.90625 -7.949219 C 0.796875 -7.949219 0.636719 -7.917969 0.550781 -7.871094 Z M 0.550781 0 "/></g></g></g><g fill="#000000" fill-opacity="1"><g transform="translate(224.881184, 188.215066)"><g><path d="M 2.472656 0 C 5.34375 0 6.171875 -2.03125 6.171875 -3.9375 C 6.171875 -5.839844 5.34375 -7.871094 2.472656 -7.871094 L 0.550781 -7.871094 L 0.550781 0 Z M 2.226562 -7.753906 C 4.621094 -7.753906 5.03125 -5.496094 5.03125 -3.9375 C 5.03125 -2.378906 4.621094 -0.117188 2.226562 -0.117188 L 1.691406 -0.117188 L 1.691406 -7.753906 Z M 2.226562 -7.753906 "/></g></g></g></svg>