<svg xmlns="http://www.w3.org/2000/svg" xmlns:xlink="http://www.w3.org/1999/xlink" width="500" zoomAndPan="magnify" viewBox="0 0 375 374.999991" height="500" preserveAspectRatio="xMidYMid meet" version="1.0"><defs><g/></defs><rect x="-37.5" width="450" fill="#ffffff" y="-37.499999" height="449.999989" fill-opacity="1"/><rect x="-37.5" width="450" fill="#ffffff" y="-37.499999" height="449.999989" fill-opacity="1"/><path stroke-linecap="butt" transform="matrix(0.753363, 0, 0, 0.75, 133.256348, 201.962272)" fill="none" stroke-linejoin="miter" d="M 0.00194428 3.498222 L 83.637319 3.498222 " stroke="#000000" stroke-width="7" stroke-opacity="1" stroke-miterlimit="4"/><g fill="#000000" fill-opacity="1"><g transform="translate(133.256348, 192.036172)"><g><path d="M 1.984375 -19.828125 L 11.359375 -19.828125 C 13.535156 -19.828125 15.460938 -19.421875 17.140625 -18.609375 C 18.816406 -17.796875 20.117188 -16.644531 21.046875 -15.15625 C 21.972656 -13.664062 22.4375 -11.921875 22.4375 -9.921875 C 22.4375 -7.910156 21.972656 -6.160156 21.046875 -4.671875 C 20.117188 -3.179688 18.816406 -2.03125 17.140625 -1.21875 C 15.460938 -0.40625 13.535156 0 11.359375 0 L 1.984375 0 Z M 11.140625 -4.46875 C 12.835938 -4.46875 14.195312 -4.945312 15.21875 -5.90625 C 16.25 -6.875 16.765625 -8.210938 16.765625 -9.921875 C 16.765625 -11.617188 16.25 -12.945312 15.21875 -13.90625 C 14.195312 -14.875 12.835938 -15.359375 11.140625 -15.359375 L 7.59375 -15.359375 L 7.59375 -4.46875 Z M 11.140625 -4.46875 "/></g></g></g><g fill="#000000" fill-opacity="1"><g transform="translate(159.1098, 192.036172)"><g><path d="M 17.90625 -4.328125 L 17.90625 0 L 1.984375 0 L 1.984375 -19.828125 L 17.53125 -19.828125 L 17.53125 -15.5 L 7.53125 -15.5 L 7.53125 -12.15625 L 16.34375 -12.15625 L 16.34375 -7.953125 L 7.53125 -7.953125 L 7.53125 -4.328125 Z M 17.90625 -4.328125 "/></g></g></g><g fill="#000000" fill-opacity="1"><g transform="translate(180.602491, 192.036172)"><g><path d="M 22.09375 -19.828125 L 13.59375 0 L 8.078125 0 L -0.390625 -19.828125 L 5.671875 -19.828125 L 11.046875 -6.90625 L 16.546875 -19.828125 Z M 22.09375 -19.828125 "/></g></g></g><g fill="#000000" fill-opacity="1"><g transform="translate(204.756946, 192.036172)"><g><path d="M 4 0.25 C 3.09375 0.25 2.328125 -0.0507812 1.703125 -0.65625 C 1.078125 -1.257812 0.765625 -2.023438 0.765625 -2.953125 C 0.765625 -3.890625 1.070312 -4.648438 1.6875 -5.234375 C 2.300781 -5.828125 3.070312 -6.125 4 -6.125 C 4.9375 -6.125 5.707031 -5.828125 6.3125 -5.234375 C 6.914062 -4.648438 7.21875 -3.890625 7.21875 -2.953125 C 7.21875 -2.023438 6.910156 -1.257812 6.296875 -0.65625 C 5.679688 -0.0507812 4.914062 0.25 4 0.25 Z M 4 0.25 "/></g></g></g><g fill="#000000" fill-opacity="1"><g transform="translate(199.22463, 202.477897)"><g><path d="M 1 0.046875 C 0.78125 0.046875 0.578125 0 0.390625 -0.09375 C 0.210938 -0.1875 0.0664062 -0.316406 -0.046875 -0.484375 L 0.25 -0.828125 C 0.445312 -0.546875 0.695312 -0.40625 1 -0.40625 C 1.207031 -0.40625 1.363281 -0.460938 1.46875 -0.578125 C 1.570312 -0.703125 1.625 -0.882812 1.625 -1.125 L 1.625 -3.15625 L 0.3125 -3.15625 L 0.3125 -3.59375 L 2.125 -3.59375 L 2.125 -1.15625 C 2.125 -0.757812 2.03125 -0.457031 1.84375 -0.25 C 1.65625 -0.0507812 1.375 0.046875 1 0.046875 Z M 1 0.046875 "/></g></g></g><g fill="#000000" fill-opacity="1"><g transform="translate(203.138076, 202.477897)"><g><path d="M 2.03125 0.046875 C 1.550781 0.046875 1.175781 -0.0859375 0.90625 -0.359375 C 0.644531 -0.640625 0.515625 -1.035156 0.515625 -1.546875 L 0.515625 -3.59375 L 1.015625 -3.59375 L 1.015625 -1.578125 C 1.015625 -0.804688 1.351562 -0.421875 2.03125 -0.421875 C 2.363281 -0.421875 2.613281 -0.515625 2.78125 -0.703125 C 2.957031 -0.890625 3.046875 -1.179688 3.046875 -1.578125 L 3.046875 -3.59375 L 3.546875 -3.59375 L 3.546875 -1.546875 C 3.546875 -1.035156 3.410156 -0.640625 3.140625 -0.359375 C 2.878906 -0.0859375 2.507812 0.046875 2.03125 0.046875 Z M 2.03125 0.046875 "/></g></g></g><g fill="#000000" fill-opacity="1"><g transform="translate(208.480887, 202.477897)"><g><path d="M 0.546875 -3.59375 L 1.046875 -3.59375 L 1.046875 -0.453125 L 3 -0.453125 L 3 0 L 0.546875 0 Z M 0.546875 -3.59375 "/></g></g></g><g fill="#000000" fill-opacity="1"><g transform="translate(212.810802, 202.477897)"><g><path d="M 0.546875 -3.59375 L 1.046875 -3.59375 L 1.046875 0 L 0.546875 0 Z M 0.546875 -3.59375 "/></g></g></g><g fill="#000000" fill-opacity="1"><g transform="translate(215.680504, 202.477897)"><g><path d="M 3.15625 -0.453125 L 3.15625 0 L 0.546875 0 L 0.546875 -3.59375 L 3.078125 -3.59375 L 3.078125 -3.15625 L 1.046875 -3.15625 L 1.046875 -2.046875 L 2.859375 -2.046875 L 2.859375 -1.609375 L 1.046875 -1.609375 L 1.046875 -0.453125 Z M 3.15625 -0.453125 "/></g></g></g><g fill="#000000" fill-opacity="1"><g transform="translate(220.401181, 202.477897)"><g><path d="M 3.640625 -3.59375 L 3.640625 0 L 3.21875 0 L 1.046875 -2.6875 L 1.046875 0 L 0.546875 0 L 0.546875 -3.59375 L 0.96875 -3.59375 L 3.125 -0.921875 L 3.125 -3.59375 Z M 3.640625 -3.59375 "/></g></g></g><g fill="#000000" fill-opacity="1"><g transform="translate(225.855487, 202.477897)"><g/></g></g><g fill="#000000" fill-opacity="1"><g transform="translate(199.22463, 209.649772)"><g><path d="M 0.546875 -3.59375 L 2.0625 -3.59375 C 2.4375 -3.59375 2.769531 -3.515625 3.0625 -3.359375 C 3.363281 -3.210938 3.59375 -3.003906 3.75 -2.734375 C 3.914062 -2.460938 4 -2.148438 4 -1.796875 C 4 -1.441406 3.914062 -1.128906 3.75 -0.859375 C 3.59375 -0.585938 3.363281 -0.375 3.0625 -0.21875 C 2.769531 -0.0703125 2.4375 0 2.0625 0 L 0.546875 0 Z M 2.03125 -0.453125 C 2.320312 -0.453125 2.578125 -0.503906 2.796875 -0.609375 C 3.015625 -0.722656 3.179688 -0.878906 3.296875 -1.078125 C 3.421875 -1.285156 3.484375 -1.523438 3.484375 -1.796875 C 3.484375 -2.066406 3.421875 -2.300781 3.296875 -2.5 C 3.179688 -2.707031 3.015625 -2.867188 2.796875 -2.984375 C 2.578125 -3.097656 2.320312 -3.15625 2.03125 -3.15625 L 1.046875 -3.15625 L 1.046875 -0.453125 Z M 2.03125 -0.453125 "/></g></g></g><g fill="#000000" fill-opacity="1"><g transform="translate(204.747395, 209.649772)"><g><path d="M 2.03125 0.046875 C 1.550781 0.046875 1.175781 -0.0859375 0.90625 -0.359375 C 0.644531 -0.640625 0.515625 -1.035156 0.515625 -1.546875 L 0.515625 -3.59375 L 1.015625 -3.59375 L 1.015625 -1.578125 C 1.015625 -0.804688 1.351562 -0.421875 2.03125 -0.421875 C 2.363281 -0.421875 2.613281 -0.515625 2.78125 -0.703125 C 2.957031 -0.890625 3.046875 -1.179688 3.046875 -1.578125 L 3.046875 -3.59375 L 3.546875 -3.59375 L 3.546875 -1.546875 C 3.546875 -1.035156 3.410156 -0.640625 3.140625 -0.359375 C 2.878906 -0.0859375 2.507812 0.046875 2.03125 0.046875 Z M 2.03125 0.046875 "/></g></g></g><g fill="#000000" fill-opacity="1"><g transform="translate(210.090206, 209.649772)"><g><path d="M 1.25 -3.15625 L 0.015625 -3.15625 L 0.015625 -3.59375 L 3 -3.59375 L 3 -3.15625 L 1.765625 -3.15625 L 1.765625 0 L 1.25 0 Z M 1.25 -3.15625 "/></g></g></g><g fill="#000000" fill-opacity="1"><g transform="translate(214.38413, 209.649772)"><g><path d="M 2.953125 0 L 2.171875 -1.109375 C 2.078125 -1.097656 2 -1.09375 1.9375 -1.09375 L 1.046875 -1.09375 L 1.046875 0 L 0.546875 0 L 0.546875 -3.59375 L 1.9375 -3.59375 C 2.40625 -3.59375 2.769531 -3.484375 3.03125 -3.265625 C 3.300781 -3.046875 3.4375 -2.738281 3.4375 -2.34375 C 3.4375 -2.0625 3.367188 -1.820312 3.234375 -1.625 C 3.097656 -1.4375 2.90625 -1.296875 2.65625 -1.203125 L 3.5 0 Z M 1.921875 -1.53125 C 2.253906 -1.53125 2.503906 -1.597656 2.671875 -1.734375 C 2.847656 -1.878906 2.9375 -2.082031 2.9375 -2.34375 C 2.9375 -2.601562 2.847656 -2.800781 2.671875 -2.9375 C 2.503906 -3.082031 2.253906 -3.15625 1.921875 -3.15625 L 1.046875 -3.15625 L 1.046875 -1.53125 Z M 1.921875 -1.53125 "/></g></g></g><g fill="#000000" fill-opacity="1"><g transform="translate(219.397878, 209.649772)"><g><path d="M 2.03125 0.046875 C 1.550781 0.046875 1.175781 -0.0859375 0.90625 -0.359375 C 0.644531 -0.640625 0.515625 -1.035156 0.515625 -1.546875 L 0.515625 -3.59375 L 1.015625 -3.59375 L 1.015625 -1.578125 C 1.015625 -0.804688 1.351562 -0.421875 2.03125 -0.421875 C 2.363281 -0.421875 2.613281 -0.515625 2.78125 -0.703125 C 2.957031 -0.890625 3.046875 -1.179688 3.046875 -1.578125 L 3.046875 -3.59375 L 3.546875 -3.59375 L 3.546875 -1.546875 C 3.546875 -1.035156 3.410156 -0.640625 3.140625 -0.359375 C 2.878906 -0.0859375 2.507812 0.046875 2.03125 0.046875 Z M 2.03125 0.046875 "/></g></g></g><g fill="#000000" fill-opacity="1"><g transform="translate(224.740689, 209.649772)"><g><path d="M 2.15625 0.046875 C 1.789062 0.046875 1.460938 -0.03125 1.171875 -0.1875 C 0.878906 -0.351562 0.648438 -0.578125 0.484375 -0.859375 C 0.328125 -1.140625 0.25 -1.453125 0.25 -1.796875 C 0.25 -2.148438 0.328125 -2.460938 0.484375 -2.734375 C 0.648438 -3.015625 0.878906 -3.234375 1.171875 -3.390625 C 1.460938 -3.554688 1.789062 -3.640625 2.15625 -3.640625 C 2.4375 -3.640625 2.691406 -3.59375 2.921875 -3.5 C 3.160156 -3.40625 3.359375 -3.265625 3.515625 -3.078125 L 3.1875 -2.75 C 2.914062 -3.039062 2.578125 -3.1875 2.171875 -3.1875 C 1.910156 -3.1875 1.671875 -3.125 1.453125 -3 C 1.234375 -2.882812 1.0625 -2.71875 0.9375 -2.5 C 0.820312 -2.289062 0.765625 -2.054688 0.765625 -1.796875 C 0.765625 -1.535156 0.820312 -1.300781 0.9375 -1.09375 C 1.0625 -0.882812 1.234375 -0.71875 1.453125 -0.59375 C 1.671875 -0.476562 1.910156 -0.421875 2.171875 -0.421875 C 2.578125 -0.421875 2.914062 -0.5625 3.1875 -0.84375 L 3.515625 -0.53125 C 3.359375 -0.34375 3.160156 -0.195312 2.921875 -0.09375 C 2.679688 0 2.425781 0.046875 2.15625 0.046875 Z M 2.15625 0.046875 "/></g></g></g><g fill="#000000" fill-opacity="1"><g transform="translate(229.733871, 209.649772)"><g><path d="M 3.640625 -3.59375 L 3.640625 0 L 3.125 0 L 3.125 -1.609375 L 1.046875 -1.609375 L 1.046875 0 L 0.546875 0 L 0.546875 -3.59375 L 1.046875 -3.59375 L 1.046875 -2.046875 L 3.125 -2.046875 L 3.125 -3.59375 Z M 3.640625 -3.59375 "/></g></g></g></svg>