<svg xmlns="http://www.w3.org/2000/svg" xmlns:xlink="http://www.w3.org/1999/xlink" width="500" zoomAndPan="magnify" viewBox="0 0 375 374.999991" height="500" preserveAspectRatio="xMidYMid meet" version="1.0"><defs><g/><clipPath id="4f9d827186"><path d="M 188 157 L 224.6875 157 L 224.6875 209.867188 L 188 209.867188 Z M 188 157 " clip-rule="nonzero"/></clipPath><clipPath id="21f7688bb7"><path d="M 150.4375 146 L 167 146 L 167 203 L 150.4375 203 Z M 150.4375 146 " clip-rule="nonzero"/></clipPath><clipPath id="58bd0764fd"><path d="M 171 135.617188 L 209 135.617188 L 209 144 L 171 144 Z M 171 135.617188 " clip-rule="nonzero"/></clipPath></defs><rect x="-37.5" width="450" fill="#ffffff" y="-37.499999" height="449.999989" fill-opacity="1"/><rect x="-37.5" width="450" fill="#ffffff" y="-37.499999" height="449.999989" fill-opacity="1"/><g clip-path="url(#4f9d827186)"><path fill="#54afe6" d="M 189.441406 209.847656 C 189.152344 209.847656 188.910156 209.621094 188.894531 209.324219 C 188.878906 209.023438 189.113281 208.765625 189.414062 208.75 C 208.582031 207.777344 223.597656 191.972656 223.597656 172.765625 C 223.597656 167.722656 222.570312 162.839844 220.542969 158.253906 C 220.421875 157.976562 220.546875 157.652344 220.824219 157.53125 C 221.101562 157.410156 221.425781 157.535156 221.546875 157.8125 C 223.636719 162.535156 224.695312 167.570312 224.695312 172.765625 C 224.695312 182.335938 221.046875 191.429688 214.429688 198.371094 C 207.832031 205.289062 198.96875 209.363281 189.472656 209.847656 C 189.460938 209.847656 189.453125 209.847656 189.441406 209.847656 " fill-opacity="1" fill-rule="nonzero"/></g><g clip-path="url(#21f7688bb7)"><path fill="#2c3587" d="M 166.0625 202.890625 C 165.949219 202.890625 165.835938 202.855469 165.738281 202.785156 C 161.105469 199.40625 157.257812 194.9375 154.613281 189.863281 C 151.882812 184.621094 150.4375 178.707031 150.4375 172.765625 C 150.4375 162.972656 154.234375 153.726562 161.121094 146.730469 C 161.335938 146.515625 161.683594 146.511719 161.898438 146.722656 C 162.113281 146.9375 162.117188 147.285156 161.90625 147.5 C 155.21875 154.289062 151.535156 163.261719 151.535156 172.765625 C 151.535156 184.226562 157.089844 195.117188 166.386719 201.898438 C 166.632812 202.078125 166.683594 202.417969 166.507812 202.664062 C 166.398438 202.8125 166.230469 202.890625 166.0625 202.890625 " fill-opacity="1" fill-rule="nonzero"/></g><g clip-path="url(#58bd0764fd)"><path fill="#2c3587" d="M 208.101562 143.058594 C 207.996094 143.058594 207.886719 143.03125 207.792969 142.964844 C 201.8125 138.890625 194.816406 136.738281 187.566406 136.738281 C 182.105469 136.738281 176.851562 137.933594 171.960938 140.296875 C 171.6875 140.425781 171.359375 140.3125 171.226562 140.039062 C 171.097656 139.765625 171.210938 139.4375 171.484375 139.308594 C 176.527344 136.875 181.9375 135.640625 187.566406 135.640625 C 195.039062 135.640625 202.246094 137.859375 208.410156 142.058594 C 208.660156 142.226562 208.726562 142.570312 208.554688 142.820312 C 208.449219 142.976562 208.277344 143.058594 208.101562 143.058594 " fill-opacity="1" fill-rule="nonzero"/></g><path fill="#286291" d="M 207.484375 200.789062 C 207.316406 200.789062 207.148438 200.710938 207.042969 200.5625 C 206.863281 200.316406 206.917969 199.972656 207.164062 199.796875 C 211.730469 196.476562 215.414062 192.027344 217.808594 186.9375 C 217.9375 186.660156 218.261719 186.542969 218.539062 186.671875 C 218.8125 186.800781 218.929688 187.128906 218.800781 187.402344 C 216.328125 192.660156 212.523438 197.253906 207.808594 200.683594 C 207.710938 200.753906 207.597656 200.789062 207.484375 200.789062 " fill-opacity="1" fill-rule="nonzero"/><path fill="#f1ad53" d="M 187.566406 207.261719 C 180.136719 207.261719 173.054688 204.925781 167.085938 200.507812 C 164.214844 198.382812 161.695312 195.835938 159.601562 192.941406 C 157.480469 190.011719 155.84375 186.789062 154.738281 183.363281 C 154.644531 183.074219 154.800781 182.765625 155.089844 182.671875 C 155.378906 182.578125 155.6875 182.738281 155.78125 183.027344 C 160.257812 196.867188 173.03125 206.164062 187.566406 206.164062 C 190.539062 206.164062 193.488281 205.773438 196.332031 204.996094 C 196.625 204.917969 196.925781 205.089844 197.007812 205.382812 C 197.085938 205.675781 196.914062 205.976562 196.621094 206.054688 C 193.683594 206.855469 190.636719 207.261719 187.566406 207.261719 " fill-opacity="1" fill-rule="nonzero"/><path fill="#f1ad53" d="M 221.503906 172.617188 C 221.207031 172.617188 220.960938 172.378906 220.957031 172.082031 C 220.589844 154.042969 205.613281 139.371094 187.566406 139.371094 C 176.730469 139.371094 166.515625 144.679688 160.25 153.574219 C 160.074219 153.820312 159.734375 153.878906 159.484375 153.707031 C 159.238281 153.53125 159.179688 153.1875 159.351562 152.941406 C 162.476562 148.507812 166.65625 144.820312 171.433594 142.28125 C 176.371094 139.660156 181.949219 138.273438 187.566406 138.273438 C 196.640625 138.273438 205.21875 141.78125 211.710938 148.15625 C 218.199219 154.519531 221.871094 163.007812 222.054688 172.058594 C 222.058594 172.359375 221.820312 172.613281 221.515625 172.617188 C 221.511719 172.617188 221.507812 172.617188 221.503906 172.617188 " fill-opacity="1" fill-rule="nonzero"/><path fill="#f1ad53" d="M 178.695312 203.347656 C 178.644531 203.347656 178.59375 203.34375 178.539062 203.328125 C 172.085938 201.417969 166.273438 197.394531 162.179688 191.996094 C 157.941406 186.421875 155.707031 179.769531 155.707031 172.765625 C 155.707031 161.066406 162.113281 150.328125 172.433594 144.734375 C 172.699219 144.589844 173.03125 144.6875 173.175781 144.953125 C 173.320312 145.222656 173.222656 145.554688 172.957031 145.699219 C 162.992188 151.097656 156.800781 161.472656 156.800781 172.765625 C 156.800781 186.300781 165.871094 198.433594 178.851562 202.273438 C 179.140625 202.359375 179.308594 202.667969 179.222656 202.957031 C 179.152344 203.195312 178.933594 203.347656 178.695312 203.347656 " fill-opacity="1" fill-rule="nonzero"/><path fill="#544f9f" d="M 187.566406 204.628906 C 187.453125 204.628906 187.335938 204.628906 187.222656 204.628906 C 186.917969 204.625 186.675781 204.375 186.679688 204.074219 C 186.683594 203.769531 186.929688 203.53125 187.226562 203.53125 C 187.230469 203.53125 187.230469 203.53125 187.234375 203.53125 C 187.34375 203.53125 187.457031 203.53125 187.566406 203.53125 C 204.53125 203.53125 218.332031 189.730469 218.332031 172.765625 C 218.332031 155.804688 204.53125 142.003906 187.566406 142.003906 C 187.316406 142.003906 187.0625 142.007812 186.8125 142.011719 C 186.507812 142.015625 186.257812 141.78125 186.25 141.476562 C 186.242188 141.175781 186.480469 140.921875 186.785156 140.914062 C 187.042969 140.910156 187.304688 140.90625 187.566406 140.90625 C 205.136719 140.90625 219.429688 155.199219 219.429688 172.765625 C 219.429688 190.335938 205.136719 204.628906 187.566406 204.628906 " fill-opacity="1" fill-rule="nonzero"/><path fill="#f0401e" d="M 187.566406 201.996094 C 171.449219 201.996094 158.335938 188.882812 158.335938 172.765625 C 158.335938 156.648438 171.449219 143.539062 187.566406 143.539062 C 189.789062 143.539062 192.007812 143.792969 194.160156 144.289062 C 194.453125 144.355469 194.636719 144.652344 194.570312 144.945312 C 194.5 145.242188 194.207031 145.425781 193.910156 145.359375 C 191.84375 144.878906 189.707031 144.636719 187.566406 144.636719 C 172.054688 144.636719 159.433594 157.253906 159.433594 172.765625 C 159.433594 188.28125 172.054688 200.898438 187.566406 200.898438 C 190.523438 200.898438 193.4375 200.441406 196.226562 199.535156 C 196.515625 199.441406 196.824219 199.597656 196.917969 199.886719 C 197.011719 200.175781 196.855469 200.484375 196.566406 200.578125 C 193.667969 201.519531 190.636719 201.996094 187.566406 201.996094 " fill-opacity="1" fill-rule="nonzero"/><path fill="#544f9f" d="M 206.847656 194.53125 C 206.699219 194.53125 206.550781 194.46875 206.441406 194.351562 C 206.238281 194.125 206.253906 193.78125 206.480469 193.574219 C 212.335938 188.246094 215.699219 180.660156 215.699219 172.765625 C 215.699219 163.515625 211.128906 154.84375 203.476562 149.578125 C 203.226562 149.40625 203.164062 149.0625 203.335938 148.816406 C 203.507812 148.566406 203.847656 148.503906 204.097656 148.675781 C 212.046875 154.144531 216.796875 163.152344 216.796875 172.765625 C 216.796875 176.949219 215.925781 180.992188 214.210938 184.78125 C 212.554688 188.441406 210.203125 191.671875 207.21875 194.386719 C 207.113281 194.480469 206.980469 194.53125 206.847656 194.53125 " fill-opacity="1" fill-rule="nonzero"/><path fill="#f0401e" d="M 187.566406 199.363281 C 178.515625 199.363281 170.164062 194.8125 165.226562 187.183594 C 165.0625 186.929688 165.132812 186.589844 165.390625 186.425781 C 165.644531 186.261719 165.984375 186.335938 166.148438 186.589844 C 170.882812 193.902344 178.890625 198.265625 187.566406 198.265625 C 201.625 198.265625 213.066406 186.828125 213.066406 172.765625 C 213.066406 171.648438 212.992188 170.523438 212.847656 169.417969 C 212.808594 169.121094 213.019531 168.84375 213.320312 168.804688 C 213.617188 168.765625 213.894531 168.976562 213.933594 169.277344 C 214.085938 170.425781 214.160156 171.601562 214.160156 172.765625 C 214.160156 187.433594 202.230469 199.363281 187.566406 199.363281 " fill-opacity="1" fill-rule="nonzero"/><path fill="#f1ad53" d="M 161.546875 174.554688 C 161.257812 174.554688 161.015625 174.324219 161 174.03125 C 160.980469 173.613281 160.972656 173.1875 160.972656 172.765625 C 160.972656 158.101562 172.902344 146.171875 187.566406 146.171875 C 198.105469 146.171875 207.667969 152.417969 211.921875 162.085938 C 212.042969 162.363281 211.917969 162.6875 211.640625 162.808594 C 211.363281 162.929688 211.039062 162.804688 210.917969 162.527344 C 206.839844 153.257812 197.671875 147.269531 187.566406 147.269531 C 173.507812 147.269531 162.066406 158.707031 162.066406 172.765625 C 162.066406 173.171875 162.078125 173.578125 162.097656 173.980469 C 162.109375 174.28125 161.875 174.539062 161.574219 174.554688 C 161.566406 174.554688 161.554688 174.554688 161.546875 174.554688 " fill-opacity="1" fill-rule="nonzero"/><path fill="#5db3e7" d="M 187.566406 196.730469 C 174.351562 196.730469 163.605469 185.980469 163.605469 172.765625 C 163.605469 168.933594 164.484375 165.265625 166.226562 161.871094 C 166.363281 161.601562 166.695312 161.496094 166.964844 161.632812 C 167.234375 161.773438 167.339844 162.101562 167.203125 162.371094 C 165.542969 165.613281 164.699219 169.109375 164.699219 172.765625 C 164.699219 185.375 174.957031 195.632812 187.566406 195.632812 C 194.425781 195.632812 200.867188 192.582031 205.238281 187.261719 C 205.429688 187.027344 205.777344 186.996094 206.007812 187.1875 C 206.242188 187.378906 206.277344 187.726562 206.085938 187.960938 C 201.503906 193.535156 194.753906 196.730469 187.566406 196.730469 " fill-opacity="1" fill-rule="nonzero"/><path fill="#54afe6" d="M 209.835938 180.550781 C 209.78125 180.550781 209.722656 180.542969 209.667969 180.523438 C 209.378906 180.429688 209.222656 180.121094 209.316406 179.832031 C 210.054688 177.558594 210.433594 175.179688 210.433594 172.765625 C 210.433594 160.160156 200.175781 149.902344 187.566406 149.902344 C 183.851562 149.902344 180.160156 150.816406 176.894531 152.546875 C 176.625 152.691406 176.292969 152.585938 176.152344 152.320312 C 176.011719 152.054688 176.113281 151.71875 176.378906 151.578125 C 179.804688 149.765625 183.671875 148.804688 187.566406 148.804688 C 200.78125 148.804688 211.53125 159.554688 211.53125 172.765625 C 211.53125 175.296875 211.136719 177.789062 210.359375 180.171875 C 210.285156 180.40625 210.070312 180.550781 209.835938 180.550781 " fill-opacity="1" fill-rule="nonzero"/><path fill="#544f9f" d="M 187.566406 194.097656 C 185.910156 194.097656 184.257812 193.90625 182.65625 193.527344 C 182.359375 193.457031 182.179688 193.160156 182.25 192.867188 C 182.316406 192.570312 182.613281 192.390625 182.910156 192.460938 C 184.425781 192.816406 185.992188 193 187.566406 193 C 198.722656 193 207.800781 183.921875 207.800781 172.765625 C 207.800781 161.609375 198.722656 152.535156 187.566406 152.535156 C 176.410156 152.535156 167.332031 161.609375 167.332031 172.765625 C 167.332031 178.679688 169.917969 184.28125 174.425781 188.140625 C 174.65625 188.335938 174.683594 188.683594 174.484375 188.914062 C 174.289062 189.144531 173.941406 189.167969 173.710938 188.972656 C 168.960938 184.90625 166.238281 179 166.238281 172.765625 C 166.238281 161.007812 175.804688 151.4375 187.566406 151.4375 C 199.328125 151.4375 208.898438 161.007812 208.898438 172.765625 C 208.898438 184.527344 199.328125 194.097656 187.566406 194.097656 " fill-opacity="1" fill-rule="nonzero"/><path fill="#f1ad53" d="M 187.566406 191.464844 C 183.777344 191.464844 180.125 190.332031 177.003906 188.1875 C 173.957031 186.09375 171.617188 183.1875 170.234375 179.777344 C 170.121094 179.496094 170.253906 179.179688 170.535156 179.0625 C 170.816406 178.949219 171.136719 179.085938 171.25 179.367188 C 173.960938 186.050781 180.367188 190.367188 187.566406 190.367188 C 197.269531 190.367188 205.167969 182.472656 205.167969 172.765625 C 205.167969 166.128906 201.484375 160.121094 195.558594 157.089844 C 195.289062 156.949219 195.183594 156.621094 195.320312 156.351562 C 195.460938 156.082031 195.789062 155.972656 196.058594 156.113281 C 199.078125 157.660156 201.628906 160 203.429688 162.878906 C 205.285156 165.84375 206.265625 169.261719 206.265625 172.765625 C 206.265625 183.078125 197.875 191.464844 187.566406 191.464844 " fill-opacity="1" fill-rule="nonzero"/><path fill="#5db3e7" d="M 170.027344 168.644531 C 169.980469 168.644531 169.933594 168.636719 169.886719 168.625 C 169.59375 168.546875 169.417969 168.246094 169.496094 167.953125 C 170.511719 164.15625 172.765625 160.695312 175.847656 158.207031 C 179.019531 155.648438 182.847656 154.222656 186.910156 154.082031 C 187.214844 154.070312 187.46875 154.308594 187.480469 154.609375 C 187.488281 154.914062 187.253906 155.167969 186.949219 155.175781 C 179.277344 155.441406 172.535156 160.8125 170.558594 168.234375 C 170.492188 168.480469 170.269531 168.644531 170.027344 168.644531 " fill-opacity="1" fill-rule="nonzero"/><path fill="#f14d27" d="M 187.566406 188.832031 C 178.707031 188.832031 171.503906 181.625 171.503906 172.765625 C 171.503906 163.910156 178.707031 156.703125 187.566406 156.703125 C 196.425781 156.703125 203.628906 163.910156 203.628906 172.765625 C 203.628906 174 203.492188 175.230469 203.214844 176.421875 C 203.144531 176.71875 202.851562 176.898438 202.554688 176.832031 C 202.261719 176.765625 202.078125 176.46875 202.144531 176.175781 C 202.402344 175.0625 202.535156 173.917969 202.535156 172.765625 C 202.535156 164.515625 195.820312 157.800781 187.566406 157.800781 C 179.3125 157.800781 172.597656 164.515625 172.597656 172.765625 C 172.597656 181.019531 179.3125 187.734375 187.566406 187.734375 C 190.292969 187.734375 192.960938 186.996094 195.285156 185.59375 C 195.542969 185.4375 195.878906 185.523438 196.035156 185.78125 C 196.195312 186.039062 196.109375 186.378906 195.851562 186.535156 C 193.355469 188.039062 190.492188 188.832031 187.566406 188.832031 " fill-opacity="1" fill-rule="nonzero"/><g fill="#333333" fill-opacity="1"><g transform="translate(137.487161, 226.425688)"><g><path d="M -0.0625 2.078125 C -0.40625 2.078125 -0.671875 2.03125 -0.859375 1.9375 L -0.859375 1.15625 C -0.609375 1.226562 -0.34375 1.265625 -0.0625 1.265625 C 0.289062 1.265625 0.5625 1.15625 0.75 0.9375 C 0.9375 0.71875 1.03125 0.40625 1.03125 0 L 1.03125 -7.890625 L 1.9375 -7.890625 L 1.9375 -0.078125 C 1.9375 0.609375 1.765625 1.140625 1.421875 1.515625 C 1.078125 1.890625 0.582031 2.078125 -0.0625 2.078125 Z M -0.0625 2.078125 "/></g></g></g><g fill="#333333" fill-opacity="1"><g transform="translate(141.251331, 226.425688)"><g><path d="M 7.046875 -7.890625 L 7.046875 -2.78125 C 7.046875 -1.882812 6.773438 -1.175781 6.234375 -0.65625 C 5.691406 -0.144531 4.941406 0.109375 3.984375 0.109375 C 3.035156 0.109375 2.300781 -0.148438 1.78125 -0.671875 C 1.257812 -1.191406 1 -1.90625 1 -2.8125 L 1 -7.890625 L 1.921875 -7.890625 L 1.921875 -2.75 C 1.921875 -2.082031 2.097656 -1.570312 2.453125 -1.21875 C 2.816406 -0.875 3.347656 -0.703125 4.046875 -0.703125 C 4.710938 -0.703125 5.222656 -0.878906 5.578125 -1.234375 C 5.941406 -1.585938 6.125 -2.09375 6.125 -2.75 L 6.125 -7.890625 Z M 7.046875 -7.890625 "/></g></g></g><g fill="#333333" fill-opacity="1"><g transform="translate(150.116985, 226.425688)"><g><path d="M 1.078125 0 L 1.078125 -7.890625 L 2 -7.890625 L 2 -0.828125 L 5.484375 -0.828125 L 5.484375 0 Z M 1.078125 0 "/></g></g></g><g fill="#333333" fill-opacity="1"><g transform="translate(156.669678, 226.425688)"><g><path d="M 1.078125 0 L 1.078125 -7.890625 L 2 -7.890625 L 2 0 Z M 1.078125 0 "/></g></g></g><g fill="#333333" fill-opacity="1"><g transform="translate(160.563547, 226.425688)"><g><path d="M 5.484375 0 L 1.078125 0 L 1.078125 -7.890625 L 5.484375 -7.890625 L 5.484375 -7.078125 L 2 -7.078125 L 2 -4.53125 L 5.28125 -4.53125 L 5.28125 -3.734375 L 2 -3.734375 L 2 -0.828125 L 5.484375 -0.828125 Z M 5.484375 0 "/></g></g></g><g fill="#333333" fill-opacity="1"><g transform="translate(167.526952, 226.425688)"><g><path d="M 7.25 0 L 6.203125 0 L 1.890625 -6.625 L 1.84375 -6.625 C 1.90625 -5.851562 1.9375 -5.140625 1.9375 -4.484375 L 1.9375 0 L 1.078125 0 L 1.078125 -7.890625 L 2.125 -7.890625 L 6.421875 -1.296875 L 6.46875 -1.296875 C 6.457031 -1.390625 6.441406 -1.703125 6.421875 -2.234375 C 6.398438 -2.765625 6.390625 -3.140625 6.390625 -3.359375 L 6.390625 -7.890625 L 7.25 -7.890625 Z M 7.25 0 "/></g></g></g><g fill="#333333" fill-opacity="1"><g transform="translate(176.679021, 226.425688)"><g/></g></g><g fill="#333333" fill-opacity="1"><g transform="translate(180.362126, 226.425688)"><g><path d="M 7.390625 -4.03125 C 7.390625 -2.71875 7.035156 -1.71875 6.328125 -1.03125 C 5.617188 -0.34375 4.597656 0 3.265625 0 L 1.078125 0 L 1.078125 -7.890625 L 3.5 -7.890625 C 4.726562 -7.890625 5.679688 -7.550781 6.359375 -6.875 C 7.046875 -6.195312 7.390625 -5.25 7.390625 -4.03125 Z M 6.421875 -3.984375 C 6.421875 -5.015625 6.160156 -5.789062 5.640625 -6.3125 C 5.117188 -6.84375 4.351562 -7.109375 3.34375 -7.109375 L 2 -7.109375 L 2 -0.796875 L 3.125 -0.796875 C 4.21875 -0.796875 5.039062 -1.0625 5.59375 -1.59375 C 6.144531 -2.132812 6.421875 -2.929688 6.421875 -3.984375 Z M 6.421875 -3.984375 "/></g></g></g><g fill="#333333" fill-opacity="1"><g transform="translate(189.238588, 226.425688)"><g><path d="M 7.046875 -7.890625 L 7.046875 -2.78125 C 7.046875 -1.882812 6.773438 -1.175781 6.234375 -0.65625 C 5.691406 -0.144531 4.941406 0.109375 3.984375 0.109375 C 3.035156 0.109375 2.300781 -0.148438 1.78125 -0.671875 C 1.257812 -1.191406 1 -1.90625 1 -2.8125 L 1 -7.890625 L 1.921875 -7.890625 L 1.921875 -2.75 C 1.921875 -2.082031 2.097656 -1.570312 2.453125 -1.21875 C 2.816406 -0.875 3.347656 -0.703125 4.046875 -0.703125 C 4.710938 -0.703125 5.222656 -0.878906 5.578125 -1.234375 C 5.941406 -1.585938 6.125 -2.09375 6.125 -2.75 L 6.125 -7.890625 Z M 7.046875 -7.890625 "/></g></g></g><g fill="#333333" fill-opacity="1"><g transform="translate(198.104239, 226.425688)"><g><path d="M 3.515625 0 L 2.59375 0 L 2.59375 -7.078125 L 0.09375 -7.078125 L 0.09375 -7.890625 L 6.015625 -7.890625 L 6.015625 -7.078125 L 3.515625 -7.078125 Z M 3.515625 0 "/></g></g></g><g fill="#333333" fill-opacity="1"><g transform="translate(205.035217, 226.425688)"><g><path d="M 2 -3.28125 L 2 0 L 1.078125 0 L 1.078125 -7.890625 L 3.25 -7.890625 C 4.21875 -7.890625 4.929688 -7.703125 5.390625 -7.328125 C 5.859375 -6.960938 6.09375 -6.410156 6.09375 -5.671875 C 6.09375 -4.617188 5.5625 -3.910156 4.5 -3.546875 L 6.65625 0 L 5.5625 0 L 3.65625 -3.28125 Z M 2 -4.078125 L 3.265625 -4.078125 C 3.910156 -4.078125 4.382812 -4.203125 4.6875 -4.453125 C 4.988281 -4.710938 5.140625 -5.101562 5.140625 -5.625 C 5.140625 -6.144531 4.984375 -6.519531 4.671875 -6.75 C 4.367188 -6.976562 3.878906 -7.09375 3.203125 -7.09375 L 2 -7.09375 Z M 2 -4.078125 "/></g></g></g><g fill="#333333" fill-opacity="1"><g transform="translate(212.684945, 226.425688)"><g><path d="M 7.046875 -7.890625 L 7.046875 -2.78125 C 7.046875 -1.882812 6.773438 -1.175781 6.234375 -0.65625 C 5.691406 -0.144531 4.941406 0.109375 3.984375 0.109375 C 3.035156 0.109375 2.300781 -0.148438 1.78125 -0.671875 C 1.257812 -1.191406 1 -1.90625 1 -2.8125 L 1 -7.890625 L 1.921875 -7.890625 L 1.921875 -2.75 C 1.921875 -2.082031 2.097656 -1.570312 2.453125 -1.21875 C 2.816406 -0.875 3.347656 -0.703125 4.046875 -0.703125 C 4.710938 -0.703125 5.222656 -0.878906 5.578125 -1.234375 C 5.941406 -1.585938 6.125 -2.09375 6.125 -2.75 L 6.125 -7.890625 Z M 7.046875 -7.890625 "/></g></g></g><g fill="#333333" fill-opacity="1"><g transform="translate(221.550602, 226.425688)"><g><path d="M 4.46875 -7.1875 C 3.601562 -7.1875 2.914062 -6.894531 2.40625 -6.3125 C 1.90625 -5.738281 1.65625 -4.953125 1.65625 -3.953125 C 1.65625 -2.910156 1.894531 -2.109375 2.375 -1.546875 C 2.863281 -0.984375 3.554688 -0.703125 4.453125 -0.703125 C 5.003906 -0.703125 5.632812 -0.800781 6.34375 -1 L 6.34375 -0.203125 C 5.789062 0.00390625 5.113281 0.109375 4.3125 0.109375 C 3.15625 0.109375 2.257812 -0.242188 1.625 -0.953125 C 0.988281 -1.660156 0.671875 -2.660156 0.671875 -3.953125 C 0.671875 -4.773438 0.820312 -5.488281 1.125 -6.09375 C 1.4375 -6.707031 1.878906 -7.179688 2.453125 -7.515625 C 3.023438 -7.847656 3.703125 -8.015625 4.484375 -8.015625 C 5.304688 -8.015625 6.03125 -7.863281 6.65625 -7.5625 L 6.265625 -6.765625 C 5.660156 -7.046875 5.0625 -7.1875 4.46875 -7.1875 Z M 4.46875 -7.1875 "/></g></g></g><g fill="#333333" fill-opacity="1"><g transform="translate(229.340831, 226.425688)"><g><path d="M 7.078125 0 L 6.15625 0 L 6.15625 -3.71875 L 2 -3.71875 L 2 0 L 1.078125 0 L 1.078125 -7.890625 L 2 -7.890625 L 2 -4.53125 L 6.15625 -4.53125 L 6.15625 -7.890625 L 7.078125 -7.890625 Z M 7.078125 0 "/></g></g></g><g fill="#333333" fill-opacity="1"><g transform="translate(153.885345, 237.526274)"><g><path d="M 1.015625 0 L 0.546875 0 L 0.546875 -4.015625 L 2.796875 -4.015625 L 2.796875 -3.59375 L 1.015625 -3.59375 L 1.015625 -2.125 L 2.6875 -2.125 L 2.6875 -1.71875 L 1.015625 -1.71875 Z M 1.015625 0 "/></g></g></g><g fill="#333333" fill-opacity="1"><g transform="translate(161.265095, 237.526274)"><g><path d="M 1.015625 -1.671875 L 1.015625 0 L 0.546875 0 L 0.546875 -4.015625 L 1.65625 -4.015625 C 2.144531 -4.015625 2.503906 -3.921875 2.734375 -3.734375 C 2.972656 -3.546875 3.09375 -3.257812 3.09375 -2.875 C 3.09375 -2.34375 2.828125 -1.984375 2.296875 -1.796875 L 3.375 0 L 2.828125 0 L 1.859375 -1.671875 Z M 1.015625 -2.078125 L 1.65625 -2.078125 C 1.988281 -2.078125 2.226562 -2.140625 2.375 -2.265625 C 2.53125 -2.398438 2.609375 -2.597656 2.609375 -2.859375 C 2.609375 -3.117188 2.53125 -3.304688 2.375 -3.421875 C 2.21875 -3.546875 1.96875 -3.609375 1.625 -3.609375 L 1.015625 -3.609375 Z M 1.015625 -2.078125 "/></g></g></g><g fill="#333333" fill-opacity="1"><g transform="translate(169.219328, 237.526274)"><g><path d="M 4.03125 -2.015625 C 4.03125 -1.367188 3.867188 -0.859375 3.546875 -0.484375 C 3.222656 -0.117188 2.769531 0.0625 2.1875 0.0625 C 1.601562 0.0625 1.148438 -0.117188 0.828125 -0.484375 C 0.503906 -0.847656 0.34375 -1.359375 0.34375 -2.015625 C 0.34375 -2.671875 0.503906 -3.175781 0.828125 -3.53125 C 1.148438 -3.894531 1.609375 -4.078125 2.203125 -4.078125 C 2.773438 -4.078125 3.222656 -3.894531 3.546875 -3.53125 C 3.867188 -3.164062 4.03125 -2.660156 4.03125 -2.015625 Z M 0.84375 -2.015625 C 0.84375 -1.472656 0.957031 -1.0625 1.1875 -0.78125 C 1.414062 -0.5 1.75 -0.359375 2.1875 -0.359375 C 2.632812 -0.359375 2.972656 -0.492188 3.203125 -0.765625 C 3.429688 -1.046875 3.546875 -1.460938 3.546875 -2.015625 C 3.546875 -2.554688 3.429688 -2.960938 3.203125 -3.234375 C 2.972656 -3.515625 2.640625 -3.65625 2.203125 -3.65625 C 1.753906 -3.65625 1.414062 -3.515625 1.1875 -3.234375 C 0.957031 -2.953125 0.84375 -2.546875 0.84375 -2.015625 Z M 0.84375 -2.015625 "/></g></g></g><g fill="#333333" fill-opacity="1"><g transform="translate(178.077893, 237.526274)"><g><path d="M 3.6875 0 L 3.15625 0 L 0.96875 -3.375 L 0.9375 -3.375 C 0.96875 -2.976562 0.984375 -2.613281 0.984375 -2.28125 L 0.984375 0 L 0.546875 0 L 0.546875 -4.015625 L 1.078125 -4.015625 L 3.265625 -0.65625 L 3.296875 -0.65625 C 3.285156 -0.707031 3.273438 -0.863281 3.265625 -1.125 C 3.253906 -1.394531 3.25 -1.59375 3.25 -1.71875 L 3.25 -4.015625 L 3.6875 -4.015625 Z M 3.6875 0 "/></g></g></g><g fill="#333333" fill-opacity="1"><g transform="translate(186.796273, 237.526274)"><g><path d="M 1.78125 0 L 1.328125 0 L 1.328125 -3.59375 L 0.046875 -3.59375 L 0.046875 -4.015625 L 3.0625 -4.015625 L 3.0625 -3.59375 L 1.78125 -3.59375 Z M 1.78125 0 "/></g></g></g><g fill="#333333" fill-opacity="1"><g transform="translate(194.384924, 237.526274)"><g><path d="M 0.234375 -1.296875 L 0.234375 -1.71875 L 1.578125 -1.71875 L 1.578125 -1.296875 Z M 0.234375 -1.296875 "/></g></g></g><g fill="#333333" fill-opacity="1"><g transform="translate(200.670682, 237.526274)"><g><path d="M 2.796875 0 L 0.546875 0 L 0.546875 -4.015625 L 2.796875 -4.015625 L 2.796875 -3.59375 L 1.015625 -3.59375 L 1.015625 -2.3125 L 2.6875 -2.3125 L 2.6875 -1.890625 L 1.015625 -1.890625 L 1.015625 -0.421875 L 2.796875 -0.421875 Z M 2.796875 0 "/></g></g></g><g fill="#333333" fill-opacity="1"><g transform="translate(208.275829, 237.526274)"><g><path d="M 3.6875 0 L 3.15625 0 L 0.96875 -3.375 L 0.9375 -3.375 C 0.96875 -2.976562 0.984375 -2.613281 0.984375 -2.28125 L 0.984375 0 L 0.546875 0 L 0.546875 -4.015625 L 1.078125 -4.015625 L 3.265625 -0.65625 L 3.296875 -0.65625 C 3.285156 -0.707031 3.273438 -0.863281 3.265625 -1.125 C 3.253906 -1.394531 3.25 -1.59375 3.25 -1.71875 L 3.25 -4.015625 L 3.6875 -4.015625 Z M 3.6875 0 "/></g></g></g><g fill="#333333" fill-opacity="1"><g transform="translate(216.994207, 237.526274)"><g><path d="M 3.75 -2.046875 C 3.75 -1.378906 3.566406 -0.867188 3.203125 -0.515625 C 2.847656 -0.171875 2.335938 0 1.671875 0 L 0.546875 0 L 0.546875 -4.015625 L 1.78125 -4.015625 C 2.40625 -4.015625 2.890625 -3.84375 3.234375 -3.5 C 3.578125 -3.15625 3.75 -2.671875 3.75 -2.046875 Z M 3.265625 -2.03125 C 3.265625 -2.550781 3.128906 -2.941406 2.859375 -3.203125 C 2.597656 -3.472656 2.210938 -3.609375 1.703125 -3.609375 L 1.015625 -3.609375 L 1.015625 -0.40625 L 1.59375 -0.40625 C 2.144531 -0.40625 2.5625 -0.539062 2.84375 -0.8125 C 3.125 -1.082031 3.265625 -1.488281 3.265625 -2.03125 Z M 3.265625 -2.03125 "/></g></g></g><g fill="#333333" fill-opacity="1"><g transform="translate(154.083099, 245.120024)"><g><path d="M 3.75 -2.046875 C 3.75 -1.378906 3.566406 -0.867188 3.203125 -0.515625 C 2.847656 -0.171875 2.335938 0 1.671875 0 L 0.546875 0 L 0.546875 -4.015625 L 1.78125 -4.015625 C 2.40625 -4.015625 2.890625 -3.84375 3.234375 -3.5 C 3.578125 -3.15625 3.75 -2.671875 3.75 -2.046875 Z M 3.265625 -2.03125 C 3.265625 -2.550781 3.128906 -2.941406 2.859375 -3.203125 C 2.597656 -3.472656 2.210938 -3.609375 1.703125 -3.609375 L 1.015625 -3.609375 L 1.015625 -0.40625 L 1.59375 -0.40625 C 2.144531 -0.40625 2.5625 -0.539062 2.84375 -0.8125 C 3.125 -1.082031 3.265625 -1.488281 3.265625 -2.03125 Z M 3.265625 -2.03125 "/></g></g></g><g fill="#333333" fill-opacity="1"><g transform="translate(162.661294, 245.120024)"><g><path d="M 2.796875 0 L 0.546875 0 L 0.546875 -4.015625 L 2.796875 -4.015625 L 2.796875 -3.59375 L 1.015625 -3.59375 L 1.015625 -2.3125 L 2.6875 -2.3125 L 2.6875 -1.890625 L 1.015625 -1.890625 L 1.015625 -0.421875 L 2.796875 -0.421875 Z M 2.796875 0 "/></g></g></g><g fill="#333333" fill-opacity="1"><g transform="translate(170.266439, 245.120024)"><g><path d="M 2.84375 -4.015625 L 3.34375 -4.015625 L 1.90625 0 L 1.4375 0 L 0 -4.015625 L 0.5 -4.015625 L 1.421875 -1.421875 C 1.523438 -1.117188 1.609375 -0.828125 1.671875 -0.546875 C 1.734375 -0.835938 1.816406 -1.132812 1.921875 -1.4375 Z M 2.84375 -4.015625 "/></g></g></g><g fill="#333333" fill-opacity="1"><g transform="translate(178.091482, 245.120024)"><g><path d="M 2.796875 0 L 0.546875 0 L 0.546875 -4.015625 L 2.796875 -4.015625 L 2.796875 -3.59375 L 1.015625 -3.59375 L 1.015625 -2.3125 L 2.6875 -2.3125 L 2.6875 -1.890625 L 1.015625 -1.890625 L 1.015625 -0.421875 L 2.796875 -0.421875 Z M 2.796875 0 "/></g></g></g><g fill="#333333" fill-opacity="1"><g transform="translate(185.696627, 245.120024)"><g><path d="M 0.546875 0 L 0.546875 -4.015625 L 1.015625 -4.015625 L 1.015625 -0.421875 L 2.796875 -0.421875 L 2.796875 0 Z M 0.546875 0 "/></g></g></g><g fill="#333333" fill-opacity="1"><g transform="translate(193.092868, 245.120024)"><g><path d="M 4.03125 -2.015625 C 4.03125 -1.367188 3.867188 -0.859375 3.546875 -0.484375 C 3.222656 -0.117188 2.769531 0.0625 2.1875 0.0625 C 1.601562 0.0625 1.148438 -0.117188 0.828125 -0.484375 C 0.503906 -0.847656 0.34375 -1.359375 0.34375 -2.015625 C 0.34375 -2.671875 0.503906 -3.175781 0.828125 -3.53125 C 1.148438 -3.894531 1.609375 -4.078125 2.203125 -4.078125 C 2.773438 -4.078125 3.222656 -3.894531 3.546875 -3.53125 C 3.867188 -3.164062 4.03125 -2.660156 4.03125 -2.015625 Z M 0.84375 -2.015625 C 0.84375 -1.472656 0.957031 -1.0625 1.1875 -0.78125 C 1.414062 -0.5 1.75 -0.359375 2.1875 -0.359375 C 2.632812 -0.359375 2.972656 -0.492188 3.203125 -0.765625 C 3.429688 -1.046875 3.546875 -1.460938 3.546875 -2.015625 C 3.546875 -2.554688 3.429688 -2.960938 3.203125 -3.234375 C 2.972656 -3.515625 2.640625 -3.65625 2.203125 -3.65625 C 1.753906 -3.65625 1.414062 -3.515625 1.1875 -3.234375 C 0.957031 -2.953125 0.84375 -2.546875 0.84375 -2.015625 Z M 0.84375 -2.015625 "/></g></g></g><g fill="#333333" fill-opacity="1"><g transform="translate(201.951431, 245.120024)"><g><path d="M 3.09375 -2.84375 C 3.09375 -2.4375 2.953125 -2.125 2.671875 -1.90625 C 2.398438 -1.6875 2.003906 -1.578125 1.484375 -1.578125 L 1.015625 -1.578125 L 1.015625 0 L 0.546875 0 L 0.546875 -4.015625 L 1.59375 -4.015625 C 2.59375 -4.015625 3.09375 -3.625 3.09375 -2.84375 Z M 1.015625 -1.984375 L 1.4375 -1.984375 C 1.851562 -1.984375 2.148438 -2.046875 2.328125 -2.171875 C 2.515625 -2.304688 2.609375 -2.523438 2.609375 -2.828125 C 2.609375 -3.085938 2.519531 -3.28125 2.34375 -3.40625 C 2.175781 -3.539062 1.910156 -3.609375 1.546875 -3.609375 L 1.015625 -3.609375 Z M 1.015625 -1.984375 "/></g></g></g><g fill="#333333" fill-opacity="1"><g transform="translate(209.814955, 245.120024)"><g><path d="M 2.796875 0 L 0.546875 0 L 0.546875 -4.015625 L 2.796875 -4.015625 L 2.796875 -3.59375 L 1.015625 -3.59375 L 1.015625 -2.3125 L 2.6875 -2.3125 L 2.6875 -1.890625 L 1.015625 -1.890625 L 1.015625 -0.421875 L 2.796875 -0.421875 Z M 2.796875 0 "/></g></g></g><g fill="#333333" fill-opacity="1"><g transform="translate(217.420098, 245.120024)"><g><path d="M 1.015625 -1.671875 L 1.015625 0 L 0.546875 0 L 0.546875 -4.015625 L 1.65625 -4.015625 C 2.144531 -4.015625 2.503906 -3.921875 2.734375 -3.734375 C 2.972656 -3.546875 3.09375 -3.257812 3.09375 -2.875 C 3.09375 -2.34375 2.828125 -1.984375 2.296875 -1.796875 L 3.375 0 L 2.828125 0 L 1.859375 -1.671875 Z M 1.015625 -2.078125 L 1.65625 -2.078125 C 1.988281 -2.078125 2.226562 -2.140625 2.375 -2.265625 C 2.53125 -2.398438 2.609375 -2.597656 2.609375 -2.859375 C 2.609375 -3.117188 2.53125 -3.304688 2.375 -3.421875 C 2.21875 -3.546875 1.96875 -3.609375 1.625 -3.609375 L 1.015625 -3.609375 Z M 1.015625 -2.078125 "/></g></g></g></svg>