<svg xmlns="http://www.w3.org/2000/svg" xmlns:xlink="http://www.w3.org/1999/xlink" width="500" zoomAndPan="magnify" viewBox="0 0 375 374.999991" height="500" preserveAspectRatio="xMidYMid meet" version="1.0"><defs><g/><clipPath id="066266d284"><path d="M 188.757812 143.347656 L 206.007812 143.347656 L 206.007812 162.097656 L 188.757812 162.097656 Z M 188.757812 143.347656 " clip-rule="nonzero"/></clipPath></defs><rect x="-37.5" width="450" fill="#ffffff" y="-37.499999" height="449.999989" fill-opacity="1"/><rect x="-37.5" width="450" fill="#efeee9" y="-37.499999" height="449.999989" fill-opacity="1"/><g clip-path="url(#066266d284)"><path fill="#000000" d="M 197.378906 146.550781 C 195.832031 146.566406 194.378906 147.195312 193.289062 148.3125 C 192.199219 149.433594 191.597656 150.917969 191.597656 152.492188 C 191.597656 154.273438 192.375 155.945312 193.730469 157.082031 C 194.160156 157.4375 194.40625 157.96875 194.40625 158.539062 L 194.40625 160.019531 C 194.40625 161.160156 195.316406 162.085938 196.4375 162.085938 L 198.460938 162.085938 C 199.582031 162.085938 200.496094 161.160156 200.496094 160.019531 L 200.496094 158.539062 C 200.496094 157.972656 200.742188 157.4375 201.175781 157.074219 C 202.554688 155.917969 203.328125 154.214844 203.300781 152.398438 C 203.25 149.132812 200.59375 146.507812 197.378906 146.550781 Z M 198.460938 161.265625 L 196.4375 161.265625 C 195.828125 161.265625 195.320312 160.8125 195.226562 160.21875 L 199.671875 160.21875 C 199.578125 160.8125 199.070312 161.265625 198.460938 161.265625 Z M 199.6875 159.398438 L 195.210938 159.398438 L 195.210938 158.945312 L 199.6875 158.945312 Z M 200.664062 156.441406 C 200.148438 156.875 199.816406 157.472656 199.71875 158.128906 L 195.179688 158.128906 C 195.082031 157.472656 194.753906 156.875 194.246094 156.449219 C 193.074219 155.46875 192.40625 154.027344 192.40625 152.492188 C 192.40625 149.699219 194.640625 147.402344 197.386719 147.367188 C 197.410156 147.367188 197.429688 147.367188 197.449219 147.367188 C 200.195312 147.367188 202.453125 149.617188 202.492188 152.410156 C 202.515625 153.976562 201.847656 155.445312 200.664062 156.441406 Z M 197.046875 145.300781 L 197.046875 143.769531 C 197.046875 143.542969 197.226562 143.359375 197.449219 143.359375 C 197.671875 143.359375 197.851562 143.542969 197.851562 143.769531 L 197.851562 145.300781 C 197.851562 145.527344 197.671875 145.707031 197.449219 145.707031 C 197.226562 145.707031 197.046875 145.527344 197.046875 145.300781 Z M 200.449219 146.042969 L 201.203125 144.71875 C 201.3125 144.519531 201.558594 144.453125 201.753906 144.566406 C 201.945312 144.679688 202.011719 144.929688 201.902344 145.128906 L 201.148438 146.453125 C 201.074219 146.582031 200.9375 146.65625 200.796875 146.65625 C 200.730469 146.65625 200.660156 146.636719 200.597656 146.601562 C 200.402344 146.488281 200.335938 146.238281 200.449219 146.042969 Z M 204.738281 148.359375 L 203.433594 149.121094 C 203.371094 149.160156 203.300781 149.179688 203.230469 149.179688 C 203.09375 149.179688 202.957031 149.105469 202.882812 148.972656 C 202.769531 148.777344 202.835938 148.527344 203.03125 148.414062 L 204.332031 147.648438 C 204.527344 147.535156 204.773438 147.601562 204.886719 147.796875 C 204.996094 147.992188 204.929688 148.246094 204.738281 148.359375 Z M 206.007812 152.1875 C 206.007812 152.414062 205.828125 152.597656 205.605469 152.597656 L 204.097656 152.597656 C 203.875 152.597656 203.695312 152.414062 203.695312 152.1875 C 203.695312 151.960938 203.875 151.777344 204.097656 151.777344 L 205.605469 151.777344 C 205.828125 151.777344 206.007812 151.960938 206.007812 152.1875 Z M 192.980469 145.058594 C 192.867188 144.863281 192.933594 144.613281 193.128906 144.5 C 193.320312 144.386719 193.566406 144.453125 193.679688 144.648438 L 194.433594 145.972656 C 194.542969 146.167969 194.476562 146.421875 194.285156 146.535156 C 194.222656 146.570312 194.152344 146.589844 194.082031 146.589844 C 193.945312 146.589844 193.808594 146.515625 193.734375 146.382812 Z M 191.601562 149.058594 C 191.53125 149.058594 191.460938 149.042969 191.398438 149.003906 L 190.09375 148.242188 C 189.902344 148.128906 189.835938 147.875 189.949219 147.679688 C 190.058594 147.484375 190.304688 147.417969 190.5 147.53125 L 191.800781 148.296875 C 191.996094 148.410156 192.0625 148.660156 191.949219 148.855469 C 191.875 148.988281 191.738281 149.058594 191.601562 149.058594 Z M 191.070312 152.050781 C 191.070312 152.277344 190.890625 152.460938 190.667969 152.460938 L 189.164062 152.460938 C 188.9375 152.460938 188.757812 152.277344 188.757812 152.050781 C 188.757812 151.824219 188.9375 151.640625 189.164062 151.640625 L 190.667969 151.640625 C 190.890625 151.640625 191.070312 151.824219 191.070312 152.050781 Z M 191.070312 152.050781 " fill-opacity="1" fill-rule="nonzero"/></g><g fill="#000000" fill-opacity="1"><g transform="translate(129.049266, 207.538698)"><g><path d="M 11.765625 0.40625 C 9.742188 0.40625 7.910156 0.015625 6.265625 -0.765625 C 4.617188 -1.554688 3.328125 -2.710938 2.390625 -4.234375 C 1.453125 -5.765625 0.984375 -7.609375 0.984375 -9.765625 L 0.984375 -20.8125 L 9.671875 -20.8125 L 9.671875 -10.28125 C 9.671875 -9.488281 9.832031 -8.859375 10.15625 -8.390625 C 10.476562 -7.929688 10.984375 -7.703125 11.671875 -7.703125 C 12.316406 -7.703125 12.800781 -7.914062 13.125 -8.34375 C 13.457031 -8.78125 13.625 -9.390625 13.625 -10.171875 L 13.625 -44.15625 L 22.515625 -44.15625 L 22.515625 -11.046875 C 22.515625 -8.753906 22.0625 -6.742188 21.15625 -5.015625 C 20.25 -3.285156 18.976562 -1.945312 17.34375 -1 C 15.71875 -0.0625 13.859375 0.40625 11.765625 0.40625 Z M 11.765625 0.40625 "/></g></g></g><g fill="#000000" fill-opacity="1"><g transform="translate(150.946645, 207.538698)"><g><path d="M 12.1875 0.40625 C 8.550781 0.40625 5.847656 -0.617188 4.078125 -2.671875 C 2.316406 -4.722656 1.4375 -7.773438 1.4375 -11.828125 L 1.4375 -44.15625 L 10.03125 -44.15625 L 10.03125 -12.1875 C 10.03125 -10.78125 10.164062 -9.679688 10.4375 -8.890625 C 10.707031 -8.097656 11.289062 -7.703125 12.1875 -7.703125 C 13.070312 -7.703125 13.648438 -8.085938 13.921875 -8.859375 C 14.203125 -9.640625 14.34375 -10.75 14.34375 -12.1875 L 14.34375 -44.15625 L 22.921875 -44.15625 L 22.921875 -11.828125 C 22.921875 -7.773438 22.035156 -4.722656 20.265625 -2.671875 C 18.503906 -0.617188 15.8125 0.40625 12.1875 0.40625 Z M 12.1875 0.40625 "/></g></g></g><g fill="#000000" fill-opacity="1"><g transform="translate(173.255244, 207.538698)"><g><path d="M 1.953125 0 L 1.953125 -44.15625 L 10.796875 -44.15625 L 10.796875 -7.5 L 19.890625 -7.5 L 19.890625 0 Z M 1.953125 0 "/></g></g></g><g fill="#000000" fill-opacity="1"><g transform="translate(191.605827, 207.538698)"><g><path d="M 1.546875 0 L 1.546875 -44.15625 L 10.078125 -44.15625 L 10.078125 0 Z M 1.546875 0 "/></g></g></g><g fill="#000000" fill-opacity="1"><g transform="translate(201.217915, 207.538698)"><g><path d="M 1.953125 0 L 1.953125 -44.15625 L 19.640625 -44.15625 L 19.640625 -35.625 L 10.953125 -35.625 L 10.953125 -27.046875 L 19.28125 -27.046875 L 19.28125 -18.71875 L 10.953125 -18.71875 L 10.953125 -8.578125 L 20.203125 -8.578125 L 20.203125 0 Z M 1.953125 0 "/></g></g></g><g fill="#000000" fill-opacity="1"><g transform="translate(220.339532, 207.538698)"><g><path d="M 1.953125 0 L 1.953125 -44.15625 L 11.046875 -44.15625 L 15.109375 -23.03125 L 15.109375 -44.15625 L 23.640625 -44.15625 L 23.640625 0 L 15.015625 0 L 10.59375 -22.109375 L 10.59375 0 Z M 1.953125 0 "/></g></g></g><g fill="#000000" fill-opacity="1"><g transform="translate(134.08164, 216.909887)"><g><path d="M 3.46875 -0.5625 C 3.9375 -0.5625 4.300781 -0.695312 4.5625 -0.96875 C 4.832031 -1.25 4.96875 -1.675781 4.96875 -2.25 C 4.96875 -2.8125 4.820312 -3.234375 4.53125 -3.515625 C 4.238281 -3.804688 3.828125 -3.953125 3.296875 -3.953125 L 1.640625 -3.953125 L 1.640625 -0.5625 Z M 3.390625 -4.515625 C 3.710938 -4.515625 4.007812 -4.460938 4.28125 -4.359375 C 4.5625 -4.253906 4.800781 -4.101562 5 -3.90625 C 5.207031 -3.71875 5.367188 -3.484375 5.484375 -3.203125 C 5.609375 -2.921875 5.671875 -2.601562 5.671875 -2.25 C 5.671875 -1.90625 5.625 -1.59375 5.53125 -1.3125 C 5.4375 -1.039062 5.296875 -0.804688 5.109375 -0.609375 C 4.929688 -0.410156 4.707031 -0.257812 4.4375 -0.15625 C 4.175781 -0.0507812 3.882812 0 3.5625 0 L 0.71875 0 L 0.71875 -0.109375 C 0.800781 -0.109375 0.851562 -0.125 0.875 -0.15625 C 0.90625 -0.195312 0.921875 -0.242188 0.921875 -0.296875 L 0.921875 -4.21875 C 0.921875 -4.257812 0.90625 -4.300781 0.875 -4.34375 C 0.851562 -4.382812 0.800781 -4.40625 0.71875 -4.40625 L 0.71875 -4.515625 Z M 3.390625 -4.515625 "/></g></g></g><g fill="#000000" fill-opacity="1"><g transform="translate(147.134878, 216.909887)"><g><path d="M 4.875 -3.703125 L 4.78125 -3.703125 C 4.78125 -3.867188 4.664062 -3.953125 4.4375 -3.953125 L 1.765625 -3.953125 L 1.765625 -2.59375 L 3.515625 -2.59375 C 3.609375 -2.59375 3.6875 -2.609375 3.75 -2.640625 C 3.820312 -2.671875 3.859375 -2.734375 3.859375 -2.828125 L 3.96875 -2.828125 L 3.96875 -1.796875 L 3.859375 -1.796875 C 3.859375 -1.878906 3.832031 -1.9375 3.78125 -1.96875 C 3.726562 -2.007812 3.644531 -2.03125 3.53125 -2.03125 L 1.765625 -2.03125 L 1.765625 -0.5625 L 4.640625 -0.5625 C 4.742188 -0.5625 4.828125 -0.582031 4.890625 -0.625 C 4.953125 -0.664062 4.984375 -0.742188 4.984375 -0.859375 L 5.09375 -0.859375 L 5.09375 0.1875 L 4.984375 0.1875 C 4.984375 0.113281 4.957031 0.0625 4.90625 0.03125 C 4.863281 0.0078125 4.789062 0 4.6875 0 L 0.84375 0 L 0.84375 -0.109375 C 0.914062 -0.109375 0.96875 -0.125 1 -0.15625 C 1.03125 -0.195312 1.046875 -0.25 1.046875 -0.3125 L 1.046875 -4.203125 C 1.046875 -4.253906 1.03125 -4.300781 1 -4.34375 C 0.976562 -4.382812 0.925781 -4.40625 0.84375 -4.40625 L 0.84375 -4.515625 L 4.390625 -4.515625 C 4.535156 -4.515625 4.632812 -4.519531 4.6875 -4.53125 C 4.75 -4.550781 4.78125 -4.601562 4.78125 -4.6875 L 4.875 -4.6875 Z M 4.875 -3.703125 "/></g></g></g><g fill="#000000" fill-opacity="1"><g transform="translate(159.716442, 216.909887)"><g><path d="M 1.34375 -4.515625 L 1.34375 -4.40625 C 1.195312 -4.40625 1.125 -4.363281 1.125 -4.28125 C 1.125 -4.25 1.128906 -4.21875 1.140625 -4.1875 C 1.148438 -4.164062 1.171875 -4.128906 1.203125 -4.078125 L 2.671875 -0.828125 L 4.078125 -4.125 C 4.109375 -4.195312 4.125 -4.242188 4.125 -4.265625 C 4.125 -4.304688 4.109375 -4.335938 4.078125 -4.359375 C 4.054688 -4.390625 4 -4.40625 3.90625 -4.40625 L 3.90625 -4.515625 L 5.125 -4.515625 L 5.125 -4.40625 C 5.050781 -4.40625 4.988281 -4.382812 4.9375 -4.34375 C 4.882812 -4.3125 4.832031 -4.238281 4.78125 -4.125 L 3.21875 -0.515625 C 3.175781 -0.421875 3.144531 -0.347656 3.125 -0.296875 C 3.101562 -0.253906 3.09375 -0.222656 3.09375 -0.203125 C 3.09375 -0.140625 3.160156 -0.109375 3.296875 -0.109375 L 3.296875 0 L 1.984375 0 L 1.984375 -0.109375 C 2.117188 -0.109375 2.1875 -0.144531 2.1875 -0.21875 C 2.1875 -0.238281 2.179688 -0.257812 2.171875 -0.28125 C 2.171875 -0.3125 2.160156 -0.347656 2.140625 -0.390625 L 0.46875 -4.09375 C 0.40625 -4.21875 0.347656 -4.300781 0.296875 -4.34375 C 0.253906 -4.382812 0.191406 -4.40625 0.109375 -4.40625 L 0.109375 -4.515625 Z M 1.34375 -4.515625 "/></g></g></g><g fill="#000000" fill-opacity="1"><g transform="translate(171.817757, 216.909887)"><g><path d="M 4.875 -3.703125 L 4.78125 -3.703125 C 4.78125 -3.867188 4.664062 -3.953125 4.4375 -3.953125 L 1.765625 -3.953125 L 1.765625 -2.59375 L 3.515625 -2.59375 C 3.609375 -2.59375 3.6875 -2.609375 3.75 -2.640625 C 3.820312 -2.671875 3.859375 -2.734375 3.859375 -2.828125 L 3.96875 -2.828125 L 3.96875 -1.796875 L 3.859375 -1.796875 C 3.859375 -1.878906 3.832031 -1.9375 3.78125 -1.96875 C 3.726562 -2.007812 3.644531 -2.03125 3.53125 -2.03125 L 1.765625 -2.03125 L 1.765625 -0.5625 L 4.640625 -0.5625 C 4.742188 -0.5625 4.828125 -0.582031 4.890625 -0.625 C 4.953125 -0.664062 4.984375 -0.742188 4.984375 -0.859375 L 5.09375 -0.859375 L 5.09375 0.1875 L 4.984375 0.1875 C 4.984375 0.113281 4.957031 0.0625 4.90625 0.03125 C 4.863281 0.0078125 4.789062 0 4.6875 0 L 0.84375 0 L 0.84375 -0.109375 C 0.914062 -0.109375 0.96875 -0.125 1 -0.15625 C 1.03125 -0.195312 1.046875 -0.25 1.046875 -0.3125 L 1.046875 -4.203125 C 1.046875 -4.253906 1.03125 -4.300781 1 -4.34375 C 0.976562 -4.382812 0.925781 -4.40625 0.84375 -4.40625 L 0.84375 -4.515625 L 4.390625 -4.515625 C 4.535156 -4.515625 4.632812 -4.519531 4.6875 -4.53125 C 4.75 -4.550781 4.78125 -4.601562 4.78125 -4.6875 L 4.875 -4.6875 Z M 4.875 -3.703125 "/></g></g></g><g fill="#000000" fill-opacity="1"><g transform="translate(184.399321, 216.909887)"><g><path d="M 1.9375 -4.515625 L 1.9375 -4.40625 C 1.851562 -4.40625 1.796875 -4.382812 1.765625 -4.34375 C 1.742188 -4.300781 1.734375 -4.242188 1.734375 -4.171875 L 1.734375 -0.5625 L 4.609375 -0.5625 C 4.816406 -0.5625 4.921875 -0.648438 4.921875 -0.828125 L 5.015625 -0.828125 L 5.015625 0.1875 L 4.921875 0.1875 C 4.921875 0.113281 4.894531 0.0625 4.84375 0.03125 C 4.789062 0.0078125 4.71875 0 4.625 0 L 0.8125 0 L 0.8125 -0.109375 C 0.882812 -0.109375 0.9375 -0.125 0.96875 -0.15625 C 1 -0.195312 1.015625 -0.25 1.015625 -0.3125 L 1.015625 -4.203125 C 1.015625 -4.253906 1 -4.300781 0.96875 -4.34375 C 0.945312 -4.382812 0.894531 -4.40625 0.8125 -4.40625 L 0.8125 -4.515625 Z M 1.9375 -4.515625 "/></g></g></g><g fill="#000000" fill-opacity="1"><g transform="translate(196.500636, 216.909887)"><g><path d="M 1.265625 -2.25 C 1.265625 -1.707031 1.425781 -1.285156 1.75 -0.984375 C 2.070312 -0.679688 2.519531 -0.53125 3.09375 -0.53125 C 3.664062 -0.53125 4.113281 -0.679688 4.4375 -0.984375 C 4.757812 -1.285156 4.921875 -1.707031 4.921875 -2.25 C 4.921875 -2.789062 4.757812 -3.210938 4.4375 -3.515625 C 4.125 -3.828125 3.675781 -3.984375 3.09375 -3.984375 C 2.519531 -3.984375 2.070312 -3.828125 1.75 -3.515625 C 1.425781 -3.210938 1.265625 -2.789062 1.265625 -2.25 Z M 3.09375 -4.5625 C 3.46875 -4.5625 3.8125 -4.507812 4.125 -4.40625 C 4.445312 -4.300781 4.722656 -4.148438 4.953125 -3.953125 C 5.179688 -3.753906 5.359375 -3.515625 5.484375 -3.234375 C 5.609375 -2.953125 5.671875 -2.625 5.671875 -2.25 C 5.671875 -1.894531 5.609375 -1.570312 5.484375 -1.28125 C 5.367188 -1 5.195312 -0.757812 4.96875 -0.5625 C 4.738281 -0.363281 4.46875 -0.210938 4.15625 -0.109375 C 3.84375 -0.00390625 3.488281 0.046875 3.09375 0.046875 C 2.707031 0.046875 2.351562 -0.00390625 2.03125 -0.109375 C 1.71875 -0.222656 1.445312 -0.378906 1.21875 -0.578125 C 1 -0.773438 0.828125 -1.015625 0.703125 -1.296875 C 0.578125 -1.578125 0.515625 -1.894531 0.515625 -2.25 C 0.515625 -2.625 0.578125 -2.953125 0.703125 -3.234375 C 0.828125 -3.515625 1.003906 -3.753906 1.234375 -3.953125 C 1.460938 -4.148438 1.734375 -4.300781 2.046875 -4.40625 C 2.367188 -4.507812 2.71875 -4.5625 3.09375 -4.5625 Z M 3.09375 -4.5625 "/></g></g></g><g fill="#000000" fill-opacity="1"><g transform="translate(209.553874, 216.909887)"><g><path d="M 3.6875 -2.546875 C 3.988281 -2.546875 4.21875 -2.597656 4.375 -2.703125 C 4.539062 -2.816406 4.625 -3.007812 4.625 -3.28125 C 4.625 -3.519531 4.550781 -3.6875 4.40625 -3.78125 C 4.257812 -3.875 4.003906 -3.921875 3.640625 -3.921875 L 1.734375 -3.921875 L 1.734375 -2.546875 Z M 3.703125 -4.515625 C 3.929688 -4.515625 4.140625 -4.492188 4.328125 -4.453125 C 4.523438 -4.410156 4.691406 -4.335938 4.828125 -4.234375 C 4.972656 -4.140625 5.082031 -4.015625 5.15625 -3.859375 C 5.238281 -3.710938 5.28125 -3.523438 5.28125 -3.296875 C 5.28125 -2.804688 5.132812 -2.457031 4.84375 -2.25 C 4.5625 -2.050781 4.179688 -1.953125 3.703125 -1.953125 L 1.734375 -1.953125 L 1.734375 -0.3125 C 1.734375 -0.25 1.742188 -0.195312 1.765625 -0.15625 C 1.796875 -0.125 1.851562 -0.109375 1.9375 -0.109375 L 1.9375 0 L 0.8125 0 L 0.8125 -0.109375 C 0.882812 -0.109375 0.9375 -0.125 0.96875 -0.15625 C 1 -0.195312 1.015625 -0.25 1.015625 -0.3125 L 1.015625 -4.203125 C 1.015625 -4.265625 1 -4.3125 0.96875 -4.34375 C 0.9375 -4.382812 0.882812 -4.40625 0.8125 -4.40625 L 0.8125 -4.515625 Z M 3.703125 -4.515625 "/></g></g></g><g fill="#000000" fill-opacity="1"><g transform="translate(222.135438, 216.909887)"><g><path d="M 4.875 -3.703125 L 4.78125 -3.703125 C 4.78125 -3.867188 4.664062 -3.953125 4.4375 -3.953125 L 1.765625 -3.953125 L 1.765625 -2.59375 L 3.515625 -2.59375 C 3.609375 -2.59375 3.6875 -2.609375 3.75 -2.640625 C 3.820312 -2.671875 3.859375 -2.734375 3.859375 -2.828125 L 3.96875 -2.828125 L 3.96875 -1.796875 L 3.859375 -1.796875 C 3.859375 -1.878906 3.832031 -1.9375 3.78125 -1.96875 C 3.726562 -2.007812 3.644531 -2.03125 3.53125 -2.03125 L 1.765625 -2.03125 L 1.765625 -0.5625 L 4.640625 -0.5625 C 4.742188 -0.5625 4.828125 -0.582031 4.890625 -0.625 C 4.953125 -0.664062 4.984375 -0.742188 4.984375 -0.859375 L 5.09375 -0.859375 L 5.09375 0.1875 L 4.984375 0.1875 C 4.984375 0.113281 4.957031 0.0625 4.90625 0.03125 C 4.863281 0.0078125 4.789062 0 4.6875 0 L 0.84375 0 L 0.84375 -0.109375 C 0.914062 -0.109375 0.96875 -0.125 1 -0.15625 C 1.03125 -0.195312 1.046875 -0.25 1.046875 -0.3125 L 1.046875 -4.203125 C 1.046875 -4.253906 1.03125 -4.300781 1 -4.34375 C 0.976562 -4.382812 0.925781 -4.40625 0.84375 -4.40625 L 0.84375 -4.515625 L 4.390625 -4.515625 C 4.535156 -4.515625 4.632812 -4.519531 4.6875 -4.53125 C 4.75 -4.550781 4.78125 -4.601562 4.78125 -4.6875 L 4.875 -4.6875 Z M 4.875 -3.703125 "/></g></g></g><g fill="#000000" fill-opacity="1"><g transform="translate(234.717002, 216.909887)"><g><path d="M 3.703125 -2.546875 C 4.003906 -2.546875 4.238281 -2.597656 4.40625 -2.703125 C 4.570312 -2.816406 4.65625 -3.007812 4.65625 -3.28125 C 4.65625 -3.394531 4.640625 -3.492188 4.609375 -3.578125 C 4.578125 -3.660156 4.519531 -3.722656 4.4375 -3.765625 C 4.363281 -3.816406 4.265625 -3.851562 4.140625 -3.875 C 4.015625 -3.90625 3.851562 -3.921875 3.65625 -3.921875 L 1.8125 -3.921875 L 1.8125 -2.546875 Z M 3.765625 -4.515625 C 4.285156 -4.515625 4.679688 -4.414062 4.953125 -4.21875 C 5.222656 -4.019531 5.359375 -3.703125 5.359375 -3.265625 C 5.359375 -2.898438 5.257812 -2.609375 5.0625 -2.390625 C 4.875 -2.179688 4.566406 -2.050781 4.140625 -2 L 5.125 -0.46875 C 5.21875 -0.332031 5.285156 -0.238281 5.328125 -0.1875 C 5.367188 -0.132812 5.441406 -0.109375 5.546875 -0.109375 L 5.5625 -0.109375 L 5.5625 0 L 4.328125 0 L 4.328125 -0.109375 C 4.398438 -0.109375 4.445312 -0.113281 4.46875 -0.125 C 4.488281 -0.132812 4.5 -0.15625 4.5 -0.1875 C 4.5 -0.207031 4.484375 -0.234375 4.453125 -0.265625 C 4.429688 -0.304688 4.398438 -0.351562 4.359375 -0.40625 L 3.390625 -1.953125 L 1.8125 -1.953125 L 1.8125 -0.3125 C 1.8125 -0.25 1.828125 -0.195312 1.859375 -0.15625 C 1.890625 -0.125 1.945312 -0.109375 2.03125 -0.109375 L 2.03125 0 L 0.890625 0 L 0.890625 -0.109375 C 0.972656 -0.109375 1.023438 -0.125 1.046875 -0.15625 C 1.078125 -0.195312 1.09375 -0.25 1.09375 -0.3125 L 1.09375 -4.203125 C 1.09375 -4.265625 1.078125 -4.3125 1.046875 -4.34375 C 1.023438 -4.382812 0.972656 -4.40625 0.890625 -4.40625 L 0.890625 -4.515625 Z M 3.765625 -4.515625 "/></g></g></g></svg>