<svg xmlns="http://www.w3.org/2000/svg" xmlns:xlink="http://www.w3.org/1999/xlink" width="500" zoomAndPan="magnify" viewBox="0 0 375 374.999991" height="500" preserveAspectRatio="xMidYMid meet" version="1.0"><defs><g/></defs><rect x="-37.5" width="450" fill="#ffffff" y="-37.499999" height="449.999989" fill-opacity="1"/><rect x="-37.5" width="450" fill="#f6f4ee" y="-37.499999" height="449.999989" fill-opacity="1"/><g fill="#000000" fill-opacity="1"><g transform="translate(127.141187, 205.426617)"><g><path d="M 4.671875 -4.90625 C 4.671875 -3.894531 4.265625 -2.914062 3.453125 -1.96875 C 3.421875 -1.9375 3.398438 -1.894531 3.390625 -1.84375 C 3.378906 -1.789062 3.378906 -1.753906 3.390625 -1.734375 C 3.421875 -1.679688 3.460938 -1.664062 3.515625 -1.6875 L 3.59375 -1.71875 L 3.65625 -1.75 L 4.3125 -2.109375 C 4.570312 -2.242188 4.789062 -2.375 4.96875 -2.5 C 6.289062 -3.457031 7.378906 -4.722656 8.234375 -6.296875 C 9.441406 -8.503906 9.851562 -10.601562 9.46875 -12.59375 C 9.195312 -13.957031 8.238281 -15.40625 6.59375 -16.9375 L 6.03125 -17.484375 C 5.800781 -17.679688 5.601562 -17.847656 5.4375 -17.984375 C 4.976562 -18.335938 4.523438 -18.582031 4.078125 -18.71875 L 3.984375 -18.75 L 3.90625 -18.796875 C 3.832031 -18.828125 3.769531 -18.820312 3.71875 -18.78125 C 3.675781 -18.738281 3.664062 -18.679688 3.6875 -18.609375 L 3.703125 -18.5 L 3.734375 -18.421875 L 3.984375 -17.546875 L 4.234375 -16.6875 C 4.398438 -16.019531 4.515625 -15.4375 4.578125 -14.9375 C 4.753906 -13.164062 4.816406 -11.492188 4.765625 -9.921875 L 4.78125 -8.71875 L 4.828125 -7.484375 C 4.847656 -6.472656 4.796875 -5.613281 4.671875 -4.90625 Z M 11.53125 -9 C 11.363281 -7.539062 10.46875 -5.867188 8.84375 -3.984375 C 8.050781 -3.078125 7.070312 -2.332031 5.90625 -1.75 C 5.238281 -1.4375 4.394531 -1.234375 3.375 -1.140625 L 3.25 -1.140625 L 3.109375 -1.125 C 2.992188 -1.101562 2.929688 -1.054688 2.921875 -0.984375 C 2.828125 -0.628906 2.613281 -0.410156 2.28125 -0.328125 L 2.0625 -0.28125 L 1.828125 -0.265625 C 1.640625 -0.234375 1.492188 -0.195312 1.390625 -0.15625 C 0.992188 0.03125 0.726562 0.0195312 0.59375 -0.1875 C 0.53125 -0.257812 0.484375 -0.367188 0.453125 -0.515625 L 0.40625 -0.734375 L 0.375 -0.9375 C 0.238281 -1.550781 0.1875 -2.296875 0.21875 -3.171875 L 0.25 -4.28125 L 0.28125 -5.421875 C 0.3125 -6.566406 0.304688 -7.867188 0.265625 -9.328125 L 0.09375 -13.21875 C 0.0703125 -13.707031 0.0234375 -14.289062 -0.046875 -14.96875 L -0.203125 -16.71875 C -0.335938 -18.15625 -0.382812 -19.332031 -0.34375 -20.25 C -0.332031 -20.5 -0.257812 -20.628906 -0.125 -20.640625 C 0.269531 -20.671875 0.507812 -20.929688 0.59375 -21.421875 L 0.609375 -21.546875 L 0.640625 -21.65625 C 0.679688 -21.726562 0.75 -21.765625 0.84375 -21.765625 C 0.925781 -21.765625 0.988281 -21.726562 1.03125 -21.65625 L 1.09375 -21.4375 C 1.15625 -21.070312 1.382812 -20.859375 1.78125 -20.796875 C 2.03125 -20.742188 2.28125 -20.625 2.53125 -20.4375 C 2.6875 -20.3125 2.890625 -20.117188 3.140625 -19.859375 C 3.296875 -19.703125 3.492188 -19.609375 3.734375 -19.578125 L 4.59375 -19.453125 L 5.4375 -19.28125 C 6.070312 -19.132812 6.625 -18.957031 7.09375 -18.75 C 7.382812 -18.625 7.679688 -18.394531 7.984375 -18.0625 L 8.375 -17.625 C 8.507812 -17.46875 8.632812 -17.335938 8.75 -17.234375 C 10.5 -15.640625 11.441406 -13.242188 11.578125 -10.046875 L 11.59375 -9.765625 L 11.59375 -9.484375 C 11.59375 -9.285156 11.570312 -9.125 11.53125 -9 Z M 11.53125 -9 "/></g></g></g><g fill="#000000" fill-opacity="1"><g transform="translate(141.462545, 205.113881)"><g><path d="M 9.734375 -14.296875 C 7.734375 -14.753906 5.894531 -14.8125 4.21875 -14.46875 C 3.738281 -14.363281 3.425781 -14.535156 3.28125 -14.984375 L 3.140625 -15.46875 L 2.953125 -16.375 L 2.765625 -17.296875 C 2.609375 -18.015625 2.421875 -18.609375 2.203125 -19.078125 C 2.085938 -19.328125 2.191406 -19.46875 2.515625 -19.5 L 3.765625 -19.5625 C 4.242188 -19.601562 4.65625 -19.679688 5 -19.796875 L 5.125 -19.828125 L 5.265625 -19.875 C 5.367188 -19.914062 5.410156 -20 5.390625 -20.125 C 5.378906 -20.226562 5.316406 -20.296875 5.203125 -20.328125 L 5.0625 -20.359375 L 4.90625 -20.34375 L 0.5 -20.421875 C 0.300781 -20.421875 0.09375 -20.296875 -0.125 -20.046875 C -0.332031 -19.816406 -0.429688 -19.597656 -0.421875 -19.390625 L -0.359375 -17.8125 L -0.296875 -16.25 C -0.242188 -15.007812 -0.222656 -13.960938 -0.234375 -13.109375 C -0.253906 -12.296875 -0.21875 -11.351562 -0.125 -10.28125 L 0.09375 -7.46875 C 0.289062 -5.125 0.3125 -3.242188 0.15625 -1.828125 C 0.0820312 -1.265625 0.320312 -0.789062 0.875 -0.40625 C 1.4375 -0.0195312 1.984375 0.0546875 2.515625 -0.171875 C 3.585938 -0.628906 5.1875 -0.945312 7.3125 -1.125 L 7.78125 -1.15625 L 8.234375 -1.1875 C 8.597656 -1.21875 8.894531 -1.296875 9.125 -1.421875 L 9.234375 -1.484375 L 9.328125 -1.546875 C 9.390625 -1.597656 9.410156 -1.664062 9.390625 -1.75 C 9.367188 -1.832031 9.320312 -1.894531 9.25 -1.9375 C 9.164062 -1.976562 9.09375 -1.992188 9.03125 -1.984375 C 8.769531 -1.929688 8.46875 -1.910156 8.125 -1.921875 L 7.203125 -1.984375 C 6.429688 -2.054688 5.832031 -2.019531 5.40625 -1.875 C 5.050781 -1.75 4.941406 -1.867188 5.078125 -2.234375 C 5.328125 -2.847656 5.414062 -3.488281 5.34375 -4.15625 L 5.265625 -5.265625 L 5.171875 -6.359375 L 5.125 -7.0625 L 5.0625 -7.75 C 5 -8.289062 4.890625 -8.742188 4.734375 -9.109375 C 4.492188 -9.617188 4.3125 -10.226562 4.1875 -10.9375 L 4.0625 -11.875 L 3.953125 -12.828125 C 3.929688 -13.117188 4.054688 -13.269531 4.328125 -13.28125 C 4.628906 -13.289062 5.066406 -13.328125 5.640625 -13.390625 L 6.3125 -13.46875 L 6.984375 -13.515625 L 8.34375 -13.546875 C 8.882812 -13.566406 9.34375 -13.628906 9.71875 -13.734375 C 9.914062 -13.785156 10.023438 -13.863281 10.046875 -13.96875 C 10.066406 -14.070312 10.035156 -14.148438 9.953125 -14.203125 L 9.84375 -14.265625 Z M 9.734375 -14.296875 "/></g></g></g><g fill="#000000" fill-opacity="1"><g transform="translate(154.026682, 204.839517)"><g><path d="M 7.109375 -3.84375 C 7.140625 -3.863281 7.160156 -3.894531 7.171875 -3.9375 L 7.203125 -4.046875 L 7.453125 -5.03125 L 7.6875 -6.03125 L 7.96875 -7.53125 L 8.328125 -9.421875 C 8.472656 -10.128906 8.613281 -10.757812 8.75 -11.3125 C 8.90625 -11.894531 9.109375 -12.75 9.359375 -13.875 L 9.59375 -15.0625 L 9.828125 -16.21875 L 9.953125 -16.8125 L 10.078125 -17.421875 C 10.191406 -17.847656 10.320312 -18.226562 10.46875 -18.5625 L 10.5625 -18.875 L 10.671875 -19.1875 C 10.734375 -19.457031 10.863281 -19.492188 11.0625 -19.296875 C 11.15625 -19.191406 11.191406 -19.082031 11.171875 -18.96875 L 11.09375 -18.546875 L 10.9375 -17.21875 L 10.8125 -15.890625 C 10.78125 -15.554688 10.710938 -15.175781 10.609375 -14.75 C 10.492188 -14.332031 10.382812 -13.765625 10.28125 -13.046875 L 10.125 -11.828125 C 10.0625 -11.367188 9.992188 -10.972656 9.921875 -10.640625 L 9.765625 -9.796875 L 9.640625 -8.9375 C 9.597656 -8.726562 9.539062 -8.457031 9.46875 -8.125 L 9.265625 -7.328125 C 9.109375 -6.710938 8.953125 -6.09375 8.796875 -5.46875 L 8.53125 -4.578125 L 8.265625 -3.703125 L 8.03125 -2.921875 L 7.796875 -2.15625 L 7.640625 -1.640625 L 7.453125 -1.125 C 7.367188 -0.90625 7.226562 -0.757812 7.03125 -0.6875 C 6.9375 -0.664062 6.859375 -0.609375 6.796875 -0.515625 C 6.679688 -0.304688 6.503906 -0.203125 6.265625 -0.203125 C 6.046875 -0.203125 5.863281 -0.179688 5.71875 -0.140625 L 5.671875 -0.125 L 5.609375 -0.125 C 5.140625 -0.1875 4.785156 -0.265625 4.546875 -0.359375 C 4.359375 -0.421875 4.222656 -0.5625 4.140625 -0.78125 C 4.046875 -1.03125 3.96875 -1.226562 3.90625 -1.375 C 3.832031 -1.632812 3.707031 -1.984375 3.53125 -2.421875 L 3.359375 -2.828125 L 3.21875 -3.21875 C 3.050781 -3.644531 2.851562 -4.191406 2.625 -4.859375 L 2.0625 -6.515625 C 1.957031 -6.804688 1.847656 -7.164062 1.734375 -7.59375 L 1.484375 -8.671875 L 1.453125 -8.828125 C 1.328125 -9.160156 1.203125 -9.585938 1.078125 -10.109375 L 0.9375 -10.75 L 0.78125 -11.390625 L 0.609375 -12.125 L 0.453125 -12.859375 C 0.328125 -13.460938 0.207031 -13.945312 0.09375 -14.3125 C 0.03125 -14.53125 -0.03125 -14.800781 -0.09375 -15.125 L -0.21875 -15.9375 L -0.28125 -16.359375 C -0.34375 -16.691406 -0.207031 -16.898438 0.125 -16.984375 L 0.34375 -17.03125 L 0.5625 -17.0625 L 0.75 -17.09375 L 0.90625 -17.109375 C 1.375 -17.242188 1.835938 -17.109375 2.296875 -16.703125 L 2.390625 -16.59375 C 2.484375 -16.488281 2.59375 -16.425781 2.71875 -16.40625 C 3.039062 -16.34375 3.289062 -16.132812 3.46875 -15.78125 L 3.578125 -15.546875 C 3.953125 -14.597656 4.210938 -13.769531 4.359375 -13.0625 L 4.359375 -13.015625 C 4.429688 -12.816406 4.503906 -12.53125 4.578125 -12.15625 L 4.671875 -11.71875 L 4.765625 -11.265625 C 4.867188 -10.878906 4.988281 -10.484375 5.125 -10.078125 L 5.515625 -8.984375 L 5.84375 -7.84375 L 5.96875 -7.53125 L 6.53125 -5.9375 C 6.664062 -5.539062 6.769531 -5.117188 6.84375 -4.671875 L 6.921875 -4.28125 L 7.046875 -3.875 Z M 7.109375 -3.84375 "/></g></g></g><g fill="#000000" fill-opacity="1"><g transform="translate(167.831859, 204.538053)"><g><path d="M 9.734375 -14.296875 C 7.734375 -14.753906 5.894531 -14.8125 4.21875 -14.46875 C 3.738281 -14.363281 3.425781 -14.535156 3.28125 -14.984375 L 3.140625 -15.46875 L 2.953125 -16.375 L 2.765625 -17.296875 C 2.609375 -18.015625 2.421875 -18.609375 2.203125 -19.078125 C 2.085938 -19.328125 2.191406 -19.46875 2.515625 -19.5 L 3.765625 -19.5625 C 4.242188 -19.601562 4.65625 -19.679688 5 -19.796875 L 5.125 -19.828125 L 5.265625 -19.875 C 5.367188 -19.914062 5.410156 -20 5.390625 -20.125 C 5.378906 -20.226562 5.316406 -20.296875 5.203125 -20.328125 L 5.0625 -20.359375 L 4.90625 -20.34375 L 0.5 -20.421875 C 0.300781 -20.421875 0.09375 -20.296875 -0.125 -20.046875 C -0.332031 -19.816406 -0.429688 -19.597656 -0.421875 -19.390625 L -0.359375 -17.8125 L -0.296875 -16.25 C -0.242188 -15.007812 -0.222656 -13.960938 -0.234375 -13.109375 C -0.253906 -12.296875 -0.21875 -11.351562 -0.125 -10.28125 L 0.09375 -7.46875 C 0.289062 -5.125 0.3125 -3.242188 0.15625 -1.828125 C 0.0820312 -1.265625 0.320312 -0.789062 0.875 -0.40625 C 1.4375 -0.0195312 1.984375 0.0546875 2.515625 -0.171875 C 3.585938 -0.628906 5.1875 -0.945312 7.3125 -1.125 L 7.78125 -1.15625 L 8.234375 -1.1875 C 8.597656 -1.21875 8.894531 -1.296875 9.125 -1.421875 L 9.234375 -1.484375 L 9.328125 -1.546875 C 9.390625 -1.597656 9.410156 -1.664062 9.390625 -1.75 C 9.367188 -1.832031 9.320312 -1.894531 9.25 -1.9375 C 9.164062 -1.976562 9.09375 -1.992188 9.03125 -1.984375 C 8.769531 -1.929688 8.46875 -1.910156 8.125 -1.921875 L 7.203125 -1.984375 C 6.429688 -2.054688 5.832031 -2.019531 5.40625 -1.875 C 5.050781 -1.75 4.941406 -1.867188 5.078125 -2.234375 C 5.328125 -2.847656 5.414062 -3.488281 5.34375 -4.15625 L 5.265625 -5.265625 L 5.171875 -6.359375 L 5.125 -7.0625 L 5.0625 -7.75 C 5 -8.289062 4.890625 -8.742188 4.734375 -9.109375 C 4.492188 -9.617188 4.3125 -10.226562 4.1875 -10.9375 L 4.0625 -11.875 L 3.953125 -12.828125 C 3.929688 -13.117188 4.054688 -13.269531 4.328125 -13.28125 C 4.628906 -13.289062 5.066406 -13.328125 5.640625 -13.390625 L 6.3125 -13.46875 L 6.984375 -13.515625 L 8.34375 -13.546875 C 8.882812 -13.566406 9.34375 -13.628906 9.71875 -13.734375 C 9.914062 -13.785156 10.023438 -13.863281 10.046875 -13.96875 C 10.066406 -14.070312 10.035156 -14.148438 9.953125 -14.203125 L 9.84375 -14.265625 Z M 9.734375 -14.296875 "/></g></g></g><g fill="#000000" fill-opacity="1"><g transform="translate(180.395995, 204.263689)"><g><path d="M 4.5625 -8.90625 C 4.46875 -7.757812 4.429688 -6.347656 4.453125 -4.671875 L 4.484375 -2.609375 L 4.484375 -0.578125 C 4.472656 -0.0664062 4.53125 0.25 4.65625 0.375 C 4.769531 0.5 5.070312 0.550781 5.5625 0.53125 L 6.796875 0.546875 L 8.03125 0.546875 C 9.03125 0.554688 9.84375 0.523438 10.46875 0.453125 L 10.609375 0.421875 L 10.734375 0.40625 C 10.828125 0.40625 10.882812 0.441406 10.90625 0.515625 C 10.914062 0.578125 10.894531 0.660156 10.84375 0.765625 C 10.820312 0.847656 10.773438 0.929688 10.703125 1.015625 C 10.609375 1.109375 10.472656 1.160156 10.296875 1.171875 L 9.296875 1.234375 L 8.296875 1.328125 C 7.484375 1.398438 6.816406 1.414062 6.296875 1.375 C 5.679688 1.332031 5.039062 1.460938 4.375 1.765625 C 3.707031 2.054688 3.03125 2.191406 2.34375 2.171875 L 2.0625 2.15625 C 1.96875 2.164062 1.882812 2.1875 1.8125 2.21875 C 1.445312 2.363281 1.1875 2.347656 1.03125 2.171875 C 0.914062 2.046875 0.820312 1.804688 0.75 1.453125 C 0.363281 -0.492188 0.101562 -2.796875 -0.03125 -5.453125 L -0.25 -12.390625 C -0.28125 -12.960938 -0.289062 -13.640625 -0.28125 -14.421875 L -0.25 -16.453125 C -0.21875 -18.109375 -0.265625 -19.453125 -0.390625 -20.484375 C -0.410156 -20.710938 -0.34375 -20.851562 -0.1875 -20.90625 C 0.550781 -21.195312 1.441406 -21.019531 2.484375 -20.375 C 3.035156 -20.019531 3.410156 -19.519531 3.609375 -18.875 C 3.660156 -18.65625 3.710938 -18.351562 3.765625 -17.96875 L 3.828125 -17.515625 L 3.90625 -17.0625 C 4.332031 -14.851562 4.554688 -12.425781 4.578125 -9.78125 L 4.578125 -9.265625 L 4.5625 -9.0625 Z M 4.5625 -8.90625 "/></g></g></g><g fill="#000000" fill-opacity="1"><g transform="translate(192.619673, 203.996761)"><g><path d="M 7.15625 -3.84375 C 7.394531 -3.875 7.570312 -3.910156 7.6875 -3.953125 C 8.15625 -4.140625 8.523438 -4.484375 8.796875 -4.984375 L 8.96875 -5.359375 L 9.140625 -5.75 C 9.210938 -5.9375 9.289062 -6.175781 9.375 -6.46875 L 9.578125 -7.234375 C 9.753906 -7.847656 9.851562 -8.398438 9.875 -8.890625 L 9.875 -9.546875 L 9.859375 -9.984375 L 9.859375 -10.421875 C 9.859375 -10.753906 9.820312 -11.035156 9.75 -11.265625 L 9.71875 -11.359375 L 9.71875 -11.453125 C 9.644531 -11.953125 9.519531 -12.332031 9.34375 -12.59375 C 9.3125 -12.65625 9.273438 -12.738281 9.234375 -12.84375 C 9.191406 -12.957031 9.117188 -13.117188 9.015625 -13.328125 L 8.859375 -13.578125 L 8.734375 -13.84375 C 8.640625 -14.03125 8.566406 -14.203125 8.515625 -14.359375 L 8.484375 -14.453125 L 8.40625 -14.5625 L 7.71875 -15.46875 C 7.582031 -15.632812 7.414062 -15.722656 7.21875 -15.734375 C 6.957031 -15.722656 6.75 -15.691406 6.59375 -15.640625 L 6.453125 -15.59375 L 6.28125 -15.5625 C 5.9375 -15.550781 5.609375 -15.375 5.296875 -15.03125 C 5.097656 -14.8125 4.867188 -14.503906 4.609375 -14.109375 C 4.234375 -13.535156 4 -13.050781 3.90625 -12.65625 L 3.8125 -12.234375 L 3.734375 -11.78125 L 3.6875 -11.546875 L 3.625 -11.3125 L 3.5625 -11.03125 L 3.515625 -10.53125 L 3.484375 -10.03125 C 3.472656 -9.351562 3.503906 -8.691406 3.578125 -8.046875 C 3.671875 -7.273438 3.820312 -6.648438 4.03125 -6.171875 C 4.320312 -5.460938 4.660156 -4.953125 5.046875 -4.640625 L 5.109375 -4.609375 L 5.140625 -4.546875 C 5.679688 -4.023438 6.351562 -3.789062 7.15625 -3.84375 Z M 10.78125 -12.203125 C 10.78125 -12.085938 10.796875 -11.953125 10.828125 -11.796875 L 10.890625 -11.40625 L 10.96875 -10.90625 L 11.015625 -10.40625 L 11.109375 -9.390625 C 11.128906 -9.234375 11.132812 -9.085938 11.125 -8.953125 L 11.03125 -7.671875 L 11 -7.15625 L 10.984375 -6.65625 L 10.953125 -6.46875 L 10.9375 -6.28125 C 10.800781 -5.570312 10.613281 -4.867188 10.375 -4.171875 C 10.21875 -3.765625 10.019531 -3.390625 9.78125 -3.046875 C 9.570312 -2.722656 9.257812 -2.421875 8.84375 -2.140625 C 8.59375 -1.984375 8.414062 -1.847656 8.3125 -1.734375 C 8.195312 -1.617188 8.0625 -1.523438 7.90625 -1.453125 L 7.453125 -1.265625 L 6.984375 -1.09375 C 6.546875 -0.9375 6.070312 -0.914062 5.5625 -1.03125 C 4.863281 -1.1875 4.285156 -1.382812 3.828125 -1.625 L 3.65625 -1.71875 L 3.09375 -2.109375 L 2.5625 -2.53125 C 2.363281 -2.675781 2.148438 -2.875 1.921875 -3.125 C 1.648438 -3.382812 1.429688 -3.664062 1.265625 -3.96875 C 0.898438 -4.613281 0.617188 -5.21875 0.421875 -5.78125 L 0.15625 -6.5625 C 0.0625 -6.863281 -0.0078125 -7.128906 -0.0625 -7.359375 L -0.109375 -7.53125 L -0.125 -7.671875 L -0.21875 -9.921875 C -0.21875 -10.523438 -0.160156 -11.132812 -0.046875 -11.75 L 0.203125 -13.109375 C 0.222656 -13.222656 0.257812 -13.363281 0.3125 -13.53125 L 0.46875 -13.9375 C 0.601562 -14.363281 0.890625 -14.941406 1.328125 -15.671875 C 1.691406 -16.273438 2.15625 -16.734375 2.71875 -17.046875 C 2.9375 -17.179688 3.171875 -17.28125 3.421875 -17.34375 L 3.921875 -17.46875 C 4.109375 -17.519531 4.269531 -17.570312 4.40625 -17.625 C 4.53125 -17.695312 4.691406 -17.710938 4.890625 -17.671875 C 5.085938 -17.648438 5.3125 -17.65625 5.5625 -17.6875 C 6.144531 -17.78125 6.695312 -17.753906 7.21875 -17.609375 C 7.394531 -17.546875 7.539062 -17.488281 7.65625 -17.4375 C 8.144531 -17.15625 8.515625 -16.890625 8.765625 -16.640625 C 9.265625 -16.085938 9.640625 -15.570312 9.890625 -15.09375 L 9.921875 -15.03125 L 9.9375 -14.96875 C 10.019531 -14.632812 10.175781 -14.242188 10.40625 -13.796875 C 10.46875 -13.648438 10.523438 -13.46875 10.578125 -13.25 L 10.640625 -12.953125 L 10.703125 -12.671875 L 10.75 -12.4375 Z M 10.78125 -12.203125 "/></g></g></g><g fill="#000000" fill-opacity="1"><g transform="translate(205.612135, 203.713044)"><g><path d="M 8.375 -15.421875 C 8.332031 -14.984375 8.203125 -14.429688 7.984375 -13.765625 C 7.898438 -13.492188 7.757812 -13.257812 7.5625 -13.0625 C 7.238281 -12.71875 6.929688 -12.378906 6.640625 -12.046875 C 6.148438 -11.484375 5.535156 -11 4.796875 -10.59375 L 4.671875 -10.53125 C 4.554688 -10.46875 4.488281 -10.507812 4.46875 -10.65625 L 4.453125 -10.828125 C 4.484375 -11.296875 4.425781 -11.84375 4.28125 -12.46875 L 4.234375 -12.6875 L 4.21875 -12.90625 L 4.15625 -13.4375 C 4.132812 -13.644531 4.09375 -13.828125 4.03125 -13.984375 L 4 -14.15625 C 3.9375 -14.75 3.710938 -15.5625 3.328125 -16.59375 L 3 -17.453125 C 2.851562 -17.765625 2.71875 -18.039062 2.59375 -18.28125 C 2.351562 -18.65625 2.375 -19.015625 2.65625 -19.359375 C 3.09375 -19.867188 3.484375 -20.1875 3.828125 -20.3125 C 3.992188 -20.363281 4.238281 -20.410156 4.5625 -20.453125 C 5.144531 -20.554688 5.738281 -20.378906 6.34375 -19.921875 C 7.03125 -19.429688 7.566406 -18.773438 7.953125 -17.953125 C 8.003906 -17.816406 8.066406 -17.644531 8.140625 -17.4375 L 8.28125 -16.890625 C 8.394531 -16.546875 8.425781 -16.054688 8.375 -15.421875 Z M 9.875 -15.515625 C 9.851562 -15.734375 9.804688 -15.953125 9.734375 -16.171875 C 9.648438 -16.441406 9.585938 -16.710938 9.546875 -16.984375 C 9.378906 -17.722656 9.085938 -18.40625 8.671875 -19.03125 C 8.179688 -19.726562 7.613281 -20.238281 6.96875 -20.5625 C 6.789062 -20.644531 6.59375 -20.71875 6.375 -20.78125 L 5.796875 -20.953125 C 5.191406 -21.109375 4.597656 -21.144531 4.015625 -21.0625 C 3.253906 -20.9375 2.609375 -20.625 2.078125 -20.125 L 1.796875 -19.828125 C 1.660156 -19.660156 1.503906 -19.632812 1.328125 -19.75 C 1.085938 -19.914062 0.796875 -19.921875 0.453125 -19.765625 L 0.3125 -19.71875 L 0.1875 -19.671875 C 0.03125 -19.609375 -0.101562 -19.507812 -0.21875 -19.375 C -0.351562 -19.226562 -0.390625 -19.070312 -0.328125 -18.90625 L -0.234375 -18.4375 C 0.0234375 -17.445312 0.148438 -16.507812 0.140625 -15.625 L 0.203125 -15.09375 L 0.21875 -14.96875 L 0.25 -14.84375 L 0.328125 -13.171875 L 0.375 -12.34375 L 0.71875 -8.9375 C 0.738281 -8.675781 0.742188 -8.457031 0.734375 -8.28125 C 0.710938 -7.90625 0.710938 -7.457031 0.734375 -6.9375 L 0.796875 -5.609375 L 0.859375 -3.625 L 0.90625 -2.171875 C 0.9375 -1.617188 0.976562 -1.128906 1.03125 -0.703125 L 1.15625 0.59375 L 1.1875 0.90625 C 1.269531 1.195312 1.453125 1.328125 1.734375 1.296875 C 1.890625 1.265625 2.085938 1.207031 2.328125 1.125 L 2.84375 0.859375 C 3.070312 0.765625 3.257812 0.691406 3.40625 0.640625 C 3.5 0.617188 3.597656 0.570312 3.703125 0.5 L 3.921875 0.265625 L 4.03125 0.109375 L 4.140625 -0.03125 C 4.640625 -0.613281 4.890625 -1.265625 4.890625 -1.984375 C 4.890625 -2.546875 4.941406 -3.070312 5.046875 -3.5625 C 5.109375 -3.925781 5.109375 -4.359375 5.046875 -4.859375 C 5.003906 -5.160156 5 -5.421875 5.03125 -5.640625 C 5.070312 -6.035156 5.070312 -6.421875 5.03125 -6.796875 L 4.984375 -7.046875 L 4.984375 -7.3125 C 5.003906 -7.707031 4.972656 -8.257812 4.890625 -8.96875 L 4.84375 -9.3125 C 4.832031 -9.5 4.921875 -9.609375 5.109375 -9.640625 L 5.328125 -9.6875 C 5.628906 -9.695312 5.929688 -9.789062 6.234375 -9.96875 C 6.515625 -10.132812 6.738281 -10.25 6.90625 -10.3125 C 7.363281 -10.5 7.8125 -10.816406 8.25 -11.265625 L 9.1875 -12.3125 C 9.519531 -12.695312 9.710938 -13.050781 9.765625 -13.375 L 9.78125 -13.484375 L 9.84375 -13.578125 C 9.90625 -13.703125 9.9375 -13.859375 9.9375 -14.046875 Z M 9.875 -15.515625 "/></g></g></g><g fill="#000000" fill-opacity="1"><g transform="translate(217.308647, 203.457626)"><g><path d="M 9.734375 -14.296875 C 7.734375 -14.753906 5.894531 -14.8125 4.21875 -14.46875 C 3.738281 -14.363281 3.425781 -14.535156 3.28125 -14.984375 L 3.140625 -15.46875 L 2.953125 -16.375 L 2.765625 -17.296875 C 2.609375 -18.015625 2.421875 -18.609375 2.203125 -19.078125 C 2.085938 -19.328125 2.191406 -19.46875 2.515625 -19.5 L 3.765625 -19.5625 C 4.242188 -19.601562 4.65625 -19.679688 5 -19.796875 L 5.125 -19.828125 L 5.265625 -19.875 C 5.367188 -19.914062 5.410156 -20 5.390625 -20.125 C 5.378906 -20.226562 5.316406 -20.296875 5.203125 -20.328125 L 5.0625 -20.359375 L 4.90625 -20.34375 L 0.5 -20.421875 C 0.300781 -20.421875 0.09375 -20.296875 -0.125 -20.046875 C -0.332031 -19.816406 -0.429688 -19.597656 -0.421875 -19.390625 L -0.359375 -17.8125 L -0.296875 -16.25 C -0.242188 -15.007812 -0.222656 -13.960938 -0.234375 -13.109375 C -0.253906 -12.296875 -0.21875 -11.351562 -0.125 -10.28125 L 0.09375 -7.46875 C 0.289062 -5.125 0.3125 -3.242188 0.15625 -1.828125 C 0.0820312 -1.265625 0.320312 -0.789062 0.875 -0.40625 C 1.4375 -0.0195312 1.984375 0.0546875 2.515625 -0.171875 C 3.585938 -0.628906 5.1875 -0.945312 7.3125 -1.125 L 7.78125 -1.15625 L 8.234375 -1.1875 C 8.597656 -1.21875 8.894531 -1.296875 9.125 -1.421875 L 9.234375 -1.484375 L 9.328125 -1.546875 C 9.390625 -1.597656 9.410156 -1.664062 9.390625 -1.75 C 9.367188 -1.832031 9.320312 -1.894531 9.25 -1.9375 C 9.164062 -1.976562 9.09375 -1.992188 9.03125 -1.984375 C 8.769531 -1.929688 8.46875 -1.910156 8.125 -1.921875 L 7.203125 -1.984375 C 6.429688 -2.054688 5.832031 -2.019531 5.40625 -1.875 C 5.050781 -1.75 4.941406 -1.867188 5.078125 -2.234375 C 5.328125 -2.847656 5.414062 -3.488281 5.34375 -4.15625 L 5.265625 -5.265625 L 5.171875 -6.359375 L 5.125 -7.0625 L 5.0625 -7.75 C 5 -8.289062 4.890625 -8.742188 4.734375 -9.109375 C 4.492188 -9.617188 4.3125 -10.226562 4.1875 -10.9375 L 4.0625 -11.875 L 3.953125 -12.828125 C 3.929688 -13.117188 4.054688 -13.269531 4.328125 -13.28125 C 4.628906 -13.289062 5.066406 -13.328125 5.640625 -13.390625 L 6.3125 -13.46875 L 6.984375 -13.515625 L 8.34375 -13.546875 C 8.882812 -13.566406 9.34375 -13.628906 9.71875 -13.734375 C 9.914062 -13.785156 10.023438 -13.863281 10.046875 -13.96875 C 10.066406 -14.070312 10.035156 -14.148438 9.953125 -14.203125 L 9.84375 -14.265625 Z M 9.734375 -14.296875 "/></g></g></g><g fill="#000000" fill-opacity="1"><g transform="translate(229.872783, 203.183263)"><g><path d="M 3.953125 -11.859375 L 3.953125 -11.46875 C 3.960938 -11.34375 3.992188 -11.226562 4.046875 -11.125 C 4.078125 -10.988281 4.15625 -10.945312 4.28125 -11 L 4.640625 -11.171875 L 4.984375 -11.34375 C 5.242188 -11.488281 5.457031 -11.644531 5.625 -11.8125 C 5.84375 -12.039062 5.96875 -12.285156 6 -12.546875 C 6.039062 -13.160156 6 -13.703125 5.875 -14.171875 C 5.664062 -14.910156 5.222656 -15.488281 4.546875 -15.90625 C 4.359375 -16.007812 4.175781 -16.023438 4 -15.953125 L 3.890625 -15.921875 L 3.75 -15.875 C 3.644531 -15.820312 3.597656 -15.742188 3.609375 -15.640625 L 3.84375 -13.171875 Z M 4.1875 -7.765625 C 4.0625 -6.796875 4.03125 -5.96875 4.09375 -5.28125 C 4.09375 -5.082031 4.078125 -4.847656 4.046875 -4.578125 C 4.015625 -4.359375 4.003906 -4.113281 4.015625 -3.84375 L 4.015625 -3.0625 L 3.984375 -2.296875 L 4.03125 0.921875 C 4.039062 1.265625 4 1.554688 3.90625 1.796875 L 3.8125 1.984375 L 3.734375 2.203125 C 3.691406 2.367188 3.632812 2.5 3.5625 2.59375 L 3.484375 2.71875 L 3.390625 2.84375 C 3.234375 3.03125 3.046875 3.078125 2.828125 2.984375 L 2.21875 2.703125 L 1.578125 2.4375 C 1.171875 2.269531 0.929688 1.925781 0.859375 1.40625 L 0.78125 0.546875 L 0.6875 -0.25 L 0.625 -1.03125 L 0.578125 -1.71875 L 0.484375 -2.40625 L 0.1875 -4.53125 C 0.132812 -4.882812 0.0859375 -5.328125 0.046875 -5.859375 L -0.0625 -7.203125 C -0.144531 -8.066406 -0.191406 -9.070312 -0.203125 -10.21875 L -0.21875 -11.71875 L -0.21875 -13.234375 L -0.25 -17.015625 C -0.257812 -17.398438 -0.160156 -17.722656 0.046875 -17.984375 C 0.210938 -18.191406 0.421875 -18.300781 0.671875 -18.3125 C 0.984375 -18.300781 1.222656 -18.28125 1.390625 -18.25 L 1.90625 -18.171875 L 2.421875 -18.078125 C 2.628906 -18.035156 2.785156 -17.914062 2.890625 -17.71875 C 3.046875 -17.414062 3.195312 -17.195312 3.34375 -17.0625 L 3.46875 -16.875 C 3.5625 -16.695312 3.710938 -16.628906 3.921875 -16.671875 L 4.015625 -16.6875 L 4.09375 -16.703125 C 4.445312 -16.835938 4.820312 -16.785156 5.21875 -16.546875 C 5.613281 -16.328125 6.050781 -15.878906 6.53125 -15.203125 C 6.882812 -14.710938 7.109375 -14.21875 7.203125 -13.71875 C 7.316406 -13.0625 7.226562 -12.425781 6.9375 -11.8125 C 6.875 -11.675781 6.765625 -11.519531 6.609375 -11.34375 L 6.453125 -11.109375 L 6.28125 -10.890625 C 6.207031 -10.785156 6.078125 -10.6875 5.890625 -10.59375 L 5.625 -10.46875 C 5.445312 -10.375 5.40625 -10.242188 5.5 -10.078125 L 5.78125 -9.53125 L 6.078125 -9 L 6.453125 -8.390625 L 6.84375 -7.8125 L 6.921875 -7.6875 L 7.015625 -7.5625 C 7.273438 -7.113281 7.625 -6.554688 8.0625 -5.890625 L 8.59375 -5.078125 L 9.140625 -4.265625 L 9.328125 -4.015625 C 9.503906 -3.785156 9.707031 -3.507812 9.9375 -3.1875 L 10.515625 -2.328125 L 11.21875 -1.265625 C 11.363281 -1.046875 11.488281 -0.8125 11.59375 -0.5625 C 11.695312 -0.257812 11.71875 -0.015625 11.65625 0.171875 C 11.625 0.242188 11.617188 0.328125 11.640625 0.421875 C 11.671875 0.535156 11.664062 0.660156 11.625 0.796875 L 11.59375 0.96875 L 11.515625 1.140625 C 11.492188 1.210938 11.445312 1.257812 11.375 1.28125 C 11.175781 1.375 11.050781 1.414062 11 1.40625 C 10.9375 1.382812 10.84375 1.289062 10.71875 1.125 L 10.5 0.828125 C 10.414062 0.671875 10.296875 0.535156 10.140625 0.421875 C 9.972656 0.285156 9.816406 0.109375 9.671875 -0.109375 L 9.140625 -0.859375 L 8.984375 -1.078125 C 8.765625 -1.285156 8.515625 -1.578125 8.234375 -1.953125 L 7.890625 -2.390625 L 7.53125 -2.84375 C 7 -3.476562 6.585938 -4.015625 6.296875 -4.453125 L 5.296875 -5.890625 C 5.015625 -6.273438 4.765625 -6.691406 4.546875 -7.140625 L 4.390625 -7.4375 Z M 4.1875 -7.765625 "/></g></g></g><g fill="#000000" fill-opacity="1"><g transform="translate(126.961702, 178.193659)"><g><path d="M 6.523438 0 L 6.523438 -6.863281 L 16.605469 -6.863281 L 16.605469 -11.5625 L 6.523438 -11.5625 L 6.523438 -13.09375 L 17.277344 -13.09375 L 17.277344 -18.246094 L 1.011719 -18.246094 L 1.011719 0 Z M 6.523438 0 "/></g></g></g><g fill="#000000" fill-opacity="1"><g transform="translate(144.914917, 178.193659)"><g><path d="M 16.492188 -6.726562 C 18.246094 -7.828125 19.304688 -9.71875 19.304688 -12.082031 L 19.304688 -12.105469 C 19.304688 -15.792969 16.558594 -18.246094 12.417969 -18.246094 L 1.011719 -18.246094 L 1.011719 0 L 6.523438 0 L 6.523438 -5.648438 L 11.113281 -5.648438 L 14.421875 0 L 20.585938 0 Z M 11.746094 -13.117188 C 13.003906 -13.117188 13.679688 -12.757812 13.679688 -11.609375 L 13.679688 -11.585938 C 13.679688 -10.484375 12.980469 -10.101562 11.746094 -10.101562 L 6.523438 -10.101562 L 6.523438 -13.117188 Z M 11.746094 -13.117188 "/></g></g></g><g fill="#000000" fill-opacity="1"><g transform="translate(165.50037, 178.193659)"><g><path d="M 17.277344 0 L 17.277344 -5.152344 L 6.523438 -5.152344 L 6.523438 -6.863281 L 16.605469 -6.863281 L 16.605469 -11.5625 L 6.523438 -11.5625 L 6.523438 -13.09375 L 17.277344 -13.09375 L 17.277344 -18.246094 L 1.011719 -18.246094 L 1.011719 0 Z M 17.277344 0 "/></g></g></g><g fill="#000000" fill-opacity="1"><g transform="translate(183.678562, 178.193659)"><g><path d="M 15.679688 -5.828125 L 8.527344 -18.246094 L 1.011719 -18.246094 L 1.011719 0 L 6.523438 0 L 6.523438 -13.070312 L 13.972656 0 L 21.195312 0 L 21.195312 -18.246094 L 15.679688 -18.246094 Z M 15.679688 -5.828125 "/></g></g></g><g fill="#000000" fill-opacity="1"><g transform="translate(205.883852, 178.193659)"><g><path d="M 11.722656 0.335938 C 14.308594 0.335938 17.570312 -0.316406 19.753906 -1.304688 L 17.4375 -6.050781 C 15.882812 -5.308594 13.65625 -4.816406 11.722656 -4.816406 C 8.503906 -4.816406 6.410156 -6.390625 6.410156 -9.023438 L 6.410156 -9.066406 C 6.410156 -11.902344 8.28125 -13.433594 11.722656 -13.433594 C 13.632812 -13.433594 15.863281 -12.9375 17.4375 -12.195312 L 19.753906 -16.941406 C 17.570312 -17.929688 14.308594 -18.582031 11.722656 -18.582031 C 4.882812 -18.582031 0.789062 -14.78125 0.789062 -9.066406 L 0.789062 -9.023438 C 0.789062 -3.351562 4.972656 0.335938 11.722656 0.335938 Z M 11.722656 0.335938 "/></g></g></g><g fill="#000000" fill-opacity="1"><g transform="translate(226.311823, 178.193659)"><g><path d="M 6.523438 0 L 6.523438 -6.613281 L 15.1875 -6.613281 L 15.1875 0 L 20.699219 0 L 20.699219 -18.246094 L 15.1875 -18.246094 L 15.1875 -11.765625 L 6.523438 -11.765625 L 6.523438 -18.246094 L 1.011719 -18.246094 L 1.011719 0 Z M 6.523438 0 "/></g></g></g><g fill="#000000" fill-opacity="1"><g transform="translate(164.648735, 152.469137)"><g><path d="M 1.394531 -1.148438 C 2.152344 -1.878906 2.28125 -2.726562 1.667969 -3.363281 L -0.207031 -5.316406 L -1.242188 -4.320312 L 0.582031 -2.421875 C 0.746094 -2.25 0.753906 -2.066406 0.609375 -1.925781 C 0.429688 -1.753906 0.15625 -1.773438 -0.128906 -1.984375 L -0.753906 -0.863281 C -0.125 -0.347656 0.644531 -0.429688 1.394531 -1.148438 Z M 1.394531 -1.148438 "/></g></g></g><g fill="#000000" fill-opacity="1"><g transform="translate(167.255046, 149.923053)"><g><path d="M 1.855469 -1.203125 C 2.867188 -1.953125 3.066406 -2.863281 2.414062 -3.746094 L 0.984375 -5.675781 L -0.171875 -4.820312 L 1.226562 -2.9375 C 1.4375 -2.652344 1.40625 -2.378906 1.132812 -2.179688 C 0.863281 -1.980469 0.59375 -2.027344 0.382812 -2.3125 L -1.011719 -4.199219 L -2.167969 -3.34375 L -0.738281 -1.414062 C -0.0820312 -0.53125 0.84375 -0.453125 1.855469 -1.203125 Z M 1.855469 -1.203125 "/></g></g></g><g fill="#000000" fill-opacity="1"><g transform="translate(170.737227, 147.383767)"><g><path d="M 0.238281 -0.136719 L 2.589844 -1.480469 L 1.984375 -2.535156 L 0.882812 -1.90625 L -0.488281 -4.300781 L -1.734375 -3.585938 Z M 0.238281 -0.136719 "/></g></g></g><g fill="#000000" fill-opacity="1"><g transform="translate(173.366054, 145.901184)"><g><path d="M 0.25 -0.117188 L 1.546875 -0.730469 L -0.144531 -4.328125 L -1.445312 -3.714844 Z M 0.25 -0.117188 "/></g></g></g><g fill="#000000" fill-opacity="1"><g transform="translate(175.084127, 145.057816)"><g><path d="M 0.257812 -0.0976562 L 3 -1.121094 L 2.613281 -2.15625 L 1.164062 -1.613281 L 1.011719 -2.027344 L 2.199219 -2.472656 L 1.871094 -3.351562 L 0.683594 -2.90625 L 0.546875 -3.269531 L 1.945312 -3.792969 L 1.558594 -4.824219 L -1.132812 -3.820312 Z M 0.257812 -0.0976562 "/></g></g></g><g fill="#000000" fill-opacity="1"><g transform="translate(178.069053, 143.889444)"><g><path d="M 0.269531 -0.0625 L 1.558594 -0.367188 L 1.03125 -2.597656 L 1.042969 -2.601562 L 2.742188 -0.648438 L 4.300781 -1.015625 L 3.386719 -4.886719 L 2.097656 -4.582031 L 2.625 -2.339844 L 2.613281 -2.335938 L 0.914062 -4.300781 L -0.644531 -3.933594 Z M 0.269531 -0.0625 "/></g></g></g><g fill="#000000" fill-opacity="1"><g transform="translate(182.57193, 142.907219)"><g/></g></g><g fill="#000000" fill-opacity="1"><g transform="translate(183.418271, 142.706783)"><g><path d="M 0.277344 -0.015625 L 2.09375 -0.125 C 3.511719 -0.207031 4.257812 -0.964844 4.183594 -2.238281 C 4.105469 -3.511719 3.277344 -4.175781 1.859375 -4.09375 L 0.0390625 -3.984375 Z M 1.589844 -1.199219 L 1.484375 -2.964844 L 1.925781 -2.992188 C 2.421875 -3.019531 2.714844 -2.722656 2.75 -2.15625 C 2.78125 -1.585938 2.527344 -1.257812 2.027344 -1.226562 Z M 1.589844 -1.199219 "/></g></g></g><g fill="#000000" fill-opacity="1"><g transform="translate(187.733295, 142.443014)"><g><path d="M 2.191406 0.3125 C 3.445312 0.414062 4.195312 -0.140625 4.28125 -1.238281 L 4.472656 -3.632812 L 3.039062 -3.746094 L 2.855469 -1.40625 C 2.828125 -1.054688 2.625 -0.871094 2.289062 -0.898438 C 1.953125 -0.925781 1.78125 -1.136719 1.808594 -1.488281 L 1.996094 -3.828125 L 0.5625 -3.945312 L 0.371094 -1.550781 C 0.285156 -0.453125 0.9375 0.214844 2.191406 0.3125 Z M 2.191406 0.3125 "/></g></g></g><g fill="#000000" fill-opacity="1"><g transform="translate(192.021029, 142.798184)"><g><path d="M 1.136719 0.238281 L 2.539062 0.535156 L 3.109375 -2.167969 L 4.136719 -1.949219 L 4.386719 -3.140625 L 0.925781 -3.867188 L 0.675781 -2.679688 L 1.703125 -2.464844 Z M 1.136719 0.238281 "/></g></g></g><g fill="#000000" fill-opacity="1"><g transform="translate(195.591976, 143.523811)"><g><path d="M 3.125 1.171875 C 3.46875 1.292969 3.835938 1.3125 4.101562 1.230469 L 4.144531 0.585938 C 4.085938 0.59375 4 0.601562 3.933594 0.578125 C 3.828125 0.539062 3.792969 0.433594 3.796875 0.324219 L 3.808594 0.09375 C 3.816406 -0.128906 3.78125 -0.277344 3.613281 -0.398438 L 3.613281 -0.40625 C 4.167969 -0.417969 4.566406 -0.695312 4.730469 -1.167969 C 5.011719 -1.972656 4.613281 -2.609375 3.617188 -2.953125 L 1.566406 -3.664062 L 0.261719 0.0898438 L 1.617188 0.5625 L 2.050781 -0.691406 L 2.253906 -0.621094 C 2.4375 -0.554688 2.464844 -0.382812 2.460938 -0.199219 L 2.445312 0.148438 C 2.425781 0.636719 2.679688 1.019531 3.125 1.171875 Z M 2.34375 -1.523438 L 2.59375 -2.253906 L 3.058594 -2.09375 C 3.332031 -2 3.4375 -1.816406 3.355469 -1.582031 C 3.273438 -1.347656 3.078125 -1.269531 2.804688 -1.363281 Z M 2.34375 -1.523438 "/></g></g></g><g fill="#000000" fill-opacity="1"><g transform="translate(199.57656, 144.896558)"><g><path d="M 1.90625 1.125 C 3.027344 1.699219 3.929688 1.46875 4.429688 0.492188 L 5.519531 -1.648438 L 4.242188 -2.300781 L 3.175781 -0.210938 C 3.015625 0.105469 2.757812 0.195312 2.457031 0.0429688 C 2.15625 -0.109375 2.078125 -0.371094 2.242188 -0.6875 L 3.304688 -2.777344 L 2.027344 -3.429688 L 0.9375 -1.289062 C 0.4375 -0.308594 0.785156 0.554688 1.90625 1.125 Z M 1.90625 1.125 "/></g></g></g><g fill="#000000" fill-opacity="1"><g transform="translate(203.409294, 146.833431)"><g><path d="M 1.832031 1.457031 C 2.84375 2.167969 3.945312 2.070312 4.664062 1.199219 L 3.65625 0.320312 C 3.328125 0.660156 2.894531 0.71875 2.546875 0.472656 C 2.15625 0.199219 2.109375 -0.265625 2.429688 -0.722656 C 2.75 -1.179688 3.171875 -1.316406 3.511719 -1.078125 C 3.816406 -0.859375 3.839844 -0.535156 3.671875 -0.160156 L 4.917969 0.316406 C 5.375 -0.515625 5.097656 -1.445312 4.203125 -2.074219 C 3.148438 -2.816406 2 -2.609375 1.253906 -1.546875 C 0.511719 -0.484375 0.734375 0.683594 1.832031 1.457031 Z M 1.832031 1.457031 "/></g></g></g><g fill="#000000" fill-opacity="1"><g transform="translate(207.064221, 149.396822)"><g><path d="M 0.203125 0.1875 L 1.246094 1.171875 L 2.269531 0.0859375 L 3.03125 0.804688 L 2.011719 1.890625 L 3.058594 2.875 L 5.78125 -0.0234375 L 4.734375 -1.007812 L 3.789062 0 L 3.023438 -0.71875 L 3.96875 -1.726562 L 2.925781 -2.707031 Z M 0.203125 0.1875 "/></g></g></g><g fill="#000000" fill-opacity="1"><g transform="translate(171.149166, 221.309574)"><g><path d="M 1.910156 0.136719 C 2.921875 0.136719 3.628906 -0.359375 3.628906 -1.183594 C 3.628906 -1.824219 3.21875 -2.1875 2.324219 -2.335938 L 1.765625 -2.441406 C 1.359375 -2.519531 1.183594 -2.652344 1.183594 -2.886719 C 1.183594 -3.167969 1.425781 -3.375 1.8125 -3.375 C 2.191406 -3.375 2.484375 -3.132812 2.535156 -2.75 L 3.378906 -2.9375 C 3.28125 -3.621094 2.644531 -4.070312 1.824219 -4.070312 C 0.910156 -4.070312 0.253906 -3.574219 0.253906 -2.800781 C 0.253906 -2.179688 0.640625 -1.832031 1.507812 -1.667969 L 2.054688 -1.5625 C 2.519531 -1.46875 2.710938 -1.324219 2.710938 -1.082031 C 2.710938 -0.777344 2.417969 -0.5625 1.949219 -0.5625 C 1.425781 -0.5625 1.039062 -0.871094 0.984375 -1.34375 L 0.121094 -1.183594 C 0.210938 -0.332031 0.933594 0.136719 1.910156 0.136719 Z M 1.910156 0.136719 "/></g></g></g><g fill="#000000" fill-opacity="1"><g transform="translate(174.856839, 221.309574)"><g><path d="M 0.304688 0 L 1.25 0 L 1.25 -3.933594 L 0.304688 -3.933594 Z M 0.304688 0 "/></g></g></g><g fill="#000000" fill-opacity="1"><g transform="translate(176.407218, 221.309574)"><g><path d="M 0.304688 0 L 1.191406 0 L 1.191406 -2.792969 L 1.203125 -2.792969 L 2.804688 0 L 3.914062 0 L 3.914062 -3.933594 L 3.019531 -3.933594 L 3.019531 -1.132812 L 3.007812 -1.132812 L 1.40625 -3.933594 L 0.304688 -3.933594 Z M 0.304688 0 "/></g></g></g><g fill="#000000" fill-opacity="1"><g transform="translate(180.622492, 221.309574)"><g><path d="M 2.296875 0.136719 C 3.425781 0.136719 4.214844 -0.523438 4.335938 -1.566406 L 3.453125 -1.691406 C 3.359375 -1.070312 2.910156 -0.671875 2.308594 -0.671875 C 1.578125 -0.671875 1.117188 -1.175781 1.109375 -1.964844 C 1.109375 -2.761719 1.53125 -3.265625 2.191406 -3.265625 C 2.707031 -3.265625 3.046875 -2.933594 3.148438 -2.402344 L 4.007812 -2.617188 C 3.871094 -3.507812 3.160156 -4.070312 2.191406 -4.070312 C 0.949219 -4.070312 0.164062 -3.253906 0.164062 -1.964844 C 0.164062 -0.679688 0.992188 0.136719 2.296875 0.136719 Z M 2.296875 0.136719 "/></g></g></g><g fill="#000000" fill-opacity="1"><g transform="translate(185.047422, 221.309574)"><g><path d="M 0.304688 0 L 3.125 0 L 3.125 -0.757812 L 1.214844 -0.757812 L 1.214844 -1.679688 L 2.847656 -1.679688 L 2.847656 -2.347656 L 1.214844 -2.347656 L 1.214844 -3.179688 L 3.070312 -3.179688 L 3.070312 -3.933594 L 0.304688 -3.933594 Z M 0.304688 0 "/></g></g></g><g fill="#000000" fill-opacity="1"><g transform="translate(188.291635, 221.309574)"><g/></g></g><g fill="#000000" fill-opacity="1"><g transform="translate(189.510976, 221.309574)"><g><path d="M 0.191406 0 L 3.199219 0 L 3.199219 -0.667969 L 1.144531 -0.667969 C 1.144531 -0.984375 1.296875 -1.175781 1.710938 -1.378906 L 2.226562 -1.601562 C 2.921875 -1.894531 3.199219 -2.230469 3.199219 -2.785156 C 3.199219 -3.539062 2.644531 -4.042969 1.8125 -4.042969 C 0.960938 -4.042969 0.347656 -3.496094 0.289062 -2.671875 L 1.1875 -2.511719 C 1.203125 -3.015625 1.453125 -3.292969 1.777344 -3.292969 C 2.054688 -3.292969 2.246094 -3.109375 2.246094 -2.804688 C 2.246094 -2.5 2.09375 -2.3125 1.679688 -2.121094 L 1.238281 -1.925781 C 0.492188 -1.613281 0.199219 -1.199219 0.191406 -0.4375 Z M 0.191406 0 "/></g></g></g><g fill="#000000" fill-opacity="1"><g transform="translate(192.926228, 221.309574)"><g><path d="M 2.015625 0.109375 C 3.097656 0.109375 3.804688 -0.734375 3.804688 -1.964844 C 3.804688 -3.203125 3.097656 -4.042969 2.015625 -4.042969 C 0.933594 -4.042969 0.222656 -3.203125 0.222656 -1.964844 C 0.222656 -0.734375 0.933594 0.109375 2.015625 0.109375 Z M 2.015625 -0.671875 C 1.484375 -0.671875 1.136719 -1.203125 1.136719 -1.964844 C 1.136719 -2.734375 1.484375 -3.265625 2.015625 -3.265625 C 2.546875 -3.265625 2.886719 -2.734375 2.886719 -1.964844 C 2.886719 -1.203125 2.546875 -0.671875 2.015625 -0.671875 Z M 2.015625 -0.671875 "/></g></g></g><g fill="#000000" fill-opacity="1"><g transform="translate(196.948389, 221.309574)"><g><path d="M 0.191406 0 L 3.199219 0 L 3.199219 -0.667969 L 1.144531 -0.667969 C 1.144531 -0.984375 1.296875 -1.175781 1.710938 -1.378906 L 2.226562 -1.601562 C 2.921875 -1.894531 3.199219 -2.230469 3.199219 -2.785156 C 3.199219 -3.539062 2.644531 -4.042969 1.8125 -4.042969 C 0.960938 -4.042969 0.347656 -3.496094 0.289062 -2.671875 L 1.1875 -2.511719 C 1.203125 -3.015625 1.453125 -3.292969 1.777344 -3.292969 C 2.054688 -3.292969 2.246094 -3.109375 2.246094 -2.804688 C 2.246094 -2.5 2.09375 -2.3125 1.679688 -2.121094 L 1.238281 -1.925781 C 0.492188 -1.613281 0.199219 -1.199219 0.191406 -0.4375 Z M 0.191406 0 "/></g></g></g><g fill="#000000" fill-opacity="1"><g transform="translate(200.363641, 221.309574)"><g><path d="M 1.738281 0.109375 C 2.640625 0.109375 3.285156 -0.386719 3.285156 -1.097656 C 3.285156 -1.558594 3.015625 -1.925781 2.535156 -2.09375 L 2.535156 -2.105469 C 2.867188 -2.242188 3.058594 -2.566406 3.058594 -2.945312 C 3.058594 -3.585938 2.511719 -4.019531 1.726562 -4.019531 C 0.898438 -4.019531 0.308594 -3.46875 0.265625 -2.734375 L 1.171875 -2.589844 C 1.1875 -3.03125 1.414062 -3.324219 1.738281 -3.324219 C 2.003906 -3.324219 2.191406 -3.125 2.191406 -2.832031 C 2.191406 -2.519531 2.003906 -2.304688 1.683594 -2.285156 L 1.492188 -2.273438 L 1.492188 -1.800781 L 1.75 -1.789062 C 2.054688 -1.777344 2.3125 -1.546875 2.3125 -1.203125 C 2.3125 -0.871094 2.070312 -0.644531 1.707031 -0.644531 C 1.304688 -0.644531 1.027344 -0.960938 0.992188 -1.4375 L 0.109375 -1.230469 C 0.199219 -0.449219 0.828125 0.109375 1.738281 0.109375 Z M 1.738281 0.109375 "/></g></g></g></svg>