<svg xmlns="http://www.w3.org/2000/svg" xmlns:xlink="http://www.w3.org/1999/xlink" width="500" zoomAndPan="magnify" viewBox="0 0 375 374.999991" height="500" preserveAspectRatio="xMidYMid meet" version="1.0"><defs><g/><clipPath id="d8316499f2"><path d="M 145.164062 190.617188 L 174.445312 190.617188 L 174.445312 202.285156 L 145.164062 202.285156 Z M 145.164062 190.617188 " clip-rule="nonzero"/></clipPath><clipPath id="312d821263"><path d="M 145.164062 149.742188 L 174.445312 149.742188 L 174.445312 167.871094 L 145.164062 167.871094 Z M 145.164062 149.742188 " clip-rule="nonzero"/></clipPath></defs><rect x="-37.5" width="450" fill="#ffffff" y="-37.499999" height="449.999989" fill-opacity="1"/><rect x="-37.5" width="450" fill="#ede3d8" y="-37.499999" height="449.999989" fill-opacity="1"/><g fill="#4d4b4b" fill-opacity="1"><g transform="translate(173.957599, 190.241238)"><g><path d="M 1.988281 -22.097656 C 2.210938 -20 2.292969 -18.757812 2.292969 -16.1875 L 2.292969 -5.910156 C 2.292969 -3.34375 2.183594 -2.097656 1.933594 0 L 16.078125 0 L 17.097656 -2.15625 C 13.425781 -0.773438 11.769531 -0.582031 8.894531 -0.582031 L 6.933594 -0.582031 L 6.933594 -16.1875 C 6.933594 -18.757812 7.015625 -20 7.238281 -22.097656 Z M 1.988281 -22.097656 "/></g></g></g><g fill="#4d4b4b" fill-opacity="1"><g transform="translate(193.177081, 190.241238)"><g><path d="M 1.933594 -22.097656 C 2.15625 -20 2.238281 -18.757812 2.238281 -16.1875 L 2.238281 -5.910156 C 2.238281 -3.34375 2.15625 -2.097656 1.933594 0 L 7.183594 0 C 6.960938 -2.097656 6.878906 -3.34375 6.878906 -5.910156 L 6.878906 -16.1875 C 6.878906 -18.757812 6.960938 -20 7.183594 -22.097656 Z M 1.933594 -22.097656 "/></g></g></g><g fill="#4d4b4b" fill-opacity="1"><g transform="translate(200.744468, 190.241238)"><g><path d="M 1.933594 -22.097656 C 2.183594 -20 2.265625 -18.757812 2.265625 -16.1875 L 2.265625 -5.910156 C 2.265625 -3.34375 2.183594 -2.097656 1.933594 0 L 16.546875 0 L 17.570312 -2.15625 C 13.867188 -0.773438 12.238281 -0.582031 9.335938 -0.582031 L 6.90625 -0.582031 L 6.90625 -11.355469 L 8.371094 -11.355469 C 9.835938 -11.355469 11.324219 -11.355469 13.894531 -11.078125 L 13.894531 -12.210938 C 11.324219 -11.933594 9.835938 -11.933594 8.371094 -11.933594 L 6.90625 -11.933594 L 6.90625 -21.519531 L 9.28125 -21.519531 C 10.828125 -21.519531 13.066406 -21.269531 15.359375 -19.863281 L 16.960938 -22.097656 Z M 1.933594 -22.097656 "/></g></g></g><g fill="#4d4b4b" fill-opacity="1"><g transform="translate(217.592056, 190.241238)"><g><path d="M 1.933594 0 L 3.039062 0 C 2.816406 -2.097656 2.734375 -3.34375 2.734375 -5.910156 L 2.734375 -20.855469 L 2.84375 -20.828125 L 14.390625 0 L 19.945312 0 C 19.75 -2.097656 19.667969 -3.34375 19.667969 -5.910156 L 19.667969 -16.1875 C 19.667969 -18.757812 19.75 -20 19.945312 -22.097656 L 18.867188 -22.097656 C 19.089844 -20 19.144531 -18.757812 19.144531 -16.1875 L 19.144531 -1.242188 L 19.03125 -1.269531 L 7.515625 -22.097656 L 1.933594 -22.097656 C 2.15625 -20 2.238281 -18.757812 2.238281 -16.1875 L 2.238281 -5.910156 C 2.238281 -3.34375 2.15625 -2.097656 1.933594 0 Z M 1.933594 0 "/></g></g></g><g fill="#4d4b4b" fill-opacity="1"><g transform="translate(145.040693, 199.636159)"><g><path d="M 14.722656 0.550781 C 22.183594 0.550781 27.816406 -3.867188 27.816406 -11.050781 C 27.816406 -18.203125 22.183594 -22.652344 14.722656 -22.652344 C 7.265625 -22.652344 1.65625 -18.203125 1.65625 -11.050781 C 1.65625 -3.867188 7.265625 0.550781 14.722656 0.550781 Z M 14.722656 -0.0273438 C 9.363281 -0.0273438 6.683594 -5.222656 6.683594 -11.050781 C 6.683594 -16.851562 9.363281 -22.070312 14.722656 -22.070312 C 20.082031 -22.070312 22.789062 -16.851562 22.789062 -11.050781 C 22.789062 -5.222656 20.082031 -0.0273438 14.722656 -0.0273438 Z M 14.722656 -0.0273438 "/></g></g></g><g clip-path="url(#d8316499f2)"><path fill="#ede3d8" d="M 145.164062 190.617188 L 174.445312 190.617188 L 174.445312 202.285156 L 145.164062 202.285156 Z M 145.164062 190.617188 " fill-opacity="1" fill-rule="nonzero"/></g><g fill="#4d4b4b" fill-opacity="1"><g transform="translate(145.040693, 172.74995)"><g><path d="M 14.722656 0.550781 C 22.183594 0.550781 27.816406 -3.867188 27.816406 -11.050781 C 27.816406 -18.203125 22.183594 -22.652344 14.722656 -22.652344 C 7.265625 -22.652344 1.65625 -18.203125 1.65625 -11.050781 C 1.65625 -3.867188 7.265625 0.550781 14.722656 0.550781 Z M 14.722656 -0.0273438 C 9.363281 -0.0273438 6.683594 -5.222656 6.683594 -11.050781 C 6.683594 -16.851562 9.363281 -22.070312 14.722656 -22.070312 C 20.082031 -22.070312 22.789062 -16.851562 22.789062 -11.050781 C 22.789062 -5.222656 20.082031 -0.0273438 14.722656 -0.0273438 Z M 14.722656 -0.0273438 "/></g></g></g><g clip-path="url(#312d821263)"><path fill="#ede3d8" d="M 145.164062 149.742188 L 174.445312 149.742188 L 174.445312 167.871094 L 145.164062 167.871094 Z M 145.164062 149.742188 " fill-opacity="1" fill-rule="nonzero"/></g><g fill="#4d4b4b" fill-opacity="1"><g transform="translate(136.037837, 190.241238)"><g><path d="M 2.957031 -22.097656 C 3.175781 -20 3.257812 -18.757812 3.257812 -16.1875 L 3.257812 0.609375 C 3.257812 3.785156 2.707031 4.667969 0.550781 5.691406 L 0.691406 6.078125 C 4.144531 5.691406 7.902344 4.640625 7.902344 -0.496094 L 7.902344 -16.1875 C 7.902344 -18.757812 7.984375 -20 8.203125 -22.097656 Z M 2.957031 -22.097656 "/></g></g></g><g fill="#4d4b4b" fill-opacity="1"><g transform="translate(169.94173, 204.890609)"><g><path d="M 2.21875 0.105469 C 2.71875 0.105469 3.179688 -0.0078125 3.5 -0.230469 C 3.464844 -0.402344 3.351562 -0.6875 3.242188 -0.859375 C 2.996094 -0.695312 2.671875 -0.605469 2.335938 -0.605469 C 1.492188 -0.605469 1.074219 -1.164062 1.074219 -2.015625 C 1.074219 -2.613281 1.21875 -2.980469 1.390625 -3.253906 C 1.613281 -3.359375 1.902344 -3.417969 2.234375 -3.417969 C 2.574219 -3.417969 2.90625 -3.34375 3.1875 -3.179688 C 3.332031 -3.359375 3.433594 -3.613281 3.472656 -3.84375 C 3.164062 -4.039062 2.753906 -4.136719 2.277344 -4.136719 C 0.992188 -4.136719 0.230469 -3.359375 0.230469 -2.015625 C 0.230469 -0.785156 0.886719 0.105469 2.21875 0.105469 Z M 2.21875 0.105469 "/></g></g></g><g fill="#4d4b4b" fill-opacity="1"><g transform="translate(174.696057, 204.890609)"><g><path d="M 0.441406 0.0234375 C 0.777344 0.0664062 1.097656 0.03125 1.21875 -0.0234375 L 1.21875 -1.597656 L 1.648438 -1.597656 L 2.761719 0.03125 C 2.980469 0.0429688 3.390625 -0.0078125 3.636719 -0.0976562 L 2.441406 -1.726562 C 3.0625 -1.882812 3.390625 -2.261719 3.390625 -2.851562 C 3.390625 -3.652344 2.800781 -4.105469 1.8125 -4.105469 C 1.269531 -4.105469 0.746094 -4.046875 0.378906 -3.957031 C 0.417969 -2.507812 0.433594 -1.203125 0.441406 0.0234375 Z M 1.21875 -2.238281 L 1.21875 -3.40625 C 1.21875 -3.40625 1.417969 -3.425781 1.726562 -3.425781 C 2.253906 -3.425781 2.5625 -3.226562 2.5625 -2.835938 C 2.5625 -2.613281 2.515625 -2.464844 2.417969 -2.34375 C 2.269531 -2.277344 2.0625 -2.238281 1.8125 -2.238281 Z M 1.21875 -2.238281 "/></g></g></g><g fill="#4d4b4b" fill-opacity="1"><g transform="translate(179.480226, 204.890609)"><g><path d="M 0.441406 0 L 3.195312 0 C 3.242188 -0.1875 3.242188 -0.492188 3.195312 -0.679688 L 1.21875 -0.679688 L 1.21875 -1.695312 L 2.882812 -1.695312 C 2.917969 -1.882812 2.917969 -2.171875 2.882812 -2.359375 L 1.21875 -2.359375 L 1.21875 -3.34375 L 3.128906 -3.34375 C 3.171875 -3.539062 3.171875 -3.84375 3.128906 -4.03125 L 1.320312 -4.03125 C 0.867188 -4.03125 0.621094 -4.003906 0.378906 -3.925781 C 0.417969 -2.515625 0.433594 -1.203125 0.441406 0 Z M 0.441406 0 "/></g></g></g><g fill="#4d4b4b" fill-opacity="1"><g transform="translate(184.018157, 204.890609)"><g><path d="M 2.523438 -4.023438 C 2.226562 -4.070312 1.738281 -4.070312 1.449219 -4.023438 L 0.0742188 -0.0742188 C 0.304688 0.0234375 0.628906 0.0820312 0.859375 0.0664062 L 1.1875 -0.949219 L 2.734375 -0.949219 L 3.070312 0.0664062 C 3.308594 0.0820312 3.660156 0.0234375 3.890625 -0.0742188 Z M 1.390625 -1.597656 L 1.949219 -3.332031 L 2.515625 -1.597656 Z M 1.390625 -1.597656 "/></g></g></g><g fill="#4d4b4b" fill-opacity="1"><g transform="translate(189.10081, 204.890609)"><g><path d="M 1.425781 0.0234375 C 1.761719 0.0664062 2.082031 0.03125 2.203125 -0.0234375 L 2.203125 -3.34375 L 3.441406 -3.34375 C 3.488281 -3.539062 3.488281 -3.84375 3.441406 -4.03125 L 0.140625 -4.03125 C 0.0976562 -3.84375 0.0976562 -3.539062 0.140625 -3.34375 L 1.382812 -3.34375 C 1.402344 -2.390625 1.417969 -1.066406 1.425781 0.0234375 Z M 1.425781 0.0234375 "/></g></g></g><g fill="#4d4b4b" fill-opacity="1"><g transform="translate(193.802905, 204.890609)"><g><path d="M 0.441406 0.0234375 C 0.777344 0.0664062 1.097656 0.03125 1.21875 -0.0234375 L 1.21875 -4.070312 C 0.949219 -4.085938 0.640625 -4.039062 0.378906 -3.941406 C 0.417969 -2.515625 0.433594 -1.203125 0.441406 0.0234375 Z M 0.441406 0.0234375 "/></g></g></g><g fill="#4d4b4b" fill-opacity="1"><g transform="translate(196.54997, 204.890609)"><g><path d="M 3.105469 -4.070312 L 2.023438 -0.820312 L 0.894531 -4.070312 C 0.65625 -4.085938 0.304688 -4.023438 0.0742188 -3.925781 L 1.484375 -0.015625 C 1.761719 0.03125 2.203125 0.03125 2.480469 -0.015625 L 3.890625 -3.925781 C 3.660156 -4.023438 3.335938 -4.085938 3.105469 -4.070312 Z M 3.105469 -4.070312 "/></g></g></g><g fill="#4d4b4b" fill-opacity="1"><g transform="translate(201.632623, 204.890609)"><g><path d="M 0.441406 0 L 3.195312 0 C 3.242188 -0.1875 3.242188 -0.492188 3.195312 -0.679688 L 1.21875 -0.679688 L 1.21875 -1.695312 L 2.882812 -1.695312 C 2.917969 -1.882812 2.917969 -2.171875 2.882812 -2.359375 L 1.21875 -2.359375 L 1.21875 -3.34375 L 3.128906 -3.34375 C 3.171875 -3.539062 3.171875 -3.84375 3.128906 -4.03125 L 1.320312 -4.03125 C 0.867188 -4.03125 0.621094 -4.003906 0.378906 -3.925781 C 0.417969 -2.515625 0.433594 -1.203125 0.441406 0 Z M 0.441406 0 "/></g></g></g><g fill="#4d4b4b" fill-opacity="1"><g transform="translate(166.332661, 211.824355)"><g><path d="M 0.441406 0 L 1.875 0 C 3.25 0 3.964844 -0.710938 3.964844 -2.039062 C 3.964844 -3.390625 3.226562 -4.105469 1.8125 -4.105469 C 1.269531 -4.105469 0.746094 -4.046875 0.378906 -3.957031 C 0.417969 -2.53125 0.433594 -1.203125 0.441406 0 Z M 1.21875 -0.679688 L 1.21875 -3.40625 C 1.21875 -3.40625 1.457031 -3.425781 1.785156 -3.425781 C 2.671875 -3.425781 3.121094 -2.949219 3.121094 -2.039062 C 3.121094 -1.539062 3.023438 -1.15625 2.808594 -0.835938 C 2.589844 -0.738281 2.292969 -0.679688 1.925781 -0.679688 Z M 1.21875 -0.679688 "/></g></g></g><g fill="#4d4b4b" fill-opacity="1"><g transform="translate(171.646633, 211.824355)"><g><path d="M 0.441406 0 L 3.195312 0 C 3.242188 -0.1875 3.242188 -0.492188 3.195312 -0.679688 L 1.21875 -0.679688 L 1.21875 -1.695312 L 2.882812 -1.695312 C 2.917969 -1.882812 2.917969 -2.171875 2.882812 -2.359375 L 1.21875 -2.359375 L 1.21875 -3.34375 L 3.128906 -3.34375 C 3.171875 -3.539062 3.171875 -3.84375 3.128906 -4.03125 L 1.320312 -4.03125 C 0.867188 -4.03125 0.621094 -4.003906 0.378906 -3.925781 C 0.417969 -2.515625 0.433594 -1.203125 0.441406 0 Z M 0.441406 0 "/></g></g></g><g fill="#4d4b4b" fill-opacity="1"><g transform="translate(176.184564, 211.824355)"><g><path d="M 3.105469 -4.070312 L 2.023438 -0.820312 L 0.894531 -4.070312 C 0.65625 -4.085938 0.304688 -4.023438 0.0742188 -3.925781 L 1.484375 -0.015625 C 1.761719 0.03125 2.203125 0.03125 2.480469 -0.015625 L 3.890625 -3.925781 C 3.660156 -4.023438 3.335938 -4.085938 3.105469 -4.070312 Z M 3.105469 -4.070312 "/></g></g></g><g fill="#4d4b4b" fill-opacity="1"><g transform="translate(181.267216, 211.824355)"><g><path d="M 0.441406 0 L 3.195312 0 C 3.242188 -0.1875 3.242188 -0.492188 3.195312 -0.679688 L 1.21875 -0.679688 L 1.21875 -1.695312 L 2.882812 -1.695312 C 2.917969 -1.882812 2.917969 -2.171875 2.882812 -2.359375 L 1.21875 -2.359375 L 1.21875 -3.34375 L 3.128906 -3.34375 C 3.171875 -3.539062 3.171875 -3.84375 3.128906 -4.03125 L 1.320312 -4.03125 C 0.867188 -4.03125 0.621094 -4.003906 0.378906 -3.925781 C 0.417969 -2.515625 0.433594 -1.203125 0.441406 0 Z M 0.441406 0 "/></g></g></g><g fill="#4d4b4b" fill-opacity="1"><g transform="translate(185.805148, 211.824355)"><g><path d="M 0.441406 0 L 3.015625 0 C 3.054688 -0.1875 3.054688 -0.492188 3.015625 -0.679688 L 1.21875 -0.679688 L 1.21875 -4.070312 C 0.949219 -4.085938 0.640625 -4.039062 0.378906 -3.941406 C 0.417969 -2.515625 0.433594 -1.203125 0.441406 0 Z M 0.441406 0 "/></g></g></g><g fill="#4d4b4b" fill-opacity="1"><g transform="translate(190.081912, 211.824355)"><g><path d="M 2.277344 0.105469 C 3.5625 0.105469 4.324219 -0.671875 4.324219 -2.015625 C 4.324219 -3.25 3.660156 -4.136719 2.277344 -4.136719 C 0.992188 -4.136719 0.230469 -3.359375 0.230469 -2.015625 C 0.230469 -0.785156 0.886719 0.105469 2.277344 0.105469 Z M 2.375 -0.574219 C 1.566406 -0.574219 1.074219 -1.113281 1.074219 -2.015625 C 1.074219 -2.589844 1.21875 -2.988281 1.394531 -3.285156 C 1.621094 -3.398438 1.882812 -3.457031 2.179688 -3.457031 C 2.988281 -3.457031 3.480469 -2.917969 3.480469 -2.015625 C 3.480469 -1.441406 3.332031 -1.046875 3.152344 -0.746094 C 2.925781 -0.632812 2.664062 -0.574219 2.375 -0.574219 Z M 2.375 -0.574219 "/></g></g></g><g fill="#4d4b4b" fill-opacity="1"><g transform="translate(195.754052, 211.824355)"><g><path d="M 0.441406 0.0234375 C 0.777344 0.0664062 1.097656 0.03125 1.21875 -0.0234375 L 1.21875 -1.441406 L 1.726562 -1.441406 C 2.835938 -1.441406 3.417969 -1.890625 3.417969 -2.785156 C 3.417969 -3.652344 2.851562 -4.105469 1.8125 -4.105469 C 1.269531 -4.105469 0.746094 -4.046875 0.378906 -3.957031 C 0.417969 -2.507812 0.433594 -1.203125 0.441406 0.0234375 Z M 1.21875 -2.097656 L 1.21875 -3.40625 C 1.21875 -3.40625 1.417969 -3.425781 1.710938 -3.425781 C 2.261719 -3.425781 2.574219 -3.203125 2.574219 -2.769531 C 2.574219 -2.515625 2.53125 -2.34375 2.410156 -2.203125 C 2.261719 -2.136719 2.046875 -2.097656 1.785156 -2.097656 Z M 1.21875 -2.097656 "/></g></g></g><g fill="#4d4b4b" fill-opacity="1"><g transform="translate(200.448682, 211.824355)"><g><path d="M 0.441406 0 L 3.195312 0 C 3.242188 -0.1875 3.242188 -0.492188 3.195312 -0.679688 L 1.21875 -0.679688 L 1.21875 -1.695312 L 2.882812 -1.695312 C 2.917969 -1.882812 2.917969 -2.171875 2.882812 -2.359375 L 1.21875 -2.359375 L 1.21875 -3.34375 L 3.128906 -3.34375 C 3.171875 -3.539062 3.171875 -3.84375 3.128906 -4.03125 L 1.320312 -4.03125 C 0.867188 -4.03125 0.621094 -4.003906 0.378906 -3.925781 C 0.417969 -2.515625 0.433594 -1.203125 0.441406 0 Z M 0.441406 0 "/></g></g></g><g fill="#4d4b4b" fill-opacity="1"><g transform="translate(204.986614, 211.824355)"><g><path d="M 0.441406 0.0234375 C 0.777344 0.0664062 1.097656 0.03125 1.21875 -0.0234375 L 1.21875 -1.597656 L 1.648438 -1.597656 L 2.761719 0.03125 C 2.980469 0.0429688 3.390625 -0.0078125 3.636719 -0.0976562 L 2.441406 -1.726562 C 3.0625 -1.882812 3.390625 -2.261719 3.390625 -2.851562 C 3.390625 -3.652344 2.800781 -4.105469 1.8125 -4.105469 C 1.269531 -4.105469 0.746094 -4.046875 0.378906 -3.957031 C 0.417969 -2.507812 0.433594 -1.203125 0.441406 0.0234375 Z M 1.21875 -2.238281 L 1.21875 -3.40625 C 1.21875 -3.40625 1.417969 -3.425781 1.726562 -3.425781 C 2.253906 -3.425781 2.5625 -3.226562 2.5625 -2.835938 C 2.5625 -2.613281 2.515625 -2.464844 2.417969 -2.34375 C 2.269531 -2.277344 2.0625 -2.238281 1.8125 -2.238281 Z M 1.21875 -2.238281 "/></g></g></g></svg>