<svg xmlns="http://www.w3.org/2000/svg" xmlns:xlink="http://www.w3.org/1999/xlink" width="500" zoomAndPan="magnify" viewBox="0 0 375 374.999991" height="500" preserveAspectRatio="xMidYMid meet" version="1.0"><defs><g/><clipPath id="04dd03f438"><path d="M 133.425781 198.324219 L 191 198.324219 L 191 201.324219 L 133.425781 201.324219 Z M 133.425781 198.324219 " clip-rule="nonzero"/></clipPath></defs><rect x="-37.5" width="450" fill="#ffffff" y="-37.499999" height="449.999989" fill-opacity="1"/><rect x="-37.5" width="450" fill="#f4f4f0" y="-37.499999" height="449.999989" fill-opacity="1"/><g fill="#3f3c39" fill-opacity="1"><g transform="translate(135.282372, 195.018854)"><g><path d="M -0.996094 1.871094 C 1.011719 1.871094 2.882812 -0.0625 2.882812 -3.054688 L 2.882812 -8.929688 C 2.882812 -10.207031 3.023438 -10.566406 3.507812 -10.707031 L 3.507812 -10.910156 L 0.996094 -10.910156 L 0.996094 -10.707031 C 1.480469 -10.566406 1.621094 -10.207031 1.621094 -8.929688 L 1.621094 -1.152344 C 1.621094 0.421875 1.167969 0.808594 0.792969 1.042969 C 0.046875 0.886719 -0.328125 0.808594 -0.761719 0.808594 C -1.308594 0.808594 -1.621094 1.199219 -1.621094 1.527344 C -1.621094 1.824219 -1.402344 1.871094 -0.996094 1.871094 Z M -0.996094 1.871094 "/></g></g></g><g fill="#3f3c39" fill-opacity="1"><g transform="translate(141.656063, 195.018854)"><g><path d="M 5.625 0.15625 C 7.792969 0.15625 9.507812 -1.027344 9.507812 -4.160156 L 9.507812 -8.929688 C 9.507812 -10.207031 9.664062 -10.566406 10.128906 -10.707031 L 10.128906 -10.910156 L 8.195312 -10.910156 L 8.195312 -10.707031 C 8.882812 -10.519531 9.257812 -10.082031 9.257812 -8.304688 L 9.257812 -4.113281 C 9.257812 -1.058594 7.464844 -0.171875 6.125 -0.171875 C 4.097656 -0.171875 2.492188 -1.214844 2.492188 -4.113281 L 2.492188 -8.929688 C 2.492188 -10.207031 2.648438 -10.566406 3.117188 -10.707031 L 3.117188 -10.910156 L 0.59375 -10.910156 L 0.59375 -10.707031 C 1.074219 -10.566406 1.214844 -10.207031 1.214844 -8.929688 L 1.214844 -4.019531 C 1.214844 -0.886719 3.398438 0.15625 5.625 0.15625 Z M 5.625 0.15625 "/></g></g></g><g fill="#3f3c39" fill-opacity="1"><g transform="translate(154.309701, 195.018854)"><g><path d="M 0.792969 0 L 8.042969 0 L 8.152344 -1.761719 L 7.980469 -1.792969 C 7.433594 -0.625 6.746094 -0.25 5.25 -0.25 L 3.398438 -0.25 C 2.945312 -0.25 2.695312 -0.5 2.695312 -0.949219 L 2.695312 -8.929688 C 2.695312 -10.207031 2.835938 -10.566406 3.320312 -10.707031 L 3.320312 -10.910156 L 0.792969 -10.910156 L 0.792969 -10.707031 C 1.261719 -10.566406 1.417969 -10.207031 1.417969 -8.929688 L 1.417969 -1.980469 C 1.417969 -0.703125 1.261719 -0.34375 0.792969 -0.203125 Z M 0.792969 0 "/></g></g></g><g fill="#3f3c39" fill-opacity="1"><g transform="translate(164.84405, 195.018854)"><g><path d="M 0.792969 0 L 3.320312 0 L 3.320312 -0.203125 C 2.835938 -0.34375 2.695312 -0.703125 2.695312 -1.980469 L 2.695312 -8.929688 C 2.695312 -10.207031 2.835938 -10.566406 3.320312 -10.707031 L 3.320312 -10.910156 L 0.792969 -10.910156 L 0.792969 -10.707031 C 1.261719 -10.566406 1.417969 -10.207031 1.417969 -8.929688 L 1.417969 -1.980469 C 1.417969 -0.703125 1.261719 -0.34375 0.792969 -0.203125 Z M 0.792969 0 "/></g></g></g><g fill="#3f3c39" fill-opacity="1"><g transform="translate(171.030744, 195.018854)"><g><path d="M 0.792969 0 L 8.476562 0 L 8.601562 -2.074219 L 8.429688 -2.105469 C 7.871094 -0.65625 6.917969 -0.234375 5.421875 -0.234375 L 3.398438 -0.234375 C 2.945312 -0.234375 2.695312 -0.484375 2.695312 -0.933594 L 2.695312 -5.71875 L 4.691406 -5.71875 C 6.46875 -5.71875 6.917969 -5.359375 7.105469 -4.660156 L 7.292969 -4.660156 L 7.292969 -7.011719 L 7.105469 -7.011719 C 6.917969 -6.3125 6.46875 -5.953125 4.691406 -5.953125 L 2.695312 -5.953125 L 2.695312 -10.675781 L 4.988281 -10.675781 C 6.578125 -10.675781 7.496094 -10.207031 8.042969 -8.835938 L 8.210938 -8.882812 L 8.042969 -10.910156 L 0.792969 -10.910156 L 0.792969 -10.707031 C 1.261719 -10.566406 1.417969 -10.207031 1.417969 -8.929688 L 1.417969 -1.980469 C 1.417969 -0.703125 1.261719 -0.34375 0.792969 -0.203125 Z M 0.792969 0 "/></g></g></g><g fill="#3f3c39" fill-opacity="1"><g transform="translate(182.281913, 195.018854)"><g><path d="M 9.023438 0.125 L 9.226562 0.125 L 9.226562 -8.929688 C 9.226562 -10.207031 9.367188 -10.566406 9.847656 -10.707031 L 9.847656 -10.910156 L 7.886719 -10.910156 L 7.886719 -10.707031 C 8.585938 -10.519531 8.960938 -10.082031 8.960938 -8.304688 L 8.960938 -2.089844 L 2.152344 -10.910156 L 0.625 -10.910156 L 0.625 -10.707031 C 1.246094 -10.566406 1.433594 -10.207031 1.433594 -8.929688 L 1.433594 -1.980469 C 1.433594 -0.703125 1.277344 -0.34375 0.808594 -0.203125 L 0.808594 0 L 2.757812 0 L 2.757812 -0.203125 C 2.058594 -0.390625 1.683594 -0.824219 1.683594 -2.601562 L 1.683594 -9.429688 Z M 9.023438 0.125 "/></g></g></g><g fill="#3f3c39" fill-opacity="1"><g transform="translate(187.196775, 160.324442)"><g><path d="M -1.140625 -4.515625 L -2.21875 -2.828125 L -1.25 -2.21875 L -0.28125 -3.75 L 0.21875 -3.421875 L -0.75 -1.890625 L 0.640625 -1.015625 L 0.28125 -0.453125 L -3.09375 -2.59375 L -1.65625 -4.84375 Z M -1.140625 -4.515625 "/></g></g></g><g fill="#3f3c39" fill-opacity="1"><g transform="translate(189.701874, 156.535474)"><g><path d="M 2.140625 -2.1875 L 0.765625 -2.5 C 0.734375 -2.476562 0.691406 -2.4375 0.640625 -2.375 L -0.015625 -1.703125 L 0.84375 -0.859375 L 0.375 -0.375 L -2.484375 -3.171875 L -1.359375 -4.328125 C -1.003906 -4.691406 -0.640625 -4.890625 -0.265625 -4.921875 C 0.0976562 -4.953125 0.4375 -4.816406 0.75 -4.515625 C 0.96875 -4.296875 1.109375 -4.054688 1.171875 -3.796875 C 1.234375 -3.535156 1.207031 -3.273438 1.09375 -3.015625 L 2.671875 -2.734375 Z M -0.453125 -2.125 L 0.203125 -2.796875 C 0.648438 -3.253906 0.6875 -3.671875 0.3125 -4.046875 C -0.0625 -4.410156 -0.472656 -4.363281 -0.921875 -3.90625 L -1.578125 -3.234375 Z M -0.453125 -2.125 "/></g></g></g><g fill="#3f3c39" fill-opacity="1"><g transform="translate(193.521599, 152.798224)"><g><path d="M -1.140625 -3.328125 C -0.992188 -3.878906 -0.664062 -4.3125 -0.15625 -4.625 C 0.34375 -4.945312 0.863281 -5.050781 1.40625 -4.9375 C 1.957031 -4.820312 2.382812 -4.519531 2.6875 -4.03125 C 2.988281 -3.550781 3.070312 -3.035156 2.9375 -2.484375 C 2.800781 -1.941406 2.476562 -1.507812 1.96875 -1.1875 C 1.46875 -0.875 0.9375 -0.773438 0.375 -0.890625 C -0.175781 -1.003906 -0.601562 -1.300781 -0.90625 -1.78125 C -1.207031 -2.269531 -1.285156 -2.785156 -1.140625 -3.328125 Z M 0.140625 -4.125 C -0.191406 -3.90625 -0.40625 -3.609375 -0.5 -3.234375 C -0.59375 -2.859375 -0.535156 -2.5 -0.328125 -2.15625 C -0.117188 -1.820312 0.175781 -1.613281 0.5625 -1.53125 C 0.957031 -1.445312 1.320312 -1.507812 1.65625 -1.71875 C 1.988281 -1.925781 2.195312 -2.21875 2.28125 -2.59375 C 2.375 -2.976562 2.316406 -3.335938 2.109375 -3.671875 C 1.898438 -4.015625 1.601562 -4.226562 1.21875 -4.3125 C 0.84375 -4.394531 0.484375 -4.332031 0.140625 -4.125 Z M 0.140625 -4.125 "/></g></g></g><g fill="#3f3c39" fill-opacity="1"><g transform="translate(198.538863, 149.836803)"><g><path d="M 3.78125 -1.234375 L 3.171875 -1.03125 L 0.25 -3.09375 L 1.140625 -0.375 L 0.5 -0.171875 L -0.734375 -3.96875 L -0.109375 -4.171875 L 2.828125 -2.09375 L 1.9375 -4.828125 L 2.546875 -5.03125 Z M 3.78125 -1.234375 "/></g></g></g><g fill="#3f3c39" fill-opacity="1"><g transform="translate(204.07485, 148.243935)"><g><path d="M 2.90625 -3.6875 L 1.640625 -3.5625 L 1.96875 -0.1875 L 1.3125 -0.125 L 0.984375 -3.5 L -0.28125 -3.375 L -0.34375 -3.984375 L 2.84375 -4.296875 Z M 2.90625 -3.6875 "/></g></g></g><g fill="#3f3c39" fill-opacity="1"><g transform="translate(208.69298, 147.961754)"><g><path d="M 1.859375 -1.390625 L 0.453125 -1.484375 L 0.484375 -1.9375 L 1.890625 -1.84375 Z M 1.859375 -1.390625 "/></g></g></g><g fill="#3f3c39" fill-opacity="1"><g transform="translate(212.096157, 148.25854)"><g><path d="M 4.109375 -2.4375 L 2.015625 -2.984375 L 1.75 -1.9375 L 3.625 -1.453125 L 3.46875 -0.875 L 1.59375 -1.359375 L 1.328125 -0.296875 L 3.484375 0.265625 L 3.328125 0.859375 L 0.515625 0.140625 L 1.515625 -3.734375 L 4.265625 -3.03125 Z M 4.109375 -2.4375 "/></g></g></g><g fill="#3f3c39" fill-opacity="1"><g transform="translate(216.890074, 149.601379)"><g><path d="M 3.53125 1.84375 L 2.953125 1.53125 L 2.390625 -1.96875 L 1.0625 0.5625 L 0.46875 0.25 L 2.3125 -3.296875 L 2.890625 -3 L 3.46875 0.53125 L 4.796875 -2.015625 L 5.375 -1.703125 Z M 3.53125 1.84375 "/></g></g></g><g fill="#3f3c39" fill-opacity="1"><g transform="translate(221.898216, 152.383522)"><g><path d="M 3.046875 -2.65625 L 4.265625 -1.578125 C 4.710938 -1.179688 4.957031 -0.710938 5 -0.171875 C 5.039062 0.367188 4.867188 0.851562 4.484375 1.28125 C 4.109375 1.71875 3.644531 1.945312 3.09375 1.96875 C 2.550781 2 2.054688 1.8125 1.609375 1.40625 L 0.40625 0.34375 Z M 3.140625 -1.75 L 1.3125 0.34375 L 2.03125 0.984375 C 2.332031 1.242188 2.664062 1.359375 3.03125 1.328125 C 3.394531 1.304688 3.707031 1.144531 3.96875 0.84375 C 4.238281 0.539062 4.359375 0.203125 4.328125 -0.171875 C 4.304688 -0.546875 4.148438 -0.863281 3.859375 -1.125 Z M 3.140625 -1.75 "/></g></g></g><g fill="#3f3c39" fill-opacity="1"><g transform="translate(226.027789, 156.346947)"><g/></g></g><g fill="#3f3c39" fill-opacity="1"><g transform="translate(227.771014, 158.527161)"><g><path d="M 3.78125 -1.40625 L 4.546875 0.03125 C 4.828125 0.5625 4.890625 1.082031 4.734375 1.59375 C 4.585938 2.113281 4.257812 2.507812 3.75 2.78125 C 3.238281 3.050781 2.722656 3.101562 2.203125 2.9375 C 1.691406 2.769531 1.289062 2.421875 1 1.890625 L 0.25 0.46875 Z M 3.5625 -0.53125 L 1.09375 0.78125 L 1.546875 1.640625 C 1.734375 1.984375 2.003906 2.207031 2.359375 2.3125 C 2.722656 2.414062 3.082031 2.375 3.4375 2.1875 C 3.789062 2 4.019531 1.722656 4.125 1.359375 C 4.238281 1.003906 4.203125 0.65625 4.015625 0.3125 Z M 3.5625 -0.53125 "/></g></g></g><g fill="#3f3c39" fill-opacity="1"><g transform="translate(230.26778, 163.59975)"><g><path d="M 4.15625 2.375 L 3.59375 0.265625 L 2.546875 0.546875 L 3.046875 2.421875 L 2.453125 2.59375 L 1.953125 0.71875 L 0.90625 1 L 1.484375 3.15625 L 0.890625 3.3125 L 0.140625 0.515625 L 4 -0.53125 L 4.734375 2.21875 Z M 4.15625 2.375 "/></g></g></g><g fill="#3f3c39" fill-opacity="1"><g transform="translate(231.448302, 168.452598)"><g><path d="M 0.109375 2.296875 L 0.078125 1.609375 L 4 -0.171875 L 4.03125 0.546875 L 0.84375 1.9375 L 4.15625 3.03125 L 4.1875 3.734375 Z M 0.109375 2.296875 "/></g></g></g><g fill="#3f3c39" fill-opacity="1"><g transform="translate(231.552189, 173.638118)"><g><path d="M 2.78125 3.890625 L 3.140625 1.75 L 2.078125 1.578125 L 1.75 3.484375 L 1.140625 3.375 L 1.46875 1.46875 L 0.390625 1.296875 L 0.015625 3.5 L -0.578125 3.390625 L -0.09375 0.53125 L 3.84375 1.203125 L 3.375 4 Z M 2.78125 3.890625 "/></g></g></g><g fill="#3f3c39" fill-opacity="1"><g transform="translate(230.558818, 178.558172)"><g><path d="M 0.125 1.34375 L -0.484375 2.953125 L -1.046875 2.734375 L -0.1875 0.5 L 3.546875 1.9375 L 3.296875 2.5625 Z M 0.125 1.34375 "/></g></g></g><g fill="#3f3c39" fill-opacity="1"><g transform="translate(228.972809, 182.56049)"><g><path d="M 2.421875 2.546875 C 2.523438 3.109375 2.410156 3.632812 2.078125 4.125 C 1.753906 4.625 1.320312 4.9375 0.78125 5.0625 C 0.238281 5.195312 -0.269531 5.109375 -0.75 4.796875 C -1.226562 4.484375 -1.519531 4.046875 -1.625 3.484375 C -1.738281 2.929688 -1.628906 2.40625 -1.296875 1.90625 C -0.972656 1.414062 -0.535156 1.101562 0.015625 0.96875 C 0.566406 0.84375 1.082031 0.9375 1.5625 1.25 C 2.039062 1.5625 2.328125 1.992188 2.421875 2.546875 Z M 1.578125 3.8125 C 1.796875 3.476562 1.867188 3.117188 1.796875 2.734375 C 1.722656 2.347656 1.519531 2.046875 1.1875 1.828125 C 0.851562 1.609375 0.492188 1.539062 0.109375 1.625 C -0.273438 1.71875 -0.570312 1.925781 -0.78125 2.25 C -1 2.570312 -1.066406 2.925781 -0.984375 3.3125 C -0.910156 3.695312 -0.707031 4 -0.375 4.21875 C -0.0390625 4.4375 0.3125 4.503906 0.6875 4.421875 C 1.0625 4.335938 1.359375 4.132812 1.578125 3.8125 Z M 1.578125 3.8125 "/></g></g></g><g fill="#3f3c39" fill-opacity="1"><g transform="translate(225.607593, 187.339964)"><g><path d="M 2.359375 3.265625 L 1.21875 4.359375 C 0.84375 4.710938 0.472656 4.894531 0.109375 4.90625 C -0.253906 4.914062 -0.582031 4.765625 -0.875 4.453125 C -1.1875 4.128906 -1.328125 3.78125 -1.296875 3.40625 C -1.273438 3.039062 -1.078125 2.679688 -0.703125 2.328125 L -0.046875 1.703125 L -0.875 0.828125 L -0.390625 0.359375 Z M 1.453125 3.28125 L 0.375 2.140625 L -0.265625 2.75 C -0.734375 3.1875 -0.785156 3.597656 -0.421875 3.984375 C -0.0664062 4.359375 0.34375 4.328125 0.8125 3.890625 Z M 1.453125 3.28125 "/></g></g></g><g fill="#3f3c39" fill-opacity="1"><g transform="translate(221.817171, 190.741667)"><g><path d="M -1.140625 4.65625 L 0.71875 3.53125 L 0.171875 2.609375 L -1.484375 3.609375 L -1.796875 3.078125 L -0.140625 2.078125 L -0.71875 1.140625 L -2.625 2.296875 L -2.9375 1.78125 L -0.453125 0.28125 L 1.625 3.703125 L -0.8125 5.171875 Z M -1.140625 4.65625 "/></g></g></g><g fill="#3f3c39" fill-opacity="1"><g transform="translate(217.49503, 193.229428)"><g><path d="M -2.90625 0.984375 L -1.8125 1.890625 C -1.769531 1.867188 -1.710938 1.847656 -1.640625 1.828125 L -0.75 1.53125 L -1.140625 0.390625 L -0.5 0.171875 L 0.78125 3.96875 L -0.75 4.484375 C -1.226562 4.648438 -1.640625 4.660156 -1.984375 4.515625 C -2.328125 4.378906 -2.566406 4.101562 -2.703125 3.6875 C -2.804688 3.394531 -2.828125 3.117188 -2.765625 2.859375 C -2.710938 2.597656 -2.570312 2.378906 -2.34375 2.203125 L -3.625 1.21875 Z M -0.5625 2.109375 L -1.453125 2.40625 C -2.066406 2.613281 -2.289062 2.96875 -2.125 3.46875 C -1.957031 3.96875 -1.566406 4.113281 -0.953125 3.90625 L -0.0625 3.609375 Z M -0.5625 2.109375 "/></g></g></g><g fill="#3f3c39" fill-opacity="1"><g transform="translate(135.282372, 176.622058)"><g><path d="M 0.796875 0 L 4.882812 0 C 8.316406 0 10.53125 -2.371094 10.515625 -5.664062 C 10.5 -8.191406 8.816406 -10.921875 4.523438 -10.921875 L 0.796875 -10.921875 L 0.796875 -10.71875 C 1.265625 -10.578125 1.417969 -10.21875 1.417969 -8.9375 L 1.417969 -1.980469 C 1.417969 -0.703125 1.265625 -0.34375 0.796875 -0.203125 Z M 2.699219 -1.371094 L 2.699219 -10.6875 L 3.761719 -10.6875 C 7.238281 -10.6875 9.09375 -8.160156 9.09375 -5.039062 C 9.09375 -1.777344 7.582031 -0.234375 4.851562 -0.234375 L 3.714844 -0.234375 C 2.855469 -0.234375 2.699219 -0.640625 2.699219 -1.371094 Z M 2.699219 -1.371094 "/></g></g></g><g fill="#3f3c39" fill-opacity="1"><g transform="translate(148.664907, 176.622058)"><g><path d="M 5.632812 0.15625 C 7.800781 0.15625 9.515625 -1.03125 9.515625 -4.164062 L 9.515625 -8.9375 C 9.515625 -10.21875 9.671875 -10.578125 10.140625 -10.71875 L 10.140625 -10.921875 L 8.207031 -10.921875 L 8.207031 -10.71875 C 8.890625 -10.53125 9.265625 -10.09375 9.265625 -8.316406 L 9.265625 -4.117188 C 9.265625 -1.0625 7.472656 -0.171875 6.132812 -0.171875 C 4.101562 -0.171875 2.496094 -1.21875 2.496094 -4.117188 L 2.496094 -8.9375 C 2.496094 -10.21875 2.652344 -10.578125 3.121094 -10.71875 L 3.121094 -10.921875 L 0.59375 -10.921875 L 0.59375 -10.71875 C 1.078125 -10.578125 1.21875 -10.21875 1.21875 -8.9375 L 1.21875 -4.023438 C 1.21875 -0.890625 3.402344 0.15625 5.632812 0.15625 Z M 5.632812 0.15625 "/></g></g></g><g fill="#3f3c39" fill-opacity="1"><g transform="translate(161.330017, 176.622058)"><g><path d="M 3.105469 0 L 5.648438 0 L 5.648438 -0.203125 C 5.164062 -0.34375 5.023438 -0.703125 5.023438 -1.980469 L 5.023438 -10.671875 L 5.757812 -10.671875 C 7.160156 -10.671875 7.769531 -10.296875 8.300781 -9.171875 L 8.472656 -9.203125 L 8.378906 -10.921875 L 0.34375 -10.921875 L 0.25 -9.203125 L 0.421875 -9.171875 C 0.953125 -10.296875 1.558594 -10.671875 2.964844 -10.671875 L 3.730469 -10.671875 L 3.730469 -1.980469 C 3.730469 -0.703125 3.589844 -0.34375 3.105469 -0.203125 Z M 3.105469 0 "/></g></g></g><g fill="#3f3c39" fill-opacity="1"><g transform="translate(172.139189, 176.622058)"><g><path d="M 8.738281 0.109375 C 9.046875 0.109375 9.453125 0.078125 9.6875 0 L 9.6875 -0.1875 C 9.609375 -0.171875 9.53125 -0.171875 9.4375 -0.171875 C 8.90625 -0.171875 8.597656 -0.6875 7.847656 -2.558594 C 7.097656 -4.476562 6.800781 -5.429688 4.882812 -5.679688 C 6.910156 -5.914062 7.972656 -7.019531 7.972656 -8.488281 C 7.972656 -9.875 7.035156 -10.921875 3.867188 -10.921875 L 0.796875 -10.921875 L 0.796875 -10.71875 C 1.277344 -10.578125 1.417969 -10.21875 1.417969 -8.9375 L 1.417969 -1.980469 C 1.417969 -0.703125 1.277344 -0.34375 0.796875 -0.203125 L 0.796875 0 L 3.324219 0 L 3.324219 -0.203125 C 2.839844 -0.34375 2.699219 -0.703125 2.699219 -1.980469 L 2.699219 -5.632812 L 3.699219 -5.632812 C 5.570312 -5.632812 5.695312 -4.539062 6.597656 -2.386719 C 7.285156 -0.765625 7.535156 0.109375 8.738281 0.109375 Z M 2.699219 -5.867188 L 2.699219 -10.65625 C 2.949219 -10.671875 3.199219 -10.6875 3.433594 -10.6875 C 5.742188 -10.6875 6.644531 -9.515625 6.644531 -8.128906 C 6.644531 -6.800781 5.804688 -5.867188 4.007812 -5.867188 Z M 2.699219 -5.867188 "/></g></g></g><g fill="#3f3c39" fill-opacity="1"><g transform="translate(183.759358, 176.622058)"><g><path d="M 5.632812 0.15625 C 7.800781 0.15625 9.515625 -1.03125 9.515625 -4.164062 L 9.515625 -8.9375 C 9.515625 -10.21875 9.671875 -10.578125 10.140625 -10.71875 L 10.140625 -10.921875 L 8.207031 -10.921875 L 8.207031 -10.71875 C 8.890625 -10.53125 9.265625 -10.09375 9.265625 -8.316406 L 9.265625 -4.117188 C 9.265625 -1.0625 7.472656 -0.171875 6.132812 -0.171875 C 4.101562 -0.171875 2.496094 -1.21875 2.496094 -4.117188 L 2.496094 -8.9375 C 2.496094 -10.21875 2.652344 -10.578125 3.121094 -10.71875 L 3.121094 -10.921875 L 0.59375 -10.921875 L 0.59375 -10.71875 C 1.078125 -10.578125 1.21875 -10.21875 1.21875 -8.9375 L 1.21875 -4.023438 C 1.21875 -0.890625 3.402344 0.15625 5.632812 0.15625 Z M 5.632812 0.15625 "/></g></g></g><g fill="#3f3c39" fill-opacity="1"><g transform="translate(196.424465, 176.622058)"><g><path d="M 6.691406 0.15625 C 8.441406 0.15625 9.921875 -0.28125 10.65625 -0.6875 L 10.90625 -2.714844 L 10.734375 -2.730469 C 10.125 -1.046875 8.816406 -0.15625 7.128906 -0.15625 C 3.882812 -0.15625 2.105469 -2.964844 2.121094 -5.898438 C 2.121094 -9.078125 4.039062 -10.734375 6.519531 -10.734375 C 8.378906 -10.734375 9.859375 -9.78125 10.46875 -8.363281 L 10.625 -8.394531 L 10.5625 -10.25 C 9.953125 -10.640625 8.394531 -11.03125 7.050781 -11.03125 C 3.386719 -11.03125 0.8125 -8.566406 0.8125 -5.242188 C 0.8125 -1.839844 3.105469 0.15625 6.691406 0.15625 Z M 6.691406 0.15625 "/></g></g></g><g fill="#3f3c39" fill-opacity="1"><g transform="translate(210.056544, 176.622058)"><g><path d="M 0.796875 0 L 3.324219 0 L 3.324219 -0.203125 C 2.839844 -0.34375 2.699219 -0.703125 2.699219 -1.980469 L 2.699219 -5.664062 L 8.644531 -5.664062 L 8.644531 -1.980469 C 8.644531 -0.703125 8.488281 -0.34375 8.019531 -0.203125 L 8.019531 0 L 10.546875 0 L 10.546875 -0.203125 C 10.0625 -0.34375 9.921875 -0.703125 9.921875 -1.980469 L 9.921875 -8.9375 C 9.921875 -10.21875 10.0625 -10.578125 10.546875 -10.71875 L 10.546875 -10.921875 L 8.019531 -10.921875 L 8.019531 -10.71875 C 8.488281 -10.578125 8.644531 -10.21875 8.644531 -8.9375 L 8.644531 -5.914062 L 2.699219 -5.914062 L 2.699219 -8.9375 C 2.699219 -10.21875 2.839844 -10.578125 3.324219 -10.71875 L 3.324219 -10.921875 L 0.796875 -10.921875 L 0.796875 -10.71875 C 1.265625 -10.578125 1.417969 -10.21875 1.417969 -8.9375 L 1.417969 -1.980469 C 1.417969 -0.703125 1.265625 -0.34375 0.796875 -0.203125 Z M 0.796875 0 "/></g></g></g><g clip-path="url(#04dd03f438)"><path fill="#3f3c39" d="M 190.960938 200.234375 C 190.933594 199.585938 190.699219 199.074219 190.269531 199.0625 C 189.523438 199.03125 188.777344 198.75 188.03125 198.875 C 187.230469 199.019531 186.46875 198.890625 185.695312 198.679688 C 185.542969 198.636719 185.40625 198.578125 185.265625 198.664062 C 184.90625 198.90625 184.535156 198.777344 184.160156 198.734375 C 183.609375 198.679688 183.066406 198.425781 182.515625 198.777344 C 182.433594 198.835938 182.292969 198.792969 182.183594 198.761719 C 180.703125 198.324219 179.195312 198.679688 177.703125 198.636719 C 177.34375 198.890625 176.972656 198.578125 176.613281 198.648438 C 176.195312 198.734375 175.796875 198.734375 175.382812 198.691406 C 174.675781 198.636719 173.957031 198.464844 173.265625 198.804688 C 173.140625 198.863281 172.976562 198.835938 172.824219 198.835938 C 172.1875 198.847656 171.550781 198.835938 170.914062 198.890625 C 170.570312 198.917969 170.25 198.949219 169.949219 198.707031 C 169.78125 198.566406 169.589844 198.648438 169.410156 198.707031 C 168.730469 198.933594 167.859375 199.101562 167.347656 198.976562 C 166.917969 198.875 166.53125 198.90625 166.117188 198.988281 C 165.828125 199.046875 165.523438 199.074219 165.21875 199.089844 C 161.789062 199.1875 158.363281 199.300781 154.933594 199.527344 C 153.164062 199.640625 151.394531 199.726562 149.625 199.824219 C 148.945312 199.867188 148.269531 199.980469 147.589844 199.996094 C 145.101562 200.066406 142.613281 200.066406 140.125 200.25 C 139.363281 200.304688 138.644531 200.519531 137.886719 200.574219 C 136.613281 200.6875 135.328125 200.859375 134.054688 201 C 133.875 201.027344 133.695312 201.070312 133.628906 201.324219 C 135.21875 201.226562 136.792969 201.085938 138.355469 201.027344 C 139.667969 200.972656 140.984375 201 142.296875 201 C 143.238281 201 144.175781 201.011719 145.117188 200.984375 C 146.707031 200.941406 148.28125 200.816406 149.871094 200.816406 C 150.785156 200.816406 151.683594 200.757812 152.582031 200.703125 C 153.523438 200.644531 154.460938 200.6875 155.390625 200.632812 C 158.277344 200.460938 161.167969 200.304688 164.070312 200.433594 C 164.582031 200.207031 165.121094 200.53125 165.632812 200.390625 C 166.351562 200.179688 167.042969 200.191406 167.761719 200.363281 C 167.96875 200.417969 168.21875 200.375 168.441406 200.363281 C 169.078125 200.320312 169.710938 200.261719 170.347656 200.234375 C 172.050781 200.148438 173.734375 200.148438 175.421875 200.40625 C 175.535156 200.417969 175.671875 200.460938 175.753906 200.40625 C 176.390625 200.050781 177.066406 200.390625 177.730469 200.261719 C 178.175781 200.179688 178.714844 200.191406 179.183594 200.277344 C 180.027344 200.433594 180.871094 200.390625 181.714844 200.488281 C 182.253906 200.5625 182.75 200.363281 183.277344 200.375 C 184.0625 200.40625 184.867188 200.40625 185.652344 200.449219 C 186.816406 200.503906 187.992188 200.488281 189.136719 200.714844 C 189.59375 200.816406 190.035156 200.773438 190.492188 200.757812 C 190.921875 200.730469 190.976562 200.644531 190.960938 200.234375 Z M 190.960938 200.234375 " fill-opacity="1" fill-rule="nonzero"/></g></svg>